<svg class="main-svg" xmlns="http://www.w3.org/2000/svg" xmlns:xlink="http://www.w3.org/1999/xlink" width="700" height="250" style="" viewBox="0 0 700 250"><rect x="0" y="0" width="700" height="250" style="fill: rgb(255, 255, 255); fill-opacity: 1;"/><defs id="defs-888f6b"><g class="clips"><clipPath id="clip888f6bxyplot" class="plotclip"><rect width="660" height="210"/></clipPath><clipPath class="axesclip" id="clip888f6bx"><rect x="20" y="0" width="660" height="250"/></clipPath><clipPath class="axesclip" id="clip888f6by"><rect x="0" y="20" width="700" height="210"/></clipPath><clipPath class="axesclip" id="clip888f6bxy"><rect x="20" y="20" width="660" height="210"/></clipPath></g><g class="gradients"/><g class="patterns"/></defs><g class="bglayer"/><g class="layer-below"><g class="imagelayer"/><g class="shapelayer"/></g><g class="cartesianlayer"><g class="subplot xy"><g class="layer-subplot"><g class="shapelayer"/><g class="imagelayer"/></g><g class="minor-gridlayer"><g class="x"/><g class="y"/></g><g class="gridlayer"><g class="x"><path class="xgrid crisp" transform="translate(126.7,0)" d="M0,20v210" style="stroke: rgb(238, 238, 238); stroke-opacity: 1; stroke-width: 0.1px;"/><path class="xgrid crisp" transform="translate(237.01,0)" d="M0,20v210" style="stroke: rgb(238, 238, 238); stroke-opacity: 1; stroke-width: 0.1px;"/><path class="xgrid crisp" transform="translate(347.33,0)" d="M0,20v210" style="stroke: rgb(238, 238, 238); stroke-opacity: 1; stroke-width: 0.1px;"/><path class="xgrid crisp" transform="translate(459.45,0)" d="M0,20v210" style="stroke: rgb(238, 238, 238); stroke-opacity: 1; stroke-width: 0.1px;"/><path class="xgrid crisp" transform="translate(569.76,0)" d="M0,20v210" style="stroke: rgb(238, 238, 238); stroke-opacity: 1; stroke-width: 0.1px;"/></g><g class="y"><path class="ygrid crisp" transform="translate(0,188)" d="M20,0h660" style="stroke: rgb(238, 238, 238); stroke-opacity: 1; stroke-width: 0.1px;"/><path class="ygrid crisp" transform="translate(0,146)" d="M20,0h660" style="stroke: rgb(238, 238, 238); stroke-opacity: 1; stroke-width: 0.1px;"/><path class="ygrid crisp" transform="translate(0,104)" d="M20,0h660" style="stroke: rgb(238, 238, 238); stroke-opacity: 1; stroke-width: 0.1px;"/><path class="ygrid crisp" transform="translate(0,62)" d="M20,0h660" style="stroke: rgb(238, 238, 238); stroke-opacity: 1; stroke-width: 0.1px;"/></g></g><g class="zerolinelayer"><path class="yzl zl crisp" transform="translate(0,230)" d="M20,0h660" style="stroke: rgb(68, 68, 68); stroke-opacity: 1; stroke-width: 1px;"/></g><g class="layer-between"><g class="shapelayer"/><g class="imagelayer"/></g><path class="xlines-below"/><path class="ylines-below"/><g class="overlines-below"/><g class="xaxislayer-below"/><g class="yaxislayer-below"/><g class="overaxes-below"/><g class="plot" transform="translate(20,20)" clip-path="url(#clip888f6bxyplot)"><g class="scatterlayer mlayer"><g class="trace scatter traced9f3a3" style="stroke-miterlimit: 2;"><g class="fills"><g><path class="js-fill" d="M660,210L0,210L0,161.48L0.53,179.39L0.68,158.73L0.75,153.38L0.83,148.94L1.13,156.35L1.43,153.9L1.51,154.14L1.58,154.45L1.66,160.26L1.73,160.54L1.81,156.63L2.03,161.89L2.26,139.22L2.34,118.02L2.79,135.54L3.01,123.13L3.09,113.5L3.16,111.21L3.32,121.7L3.39,129.8L3.77,153.37L3.99,142.23L4.07,121.95L4.14,91.14L4.82,105.77L4.9,97.14L5.12,109L5.2,123.84L5.65,170.89L5.95,127.51L6.03,137.78L6.56,140.75L6.71,129.19L6.78,132.19L6.86,133.42L7.23,160.79L7.31,164.47L7.46,168.91L7.61,160.79L7.69,141.44L8.51,102.62L8.59,102.74L8.67,110.86L9.34,169.17L9.64,141.17L9.72,131.67L9.87,130.88L9.95,134.95L10.02,138.34L10.1,138.74L10.17,134.84L10.32,118.57L10.55,129.21L10.62,137.84L11.15,172.11L11.45,149.61L11.53,142.84L11.6,141.11L11.83,152.86L11.91,156.97L11.98,157.19L12.06,156.94L12.13,154.2L12.21,153.69L12.28,155.96L12.36,160.93L12.89,202.15L13.26,183.05L13.34,169.06L13.49,167.55L13.56,168L13.64,170.96L14.02,158.73L14.32,168.85L14.39,176.57L14.69,192.13L14.92,157.57L14.99,143.11L15.15,141.69L15.45,156.72L15.67,146.24L15.75,134.07L16.35,177.83L16.65,168.06L16.73,144.18L16.8,125.52L17.26,146.72L17.41,146.08L17.48,144.22L17.56,137.57L17.86,160.56L17.93,169.71L18.31,197.07L18.54,171.21L18.61,148.94L18.76,148.85L19.06,163.41L19.37,150.75L19.44,150.57L19.89,183.56L19.97,202.12L20.27,188.17L20.34,164.19L20.42,147.47L20.87,166.62L21.1,161.62L21.17,152.92L21.25,151.29L21.4,158.06L21.48,164.05L21.85,198.72L22.23,170.56L22.3,160.11L22.45,153.52L22.76,166.61L23.06,156.9L23.13,159.45L23.74,181.01L23.81,191.61L23.96,188.08L24.04,174.32L24.34,150.06L24.94,155.93L25.02,157.23L25.62,200.59L25.92,195.08L26,180.56L26.67,155.47L26.82,156.65L26.9,158.99L27.28,173.59L27.5,159.4L27.58,139.21L27.65,118.67L28.11,144.8L28.33,135.27L28.41,125.78L28.48,124.35L28.56,130.07L28.63,137.93L29.09,173.05L29.31,163.98L29.39,143.9L29.46,131.35L29.84,153.77L30.14,138.98L30.22,132.77L31.04,168.59L31.12,162.11L31.2,141.74L31.27,122.17L31.72,153.54L31.87,148.71L31.95,141.93L32.02,133.85L32.48,158.88L32.55,165.84L32.85,170.9L32.93,163.83L33,144.96L33.08,119.81L33.76,124.5L33.83,120.55L34.51,158.25L34.81,145.3L34.89,139.2L35.11,91.46L35.64,120.42L35.72,116.25L36.47,148.04L36.62,143.41L36.7,131.35L37.52,90.49L37.6,110.86L38.05,142.01L38.35,135.62L38.43,117.85L39.11,120.4L39.26,89.46L39.33,83.85L40.09,144.88L40.16,138.3L40.24,115.79L40.31,58.86L40.99,96.49L41.07,76.79L41.14,77.43L41.22,110.63L41.82,159.11L42.05,133.05L42.12,120.76L42.27,87.36L42.57,123.89L42.87,94.55L42.95,135.21L43.7,171.79L43.78,166.07L43.85,148.17L43.93,120.45L44.53,161.64L44.61,155.45L44.76,145.22L45.21,167.59L45.29,172.57L45.44,173.41L45.51,172.64L45.59,167.08L45.74,135.43L46.42,145.89L46.49,139.98L46.57,139.79L46.64,141.83L47.17,166.32L47.4,161.6L47.47,146.94L47.77,98.57L48.3,100.8L48.38,131.37L49.05,163.1L49.35,153.08L49.43,145.34L49.58,134.37L49.96,152.15L50.18,144.3L50.26,147L50.64,163.85L50.71,166.77L50.94,169.83L51.01,165.54L51.09,153.91L51.16,145.33L51.69,167.32L51.77,169.27L51.92,163.1L52.37,177.61L52.44,182.54L52.67,193.21L52.82,181.85L52.9,161.67L52.97,153.36L53.5,174.59L53.57,172.7L53.88,160.84L54.25,174.04L54.33,177.47L54.48,177.09L54.55,174.89L54.78,139.77L55.16,161.86L55.23,162.3L55.53,152.47L55.84,160.87L55.91,166.55L56.36,175.18L56.44,168.74L56.51,150.29L56.59,133.54L57.04,156.66L57.19,154.52L57.27,150.61L57.34,140.93L57.87,163.8L57.94,167.48L58.02,168.69L58.17,163.84L58.25,157.82L59.15,104.19L59.23,101.73L59.45,125.68L59.53,138.77L59.9,165.58L60.28,143.19L60.36,136.84L60.73,147L60.96,136.6L61.03,136.04L61.56,157.61L61.94,146.87L62.01,138.28L62.16,100.51L62.69,130.75L62.77,124.8L62.84,122.81L62.99,136.46L63.07,142.91L63.6,163.69L63.75,146.09L63.82,138.28L64.27,156.32L64.5,147.33L64.58,138.13L64.65,135.49L64.95,147.34L65.03,149.74L65.33,159.77L65.48,149.72L65.56,110.49L65.63,80L66.16,138.78L66.23,134.59L66.31,114.58L66.38,103.31L66.84,149.05L66.91,156.13L67.21,159.83L67.29,152.82L67.36,134.8L67.44,125.64L67.82,147.35L67.97,146.34L68.04,148.87L68.27,138.63L68.64,150.75L68.72,159.92L68.87,165.18L69.1,155.92L69.17,141.08L69.25,127.14L69.78,153.23L69.85,155.66L70,148.57L70.3,158.42L70.38,164.63L70.83,179.62L70.91,174.66L70.98,160.85L71.06,149.93L71.66,169.87L71.73,165.68L71.96,160.33L72.19,168.85L72.26,170.9L72.41,177.72L72.79,166.4L72.86,159.17L73.09,143.76L73.54,161.06L73.62,156.96L73.69,157.6L73.92,164.13L73.99,170.9L74.52,180.5L74.67,172.76L74.75,167.11L75.2,168.15L75.5,150.47L75.58,153.93L75.65,159.53L76.1,172.78L76.33,166.33L76.41,153.86L76.48,143.11L77.01,165.76L77.08,165.08L77.16,157.59L77.31,152.26L77.69,166.03L77.76,170.48L77.91,175.54L78.21,153.44L78.29,143.5L78.82,171.45L79.04,154.36L79.12,154.42L79.19,152.49L79.5,164.43L79.57,169.15L79.72,171.95L79.95,163.92L80.02,145.58L80.1,93.14L80.7,151.72L80.78,136.71L80.85,116.22L80.93,108L81.15,150.39L81.23,158.21L81.3,156.83L81.38,164.35L81.45,169.27L81.61,169.48L81.68,169.41L81.76,162.81L81.98,119.63L82.51,153.41L82.58,148.64L82.74,145.7L82.96,156.7L83.04,161.31L83.26,173.08L83.56,167.03L83.64,147.71L83.87,131.52L84.17,159.64L84.24,157.95L84.32,158.22L84.62,147.67L84.92,164.08L85,166.02L85.3,178.26L85.6,162.44L85.67,155.25L85.75,153.95L85.9,159.66L85.98,163.62L86.35,159.73L87.03,185.91L87.18,181.88L87.26,176.38L87.56,152L88.16,156.18L88.24,156.23L88.84,173.09L88.99,165.94L89.06,154.78L89.14,140.04L89.67,165.97L89.74,165.18L89.82,159.04L89.97,148.7L90.42,170.28L90.5,177.95L90.72,190.59L90.95,152.5L91.1,166.08L91.17,170.63L91.55,178.92L91.7,163.75L91.78,159.88L92,163.69L92.08,169.66L92.31,189.82L92.68,164.32L92.76,150.7L93.06,163.95L93.44,153.58L93.51,145.74L93.59,132.85L94.11,169.5L94.19,169.66L94.34,169.66L94.41,164.87L94.57,137.1L95.17,155.86L95.24,148.58L95.32,145.81L95.62,152.05L95.7,158.77L96.15,168.43L96.22,163.73L96.3,148.43L96.37,138.46L96.9,159.84L96.98,159.74L97.2,145.2L97.65,165.36L97.73,169.96L97.88,172.91L98.18,159.8L98.26,154.63L98.41,145.66L98.79,158.25L99.01,150.92L99.09,153.88L99.69,173.39L99.99,166.95L100.07,159.3L100.52,167.08L100.82,154.41L100.9,154.42L101.42,170.61L101.65,163.49L101.72,152.35L101.8,142.54L102.25,169.38L102.33,170.47L102.7,145.75L102.85,154.08L102.93,158.09L103.23,169.21L103.46,160.83L103.53,143.69L103.68,123.8L104.14,166.4L104.21,166.28L104.51,147.77L104.89,164.5L104.96,167.46L105.04,169.84L105.27,161.76L105.34,147.82L105.42,134.8L105.94,164.84L106.02,164.84L106.25,147.38L106.7,164.1L106.77,171.2L107.07,163.41L107.15,149.67L107.22,120.38L107.83,166.62L107.9,161.47L108.13,149.32L108.51,165.29L108.58,170.21L108.88,162.42L108.96,148.2L109.03,132.27L109.64,163.5L109.71,158.66L109.86,146.9L110.31,163.36L110.39,165.79L110.69,164.74L110.77,159.83L111.07,137.13L111.37,164.61L111.44,163.22L111.52,161.09L111.59,156.11L112.12,166.64L112.2,171.41L112.35,171.21L112.42,173.03L113.55,144.91L113.63,147.9L113.7,153.05L114.01,164.59L114.31,156.05L114.38,144.43L114.46,130.96L114.91,159.58L114.99,158.96L115.06,157.55L115.36,118.07L115.66,147.74L115.74,150.09L115.89,159.97L116.19,128.89L116.27,87.72L116.87,149.53L117.1,117.62L117.17,108.36L117.7,161.99L118,140.3L118.08,124.91L118.68,152.52L118.83,133.47L118.9,115.81L119.58,153.71L119.73,141.52L119.81,114.46L119.88,82.91L120.49,136.81L120.56,129.65L120.79,105.01L121.09,143.53L121.16,148.75L121.39,155.32L121.54,147.13L121.62,122.97L121.69,96.89L122.29,146.7L122.37,141.11L122.6,114.62L122.97,148.96L123.05,154.24L123.2,155.03L123.35,150.18L123.43,141.4L123.73,115.97L124.25,124.73L124.33,119.9L125.01,158.74L125.23,148.23L125.31,140.92L125.38,133.61L125.84,155.54L125.91,154.98L125.99,149.05L126.21,136.16L126.59,154.85L126.67,158.55L126.89,159.93L126.97,155.87L127.04,146L127.12,136.28L127.64,162.38L127.72,163.58L127.95,141.22L128.32,160.4L128.4,166.95L128.62,177.41L128.85,153.07L128.93,144.03L129.53,161.08L129.68,154.02L129.75,151.8L129.83,150.46L129.98,158.13L130.06,162.14L130.51,172.05L130.58,168.3L130.66,152.44L130.73,137.96L131.34,165.04L131.41,157.52L131.71,144.04L132.09,162.16L132.17,160.22L132.24,160.06L132.32,157.74L132.54,107.5L132.77,148.12L132.84,154.7L132.99,162.99L133.37,142.11L133.45,142.9L133.52,141.99L133.67,148.07L133.75,150.19L133.97,162.69L134.28,138.88L134.35,107.77L134.8,163.75L135.18,147.06L135.26,147.75L135.86,174.15L136.08,165.62L136.16,160.07L136.99,147.42L137.06,150.81L137.52,170.44L137.59,172.89L137.67,173.42L137.82,172.07L137.89,167.7L138.19,154.57L138.42,168.43L138.5,170.68L138.72,157.93L138.8,153.13L139.55,174.49L139.63,170.28L139.7,159.96L139.78,151.68L140.23,167.58L140.38,166.15L140.45,161.12L140.61,156L141.06,168.91L141.13,173.59L141.28,173.83L141.36,173.76L141.43,168.73L141.58,145.56L142.11,168.7L142.19,168.2L142.49,147.84L142.79,161.69L142.87,166.56L143.09,171.37L143.32,151.33L143.39,141.44L144,161.18L144.15,151.51L144.22,149.27L144.6,165.16L144.67,170.8L144.98,178.86L145.13,158.71L145.2,148.32L145.8,172.76L146.03,161.37L146.11,158.85L146.26,161.18L146.33,166.82L146.78,191.59L146.86,179.64L146.93,163.71L147.01,153.5L147.54,174.34L147.61,173.01L147.91,159.02L148.22,171.87L148.29,176.07L148.59,186.23L148.89,167.76L148.97,164.75L149.42,170.45L149.72,161.05L149.8,161.17L149.87,167.3L150.4,200.61L150.63,181.55L150.7,171.94L150.93,160.89L151.53,163.11L151.61,164.23L152.21,175.98L152.28,173.38L152.36,161.7L152.44,150.88L152.96,170.01L153.04,167.67L153.11,161.71L153.34,146.92L153.79,165.57L153.87,166.8L154.09,154.67L154.17,131.38L154.24,131.14L154.32,148.7L154.39,149.08L154.47,156.59L154.85,166.49L155,150.77L155.07,147.26L155.15,143.66L155.45,157.28L155.52,162.67L155.6,165.53L155.83,159.51L155.9,146.37L156.05,102.88L156.43,157.67L156.58,157.08L156.65,157.99L156.88,118.29L157.11,146.54L157.18,156.43L157.41,167.05L157.63,165.29L157.71,157.74L157.86,113.42L158.39,156.27L158.46,157.81L158.69,123.66L159.07,160.84L159.14,166.55L159.37,170.03L159.52,162.7L159.59,135.63L159.67,117.41L160.05,160.34L160.2,160.04L160.27,161.87L160.57,140.66L160.87,159.48L160.95,167.19L161.1,171.82L161.4,157.95L161.48,147.67L161.63,137.99L162,160.87L162.08,159.7L162.16,156.26L162.31,147.67L162.76,169.27L162.83,171.39L162.91,173.25L163.29,166.77L163.36,160.54L163.89,166.28L164.11,154.53L164.19,156.2L164.27,156.52L164.64,171.82L165.02,157.06L165.09,152.78L165.7,172.18L165.85,159.81L165.92,150.12L166.07,146.77L166.22,156.45L166.3,156.67L166.6,167.47L166.75,154.16L166.83,125.97L166.9,111.1L167.35,170.03L167.43,167.91L167.66,151.33L167.73,134.92L167.81,130.78L168.03,155.19L168.11,155.96L168.33,167.6L168.56,159.53L168.64,121.2L168.71,111.22L169.01,164.03L169.09,166.7L169.16,169.32L169.39,161.01L169.46,152.18L169.62,143.72L169.99,164.87L170.07,169.68L170.22,169.54L170.29,166.05L170.52,122.71L170.59,153.16L170.67,155.98L171.05,167.95L171.35,152.92L171.42,155.47L171.5,155.17L171.57,157.63L171.65,162.28L172.03,171.08L172.25,149.57L172.33,136.18L172.7,157.47L173.08,146.35L173.16,143.67L173.38,147.9L173.46,155.63L173.68,167.81L174.14,155.92L174.21,152.34L174.66,163.09L175.04,146.47L175.12,148.73L175.79,169.24L175.94,164.12L176.02,159.12L176.17,154.32L176.4,169.64L176.47,174.12L176.7,162.27L176.77,157.12L176.92,156.92L177,161.8L177.45,177.02L177.6,172.26L177.68,162.59L177.75,154.96L178.13,185.51L178.21,186.79L178.28,186.51L178.36,180.15L178.66,160.19L179.03,180.66L179.11,183.57L179.26,185.27L179.41,179.82L179.49,169.15L179.56,163.52L179.86,193.68L179.94,195.4L180.01,197.7L180.24,188.99L180.32,172.92L180.39,170.46L180.69,186.24L180.77,197.95L180.99,200.9L181.14,188.63L181.22,176.54L181.37,148.83L181.9,176.58L181.97,174.29L182.05,169.58L182.35,153.95L182.65,179.34L182.73,185.06L182.95,185.48L183.03,180.8L183.33,166.7L183.78,177.33L183.86,175.86L184.08,165.5L184.46,183.19L184.53,188.29L184.69,189.72L184.84,185.44L184.91,178.36L185.14,170.96L185.51,180.48L185.74,172.13L185.82,171.66L185.89,171.09L186.04,173.62L186.12,177.27L186.34,180.38L186.72,173.51L186.8,170.94L187.62,151.79L187.7,154.23L187.77,154.17L188.38,178.41L188.68,167.7L188.75,160.27L189.06,172.94L189.73,172.87L189.81,173.17L190.11,180.85L190.41,172.88L190.49,170.43L190.71,166.97L190.94,178.09L191.01,179.4L191.39,168.02L191.77,175.83L191.84,176.06L191.99,174.95L192.07,169.29L192.15,135.68L192.75,196.6L192.82,196.48L193.12,164.77L193.58,183.38L193.65,183.35L193.88,179.7L193.95,157.41L194.03,146.77L194.41,195.05L194.48,195.52L194.56,197.7L194.71,196.72L194.78,175.57L194.93,169.93L195.31,181.72L195.39,185.7L195.84,157.06L195.91,193.26L195.99,192.22L196.29,196.31L196.36,198.11L196.59,196.63L196.67,169.16L197.27,188.53L197.5,184.6L197.57,170.89L198.17,197.27L198.4,196L198.47,174.41L198.55,170.94L198.93,184.23L199,186.51L199.45,180.82L199.53,193.06L199.6,194.31L199.98,198.5L200.21,196.06L200.28,171.65L200.43,171.23L200.51,176.33L201.56,200.7L201.79,199.79L201.87,198.44L201.94,197.39L202.02,176.69L202.24,172.99L202.47,182.17L202.54,185.8L202.69,191.23L203,175.79L203.07,167.42L203.52,191.14L203.75,168.72L203.82,161.48L204.05,158.45L204.28,167.96L204.35,177.79L204.58,181.89L204.65,177L204.73,166.3L204.88,128.77L205.48,164.21L205.56,158.16L205.86,146.63L206.16,169.09L206.24,171.66L206.39,172.25L206.46,170.82L206.54,164.19L206.69,137.92L207.14,170.38L207.22,170.01L207.29,165.48L207.67,150.91L207.89,162.54L207.97,167.56L208.12,172.06L208.35,163.31L208.42,144.33L208.5,136.8L208.8,162.68L208.87,162.58L208.95,165.33L209.17,160.72L209.25,153.93L209.48,148.84L209.63,158.97L209.7,158.21L209.78,164.97L209.93,170.72L210.15,160.96L210.23,135.21L210.3,133.57L210.38,158.06L210.61,165.58L210.68,170.2L210.91,172.73L210.98,165.45L211.06,156.66L211.21,133.52L211.59,169.48L211.66,174.39L211.89,174.58L211.96,173.57L212.04,163.79L212.34,152.8L212.41,156.84L212.49,164.73L212.64,170.49L212.79,165.02L212.87,156.83L213.09,149.9L213.32,167.18L213.39,166.95L213.7,175.55L214,165.04L214.07,159.24L214.22,165.16L214.3,169.65L214.45,175.56L214.83,158.58L214.9,157.42L215.88,189.39L215.96,177.05L216.03,177.95L216.33,180.12L216.41,174.77L216.48,164.71L216.71,155.02L216.94,166.63L217.01,176.67L217.24,185.77L217.61,171.88L217.69,164.56L218.07,174.96L218.29,165.16L218.37,160.7L218.52,153.98L218.82,171.51L218.89,176.25L219.2,167.42L219.27,143.57L219.35,137.46L219.42,156.15L219.5,189.97L219.57,193.25L219.65,167.08L219.87,178.61L219.95,174.31L220.33,152.73L220.63,173.91L220.7,178.86L220.78,179.48L220.85,176.07L220.93,177.19L221,171.98L221.08,152.86L221.68,180.86L221.76,176.1L222.13,155.56L222.44,175.54L222.51,180.15L222.74,177.67L222.81,171.67L222.96,145.65L223.42,181.76L223.49,179.22L223.57,175.54L223.87,151.21L224.24,177.96L224.32,180.12L224.62,177.44L224.7,171.72L224.92,164.61L225.3,177.91L225.45,177.4L225.53,171.24L225.68,171.51L225.75,168.2L226.43,184.65L226.58,179.45L226.66,172.89L226.73,171.09L226.96,182.28L227.03,185.5L227.18,180.64L227.26,178.06L227.56,164.51L227.94,180.68L228.01,180.46L228.16,182.32L228.24,180.56L228.39,168.75L228.84,200.59L228.92,202.29L229.37,166.64L229.75,182.4L229.82,185.02L230.2,160.7L230.27,194.35L230.35,192.94L230.72,198.55L230.8,198.04L230.88,180.3L231.18,169.69L231.48,187.37L231.55,191.14L231.86,186.92L231.93,174.73L232.01,170.13L232.23,196.92L232.31,197.49L232.46,197.23L232.53,198.35L232.68,197.29L232.76,177.2L232.83,177.06L232.91,174.84L233.66,198.78L234.19,195.89L234.27,195.79L234.34,197.85L234.72,195.1L234.79,177.55L235.32,198.37L235.85,194.62L235.92,194.3L236.15,197.62L236.23,184.67L236.53,176.5L236.83,182.82L236.9,186.83L237.28,198.5L237.81,197.41L237.88,197.73L237.96,199.16L238.34,196.02L238.56,198.42L238.64,197.06L239.16,196.69L239.62,204.62L239.69,204.68L239.77,205.18L239.84,202.12L239.92,199.68L240.14,186.88L240.45,193.02L240.52,195L241.42,205.03L241.5,205.21L241.58,205.57L241.65,201.07L242.03,186.77L242.25,192.1L242.33,196.84L242.4,200.21L242.86,192.42L243.01,193.54L243.08,195.84L243.16,195.64L243.31,196.12L243.38,198.68L243.46,198.86L243.69,197.94L243.76,195.78L243.91,185.95L244.29,200.4L244.44,199.61L244.51,198.95L244.66,178.93L245.19,204.12L245.27,201.57L245.57,184.3L245.72,192.7L245.8,198.29L245.87,191.39L246.02,200.88L246.47,192.43L246.55,202.18L246.7,193.17L247,206.75L247.15,203.31L247.23,187.31L247.45,178.59L247.83,187.77L247.91,187.77L247.98,187.91L248.21,173.9L248.28,170.21L248.73,201.42L249.04,197.71L249.11,176.5L249.26,174.38L249.41,181.8L249.49,180.45L249.56,184.95L250.09,181.67L250.54,198.46L250.62,199.52L250.77,197.86L250.84,177.04L250.99,174.94L251.15,179.58L251.22,184.39L252.43,205.73L252.5,205.61L252.8,185.26L253.1,194.6L253.18,198.28L254.08,205.66L254.16,205.62L254.23,205.98L254.39,205.28L254.46,200.92L254.91,194.04L255.21,199.5L255.29,199.39L255.52,192.98L256.04,199.24L256.12,199.19L256.42,196.74L256.72,197.83L256.8,198.34L257.32,194.72L257.7,202.51L257.78,202.68L257.85,204.88L258,191.05L258.08,187.9L258.38,184.46L258.6,194.98L258.68,198.2L258.83,198.02L258.91,203.13L259.13,197.5L259.58,202.51L259.66,204.63L260.26,191.34L260.56,198.36L260.64,199.95L260.94,195.46L261.24,201.02L261.32,203.22L261.47,204.66L261.62,201.57L261.69,187.14L261.92,182.66L262.22,192.67L262.3,194.26L262.37,192.72L262.6,200.15L262.82,198.19L262.9,198.79L263.28,205.18L263.5,200.12L263.58,186.78L263.65,185.25L264.03,193.21L264.11,194.76L264.26,194.82L264.33,196.61L264.41,196.88L264.48,195.23L264.56,199.25L264.71,202.93L264.78,205.07L265.09,205.64L265.16,204.52L265.24,190.94L265.31,185.45L265.91,197.17L265.99,197.21L266.14,197.44L266.22,201.3L266.29,198.28L266.59,206.11L266.82,206.11L266.89,206.09L267.27,183.79L267.65,193.72L267.72,195.5L267.8,196.03L267.95,194.33L268.02,192.2L268.1,183.36L268.63,204.5L268.7,205.12L268.85,205.07L268.93,202.11L269.08,182.68L269.38,189.95L269.46,194.81L269.76,200.82L269.91,193.12L270.36,198.42L270.43,198.52L270.81,199.97L270.89,198.6L270.96,189.4L272.32,205.1L272.39,202.28L272.85,191.98L273.15,201.04L273.22,202.5L273.6,196.49L273.9,200.26L273.98,203.68L274.05,204.4L274.28,199.85L274.35,199.55L274.58,183.95L275.11,194.56L275.18,195.95L275.33,193.44L275.41,191.78L275.94,200.74L276.16,200.31L276.24,187.11L276.31,185.65L276.61,191.67L276.69,194.84L277.67,206.68L277.74,207.22L278.2,191.88L278.5,196.59L278.57,205.36L279.03,201.34L279.18,206.34L279.33,204.34L279.4,205.8L279.55,207.17L279.78,203.91L279.85,202.41L280.08,203.86L280.16,196.52L280.68,201.28L280.91,199.14L280.98,197.61L281.66,200.77L281.81,199.29L281.89,193.37L282.19,201.37L282.64,197.69L282.72,199.2L282.79,197.68L283.32,200.77L283.4,200.78L283.85,199.2L284.07,200.94L284.15,200.9L284.3,200.54L284.37,193.88L285.13,200.62L285.43,198.93L285.51,198.64L286.03,200.67L286.11,200.61L286.18,196.68L287.09,200.14L287.16,198.44L287.46,199.2L287.54,200.86L287.77,201.04L287.92,200.61L287.99,198.41L288.52,198.59L288.59,200.22L288.97,198.38L289.05,200.06L289.2,197.48L289.57,200.47L289.8,198.85L289.88,198.82L290.03,201.86L290.1,203.92L290.4,204.87L290.55,201.63L290.63,200.47L291.01,195.65L291.23,202.55L291.31,202.76L291.61,199.02L291.91,205.43L291.99,205.58L292.21,206.16L292.29,205.79L292.36,201.55L292.81,193.55L292.96,198.87L293.04,202.06L293.49,195.38L293.87,198.28L293.94,197.98L294.32,199.77L294.55,197.92L294.7,198.55L294.77,198.61L295,200.28L295.3,195.47L295.38,197.29L295.45,195.46L295.83,199.87L296.28,197.77L296.36,197.81L296.81,199.76L296.96,199.57L297.03,195.41L297.11,194.96L297.34,197.36L297.41,197.28L297.49,197.25L297.64,199.11L298.24,197.26L298.31,197.22L298.62,199.36L298.77,198.94L298.84,193.87L299.07,193.77L299.67,198.31L299.75,198.23L299.82,196.01L300.12,196.99L300.2,198.95L300.5,198.97L300.58,198.82L300.65,195.78L300.8,195.6L301.18,196L301.25,198.05L301.48,198.19L301.55,196.32L302.23,198.92L302.38,198.81L302.46,196.89L302.69,196.73L302.76,197.65L302.84,198.81L302.99,200.99L303.44,196.52L303.51,198.56L303.59,198.55L304.04,198.89L304.27,194.99L304.49,196.68L304.57,199.41L304.8,202.55L305.02,198.62L305.17,198.71L305.25,196.72L305.62,196.85L305.7,198.81L306,198.6L306.08,193.26L306.3,192.22L306.45,195.44L306.53,195.57L306.75,197.87L307.36,196.89L307.43,197.03L307.66,198.97L307.96,194.39L308.04,196.33L308.11,194.33L308.71,198.46L308.94,196.46L309.01,196.44L309.47,199.19L309.62,198.76L309.69,194.15L309.92,194.08L310.6,198.19L310.67,196.18L310.9,196.88L310.97,197.22L311.28,199.68L311.43,198.97L311.5,194.44L311.58,194.1L311.65,196.31L311.8,196.3L311.88,196.3L312.03,196.36L312.1,198.36L312.41,198.41L312.48,196.39L312.71,197.09L312.78,198.54L313.08,200.44L313.39,196.95L313.46,196.84L313.84,196.87L313.91,198.81L314.14,198.96L314.21,197.13L314.97,201.56L315.12,199.84L315.19,199.56L315.27,198.89L315.42,202.5L315.49,203.62L315.65,205.25L315.95,200.56L316.02,199.1L316.7,201.79L316.85,200.97L316.93,197.76L317,197.99L317.08,201.78L317.53,205.29L317.76,200.22L317.83,200.26L318.21,198.29L318.43,200.47L318.58,199.95L318.66,199.13L318.96,194.08L319.34,200.32L319.41,199.52L319.71,197.62L320.09,198.65L320.17,200.34L320.39,200.4L320.47,200.08L320.54,195.93L320.77,194.73L321,197.75L321.07,197.42L321.15,198.61L321.45,199.1L321.52,196.68L322.2,199.88L322.28,199.86L322.35,195.29L322.58,191.74L322.88,195.73L322.95,198.83L323.26,199.2L323.33,197.23L323.56,198.04L323.71,197.65L323.78,199.44L324.08,199.47L324.16,195.11L324.31,196.36L324.39,194.41L324.69,195.07L324.76,198.73L325.06,198.87L325.14,196.96L325.37,197.59L325.44,197.86L325.82,200.11L326.12,197.3L326.19,197.29L326.5,197.4L326.57,199.22L326.8,199.12L326.87,197.39L327.63,201.76L327.78,200.01L327.85,198.95L328,201.01L328.08,203.19L328.38,206.31L328.53,201.59L328.61,200.49L328.68,198.7L329.13,205.56L329.21,206.4L329.51,206.41L329.59,205.46L330.19,206.84L330.41,206.4L330.49,205.96L331.39,197.85L331.47,197.55L332,205.05L332.3,200.89L332.37,198.65L332.52,198.39L332.75,199.96L332.83,201.5L333.05,201.49L333.13,201.04L333.2,196.63L333.5,202.82L334.03,201.02L334.11,200.31L334.18,198.57L334.78,201.83L334.86,201.83L334.94,201.55L335.01,197.83L335.24,197.06L335.31,200.09L335.39,200.48L335.69,202.47L335.76,201.73L335.84,200.72L335.99,198.71L336.37,201.07L336.44,202.75L336.52,203.11L336.74,201.5L336.82,197.05L336.89,196.77L337.12,198.92L337.2,199.32L337.35,199.4L337.42,201.06L337.5,201.33L337.65,200.26L337.72,200.24L337.8,198.56L337.87,198.81L337.95,190.75L338.33,201.99L338.7,198.39L338.78,198.33L339.16,198.58L339.23,200.21L339.46,200.09L339.53,198.32L340.29,202.53L340.36,202.15L340.44,200.14L340.66,199.92L340.74,200.43L340.81,202.07L340.96,203.49L341.34,199.41L341.49,201.31L341.57,201.42L342.02,201.97L342.47,198.13L342.55,200.44L342.7,201.98L343.15,201.1L343.22,199.54L343.6,199.93L343.68,201.52L343.98,201.11L344.05,197.34L344.28,197.09L344.96,200.64L345.03,198.99L345.56,202L345.79,201.46L345.86,197.51L346.09,197.36L346.46,200.82L346.77,200.65L346.84,199.2L347.44,202.86L347.59,202.24L347.67,198.57L347.82,199.71L347.9,198.1L347.97,200.02L348.27,203.51L348.65,200.14L348.72,200.19L349.18,203.01L349.4,202.83L349.48,199.37L349.7,198.89L349.93,200.51L350.01,200.51L350.08,201.89L350.16,202.03L350.38,201.78L350.46,200.39L350.76,202.01L350.83,203.22L351.66,200.73L351.81,200.91L351.89,202.3L352.27,200.71L352.34,202.19L352.57,202.07L353.7,206.41L353.77,206.25L353.85,204.61L354,202.22L354.3,205.01L354.45,204.62L354.53,206.18L354.9,205.52L355.2,208.01L355.28,209.17L355.43,211.01L355.73,205.54L355.81,204.17L356.18,203.17L356.56,205.7L356.64,203.87L356.79,200.77L357.31,205.61L357.39,205.4L357.77,202.24L358.07,203.85L358.14,204.72L358.37,205.07L358.45,204.85L358.52,202.34L358.75,202.29L359.2,204.14L359.42,203.79L359.5,203.01L359.95,204.94L360.25,204.67L360.33,202.4L360.55,202.2L361.23,204.15L361.31,203.28L361.46,198.69L361.99,205.04L362.06,205.07L362.36,202.8L362.82,204.57L362.89,204.57L362.97,198.55L363.04,204.59L363.64,203.83L363.72,204.56L363.87,205.29L364.1,204L364.32,204L364.4,204L364.77,204.83L364.85,204.02L364.93,199.14L365.68,205.29L365.9,204.55L365.98,204.5L366.13,197.72L366.58,205.21L366.81,199.42L366.88,200.91L367.04,200.38L367.11,201.28L367.19,203.02L367.49,205.97L368.01,205.49L368.09,205.07L368.17,205.98L368.54,203.95L368.62,203.95L368.69,199.83L369.14,204.54L369.52,202.49L369.6,201.36L370.05,198.46L370.12,203.71L370.2,196.52L370.35,196.92L370.43,203.03L370.95,204.57L371.1,204.14L371.18,201.45L371.78,203.87L372.08,203.55L372.16,202.46L372.54,203.24L372.61,204.26L372.91,203.94L372.99,201.35L373.21,201.26L373.89,203.45L373.97,195.81L374.57,203.89L374.8,201.18L374.87,201.16L375.02,201.01L375.7,203.37L375.78,202.2L375.93,196.65L376.23,203.83L376.45,203.75L376.53,203.84L376.83,202.28L377.28,203.41L377.36,203.38L377.58,202.19L377.81,203.98L377.89,203.57L377.96,204.69L378.34,205.47L378.41,204.36L378.49,203.96L378.87,203.46L378.94,204.03L379.02,204.72L379.32,202.91L379.77,203.36L379.84,204.3L380.15,204.17L380.22,202.2L380.82,206.4L381.05,204.05L381.13,203.6L381.2,202.56L381.8,203.98L381.88,203.69L382.26,200.5L382.63,202.98L382.71,202.96L382.93,202.94L383.01,201.78L383.69,204.27L383.76,204L383.84,200.93L384.06,200.74L384.22,201.97L384.29,202.05L384.52,203.23L385.12,202.78L385.19,202.87L385.42,203.91L385.65,201.22L385.8,202.33L385.87,201.21L386.25,204.1L386.7,202.36L386.78,202.35L387.08,206.13L387.38,204.14L387.46,202.06L387.68,201.34L387.91,203.17L387.98,203.55L388.43,202.32L388.81,204.59L388.89,204.69L389.11,205.06L389.19,204.78L389.26,203.23L389.49,202.79L389.79,203.27L389.87,204.24L390.17,202.86L390.24,202.98L390.32,204.18L390.54,203.54L390.92,205.01L391.07,204.39L391.15,204.29L391.6,204.07L391.67,204.94L391.83,204.9L391.9,199.98L392.13,200.06L392.2,201.72L392.81,205.17L393.03,204.28L393.11,203.27L393.48,205.66L393.86,203.69L393.94,203.71L394.31,204.65L394.39,205.84L394.54,206.43L394.61,204.75L394.69,202.78L394.76,202.46L394.91,203.58L394.99,205.28L395.52,205.91L395.59,205.59L395.67,205.25L396.05,206.43L396.12,206.86L396.42,206.52L396.5,204.8L397.1,206.42L397.4,206.06L397.48,205.54L397.85,206.03L397.93,206.52L398.23,206.44L398.31,204.79L398.53,204.63L398.68,205.29L398.83,205.12L398.91,205.79L399.13,204.69L399.21,198.27L399.36,197.42L399.44,198.78L399.51,204.47L399.59,201.22L399.81,205.97L400.26,202.99L400.34,202.03L401.32,204.92L401.4,204.45L401.62,205.53L402,202.99L402.07,202.96L402.53,204.39L402.75,204.02L402.83,202.99L402.9,198.76L403.5,205.79L403.58,206L404.18,204.34L404.48,204.92L404.56,204.87L404.64,204.07L405.16,205.5L405.24,205.45L405.31,205.4L405.39,205.62L405.46,205.52L405.54,203.82L405.77,203.51L405.92,205.31L405.99,205.82L406.14,205.83L406.22,204.93L406.52,203.98L406.9,204.41L406.97,205.19L407.27,204.84L407.35,201.92L407.42,201.13L407.88,203.04L407.95,204.09L408.33,202.81L408.48,203.46L408.55,204.22L408.7,204.26L408.78,205.14L409.08,204.76L409.16,202.01L409.23,201.59L409.61,202.99L409.68,202.98L409.76,203.96L410.14,202.99L410.29,203.4L410.36,204.1L410.81,205.36L410.89,205.1L410.96,202.71L411.19,202.46L411.34,203.49L411.42,203.5L411.94,203.19L412.55,206L412.62,205.82L413,202.42L413.3,203.43L413.38,204.35L413.75,202.65L414.05,204.03L414.13,204.89L414.36,204.99L414.51,204.8L414.58,202.6L414.73,201.93L415.11,202.73L415.18,204.03L415.49,203.42L416.24,205.55L416.31,205.34L416.39,204.42L416.69,204.06L416.92,204.65L416.99,204.94L417.29,204.11L417.37,204.21L417.44,205.08L417.67,204.42L418.12,205.24L418.2,203.72L418.42,203.08L418.65,204.54L418.73,204.47L418.8,204.74L419.1,204.66L419.18,203.79L419.78,205.03L419.93,204.8L420.01,202.17L420.91,204.17L420.99,203.23L421.36,204.01L421.44,204.9L421.74,204.73L421.82,202.32L422.04,202.15L422.72,204.2L422.79,203.25L423.17,203.9L423.25,204.75L423.55,204.77L423.62,202.28L424.53,204.3L424.6,203.38L425.28,204.84L425.36,204.8L425.43,202.19L425.66,202.14L426.26,204.39L426.34,204.35L426.41,203.37L426.56,203.42L426.64,204.28L427.09,205.88L427.39,203.09L427.47,203.29L427.54,203.66L428.45,205.33L428.52,203.89L428.97,205.69L429.28,204.46L429.35,204.36L429.88,205.12L429.95,204.47L430.78,205.86L430.86,204.15L431.08,203.64L431.23,204.62L431.38,204.38L431.46,205.11L432.14,203.5L432.21,204.07L432.29,204.9L432.59,204.53L432.67,202.49L432.82,202.95L432.89,201.36L433.19,202.44L433.27,203.52L433.49,203.62L433.57,195.95L433.72,195.81L433.8,194.64L434.1,205.16L434.55,201.75L434.62,202.78L434.7,201.76L435.23,204.04L435.3,203.83L435.45,196.75L435.98,204.96L436.06,204.95L436.21,204.58L436.28,202.09L437.04,204.13L437.11,204.06L437.19,197.24L437.41,194.83L437.56,200.42L437.64,202.83L437.87,205.17L438.09,202.33L438.39,203.53L438.47,203.73L438.62,203.53L438.69,204.64L439,204.43L439.07,198.13L439.22,197.3L439.3,203.83L439.75,206.34L440.05,204.31L440.13,204.31L440.43,204.42L440.5,205.14L440.73,205.08L440.8,204.34L441.63,206.44L441.78,205.87L441.86,205.81L442.24,205.77L442.46,206.26L442.54,206.25L442.99,205.72L443.21,206.35L443.29,206.36L443.44,206.43L443.52,205.44L443.74,205.32L444.42,206.33L444.5,205.81L444.87,206.04L444.95,206.55L445.25,206.62L445.32,204.98L445.4,204.8L445.63,205.5L445.85,205.54L445.93,206.05L446.68,206.11L446.76,206.56L447.06,206.34L447.13,204.63L447.36,204.55L448.04,205.8L448.11,205.17L448.64,206.44L448.87,206.19L448.94,204.35L449.17,204.2L449.77,205.61L449.85,201.64L449.92,200.99L450.15,205.62L450.22,205.56L450.6,206.16L450.67,206.08L450.75,204.22L451.65,205.55L451.73,204.86L452.03,205.56L452.11,206.14L452.48,206.1L452.56,204.95L453.09,204.95L453.16,205.63L453.69,205.65L453.76,206.13L454.22,206.35L454.59,205.58L454.67,205.56L456.1,206.24L456.18,205.27L456.4,205.08L457.08,206.09L457.15,205.51L457.91,206.15L457.98,204.35L458.21,204.28L458.89,205.64L458.96,205.07L459.19,205.65L459.26,205.93L459.57,206.43L459.72,206.18L459.79,204.39L460.62,205.66L460.7,201.72L460.92,201.76L461,203.38L461.3,206.23L461.75,205.08L461.83,204.44L462.2,205.73L462.35,205.64L462.43,200.43L462.58,199.05L462.96,203.52L463.03,204.61L463.26,204.6L463.33,203.41L463.48,197.06L464.01,205.72L464.09,201.25L464.16,200.68L464.31,199.43L464.69,202.47L464.77,203.57L465.07,206.28L465.52,205.12L465.59,205.12L465.9,205.82L465.97,201.45L466.05,200.84L466.42,203.73L466.5,206.19L466.95,206.71L467.18,206.15L467.25,206.13L467.85,201.56L468.01,201.88L468.08,202.44L468.61,204.84L468.76,203.47L468.83,201.69L468.91,200.73L468.99,205.94L469.21,205.91L469.29,205.91L469.51,206.42L469.59,202.39L469.81,200.69L470.12,202.9L470.19,205.92L470.42,206.46L470.57,203.57L470.64,199.33L470.72,197.97L471.02,201.33L471.17,201.33L471.25,201.99L471.47,200.16L471.55,205.81L471.62,205.17L471.7,205.25L472.3,206.79L472.38,206.72L472.45,205.05L472.68,204.8L473.05,206.17L473.13,206.07L473.2,202.81L473.51,201.72L473.73,204.23L473.81,205.08L473.96,205.94L474.18,204.66L474.26,201.13L474.33,200.08L474.71,202.7L474.94,201.81L475.01,201.89L475.84,206.78L475.92,206.77L476.14,204.59L476.6,205.31L476.67,205.94L477.2,205.4L477.27,206.33L477.73,206.77L477.8,206.61L477.88,205.39L478.1,200.58L478.48,205.98L478.78,201.03L478.86,201.13L479.53,206.43L479.61,204.91L479.68,204.31L479.99,200.21L480.21,205.7L480.29,206.25L480.44,206.22L480.51,201.85L480.59,201.31L481.04,203.16L481.12,204.28L481.27,204.31L481.34,203.8L481.42,202.76L481.49,200.49L481.95,206.17L482.02,206.15L482.1,206.44L482.47,201.11L482.85,205.94L482.92,206.5L483.23,206.44L483.3,204.67L484.21,205.98L484.28,205.39L484.58,206.32L484.66,205.46L484.73,206.77L485.03,205.3L485.11,201.27L485.71,205.98L485.86,202.27L485.94,201.64L486.09,201.03L486.24,205.47L486.32,206.18L486.84,206.77L486.92,204.99L487.14,204.82L487.67,206.04L487.75,202.01L487.9,201.43L488.05,202.79L488.12,206.26L488.35,206.52L488.95,204.53L489.25,205.31L489.33,205.98L489.63,205.64L489.71,205.1L490.38,206.43L490.46,206.37L490.54,205.19L490.61,204.87L491.14,205.91L491.21,205.91L491.44,201.67L491.97,205.06L492.04,205.06L492.42,204.09L492.95,206.53L493.02,206.51L493.1,203.08L493.25,202.03L493.62,203.75L493.7,203.52L493.78,204.47L494.23,199.52L494.3,205.27L494.6,205.39L495.06,199.85L495.43,201.73L495.51,203.24L495.66,205.76L496.04,197.29L496.26,204.38L496.34,204.36L496.64,204.69L496.71,199.16L496.86,197.09L497.24,201.84L497.32,202.89L497.54,203.86L497.69,201.88L497.77,197.05L497.84,192.74L498.22,204.57L498.45,200.55L498.52,198.38L498.67,196.45L499.05,200.72L499.13,201.74L499.28,202.8L499.5,201.39L499.58,196.79L499.65,196.05L499.73,204.25L500.18,205.15L500.33,199.61L500.41,197.67L500.56,197.11L500.71,198.79L500.78,201.31L501.16,203.74L501.31,202.43L501.39,197.39L501.46,195.4L501.84,204.31L502.06,199.26L502.14,198.49L502.29,195.96L502.74,201.19L502.82,202.37L503.04,202.94L503.19,200.08L503.27,199L503.5,195.33L503.72,204.53L503.8,205.12L504.17,197.85L504.55,202.24L504.63,203.14L504.93,202.35L505,201.74L506.06,196.93L506.13,198.59L506.66,200.26L506.74,199.15L506.81,196.49L506.89,194.84L507.26,200.08L507.41,199.52L507.49,198.76L507.72,192.16L508.17,197.51L508.24,199.31L508.47,198.12L508.54,182.36L508.7,153.81L509.22,179.73L509.3,179.73L509.52,168.71L509.83,193.48L509.9,188.36L509.98,191.2L510.13,193.37L510.28,184.81L510.35,179.48L510.5,158.72L511.03,185.96L511.11,184.01L512.01,205.73L512.16,205.22L512.24,195.99L512.69,204.69L512.91,198.8L512.99,195.55L513.14,194.29L513.29,196.75L513.37,197.78L513.67,202.36L513.97,197.33L514.04,190.17L514.35,202.14L514.95,183.73L515.02,183.56L515.63,194.89L515.85,188.25L515.93,185.86L516.08,180.18L516.31,192.26L516.38,195.96L516.46,195.75L516.53,191.28L516.68,187.95L516.98,198.13L517.06,200.44L517.51,202.61L517.66,201.25L517.74,198.43L518.26,200.27L518.57,192.98L518.64,196.09L519.24,201.67L519.39,200.44L519.47,193.27L519.92,201.45L520.37,184.19L520.45,184.43L520.53,184.22L520.6,185.07L520.68,186.47L520.83,189.57L520.9,190.59L521.05,189.33L521.13,186.89L521.35,162.92L521.81,181.03L521.88,181.09L522.11,173.1L522.41,178.44L522.48,183.06L522.56,182.79L522.64,186.18L522.86,190.6L523.09,174.17L523.16,168.71L523.69,187.68L523.99,180.41L524.07,179.65L524.67,192.05L524.82,186.94L524.9,172.38L524.97,165.88L525.5,184.6L525.57,182.01L525.72,174.19L526.1,187.57L526.18,190.15L526.33,198.47L526.7,181.42L526.78,173.9L527.38,184.78L527.53,179.95L527.61,179.9L527.83,181.43L527.91,186.03L528.29,192.07L528.89,175.03L528.96,177.77L529.04,179.07L529.34,176.88L530.02,188.02L530.17,187.62L530.25,186.33L531.15,168.06L531.23,170.04L531.3,173.49L531.83,194.83L532.05,184.92L532.13,174.65L532.2,168.8L532.58,185.65L532.81,179.85L532.88,175.36L532.96,172.6L533.33,179.97L533.41,178.28L533.49,182.66L533.64,185.68L533.86,181.46L533.94,126.97L534.01,107.19L534.47,170.95L534.54,165.58L534.62,165.28L534.77,146.7L535.29,182.78L535.37,186.09L535.52,186.47L535.6,186.3L535.67,182.68L535.82,164.54L536.42,176.9L536.5,174.78L536.57,171.35L537.03,180.32L537.1,183.38L537.18,186.42L537.48,180.67L537.55,169.34L537.63,159.14L538.08,173.83L538.23,171.22L538.31,169.43L538.38,165.88L538.84,174.55L538.91,178.55L538.99,181.59L539.29,176.42L539.36,163.67L539.44,157.56L539.89,170.06L540.04,168.72L540.12,163.66L540.19,161.05L540.64,172.16L540.72,175.76L540.87,179.2L541.1,177.82L541.17,160.5L542,129.14L542.08,136.4L542.68,180.79L542.9,178.32L542.98,173.18L543.81,127.03L543.88,150.91L543.96,162.97L544.56,191.52L544.94,178.96L545.01,177.76L545.32,179.47L545.39,179.12L545.47,173.97L545.69,163.4L546.07,179.76L546.14,190.74L546.37,194.8L546.52,179.31L546.6,163.45L547.43,139.74L547.5,143.29L548.25,177.26L548.33,171.67L548.41,153.42L548.93,155.39L549.23,119.51L549.31,114.86L549.99,178.49L550.14,171.96L550.21,158.09L550.29,144.44L550.67,169.99L550.89,164.57L550.97,161.4L551.04,156.22L551.49,175.22L551.57,180.21L551.87,192.67L551.95,179.83L552.02,163.67L552.1,149.99L552.7,168.37L552.78,164.38L552.85,161.58L553.23,172.63L553.3,175.35L553.6,197.99L553.91,174.23L553.98,168.41L554.13,161.79L554.51,171.69L554.73,167.61L554.81,169.74L555.56,196.47L555.71,190.5L555.79,184.49L556.47,175.81L556.62,177.12L556.69,180.09L557.3,190.63L557.45,181.64L557.52,172.47L557.9,181.67L558.2,173.83L558.28,168L558.95,189.07L559.18,183.51L559.26,171.34L559.63,177.05L560.16,137.04L560.24,157.27L560.84,182.8L560.99,175.28L561.06,159.09L561.14,132.43L561.52,168.36L561.82,154.25L561.89,139.44L561.97,134.5L562.19,165.18L562.27,170.06L562.65,181.7L562.8,175.68L562.87,163.22L562.95,150.08L563.4,168.76L563.55,167.16L563.63,162.13L563.7,159.1L564.08,173.81L564.15,175.26L564.3,180.98L564.61,173.24L564.68,157.37L564.76,145.59L565.13,164.53L565.36,163.7L565.43,160.64L565.51,155.1L565.96,171.97L566.04,177.57L566.26,187.12L566.56,169.72L566.64,164.61L567.39,155.43L567.47,158.11L567.54,161.14L568.15,177.06L568.37,169.59L568.45,161.73L569.2,136.15L569.28,152.62L569.35,155.52L569.88,174.86L570.11,157.79L570.18,149.61L570.56,163.2L570.86,148.8L570.94,133.96L571.76,172.42L571.84,167.33L571.91,151.41L572.14,135.19L572.59,159.18L572.67,157.8L572.74,150.92L573.2,172.68L573.27,177.13L573.5,180.22L573.65,176.98L573.72,162.88L574.55,145.64L574.63,146.58L575.31,172.51L575.46,164.92L575.53,141.33L575.61,114L575.98,147.99L576.28,133.4L576.36,125.47L576.44,121.39L576.66,143.37L576.74,151.83L577.11,167.81L577.26,158.8L577.34,138.34L578.17,96.16L578.24,116.15L578.85,162.81L579.15,147.11L579.22,136.19L580.05,109.01L580.13,113.66L580.81,161.68L581.03,147.15L581.11,138.58L581.86,125.1L581.94,134.96L582.61,178.93L582.92,164.69L582.99,160.73L583.52,149.64L583.59,137.65L583.67,132.95L583.97,150.54L584.05,155.96L584.27,171.25L584.57,136.86L584.65,112.16L585.03,146.18L585.4,123.04L585.48,126.22L586.16,168.51L586.31,158.68L586.38,133.32L586.46,113.6L586.76,134.82L587.14,127.81L587.21,120.13L587.66,155.49L587.74,159.98L588.04,166.66L588.19,144.26L588.27,136.94L588.87,170.39L589.09,160.72L589.17,160.95L589.25,160.82L589.32,162.89L589.85,193.48L590,165.5L590.07,154.74L590.45,171.98L590.83,162.33L590.9,164.35L591.66,188.14L591.73,181.97L591.81,174.62L592.11,151.73L592.71,153.78L592.79,155.79L592.94,161.1L593.01,167.7L593.47,175.98L593.62,169.78L593.69,163.91L594.52,126.76L594.67,135.24L594.75,143.31L595.27,162.35L595.35,157.69L595.42,143.58L595.88,146.27L596.33,115.22L596.4,115.15L597.08,165.54L597.23,131.27L597.31,106.23L597.91,135.54L598.06,122.49L598.14,123.49L598.81,165.09L598.97,154.01L599.04,133.97L599.87,76.84L599.95,84.49L600.7,159.16L600.85,133.05L600.92,104.75L601.3,132L601.6,100.07L601.68,66.74L602.36,162.97L602.66,131.82L602.73,93.41L602.81,93.76L602.88,81.4L603.34,113.02L603.49,61.9L603.56,71.11L604.24,157.73L604.47,140.8L604.54,120.33L605.3,46.46L605.37,62.04L605.45,84.5L606.05,147.7L606.35,135.76L606.43,119.7L607.18,87L607.25,100.56L607.33,109.98L607.78,142.83L608.08,128.5L608.16,113.45L608.23,129.65L608.84,106.64L608.91,96.65L608.99,96.31L609.06,97.83L609.14,110.12L609.67,143.47L609.82,133.11L609.89,107.88L610.65,12.64L610.72,36.99L610.8,83.05L611.47,141.68L611.62,133.45L611.7,105.01L611.85,-39.74L612.45,36.86L612.53,60.9L613.36,144.7L613.51,114.18L613.58,79.2L613.73,75.28L614.19,110.27L614.26,90.77L614.34,77.87L615.09,152.43L615.32,120.5L615.39,94.99L616.37,132.21L616.45,138.93L616.9,163.15L617.2,143.51L617.28,131.71L617.43,117.63L617.73,135.86L618.03,127.87L618.1,137.08L618.78,171.76L619.01,163.14L619.08,158.18L619.31,143.91L619.84,156.36L619.91,157.84L620.59,187.03L620.74,170.18L620.82,162.86L621.27,167.47L621.42,163.74L621.5,158.14L621.65,152.65L622.02,164.81L622.1,172.89L622.32,182.53L622.55,155.43L622.63,139.72L623,154.87L623.3,145.4L623.38,134.37L623.45,132.11L623.68,148.41L623.76,154.28L624.13,169.25L624.36,142.45L624.43,124.03L625.41,146.1L625.49,148.68L626.02,169.54L626.17,148.41L626.24,124.51L626.62,145.1L627,128.59L627.07,131.31L627.67,164.07L627.9,156.27L627.98,134.39L628.05,107.92L628.73,122.21L628.8,116.89L628.96,124.55L629.03,130.98L629.63,166.23L629.86,144.79L629.93,130.15L630.01,121.77L630.39,147.41L630.54,142.92L630.61,140.12L631.52,177.15L631.74,164.71L631.82,159.86L631.89,157.51L632.27,169.61L632.35,169.45L632.42,165.9L632.87,178.43L632.95,181.3L633.25,190.07L633.48,171.04L633.55,177.95L633.63,174.77L633.93,181.97L634,179.72L634.08,175.61L634.38,167.9L634.68,176.08L634.76,179.17L634.98,182.73L635.13,176.51L635.21,163.12L635.28,154.06L635.74,167.24L635.89,166.39L635.96,164.82L636.04,161.45L636.42,174.3L636.49,176.13L636.79,183.73L637.02,165.67L637.09,156.76L637.62,166.95L637.85,158.5L637.92,158.37L638.68,187.37L638.75,181.22L638.83,166.64L639.35,167.32L639.66,151.27L639.73,150.79L640.48,183.25L640.63,169.45L640.71,155.38L641.31,168.23L641.46,162.05L641.54,162.11L641.77,165.95L641.84,173.08L642.22,196.19L642.52,173.44L642.59,168.58L643.35,157.64L643.42,161.41L643.5,163.8L644.03,196.09L644.33,182.26L644.4,172.9L645.08,151.66L645.31,158.17L645.38,162.91L645.98,177.61L646.06,170.9L646.14,158.13L647.11,175.14L647.19,176.15L647.79,188.24L647.94,179.86L648.02,171.57L648.09,161.48L648.77,165.89L648.85,167.67L648.92,164.6L649.22,173.44L649.3,181.81L649.9,150.99L650.28,155.11L650.36,156.31L650.73,154.86L650.81,156.68L650.88,164.31L651.03,163.39L651.11,165.08L651.18,166.59L651.33,168.19L651.41,162.94L651.56,136.31L652.24,144.21L652.31,142.73L652.62,158.74L652.69,163.81L653.07,185.18L653.37,161.09L653.44,168.29L653.52,161.29L653.67,162.89L654.12,153.69L654.35,156.33L654.42,160.76L655.03,182.2L655.18,172.25L655.25,164.09L655.93,151.47L656.08,153.81L656.16,154.96L656.84,174.3L656.99,167.35L657.06,163.37L657.51,164.91L657.81,155.11L657.89,159.4L658.57,184.52L658.72,174.41L658.79,167.45L658.87,171.17L659.4,166.3L659.47,162.99L659.55,159.86L660,168.25" style="fill: rgb(54, 112, 97); fill-opacity: 0.5; stroke-width: 0;"/></g></g><g class="errorbars"/><g class="lines"><path class="js-line" d="M0,161.48L0.53,179.39L0.68,158.73L0.75,153.38L0.83,148.94L1.13,156.35L1.43,153.9L1.51,154.14L1.58,154.45L1.66,160.26L1.73,160.54L1.81,156.63L2.03,161.89L2.26,139.22L2.34,118.02L2.79,135.54L3.01,123.13L3.09,113.5L3.16,111.21L3.32,121.7L3.39,129.8L3.77,153.37L3.99,142.23L4.07,121.95L4.14,91.14L4.82,105.77L4.9,97.14L5.12,109L5.2,123.84L5.65,170.89L5.95,127.51L6.03,137.78L6.56,140.75L6.71,129.19L6.78,132.19L6.86,133.42L7.23,160.79L7.31,164.47L7.46,168.91L7.61,160.79L7.69,141.44L8.51,102.62L8.59,102.74L8.67,110.86L9.34,169.17L9.64,141.17L9.72,131.67L9.87,130.88L9.95,134.95L10.02,138.34L10.1,138.74L10.17,134.84L10.32,118.57L10.55,129.21L10.62,137.84L11.15,172.11L11.45,149.61L11.53,142.84L11.6,141.11L11.83,152.86L11.91,156.97L11.98,157.19L12.06,156.94L12.13,154.2L12.21,153.69L12.28,155.96L12.36,160.93L12.89,202.15L13.26,183.05L13.34,169.06L13.49,167.55L13.56,168L13.64,170.96L14.02,158.73L14.32,168.85L14.39,176.57L14.69,192.13L14.92,157.57L14.99,143.11L15.15,141.69L15.45,156.72L15.67,146.24L15.75,134.07L16.35,177.83L16.65,168.06L16.73,144.18L16.8,125.52L17.26,146.72L17.41,146.08L17.48,144.22L17.56,137.57L17.86,160.56L17.93,169.71L18.31,197.07L18.54,171.21L18.61,148.94L18.76,148.85L19.06,163.41L19.37,150.75L19.44,150.57L19.89,183.56L19.97,202.12L20.27,188.17L20.34,164.19L20.42,147.47L20.87,166.62L21.1,161.62L21.17,152.92L21.25,151.29L21.4,158.06L21.48,164.05L21.85,198.72L22.23,170.56L22.3,160.11L22.45,153.52L22.76,166.61L23.06,156.9L23.13,159.45L23.74,181.01L23.81,191.61L23.96,188.08L24.04,174.32L24.34,150.06L24.94,155.93L25.02,157.23L25.62,200.59L25.92,195.08L26,180.56L26.67,155.47L26.82,156.65L26.9,158.99L27.28,173.59L27.5,159.4L27.58,139.21L27.65,118.67L28.11,144.8L28.33,135.27L28.41,125.78L28.48,124.35L28.56,130.07L28.63,137.93L29.09,173.05L29.31,163.98L29.39,143.9L29.46,131.35L29.84,153.77L30.14,138.98L30.22,132.77L31.04,168.59L31.12,162.11L31.2,141.74L31.27,122.17L31.72,153.54L31.87,148.71L31.95,141.93L32.02,133.85L32.48,158.88L32.55,165.84L32.85,170.9L32.93,163.83L33,144.96L33.08,119.81L33.76,124.5L33.83,120.55L34.51,158.25L34.81,145.3L34.89,139.2L35.11,91.46L35.64,120.42L35.72,116.25L36.47,148.04L36.62,143.41L36.7,131.35L37.52,90.49L37.6,110.86L38.05,142.01L38.35,135.62L38.43,117.85L39.11,120.4L39.26,89.46L39.33,83.85L40.09,144.88L40.16,138.3L40.24,115.79L40.31,58.86L40.99,96.49L41.07,76.79L41.14,77.43L41.22,110.63L41.82,159.11L42.05,133.05L42.12,120.76L42.27,87.36L42.57,123.89L42.87,94.55L42.95,135.21L43.7,171.79L43.78,166.07L43.85,148.17L43.93,120.45L44.53,161.64L44.61,155.45L44.76,145.22L45.21,167.59L45.29,172.57L45.44,173.41L45.51,172.64L45.59,167.08L45.74,135.43L46.42,145.89L46.49,139.98L46.57,139.79L46.64,141.83L47.17,166.32L47.4,161.6L47.47,146.94L47.77,98.57L48.3,100.8L48.38,131.37L49.05,163.1L49.35,153.08L49.43,145.34L49.58,134.37L49.96,152.15L50.18,144.3L50.26,147L50.64,163.85L50.71,166.77L50.94,169.83L51.01,165.54L51.09,153.91L51.16,145.33L51.69,167.32L51.77,169.27L51.92,163.1L52.37,177.61L52.44,182.54L52.67,193.21L52.82,181.85L52.9,161.67L52.97,153.36L53.5,174.59L53.57,172.7L53.88,160.84L54.25,174.04L54.33,177.47L54.48,177.09L54.55,174.89L54.78,139.77L55.16,161.86L55.23,162.3L55.53,152.47L55.84,160.87L55.91,166.55L56.36,175.18L56.44,168.74L56.51,150.29L56.59,133.54L57.04,156.66L57.19,154.52L57.27,150.61L57.34,140.93L57.87,163.8L57.94,167.48L58.02,168.69L58.17,163.84L58.25,157.82L59.15,104.19L59.23,101.73L59.45,125.68L59.53,138.77L59.9,165.58L60.28,143.19L60.36,136.84L60.73,147L60.96,136.6L61.03,136.04L61.56,157.61L61.94,146.87L62.01,138.28L62.16,100.51L62.69,130.75L62.77,124.8L62.84,122.81L62.99,136.46L63.07,142.91L63.6,163.69L63.75,146.09L63.82,138.28L64.27,156.32L64.5,147.33L64.58,138.13L64.65,135.49L64.95,147.34L65.03,149.74L65.33,159.77L65.48,149.72L65.56,110.49L65.63,80L66.16,138.78L66.23,134.59L66.31,114.58L66.38,103.31L66.84,149.05L66.91,156.13L67.21,159.83L67.29,152.82L67.36,134.8L67.44,125.64L67.82,147.35L67.97,146.34L68.04,148.87L68.27,138.63L68.64,150.75L68.72,159.92L68.87,165.18L69.1,155.92L69.17,141.08L69.25,127.14L69.78,153.23L69.85,155.66L70,148.57L70.3,158.42L70.38,164.63L70.83,179.62L70.91,174.66L70.98,160.85L71.06,149.93L71.66,169.87L71.73,165.68L71.96,160.33L72.19,168.85L72.26,170.9L72.41,177.72L72.79,166.4L72.86,159.17L73.09,143.76L73.54,161.06L73.62,156.96L73.69,157.6L73.92,164.13L73.99,170.9L74.52,180.5L74.67,172.76L74.75,167.11L75.2,168.15L75.5,150.47L75.58,153.93L75.65,159.53L76.1,172.78L76.33,166.33L76.41,153.86L76.48,143.11L77.01,165.76L77.08,165.08L77.16,157.59L77.31,152.26L77.69,166.03L77.76,170.48L77.91,175.54L78.21,153.44L78.29,143.5L78.82,171.45L79.04,154.36L79.12,154.42L79.19,152.49L79.5,164.43L79.57,169.15L79.72,171.95L79.95,163.92L80.02,145.58L80.1,93.14L80.7,151.72L80.78,136.71L80.85,116.22L80.93,108L81.15,150.39L81.23,158.21L81.3,156.83L81.38,164.35L81.45,169.27L81.61,169.48L81.68,169.41L81.76,162.81L81.98,119.63L82.51,153.41L82.58,148.64L82.74,145.7L82.96,156.7L83.04,161.31L83.26,173.08L83.56,167.03L83.64,147.71L83.87,131.52L84.17,159.64L84.24,157.95L84.32,158.22L84.62,147.67L84.92,164.08L85,166.02L85.3,178.26L85.6,162.44L85.67,155.25L85.75,153.95L85.9,159.66L85.98,163.62L86.35,159.73L87.03,185.91L87.18,181.88L87.26,176.38L87.56,152L88.16,156.18L88.24,156.23L88.84,173.09L88.99,165.94L89.06,154.78L89.14,140.04L89.67,165.97L89.74,165.18L89.82,159.04L89.97,148.7L90.42,170.28L90.5,177.95L90.72,190.59L90.95,152.5L91.1,166.08L91.17,170.63L91.55,178.92L91.7,163.75L91.78,159.88L92,163.69L92.08,169.66L92.31,189.82L92.68,164.32L92.76,150.7L93.06,163.95L93.44,153.58L93.51,145.74L93.59,132.85L94.11,169.5L94.19,169.66L94.34,169.66L94.41,164.87L94.57,137.1L95.17,155.86L95.24,148.58L95.32,145.81L95.62,152.05L95.7,158.77L96.15,168.43L96.22,163.73L96.3,148.43L96.37,138.46L96.9,159.84L96.98,159.74L97.2,145.2L97.65,165.36L97.73,169.96L97.88,172.91L98.18,159.8L98.26,154.63L98.41,145.66L98.79,158.25L99.01,150.92L99.09,153.88L99.69,173.39L99.99,166.95L100.07,159.3L100.52,167.08L100.82,154.41L100.9,154.42L101.42,170.61L101.65,163.49L101.72,152.35L101.8,142.54L102.25,169.38L102.33,170.47L102.7,145.75L102.85,154.08L102.93,158.09L103.23,169.21L103.46,160.83L103.53,143.69L103.68,123.8L104.14,166.4L104.21,166.28L104.51,147.77L104.89,164.5L104.96,167.46L105.04,169.84L105.27,161.76L105.34,147.82L105.42,134.8L105.94,164.84L106.02,164.84L106.25,147.38L106.7,164.1L106.77,171.2L107.07,163.41L107.15,149.67L107.22,120.38L107.83,166.62L107.9,161.47L108.13,149.32L108.51,165.29L108.58,170.21L108.88,162.42L108.96,148.2L109.03,132.27L109.64,163.5L109.71,158.66L109.86,146.9L110.31,163.36L110.39,165.79L110.69,164.74L110.77,159.83L111.07,137.13L111.37,164.61L111.44,163.22L111.52,161.09L111.59,156.11L112.12,166.64L112.2,171.41L112.35,171.21L112.42,173.03L113.55,144.91L113.63,147.9L113.7,153.05L114.01,164.59L114.31,156.05L114.38,144.43L114.46,130.96L114.91,159.58L114.99,158.96L115.06,157.55L115.36,118.07L115.66,147.74L115.74,150.09L115.89,159.97L116.19,128.89L116.27,87.72L116.87,149.53L117.1,117.62L117.17,108.36L117.7,161.99L118,140.3L118.08,124.91L118.68,152.52L118.83,133.47L118.9,115.81L119.58,153.71L119.73,141.52L119.81,114.46L119.88,82.91L120.49,136.81L120.56,129.65L120.79,105.01L121.09,143.53L121.16,148.75L121.39,155.32L121.54,147.13L121.62,122.97L121.69,96.89L122.29,146.7L122.37,141.11L122.6,114.62L122.97,148.96L123.05,154.24L123.2,155.03L123.35,150.18L123.43,141.4L123.73,115.97L124.25,124.73L124.33,119.9L125.01,158.74L125.23,148.23L125.31,140.92L125.38,133.61L125.84,155.54L125.91,154.98L125.99,149.05L126.21,136.16L126.59,154.85L126.67,158.55L126.89,159.93L126.97,155.87L127.04,146L127.12,136.28L127.64,162.38L127.72,163.58L127.95,141.22L128.32,160.4L128.4,166.95L128.62,177.41L128.85,153.07L128.93,144.03L129.53,161.08L129.68,154.02L129.75,151.8L129.83,150.46L129.98,158.13L130.06,162.14L130.51,172.05L130.58,168.3L130.66,152.44L130.73,137.96L131.34,165.04L131.41,157.52L131.71,144.04L132.09,162.16L132.17,160.22L132.24,160.06L132.32,157.74L132.54,107.5L132.77,148.12L132.84,154.7L132.99,162.99L133.37,142.11L133.45,142.9L133.52,141.99L133.67,148.07L133.75,150.19L133.97,162.69L134.28,138.88L134.35,107.77L134.8,163.75L135.18,147.06L135.26,147.75L135.86,174.15L136.08,165.62L136.16,160.07L136.99,147.42L137.06,150.81L137.52,170.44L137.59,172.89L137.67,173.42L137.82,172.07L137.89,167.7L138.19,154.57L138.42,168.43L138.5,170.68L138.72,157.93L138.8,153.13L139.55,174.49L139.63,170.28L139.7,159.96L139.78,151.68L140.23,167.58L140.38,166.15L140.45,161.12L140.61,156L141.06,168.91L141.13,173.59L141.28,173.83L141.36,173.76L141.43,168.73L141.58,145.56L142.11,168.7L142.19,168.2L142.49,147.84L142.79,161.69L142.87,166.56L143.09,171.37L143.32,151.33L143.39,141.44L144,161.18L144.15,151.51L144.22,149.27L144.6,165.16L144.67,170.8L144.98,178.86L145.13,158.71L145.2,148.32L145.8,172.76L146.03,161.37L146.11,158.85L146.26,161.18L146.33,166.82L146.78,191.59L146.86,179.64L146.93,163.71L147.01,153.5L147.54,174.34L147.61,173.01L147.91,159.02L148.22,171.87L148.29,176.07L148.59,186.23L148.89,167.76L148.97,164.75L149.42,170.45L149.72,161.05L149.8,161.17L149.87,167.3L150.4,200.61L150.63,181.55L150.7,171.94L150.93,160.89L151.53,163.11L151.61,164.23L152.21,175.98L152.28,173.38L152.36,161.7L152.44,150.88L152.96,170.01L153.04,167.67L153.11,161.71L153.34,146.92L153.79,165.57L153.87,166.8L154.09,154.67L154.17,131.38L154.24,131.14L154.32,148.7L154.39,149.08L154.47,156.59L154.85,166.49L155,150.77L155.07,147.26L155.15,143.66L155.45,157.28L155.52,162.67L155.6,165.53L155.83,159.51L155.9,146.37L156.05,102.88L156.43,157.67L156.58,157.08L156.65,157.99L156.88,118.29L157.11,146.54L157.18,156.43L157.41,167.05L157.63,165.29L157.71,157.74L157.86,113.42L158.39,156.27L158.46,157.81L158.69,123.66L159.07,160.84L159.14,166.55L159.37,170.03L159.52,162.7L159.59,135.63L159.67,117.41L160.05,160.34L160.2,160.04L160.27,161.87L160.57,140.66L160.87,159.48L160.95,167.19L161.1,171.82L161.4,157.95L161.48,147.67L161.63,137.99L162,160.87L162.08,159.7L162.16,156.26L162.31,147.67L162.76,169.27L162.83,171.39L162.91,173.25L163.29,166.77L163.36,160.54L163.89,166.28L164.11,154.53L164.19,156.2L164.27,156.52L164.64,171.82L165.02,157.06L165.09,152.78L165.7,172.18L165.85,159.81L165.92,150.12L166.07,146.77L166.22,156.45L166.3,156.67L166.6,167.47L166.75,154.16L166.83,125.97L166.9,111.1L167.35,170.03L167.43,167.91L167.66,151.33L167.73,134.92L167.81,130.78L168.03,155.19L168.11,155.96L168.33,167.6L168.56,159.53L168.64,121.2L168.71,111.22L169.01,164.03L169.09,166.7L169.16,169.32L169.39,161.01L169.46,152.18L169.62,143.72L169.99,164.87L170.07,169.68L170.22,169.54L170.29,166.05L170.52,122.71L170.59,153.16L170.67,155.98L171.05,167.95L171.35,152.92L171.42,155.47L171.5,155.17L171.57,157.63L171.65,162.28L172.03,171.08L172.25,149.57L172.33,136.18L172.7,157.47L173.08,146.35L173.16,143.67L173.38,147.9L173.46,155.63L173.68,167.81L174.14,155.92L174.21,152.34L174.66,163.09L175.04,146.47L175.12,148.73L175.79,169.24L175.94,164.12L176.02,159.12L176.17,154.32L176.4,169.64L176.47,174.12L176.7,162.27L176.77,157.12L176.92,156.92L177,161.8L177.45,177.02L177.6,172.26L177.68,162.59L177.75,154.96L178.13,185.51L178.21,186.79L178.28,186.51L178.36,180.15L178.66,160.19L179.03,180.66L179.11,183.57L179.26,185.27L179.41,179.82L179.49,169.15L179.56,163.52L179.86,193.68L179.94,195.4L180.01,197.7L180.24,188.99L180.32,172.92L180.39,170.46L180.69,186.24L180.77,197.95L180.99,200.9L181.14,188.63L181.22,176.54L181.37,148.83L181.9,176.58L181.97,174.29L182.05,169.58L182.35,153.95L182.65,179.34L182.73,185.06L182.95,185.48L183.03,180.8L183.33,166.7L183.78,177.33L183.86,175.86L184.08,165.5L184.46,183.19L184.53,188.29L184.69,189.72L184.84,185.44L184.91,178.36L185.14,170.96L185.51,180.48L185.74,172.13L185.82,171.66L185.89,171.09L186.04,173.62L186.12,177.27L186.34,180.38L186.72,173.51L186.8,170.94L187.62,151.79L187.7,154.23L187.77,154.17L188.38,178.41L188.68,167.7L188.75,160.27L189.06,172.94L189.73,172.87L189.81,173.17L190.11,180.85L190.41,172.88L190.49,170.43L190.71,166.97L190.94,178.09L191.01,179.4L191.39,168.02L191.77,175.83L191.84,176.06L191.99,174.95L192.07,169.29L192.15,135.68L192.75,196.6L192.82,196.48L193.12,164.77L193.58,183.38L193.65,183.35L193.88,179.7L193.95,157.41L194.03,146.77L194.41,195.05L194.48,195.52L194.56,197.7L194.71,196.72L194.78,175.57L194.93,169.93L195.31,181.72L195.39,185.7L195.84,157.06L195.91,193.26L195.99,192.22L196.29,196.31L196.36,198.11L196.59,196.63L196.67,169.16L197.27,188.53L197.5,184.6L197.57,170.89L198.17,197.27L198.4,196L198.47,174.41L198.55,170.94L198.93,184.23L199,186.51L199.45,180.82L199.53,193.06L199.6,194.31L199.98,198.5L200.21,196.06L200.28,171.65L200.43,171.23L200.51,176.33L201.56,200.7L201.79,199.79L201.87,198.44L201.94,197.39L202.02,176.69L202.24,172.99L202.47,182.17L202.54,185.8L202.69,191.23L203,175.79L203.07,167.42L203.52,191.14L203.75,168.72L203.82,161.48L204.05,158.45L204.28,167.96L204.35,177.79L204.58,181.89L204.65,177L204.73,166.3L204.88,128.77L205.48,164.21L205.56,158.16L205.86,146.63L206.16,169.09L206.24,171.66L206.39,172.25L206.46,170.82L206.54,164.19L206.69,137.92L207.14,170.38L207.22,170.01L207.29,165.48L207.67,150.91L207.89,162.54L207.97,167.56L208.12,172.06L208.35,163.31L208.42,144.33L208.5,136.8L208.8,162.68L208.87,162.58L208.95,165.33L209.17,160.72L209.25,153.93L209.48,148.84L209.63,158.97L209.7,158.21L209.78,164.97L209.93,170.72L210.15,160.96L210.23,135.21L210.3,133.57L210.38,158.06L210.61,165.58L210.68,170.2L210.91,172.73L210.98,165.45L211.06,156.66L211.21,133.52L211.59,169.48L211.66,174.39L211.89,174.58L211.96,173.57L212.04,163.79L212.34,152.8L212.41,156.84L212.49,164.73L212.64,170.49L212.79,165.02L212.87,156.83L213.09,149.9L213.32,167.18L213.39,166.95L213.7,175.55L214,165.04L214.07,159.24L214.22,165.16L214.3,169.65L214.45,175.56L214.83,158.58L214.9,157.42L215.88,189.39L215.96,177.05L216.03,177.95L216.33,180.12L216.41,174.77L216.48,164.71L216.71,155.02L216.94,166.63L217.01,176.67L217.24,185.77L217.61,171.88L217.69,164.56L218.07,174.96L218.29,165.16L218.37,160.7L218.52,153.98L218.82,171.51L218.89,176.25L219.2,167.42L219.27,143.57L219.35,137.46L219.42,156.15L219.5,189.97L219.57,193.25L219.65,167.08L219.87,178.61L219.95,174.31L220.33,152.73L220.63,173.91L220.7,178.86L220.78,179.48L220.85,176.07L220.93,177.19L221,171.98L221.08,152.86L221.68,180.86L221.76,176.1L222.13,155.56L222.44,175.54L222.51,180.15L222.74,177.67L222.81,171.67L222.96,145.65L223.42,181.76L223.49,179.22L223.57,175.54L223.87,151.21L224.24,177.96L224.32,180.12L224.62,177.44L224.7,171.72L224.92,164.61L225.3,177.91L225.45,177.4L225.53,171.24L225.68,171.51L225.75,168.2L226.43,184.65L226.58,179.45L226.66,172.89L226.73,171.09L226.96,182.28L227.03,185.5L227.18,180.64L227.26,178.06L227.56,164.51L227.94,180.68L228.01,180.46L228.16,182.32L228.24,180.56L228.39,168.75L228.84,200.59L228.92,202.29L229.37,166.64L229.75,182.4L229.82,185.02L230.2,160.7L230.27,194.35L230.35,192.94L230.72,198.55L230.8,198.04L230.88,180.3L231.18,169.69L231.48,187.37L231.55,191.14L231.86,186.92L231.93,174.73L232.01,170.13L232.23,196.92L232.31,197.49L232.46,197.23L232.53,198.35L232.68,197.29L232.76,177.2L232.83,177.06L232.91,174.84L233.66,198.78L234.19,195.89L234.27,195.79L234.34,197.85L234.72,195.1L234.79,177.55L235.32,198.37L235.85,194.62L235.92,194.3L236.15,197.62L236.23,184.67L236.53,176.5L236.83,182.82L236.9,186.83L237.28,198.5L237.81,197.41L237.88,197.73L237.96,199.16L238.34,196.02L238.56,198.42L238.64,197.06L239.16,196.69L239.62,204.62L239.69,204.68L239.77,205.18L239.84,202.12L239.92,199.68L240.14,186.88L240.45,193.02L240.52,195L241.42,205.03L241.5,205.21L241.58,205.57L241.65,201.07L242.03,186.77L242.25,192.1L242.33,196.84L242.4,200.21L242.86,192.42L243.01,193.54L243.08,195.84L243.16,195.64L243.31,196.12L243.38,198.68L243.46,198.86L243.69,197.94L243.76,195.78L243.91,185.95L244.29,200.4L244.44,199.61L244.51,198.95L244.66,178.93L245.19,204.12L245.27,201.57L245.57,184.3L245.72,192.7L245.8,198.29L245.87,191.39L246.02,200.88L246.47,192.43L246.55,202.18L246.7,193.17L247,206.75L247.15,203.31L247.23,187.31L247.45,178.59L247.83,187.77L247.91,187.77L247.98,187.91L248.21,173.9L248.28,170.21L248.73,201.42L249.04,197.71L249.11,176.5L249.26,174.38L249.41,181.8L249.49,180.45L249.56,184.95L250.09,181.67L250.54,198.46L250.62,199.52L250.77,197.86L250.84,177.04L250.99,174.94L251.15,179.58L251.22,184.39L252.43,205.73L252.5,205.61L252.8,185.26L253.1,194.6L253.18,198.28L254.08,205.66L254.16,205.62L254.23,205.98L254.39,205.28L254.46,200.92L254.91,194.04L255.21,199.5L255.29,199.39L255.52,192.98L256.04,199.24L256.12,199.19L256.42,196.74L256.72,197.83L256.8,198.34L257.32,194.72L257.7,202.51L257.78,202.68L257.85,204.88L258,191.05L258.08,187.9L258.38,184.46L258.6,194.98L258.68,198.2L258.83,198.02L258.91,203.13L259.13,197.5L259.58,202.51L259.66,204.63L260.26,191.34L260.56,198.36L260.64,199.95L260.94,195.46L261.24,201.02L261.32,203.22L261.47,204.66L261.62,201.57L261.69,187.14L261.92,182.66L262.22,192.67L262.3,194.26L262.37,192.72L262.6,200.15L262.82,198.19L262.9,198.79L263.28,205.18L263.5,200.12L263.58,186.78L263.65,185.25L264.03,193.21L264.11,194.76L264.26,194.82L264.33,196.61L264.41,196.88L264.48,195.23L264.56,199.25L264.71,202.93L264.78,205.07L265.09,205.64L265.16,204.52L265.24,190.94L265.31,185.45L265.91,197.17L265.99,197.21L266.14,197.44L266.22,201.3L266.29,198.28L266.59,206.11L266.82,206.11L266.89,206.09L267.27,183.79L267.65,193.72L267.72,195.5L267.8,196.03L267.95,194.33L268.02,192.2L268.1,183.36L268.63,204.5L268.7,205.12L268.85,205.07L268.93,202.11L269.08,182.68L269.38,189.95L269.46,194.81L269.76,200.82L269.91,193.12L270.36,198.42L270.43,198.52L270.81,199.97L270.89,198.6L270.96,189.4L272.32,205.1L272.39,202.28L272.85,191.98L273.15,201.04L273.22,202.5L273.6,196.49L273.9,200.26L273.98,203.68L274.05,204.4L274.28,199.85L274.35,199.55L274.58,183.95L275.11,194.56L275.18,195.95L275.33,193.44L275.41,191.78L275.94,200.74L276.16,200.31L276.24,187.11L276.31,185.65L276.61,191.67L276.69,194.84L277.67,206.68L277.74,207.22L278.2,191.88L278.5,196.59L278.57,205.36L279.03,201.34L279.18,206.34L279.33,204.34L279.4,205.8L279.55,207.17L279.78,203.91L279.85,202.41L280.08,203.86L280.16,196.52L280.68,201.28L280.91,199.14L280.98,197.61L281.66,200.77L281.81,199.29L281.89,193.37L282.19,201.37L282.64,197.69L282.72,199.2L282.79,197.68L283.32,200.77L283.4,200.78L283.85,199.2L284.07,200.94L284.15,200.9L284.3,200.54L284.37,193.88L285.13,200.62L285.43,198.93L285.51,198.64L286.03,200.67L286.11,200.61L286.18,196.68L287.09,200.14L287.16,198.44L287.46,199.2L287.54,200.86L287.77,201.04L287.92,200.61L287.99,198.41L288.52,198.59L288.59,200.22L288.97,198.38L289.05,200.06L289.2,197.48L289.57,200.47L289.8,198.85L289.88,198.82L290.03,201.86L290.1,203.92L290.4,204.87L290.55,201.63L290.63,200.47L291.01,195.65L291.23,202.55L291.31,202.76L291.61,199.02L291.91,205.43L291.99,205.58L292.21,206.16L292.29,205.79L292.36,201.55L292.81,193.55L292.96,198.87L293.04,202.06L293.49,195.38L293.87,198.28L293.94,197.98L294.32,199.77L294.55,197.92L294.7,198.55L294.77,198.61L295,200.28L295.3,195.47L295.38,197.29L295.45,195.46L295.83,199.87L296.28,197.77L296.36,197.81L296.81,199.76L296.96,199.57L297.03,195.41L297.11,194.96L297.34,197.36L297.41,197.28L297.49,197.25L297.64,199.11L298.24,197.26L298.31,197.22L298.62,199.36L298.77,198.94L298.84,193.87L299.07,193.77L299.67,198.31L299.75,198.23L299.82,196.01L300.12,196.99L300.2,198.95L300.5,198.97L300.58,198.82L300.65,195.78L300.8,195.6L301.18,196L301.25,198.05L301.48,198.19L301.55,196.32L302.23,198.92L302.38,198.81L302.46,196.89L302.69,196.73L302.76,197.65L302.84,198.81L302.99,200.99L303.44,196.52L303.51,198.56L303.59,198.55L304.04,198.89L304.27,194.99L304.49,196.68L304.57,199.41L304.8,202.55L305.02,198.62L305.17,198.71L305.25,196.72L305.62,196.85L305.7,198.81L306,198.6L306.08,193.26L306.3,192.22L306.45,195.44L306.53,195.57L306.75,197.87L307.36,196.89L307.43,197.03L307.66,198.97L307.96,194.39L308.04,196.33L308.11,194.33L308.71,198.46L308.94,196.46L309.01,196.44L309.47,199.19L309.62,198.76L309.69,194.15L309.92,194.08L310.6,198.19L310.67,196.18L310.9,196.88L310.97,197.22L311.28,199.68L311.43,198.97L311.5,194.44L311.58,194.1L311.65,196.31L311.8,196.3L311.88,196.3L312.03,196.36L312.1,198.36L312.41,198.41L312.48,196.39L312.71,197.09L312.78,198.54L313.08,200.44L313.39,196.95L313.46,196.84L313.84,196.87L313.91,198.81L314.14,198.96L314.21,197.13L314.97,201.56L315.12,199.84L315.19,199.56L315.27,198.89L315.42,202.5L315.49,203.62L315.65,205.25L315.95,200.56L316.02,199.1L316.7,201.79L316.85,200.97L316.93,197.76L317,197.99L317.08,201.78L317.53,205.29L317.76,200.22L317.83,200.26L318.21,198.29L318.43,200.47L318.58,199.95L318.66,199.13L318.96,194.08L319.34,200.32L319.41,199.52L319.71,197.62L320.09,198.65L320.17,200.34L320.39,200.4L320.47,200.08L320.54,195.93L320.77,194.73L321,197.75L321.07,197.42L321.15,198.61L321.45,199.1L321.52,196.68L322.2,199.88L322.28,199.86L322.35,195.29L322.58,191.74L322.88,195.73L322.95,198.83L323.26,199.2L323.33,197.23L323.56,198.04L323.71,197.65L323.78,199.44L324.08,199.47L324.16,195.11L324.31,196.36L324.39,194.41L324.69,195.07L324.76,198.73L325.06,198.87L325.14,196.96L325.37,197.59L325.44,197.86L325.82,200.11L326.12,197.3L326.19,197.29L326.5,197.4L326.57,199.22L326.8,199.12L326.87,197.39L327.63,201.76L327.78,200.01L327.85,198.95L328,201.01L328.08,203.19L328.38,206.31L328.53,201.59L328.61,200.49L328.68,198.7L329.13,205.56L329.21,206.4L329.51,206.41L329.59,205.46L330.19,206.84L330.41,206.4L330.49,205.96L331.39,197.85L331.47,197.55L332,205.05L332.3,200.89L332.37,198.65L332.52,198.39L332.75,199.96L332.83,201.5L333.05,201.49L333.13,201.04L333.2,196.63L333.5,202.82L334.03,201.02L334.11,200.31L334.18,198.57L334.78,201.83L334.86,201.83L334.94,201.55L335.01,197.83L335.24,197.06L335.31,200.09L335.39,200.48L335.69,202.47L335.76,201.73L335.84,200.72L335.99,198.71L336.37,201.07L336.44,202.75L336.52,203.11L336.74,201.5L336.82,197.05L336.89,196.77L337.12,198.92L337.2,199.32L337.35,199.4L337.42,201.06L337.5,201.33L337.65,200.26L337.72,200.24L337.8,198.56L337.87,198.81L337.95,190.75L338.33,201.99L338.7,198.39L338.78,198.33L339.16,198.58L339.23,200.21L339.46,200.09L339.53,198.32L340.29,202.53L340.36,202.15L340.44,200.14L340.66,199.92L340.74,200.43L340.81,202.07L340.96,203.49L341.34,199.41L341.49,201.31L341.57,201.42L342.02,201.97L342.47,198.13L342.55,200.44L342.7,201.98L343.15,201.1L343.22,199.54L343.6,199.93L343.68,201.52L343.98,201.11L344.05,197.34L344.28,197.09L344.96,200.64L345.03,198.99L345.56,202L345.79,201.46L345.86,197.51L346.09,197.36L346.46,200.82L346.77,200.65L346.84,199.2L347.44,202.86L347.59,202.24L347.67,198.57L347.82,199.71L347.9,198.1L347.97,200.02L348.27,203.51L348.65,200.14L348.72,200.19L349.18,203.01L349.4,202.83L349.48,199.37L349.7,198.89L349.93,200.51L350.01,200.51L350.08,201.89L350.16,202.03L350.38,201.78L350.46,200.39L350.76,202.01L350.83,203.22L351.66,200.73L351.81,200.91L351.89,202.3L352.27,200.71L352.34,202.19L352.57,202.07L353.7,206.41L353.77,206.25L353.85,204.61L354,202.22L354.3,205.01L354.45,204.62L354.53,206.18L354.9,205.52L355.2,208.01L355.28,209.17L355.43,211.01L355.73,205.54L355.81,204.17L356.18,203.17L356.56,205.7L356.64,203.87L356.79,200.77L357.31,205.61L357.39,205.4L357.77,202.24L358.07,203.85L358.14,204.72L358.37,205.07L358.45,204.85L358.52,202.34L358.75,202.29L359.2,204.14L359.42,203.79L359.5,203.01L359.95,204.94L360.25,204.67L360.33,202.4L360.55,202.2L361.23,204.15L361.31,203.28L361.46,198.69L361.99,205.04L362.06,205.07L362.36,202.8L362.82,204.57L362.89,204.57L362.97,198.55L363.04,204.59L363.64,203.83L363.72,204.56L363.87,205.29L364.1,204L364.32,204L364.4,204L364.77,204.83L364.85,204.02L364.93,199.14L365.68,205.29L365.9,204.55L365.98,204.5L366.13,197.72L366.58,205.21L366.81,199.42L366.88,200.91L367.04,200.38L367.11,201.28L367.19,203.02L367.49,205.97L368.01,205.49L368.09,205.07L368.17,205.98L368.54,203.95L368.62,203.95L368.69,199.83L369.14,204.54L369.52,202.49L369.6,201.36L370.05,198.46L370.12,203.71L370.2,196.52L370.35,196.92L370.43,203.03L370.95,204.57L371.1,204.14L371.18,201.45L371.78,203.87L372.08,203.55L372.16,202.46L372.54,203.24L372.61,204.26L372.91,203.94L372.99,201.35L373.21,201.26L373.89,203.45L373.97,195.81L374.57,203.89L374.8,201.18L374.87,201.16L375.02,201.01L375.7,203.37L375.78,202.2L375.93,196.65L376.23,203.83L376.45,203.75L376.53,203.84L376.83,202.28L377.28,203.41L377.36,203.38L377.58,202.19L377.81,203.98L377.89,203.57L377.96,204.69L378.34,205.47L378.41,204.36L378.49,203.96L378.87,203.46L378.94,204.03L379.02,204.72L379.32,202.91L379.77,203.36L379.84,204.3L380.15,204.17L380.22,202.2L380.82,206.4L381.05,204.05L381.13,203.6L381.2,202.56L381.8,203.98L381.88,203.69L382.26,200.5L382.63,202.98L382.71,202.96L382.93,202.94L383.01,201.78L383.69,204.27L383.76,204L383.84,200.93L384.06,200.74L384.22,201.97L384.29,202.05L384.52,203.23L385.12,202.78L385.19,202.87L385.42,203.91L385.65,201.22L385.8,202.33L385.87,201.21L386.25,204.1L386.7,202.36L386.78,202.35L387.08,206.13L387.38,204.14L387.46,202.06L387.68,201.34L387.91,203.17L387.98,203.55L388.43,202.32L388.81,204.59L388.89,204.69L389.11,205.06L389.19,204.78L389.26,203.23L389.49,202.79L389.79,203.27L389.87,204.24L390.17,202.86L390.24,202.98L390.32,204.18L390.54,203.54L390.92,205.01L391.07,204.39L391.15,204.29L391.6,204.07L391.67,204.94L391.83,204.9L391.9,199.98L392.13,200.06L392.2,201.72L392.81,205.17L393.03,204.28L393.11,203.27L393.48,205.66L393.86,203.69L393.94,203.71L394.31,204.65L394.39,205.84L394.54,206.43L394.61,204.75L394.69,202.78L394.76,202.46L394.91,203.58L394.99,205.28L395.52,205.91L395.59,205.59L395.67,205.25L396.05,206.43L396.12,206.86L396.42,206.52L396.5,204.8L397.1,206.42L397.4,206.06L397.48,205.54L397.85,206.03L397.93,206.52L398.23,206.44L398.31,204.79L398.53,204.63L398.68,205.29L398.83,205.12L398.91,205.79L399.13,204.69L399.21,198.27L399.36,197.42L399.44,198.78L399.51,204.47L399.59,201.22L399.81,205.97L400.26,202.99L400.34,202.03L401.32,204.92L401.4,204.45L401.62,205.53L402,202.99L402.07,202.96L402.53,204.39L402.75,204.02L402.83,202.99L402.9,198.76L403.5,205.79L403.58,206L404.18,204.34L404.48,204.92L404.56,204.87L404.64,204.07L405.16,205.5L405.24,205.45L405.31,205.4L405.39,205.62L405.46,205.52L405.54,203.82L405.77,203.51L405.92,205.31L405.99,205.82L406.14,205.83L406.22,204.93L406.52,203.98L406.9,204.41L406.97,205.19L407.27,204.84L407.35,201.92L407.42,201.13L407.88,203.04L407.95,204.09L408.33,202.81L408.48,203.46L408.55,204.22L408.7,204.26L408.78,205.14L409.08,204.76L409.16,202.01L409.23,201.59L409.61,202.99L409.68,202.98L409.76,203.96L410.14,202.99L410.29,203.4L410.36,204.1L410.81,205.36L410.89,205.1L410.96,202.71L411.19,202.46L411.34,203.49L411.42,203.5L411.94,203.19L412.55,206L412.62,205.82L413,202.42L413.3,203.43L413.38,204.35L413.75,202.65L414.05,204.03L414.13,204.89L414.36,204.99L414.51,204.8L414.58,202.6L414.73,201.93L415.11,202.73L415.18,204.03L415.49,203.42L416.24,205.55L416.31,205.34L416.39,204.42L416.69,204.06L416.92,204.65L416.99,204.94L417.29,204.11L417.37,204.21L417.44,205.08L417.67,204.42L418.12,205.24L418.2,203.72L418.42,203.08L418.65,204.54L418.73,204.47L418.8,204.74L419.1,204.66L419.18,203.79L419.78,205.03L419.93,204.8L420.01,202.17L420.91,204.17L420.99,203.23L421.36,204.01L421.44,204.9L421.74,204.73L421.82,202.32L422.04,202.15L422.72,204.2L422.79,203.25L423.17,203.9L423.25,204.75L423.55,204.77L423.62,202.28L424.53,204.3L424.6,203.38L425.28,204.84L425.36,204.8L425.43,202.19L425.66,202.14L426.26,204.39L426.34,204.35L426.41,203.37L426.56,203.42L426.64,204.28L427.09,205.88L427.39,203.09L427.47,203.29L427.54,203.66L428.45,205.33L428.52,203.89L428.97,205.69L429.28,204.46L429.35,204.36L429.88,205.12L429.95,204.47L430.78,205.86L430.86,204.15L431.08,203.64L431.23,204.62L431.38,204.38L431.46,205.11L432.14,203.5L432.21,204.07L432.29,204.9L432.59,204.53L432.67,202.49L432.82,202.95L432.89,201.36L433.19,202.44L433.27,203.52L433.49,203.62L433.57,195.95L433.72,195.81L433.8,194.64L434.1,205.16L434.55,201.75L434.62,202.78L434.7,201.76L435.23,204.04L435.3,203.83L435.45,196.75L435.98,204.96L436.06,204.95L436.21,204.58L436.28,202.09L437.04,204.13L437.11,204.06L437.19,197.24L437.41,194.83L437.56,200.42L437.64,202.83L437.87,205.17L438.09,202.33L438.39,203.53L438.47,203.73L438.62,203.53L438.69,204.64L439,204.43L439.07,198.13L439.22,197.3L439.3,203.83L439.75,206.34L440.05,204.31L440.13,204.31L440.43,204.42L440.5,205.14L440.73,205.08L440.8,204.34L441.63,206.44L441.78,205.87L441.86,205.81L442.24,205.77L442.46,206.26L442.54,206.25L442.99,205.72L443.21,206.35L443.29,206.36L443.44,206.43L443.52,205.44L443.74,205.32L444.42,206.33L444.5,205.81L444.87,206.04L444.95,206.55L445.25,206.62L445.32,204.98L445.4,204.8L445.63,205.5L445.85,205.54L445.93,206.05L446.68,206.11L446.76,206.56L447.06,206.34L447.13,204.63L447.36,204.55L448.04,205.8L448.11,205.17L448.64,206.44L448.87,206.19L448.94,204.35L449.17,204.2L449.77,205.61L449.85,201.64L449.92,200.99L450.15,205.62L450.22,205.56L450.6,206.16L450.67,206.08L450.75,204.22L451.65,205.55L451.73,204.86L452.03,205.56L452.11,206.14L452.48,206.1L452.56,204.95L453.09,204.95L453.16,205.63L453.69,205.65L453.76,206.13L454.22,206.35L454.59,205.58L454.67,205.56L456.1,206.24L456.18,205.27L456.4,205.08L457.08,206.09L457.15,205.51L457.91,206.15L457.98,204.35L458.21,204.28L458.89,205.64L458.96,205.07L459.19,205.65L459.26,205.93L459.57,206.43L459.72,206.18L459.79,204.39L460.62,205.66L460.7,201.72L460.92,201.76L461,203.38L461.3,206.23L461.75,205.08L461.83,204.44L462.2,205.73L462.35,205.64L462.43,200.43L462.58,199.05L462.96,203.52L463.03,204.61L463.26,204.6L463.33,203.41L463.48,197.06L464.01,205.72L464.09,201.25L464.16,200.68L464.31,199.43L464.69,202.47L464.77,203.57L465.07,206.28L465.52,205.12L465.59,205.12L465.9,205.82L465.97,201.45L466.05,200.84L466.42,203.73L466.5,206.19L466.95,206.71L467.18,206.15L467.25,206.13L467.85,201.56L468.01,201.88L468.08,202.44L468.61,204.84L468.76,203.47L468.83,201.69L468.91,200.73L468.99,205.94L469.21,205.91L469.29,205.91L469.51,206.42L469.59,202.39L469.81,200.69L470.12,202.9L470.19,205.92L470.42,206.46L470.57,203.57L470.64,199.33L470.72,197.97L471.02,201.33L471.17,201.33L471.25,201.99L471.47,200.16L471.55,205.81L471.62,205.17L471.7,205.25L472.3,206.79L472.38,206.72L472.45,205.05L472.68,204.8L473.05,206.17L473.13,206.07L473.2,202.81L473.51,201.72L473.73,204.23L473.81,205.08L473.96,205.94L474.18,204.66L474.26,201.13L474.33,200.08L474.71,202.7L474.94,201.81L475.01,201.89L475.84,206.78L475.92,206.77L476.14,204.59L476.6,205.31L476.67,205.94L477.2,205.4L477.27,206.33L477.73,206.77L477.8,206.61L477.88,205.39L478.1,200.58L478.48,205.98L478.78,201.03L478.86,201.13L479.53,206.43L479.61,204.91L479.68,204.31L479.99,200.21L480.21,205.7L480.29,206.25L480.44,206.22L480.51,201.85L480.59,201.31L481.04,203.16L481.12,204.28L481.27,204.31L481.34,203.8L481.42,202.76L481.49,200.49L481.95,206.17L482.02,206.15L482.1,206.44L482.47,201.11L482.85,205.94L482.92,206.5L483.23,206.44L483.3,204.67L484.21,205.98L484.28,205.39L484.58,206.32L484.66,205.46L484.73,206.77L485.03,205.3L485.11,201.27L485.71,205.98L485.86,202.27L485.94,201.64L486.09,201.03L486.24,205.47L486.32,206.18L486.84,206.77L486.92,204.99L487.14,204.82L487.67,206.04L487.75,202.01L487.9,201.43L488.05,202.79L488.12,206.26L488.35,206.52L488.95,204.53L489.25,205.31L489.33,205.98L489.63,205.64L489.71,205.1L490.38,206.43L490.46,206.37L490.54,205.19L490.61,204.87L491.14,205.91L491.21,205.91L491.44,201.67L491.97,205.06L492.04,205.06L492.42,204.09L492.95,206.53L493.02,206.51L493.1,203.08L493.25,202.03L493.62,203.75L493.7,203.52L493.78,204.47L494.23,199.52L494.3,205.27L494.6,205.39L495.06,199.85L495.43,201.73L495.51,203.24L495.66,205.76L496.04,197.29L496.26,204.38L496.34,204.36L496.64,204.69L496.71,199.16L496.86,197.09L497.24,201.84L497.32,202.89L497.54,203.86L497.69,201.88L497.77,197.05L497.84,192.74L498.22,204.57L498.45,200.55L498.52,198.38L498.67,196.45L499.05,200.72L499.13,201.74L499.28,202.8L499.5,201.39L499.58,196.79L499.65,196.05L499.73,204.25L500.18,205.15L500.33,199.61L500.41,197.67L500.56,197.11L500.71,198.79L500.78,201.31L501.16,203.74L501.31,202.43L501.39,197.39L501.46,195.4L501.84,204.31L502.06,199.26L502.14,198.49L502.29,195.96L502.74,201.19L502.82,202.37L503.04,202.94L503.19,200.08L503.27,199L503.5,195.33L503.72,204.53L503.8,205.12L504.17,197.85L504.55,202.24L504.63,203.14L504.93,202.35L505,201.74L506.06,196.93L506.13,198.59L506.66,200.26L506.74,199.15L506.81,196.49L506.89,194.84L507.26,200.08L507.41,199.52L507.49,198.76L507.72,192.16L508.17,197.51L508.24,199.31L508.47,198.12L508.54,182.36L508.7,153.81L509.22,179.73L509.3,179.73L509.52,168.71L509.83,193.48L509.9,188.36L509.98,191.2L510.13,193.37L510.28,184.81L510.35,179.48L510.5,158.72L511.03,185.96L511.11,184.01L512.01,205.73L512.16,205.22L512.24,195.99L512.69,204.69L512.91,198.8L512.99,195.55L513.14,194.29L513.29,196.75L513.37,197.78L513.67,202.36L513.97,197.33L514.04,190.17L514.35,202.14L514.95,183.73L515.02,183.56L515.63,194.89L515.85,188.25L515.93,185.86L516.08,180.18L516.31,192.26L516.38,195.96L516.46,195.75L516.53,191.28L516.68,187.95L516.98,198.13L517.06,200.44L517.51,202.61L517.66,201.25L517.74,198.43L518.26,200.27L518.57,192.98L518.64,196.09L519.24,201.67L519.39,200.44L519.47,193.27L519.92,201.45L520.37,184.19L520.45,184.43L520.53,184.22L520.6,185.07L520.68,186.47L520.83,189.57L520.9,190.59L521.05,189.33L521.13,186.89L521.35,162.92L521.81,181.03L521.88,181.09L522.11,173.1L522.41,178.44L522.48,183.06L522.56,182.79L522.64,186.18L522.86,190.6L523.09,174.17L523.16,168.71L523.69,187.68L523.99,180.41L524.07,179.65L524.67,192.05L524.82,186.94L524.9,172.38L524.97,165.88L525.5,184.6L525.57,182.01L525.72,174.19L526.1,187.57L526.18,190.15L526.33,198.47L526.7,181.42L526.78,173.9L527.38,184.78L527.53,179.95L527.61,179.9L527.83,181.43L527.91,186.03L528.29,192.07L528.89,175.03L528.96,177.77L529.04,179.07L529.34,176.88L530.02,188.02L530.17,187.62L530.25,186.33L531.15,168.06L531.23,170.04L531.3,173.49L531.83,194.83L532.05,184.92L532.13,174.65L532.2,168.8L532.58,185.65L532.81,179.85L532.88,175.36L532.96,172.6L533.33,179.97L533.41,178.28L533.49,182.66L533.64,185.68L533.86,181.46L533.94,126.97L534.01,107.19L534.47,170.95L534.54,165.58L534.62,165.28L534.77,146.7L535.29,182.78L535.37,186.09L535.52,186.47L535.6,186.3L535.67,182.68L535.82,164.54L536.42,176.9L536.5,174.78L536.57,171.35L537.03,180.32L537.1,183.38L537.18,186.42L537.48,180.67L537.55,169.34L537.63,159.14L538.08,173.83L538.23,171.22L538.31,169.43L538.38,165.88L538.84,174.55L538.91,178.55L538.99,181.59L539.29,176.42L539.36,163.67L539.44,157.56L539.89,170.06L540.04,168.72L540.12,163.66L540.19,161.05L540.64,172.16L540.72,175.76L540.87,179.2L541.1,177.82L541.17,160.5L542,129.14L542.08,136.4L542.68,180.79L542.9,178.32L542.98,173.18L543.81,127.03L543.88,150.91L543.96,162.97L544.56,191.52L544.94,178.96L545.01,177.76L545.32,179.47L545.39,179.12L545.47,173.97L545.69,163.4L546.07,179.76L546.14,190.74L546.37,194.8L546.52,179.31L546.6,163.45L547.43,139.74L547.5,143.29L548.25,177.26L548.33,171.67L548.41,153.42L548.93,155.39L549.23,119.51L549.31,114.86L549.99,178.49L550.14,171.96L550.21,158.09L550.29,144.44L550.67,169.99L550.89,164.57L550.97,161.4L551.04,156.22L551.49,175.22L551.57,180.21L551.87,192.67L551.95,179.83L552.02,163.67L552.1,149.99L552.7,168.37L552.78,164.38L552.85,161.58L553.23,172.63L553.3,175.35L553.6,197.99L553.91,174.23L553.98,168.41L554.13,161.79L554.51,171.69L554.73,167.61L554.81,169.74L555.56,196.47L555.71,190.5L555.79,184.49L556.47,175.81L556.62,177.12L556.69,180.09L557.3,190.63L557.45,181.64L557.52,172.47L557.9,181.67L558.2,173.83L558.28,168L558.95,189.07L559.18,183.51L559.26,171.34L559.63,177.05L560.16,137.04L560.24,157.27L560.84,182.8L560.99,175.28L561.06,159.09L561.14,132.43L561.52,168.36L561.82,154.25L561.89,139.44L561.97,134.5L562.19,165.18L562.27,170.06L562.65,181.7L562.8,175.68L562.87,163.22L562.95,150.08L563.4,168.76L563.55,167.16L563.63,162.13L563.7,159.1L564.08,173.81L564.15,175.26L564.3,180.98L564.61,173.24L564.68,157.37L564.76,145.59L565.13,164.53L565.36,163.7L565.43,160.64L565.51,155.1L565.96,171.97L566.04,177.57L566.26,187.12L566.56,169.72L566.64,164.61L567.39,155.43L567.47,158.11L567.54,161.14L568.15,177.06L568.37,169.59L568.45,161.73L569.2,136.15L569.28,152.62L569.35,155.52L569.88,174.86L570.11,157.79L570.18,149.61L570.56,163.2L570.86,148.8L570.94,133.96L571.76,172.42L571.84,167.33L571.91,151.41L572.14,135.19L572.59,159.18L572.67,157.8L572.74,150.92L573.2,172.68L573.27,177.13L573.5,180.22L573.65,176.98L573.72,162.88L574.55,145.64L574.63,146.58L575.31,172.51L575.46,164.92L575.53,141.33L575.61,114L575.98,147.99L576.28,133.4L576.36,125.47L576.44,121.39L576.66,143.37L576.74,151.83L577.11,167.81L577.26,158.8L577.34,138.34L578.17,96.16L578.24,116.15L578.85,162.81L579.15,147.11L579.22,136.19L580.05,109.01L580.13,113.66L580.81,161.68L581.03,147.15L581.11,138.58L581.86,125.1L581.94,134.96L582.61,178.93L582.92,164.69L582.99,160.73L583.52,149.64L583.59,137.65L583.67,132.95L583.97,150.54L584.05,155.96L584.27,171.25L584.57,136.86L584.65,112.16L585.03,146.18L585.4,123.04L585.48,126.22L586.16,168.51L586.31,158.68L586.38,133.32L586.46,113.6L586.76,134.82L587.14,127.81L587.21,120.13L587.66,155.49L587.74,159.98L588.04,166.66L588.19,144.26L588.27,136.94L588.87,170.39L589.09,160.72L589.17,160.95L589.25,160.82L589.32,162.89L589.85,193.48L590,165.5L590.07,154.74L590.45,171.98L590.83,162.33L590.9,164.35L591.66,188.14L591.73,181.97L591.81,174.62L592.11,151.73L592.71,153.78L592.79,155.79L592.94,161.1L593.01,167.7L593.47,175.98L593.62,169.78L593.69,163.91L594.52,126.76L594.67,135.24L594.75,143.31L595.27,162.35L595.35,157.69L595.42,143.58L595.88,146.27L596.33,115.22L596.4,115.15L597.08,165.54L597.23,131.27L597.31,106.23L597.91,135.54L598.06,122.49L598.14,123.49L598.81,165.09L598.97,154.01L599.04,133.97L599.87,76.84L599.95,84.49L600.7,159.16L600.85,133.05L600.92,104.75L601.3,132L601.6,100.07L601.68,66.74L602.36,162.97L602.66,131.82L602.73,93.41L602.81,93.76L602.88,81.4L603.34,113.02L603.49,61.9L603.56,71.11L604.24,157.73L604.47,140.8L604.54,120.33L605.3,46.46L605.37,62.04L605.45,84.5L606.05,147.7L606.35,135.76L606.43,119.7L607.18,87L607.25,100.56L607.33,109.98L607.78,142.83L608.08,128.5L608.16,113.45L608.23,129.65L608.84,106.64L608.91,96.65L608.99,96.31L609.06,97.83L609.14,110.12L609.67,143.47L609.82,133.11L609.89,107.88L610.65,12.64L610.72,36.99L610.8,83.05L611.47,141.68L611.62,133.45L611.7,105.01L611.85,-39.74L612.45,36.86L612.53,60.9L613.36,144.7L613.51,114.18L613.58,79.2L613.73,75.28L614.19,110.27L614.26,90.77L614.34,77.87L615.09,152.43L615.32,120.5L615.39,94.99L616.37,132.21L616.45,138.93L616.9,163.15L617.2,143.51L617.28,131.71L617.43,117.63L617.73,135.86L618.03,127.87L618.1,137.08L618.78,171.76L619.01,163.14L619.08,158.18L619.31,143.91L619.84,156.36L619.91,157.84L620.59,187.03L620.74,170.18L620.82,162.86L621.27,167.47L621.42,163.74L621.5,158.14L621.65,152.65L622.02,164.81L622.1,172.89L622.32,182.53L622.55,155.43L622.63,139.72L623,154.87L623.3,145.4L623.38,134.37L623.45,132.11L623.68,148.41L623.76,154.28L624.13,169.25L624.36,142.45L624.43,124.03L625.41,146.1L625.49,148.68L626.02,169.54L626.17,148.41L626.24,124.51L626.62,145.1L627,128.59L627.07,131.31L627.67,164.07L627.9,156.27L627.98,134.39L628.05,107.92L628.73,122.21L628.8,116.89L628.96,124.55L629.03,130.98L629.63,166.23L629.86,144.79L629.93,130.15L630.01,121.77L630.39,147.41L630.54,142.92L630.61,140.12L631.52,177.15L631.74,164.71L631.82,159.86L631.89,157.51L632.27,169.61L632.35,169.45L632.42,165.9L632.87,178.43L632.95,181.3L633.25,190.07L633.48,171.04L633.55,177.95L633.63,174.77L633.93,181.97L634,179.72L634.08,175.61L634.38,167.9L634.68,176.08L634.76,179.17L634.98,182.73L635.13,176.51L635.21,163.12L635.28,154.06L635.74,167.24L635.89,166.39L635.96,164.82L636.04,161.45L636.42,174.3L636.49,176.13L636.79,183.73L637.02,165.67L637.09,156.76L637.62,166.95L637.85,158.5L637.92,158.37L638.68,187.37L638.75,181.22L638.83,166.64L639.35,167.32L639.66,151.27L639.73,150.79L640.48,183.25L640.63,169.45L640.71,155.38L641.31,168.23L641.46,162.05L641.54,162.11L641.77,165.95L641.84,173.08L642.22,196.19L642.52,173.44L642.59,168.58L643.35,157.64L643.42,161.41L643.5,163.8L644.03,196.09L644.33,182.26L644.4,172.9L645.08,151.66L645.31,158.17L645.38,162.91L645.98,177.61L646.06,170.9L646.14,158.13L647.11,175.14L647.19,176.15L647.79,188.24L647.94,179.86L648.02,171.57L648.09,161.48L648.77,165.89L648.85,167.67L648.92,164.6L649.22,173.44L649.3,181.81L649.9,150.99L650.28,155.11L650.36,156.31L650.73,154.86L650.81,156.68L650.88,164.31L651.03,163.39L651.11,165.08L651.18,166.59L651.33,168.19L651.41,162.94L651.56,136.31L652.24,144.21L652.31,142.73L652.62,158.74L652.69,163.81L653.07,185.18L653.37,161.09L653.44,168.29L653.52,161.29L653.67,162.89L654.12,153.69L654.35,156.33L654.42,160.76L655.03,182.2L655.18,172.25L655.25,164.09L655.93,151.47L656.08,153.81L656.16,154.96L656.84,174.3L656.99,167.35L657.06,163.37L657.51,164.91L657.81,155.11L657.89,159.4L658.57,184.52L658.72,174.41L658.79,167.45L658.87,171.17L659.4,166.3L659.47,162.99L659.55,159.86L660,168.25" style="vector-effect: none; fill: none; stroke: rgb(54, 112, 97); stroke-opacity: 1; stroke-width: 0px; opacity: 1;"/></g><g class="points"/><g class="text"/></g></g></g><g class="overplot"/><path class="xlines-above crisp" d="M19,230.5H681M19,19.5H681" style="fill: none; stroke-width: 1px; stroke: rgb(68, 68, 68); stroke-opacity: 1;"/><path class="ylines-above crisp" d="M19.5,20V230M680.5,20V230" style="fill: none; stroke-width: 1px; stroke: rgb(68, 68, 68); stroke-opacity: 1;"/><g class="overlines-above"/><g class="xaxislayer-above"><path class="xtick ticks crisp" d="M0,231v5" transform="translate(20,0)" style="stroke: rgb(68, 68, 68); stroke-opacity: 1; stroke-width: 1px;"/><path class="xtick ticks crisp" d="M0,231v5" transform="translate(126.7,0)" style="stroke: rgb(68, 68, 68); stroke-opacity: 1; stroke-width: 1px;"/><path class="xtick ticks crisp" d="M0,231v5" transform="translate(237.01,0)" style="stroke: rgb(68, 68, 68); stroke-opacity: 1; stroke-width: 1px;"/><path class="xtick ticks crisp" d="M0,231v5" transform="translate(347.33,0)" style="stroke: rgb(68, 68, 68); stroke-opacity: 1; stroke-width: 1px;"/><path class="xtick ticks crisp" d="M0,231v5" transform="translate(459.45,0)" style="stroke: rgb(68, 68, 68); stroke-opacity: 1; stroke-width: 1px;"/><path class="xtick ticks crisp" d="M0,231v5" transform="translate(569.76,0)" style="stroke: rgb(68, 68, 68); stroke-opacity: 1; stroke-width: 1px;"/><g class="xtick"><text text-anchor="middle" x="0" y="255.2" transform="translate(20,0)" style="font-family: 'Open Sans', verdana, arial, sans-serif; font-size: 16px; fill: rgb(68, 68, 68); fill-opacity: 1; white-space: pre; opacity: 0;">01.01</text></g><g class="xtick"><text text-anchor="middle" x="0" y="255.2" style="font-family: 'Open Sans', verdana, arial, sans-serif; font-size: 16px; fill: rgb(68, 68, 68); fill-opacity: 1; white-space: pre; opacity: 1;" transform="translate(126.7,0)">01.03</text></g><g class="xtick"><text text-anchor="middle" x="0" y="255.2" style="font-family: 'Open Sans', verdana, arial, sans-serif; font-size: 16px; fill: rgb(68, 68, 68); fill-opacity: 1; white-space: pre; opacity: 1;" transform="translate(237.01,0)">01.05</text></g><g class="xtick"><text text-anchor="middle" x="0" y="255.2" style="font-family: 'Open Sans', verdana, arial, sans-serif; font-size: 16px; fill: rgb(68, 68, 68); fill-opacity: 1; white-space: pre; opacity: 1;" transform="translate(347.33,0)">01.07</text></g><g class="xtick"><text text-anchor="middle" x="0" y="255.2" style="font-family: 'Open Sans', verdana, arial, sans-serif; font-size: 16px; fill: rgb(68, 68, 68); fill-opacity: 1; white-space: pre; opacity: 1;" transform="translate(459.45,0)">01.09</text></g><g class="xtick"><text text-anchor="middle" x="0" y="255.2" style="font-family: 'Open Sans', verdana, arial, sans-serif; font-size: 16px; fill: rgb(68, 68, 68); fill-opacity: 1; white-space: pre; opacity: 1;" transform="translate(569.76,0)">01.11</text></g></g><g class="yaxislayer-above"><path class="ytick ticks crisp" d="M19,0h-5" transform="translate(0,230)" style="stroke: rgb(68, 68, 68); stroke-opacity: 1; stroke-width: 1px;"/><path class="ytick ticks crisp" d="M19,0h-5" transform="translate(0,188)" style="stroke: rgb(68, 68, 68); stroke-opacity: 1; stroke-width: 1px;"/><path class="ytick ticks crisp" d="M19,0h-5" transform="translate(0,146)" style="stroke: rgb(68, 68, 68); stroke-opacity: 1; stroke-width: 1px;"/><path class="ytick ticks crisp" d="M19,0h-5" transform="translate(0,104)" style="stroke: rgb(68, 68, 68); stroke-opacity: 1; stroke-width: 1px;"/><path class="ytick ticks crisp" d="M19,0h-5" transform="translate(0,62)" style="stroke: rgb(68, 68, 68); stroke-opacity: 1; stroke-width: 1px;"/><path class="ytick ticks crisp" d="M19,0h-5" transform="translate(0,20)" style="stroke: rgb(68, 68, 68); stroke-opacity: 1; stroke-width: 1px;"/><g class="ytick"><text text-anchor="end" x="10.8" y="5.6" transform="translate(0,230)" style="font-family: 'Open Sans', verdana, arial, sans-serif; font-size: 16px; fill: rgb(68, 68, 68); fill-opacity: 1; white-space: pre; opacity: 1;">0</text></g><g class="ytick"><text text-anchor="end" x="10.8" y="5.6" style="font-family: 'Open Sans', verdana, arial, sans-serif; font-size: 16px; fill: rgb(68, 68, 68); fill-opacity: 1; white-space: pre; opacity: 1;" transform="translate(0,188)">10</text></g><g class="ytick"><text text-anchor="end" x="10.8" y="5.6" style="font-family: 'Open Sans', verdana, arial, sans-serif; font-size: 16px; fill: rgb(68, 68, 68); fill-opacity: 1; white-space: pre; opacity: 1;" transform="translate(0,146)">20</text></g><g class="ytick"><text text-anchor="end" x="10.8" y="5.6" style="font-family: 'Open Sans', verdana, arial, sans-serif; font-size: 16px; fill: rgb(68, 68, 68); fill-opacity: 1; white-space: pre; opacity: 1;" transform="translate(0,104)">30</text></g><g class="ytick"><text text-anchor="end" x="10.8" y="5.6" style="font-family: 'Open Sans', verdana, arial, sans-serif; font-size: 16px; fill: rgb(68, 68, 68); fill-opacity: 1; white-space: pre; opacity: 1;" transform="translate(0,62)">40</text></g><g class="ytick"><text text-anchor="end" x="10.8" y="5.6" style="font-family: 'Open Sans', verdana, arial, sans-serif; font-size: 16px; fill: rgb(68, 68, 68); fill-opacity: 1; white-space: pre; opacity: 1;" transform="translate(0,20)">50</text></g></g><g class="overaxes-above"/></g></g><g class="polarlayer"/><g class="smithlayer"/><g class="ternarylayer"/><g class="geolayer"/><g class="funnelarealayer"/><g class="pielayer"/><g class="iciclelayer"/><g class="treemaplayer"/><g class="sunburstlayer"/><g class="glimages"/><defs id="topdefs-888f6b"><g class="clips"/><clipPath id="legend888f6b"><rect width="210" height="55" x="0" y="0"/></clipPath></defs><g class="layer-above"><g class="imagelayer"/><g class="shapelayer"/></g><g class="infolayer"><g class="legend" pointer-events="all" transform="translate(26.6,24.200000000000003)"><rect class="bg" shape-rendering="crispEdges" width="210" height="55" x="0" y="0" style="stroke: rgb(68, 68, 68); stroke-opacity: 1; fill: rgb(0, 0, 0); fill-opacity: 0; stroke-width: 0px;"/><g class="scrollbox" transform="" clip-path="url(#legend888f6b)"><g class="groups"><g class="traces" transform="translate(0,27.3)" style="opacity: 1;"><text class="legendtext" text-anchor="start" x="40" y="-4.16" style="font-family: 'Open Sans', verdana, arial, sans-serif; font-size: 16px; fill: rgb(68, 68, 68); fill-opacity: 1; white-space: pre;"><tspan class="line" dy="0em" x="40" y="-4.16">Strm:</tspan><tspan class="line" dy="1.3em" x="40" y="-4.16">69 325 kr/r | 59 kr</tspan></text><g class="layers"><g class="legendfill"><path class="js-fill" d="M5,-2h30v6h-30z" style="stroke-width: 0; fill: rgb(54, 112, 97); fill-opacity: 0.5;"/></g><g class="legendlines"><path class="js-line" d="M5,-2h30" style="fill: none; stroke: rgb(54, 112, 97); stroke-opacity: 1; stroke-width: 0px;"/></g><g class="legendsymbols"><g class="legendpoints"/></g></g><rect class="legendtoggle" x="0" y="-22.3" width="206.5625" height="44.6" style="fill: rgb(0, 0, 0); fill-opacity: 0;"/></g></g></g><rect class="scrollbar" rx="20" ry="3" width="0" height="0" x="0" y="0" style="fill: rgb(128, 139, 164); fill-opacity: 1;"/></g><g class="g-gtitle"/><g class="g-xtitle"/><g class="g-ytitle" transform="translate(32,0)"><text class="ytitle" transform="rotate(-90,-18,125)" x="-18" y="125" text-anchor="middle" style="font-family: 'Open Sans', verdana, arial, sans-serif; font-size: 14px; fill: rgb(68, 68, 68); opacity: 1; font-weight: normal; white-space: pre;">Kostnad (kr)</text></g></g></svg>