<svg class="main-svg" xmlns="http://www.w3.org/2000/svg" xmlns:xlink="http://www.w3.org/1999/xlink" width="700" height="250" style="" viewBox="0 0 700 250"><rect x="0" y="0" width="700" height="250" style="fill: rgb(255, 255, 255); fill-opacity: 1;"/><defs id="defs-1a643a"><g class="clips"><clipPath id="clip1a643axyplot" class="plotclip"><rect width="660" height="210"/></clipPath><clipPath class="axesclip" id="clip1a643ax"><rect x="20" y="0" width="660" height="250"/></clipPath><clipPath class="axesclip" id="clip1a643ay"><rect x="0" y="20" width="700" height="210"/></clipPath><clipPath class="axesclip" id="clip1a643axy"><rect x="20" y="20" width="660" height="210"/></clipPath></g><g class="gradients"/><g class="patterns"/></defs><g class="bglayer"/><g class="layer-below"><g class="imagelayer"/><g class="shapelayer"/></g><g class="cartesianlayer"><g class="subplot xy"><g class="layer-subplot"><g class="shapelayer"/><g class="imagelayer"/></g><g class="minor-gridlayer"><g class="x"/><g class="y"/></g><g class="gridlayer"><g class="x"><path class="xgrid crisp" transform="translate(126.7,0)" d="M0,20v210" style="stroke: rgb(238, 238, 238); stroke-opacity: 1; stroke-width: 0.1px;"/><path class="xgrid crisp" transform="translate(237.01,0)" d="M0,20v210" style="stroke: rgb(238, 238, 238); stroke-opacity: 1; stroke-width: 0.1px;"/><path class="xgrid crisp" transform="translate(347.33,0)" d="M0,20v210" style="stroke: rgb(238, 238, 238); stroke-opacity: 1; stroke-width: 0.1px;"/><path class="xgrid crisp" transform="translate(459.45,0)" d="M0,20v210" style="stroke: rgb(238, 238, 238); stroke-opacity: 1; stroke-width: 0.1px;"/><path class="xgrid crisp" transform="translate(569.76,0)" d="M0,20v210" style="stroke: rgb(238, 238, 238); stroke-opacity: 1; stroke-width: 0.1px;"/></g><g class="y"><path class="ygrid crisp" transform="translate(0,188)" d="M20,0h660" style="stroke: rgb(238, 238, 238); stroke-opacity: 1; stroke-width: 0.1px;"/><path class="ygrid crisp" transform="translate(0,146)" d="M20,0h660" style="stroke: rgb(238, 238, 238); stroke-opacity: 1; stroke-width: 0.1px;"/><path class="ygrid crisp" transform="translate(0,104)" d="M20,0h660" style="stroke: rgb(238, 238, 238); stroke-opacity: 1; stroke-width: 0.1px;"/><path class="ygrid crisp" transform="translate(0,62)" d="M20,0h660" style="stroke: rgb(238, 238, 238); stroke-opacity: 1; stroke-width: 0.1px;"/></g></g><g class="zerolinelayer"><path class="yzl zl crisp" transform="translate(0,230)" d="M20,0h660" style="stroke: rgb(68, 68, 68); stroke-opacity: 1; stroke-width: 1px;"/></g><g class="layer-between"><g class="shapelayer"/><g class="imagelayer"/></g><path class="xlines-below"/><path class="ylines-below"/><g class="overlines-below"/><g class="xaxislayer-below"/><g class="yaxislayer-below"/><g class="overaxes-below"/><g class="plot" transform="translate(20,20)" clip-path="url(#clip1a643axyplot)"><g class="scatterlayer mlayer"><g class="trace scatter trace6df254" style="stroke-miterlimit: 2;"><g class="fills"><g><path class="js-fill" d="M660,210L0,210L0,173.31L0.08,180.61L0.6,173.05L0.68,164.04L0.83,162.97L0.9,164.54L0.98,167.95L1.28,166.19L2.03,173.35L2.11,173.28L2.19,169.88L2.34,146.05L3.01,156.11L3.09,151.89L3.24,150.26L3.32,152.79L3.77,167.94L3.99,160.74L4.07,148.06L4.14,133.59L4.6,152.38L4.82,146.29L4.9,142.17L5.05,140.85L5.12,143.47L5.2,148.27L5.65,166.87L5.88,149.09L5.95,140.75L6.56,158.05L6.71,150.44L6.78,152.35L6.93,152.69L7.01,156.3L7.46,172.63L7.69,154.95L7.76,145.14L8.36,160.18L8.51,150.7L8.59,150.71L8.89,161.66L8.97,164.11L9.34,171.16L9.57,162.25L9.64,158.09L9.87,149.04L10.4,151.14L10.47,153.24L10.55,153.61L10.62,157.73L11.15,174.47L11.38,166.8L11.45,163.04L11.6,154.64L11.98,165.37L12.13,163.55L12.21,163.49L12.36,165.78L12.43,169.88L12.89,200.25L13.19,188.4L13.26,178.98L13.34,171.15L14.02,171.51L14.09,171.77L14.24,173.92L14.32,175.61L14.69,189.41L14.84,181.04L14.92,167.81L14.99,161.47L15.45,172.47L15.6,172.03L15.67,169.74L15.75,163.65L16.28,178.84L16.35,182.57L16.73,163.17L16.8,154.79L17.26,166.62L17.56,160.87L17.63,161.1L17.86,166.55L17.93,171.22L18.31,194.69L18.54,165.73L18.61,157.36L19.06,173.2L19.37,167.06L19.44,167.04L19.59,167.63L19.67,171.81L19.97,200.29L20.27,184.86L20.34,168.54L20.42,160.37L20.87,173.56L21.02,171.64L21.1,169.84L21.25,165.54L21.55,174.46L21.63,183.5L21.85,196.5L22.15,178.8L22.23,173.99L22.45,161.03L23.06,164.57L23.13,166.43L23.21,166.58L23.28,170.25L23.81,188.7L24.04,174.72L24.11,169.4L24.34,160.1L24.87,163.46L24.94,165.23L25.02,165.37L25.09,168.98L25.62,198.48L25.92,192.04L26,176.05L26.67,165.18L26.82,165.31L26.9,167.06L27.28,177.62L27.5,171.59L27.58,157.88L27.65,147.7L28.11,164.83L28.26,162.74L28.33,160.61L28.48,156.25L28.86,168.25L28.93,173.73L29.09,177.56L29.31,173.58L29.39,159.97L29.46,153.85L29.84,167.4L29.99,167.02L30.07,168.55L30.22,160.34L30.67,171.28L30.74,174.97L31.04,178.57L31.12,174.87L31.2,161.32L31.27,152.84L31.72,167.37L31.87,166.84L31.95,164.51L32.02,160.46L32.48,170.03L32.55,175.28L32.85,177.33L32.93,173.57L33,160.09L33.08,151L33.38,164.76L33.68,163.41L33.76,161.02L33.83,157.42L34.28,167.43L34.36,170.66L34.51,174.45L34.89,164.21L34.96,158.39L35.11,147.89L35.49,158.5L35.79,150.87L35.87,151.05L36.24,167.27L36.62,162.36L36.7,156.56L36.92,140.37L37.52,141.62L37.6,143.86L38.05,159.22L38.35,154.04L38.43,143.13L38.5,130.81L39.11,153.87L39.18,149.45L39.33,143.88L39.71,154.75L39.79,160.1L40.09,165.51L40.16,161.8L40.24,145.8L40.31,134.81L40.76,153.46L40.84,153.45L40.92,157.52L41.07,147.87L41.52,165.55L41.59,170.76L41.82,174.54L41.97,170.78L42.05,157.2L42.12,149.52L42.57,164.12L42.72,163.65L42.8,161.35L42.87,156.15L43.33,171.26L43.4,174.92L43.7,180.41L43.85,163.61L43.93,154.24L44.53,173.01L44.68,166.71L44.76,164.87L45.44,180.59L45.59,176.91L45.66,164.03L45.74,155.88L46.19,172.7L46.34,170.66L46.42,164.95L46.57,161.11L47.02,171.78L47.09,175.33L47.4,174.81L47.47,168.23L47.77,148.67L48.38,153.85L48.45,154.09L48.6,158.2L48.68,164.62L49.05,171.99L49.35,164.92L49.43,159.59L49.58,152.41L49.96,163.32L50.18,157.98L50.26,159.77L50.94,175.72L51.01,172.26L51.09,162.02L51.16,155.1L51.69,172.45L51.77,174.16L51.92,169L52.37,175.08L52.44,180.1L52.67,190.52L52.82,178.53L52.9,165.09L52.97,159.43L53.42,175.94L53.5,177.6L53.88,166.59L54.18,174.23L54.25,177.67L54.33,181.04L54.63,175.7L54.7,164.36L54.78,154.77L55.23,168.33L55.38,166.53L55.46,164.71L55.53,160.91L56.06,172.19L56.14,174.06L56.36,174.19L56.44,170.5L56.59,148.81L57.19,162.2L57.27,160.18L57.34,154.37L57.87,166.97L57.94,170.36L58.02,170.49L58.1,168.72L58.17,168.47L58.25,164.82L58.4,137.99L59,158.38L59.08,153.56L59.3,145.57L59.68,162.49L59.75,168.04L59.83,168.2L59.9,170.15L60.51,149.19L60.73,156.62L60.81,156.53L60.88,156.24L60.96,152.31L61.56,167.78L61.94,163.62L62.01,158.2L62.16,145.09L62.77,152.24L62.84,152.02L63.6,171.44L63.67,167.92L63.75,157.56L63.82,152.22L64.27,166.15L64.35,166.03L64.43,167.5L64.65,157.89L65.1,168.93L65.18,172.48L65.33,172.5L65.4,170.7L65.63,139.77L65.93,156.69L66.01,158.62L66.23,160.01L66.31,154.65L66.38,151.83L66.76,163.69L66.84,163.86L67.21,171.02L67.36,153.7L67.44,147.94L68.04,164.75L68.19,157.29L68.27,157.29L68.42,157.4L68.49,159.25L68.87,174.59L69.17,157.56L69.25,148.1L69.85,167.08L70.08,163.73L70.15,164.02L70.23,162.33L70.45,170.2L70.53,175.44L70.83,180.66L70.98,164.48L71.06,156.94L71.66,173.39L71.81,167.97L71.88,166.15L71.96,164.42L72.26,173.72L72.34,175.63L72.41,178.95L72.86,169.04L72.94,163.22L73.17,154.87L73.69,159.37L73.77,159.47L74.52,180.75L74.67,173.93L74.75,168.83L75.2,170.43L75.5,162.52L75.58,164.39L76.1,178.41L76.33,173.22L76.41,162.89L76.48,154.24L77.01,171.67L77.08,171.59L77.16,167.78L77.31,164.21L77.69,171.7L77.76,176.67L77.91,180.21L78.21,163.66L78.29,156.24L78.82,178.31L79.04,165.35L79.12,165.36L79.19,163.56L79.5,173.01L79.57,176.52L79.72,178.32L79.95,172.96L80.02,161.22L80.1,145.96L80.7,165.06L80.78,160.24L80.93,153.93L81.38,171.51L81.45,175.04L81.68,175.05L81.76,171.34L81.91,150.49L82.51,165.24L82.58,161.55L82.74,158.06L82.96,164.02L83.04,168.19L83.11,168.37L83.19,173.56L83.26,176.95L83.64,159.87L83.72,154.31L84.17,170.68L84.47,161.54L84.54,159.87L85,173.19L85.07,176.82L85.3,179.01L85.37,178.83L85.45,173.43L85.75,158.97L86.28,162.8L86.35,164.35L86.5,166.89L86.58,170.55L87.03,182.75L87.33,175.32L87.41,169.95L87.56,162.69L87.86,172.01L88.16,166.13L88.24,166.14L88.69,178.34L88.99,171.69L89.06,162.99L89.14,152.41L89.67,170.2L89.74,170.11L89.82,166.45L89.97,160.83L90.42,172.16L90.5,175.99L90.72,187.68L90.87,161.49L90.95,154.05L91.55,175.96L91.7,166.38L91.78,164.37L91.93,164.45L92,166.37L92.31,187.1L92.68,168.03L92.76,158.61L93.06,171.15L93.51,161.23L93.59,158.24L93.96,171.19L94.04,174.78L94.34,176.58L94.41,173.06L94.49,159.89L94.57,152.37L94.94,165.33L95.09,165.26L95.17,167.1L95.32,159.66L95.77,167.99L95.85,173.1L96.15,174.95L96.22,171.44L96.3,158.36L96.37,150.93L96.9,169.12L96.98,169.11L97.2,159.59L97.65,171.62L97.73,175.11L97.88,176.93L98.11,169.58L98.18,167.53L98.41,154.89L99.01,158.63L99.09,160.54L99.16,160.76L99.24,164.27L99.69,175.49L99.99,170.3L100.07,164.98L100.22,158.47L100.52,168.82L100.82,162.95L100.9,162.95L101.42,176.68L101.65,171.42L101.72,162.73L101.8,155.68L102.33,173.68L102.4,173.49L102.7,162L103.08,172.95L103.16,174.78L103.23,176.53L103.46,171.13L103.53,157.84L103.61,151.13L104.06,172.88L104.14,174.59L104.51,161.46L104.81,169.44L104.89,174.52L105.04,178.09L105.27,172.72L105.34,161.46L105.42,152.11L105.94,174.42L106.02,174.42L106.25,161.41L106.7,174.25L106.77,179.51L107.07,174.17L107.15,163.02L107.22,151.89L107.68,174.24L107.75,174.2L107.83,175.97L108.13,162.99L108.51,174.38L108.58,177.9L108.88,172.57L108.96,161.28L109.03,150.03L109.64,172.46L109.71,168.76L109.86,159.55L110.31,172.67L110.39,174.43L110.69,174.32L110.77,170.47L111.07,153.73L111.37,171L111.59,163.73L111.67,167.3L111.75,165.53L112.12,173.03L112.2,176.54L112.35,176.52L112.42,178.21L113.55,160.19L113.63,162.01L114.01,172.81L114.31,165.89L114.38,157.15L114.46,146.71L114.91,169.27L114.99,169.2L115.06,169.05L115.36,155.75L115.74,168.23L115.81,170.48L115.89,172.3L116.12,166.42L116.19,152.82L116.27,140.39L116.79,162.77L116.87,164.59L117.17,148.99L117.55,164.24L117.62,167.86L117.7,168.04L117.77,166.46L117.85,166.46L118.08,139.71L118.45,158.28L118.53,158.29L118.68,161.75L118.83,151.74L118.9,148.22L119.36,162L119.43,165.59L119.58,165.64L119.66,163.9L119.88,130.36L120.26,156.42L120.34,158.39L120.49,160.03L120.56,156.08L120.64,151.83L120.79,147.04L121.09,160.04L121.16,163.6L121.39,167.31L121.54,161.93L121.62,149.01L121.69,136.64L122.29,161.11L122.37,157.33L122.6,146.51L122.97,160.64L123.05,164.2L123.27,164.28L123.35,162.26L123.73,143.49L124.33,147.09L124.4,147.44L124.56,154.02L124.63,159.06L125.01,164.69L125.23,160.55L125.31,156.77L125.53,148.98L125.91,161.29L126.06,155.23L126.14,154.96L126.21,153.26L126.51,162.5L126.59,165.76L126.74,167.76L126.97,162.89L127.04,154.33L127.12,145.8L127.64,165.09L127.72,166.72L127.95,156.8L128.4,168.58L128.47,172.12L128.7,173.11L128.77,170.57L128.93,149.73L129.53,165.86L129.6,162.28L129.83,158.36L130.13,166.78L130.21,170.25L130.51,172.13L130.58,168.73L130.66,156.99L130.73,147.48L131.19,167.7L131.26,167.7L131.34,169.46L131.71,156.07L132.02,167.54L132.09,171.05L132.47,151.8L132.54,140.97L132.99,169.24L133.37,157.44L133.45,157.53L133.52,155.84L133.75,163.76L133.82,167.47L133.97,171.1L134.2,165.92L134.28,153.92L134.35,141L134.95,167.6L135.03,163.8L135.18,157.98L135.63,170.18L135.71,173.58L135.86,175.35L136.16,167.33L136.23,163.65L136.39,154.91L136.69,163.92L136.99,159.61L137.06,161.56L137.14,161.72L137.21,165.42L137.67,178.26L137.97,172.84L138.04,169.46L138.19,162.74L138.5,174.97L138.8,164.08L138.87,165.74L139.55,179.87L139.63,176.42L139.7,167.82L139.78,160.93L140.23,173.13L140.38,172.98L140.45,169.44L140.61,165.89L140.98,172.99L141.06,176.27L141.36,179.79L141.51,163.35L141.58,157.82L142.11,174.62L142.34,165.09L142.41,163.07L143.09,178.03L143.24,172.85L143.32,161.62L143.39,154.2L144,167.45L144.07,165.49L144.22,159.81L144.6,169.88L144.67,173.49L144.98,177.36L145.13,162.43L145.2,154.95L145.8,173.48L146.03,165.89L146.11,164.03L146.48,177.06L146.56,180.65L146.78,189L146.86,177.44L146.93,164.56L147.01,158.69L147.54,173.65L147.61,173.5L147.91,165.63L148.22,173.6L148.29,177.05L148.59,183.13L148.82,173.34L148.89,169.76L149.12,162.89L149.35,170.05L149.65,165.99L149.72,165.86L150.4,198.88L150.48,198L150.55,182.47L150.93,161.94L151.53,165.17L151.61,165.3L152.21,175.55L152.28,172.27L152.36,162.03L152.44,153.38L152.96,168.92L153.04,168.66L153.11,165.02L153.34,157.42L153.72,166.4L153.79,169.93L153.87,170.06L153.94,168.32L154.02,167.97L154.09,164.25L154.24,145.15L154.7,164.81L154.77,163.05L154.85,166.45L155.15,154.44L155.52,166.62L155.6,169.92L155.98,149.15L156.05,143.63L156.65,165.52L156.81,156.37L156.88,153.25L157.41,173.08L157.71,169.07L157.79,156.02L157.86,147.96L158.31,165.35L158.39,165.33L158.46,167.09L158.69,153.83L159.07,166.42L159.14,170.03L159.37,171.91L159.52,168.12L159.59,153.56L159.67,143.64L160.05,162.61L160.2,162.58L160.27,164.36L160.57,155.7L160.87,164.78L160.95,170.1L161.33,174.59L161.48,165.97L161.55,160.36L161.7,155.68L162,167.42L162.31,159.64L162.38,159.77L162.91,175.09L163.29,171.18L163.36,165.7L163.51,160.34L163.81,169.53L164.19,162.03L164.27,162.07L164.72,174.93L165.02,162.13L165.09,158.46L165.7,174.97L165.85,167.22L165.92,161.37L166.07,161L166.15,164.85L166.6,174.46L166.75,171.4L166.83,158.15L166.9,148.07L167.35,171.42L167.43,171.19L167.51,171.03L167.88,157.49L168.18,172.4L168.26,176.07L168.56,171.99L168.64,157.62L168.71,151.46L169.16,176.41L169.24,176.37L169.62,161.78L169.92,170.43L169.99,174.17L170.14,177.89L170.44,160.8L170.52,157.79L171.05,176.26L171.27,168.35L171.35,164.48L172.03,179.65L172.18,175.8L172.25,164.11L172.33,154.2L172.7,166.67L173.01,162.41L173.08,160.38L173.16,158.4L173.53,167.11L173.61,170.83L173.68,174.49L174.14,166.5L174.21,162.73L174.36,157.02L174.74,170.64L174.97,160.44L175.04,160.39L175.79,177.85L175.94,174.09L176.02,170.34L176.17,165.02L176.47,178.38L176.77,168.53L176.85,168.51L177.53,183.49L177.6,179.78L177.68,172.32L177.75,166.69L178.21,183.85L178.28,183.54L178.36,180.64L178.66,170.46L178.96,176.44L179.03,182.3L179.26,184.4L179.41,180.61L179.49,169.63L179.56,162.26L179.94,193.16L180.01,195.68L180.24,185.99L180.32,170.05L180.39,168.09L180.62,171.9L180.69,183.04L180.99,199.38L181.29,166.7L181.37,158.96L181.9,175.52L182.12,168.76L182.2,166.53L182.35,166.28L182.42,168.37L182.95,187.62L183.25,176.32L183.33,174.43L183.48,174.62L183.56,178.59L183.71,182.47L184.08,174.3L184.16,174.31L184.69,189.68L184.99,180.26L185.06,180.39L185.14,174.9L185.51,182.7L185.82,178.35L185.89,178.29L186.42,185.46L186.64,185.39L186.72,180.25L187.62,162.67L187.77,164.61L187.85,168.56L188.38,183.65L188.68,174.48L188.75,167.27L190.11,185.51L190.19,185.49L190.26,185.49L190.71,174.4L191.17,178.03L191.24,178.01L191.39,176.11L191.77,181.77L191.84,181.79L191.99,181.67L192.07,179.45L192.22,164.48L192.67,196.02L192.75,197.98L193.12,172.53L193.58,187.39L193.65,187.39L194.03,168.87L194.1,195.73L194.56,198.1L194.78,180.47L194.86,176.52L195.08,176.5L195.16,180.09L195.39,189.24L195.69,185.32L195.76,176.14L195.84,171.69L196.14,196.24L196.21,196.25L196.36,198.14L196.59,197.98L196.67,176.39L197.27,191.15L197.5,189.12L197.57,178.27L198.17,198.05L198.4,197.91L198.47,180.34L198.55,178.27L198.93,187.48L199,189.33L199.08,187.46L199.3,192.75L199.45,187.8L199.53,195.9L199.91,196.31L199.98,198.18L200.21,197.92L200.28,178.35L200.43,178.31L200.51,182.24L201.56,199.63L201.94,198.51L202.02,181.86L202.24,179.86L202.32,183.63L202.69,193.04L202.92,189.39L203,180.16L203.52,188.55L203.82,170.6L203.9,170.28L204.05,170.27L204.13,172.14L204.58,182.43L204.73,175.93L204.8,163.87L204.88,153.39L205.48,169.09L205.56,166.74L205.86,160.41L206.16,174.63L206.24,176.51L206.39,176.58L206.46,176.42L206.54,172.5L206.69,151.01L207.29,167.54L207.37,165.46L207.67,160.88L207.97,172.87L208.04,176.5L208.27,176.29L208.35,172.4L208.5,152.58L209.1,170.78L209.17,168.71L209.48,160.65L209.78,172.58L209.85,176.36L210.08,176.19L210.15,173.74L210.3,157.29L210.83,176.78L210.91,176.78L211.21,162.35L211.59,174.68L211.66,178.41L211.81,178.33L211.89,180.03L211.96,181.52L212.11,175.7L212.19,169.94L212.34,164.46L212.64,174.85L212.94,167.99L213.02,167.79L213.09,165.84L213.32,176.02L213.39,176L213.47,177.93L213.7,181.73L214,174.19L214.07,168.76L214.15,167.23L214.45,175.34L214.52,175.1L214.6,174.76L214.68,170.95L214.9,168.56L215.2,176.56L215.28,180.25L215.5,180.3L215.58,178.47L215.73,166.09L215.88,186.42L216.26,180.61L216.33,180.64L216.71,169.89L216.94,175.96L217.01,182.38L217.24,188.18L217.61,175.53L217.69,166.28L218.14,177.53L218.44,170.6L218.52,168.5L218.89,179.14L219.2,176.58L219.27,162.29L219.35,159.93L219.42,170.43L219.5,194.4L219.57,196.45L219.65,175L219.87,181.33L220.25,168.63L220.33,170.05L220.55,174.76L220.63,180.48L220.78,184.29L221.08,170.06L221.16,168.39L221.68,181.58L221.91,172.93L221.98,170.6L222.06,170.78L222.13,168.67L222.51,184.37L222.81,180.24L222.89,168.18L222.96,162.52L223.42,178.3L223.49,178.02L223.57,177.62L223.87,166.51L224.17,175.54L224.24,179.33L224.55,182.71L224.7,178.89L224.77,179.06L224.85,175.36L225,167.98L225.3,179.57L225.6,173.77L225.68,173.8L225.75,171.75L226.05,179.43L226.13,182.89L226.43,186.46L226.81,172.23L226.96,178.64L227.03,182.24L227.11,183.29L227.33,177.16L227.41,175.25L227.56,171.46L227.86,179.17L227.94,182.82L228.09,182.82L228.16,184.6L228.39,170.33L228.46,179.59L228.54,195.8L228.92,201.38L228.99,185.45L229.29,176.97L229.37,173.29L229.82,186.5L230.05,184.31L230.12,172.68L230.2,170.92L230.27,196.57L230.72,198.72L230.95,179.22L231.03,175.3L231.18,175.29L231.55,191.96L231.86,189.9L231.93,179.22L232.01,175.34L232.31,196.91L232.38,196.96L232.53,198.7L232.68,198.58L232.76,181.18L232.99,179.23L233.21,185L233.29,188.65L233.66,199.19L234.19,196.74L234.27,196.73L234.34,198.64L234.72,196.65L234.79,181.22L235.32,199.15L235.92,196.56L236,196.63L236.15,198.62L236.23,187.06L236.53,179.41L236.83,184.66L236.9,188.29L237.28,199.16L237.81,196.9L237.88,196.94L238.34,196.75L238.71,199.23L238.79,199.25L239.09,199.2L239.16,197.37L239.39,197.5L239.47,199.97L239.77,204.55L240.07,197.35L240.14,188.3L241.58,204.98L241.65,200.05L241.95,197.35L242.03,188.29L242.4,199.35L242.71,199.16L242.78,194.69L243.46,198.75L243.69,198.65L243.76,196.72L243.91,187.2L244.29,199.37L244.44,199.29L244.51,199.21L244.66,179.68L245.19,203.4L245.27,200.59L245.57,181L245.72,190.27L245.8,196.47L245.87,188.9L246.02,199.71L246.47,190.24L246.55,201.33L246.7,190.92L247,206.47L247.15,202.64L247.23,185.66L247.45,179.64L247.83,188.4L247.91,188.4L248.06,188.41L248.13,186.56L248.28,173.65L248.73,200.36L248.81,199.36L249.04,198.62L249.11,179.41L249.26,177.49L249.41,182.95L249.49,182.8L249.56,186.49L250.54,197.12L250.62,198.82L250.77,198.64L250.84,181.16L250.99,179.24L251.15,183.13L251.22,186.43L252.43,205.16L252.5,205.02L252.58,202.2L252.8,186.52L253.18,196.79L253.25,199.11L254.23,205.43L254.39,204.66L254.46,199.88L254.91,193.88L254.99,197.48L255.06,199.27L255.36,199.27L255.44,194.88L255.52,194.73L255.59,196.75L255.67,194.87L256.04,198.79L256.19,198.76L256.27,198.75L256.42,196.83L256.95,199.36L257.02,199.36L257.17,199.28L257.25,194.96L257.85,204.23L257.93,198.56L258,188.66L258.38,183.66L258.6,193.98L258.68,197.53L258.83,197.51L258.91,202.87L259.13,198.6L259.58,202.53L259.66,204.45L260.26,190.39L260.56,196.94L260.64,198.76L260.94,195L261.24,199.93L261.32,202.33L261.47,203.99L261.62,200.59L261.69,184.24L261.92,180.09L262.15,186.99L262.22,190.53L263.28,204.56L263.35,202.43L263.43,199.65L263.5,199L263.58,183.92L263.65,182.1L264.03,191.09L264.11,192.87L264.26,192.93L264.33,194.96L264.41,195.25L264.48,193.38L264.56,197.98L264.71,202.02L264.78,204.36L265.09,205.06L265.16,203.83L265.24,188.47L265.31,182.25L265.91,195.57L265.99,195.61L266.14,195.87L266.22,200.3L266.29,196.86L266.59,205.51L266.82,205.5L266.89,205.55L267.27,183.17L267.65,191.65L267.72,193.67L267.8,194.25L268.02,190.48L268.1,180.16L268.78,204.5L268.93,201.19L269,199.17L269.08,181.78L269.68,196.37L269.76,199.78L269.91,194.74L270.36,197.08L270.43,197.18L270.81,198.87L270.89,197.27L270.96,186.79L272.32,204.47L272.39,201.38L272.85,189.75L273.15,200.01L273.22,201.67L273.75,195.17L273.9,199.08L273.98,202.83L274.05,203.62L274.35,198.88L274.43,198.88L274.58,181.97L275.18,194.23L275.26,194.11L275.41,189.58L275.86,199.43L275.94,199.68L276.09,199.19L276.16,199.21L276.24,184.2L276.31,182.54L276.61,189.33L276.69,192.94L277.67,206.33L277.74,206.99L278.2,189.57L278.5,194.93L278.57,204.95L279.03,200.33L279.18,205.95L279.33,203.69L279.4,205.36L279.55,206.93L279.78,203.29L279.85,201.58L280.08,203.23L280.16,194.86L280.68,200.27L280.91,197.85L280.98,196.11L281.66,199.71L281.81,198.02L281.89,191.27L282.19,200.37L282.64,196.2L282.72,197.92L282.79,196.19L283.32,199.71L283.4,199.72L283.85,197.93L284.07,199.9L284.15,199.85L284.3,199.46L284.37,194.88L285.13,199.55L285.28,199.48L285.35,197.53L285.51,197.32L285.58,198.22L285.66,197.71L285.73,199.52L286.11,199.54L286.18,195.18L287.09,199.02L287.16,197.09L287.46,197.92L287.54,199.81L287.77,200.01L287.92,199.54L287.99,197.06L288.52,197.26L288.59,199.11L288.97,197.06L289.05,198.93L289.2,195.98L289.42,199.43L289.8,197.65L289.88,197.65L290.03,200.84L290.1,203.09L290.4,204.21L290.55,200.66L290.63,199.43L291.01,194.11L291.23,201.73L291.31,201.96L291.61,197.66L291.91,204.76L291.99,204.92L292.21,205.62L292.29,205.22L292.36,200.57L292.81,192.28L292.96,197.66L293.04,201.2L293.49,195.04L293.94,197.02L294.02,198.87L294.32,198.9L294.4,197.02L294.77,197.63L294.85,199.41L295.15,199.39L295.23,195.08L295.45,195.05L295.83,198.91L296.13,198.87L296.21,196.99L296.58,197.55L296.66,199.35L296.96,199.33L297.03,195.05L297.94,198.81L298.01,196.94L298.39,197.5L298.47,199.3L298.77,199.26L298.84,194.88L299.67,198.74L299.75,198.73L299.82,196.8L300.12,197.45L300.2,199.26L300.58,199.25L300.65,196.78L301.18,196.8L301.25,198.71L301.48,198.73L301.55,196.83L302.38,199.25L302.46,197.44L302.84,197.65L302.91,198.81L302.99,199.89L303.44,197.4L303.66,199.22L303.74,197.43L304.12,199.26L304.27,195.63L304.42,197.47L304.49,195.82L304.8,201.6L305.25,197.42L305.32,197.43L305.62,197.43L305.7,199.25L306,199.23L306.08,194.81L306.3,194.7L306.98,198.69L307.06,196.78L307.43,197.45L307.51,199.26L307.81,199.24L307.88,194.94L308.71,198.76L308.79,198.75L308.86,196.85L309.54,199.28L309.62,199.24L309.69,194.91L310.6,198.73L310.67,196.82L311.35,199.33L311.43,199.27L311.5,194.94L311.73,194.92L312.41,198.75L312.48,196.84L312.71,197.46L312.78,197.62L313.08,199.43L313.46,196.89L313.54,196.89L313.84,196.89L313.91,198.8L314.14,198.81L314.21,196.92L314.97,200.58L315.04,200.5L315.12,198.62L315.27,197.66L315.34,197.87L315.42,201.54L315.65,204.56L315.95,199.49L316.02,197.81L316.1,197.94L316.17,199.74L316.32,199.77L316.4,198.75L316.7,200.83L316.85,199.93L316.93,196.28L317,196.53L317.08,200.75L317.53,204.67L317.76,199.4L317.83,199.41L318.21,197.59L318.58,199.37L318.66,199.28L318.96,194.9L319.41,198.87L319.49,198.85L319.64,198.86L319.71,196.98L320.09,197.63L320.17,199.42L320.47,199.39L320.54,195.1L320.77,194.97L321.45,198.83L321.52,196.87L321.9,197.52L321.98,199.32L322.28,199.36L322.35,195.03L322.43,194.87L322.5,196.71L322.58,194.64L323.11,198.82L323.18,198.84L323.41,196.93L323.78,199.32L323.86,199.32L323.93,199.32L324.39,194.94L324.69,196.7L324.76,198.79L325.06,198.8L325.14,196.9L325.44,197.55L325.52,199.34L325.89,199.37L325.97,197L326.5,196.95L326.57,198.84L326.8,198.83L326.87,196.95L327.63,200.74L327.7,200.68L327.78,198.75L327.85,198.21L328.08,202.23L328.15,203.18L328.38,205.73L328.61,199.98L328.68,198.18L329.51,205.83L329.89,205.5L329.96,205.45L330.19,206.3L330.49,205.34L330.57,201.87L331.17,204.86L331.47,195.99L331.54,197.94L332,204.35L332.3,199.78L332.37,197.64L332.67,198.27L332.75,198.7L332.98,200.49L333.2,195.73L333.35,197.64L333.43,196.77L333.5,201.84L334.18,197.63L334.26,197.63L334.86,200.82L334.94,200.5L335.01,196.29L335.24,195.77L335.31,198.84L335.39,199.27L335.69,201.52L335.76,200.7L335.84,199.6L335.99,197.64L336.37,199.92L336.44,201.82L336.52,202.22L336.74,200.46L336.82,195.77L337.5,200.27L337.72,199.5L337.8,197.63L337.95,188.33L338.33,200.99L338.48,200.54L338.55,200.04L339,197.6L339.31,199.5L339.38,199.5L339.53,197.6L339.98,200.8L340.06,201.14L340.29,201.59L340.36,201.17L340.44,198.9L340.66,198.65L340.74,199.21L340.81,201.01L340.96,202.57L341.34,198.26L341.49,200.25L341.57,200.37L342.02,200.97L342.47,196.63L342.55,199.22L342.7,200.91L343.15,200.05L343.22,198.28L343.6,198.67L343.68,200.48L343.98,200.05L344.05,195.8L344.28,195.78L344.96,199.54L345.03,197.67L345.41,199.23L345.48,200.91L345.79,200.41L345.86,195.95L346.09,195.81L346.46,199.71L346.77,199.54L346.84,197.87L347.44,201.94L347.59,201.27L347.67,197.11L347.82,198.42L347.9,196.59L347.97,198.76L348.27,202.65L348.65,198.9L348.72,198.95L349.18,202.11L349.4,201.91L349.48,197.99L349.7,197.45L349.93,199.3L350.01,199.3L350.08,200.88L350.16,201.04L350.31,200.76L350.38,200.76L350.46,199.17L350.76,200.94L350.83,202.34L351.66,199.54L351.81,199.74L351.89,201.33L352.27,199.53L352.34,201.21L352.57,201.01L353.7,205.83L353.77,205.66L353.85,203.86L354,201.18L354.3,204.3L354.45,203.81L354.53,205.58L354.9,204.72L355.2,207.53L355.28,208.79L355.43,210.81L355.73,204.88L355.81,203.38L356.11,204.5L356.18,202.22L356.26,202.68L356.34,204.8L356.56,205.05L356.64,203.05L356.79,199.52L357.31,204.96L357.39,204.73L357.77,201.19L358.07,202.96L358.14,203.99L358.37,204.37L358.45,204.13L358.52,201.24L358.75,201.18L359.2,203.34L359.42,202.97L359.5,202.05L359.95,204.22L360.25,203.93L360.33,201.31L360.55,201.09L361.23,203.35L361.31,202.33L361.46,196.97L361.99,204.34L362.06,204.36L362.36,201.75L362.82,203.81L362.89,203.82L362.97,196.75L363.04,203.84L363.64,202.88L363.72,203.75L363.87,204.61L364.1,203.13L364.32,203.13L364.4,203.13L364.77,204.1L364.85,203.15L364.93,197.4L365.68,204.6L365.9,203.73L365.98,203.68L366.13,195.64L366.58,204.52L366.81,197.64L366.88,199.4L367.04,198.89L367.11,199.95L367.19,201.98L367.49,205.35L368.01,204.76L368.09,204.31L368.17,205.36L368.54,203.07L368.62,203.07L368.69,198.22L368.99,203.8L369.52,201.47L369.6,200.17L370.05,196.78L370.12,202.88L370.2,194.53L370.35,194.97L370.43,202.06L370.95,203.82L371.1,203.35L371.18,200.26L371.78,203.05L372.08,202.7L372.16,201.44L372.54,202.29L372.61,203.48L372.91,203.13L372.99,200.16L373.21,200.06L373.89,202.59L373.97,193.74L374.49,203.09L374.8,199.97L374.87,199.95L375.02,199.79L375.63,202.51L375.7,202.5L375.78,201.15L375.93,194.74L376.23,203.01L376.45,202.92L376.53,203.02L376.98,201.25L377.28,202.55L377.36,202.51L377.58,201.14L377.81,203.17L377.89,202.65L377.96,203.95L378.34,204.81L378.41,203.52L378.49,203.08L378.87,202.54L378.94,203.16L379.02,203.98L379.32,201.93L379.77,202.43L379.84,203.53L380.15,203.39L380.22,201.09L380.82,205.82L381.05,203.25L381.13,202.76L381.2,201.54L381.8,203.17L381.88,202.86L382.26,199.22L382.63,202.08L382.71,202.06L382.93,202.03L383.01,200.7L383.61,203.51L383.76,203.19L383.84,199.69L384.06,199.48L384.22,200.9L384.29,200.99L384.52,202.35L385.12,201.78L385.19,201.88L385.42,203.09L385.65,200.01L385.8,201.29L385.87,200L386.25,203.3L386.7,201.33L386.78,201.31L387.08,205.53L387.38,203.34L387.46,200.93L387.68,200.14L387.91,202.21L387.98,202.63L388.43,201.28L388.81,203.84L388.89,203.94L389.11,204.35L389.19,204.05L389.26,202.28L389.49,201.79L389.79,202.32L389.87,203.46L390.17,201.87L390.24,202.01L390.32,203.39L390.54,202.62L390.92,204.3L391,204.26L391.07,203.55L391.6,203.2L391.67,204.22L391.83,204.17L391.9,198.38L392.13,198.47L392.2,200.42L392.81,204.47L393.03,203.43L393.11,202.26L393.48,205.02L393.86,202.79L393.94,202.8L394.31,203.9L394.39,205.21L394.54,205.85L394.61,204.01L394.69,201.72L394.76,201.37L394.91,202.6L394.99,204.53L395.52,205.29L395.59,204.93L395.67,204.49L396.05,205.79L396.12,206.33L396.42,205.95L396.5,203.93L397.1,205.84L397.4,205.45L397.48,204.81L397.85,205.35L397.93,205.95L398.23,205.86L398.31,203.92L398.53,203.75L398.68,204.54L398.83,204.35L398.91,205.15L399.13,203.94L399.21,196.44L399.36,195.44L399.44,197L399.51,203.64L399.59,199.74L399.81,205.35L400.26,202.02L400.34,200.9L400.72,203.77L401.24,203.07L401.32,204.13L401.62,204.87L402.15,201.99L402.3,202.46L402.37,202.62L402.53,203.61L402.83,202.01L402.9,197.04L403.58,205.38L403.73,204.33L403.81,204.04L404.11,203.48L404.26,204.56L404.33,205.2L404.64,203.2L405.09,204.03L405.16,204.84L405.46,204.86L405.54,202.86L405.77,202.52L405.92,204.56L405.99,205.12L406.14,205.2L406.22,204.21L406.52,203.1L406.9,203.57L406.97,204.5L407.27,204.11L407.35,200.78L407.42,199.91L407.88,202.07L407.95,203.29L408.33,201.82L408.48,202.54L408.55,203.36L408.7,203.41L408.78,204.44L409.08,204.03L409.16,200.87L409.23,200.42L409.61,202.02L409.68,202.01L409.76,203.15L410.14,202.01L410.29,202.47L410.36,203.23L410.81,204.69L410.89,204.4L410.96,201.64L411.19,201.37L411.27,202.51L411.34,202.56L411.49,202.57L411.57,203.65L411.87,203.63L411.94,202.23L412.55,205.38L412.7,204.69L412.77,201.73L412.92,202.47L413,201.33L413.3,202.5L413.38,203.57L413.75,201.65L414.05,203.16L414.13,204.17L414.36,204.28L414.51,204.07L414.58,201.59L414.73,200.85L415.11,201.73L415.18,203.22L415.49,202.49L416.24,204.89L416.31,204.66L416.39,203.59L416.69,203.19L416.92,203.83L416.99,204.22L417.29,203.25L417.37,203.36L417.44,204.38L417.6,204.5L417.67,203.59L418.05,204.62L418.2,202.75L418.27,202.43L418.42,202.05L418.8,204.01L419.1,203.92L419.18,202.89L419.55,203.38L419.63,204.32L419.93,204.07L420.01,201.06L420.23,201.02L420.91,203.38L420.99,202.28L421.36,203.14L421.44,204.18L421.74,203.99L421.82,201.22L422.04,201.03L422.72,203.41L422.79,202.31L423.17,203.01L423.25,204.01L423.55,204.04L423.62,201.17L423.85,201.13L424.53,203.52L424.6,202.44L424.75,202.45L424.83,203.4L425.13,204.09L425.51,200.99L425.73,202.13L425.81,202.13L425.96,202.14L426.03,203.43L426.34,203.57L426.41,202.44L426.56,202.48L426.64,203.43L427.09,205.25L427.39,202.13L427.47,202.34L427.54,202.75L428.45,204.65L428.52,203L428.97,205.04L429.28,203.63L429.35,203.52L429.58,203.63L429.65,204.62L430.03,203.65L430.18,204.46L430.25,204.83L430.78,205.23L431.08,202.66L431.16,203.55L431.46,204.41L431.76,203.98L431.84,202.99L432.14,202.58L432.21,203.2L432.29,204.18L432.59,203.77L432.67,201.4L432.82,201.98L432.89,200.16L433.19,201.42L433.27,202.67L433.49,202.77L433.57,193.89L433.72,193.74L433.8,192.52L434.1,204.46L434.55,200.59L434.62,201.79L434.7,200.6L435.23,203.23L435.3,203L435.45,194.77L435.98,204.25L436.06,204.24L436.21,203.83L436.28,200.96L437.04,203.33L437.11,203.25L437.19,195.31L437.41,192.67L437.56,198.93L437.64,201.71L437.87,204.48L438.09,201.23L438.39,202.61L438.47,202.83L438.62,202.61L438.69,203.9L438.92,203.66L439,203.66L439.22,195.38L439.67,205.57L439.75,205.75L440.2,203.47L440.5,204.44L440.58,204.49L440.88,203.59L440.95,204.68L441.03,204.4L441.33,205.75L441.41,205.77L441.48,205.78L441.63,205.86L441.71,205.25L441.78,205.17L441.86,205.11L442.24,205.06L442.31,205.71L442.39,205.67L443.06,205.02L443.14,205.76L443.44,205.86L443.52,204.64L443.74,204.5L444.42,205.75L444.5,205.11L444.65,205L444.87,205.36L444.95,205.99L445.25,206.07L445.32,204.13L445.4,203.94L445.63,204.76L445.78,204.81L445.85,204.81L446.61,205.48L446.68,205.44L446.76,206L447.06,205.76L447.13,203.74L447.36,203.66L448.04,205.16L448.11,204.41L448.64,205.86L448.87,205.6L448.94,203.44L449.17,203.27L449.77,204.96L449.85,200.2L449.92,199.42L450.15,204.9L450.22,204.83L450.6,205.56L450.67,205.47L450.75,203.3L451.65,204.89L451.73,204.07L452.03,204.84L452.11,205.54L452.48,205.49L452.56,204.17L453.09,204.16L453.16,204.98L453.39,204.99L453.46,204.2L454.29,205.77L454.37,205.08L454.44,205.02L454.89,204.87L454.97,205.55L455.05,205.54L455.35,204.89L455.5,205.78L455.72,205.17L455.8,205.82L456.1,205.65L456.18,204.45L456.4,204.25L457.08,205.48L457.15,204.78L457.53,204.89L457.61,205.58L457.91,205.54L457.98,203.44L458.21,203.36L458.89,204.99L458.96,204.3L459.19,204.94L459.26,205.24L459.57,205.86L459.72,205.58L459.79,203.48L460.62,205.01L460.7,200.29L460.92,200.33L461,202.17L461.3,205.64L461.75,204.31L461.83,203.54L462.2,205.09L462.35,204.99L462.43,198.74L462.58,197.09L462.96,202.33L463.03,203.66L463.26,203.65L463.33,202.21L463.48,194.71L464.01,205.08L464.09,199.7L464.16,199.01L464.31,197.51L464.69,201.04L464.77,202.38L465.07,205.69L465.52,204.35L465.59,204.35L465.74,204.38L465.82,205.19L466.05,199.19L466.5,205.53L466.57,206.1L466.95,206.16L467.1,205.53L467.18,205.48L467.85,199.85L468.01,200.19L468.08,200.88L468.61,203.85L468.76,202.14L468.83,199.92L468.91,198.73L468.99,205.25L469.21,205.22L469.29,205.22L469.51,205.84L469.59,200.89L469.81,198.83L470.12,201.51L470.19,205.23L470.42,205.89L470.57,202.38L470.64,197.4L470.72,195.77L471.02,199.8L471.17,199.79L471.25,200.59L471.47,198.38L471.55,205.17L471.62,204.41L471.7,204.49L472.3,206.25L472.38,206.17L472.45,204.21L472.68,203.93L473.05,205.57L473.13,205.46L473.2,201.48L473.51,200.16L473.73,203.04L473.81,204.11L473.96,205.18L474.18,203.58L474.26,199.38L474.33,198.1L474.71,201.3L474.94,200.26L475.01,200.34L475.84,206.24L475.92,206.22L476.14,203.7L476.52,204.55L476.6,204.56L477.5,206.23L477.58,206.23L477.8,206.05L477.88,204.65L478.1,198.84L478.48,205.36L478.78,199.4L478.86,199.51L479.53,205.85L479.61,203.99L479.68,203.26L479.99,198.29L480.21,204.99L480.29,205.65L480.44,205.62L480.51,200.29L480.59,199.64L481.04,201.86L481.12,203.23L481.27,203.27L481.34,202.64L481.42,201.37L481.49,198.6L481.95,205.5L482.02,205.49L482.1,205.87L482.47,199.42L482.85,205.25L482.92,205.93L483.23,205.86L483.3,203.8L484.21,205.36L484.28,204.65L484.58,205.66L484.66,204.6L484.88,206.23L485.11,199.66L485.34,203.83L485.41,204.58L485.79,205.3L485.86,200.89L486.09,199.4L486.17,204.65L486.24,204.73L486.77,206.25L486.92,204.15L486.99,204.03L487.14,203.95L487.52,205.46L487.67,205.43L487.75,200.54L487.9,199.84L488.05,201.47L488.12,205.6L488.35,205.96L488.95,203.64L489.25,204.56L489.33,205.36L489.63,204.99L489.71,204.33L490.38,205.85L490.46,205.79L490.54,204.43L490.61,204.08L491.06,204.54L491.14,205.28L491.29,205.28L491.36,200.17L491.59,200.3L491.67,201.78L492.65,205.33L492.72,205.33L493.02,205.94L493.1,201.72L493.25,200.43L493.62,202.52L493.7,202.4L493.78,203.57L494.23,197.48L494.3,204.59L494.6,204.71L495.06,197.98L495.43,200.24L495.51,202.09L495.66,205.19L496.04,195.1L496.26,203.61L496.34,203.58L496.56,204.38L496.64,204.01L496.71,197.42L496.86,194.95L497.24,200.36L497.32,201.64L497.54,202.84L497.69,200.47L497.77,194.84L497.84,189.91L498.22,203.82L498.45,198.95L498.52,196.43L498.67,194.11L499.05,199L499.13,200.25L499.28,201.54L499.5,199.86L499.58,194.55L499.65,193.67L499.73,203.47L500.18,204.52L500.33,197.85L500.41,195.52L500.56,194.83L500.71,196.81L500.78,199.71L501.16,202.71L501.31,201.14L501.39,195.27L501.46,192.96L501.84,203.53L502.06,197.46L502.14,196.54L502.29,193.58L502.74,199.64L502.82,201.07L503.04,201.76L503.19,198.49L503.27,197.24L503.5,192.82L503.72,203.77L503.8,204.48L504.17,195.72L504.55,200.8L504.63,201.91L504.93,200.98L505,200.25L506.06,194.44L506.13,196.46L506.66,198.48L506.74,197.14L506.81,193.89L506.89,191.88L507.26,198.29L507.41,197.61L507.49,196.71L507.72,189.08L508.17,195.27L508.24,197.44L508.47,196.07L508.54,178.66L508.7,160.04L509.3,175.78L509.37,169.85L509.6,163.36L509.75,170.39L509.83,190.72L510.13,190.87L510.5,158.88L510.73,172.55L510.8,173.84L512.01,205.16L512.16,204.6L512.24,193.74L512.69,203.95L512.91,197.03L512.99,193.32L513.14,191.88L513.29,194.64L513.37,195.77L513.67,201.13L513.97,195.34L514.04,187.23L514.35,201.15L514.95,180.1L515.02,179.92L515.63,192.74L515.85,185.39L515.93,182.7L516.08,176.15L516.31,189.45L516.38,193.57L516.46,193.41L516.53,188.44L516.68,184.73L516.98,196.02L517.06,198.62L517.51,201.26L517.66,199.64L517.74,196.49L518.26,198.43L518.57,190.18L518.64,193.72L518.72,193.85L518.79,195.61L519.24,200.3L519.39,198.82L519.47,190.62L519.92,199.86L520.37,180.47L520.45,180.73L520.53,180.51L520.6,181.5L520.68,183.11L520.9,187.88L521.05,186.5L521.13,183.76L521.35,159.35L521.81,177.27L521.88,177.34L522.11,168.25L522.41,174.24L522.48,179.36L522.56,179.14L522.64,182.98L522.79,188.04L523.09,170.71L523.16,165.05L523.69,184.76L523.99,176.53L524.07,175.62L524.67,189.63L524.82,183.82L524.9,170.52L524.97,164.74L525.5,181.25L525.57,178.35L525.72,169.51L526.18,187.07L526.25,193.69L526.33,196.52L526.63,187.14L526.7,177.31L526.78,168.72L527.38,181.12L527.46,178.18L527.61,175.5L528.06,183.64L528.14,185.05L528.29,189.31L528.59,178.67L528.66,175.76L528.89,170.03L529.12,176.11L529.42,172.8L529.49,173.29L530.02,184.87L530.32,178L530.4,174.42L530.77,176.81L531.15,162.46L531.23,164.69L531.3,168.47L531.83,192.4L532.05,181.41L532.13,169.75L532.2,163.13L532.58,182.14L532.81,175.78L532.88,170.73L532.96,167.63L533.33,175.92L533.41,174.06L533.49,179.06L533.64,182.51L533.86,178.11L533.94,160.47L534.01,154.92L534.47,173.74L534.54,173.15L534.77,166.01L535.14,174.64L535.22,176.27L535.52,183.46L535.75,168.71L535.82,162.9L536.35,174.52L536.57,167.02L536.65,167.08L536.88,168.97L536.95,175.03L537.18,183.32L537.48,176.82L537.55,165.12L537.63,155.55L538.08,169.12L538.23,168.7L538.31,166.81L538.38,163.05L538.91,174.6L538.99,178.13L539.21,178.03L539.29,174.37L539.44,155.38L540.04,168.43L540.12,166.18L540.19,162.52L540.64,170.7L540.72,174.29L540.95,177.87L541.17,170.9L541.25,165.16L541.55,152.53L542.08,156.44L542.15,160.72L542.23,160.98L542.3,164.81L542.68,176.94L543.06,170.03L543.13,164.42L543.58,164.94L543.81,156.16L543.88,158.78L543.96,161.7L544.56,188.64L544.79,179.44L544.86,170.51L545.32,175.17L545.47,169.14L545.54,163.9L545.69,161.75L545.99,170.47L546.07,175.48L546.37,192.24L546.6,157.72L546.67,149.14L547.05,162.77L547.43,155.12L547.5,155.51L547.8,164.79L547.88,166.59L548.25,174.46L548.41,156.61L548.48,147.49L548.93,163.59L549.23,154.59L549.31,154.08L549.99,174.64L550.14,169.13L550.21,157.18L550.29,147.24L550.67,164.7L550.89,162.96L550.97,160.92L551.04,156.97L551.49,170.43L551.57,176.1L551.87,189.83L551.95,175.62L552.02,157.5L552.1,147.85L552.7,165.06L552.78,161.25L552.85,157.56L553.3,170.71L553.38,176.74L553.6,195.86L553.98,165.07L554.06,159.45L554.13,157.58L554.51,167.11L554.66,163.31L554.73,163.29L555.56,194.33L555.71,187.58L555.79,180.8L556.47,171.14L556.62,172.58L556.69,175.9L557.3,187.86L557.45,177.54L557.52,167.21L557.9,177.77L558.2,170.94L558.28,167.1L558.95,186.22L559.18,179.99L559.26,167.07L559.33,159.1L559.78,174.32L559.93,171.55L560.01,168.89L560.16,163.32L560.61,177.6L560.69,181.28L560.84,181.51L560.91,181.43L560.99,177.49L561.14,156.05L561.74,171.23L561.82,166.89L561.97,161.35L562.42,175.99L562.5,179.53L562.65,179.79L562.72,179.74L562.8,175.93L562.95,156.3L563.55,169.99L563.63,166.07L563.93,162.94L564.15,172.69L564.23,176.2L564.3,179.71L564.68,162.17L564.76,154.12L565.13,169.71L565.51,163.61L565.59,163.65L565.81,166.29L565.89,172.16L565.96,172.33L566.04,176.14L566.26,184.08L566.56,171.96L566.64,168.03L566.79,160.49L567.39,161.95L567.47,163.94L568.15,179.28L568.37,173.67L568.45,168.01L569.2,160.41L569.28,162.22L569.88,177.44L570.03,173.69L570.11,162.78L570.18,155.49L570.56,168.17L570.78,167.66L570.86,163.4L570.94,158.57L571.46,171.8L571.54,175.51L571.91,156.45L571.99,148.03L572.59,162.36L572.74,154.7L572.82,154.72L573.04,159.36L573.12,165.75L573.5,176.25L573.65,172.56L573.72,157.7L573.8,149.49L574.4,164.01L574.48,160.03L574.55,155.81L575,164.65L575.08,170.16L575.31,172.39L575.46,168.36L575.53,153.65L575.61,140.52L575.98,157.76L576.21,156.58L576.28,154.47L576.44,148.09L576.81,160.92L576.89,164.57L577.11,168.68L577.34,149.95L577.42,138.43L578.02,156.87L578.17,147.01L578.24,147.51L578.62,160.42L578.7,164.01L579,169.73L579.22,158.16L579.3,151.57L579.45,144.1L579.75,152.53L580.05,145.04L580.13,145.55L580.81,164.81L580.96,159.19L581.03,155.22L581.26,142.14L581.94,144.3L582.01,146.48L582.61,174.36L582.77,159.43L582.84,147.85L582.92,158.42L583.59,149.39L583.67,148.87L584.42,169.03L584.5,164.8L584.57,149.78L584.65,140.32L585.1,158.99L585.18,158.68L585.25,160.28L585.4,153.34L585.85,164.13L585.93,169.44L586.16,173.55L586.31,167.68L586.38,152.77L586.46,143.86L586.76,158.01L587.06,157.75L587.14,155.55L587.21,151.33L587.66,164.13L587.74,167.82L588.04,171.75L588.19,153.97L588.27,148.1L588.87,170.35L589.09,160.84L589.17,160.87L589.55,174.65L589.62,180.72L589.85,190.92L589.92,178.43L590,161.37L590.07,153.43L590.45,170.52L590.68,168.54L590.75,166.63L590.83,162.71L591.36,172.9L591.43,179.45L591.51,179.64L591.58,182.23L591.66,185.06L591.88,168.3L591.96,162.31L592.11,154.79L592.49,162.73L592.71,156.71L592.79,158.61L593.47,175.97L593.69,168.25L593.77,164.31L594.52,151.39L594.6,153.31L594.67,155.52L595.27,169.68L595.35,165.97L595.42,154.83L595.5,147.11L595.88,161.52L596.1,159.2L596.18,156.74L596.4,148.52L596.78,164.07L596.86,167.97L597.08,170.03L597.16,166.01L597.31,139.67L597.91,154.71L597.99,150.99L598.14,144.94L598.59,159.37L598.66,163.34L598.81,163.58L598.89,161.6L599.12,129.3L599.49,145.69L599.57,145.8L599.64,145.43L599.72,149.16L599.87,138.14L600.32,154.34L600.4,160.29L600.7,164.53L600.85,147.68L600.92,137.82L601.53,156.22L601.68,145.48L601.75,145.48L601.9,150.35L601.98,153.59L602.36,171.34L602.66,152.61L602.73,141.64L603.34,157.3L603.49,144.95L603.56,145.96L603.79,154.14L603.86,159.15L604.01,163L604.09,166.88L604.62,143.26L604.69,137.85L605.07,142.89L605.3,130.78L605.45,134.95L605.52,138.69L606.05,157.83L606.35,150.13L606.43,143.57L607.18,132L607.25,135.08L607.33,137.71L607.78,154.1L608.08,138.15L608.16,126.91L608.76,145.41L608.91,133.06L608.99,133.02L609.06,131.59L609.21,139.03L609.29,142.93L609.44,146.81L609.51,150.71L609.74,150.95L609.82,145.04L609.97,116.15L610.65,123.7L610.72,121.3L611.47,149.18L611.62,145.08L611.7,128.76L611.78,107.95L612.38,132.86L612.45,126.35L612.53,123.92L613.36,154.31L613.43,150.48L613.51,133.14L613.58,122.55L614.11,142.36L614.19,146.22L614.34,134.23L614.79,152.18L614.86,155.95L615.09,159.95L615.24,156.1L615.32,140.59L615.39,129.35L615.99,151.05L616.07,147.26L616.15,143.54L616.6,156.45L616.67,160.11L616.9,165.92L617.2,156.62L617.28,150.26L617.43,141.96L617.73,152.4L618.03,148.15L618.1,150.85L618.78,171.66L619.01,165.92L619.08,162.18L619.31,152.62L619.84,158.78L619.91,158.94L620.59,183.79L620.67,177.34L620.74,164.77L620.82,156.49L621.27,166.39L621.5,162.17L621.57,158.52L621.65,158.38L621.8,158.63L621.87,162.3L622.32,178.85L622.48,171.92L622.55,156.24L622.63,147.76L623.23,162.87L623.3,158.52L623.45,153.68L623.83,165.57L623.91,169.19L624.13,172.98L624.36,154.82L624.43,146.04L625.04,159.96L625.19,152.51L625.26,152.83L625.34,151.47L625.49,155.5L625.56,162.02L625.64,162.31L625.72,166.03L626.02,169.82L626.17,152.09L626.24,139.34L626.85,156.36L627,148.23L627.07,148.53L627.15,148.9L627.22,147.3L627.3,151.51L627.67,166.02L627.98,145.49L628.05,134.14L628.65,151.42L628.8,143.57L628.88,143.66L629.11,149.36L629.18,156.17L629.33,160.38L629.41,164.15L629.63,166.26L629.78,159.23L629.86,156.76L630.09,140.92L630.69,148.11L630.76,148.43L631.52,172.82L631.67,165.33L631.74,159.7L631.89,152.51L632.27,165.03L632.42,161.43L632.5,163.23L633.25,187.19L633.4,174.02L633.48,165.59L633.93,178.1L634.15,167.49L634.23,163.95L634.38,162.34L634.53,166.67L634.61,168.31L634.98,179.13L635.13,172.19L635.21,158.77L635.28,151.02L635.74,165.98L635.89,164.19L635.96,162.33L636.04,158.59L636.49,171.64L636.57,177.63L636.79,180.3L636.94,174.85L637.02,160.74L637.09,153.01L637.62,165.95L637.77,160.16L637.85,158.26L637.92,156.56L638.22,166.79L638.3,168.58L638.68,184.16L638.83,160.89L638.9,150.79L639.35,162.61L639.66,152.41L639.73,150.66L639.96,154.95L640.03,159.76L640.48,179.37L640.63,163.71L640.71,147.94L641.31,162.77L641.46,155.72L641.54,155.79L641.77,160.08L641.84,168.02L642.22,193.76L642.52,168.62L642.59,163.16L643.35,150.76L643.42,155.03L643.5,157.72L644.03,193.51L644.33,178.02L644.4,167.56L645.08,147.08L645.31,151.21L645.38,156.54L645.98,172.79L646.06,165.03L646.14,150.7L647.11,169.88L647.19,171.05L647.79,184.9L647.94,175.65L648.02,166.44L648.09,155.04L648.77,160L648.85,161.96L648.92,158.46L649.22,168.42L649.3,178L649.9,143.13L650.28,147.92L650.36,149.58L650.66,149.59L650.73,147.73L651.33,162.59L651.41,156.7L651.49,140.19L651.56,132.19L651.86,150.85L652.09,148.92L652.16,150.56L652.39,143.18L652.69,157.59L652.77,166.81L653.07,181.42L653.37,154.14L653.44,162.56L653.52,154.83L653.67,156.71L654.12,147.6L654.35,149.58L654.42,154.32L655.03,178.29L655.18,167.18L655.25,158.04L655.48,145.77L656.08,149.31L656.16,149.43L656.84,169.63L656.99,161.74L657.06,157.95L657.21,149.08L657.51,159.72L657.81,157.05L657.89,157.52L658.57,180.96L658.72,169.34L658.79,161.44L658.87,165.93L659.47,157.91L659.55,154.37L659.7,154.42L659.77,156.2L660,162.72" style="fill: rgb(54, 112, 97); fill-opacity: 0.5; stroke-width: 0;"/></g></g><g class="errorbars"/><g class="lines"><path class="js-line" d="M0,173.31L0.08,180.61L0.6,173.05L0.68,164.04L0.83,162.97L0.9,164.54L0.98,167.95L1.28,166.19L2.03,173.35L2.11,173.28L2.19,169.88L2.34,146.05L3.01,156.11L3.09,151.89L3.24,150.26L3.32,152.79L3.77,167.94L3.99,160.74L4.07,148.06L4.14,133.59L4.6,152.38L4.82,146.29L4.9,142.17L5.05,140.85L5.12,143.47L5.2,148.27L5.65,166.87L5.88,149.09L5.95,140.75L6.56,158.05L6.71,150.44L6.78,152.35L6.93,152.69L7.01,156.3L7.46,172.63L7.69,154.95L7.76,145.14L8.36,160.18L8.51,150.7L8.59,150.71L8.89,161.66L8.97,164.11L9.34,171.16L9.57,162.25L9.64,158.09L9.87,149.04L10.4,151.14L10.47,153.24L10.55,153.61L10.62,157.73L11.15,174.47L11.38,166.8L11.45,163.04L11.6,154.64L11.98,165.37L12.13,163.55L12.21,163.49L12.36,165.78L12.43,169.88L12.89,200.25L13.19,188.4L13.26,178.98L13.34,171.15L14.02,171.51L14.09,171.77L14.24,173.92L14.32,175.61L14.69,189.41L14.84,181.04L14.92,167.81L14.99,161.47L15.45,172.47L15.6,172.03L15.67,169.74L15.75,163.65L16.28,178.84L16.35,182.57L16.73,163.17L16.8,154.79L17.26,166.62L17.56,160.87L17.63,161.1L17.86,166.55L17.93,171.22L18.31,194.69L18.54,165.73L18.61,157.36L19.06,173.2L19.37,167.06L19.44,167.04L19.59,167.63L19.67,171.81L19.97,200.29L20.27,184.86L20.34,168.54L20.42,160.37L20.87,173.56L21.02,171.64L21.1,169.84L21.25,165.54L21.55,174.46L21.63,183.5L21.85,196.5L22.15,178.8L22.23,173.99L22.45,161.03L23.06,164.57L23.13,166.43L23.21,166.58L23.28,170.25L23.81,188.7L24.04,174.72L24.11,169.4L24.34,160.1L24.87,163.46L24.94,165.23L25.02,165.37L25.09,168.98L25.62,198.48L25.92,192.04L26,176.05L26.67,165.18L26.82,165.31L26.9,167.06L27.28,177.62L27.5,171.59L27.58,157.88L27.65,147.7L28.11,164.83L28.26,162.74L28.33,160.61L28.48,156.25L28.86,168.25L28.93,173.73L29.09,177.56L29.31,173.58L29.39,159.97L29.46,153.85L29.84,167.4L29.99,167.02L30.07,168.55L30.22,160.34L30.67,171.28L30.74,174.97L31.04,178.57L31.12,174.87L31.2,161.32L31.27,152.84L31.72,167.37L31.87,166.84L31.95,164.51L32.02,160.46L32.48,170.03L32.55,175.28L32.85,177.33L32.93,173.57L33,160.09L33.08,151L33.38,164.76L33.68,163.41L33.76,161.02L33.83,157.42L34.28,167.43L34.36,170.66L34.51,174.45L34.89,164.21L34.96,158.39L35.11,147.89L35.49,158.5L35.79,150.87L35.87,151.05L36.24,167.27L36.62,162.36L36.7,156.56L36.92,140.37L37.52,141.62L37.6,143.86L38.05,159.22L38.35,154.04L38.43,143.13L38.5,130.81L39.11,153.87L39.18,149.45L39.33,143.88L39.71,154.75L39.79,160.1L40.09,165.51L40.16,161.8L40.24,145.8L40.31,134.81L40.76,153.46L40.84,153.45L40.92,157.52L41.07,147.87L41.52,165.55L41.59,170.76L41.82,174.54L41.97,170.78L42.05,157.2L42.12,149.52L42.57,164.12L42.72,163.65L42.8,161.35L42.87,156.15L43.33,171.26L43.4,174.92L43.7,180.41L43.85,163.61L43.93,154.24L44.53,173.01L44.68,166.71L44.76,164.87L45.44,180.59L45.59,176.91L45.66,164.03L45.74,155.88L46.19,172.7L46.34,170.66L46.42,164.95L46.57,161.11L47.02,171.78L47.09,175.33L47.4,174.81L47.47,168.23L47.77,148.67L48.38,153.85L48.45,154.09L48.6,158.2L48.68,164.62L49.05,171.99L49.35,164.92L49.43,159.59L49.58,152.41L49.96,163.32L50.18,157.98L50.26,159.77L50.94,175.72L51.01,172.26L51.09,162.02L51.16,155.1L51.69,172.45L51.77,174.16L51.92,169L52.37,175.08L52.44,180.1L52.67,190.52L52.82,178.53L52.9,165.09L52.97,159.43L53.42,175.94L53.5,177.6L53.88,166.59L54.18,174.23L54.25,177.67L54.33,181.04L54.63,175.7L54.7,164.36L54.78,154.77L55.23,168.33L55.38,166.53L55.46,164.71L55.53,160.91L56.06,172.19L56.14,174.06L56.36,174.19L56.44,170.5L56.59,148.81L57.19,162.2L57.27,160.18L57.34,154.37L57.87,166.97L57.94,170.36L58.02,170.49L58.1,168.72L58.17,168.47L58.25,164.82L58.4,137.99L59,158.38L59.08,153.56L59.3,145.57L59.68,162.49L59.75,168.04L59.83,168.2L59.9,170.15L60.51,149.19L60.73,156.62L60.81,156.53L60.88,156.24L60.96,152.31L61.56,167.78L61.94,163.62L62.01,158.2L62.16,145.09L62.77,152.24L62.84,152.02L63.6,171.44L63.67,167.92L63.75,157.56L63.82,152.22L64.27,166.15L64.35,166.03L64.43,167.5L64.65,157.89L65.1,168.93L65.18,172.48L65.33,172.5L65.4,170.7L65.63,139.77L65.93,156.69L66.01,158.62L66.23,160.01L66.31,154.65L66.38,151.83L66.76,163.69L66.84,163.86L67.21,171.02L67.36,153.7L67.44,147.94L68.04,164.75L68.19,157.29L68.27,157.29L68.42,157.4L68.49,159.25L68.87,174.59L69.17,157.56L69.25,148.1L69.85,167.08L70.08,163.73L70.15,164.02L70.23,162.33L70.45,170.2L70.53,175.44L70.83,180.66L70.98,164.48L71.06,156.94L71.66,173.39L71.81,167.97L71.88,166.15L71.96,164.42L72.26,173.72L72.34,175.63L72.41,178.95L72.86,169.04L72.94,163.22L73.17,154.87L73.69,159.37L73.77,159.47L74.52,180.75L74.67,173.93L74.75,168.83L75.2,170.43L75.5,162.52L75.58,164.39L76.1,178.41L76.33,173.22L76.41,162.89L76.48,154.24L77.01,171.67L77.08,171.59L77.16,167.78L77.31,164.21L77.69,171.7L77.76,176.67L77.91,180.21L78.21,163.66L78.29,156.24L78.82,178.31L79.04,165.35L79.12,165.36L79.19,163.56L79.5,173.01L79.57,176.52L79.72,178.32L79.95,172.96L80.02,161.22L80.1,145.96L80.7,165.06L80.78,160.24L80.93,153.93L81.38,171.51L81.45,175.04L81.68,175.05L81.76,171.34L81.91,150.49L82.51,165.24L82.58,161.55L82.74,158.06L82.96,164.02L83.04,168.19L83.11,168.37L83.19,173.56L83.26,176.95L83.64,159.87L83.72,154.31L84.17,170.68L84.47,161.54L84.54,159.87L85,173.19L85.07,176.82L85.3,179.01L85.37,178.83L85.45,173.43L85.75,158.97L86.28,162.8L86.35,164.35L86.5,166.89L86.58,170.55L87.03,182.75L87.33,175.32L87.41,169.95L87.56,162.69L87.86,172.01L88.16,166.13L88.24,166.14L88.69,178.34L88.99,171.69L89.06,162.99L89.14,152.41L89.67,170.2L89.74,170.11L89.82,166.45L89.97,160.83L90.42,172.16L90.5,175.99L90.72,187.68L90.87,161.49L90.95,154.05L91.55,175.96L91.7,166.38L91.78,164.37L91.93,164.45L92,166.37L92.31,187.1L92.68,168.03L92.76,158.61L93.06,171.15L93.51,161.23L93.59,158.24L93.96,171.19L94.04,174.78L94.34,176.58L94.41,173.06L94.49,159.89L94.57,152.37L94.94,165.33L95.09,165.26L95.17,167.1L95.32,159.66L95.77,167.99L95.85,173.1L96.15,174.95L96.22,171.44L96.3,158.36L96.37,150.93L96.9,169.12L96.98,169.11L97.2,159.59L97.65,171.62L97.73,175.11L97.88,176.93L98.11,169.58L98.18,167.53L98.41,154.89L99.01,158.63L99.09,160.54L99.16,160.76L99.24,164.27L99.69,175.49L99.99,170.3L100.07,164.98L100.22,158.47L100.52,168.82L100.82,162.95L100.9,162.95L101.42,176.68L101.65,171.42L101.72,162.73L101.8,155.68L102.33,173.68L102.4,173.49L102.7,162L103.08,172.95L103.16,174.78L103.23,176.53L103.46,171.13L103.53,157.84L103.61,151.13L104.06,172.88L104.14,174.59L104.51,161.46L104.81,169.44L104.89,174.52L105.04,178.09L105.27,172.72L105.34,161.46L105.42,152.11L105.94,174.42L106.02,174.42L106.25,161.41L106.7,174.25L106.77,179.51L107.07,174.17L107.15,163.02L107.22,151.89L107.68,174.24L107.75,174.2L107.83,175.97L108.13,162.99L108.51,174.38L108.58,177.9L108.88,172.57L108.96,161.28L109.03,150.03L109.64,172.46L109.71,168.76L109.86,159.55L110.31,172.67L110.39,174.43L110.69,174.32L110.77,170.47L111.07,153.73L111.37,171L111.59,163.73L111.67,167.3L111.75,165.53L112.12,173.03L112.2,176.54L112.35,176.52L112.42,178.21L113.55,160.19L113.63,162.01L114.01,172.81L114.31,165.89L114.38,157.15L114.46,146.71L114.91,169.27L114.99,169.2L115.06,169.05L115.36,155.75L115.74,168.23L115.81,170.48L115.89,172.3L116.12,166.42L116.19,152.82L116.27,140.39L116.79,162.77L116.87,164.59L117.17,148.99L117.55,164.24L117.62,167.86L117.7,168.04L117.77,166.46L117.85,166.46L118.08,139.71L118.45,158.28L118.53,158.29L118.68,161.75L118.83,151.74L118.9,148.22L119.36,162L119.43,165.59L119.58,165.64L119.66,163.9L119.88,130.36L120.26,156.42L120.34,158.39L120.49,160.03L120.56,156.08L120.64,151.83L120.79,147.04L121.09,160.04L121.16,163.6L121.39,167.31L121.54,161.93L121.62,149.01L121.69,136.64L122.29,161.11L122.37,157.33L122.6,146.51L122.97,160.64L123.05,164.2L123.27,164.28L123.35,162.26L123.73,143.49L124.33,147.09L124.4,147.44L124.56,154.02L124.63,159.06L125.01,164.69L125.23,160.55L125.31,156.77L125.53,148.98L125.91,161.29L126.06,155.23L126.14,154.96L126.21,153.26L126.51,162.5L126.59,165.76L126.74,167.76L126.97,162.89L127.04,154.33L127.12,145.8L127.64,165.09L127.72,166.72L127.95,156.8L128.4,168.58L128.47,172.12L128.7,173.11L128.77,170.57L128.93,149.73L129.53,165.86L129.6,162.28L129.83,158.36L130.13,166.78L130.21,170.25L130.51,172.13L130.58,168.73L130.66,156.99L130.73,147.48L131.19,167.7L131.26,167.7L131.34,169.46L131.71,156.07L132.02,167.54L132.09,171.05L132.47,151.8L132.54,140.97L132.99,169.24L133.37,157.44L133.45,157.53L133.52,155.84L133.75,163.76L133.82,167.47L133.97,171.1L134.2,165.92L134.28,153.92L134.35,141L134.95,167.6L135.03,163.8L135.18,157.98L135.63,170.18L135.71,173.58L135.86,175.35L136.16,167.33L136.23,163.65L136.39,154.91L136.69,163.92L136.99,159.61L137.06,161.56L137.14,161.72L137.21,165.42L137.67,178.26L137.97,172.84L138.04,169.46L138.19,162.74L138.5,174.97L138.8,164.08L138.87,165.74L139.55,179.87L139.63,176.42L139.7,167.82L139.78,160.93L140.23,173.13L140.38,172.98L140.45,169.44L140.61,165.89L140.98,172.99L141.06,176.27L141.36,179.79L141.51,163.35L141.58,157.82L142.11,174.62L142.34,165.09L142.41,163.07L143.09,178.03L143.24,172.85L143.32,161.62L143.39,154.2L144,167.45L144.07,165.49L144.22,159.81L144.6,169.88L144.67,173.49L144.98,177.36L145.13,162.43L145.2,154.95L145.8,173.48L146.03,165.89L146.11,164.03L146.48,177.06L146.56,180.65L146.78,189L146.86,177.44L146.93,164.56L147.01,158.69L147.54,173.65L147.61,173.5L147.91,165.63L148.22,173.6L148.29,177.05L148.59,183.13L148.82,173.34L148.89,169.76L149.12,162.89L149.35,170.05L149.65,165.99L149.72,165.86L150.4,198.88L150.48,198L150.55,182.47L150.93,161.94L151.53,165.17L151.61,165.3L152.21,175.55L152.28,172.27L152.36,162.03L152.44,153.38L152.96,168.92L153.04,168.66L153.11,165.02L153.34,157.42L153.72,166.4L153.79,169.93L153.87,170.06L153.94,168.32L154.02,167.97L154.09,164.25L154.24,145.15L154.7,164.81L154.77,163.05L154.85,166.45L155.15,154.44L155.52,166.62L155.6,169.92L155.98,149.15L156.05,143.63L156.65,165.52L156.81,156.37L156.88,153.25L157.41,173.08L157.71,169.07L157.79,156.02L157.86,147.96L158.31,165.35L158.39,165.33L158.46,167.09L158.69,153.83L159.07,166.42L159.14,170.03L159.37,171.91L159.52,168.12L159.59,153.56L159.67,143.64L160.05,162.61L160.2,162.58L160.27,164.36L160.57,155.7L160.87,164.78L160.95,170.1L161.33,174.59L161.48,165.97L161.55,160.36L161.7,155.68L162,167.42L162.31,159.64L162.38,159.77L162.91,175.09L163.29,171.18L163.36,165.7L163.51,160.34L163.81,169.53L164.19,162.03L164.27,162.07L164.72,174.93L165.02,162.13L165.09,158.46L165.7,174.97L165.85,167.22L165.92,161.37L166.07,161L166.15,164.85L166.6,174.46L166.75,171.4L166.83,158.15L166.9,148.07L167.35,171.42L167.43,171.19L167.51,171.03L167.88,157.49L168.18,172.4L168.26,176.07L168.56,171.99L168.64,157.62L168.71,151.46L169.16,176.41L169.24,176.37L169.62,161.78L169.92,170.43L169.99,174.17L170.14,177.89L170.44,160.8L170.52,157.79L171.05,176.26L171.27,168.35L171.35,164.48L172.03,179.65L172.18,175.8L172.25,164.11L172.33,154.2L172.7,166.67L173.01,162.41L173.08,160.38L173.16,158.4L173.53,167.11L173.61,170.83L173.68,174.49L174.14,166.5L174.21,162.73L174.36,157.02L174.74,170.64L174.97,160.44L175.04,160.39L175.79,177.85L175.94,174.09L176.02,170.34L176.17,165.02L176.47,178.38L176.77,168.53L176.85,168.51L177.53,183.49L177.6,179.78L177.68,172.32L177.75,166.69L178.21,183.85L178.28,183.54L178.36,180.64L178.66,170.46L178.96,176.44L179.03,182.3L179.26,184.4L179.41,180.61L179.49,169.63L179.56,162.26L179.94,193.16L180.01,195.68L180.24,185.99L180.32,170.05L180.39,168.09L180.62,171.9L180.69,183.04L180.99,199.38L181.29,166.7L181.37,158.96L181.9,175.52L182.12,168.76L182.2,166.53L182.35,166.28L182.42,168.37L182.95,187.62L183.25,176.32L183.33,174.43L183.48,174.62L183.56,178.59L183.71,182.47L184.08,174.3L184.16,174.31L184.69,189.68L184.99,180.26L185.06,180.39L185.14,174.9L185.51,182.7L185.82,178.35L185.89,178.29L186.42,185.46L186.64,185.39L186.72,180.25L187.62,162.67L187.77,164.61L187.85,168.56L188.38,183.65L188.68,174.48L188.75,167.27L190.11,185.51L190.19,185.49L190.26,185.49L190.71,174.4L191.17,178.03L191.24,178.01L191.39,176.11L191.77,181.77L191.84,181.79L191.99,181.67L192.07,179.45L192.22,164.48L192.67,196.02L192.75,197.98L193.12,172.53L193.58,187.39L193.65,187.39L194.03,168.87L194.1,195.73L194.56,198.1L194.78,180.47L194.86,176.52L195.08,176.5L195.16,180.09L195.39,189.24L195.69,185.32L195.76,176.14L195.84,171.69L196.14,196.24L196.21,196.25L196.36,198.14L196.59,197.98L196.67,176.39L197.27,191.15L197.5,189.12L197.57,178.27L198.17,198.05L198.4,197.91L198.47,180.34L198.55,178.27L198.93,187.48L199,189.33L199.08,187.46L199.3,192.75L199.45,187.8L199.53,195.9L199.91,196.31L199.98,198.18L200.21,197.92L200.28,178.35L200.43,178.31L200.51,182.24L201.56,199.63L201.94,198.51L202.02,181.86L202.24,179.86L202.32,183.63L202.69,193.04L202.92,189.39L203,180.16L203.52,188.55L203.82,170.6L203.9,170.28L204.05,170.27L204.13,172.14L204.58,182.43L204.73,175.93L204.8,163.87L204.88,153.39L205.48,169.09L205.56,166.74L205.86,160.41L206.16,174.63L206.24,176.51L206.39,176.58L206.46,176.42L206.54,172.5L206.69,151.01L207.29,167.54L207.37,165.46L207.67,160.88L207.97,172.87L208.04,176.5L208.27,176.29L208.35,172.4L208.5,152.58L209.1,170.78L209.17,168.71L209.48,160.65L209.78,172.58L209.85,176.36L210.08,176.19L210.15,173.74L210.3,157.29L210.83,176.78L210.91,176.78L211.21,162.35L211.59,174.68L211.66,178.41L211.81,178.33L211.89,180.03L211.96,181.52L212.11,175.7L212.19,169.94L212.34,164.46L212.64,174.85L212.94,167.99L213.02,167.79L213.09,165.84L213.32,176.02L213.39,176L213.47,177.93L213.7,181.73L214,174.19L214.07,168.76L214.15,167.23L214.45,175.34L214.52,175.1L214.6,174.76L214.68,170.95L214.9,168.56L215.2,176.56L215.28,180.25L215.5,180.3L215.58,178.47L215.73,166.09L215.88,186.42L216.26,180.61L216.33,180.64L216.71,169.89L216.94,175.96L217.01,182.38L217.24,188.18L217.61,175.53L217.69,166.28L218.14,177.53L218.44,170.6L218.52,168.5L218.89,179.14L219.2,176.58L219.27,162.29L219.35,159.93L219.42,170.43L219.5,194.4L219.57,196.45L219.65,175L219.87,181.33L220.25,168.63L220.33,170.05L220.55,174.76L220.63,180.48L220.78,184.29L221.08,170.06L221.16,168.39L221.68,181.58L221.91,172.93L221.98,170.6L222.06,170.78L222.13,168.67L222.51,184.37L222.81,180.24L222.89,168.18L222.96,162.52L223.42,178.3L223.49,178.02L223.57,177.62L223.87,166.51L224.17,175.54L224.24,179.33L224.55,182.71L224.7,178.89L224.77,179.06L224.85,175.36L225,167.98L225.3,179.57L225.6,173.77L225.68,173.8L225.75,171.75L226.05,179.43L226.13,182.89L226.43,186.46L226.81,172.23L226.96,178.64L227.03,182.24L227.11,183.29L227.33,177.16L227.41,175.25L227.56,171.46L227.86,179.17L227.94,182.82L228.09,182.82L228.16,184.6L228.39,170.33L228.46,179.59L228.54,195.8L228.92,201.38L228.99,185.45L229.29,176.97L229.37,173.29L229.82,186.5L230.05,184.31L230.12,172.68L230.2,170.92L230.27,196.57L230.72,198.72L230.95,179.22L231.03,175.3L231.18,175.29L231.55,191.96L231.86,189.9L231.93,179.22L232.01,175.34L232.31,196.91L232.38,196.96L232.53,198.7L232.68,198.58L232.76,181.18L232.99,179.23L233.21,185L233.29,188.65L233.66,199.19L234.19,196.74L234.27,196.73L234.34,198.64L234.72,196.65L234.79,181.22L235.32,199.15L235.92,196.56L236,196.63L236.15,198.62L236.23,187.06L236.53,179.41L236.83,184.66L236.9,188.29L237.28,199.16L237.81,196.9L237.88,196.94L238.34,196.75L238.71,199.23L238.79,199.25L239.09,199.2L239.16,197.37L239.39,197.5L239.47,199.97L239.77,204.55L240.07,197.35L240.14,188.3L241.58,204.98L241.65,200.05L241.95,197.35L242.03,188.29L242.4,199.35L242.71,199.16L242.78,194.69L243.46,198.75L243.69,198.65L243.76,196.72L243.91,187.2L244.29,199.37L244.44,199.29L244.51,199.21L244.66,179.68L245.19,203.4L245.27,200.59L245.57,181L245.72,190.27L245.8,196.47L245.87,188.9L246.02,199.71L246.47,190.24L246.55,201.33L246.7,190.92L247,206.47L247.15,202.64L247.23,185.66L247.45,179.64L247.83,188.4L247.91,188.4L248.06,188.41L248.13,186.56L248.28,173.65L248.73,200.36L248.81,199.36L249.04,198.62L249.11,179.41L249.26,177.49L249.41,182.95L249.49,182.8L249.56,186.49L250.54,197.12L250.62,198.82L250.77,198.64L250.84,181.16L250.99,179.24L251.15,183.13L251.22,186.43L252.43,205.16L252.5,205.02L252.58,202.2L252.8,186.52L253.18,196.79L253.25,199.11L254.23,205.43L254.39,204.66L254.46,199.88L254.91,193.88L254.99,197.48L255.06,199.27L255.36,199.27L255.44,194.88L255.52,194.73L255.59,196.75L255.67,194.87L256.04,198.79L256.19,198.76L256.27,198.75L256.42,196.83L256.95,199.36L257.02,199.36L257.17,199.28L257.25,194.96L257.85,204.23L257.93,198.56L258,188.66L258.38,183.66L258.6,193.98L258.68,197.53L258.83,197.51L258.91,202.87L259.13,198.6L259.58,202.53L259.66,204.45L260.26,190.39L260.56,196.94L260.64,198.76L260.94,195L261.24,199.93L261.32,202.33L261.47,203.99L261.62,200.59L261.69,184.24L261.92,180.09L262.15,186.99L262.22,190.53L263.28,204.56L263.35,202.43L263.43,199.65L263.5,199L263.58,183.92L263.65,182.1L264.03,191.09L264.11,192.87L264.26,192.93L264.33,194.96L264.41,195.25L264.48,193.38L264.56,197.98L264.71,202.02L264.78,204.36L265.09,205.06L265.16,203.83L265.24,188.47L265.31,182.25L265.91,195.57L265.99,195.61L266.14,195.87L266.22,200.3L266.29,196.86L266.59,205.51L266.82,205.5L266.89,205.55L267.27,183.17L267.65,191.65L267.72,193.67L267.8,194.25L268.02,190.48L268.1,180.16L268.78,204.5L268.93,201.19L269,199.17L269.08,181.78L269.68,196.37L269.76,199.78L269.91,194.74L270.36,197.08L270.43,197.18L270.81,198.87L270.89,197.27L270.96,186.79L272.32,204.47L272.39,201.38L272.85,189.75L273.15,200.01L273.22,201.67L273.75,195.17L273.9,199.08L273.98,202.83L274.05,203.62L274.35,198.88L274.43,198.88L274.58,181.97L275.18,194.23L275.26,194.11L275.41,189.58L275.86,199.43L275.94,199.68L276.09,199.19L276.16,199.21L276.24,184.2L276.31,182.54L276.61,189.33L276.69,192.94L277.67,206.33L277.74,206.99L278.2,189.57L278.5,194.93L278.57,204.95L279.03,200.33L279.18,205.95L279.33,203.69L279.4,205.36L279.55,206.93L279.78,203.29L279.85,201.58L280.08,203.23L280.16,194.86L280.68,200.27L280.91,197.85L280.98,196.11L281.66,199.71L281.81,198.02L281.89,191.27L282.19,200.37L282.64,196.2L282.72,197.92L282.79,196.19L283.32,199.71L283.4,199.72L283.85,197.93L284.07,199.9L284.15,199.85L284.3,199.46L284.37,194.88L285.13,199.55L285.28,199.48L285.35,197.53L285.51,197.32L285.58,198.22L285.66,197.71L285.73,199.52L286.11,199.54L286.18,195.18L287.09,199.02L287.16,197.09L287.46,197.92L287.54,199.81L287.77,200.01L287.92,199.54L287.99,197.06L288.52,197.26L288.59,199.11L288.97,197.06L289.05,198.93L289.2,195.98L289.42,199.43L289.8,197.65L289.88,197.65L290.03,200.84L290.1,203.09L290.4,204.21L290.55,200.66L290.63,199.43L291.01,194.11L291.23,201.73L291.31,201.96L291.61,197.66L291.91,204.76L291.99,204.92L292.21,205.62L292.29,205.22L292.36,200.57L292.81,192.28L292.96,197.66L293.04,201.2L293.49,195.04L293.94,197.02L294.02,198.87L294.32,198.9L294.4,197.02L294.77,197.63L294.85,199.41L295.15,199.39L295.23,195.08L295.45,195.05L295.83,198.91L296.13,198.87L296.21,196.99L296.58,197.55L296.66,199.35L296.96,199.33L297.03,195.05L297.94,198.81L298.01,196.94L298.39,197.5L298.47,199.3L298.77,199.26L298.84,194.88L299.67,198.74L299.75,198.73L299.82,196.8L300.12,197.45L300.2,199.26L300.58,199.25L300.65,196.78L301.18,196.8L301.25,198.71L301.48,198.73L301.55,196.83L302.38,199.25L302.46,197.44L302.84,197.65L302.91,198.81L302.99,199.89L303.44,197.4L303.66,199.22L303.74,197.43L304.12,199.26L304.27,195.63L304.42,197.47L304.49,195.82L304.8,201.6L305.25,197.42L305.32,197.43L305.62,197.43L305.7,199.25L306,199.23L306.08,194.81L306.3,194.7L306.98,198.69L307.06,196.78L307.43,197.45L307.51,199.26L307.81,199.24L307.88,194.94L308.71,198.76L308.79,198.75L308.86,196.85L309.54,199.28L309.62,199.24L309.69,194.91L310.6,198.73L310.67,196.82L311.35,199.33L311.43,199.27L311.5,194.94L311.73,194.92L312.41,198.75L312.48,196.84L312.71,197.46L312.78,197.62L313.08,199.43L313.46,196.89L313.54,196.89L313.84,196.89L313.91,198.8L314.14,198.81L314.21,196.92L314.97,200.58L315.04,200.5L315.12,198.62L315.27,197.66L315.34,197.87L315.42,201.54L315.65,204.56L315.95,199.49L316.02,197.81L316.1,197.94L316.17,199.74L316.32,199.77L316.4,198.75L316.7,200.83L316.85,199.93L316.93,196.28L317,196.53L317.08,200.75L317.53,204.67L317.76,199.4L317.83,199.41L318.21,197.59L318.58,199.37L318.66,199.28L318.96,194.9L319.41,198.87L319.49,198.85L319.64,198.86L319.71,196.98L320.09,197.63L320.17,199.42L320.47,199.39L320.54,195.1L320.77,194.97L321.45,198.83L321.52,196.87L321.9,197.52L321.98,199.32L322.28,199.36L322.35,195.03L322.43,194.87L322.5,196.71L322.58,194.64L323.11,198.82L323.18,198.84L323.41,196.93L323.78,199.32L323.86,199.32L323.93,199.32L324.39,194.94L324.69,196.7L324.76,198.79L325.06,198.8L325.14,196.9L325.44,197.55L325.52,199.34L325.89,199.37L325.97,197L326.5,196.95L326.57,198.84L326.8,198.83L326.87,196.95L327.63,200.74L327.7,200.68L327.78,198.75L327.85,198.21L328.08,202.23L328.15,203.18L328.38,205.73L328.61,199.98L328.68,198.18L329.51,205.83L329.89,205.5L329.96,205.45L330.19,206.3L330.49,205.34L330.57,201.87L331.17,204.86L331.47,195.99L331.54,197.94L332,204.35L332.3,199.78L332.37,197.64L332.67,198.27L332.75,198.7L332.98,200.49L333.2,195.73L333.35,197.64L333.43,196.77L333.5,201.84L334.18,197.63L334.26,197.63L334.86,200.82L334.94,200.5L335.01,196.29L335.24,195.77L335.31,198.84L335.39,199.27L335.69,201.52L335.76,200.7L335.84,199.6L335.99,197.64L336.37,199.92L336.44,201.82L336.52,202.22L336.74,200.46L336.82,195.77L337.5,200.27L337.72,199.5L337.8,197.63L337.95,188.33L338.33,200.99L338.48,200.54L338.55,200.04L339,197.6L339.31,199.5L339.38,199.5L339.53,197.6L339.98,200.8L340.06,201.14L340.29,201.59L340.36,201.17L340.44,198.9L340.66,198.65L340.74,199.21L340.81,201.01L340.96,202.57L341.34,198.26L341.49,200.25L341.57,200.37L342.02,200.97L342.47,196.63L342.55,199.22L342.7,200.91L343.15,200.05L343.22,198.28L343.6,198.67L343.68,200.48L343.98,200.05L344.05,195.8L344.28,195.78L344.96,199.54L345.03,197.67L345.41,199.23L345.48,200.91L345.79,200.41L345.86,195.95L346.09,195.81L346.46,199.71L346.77,199.54L346.84,197.87L347.44,201.94L347.59,201.27L347.67,197.11L347.82,198.42L347.9,196.59L347.97,198.76L348.27,202.65L348.65,198.9L348.72,198.95L349.18,202.11L349.4,201.91L349.48,197.99L349.7,197.45L349.93,199.3L350.01,199.3L350.08,200.88L350.16,201.04L350.31,200.76L350.38,200.76L350.46,199.17L350.76,200.94L350.83,202.34L351.66,199.54L351.81,199.74L351.89,201.33L352.27,199.53L352.34,201.21L352.57,201.01L353.7,205.83L353.77,205.66L353.85,203.86L354,201.18L354.3,204.3L354.45,203.81L354.53,205.58L354.9,204.72L355.2,207.53L355.28,208.79L355.43,210.81L355.73,204.88L355.81,203.38L356.11,204.5L356.18,202.22L356.26,202.68L356.34,204.8L356.56,205.05L356.64,203.05L356.79,199.52L357.31,204.96L357.39,204.73L357.77,201.19L358.07,202.96L358.14,203.99L358.37,204.37L358.45,204.13L358.52,201.24L358.75,201.18L359.2,203.34L359.42,202.97L359.5,202.05L359.95,204.22L360.25,203.93L360.33,201.31L360.55,201.09L361.23,203.35L361.31,202.33L361.46,196.97L361.99,204.34L362.06,204.36L362.36,201.75L362.82,203.81L362.89,203.82L362.97,196.75L363.04,203.84L363.64,202.88L363.72,203.75L363.87,204.61L364.1,203.13L364.32,203.13L364.4,203.13L364.77,204.1L364.85,203.15L364.93,197.4L365.68,204.6L365.9,203.73L365.98,203.68L366.13,195.64L366.58,204.52L366.81,197.64L366.88,199.4L367.04,198.89L367.11,199.95L367.19,201.98L367.49,205.35L368.01,204.76L368.09,204.31L368.17,205.36L368.54,203.07L368.62,203.07L368.69,198.22L368.99,203.8L369.52,201.47L369.6,200.17L370.05,196.78L370.12,202.88L370.2,194.53L370.35,194.97L370.43,202.06L370.95,203.82L371.1,203.35L371.18,200.26L371.78,203.05L372.08,202.7L372.16,201.44L372.54,202.29L372.61,203.48L372.91,203.13L372.99,200.16L373.21,200.06L373.89,202.59L373.97,193.74L374.49,203.09L374.8,199.97L374.87,199.95L375.02,199.79L375.63,202.51L375.7,202.5L375.78,201.15L375.93,194.74L376.23,203.01L376.45,202.92L376.53,203.02L376.98,201.25L377.28,202.55L377.36,202.51L377.58,201.14L377.81,203.17L377.89,202.65L377.96,203.95L378.34,204.81L378.41,203.52L378.49,203.08L378.87,202.54L378.94,203.16L379.02,203.98L379.32,201.93L379.77,202.43L379.84,203.53L380.15,203.39L380.22,201.09L380.82,205.82L381.05,203.25L381.13,202.76L381.2,201.54L381.8,203.17L381.88,202.86L382.26,199.22L382.63,202.08L382.71,202.06L382.93,202.03L383.01,200.7L383.61,203.51L383.76,203.19L383.84,199.69L384.06,199.48L384.22,200.9L384.29,200.99L384.52,202.35L385.12,201.78L385.19,201.88L385.42,203.09L385.65,200.01L385.8,201.29L385.87,200L386.25,203.3L386.7,201.33L386.78,201.31L387.08,205.53L387.38,203.34L387.46,200.93L387.68,200.14L387.91,202.21L387.98,202.63L388.43,201.28L388.81,203.84L388.89,203.94L389.11,204.35L389.19,204.05L389.26,202.28L389.49,201.79L389.79,202.32L389.87,203.46L390.17,201.87L390.24,202.01L390.32,203.39L390.54,202.62L390.92,204.3L391,204.26L391.07,203.55L391.6,203.2L391.67,204.22L391.83,204.17L391.9,198.38L392.13,198.47L392.2,200.42L392.81,204.47L393.03,203.43L393.11,202.26L393.48,205.02L393.86,202.79L393.94,202.8L394.31,203.9L394.39,205.21L394.54,205.85L394.61,204.01L394.69,201.72L394.76,201.37L394.91,202.6L394.99,204.53L395.52,205.29L395.59,204.93L395.67,204.49L396.05,205.79L396.12,206.33L396.42,205.95L396.5,203.93L397.1,205.84L397.4,205.45L397.48,204.81L397.85,205.35L397.93,205.95L398.23,205.86L398.31,203.92L398.53,203.75L398.68,204.54L398.83,204.35L398.91,205.15L399.13,203.94L399.21,196.44L399.36,195.44L399.44,197L399.51,203.64L399.59,199.74L399.81,205.35L400.26,202.02L400.34,200.9L400.72,203.77L401.24,203.07L401.32,204.13L401.62,204.87L402.15,201.99L402.3,202.46L402.37,202.62L402.53,203.61L402.83,202.01L402.9,197.04L403.58,205.38L403.73,204.33L403.81,204.04L404.11,203.48L404.26,204.56L404.33,205.2L404.64,203.2L405.09,204.03L405.16,204.84L405.46,204.86L405.54,202.86L405.77,202.52L405.92,204.56L405.99,205.12L406.14,205.2L406.22,204.21L406.52,203.1L406.9,203.57L406.97,204.5L407.27,204.11L407.35,200.78L407.42,199.91L407.88,202.07L407.95,203.29L408.33,201.82L408.48,202.54L408.55,203.36L408.7,203.41L408.78,204.44L409.08,204.03L409.16,200.87L409.23,200.42L409.61,202.02L409.68,202.01L409.76,203.15L410.14,202.01L410.29,202.47L410.36,203.23L410.81,204.69L410.89,204.4L410.96,201.64L411.19,201.37L411.27,202.51L411.34,202.56L411.49,202.57L411.57,203.65L411.87,203.63L411.94,202.23L412.55,205.38L412.7,204.69L412.77,201.73L412.92,202.47L413,201.33L413.3,202.5L413.38,203.57L413.75,201.65L414.05,203.16L414.13,204.17L414.36,204.28L414.51,204.07L414.58,201.59L414.73,200.85L415.11,201.73L415.18,203.22L415.49,202.49L416.24,204.89L416.31,204.66L416.39,203.59L416.69,203.19L416.92,203.83L416.99,204.22L417.29,203.25L417.37,203.36L417.44,204.38L417.6,204.5L417.67,203.59L418.05,204.62L418.2,202.75L418.27,202.43L418.42,202.05L418.8,204.01L419.1,203.92L419.18,202.89L419.55,203.38L419.63,204.32L419.93,204.07L420.01,201.06L420.23,201.02L420.91,203.38L420.99,202.28L421.36,203.14L421.44,204.18L421.74,203.99L421.82,201.22L422.04,201.03L422.72,203.41L422.79,202.31L423.17,203.01L423.25,204.01L423.55,204.04L423.62,201.17L423.85,201.13L424.53,203.52L424.6,202.44L424.75,202.45L424.83,203.4L425.13,204.09L425.51,200.99L425.73,202.13L425.81,202.13L425.96,202.14L426.03,203.43L426.34,203.57L426.41,202.44L426.56,202.48L426.64,203.43L427.09,205.25L427.39,202.13L427.47,202.34L427.54,202.75L428.45,204.65L428.52,203L428.97,205.04L429.28,203.63L429.35,203.52L429.58,203.63L429.65,204.62L430.03,203.65L430.18,204.46L430.25,204.83L430.78,205.23L431.08,202.66L431.16,203.55L431.46,204.41L431.76,203.98L431.84,202.99L432.14,202.58L432.21,203.2L432.29,204.18L432.59,203.77L432.67,201.4L432.82,201.98L432.89,200.16L433.19,201.42L433.27,202.67L433.49,202.77L433.57,193.89L433.72,193.74L433.8,192.52L434.1,204.46L434.55,200.59L434.62,201.79L434.7,200.6L435.23,203.23L435.3,203L435.45,194.77L435.98,204.25L436.06,204.24L436.21,203.83L436.28,200.96L437.04,203.33L437.11,203.25L437.19,195.31L437.41,192.67L437.56,198.93L437.64,201.71L437.87,204.48L438.09,201.23L438.39,202.61L438.47,202.83L438.62,202.61L438.69,203.9L438.92,203.66L439,203.66L439.22,195.38L439.67,205.57L439.75,205.75L440.2,203.47L440.5,204.44L440.58,204.49L440.88,203.59L440.95,204.68L441.03,204.4L441.33,205.75L441.41,205.77L441.48,205.78L441.63,205.86L441.71,205.25L441.78,205.17L441.86,205.11L442.24,205.06L442.31,205.71L442.39,205.67L443.06,205.02L443.14,205.76L443.44,205.86L443.52,204.64L443.74,204.5L444.42,205.75L444.5,205.11L444.65,205L444.87,205.36L444.95,205.99L445.25,206.07L445.32,204.13L445.4,203.94L445.63,204.76L445.78,204.81L445.85,204.81L446.61,205.48L446.68,205.44L446.76,206L447.06,205.76L447.13,203.74L447.36,203.66L448.04,205.16L448.11,204.41L448.64,205.86L448.87,205.6L448.94,203.44L449.17,203.27L449.77,204.96L449.85,200.2L449.92,199.42L450.15,204.9L450.22,204.83L450.6,205.56L450.67,205.47L450.75,203.3L451.65,204.89L451.73,204.07L452.03,204.84L452.11,205.54L452.48,205.49L452.56,204.17L453.09,204.16L453.16,204.98L453.39,204.99L453.46,204.2L454.29,205.77L454.37,205.08L454.44,205.02L454.89,204.87L454.97,205.55L455.05,205.54L455.35,204.89L455.5,205.78L455.72,205.17L455.8,205.82L456.1,205.65L456.18,204.45L456.4,204.25L457.08,205.48L457.15,204.78L457.53,204.89L457.61,205.58L457.91,205.54L457.98,203.44L458.21,203.36L458.89,204.99L458.96,204.3L459.19,204.94L459.26,205.24L459.57,205.86L459.72,205.58L459.79,203.48L460.62,205.01L460.7,200.29L460.92,200.33L461,202.17L461.3,205.64L461.75,204.31L461.83,203.54L462.2,205.09L462.35,204.99L462.43,198.74L462.58,197.09L462.96,202.33L463.03,203.66L463.26,203.65L463.33,202.21L463.48,194.71L464.01,205.08L464.09,199.7L464.16,199.01L464.31,197.51L464.69,201.04L464.77,202.38L465.07,205.69L465.52,204.35L465.59,204.35L465.74,204.38L465.82,205.19L466.05,199.19L466.5,205.53L466.57,206.1L466.95,206.16L467.1,205.53L467.18,205.48L467.85,199.85L468.01,200.19L468.08,200.88L468.61,203.85L468.76,202.14L468.83,199.92L468.91,198.73L468.99,205.25L469.21,205.22L469.29,205.22L469.51,205.84L469.59,200.89L469.81,198.83L470.12,201.51L470.19,205.23L470.42,205.89L470.57,202.38L470.64,197.4L470.72,195.77L471.02,199.8L471.17,199.79L471.25,200.59L471.47,198.38L471.55,205.17L471.62,204.41L471.7,204.49L472.3,206.25L472.38,206.17L472.45,204.21L472.68,203.93L473.05,205.57L473.13,205.46L473.2,201.48L473.51,200.16L473.73,203.04L473.81,204.11L473.96,205.18L474.18,203.58L474.26,199.38L474.33,198.1L474.71,201.3L474.94,200.26L475.01,200.34L475.84,206.24L475.92,206.22L476.14,203.7L476.52,204.55L476.6,204.56L477.5,206.23L477.58,206.23L477.8,206.05L477.88,204.65L478.1,198.84L478.48,205.36L478.78,199.4L478.86,199.51L479.53,205.85L479.61,203.99L479.68,203.26L479.99,198.29L480.21,204.99L480.29,205.65L480.44,205.62L480.51,200.29L480.59,199.64L481.04,201.86L481.12,203.23L481.27,203.27L481.34,202.64L481.42,201.37L481.49,198.6L481.95,205.5L482.02,205.49L482.1,205.87L482.47,199.42L482.85,205.25L482.92,205.93L483.23,205.86L483.3,203.8L484.21,205.36L484.28,204.65L484.58,205.66L484.66,204.6L484.88,206.23L485.11,199.66L485.34,203.83L485.41,204.58L485.79,205.3L485.86,200.89L486.09,199.4L486.17,204.65L486.24,204.73L486.77,206.25L486.92,204.15L486.99,204.03L487.14,203.95L487.52,205.46L487.67,205.43L487.75,200.54L487.9,199.84L488.05,201.47L488.12,205.6L488.35,205.96L488.95,203.64L489.25,204.56L489.33,205.36L489.63,204.99L489.71,204.33L490.38,205.85L490.46,205.79L490.54,204.43L490.61,204.08L491.06,204.54L491.14,205.28L491.29,205.28L491.36,200.17L491.59,200.3L491.67,201.78L492.65,205.33L492.72,205.33L493.02,205.94L493.1,201.72L493.25,200.43L493.62,202.52L493.7,202.4L493.78,203.57L494.23,197.48L494.3,204.59L494.6,204.71L495.06,197.98L495.43,200.24L495.51,202.09L495.66,205.19L496.04,195.1L496.26,203.61L496.34,203.58L496.56,204.38L496.64,204.01L496.71,197.42L496.86,194.95L497.24,200.36L497.32,201.64L497.54,202.84L497.69,200.47L497.77,194.84L497.84,189.91L498.22,203.82L498.45,198.95L498.52,196.43L498.67,194.11L499.05,199L499.13,200.25L499.28,201.54L499.5,199.86L499.58,194.55L499.65,193.67L499.73,203.47L500.18,204.52L500.33,197.85L500.41,195.52L500.56,194.83L500.71,196.81L500.78,199.71L501.16,202.71L501.31,201.14L501.39,195.27L501.46,192.96L501.84,203.53L502.06,197.46L502.14,196.54L502.29,193.58L502.74,199.64L502.82,201.07L503.04,201.76L503.19,198.49L503.27,197.24L503.5,192.82L503.72,203.77L503.8,204.48L504.17,195.72L504.55,200.8L504.63,201.91L504.93,200.98L505,200.25L506.06,194.44L506.13,196.46L506.66,198.48L506.74,197.14L506.81,193.89L506.89,191.88L507.26,198.29L507.41,197.61L507.49,196.71L507.72,189.08L508.17,195.27L508.24,197.44L508.47,196.07L508.54,178.66L508.7,160.04L509.3,175.78L509.37,169.85L509.6,163.36L509.75,170.39L509.83,190.72L510.13,190.87L510.5,158.88L510.73,172.55L510.8,173.84L512.01,205.16L512.16,204.6L512.24,193.74L512.69,203.95L512.91,197.03L512.99,193.32L513.14,191.88L513.29,194.64L513.37,195.77L513.67,201.13L513.97,195.34L514.04,187.23L514.35,201.15L514.95,180.1L515.02,179.92L515.63,192.74L515.85,185.39L515.93,182.7L516.08,176.15L516.31,189.45L516.38,193.57L516.46,193.41L516.53,188.44L516.68,184.73L516.98,196.02L517.06,198.62L517.51,201.26L517.66,199.64L517.74,196.49L518.26,198.43L518.57,190.18L518.64,193.72L518.72,193.85L518.79,195.61L519.24,200.3L519.39,198.82L519.47,190.62L519.92,199.86L520.37,180.47L520.45,180.73L520.53,180.51L520.6,181.5L520.68,183.11L520.9,187.88L521.05,186.5L521.13,183.76L521.35,159.35L521.81,177.27L521.88,177.34L522.11,168.25L522.41,174.24L522.48,179.36L522.56,179.14L522.64,182.98L522.79,188.04L523.09,170.71L523.16,165.05L523.69,184.76L523.99,176.53L524.07,175.62L524.67,189.63L524.82,183.82L524.9,170.52L524.97,164.74L525.5,181.25L525.57,178.35L525.72,169.51L526.18,187.07L526.25,193.69L526.33,196.52L526.63,187.14L526.7,177.31L526.78,168.72L527.38,181.12L527.46,178.18L527.61,175.5L528.06,183.64L528.14,185.05L528.29,189.31L528.59,178.67L528.66,175.76L528.89,170.03L529.12,176.11L529.42,172.8L529.49,173.29L530.02,184.87L530.32,178L530.4,174.42L530.77,176.81L531.15,162.46L531.23,164.69L531.3,168.47L531.83,192.4L532.05,181.41L532.13,169.75L532.2,163.13L532.58,182.14L532.81,175.78L532.88,170.73L532.96,167.63L533.33,175.92L533.41,174.06L533.49,179.06L533.64,182.51L533.86,178.11L533.94,160.47L534.01,154.92L534.47,173.74L534.54,173.15L534.77,166.01L535.14,174.64L535.22,176.27L535.52,183.46L535.75,168.71L535.82,162.9L536.35,174.52L536.57,167.02L536.65,167.08L536.88,168.97L536.95,175.03L537.18,183.32L537.48,176.82L537.55,165.12L537.63,155.55L538.08,169.12L538.23,168.7L538.31,166.81L538.38,163.05L538.91,174.6L538.99,178.13L539.21,178.03L539.29,174.37L539.44,155.38L540.04,168.43L540.12,166.18L540.19,162.52L540.64,170.7L540.72,174.29L540.95,177.87L541.17,170.9L541.25,165.16L541.55,152.53L542.08,156.44L542.15,160.72L542.23,160.98L542.3,164.81L542.68,176.94L543.06,170.03L543.13,164.42L543.58,164.94L543.81,156.16L543.88,158.78L543.96,161.7L544.56,188.64L544.79,179.44L544.86,170.51L545.32,175.17L545.47,169.14L545.54,163.9L545.69,161.75L545.99,170.47L546.07,175.48L546.37,192.24L546.6,157.72L546.67,149.14L547.05,162.77L547.43,155.12L547.5,155.51L547.8,164.79L547.88,166.59L548.25,174.46L548.41,156.61L548.48,147.49L548.93,163.59L549.23,154.59L549.31,154.08L549.99,174.64L550.14,169.13L550.21,157.18L550.29,147.24L550.67,164.7L550.89,162.96L550.97,160.92L551.04,156.97L551.49,170.43L551.57,176.1L551.87,189.83L551.95,175.62L552.02,157.5L552.1,147.85L552.7,165.06L552.78,161.25L552.85,157.56L553.3,170.71L553.38,176.74L553.6,195.86L553.98,165.07L554.06,159.45L554.13,157.58L554.51,167.11L554.66,163.31L554.73,163.29L555.56,194.33L555.71,187.58L555.79,180.8L556.47,171.14L556.62,172.58L556.69,175.9L557.3,187.86L557.45,177.54L557.52,167.21L557.9,177.77L558.2,170.94L558.28,167.1L558.95,186.22L559.18,179.99L559.26,167.07L559.33,159.1L559.78,174.32L559.93,171.55L560.01,168.89L560.16,163.32L560.61,177.6L560.69,181.28L560.84,181.51L560.91,181.43L560.99,177.49L561.14,156.05L561.74,171.23L561.82,166.89L561.97,161.35L562.42,175.99L562.5,179.53L562.65,179.79L562.72,179.74L562.8,175.93L562.95,156.3L563.55,169.99L563.63,166.07L563.93,162.94L564.15,172.69L564.23,176.2L564.3,179.71L564.68,162.17L564.76,154.12L565.13,169.71L565.51,163.61L565.59,163.65L565.81,166.29L565.89,172.16L565.96,172.33L566.04,176.14L566.26,184.08L566.56,171.96L566.64,168.03L566.79,160.49L567.39,161.95L567.47,163.94L568.15,179.28L568.37,173.67L568.45,168.01L569.2,160.41L569.28,162.22L569.88,177.44L570.03,173.69L570.11,162.78L570.18,155.49L570.56,168.17L570.78,167.66L570.86,163.4L570.94,158.57L571.46,171.8L571.54,175.51L571.91,156.45L571.99,148.03L572.59,162.36L572.74,154.7L572.82,154.72L573.04,159.36L573.12,165.75L573.5,176.25L573.65,172.56L573.72,157.7L573.8,149.49L574.4,164.01L574.48,160.03L574.55,155.81L575,164.65L575.08,170.16L575.31,172.39L575.46,168.36L575.53,153.65L575.61,140.52L575.98,157.76L576.21,156.58L576.28,154.47L576.44,148.09L576.81,160.92L576.89,164.57L577.11,168.68L577.34,149.95L577.42,138.43L578.02,156.87L578.17,147.01L578.24,147.51L578.62,160.42L578.7,164.01L579,169.73L579.22,158.16L579.3,151.57L579.45,144.1L579.75,152.53L580.05,145.04L580.13,145.55L580.81,164.81L580.96,159.19L581.03,155.22L581.26,142.14L581.94,144.3L582.01,146.48L582.61,174.36L582.77,159.43L582.84,147.85L582.92,158.42L583.59,149.39L583.67,148.87L584.42,169.03L584.5,164.8L584.57,149.78L584.65,140.32L585.1,158.99L585.18,158.68L585.25,160.28L585.4,153.34L585.85,164.13L585.93,169.44L586.16,173.55L586.31,167.68L586.38,152.77L586.46,143.86L586.76,158.01L587.06,157.75L587.14,155.55L587.21,151.33L587.66,164.13L587.74,167.82L588.04,171.75L588.19,153.97L588.27,148.1L588.87,170.35L589.09,160.84L589.17,160.87L589.55,174.65L589.62,180.72L589.85,190.92L589.92,178.43L590,161.37L590.07,153.43L590.45,170.52L590.68,168.54L590.75,166.63L590.83,162.71L591.36,172.9L591.43,179.45L591.51,179.64L591.58,182.23L591.66,185.06L591.88,168.3L591.96,162.31L592.11,154.79L592.49,162.73L592.71,156.71L592.79,158.61L593.47,175.97L593.69,168.25L593.77,164.31L594.52,151.39L594.6,153.31L594.67,155.52L595.27,169.68L595.35,165.97L595.42,154.83L595.5,147.11L595.88,161.52L596.1,159.2L596.18,156.74L596.4,148.52L596.78,164.07L596.86,167.97L597.08,170.03L597.16,166.01L597.31,139.67L597.91,154.71L597.99,150.99L598.14,144.94L598.59,159.37L598.66,163.34L598.81,163.58L598.89,161.6L599.12,129.3L599.49,145.69L599.57,145.8L599.64,145.43L599.72,149.16L599.87,138.14L600.32,154.34L600.4,160.29L600.7,164.53L600.85,147.68L600.92,137.82L601.53,156.22L601.68,145.48L601.75,145.48L601.9,150.35L601.98,153.59L602.36,171.34L602.66,152.61L602.73,141.64L603.34,157.3L603.49,144.95L603.56,145.96L603.79,154.14L603.86,159.15L604.01,163L604.09,166.88L604.62,143.26L604.69,137.85L605.07,142.89L605.3,130.78L605.45,134.95L605.52,138.69L606.05,157.83L606.35,150.13L606.43,143.57L607.18,132L607.25,135.08L607.33,137.71L607.78,154.1L608.08,138.15L608.16,126.91L608.76,145.41L608.91,133.06L608.99,133.02L609.06,131.59L609.21,139.03L609.29,142.93L609.44,146.81L609.51,150.71L609.74,150.95L609.82,145.04L609.97,116.15L610.65,123.7L610.72,121.3L611.47,149.18L611.62,145.08L611.7,128.76L611.78,107.95L612.38,132.86L612.45,126.35L612.53,123.92L613.36,154.31L613.43,150.48L613.51,133.14L613.58,122.55L614.11,142.36L614.19,146.22L614.34,134.23L614.79,152.18L614.86,155.95L615.09,159.95L615.24,156.1L615.32,140.59L615.39,129.35L615.99,151.05L616.07,147.26L616.15,143.54L616.6,156.45L616.67,160.11L616.9,165.92L617.2,156.62L617.28,150.26L617.43,141.96L617.73,152.4L618.03,148.15L618.1,150.85L618.78,171.66L619.01,165.92L619.08,162.18L619.31,152.62L619.84,158.78L619.91,158.94L620.59,183.79L620.67,177.34L620.74,164.77L620.82,156.49L621.27,166.39L621.5,162.17L621.57,158.52L621.65,158.38L621.8,158.63L621.87,162.3L622.32,178.85L622.48,171.92L622.55,156.24L622.63,147.76L623.23,162.87L623.3,158.52L623.45,153.68L623.83,165.57L623.91,169.19L624.13,172.98L624.36,154.82L624.43,146.04L625.04,159.96L625.19,152.51L625.26,152.83L625.34,151.47L625.49,155.5L625.56,162.02L625.64,162.31L625.72,166.03L626.02,169.82L626.17,152.09L626.24,139.34L626.85,156.36L627,148.23L627.07,148.53L627.15,148.9L627.22,147.3L627.3,151.51L627.67,166.02L627.98,145.49L628.05,134.14L628.65,151.42L628.8,143.57L628.88,143.66L629.11,149.36L629.18,156.17L629.33,160.38L629.41,164.15L629.63,166.26L629.78,159.23L629.86,156.76L630.09,140.92L630.69,148.11L630.76,148.43L631.52,172.82L631.67,165.33L631.74,159.7L631.89,152.51L632.27,165.03L632.42,161.43L632.5,163.23L633.25,187.19L633.4,174.02L633.48,165.59L633.93,178.1L634.15,167.49L634.23,163.95L634.38,162.34L634.53,166.67L634.61,168.31L634.98,179.13L635.13,172.19L635.21,158.77L635.28,151.02L635.74,165.98L635.89,164.19L635.96,162.33L636.04,158.59L636.49,171.64L636.57,177.63L636.79,180.3L636.94,174.85L637.02,160.74L637.09,153.01L637.62,165.95L637.77,160.16L637.85,158.26L637.92,156.56L638.22,166.79L638.3,168.58L638.68,184.16L638.83,160.89L638.9,150.79L639.35,162.61L639.66,152.41L639.73,150.66L639.96,154.95L640.03,159.76L640.48,179.37L640.63,163.71L640.71,147.94L641.31,162.77L641.46,155.72L641.54,155.79L641.77,160.08L641.84,168.02L642.22,193.76L642.52,168.62L642.59,163.16L643.35,150.76L643.42,155.03L643.5,157.72L644.03,193.51L644.33,178.02L644.4,167.56L645.08,147.08L645.31,151.21L645.38,156.54L645.98,172.79L646.06,165.03L646.14,150.7L647.11,169.88L647.19,171.05L647.79,184.9L647.94,175.65L648.02,166.44L648.09,155.04L648.77,160L648.85,161.96L648.92,158.46L649.22,168.42L649.3,178L649.9,143.13L650.28,147.92L650.36,149.58L650.66,149.59L650.73,147.73L651.33,162.59L651.41,156.7L651.49,140.19L651.56,132.19L651.86,150.85L652.09,148.92L652.16,150.56L652.39,143.18L652.69,157.59L652.77,166.81L653.07,181.42L653.37,154.14L653.44,162.56L653.52,154.83L653.67,156.71L654.12,147.6L654.35,149.58L654.42,154.32L655.03,178.29L655.18,167.18L655.25,158.04L655.48,145.77L656.08,149.31L656.16,149.43L656.84,169.63L656.99,161.74L657.06,157.95L657.21,149.08L657.51,159.72L657.81,157.05L657.89,157.52L658.57,180.96L658.72,169.34L658.79,161.44L658.87,165.93L659.47,157.91L659.55,154.37L659.7,154.42L659.77,156.2L660,162.72" style="vector-effect: none; fill: none; stroke: rgb(54, 112, 97); stroke-opacity: 1; stroke-width: 0px; opacity: 1;"/></g><g class="points"/><g class="text"/></g></g></g><g class="overplot"/><path class="xlines-above crisp" d="M19,230.5H681M19,19.5H681" style="fill: none; stroke-width: 1px; stroke: rgb(68, 68, 68); stroke-opacity: 1;"/><path class="ylines-above crisp" d="M19.5,20V230M680.5,20V230" style="fill: none; stroke-width: 1px; stroke: rgb(68, 68, 68); stroke-opacity: 1;"/><g class="overlines-above"/><g class="xaxislayer-above"><path class="xtick ticks crisp" d="M0,231v5" transform="translate(20,0)" style="stroke: rgb(68, 68, 68); stroke-opacity: 1; stroke-width: 1px;"/><path class="xtick ticks crisp" d="M0,231v5" transform="translate(126.7,0)" style="stroke: rgb(68, 68, 68); stroke-opacity: 1; stroke-width: 1px;"/><path class="xtick ticks crisp" d="M0,231v5" transform="translate(237.01,0)" style="stroke: rgb(68, 68, 68); stroke-opacity: 1; stroke-width: 1px;"/><path class="xtick ticks crisp" d="M0,231v5" transform="translate(347.33,0)" style="stroke: rgb(68, 68, 68); stroke-opacity: 1; stroke-width: 1px;"/><path class="xtick ticks crisp" d="M0,231v5" transform="translate(459.45,0)" style="stroke: rgb(68, 68, 68); stroke-opacity: 1; stroke-width: 1px;"/><path class="xtick ticks crisp" d="M0,231v5" transform="translate(569.76,0)" style="stroke: rgb(68, 68, 68); stroke-opacity: 1; stroke-width: 1px;"/><g class="xtick"><text text-anchor="middle" x="0" y="255.2" transform="translate(20,0)" style="font-family: 'Open Sans', verdana, arial, sans-serif; font-size: 16px; fill: rgb(68, 68, 68); fill-opacity: 1; white-space: pre; opacity: 0;">01.01</text></g><g class="xtick"><text text-anchor="middle" x="0" y="255.2" style="font-family: 'Open Sans', verdana, arial, sans-serif; font-size: 16px; fill: rgb(68, 68, 68); fill-opacity: 1; white-space: pre; opacity: 1;" transform="translate(126.7,0)">01.03</text></g><g class="xtick"><text text-anchor="middle" x="0" y="255.2" style="font-family: 'Open Sans', verdana, arial, sans-serif; font-size: 16px; fill: rgb(68, 68, 68); fill-opacity: 1; white-space: pre; opacity: 1;" transform="translate(237.01,0)">01.05</text></g><g class="xtick"><text text-anchor="middle" x="0" y="255.2" style="font-family: 'Open Sans', verdana, arial, sans-serif; font-size: 16px; fill: rgb(68, 68, 68); fill-opacity: 1; white-space: pre; opacity: 1;" transform="translate(347.33,0)">01.07</text></g><g class="xtick"><text text-anchor="middle" x="0" y="255.2" style="font-family: 'Open Sans', verdana, arial, sans-serif; font-size: 16px; fill: rgb(68, 68, 68); fill-opacity: 1; white-space: pre; opacity: 1;" transform="translate(459.45,0)">01.09</text></g><g class="xtick"><text text-anchor="middle" x="0" y="255.2" style="font-family: 'Open Sans', verdana, arial, sans-serif; font-size: 16px; fill: rgb(68, 68, 68); fill-opacity: 1; white-space: pre; opacity: 1;" transform="translate(569.76,0)">01.11</text></g></g><g class="yaxislayer-above"><path class="ytick ticks crisp" d="M19,0h-5" transform="translate(0,230)" style="stroke: rgb(68, 68, 68); stroke-opacity: 1; stroke-width: 1px;"/><path class="ytick ticks crisp" d="M19,0h-5" transform="translate(0,188)" style="stroke: rgb(68, 68, 68); stroke-opacity: 1; stroke-width: 1px;"/><path class="ytick ticks crisp" d="M19,0h-5" transform="translate(0,146)" style="stroke: rgb(68, 68, 68); stroke-opacity: 1; stroke-width: 1px;"/><path class="ytick ticks crisp" d="M19,0h-5" transform="translate(0,104)" style="stroke: rgb(68, 68, 68); stroke-opacity: 1; stroke-width: 1px;"/><path class="ytick ticks crisp" d="M19,0h-5" transform="translate(0,62)" style="stroke: rgb(68, 68, 68); stroke-opacity: 1; stroke-width: 1px;"/><path class="ytick ticks crisp" d="M19,0h-5" transform="translate(0,20)" style="stroke: rgb(68, 68, 68); stroke-opacity: 1; stroke-width: 1px;"/><g class="ytick"><text text-anchor="end" x="10.8" y="5.6" transform="translate(0,230)" style="font-family: 'Open Sans', verdana, arial, sans-serif; font-size: 16px; fill: rgb(68, 68, 68); fill-opacity: 1; white-space: pre; opacity: 1;">0</text></g><g class="ytick"><text text-anchor="end" x="10.8" y="5.6" style="font-family: 'Open Sans', verdana, arial, sans-serif; font-size: 16px; fill: rgb(68, 68, 68); fill-opacity: 1; white-space: pre; opacity: 1;" transform="translate(0,188)">10</text></g><g class="ytick"><text text-anchor="end" x="10.8" y="5.6" style="font-family: 'Open Sans', verdana, arial, sans-serif; font-size: 16px; fill: rgb(68, 68, 68); fill-opacity: 1; white-space: pre; opacity: 1;" transform="translate(0,146)">20</text></g><g class="ytick"><text text-anchor="end" x="10.8" y="5.6" style="font-family: 'Open Sans', verdana, arial, sans-serif; font-size: 16px; fill: rgb(68, 68, 68); fill-opacity: 1; white-space: pre; opacity: 1;" transform="translate(0,104)">30</text></g><g class="ytick"><text text-anchor="end" x="10.8" y="5.6" style="font-family: 'Open Sans', verdana, arial, sans-serif; font-size: 16px; fill: rgb(68, 68, 68); fill-opacity: 1; white-space: pre; opacity: 1;" transform="translate(0,62)">40</text></g><g class="ytick"><text text-anchor="end" x="10.8" y="5.6" style="font-family: 'Open Sans', verdana, arial, sans-serif; font-size: 16px; fill: rgb(68, 68, 68); fill-opacity: 1; white-space: pre; opacity: 1;" transform="translate(0,20)">50</text></g></g><g class="overaxes-above"/></g></g><g class="polarlayer"/><g class="smithlayer"/><g class="ternarylayer"/><g class="geolayer"/><g class="funnelarealayer"/><g class="pielayer"/><g class="iciclelayer"/><g class="treemaplayer"/><g class="sunburstlayer"/><g class="glimages"/><defs id="topdefs-1a643a"><g class="clips"/><clipPath id="legend1a643a"><rect width="210" height="55" x="0" y="0"/></clipPath></defs><g class="layer-above"><g class="imagelayer"/><g class="shapelayer"/></g><g class="infolayer"><g class="legend" pointer-events="all" transform="translate(26.6,24.200000000000003)"><rect class="bg" shape-rendering="crispEdges" width="210" height="55" x="0" y="0" style="stroke: rgb(68, 68, 68); stroke-opacity: 1; fill: rgb(0, 0, 0); fill-opacity: 0; stroke-width: 0px;"/><g class="scrollbox" transform="" clip-path="url(#legend1a643a)"><g class="groups"><g class="traces" transform="translate(0,27.3)" style="opacity: 1;"><text class="legendtext" text-anchor="start" x="40" y="-4.16" style="font-family: 'Open Sans', verdana, arial, sans-serif; font-size: 16px; fill: rgb(68, 68, 68); fill-opacity: 1; white-space: pre;"><tspan class="line" dy="0em" x="40" y="-4.16">Strm:</tspan><tspan class="line" dy="1.3em" x="40" y="-4.16">59 825 kr/r | 24 kr</tspan></text><g class="layers"><g class="legendfill"><path class="js-fill" d="M5,-2h30v6h-30z" style="stroke-width: 0; fill: rgb(54, 112, 97); fill-opacity: 0.5;"/></g><g class="legendlines"><path class="js-line" d="M5,-2h30" style="fill: none; stroke: rgb(54, 112, 97); stroke-opacity: 1; stroke-width: 0px;"/></g><g class="legendsymbols"><g class="legendpoints"/></g></g><rect class="legendtoggle" x="0" y="-22.3" width="206.5625" height="44.6" style="fill: rgb(0, 0, 0); fill-opacity: 0;"/></g></g></g><rect class="scrollbar" rx="20" ry="3" width="0" height="0" x="0" y="0" style="fill: rgb(128, 139, 164); fill-opacity: 1;"/></g><g class="g-gtitle"/><g class="g-xtitle"/><g class="g-ytitle" transform="translate(32,0)"><text class="ytitle" transform="rotate(-90,-18,125)" x="-18" y="125" text-anchor="middle" style="font-family: 'Open Sans', verdana, arial, sans-serif; font-size: 14px; fill: rgb(68, 68, 68); opacity: 1; font-weight: normal; white-space: pre;">Kostnad (kr)</text></g></g></svg>