<svg class="main-svg" xmlns="http://www.w3.org/2000/svg" xmlns:xlink="http://www.w3.org/1999/xlink" width="700" height="250" style="" viewBox="0 0 700 250"><rect x="0" y="0" width="700" height="250" style="fill: rgb(255, 255, 255); fill-opacity: 1;"/><defs id="defs-71e22d"><g class="clips"><clipPath id="clip71e22dxyplot" class="plotclip"><rect width="660" height="210"/></clipPath><clipPath class="axesclip" id="clip71e22dx"><rect x="20" y="0" width="660" height="250"/></clipPath><clipPath class="axesclip" id="clip71e22dy"><rect x="0" y="20" width="700" height="210"/></clipPath><clipPath class="axesclip" id="clip71e22dxy"><rect x="20" y="20" width="660" height="210"/></clipPath></g><g class="gradients"/><g class="patterns"/></defs><g class="bglayer"/><g class="layer-below"><g class="imagelayer"/><g class="shapelayer"/></g><g class="cartesianlayer"><g class="subplot xy"><g class="layer-subplot"><g class="shapelayer"/><g class="imagelayer"/></g><g class="minor-gridlayer"><g class="x"/><g class="y"/></g><g class="gridlayer"><g class="x"><path class="xgrid crisp" transform="translate(126.7,0)" d="M0,20v210" style="stroke: rgb(238, 238, 238); stroke-opacity: 1; stroke-width: 0.1px;"/><path class="xgrid crisp" transform="translate(237.01,0)" d="M0,20v210" style="stroke: rgb(238, 238, 238); stroke-opacity: 1; stroke-width: 0.1px;"/><path class="xgrid crisp" transform="translate(347.33,0)" d="M0,20v210" style="stroke: rgb(238, 238, 238); stroke-opacity: 1; stroke-width: 0.1px;"/><path class="xgrid crisp" transform="translate(459.45,0)" d="M0,20v210" style="stroke: rgb(238, 238, 238); stroke-opacity: 1; stroke-width: 0.1px;"/><path class="xgrid crisp" transform="translate(569.76,0)" d="M0,20v210" style="stroke: rgb(238, 238, 238); stroke-opacity: 1; stroke-width: 0.1px;"/></g><g class="y"><path class="ygrid crisp" transform="translate(0,188)" d="M20,0h660" style="stroke: rgb(238, 238, 238); stroke-opacity: 1; stroke-width: 0.1px;"/><path class="ygrid crisp" transform="translate(0,146)" d="M20,0h660" style="stroke: rgb(238, 238, 238); stroke-opacity: 1; stroke-width: 0.1px;"/><path class="ygrid crisp" transform="translate(0,104)" d="M20,0h660" style="stroke: rgb(238, 238, 238); stroke-opacity: 1; stroke-width: 0.1px;"/><path class="ygrid crisp" transform="translate(0,62)" d="M20,0h660" style="stroke: rgb(238, 238, 238); stroke-opacity: 1; stroke-width: 0.1px;"/></g></g><g class="zerolinelayer"><path class="yzl zl crisp" transform="translate(0,230)" d="M20,0h660" style="stroke: rgb(68, 68, 68); stroke-opacity: 1; stroke-width: 1px;"/></g><g class="layer-between"><g class="shapelayer"/><g class="imagelayer"/></g><path class="xlines-below"/><path class="ylines-below"/><g class="overlines-below"/><g class="xaxislayer-below"/><g class="yaxislayer-below"/><g class="overaxes-below"/><g class="plot" transform="translate(20,20)" clip-path="url(#clip71e22dxyplot)"><g class="scatterlayer mlayer"><g class="trace scatter trace094efb" style="stroke-miterlimit: 2;"><g class="fills"><g><path class="js-fill" d="M660,210L0,210L0,175.77L0.53,188.08L0.68,173.63L0.75,169.95L0.83,166.9L1.13,172.16L1.43,170.44L1.51,170.6L1.58,170.81L1.66,174.89L1.73,175.08L1.81,172.35L2.03,176.05L2.26,160.14L2.34,145.36L2.79,157.73L3.01,149.12L3.09,142.42L3.16,140.85L3.32,148.05L3.39,153.66L3.77,170.07L3.99,162.24L4.07,148.1L4.14,126.63L4.82,136.98L4.9,130.97L5.12,139.11L5.2,149.4L5.65,182.03L5.95,151.71L6.03,159.06L6.56,161.23L6.71,153.12L6.78,155.22L6.86,156.06L7.23,175.17L7.31,177.74L7.46,180.83L7.61,175.17L7.69,161.62L8.51,134.94L8.59,135.02L8.67,140.6L9.34,180.97L9.64,161.52L9.72,154.82L9.87,154.24L9.95,157.11L10.02,159.49L10.1,159.81L10.17,157.13L10.25,154.92L10.32,145.86L10.85,171.64L10.93,177.77L11.15,183.08L11.3,178.42L11.38,172.25L11.6,161.31L11.98,172.61L12.13,170.52L12.21,170.16L12.58,193.31L12.66,198.3L12.89,203.89L13.26,190.55L13.34,180.9L13.49,179.98L13.56,180.3L13.64,182.37L14.02,173.84L14.32,180.88L14.39,186.22L14.69,197.09L14.92,173L14.99,162.94L15.15,162.13L15.45,172.54L15.67,165.29L15.75,156.81L16.35,187.22L16.65,180.38L16.73,163.71L16.8,150.72L17.26,165.54L17.41,165.1L17.48,163.78L17.56,159.12L17.86,175.01L17.93,181.35L18.31,200.4L18.54,182.25L18.61,166.81L19.06,177.14L19.37,168.31L19.44,168.19L19.89,191.12L19.97,203.91L20.27,194.24L20.34,177.55L20.42,165.89L20.87,179.35L21.1,175.82L21.17,169.76L21.25,168.64L21.4,173.29L21.48,177.49L21.85,201.54L22.23,182.05L22.3,174.79L22.45,170.05L22.76,179.26L23.06,172.45L23.13,174.25L23.74,189.36L23.81,196.65L23.96,194.14L24.04,184.6L24.34,167.59L24.94,171.75L25.02,172.64L25.62,202.78L25.92,198.74L26,188.71L26.67,171.43L26.82,172.24L26.9,173.89L27.28,184.18L27.5,174.3L27.58,160.17L27.65,145.84L28.11,164.18L28.33,157.55L28.41,150.94L28.48,149.95L28.56,153.89L28.63,159.33L29.09,183.81L29.31,177.49L29.39,163.43L29.46,154.69L29.84,170.39L30.14,160.18L30.22,155.83L30.74,176.9L30.82,180.4L30.89,180.17L31.04,180.78L31.12,176.25L31.27,148.38L31.87,166.91L31.95,162.21L32.02,156.57L32.48,173.9L32.55,178.81L32.85,182.33L32.93,177.38L33,164.17L33.08,146.71L33.76,150.19L33.83,147.39L34.51,173.59L34.81,164.61L34.89,160.33L35.11,127.23L35.64,147.18L35.72,144.27L36.47,166.37L36.62,163.1L36.7,154.69L37.52,126.31L37.6,140.31L38.05,162.05L38.35,157.53L38.43,145.07L39.11,147.12L39.26,125.68L39.33,121.83L40.09,164.19L40.16,159.59L40.24,143.82L40.31,104.57L40.99,130.81L41.07,117.18L41.14,117.63L41.22,140.44L41.82,174.18L42.05,155.94L42.12,147.32L42.27,124.58L42.57,149.85L42.87,129.56L42.95,157.51L43.7,183.02L43.78,179.01L43.85,166.46L43.93,147.24L44.53,175.92L44.61,171.63L44.76,164.47L45.21,180.06L45.29,183.56L45.44,184.14L45.51,183.61L45.59,179.7L45.74,157.53L46.42,164.93L46.49,160.79L46.57,160.65L46.64,162.05L47.17,179.14L47.4,175.89L47.47,165.74L47.77,132.11L48.3,133.69L48.38,154.7L49.05,176.84L49.35,169.79L49.43,164.34L49.58,156.64L49.96,169.11L50.18,163.58L50.26,165.48L50.64,177.35L50.71,179.4L50.94,181.55L51.01,178.52L51.09,170.27L51.16,164.21L51.69,179.74L51.77,181.13L51.92,176.76L52.37,186.86L52.44,190.37L52.67,197.79L52.82,189.85L52.9,175.73L52.97,169.9L53.5,184.91L53.57,183.57L53.88,175.2L54.25,184.49L54.33,186.93L54.55,185.11L54.63,181.47L54.78,160.47L55.38,174.89L55.46,173.33L55.53,169.33L55.99,181.69L56.06,181.92L56.36,185.14L56.44,180.63L56.51,167.69L56.59,156.01L57.04,172.24L57.19,170.73L57.27,168L57.34,161.22L57.87,177.15L57.94,179.76L58.02,180.59L58.17,177.22L58.25,173L59.15,135.88L59.23,134.2L59.45,150.7L59.53,159.78L59.9,178.45L60.28,162.82L60.36,158.33L60.73,165.43L60.96,158.2L61.03,157.81L61.56,172.93L61.94,165.47L62.01,159.44L62.16,133.23L62.69,154.18L62.77,150.05L62.84,148.68L62.99,158.1L63.07,162.62L63.6,177.2L63.75,164.77L63.82,159.27L64.27,172.01L64.5,165.79L64.58,159.38L64.65,157.52L64.95,165.79L65.03,167.49L65.33,174.54L65.48,167.51L65.56,140.3L65.63,119.14L66.16,159.87L66.23,157.03L66.31,143.19L66.38,135.4L66.84,166.96L66.91,171.96L67.21,174.55L67.29,169.64L67.36,157.01L67.44,150.58L67.82,165.84L67.97,165.15L68.04,166.93L68.27,159.72L68.64,168.18L68.72,174.61L68.87,178.31L69.1,171.81L69.17,161.41L69.25,151.61L69.78,169.92L69.85,171.64L70,166.64L70.3,173.45L70.38,177.8L70.83,188.36L70.91,184.87L70.98,175.12L71.06,167.45L71.66,181.53L71.73,178.56L71.96,174.76L72.19,180.74L72.26,182.2L72.41,187.01L72.79,179.15L72.86,174.09L73.09,163.2L73.54,175.23L73.62,172.32L73.69,172.76L73.92,177.37L73.99,182.07L74.52,188.96L74.67,183.47L74.75,179.46L75.2,180.22L75.5,167.9L75.58,170.32L75.65,174.21L76.1,183.61L76.33,179.05L76.41,170.23L76.48,162.63L77.01,178.62L77.08,178.15L77.16,172.92L77.31,169.17L77.69,178.81L77.76,181.99L77.91,185.55L78.21,170.02L78.29,163.02L78.82,182.74L79.04,170.7L79.12,170.74L79.19,169.37L79.5,177.75L79.57,181.07L79.72,183.04L79.95,177.4L80.02,164.58L80.1,128.29L80.7,168.89L80.78,158.48L80.85,144.32L80.93,138.67L81.15,167.89L81.23,173.35L81.3,172.36L81.38,177.65L81.45,181.12L81.68,181.21L81.76,176.59L81.98,146.75L82.51,170.05L82.58,166.69L82.74,164.58L82.96,172.27L83.04,175.48L83.26,183.78L83.56,179.53L83.64,166.01L83.87,154.96L84.17,174.46L84.24,173.25L84.32,173.44L84.62,165.98L84.92,177.47L85,178.84L85.3,187.38L85.6,176.3L85.67,171.19L85.75,170.25L85.9,174.26L85.98,177.02L86.35,174.35L87.03,192.68L87.18,189.91L87.26,186.05L87.56,168.95L88.16,171.91L88.24,171.94L88.84,183.78L88.99,178.74L89.06,170.86L89.14,160.48L89.67,178.73L89.74,178.18L89.82,173.87L89.97,166.64L90.42,181.73L90.5,187.08L90.72,195.77L90.95,169.13L91.1,178.71L91.17,181.93L91.55,187.79L91.7,177.16L91.78,174.45L92,177.12L92.08,181.3L92.31,195.41L92.68,177.59L92.76,168.02L93.06,177.42L93.44,170.2L93.51,164.69L93.59,155.79L94.11,181.32L94.19,181.42L94.34,181.43L94.41,178.05L94.57,158.54L95.17,171.78L95.24,166.64L95.32,164.7L95.62,169.03L95.7,173.73L95.85,178.29L95.92,180.24L96.15,180.54L96.22,177.22L96.37,159.44L96.98,174.49L97.05,168.86L97.2,164.28L97.58,176.74L97.65,178.35L97.88,183.66L98.18,174.48L98.26,170.84L98.41,164.47L98.79,173.33L99.01,168.17L99.09,170.25L99.69,183.95L99.99,179.4L100.07,174.01L100.22,170.5L100.52,179.44L100.82,170.61L100.9,170.61L101.42,182.08L101.65,177.06L101.72,169.2L101.8,162.28L102.25,181.11L102.33,181.9L102.7,164.66L102.85,170.47L102.93,173.26L103.23,181.12L103.46,175.23L103.53,163.2L103.68,149.66L104.14,179.18L104.21,179.11L104.51,166.09L104.89,177.84L104.96,179.91L105.04,181.59L105.27,175.91L105.34,166.12L105.42,156.97L105.94,178.11L106.02,178.11L106.25,165.82L106.7,177.55L106.77,182.56L107.07,177.08L107.15,167.43L107.22,147.09L107.83,179.37L107.9,175.74L108.13,167.19L108.51,178.37L108.58,181.84L108.88,176.36L108.96,166.37L109.03,155.17L109.64,177.14L109.71,173.73L109.86,165.44L110.31,177L110.39,178.71L110.69,177.99L110.77,174.58L111.07,158.6L111.37,177.86L111.44,176.86L111.52,175.36L111.59,171.86L112.12,179.26L112.2,182.62L112.35,182.48L112.42,183.77L113.55,164.03L113.63,166.13L113.7,169.75L114.01,177.85L114.31,171.81L114.38,163.61L114.46,154.1L114.91,174.32L114.99,173.9L115.06,172.93L115.36,145.54L115.66,166.05L115.74,167.8L115.89,174.67L116.19,152.93L116.27,124.43L116.87,167.37L117.1,145.19L117.17,138.78L117.7,175.94L118,160.69L118.08,149.86L118.68,169.35L118.83,156.04L118.9,143.86L119.58,170.21L119.73,161.66L119.81,142.85L119.88,120.87L120.49,158.55L120.56,153.54L120.79,136.44L121.09,163.08L121.16,166.75L121.39,171.35L121.54,165.59L121.62,148.78L121.69,130.6L122.29,165.34L122.37,161.42L122.6,143L122.97,166.82L123.05,170.53L123.2,171.07L123.35,167.69L123.43,161.61L123.73,143.85L124.25,149.95L124.33,146.63L125.01,173.62L125.23,166.31L125.31,161.21L125.38,156.06L125.84,171.29L125.91,170.95L125.99,166.83L126.21,157.85L126.59,170.99L126.67,173.57L126.89,174.48L126.97,171.6L127.04,164.61L127.12,157.72L127.64,176.12L127.72,176.99L127.95,161.41L128.32,174.76L128.4,179.34L128.62,186.62L128.85,169.6L128.93,163.22L129.53,175.31L129.68,170.29L129.75,168.76L129.83,167.85L129.98,173.2L130.06,176L130.51,182.94L130.58,180.27L130.66,169.16L130.73,159L131.34,178.11L131.41,172.82L131.71,163.39L132.09,176.14L132.17,174.76L132.39,168.96L132.47,156.41L132.54,137.98L132.99,176.71L133.07,176.14L133.15,175.81L133.52,161.98L133.82,172.34L133.9,174.05L133.97,176.5L134.2,171.95L134.28,159.8L134.35,138.17L134.8,177.15L134.95,176.36L135.03,172.28L135.18,165.51L135.63,180.04L135.71,182.68L135.86,184.46L136.08,178.55L136.16,174.66L136.99,165.8L137.06,168.17L137.52,181.95L137.59,183.68L137.67,184.04L137.82,183.12L137.89,180.02L138.19,170.71L138.42,180.45L138.5,182.08L138.72,173.15L138.8,169.76L139.55,184.82L139.63,181.84L139.7,174.54L139.78,168.68L140.23,179.91L140.38,178.92L140.45,175.38L140.61,171.78L141.06,180.9L141.13,184.2L141.36,184.32L141.43,180.78L141.58,164.47L142.11,180.76L142.19,180.41L142.49,166.21L142.79,175.81L142.87,179.24L143.09,182.63L143.32,168.52L143.39,161.56L144,175.42L144.15,168.65L144.22,167.07L144.6,178.16L144.67,182.12L144.98,187.74L145.13,173.6L145.2,166.29L145.8,183.5L146.03,175.51L146.11,173.73L146.26,175.38L146.33,179.34L146.78,196.57L146.86,188.27L146.93,177.07L147.01,169.93L147.54,184.59L147.61,183.68L147.91,173.9L148.22,182.85L148.29,185.82L148.59,192.89L148.89,179.98L148.97,177.79L149.42,181.83L149.72,175.29L149.8,175.37L149.87,179.67L150.4,202.77L150.63,189.54L150.7,182.81L150.93,175.01L151.53,176.62L151.61,177.39L152.21,185.72L152.28,183.85L152.36,175.57L152.44,167.92L152.96,181.45L153.04,179.84L153.11,175.66L153.34,165.33L153.79,178.44L153.87,179.28L154.09,170.82L154.17,154.6L154.24,154.27L154.32,166.63L154.39,166.85L154.47,172.05L154.85,179.03L155,168.01L155.07,165.6L155.15,163.09L155.45,172.57L155.52,176.36L155.6,178.41L155.83,174.23L155.9,165.12L156.05,134.89L156.43,172.92L156.58,172.52L156.65,173.18L156.88,145.69L157.11,165.19L157.18,172.07L157.41,179.54L157.63,178.33L157.71,173.06L157.86,142.22L158.39,172L158.46,173.11L158.69,149.38L159.07,175.11L159.14,179.11L159.37,181.55L159.52,176.42L159.59,157.57L159.67,144.84L160.05,174.72L160.2,174.51L160.27,175.81L160.57,161.06L160.87,174.13L160.95,179.55L161.1,182.82L161.4,173.25L161.48,166.14L161.63,159.28L162,175.21L162.08,174.41L162.16,172L162.31,165.97L162.76,181.08L162.83,182.57L162.91,183.9L163.29,179.36L163.36,174.95L163.89,178.98L164.11,170.73L164.19,171.88L164.27,172.1L164.64,182.91L165.02,172.47L165.09,169.45L165.7,183.16L165.85,174.49L165.92,167.71L166.07,165.4L166.22,172.18L166.3,172.33L166.6,179.92L166.75,170.73L166.83,151.15L166.9,140.72L167.35,181.64L167.43,180.18L167.66,168.62L167.73,157.34L167.81,154.45L168.03,171.31L168.11,171.84L168.33,180.06L168.56,174.42L168.64,147.87L168.71,140.89L169.01,177.56L169.09,179.43L169.16,181.28L169.39,175.48L169.46,169.29L169.62,163.39L169.99,178.13L170.07,181.52L170.22,181.43L170.29,178.99L170.52,148.9L170.59,170.04L170.67,171.94L171.05,180.33L171.35,169.75L171.42,171.55L171.5,171.34L171.57,173.07L171.65,176.31L171.73,174.87L172.03,182.53L172.1,181.88L172.33,158.04L172.7,172.92L172.78,172.68L173.16,163.27L173.46,171.62L173.53,173.76L173.68,180.16L174.14,171.86L174.21,169.31L174.36,165.18L174.66,176.83L175.04,165.24L175.12,166.83L175.79,181.22L175.94,177.62L176.02,174.1L176.17,170.67L176.4,181.41L176.47,184.58L176.7,176.31L176.77,172.68L176.92,172.54L177,175.98L177.45,186.7L177.6,183.34L177.68,176.53L177.75,171.15L178.21,193.37L178.28,193.17L178.66,174.83L179.03,189.15L179.11,191.2L179.26,192.37L179.41,188.54L179.49,180.99L179.56,176.96L179.86,197.98L179.94,199.2L180.01,200.78L180.24,194.71L180.32,183.58L180.39,181.85L180.69,192.86L180.77,200.92L180.99,203.11L181.14,194.63L181.22,186.24L181.37,166.82L181.97,184.65L182.05,181.37L182.35,170.51L182.65,188.25L182.73,192.26L182.95,192.6L183.03,189.34L183.33,179.43L183.78,186.91L183.86,185.9L184.08,178.61L184.46,190.98L184.53,194.56L184.69,195.55L184.84,192.61L184.91,187.65L185.14,182.36L185.51,189.08L185.74,183.25L185.82,182.93L185.97,182.55L186.04,184.32L186.12,186.86L186.34,189.04L186.72,184.24L186.8,182.43L187.62,168.94L187.7,170.65L187.77,170.61L188.38,187.65L188.68,180.08L188.75,174.8L189.73,183.76L189.81,183.96L190.11,189.37L190.41,183.76L190.49,182.04L190.71,179.58L190.94,187.39L191.01,188.33L191.39,180.34L191.77,185.84L191.84,185.99L191.99,185.23L192.07,181.3L192.15,157.99L192.75,200.49L192.82,200.41L193.12,178.07L193.58,191.15L193.65,191.13L193.88,188.58L193.95,173.05L194.03,165.65L194.41,199.38L194.48,199.7L194.56,201.25L194.71,200.57L194.78,185.66L194.93,181.7L195.31,189.97L195.39,192.79L195.84,172.77L195.91,198.15L195.99,197.39L196.29,200.25L196.36,201.53L196.59,200.51L196.67,181.17L197.27,194.77L197.5,192.03L197.57,182.4L198.17,200.95L198.4,200.08L198.47,184.86L198.55,182.43L198.93,191.74L199,193.35L199.45,189.43L199.53,198.01L199.6,198.87L199.98,201.8L200.21,200.12L200.28,182.92L200.43,182.63L200.51,186.22L201.56,203.26L201.79,202.68L201.87,201.75L201.94,201.03L202.02,186.42L202.24,183.84L202.47,190.32L202.54,192.86L202.69,196.67L203,185.77L203.07,179.84L203.52,196.31L203.75,180.78L203.82,175.72L203.98,173.63L204.28,180.26L204.35,187.14L204.58,190L204.65,186.6L204.73,179.16L204.88,152.94L205.48,177.6L205.56,173.4L205.86,165.35L206.16,181.04L206.24,182.84L206.39,183.25L206.46,182.27L206.54,177.62L206.69,159.15L207.14,181.8L207.22,181.54L207.29,178.43L207.67,168.29L207.89,176.41L207.97,179.94L208.12,183.12L208.35,177.02L208.42,163.72L208.5,158.42L208.8,176.54L208.87,176.48L208.95,178.41L209.17,175.2L209.25,170.41L209.48,166.87L209.63,173.96L209.7,173.43L209.78,178.16L209.93,182.2L210.15,175.44L210.23,157.54L210.3,156.33L210.38,173.37L210.61,178.58L210.68,181.84L210.91,183.62L210.98,178.53L211.06,172.41L211.21,156.42L211.59,181.3L211.66,184.76L211.89,184.93L211.96,184.28L212.04,177.48L212.34,169.67L212.41,172.49L212.49,177.99L212.64,182.04L212.79,178.24L212.87,172.53L213.09,167.72L213.32,179.76L213.39,179.6L213.7,185.64L214,178.25L214.07,174.14L214.22,178.2L214.3,181.33L214.45,185.48L214.83,173.69L214.9,172.89L215.88,194.98L215.96,186.55L216.03,187.21L216.33,188.74L216.41,184.98L216.48,177.94L216.71,171.28L216.94,179.39L217.01,185.95L217.24,192.33L217.61,182.53L217.69,177.29L218.07,184.64L218.29,177.87L218.37,174.76L218.52,170.1L218.82,182.23L218.89,185.57L219.2,179.47L219.27,162.82L219.35,158.58L219.42,171.64L219.5,195.39L219.57,197.68L219.65,179.23L219.87,187.28L219.95,184.28L220.33,169.29L220.63,184.01L220.7,187.5L220.78,187.92L220.85,185.54L220.93,186.35L221,182.73L221.08,169.38L221.68,188.83L221.76,185.52L222.13,171.19L222.44,185.13L222.51,188.38L222.74,186.68L222.81,182.47L222.96,164.25L223.42,189.36L223.49,187.62L223.57,185.09L223.87,168.15L224.24,186.75L224.32,188.28L224.62,186.48L224.7,182.5L224.92,177.41L225.3,186.76L225.45,186.41L225.53,182.05L225.68,182.23L225.75,179.91L226.43,191.51L226.58,187.86L226.66,183.22L226.73,181.9L226.96,189.68L227.03,191.93L227.18,188.63L227.26,186.86L227.56,177.34L227.94,188.7L228.01,188.56L228.16,189.87L228.24,188.62L228.31,181.91L228.39,180.21L228.46,188.4L228.54,200.21L228.92,203.93L228.99,193.94L229.07,190.56L229.37,178.84L229.75,189.93L229.82,191.77L230.2,174.76L230.27,198.43L230.35,197.42L230.72,201.37L230.8,201.01L230.88,188.49L231.18,181.02L231.48,193.43L231.55,196.1L231.86,193.16L231.93,184.57L232.01,181.33L232.23,200.2L232.31,200.59L232.46,200.41L232.53,201.23L232.68,200.5L232.76,186.32L232.91,184.65L233.14,190.46L233.21,192.36L233.66,201.52L234.12,199.71L234.19,199.49L234.34,200.89L234.72,198.95L234.79,186.56L235.32,201.24L235.85,198.62L235.92,198.4L236.15,200.73L236.23,191.57L236.53,185.79L236.83,190.22L236.9,193.05L237.28,201.33L237.81,200.54L237.88,200.76L237.96,201.79L238.34,199.58L238.56,201.28L238.64,200.3L239.16,200.04L239.62,205.5L239.69,205.53L239.77,205.92L239.84,203.82L239.92,202.14L240.14,193.09L240.37,195.9L240.45,197.44L241.58,206.19L241.65,203.1L242.03,193.01L242.25,196.77L242.33,200.1L242.4,202.5L242.86,197.06L243.01,197.84L243.08,199.46L243.16,199.32L243.31,199.65L243.38,201.45L243.46,201.58L243.69,200.94L243.76,199.42L243.91,192.45L244.29,202.64L244.44,202.09L244.51,201.64L244.66,187.46L245.19,205.2L245.27,203.44L245.57,191.15L245.72,196.97L245.8,200.85L245.87,196.11L246.02,202.88L246.47,196.95L246.55,203.9L246.7,197.38L247,207.12L247.15,204.72L247.23,193.35L247.45,187.23L247.83,193.71L247.91,193.7L247.98,193.8L248.21,183.92L248.28,181.34L248.73,203.29L249.04,200.78L249.11,185.79L249.26,184.29L249.41,189.47L249.49,188.55L249.56,191.72L250.09,189.51L250.54,201.26L250.62,202.03L250.77,200.89L250.84,186.2L250.99,184.72L251.15,187.99L251.22,191.34L252.43,206.3L252.5,206.22L252.8,191.94L253.1,198.48L253.18,201.05L254.08,206.21L254.16,206.18L254.23,206.47L254.39,205.99L254.46,202.99L254.91,198.14L255.21,202.02L255.29,201.94L255.52,197.45L256.04,201.84L256.12,201.8L256.42,200.08L256.72,200.83L256.8,201.18L257.32,198.65L257.7,204.04L257.78,204.08L257.85,205.72L258.08,193.75L258.15,191.65L258.38,191.35L258.45,194.13L259.66,205.67L259.74,204.37L259.89,204.31L259.96,203.06L260.11,204.35L260.19,196.7L260.26,196.2L260.41,199.21L260.49,201.69L260.64,202.29L260.94,199.15L261.17,202.08L261.24,203.02L261.47,205.57L261.62,203.44L261.69,193.19L261.92,190.02L262.22,197.12L262.3,198.25L262.37,197.15L262.6,202.47L262.82,201.08L262.9,201.49L263.28,205.92L263.5,202.44L263.58,192.94L263.65,191.84L264.03,197.48L264.11,198.59L264.26,198.64L264.33,199.9L264.41,200.09L264.48,198.92L264.56,201.8L264.71,204.34L264.78,205.8L265.09,206.24L265.16,205.47L265.24,195.84L265.31,191.94L265.91,200.29L265.99,200.31L266.14,200.48L266.22,203.26L266.29,201.1L266.59,206.52L266.82,206.52L266.89,206.54L267.27,190.84L267.65,197.83L267.72,199.1L267.8,199.46L267.95,198.3L268.02,196.79L268.1,190.5L268.63,205.41L268.7,205.88L268.85,205.84L268.93,203.81L269.08,190.08L269.38,195.16L269.46,198.63L269.76,202.93L269.91,197.55L270.36,201.23L270.43,201.3L270.81,202.34L270.89,201.36L270.96,194.78L272.32,205.87L272.39,203.93L272.85,196.64L273.07,202.7L273.15,203.75L273.22,204.78L273.6,200.53L273.68,201.75L273.75,200.58L274.05,206.01L274.43,202.73L274.5,192.61L274.58,191.62L274.88,196.85L274.96,199.1L275.41,197.17L275.48,201.87L275.56,201.89L275.94,203.54L276.16,203.24L276.24,193.83L276.31,192.79L276.61,197.05L276.69,199.31L277.67,207.7L277.74,208.12L278.2,197.2L278.5,200.56L278.57,206.84L279.03,203.95L279.18,207.47L279.33,206.05L279.4,207.1L279.55,208.08L279.78,205.8L279.85,204.73L280.08,205.76L280.16,200.51L280.68,203.91L280.91,202.39L280.98,201.3L281.66,203.56L281.81,202.49L281.89,198.26L282.19,203.97L282.64,201.36L282.72,202.43L282.79,201.35L283.32,203.56L283.4,203.56L283.85,202.44L284.07,203.67L284.15,203.65L284.3,203.4L284.37,198.74L285.13,203.46L285.43,202.25L285.51,202.05L286.03,203.49L286.11,203.45L286.18,200.66L287.09,203.13L287.16,201.91L287.46,202.43L287.54,203.62L287.77,203.74L287.92,203.45L287.99,201.89L288.52,202.02L288.59,203.18L288.82,203.07L288.9,201.91L289.2,201.21L289.65,203.34L289.72,203.32L289.8,202.19L289.95,202.41L290.03,204.26L290.4,206.37L290.63,203.35L290.7,202.18L291.01,199.91L291.31,204.97L291.53,203.97L291.61,202.27L292.21,207.26L292.36,204.1L292.44,203.26L292.74,201.9L292.81,198.43L292.89,198.67L292.96,202.21L293.12,204.49L293.49,199.77L293.57,201.36L293.64,200.1L294.32,202.87L294.47,201.65L294.55,201.55L295,203.22L295.15,203.11L295.23,199.99L295.38,201.12L295.45,199.82L295.53,201.13L295.6,201.93L295.83,202.94L296.21,201.45L296.28,201.45L296.36,201.48L296.81,202.86L296.96,202.73L297.03,199.79L297.11,199.48L297.34,201.17L297.41,201.12L297.49,201.1L297.64,202.41L298.24,201.1L298.31,201.07L298.69,202.57L298.77,202.3L298.84,198.73L299.07,198.66L299.67,201.87L299.75,201.81L299.82,200.24L300.12,200.92L300.2,202.3L300.58,202.21L300.65,200.09L301.18,200.23L301.25,201.69L301.48,201.79L301.55,200.46L302.23,202.28L302.38,202.21L302.46,200.85L302.69,200.74L302.76,201.37L302.84,202.17L302.99,203.67L303.44,200.59L303.51,202.04L303.59,202.03L304.04,202.27L304.34,199.5L304.49,200.66L304.57,202.58L304.8,204.74L305.02,202.08L305.17,202.14L305.25,200.73L305.62,200.82L305.7,202.21L306,202.07L306.08,198.31L306.3,197.59L306.45,199.85L306.53,199.94L306.98,201.55L307.36,200.85L307.43,200.94L307.66,202.32L307.96,199.09L308.04,200.47L308.11,199.05L308.71,201.97L308.94,200.56L309.01,200.54L309.47,202.47L309.62,202.18L309.69,198.93L309.92,198.88L310.6,201.79L310.67,200.36L310.97,201.08L311.05,201.34L311.28,202.81L311.58,198.89L311.65,200.45L311.73,199.02L312.33,201.95L312.48,200.51L312.56,200.54L313.08,203.33L313.23,202.87L313.31,201.02L313.84,200.83L313.91,202.21L314.14,202.32L314.21,201.02L314.97,204.1L315.12,202.87L315.19,202.68L315.27,202.22L315.42,204.7L315.49,205.47L315.65,206.6L315.95,203.42L316.02,202.36L316.7,204.26L316.85,203.69L316.93,201.4L317,201.56L317.08,204.21L317.53,206.66L317.76,203.18L317.83,203.2L318.21,201.81L318.43,203.35L318.58,202.99L318.66,202.43L318.96,198.87L319.34,203.24L319.41,202.7L319.71,201.35L320.09,202.06L320.17,203.26L320.47,203.08L320.54,200.15L320.77,199.32L321,201.44L321.07,201.21L321.15,202.07L321.45,202.41L321.52,200.71L322.2,202.95L322.28,202.93L322.35,199.7L322.58,197.26L322.88,200.05L322.95,202.22L323.26,202.48L323.33,201.08L323.56,201.64L323.71,201.37L323.78,202.65L324.08,202.66L324.16,199.58L324.31,200.48L324.39,199.1L324.69,199.6L324.76,202.16L325.06,202.25L325.14,200.9L325.44,201.51L325.52,202.77L325.82,203.11L325.89,202.95L325.97,201.5L326.5,201.2L326.57,202.49L326.8,202.43L326.87,201.19L327.63,203.78L327.7,203.74L327.78,202.53L327.85,201.81L328.15,205.31L328.23,206.25L328.38,206.91L328.46,206.19L328.53,203.66L328.68,201.64L329.06,204.78L329.13,206.35L329.51,206.97L329.59,206.24L329.89,206.77L329.96,206.73L330.19,207.27L330.49,206.67L330.57,204.49L331.09,206.36L331.47,200.81L331.54,202.03L332,206.04L332.3,203.18L332.37,201.6L332.52,201.42L332.75,202.5L332.83,203.6L333.13,203.28L333.2,200.17L333.73,204.46L334.03,203.27L334.11,202.78L334.18,201.54L334.78,203.83L334.86,203.83L334.94,203.63L335.01,200.99L335.24,200.47L335.31,202.59L335.39,202.86L335.69,204.27L335.76,203.76L335.84,203.07L335.99,201.64L336.37,203.26L336.44,204.46L336.52,204.71L336.74,203.6L336.82,200.46L336.89,200.26L337.12,201.79L337.2,202.06L337.35,202.12L337.42,203.3L337.5,203.49L337.65,202.75L337.72,202.73L337.8,201.54L337.87,201.71L337.95,195.96L338.33,203.94L338.7,201.42L338.78,201.38L339.16,201.56L339.23,202.72L339.46,202.63L339.53,201.37L340.29,204.31L340.36,204.05L340.44,202.62L340.66,202.47L340.74,202.82L340.81,203.95L340.96,204.93L341.34,202.12L341.49,203.47L341.57,203.55L341.94,203.91L342.47,201.2L342.55,202.83L342.7,203.89L343.15,203.33L343.22,202.21L343.6,202.48L343.68,203.61L343.98,203.33L344.05,200.66L344.28,200.49L344.96,203.01L345.03,201.84L345.56,203.94L345.79,203.57L345.86,200.78L346.09,200.67L346.46,203.14L346.77,203.02L346.84,201.98L347.44,204.54L347.59,204.11L347.67,201.5L347.9,201.18L348.27,204.98L348.57,203.58L348.65,202.63L348.88,203.12L348.95,203.64L349.18,204.64L349.4,204.51L349.48,202.05L349.7,201.72L349.93,202.88L350.01,202.88L350.08,203.87L350.38,203.79L350.46,202.8L350.76,203.91L350.83,204.78L351.66,203.03L351.81,203.16L351.89,204.15L352.27,203.02L352.34,204.08L352.57,203.95L353.7,206.97L353.77,206.87L353.85,205.74L354,204.06L354.3,206.02L354.45,205.7L354.53,206.82L354.9,206.28L355.2,208.04L355.28,208.83L355.43,210.1L355.73,206.38L355.81,205.44L356.11,206.14L356.18,204.71L356.56,206.49L356.64,205.23L356.71,203.28L356.79,203.02L356.86,203.94L356.94,203.31L357.01,205.25L357.31,206.43L357.62,205.36L357.69,204.17L357.84,204.13L357.92,204.54L357.99,205.07L358.37,206.06L358.52,204.1L358.6,204.05L359.2,205.41L359.42,205.18L359.5,204.6L359.88,205.3L359.95,205.96L360.25,205.78L360.33,204.14L360.55,204L361.23,205.42L361.31,204.78L361.46,201.41L361.99,206.04L362.06,206.05L362.36,204.41L362.82,205.71L362.89,205.71L362.97,201.28L363.04,205.73L363.64,205.12L363.72,205.67L363.87,206.21L364.02,205.3L364.32,205.28L364.4,205.28L364.77,205.89L364.85,205.29L364.93,201.69L365.68,206.2L365.9,205.66L365.98,205.62L366.13,200.58L366.58,206.15L366.81,201.84L366.88,202.94L367.04,202.62L367.11,203.29L367.19,204.56L367.49,206.67L368.01,206.3L368.09,206.02L368.17,206.68L368.54,205.24L368.62,205.24L368.69,202.2L369.14,205.69L369.52,204.24L369.6,203.42L370.05,201.3L370.12,205.12L370.2,199.89L370.35,200.16L370.43,204.61L370.95,205.71L371.1,205.42L371.18,203.48L371.78,205.23L372.08,205.01L372.16,204.22L372.54,204.75L372.61,205.5L372.91,205.28L372.99,203.42L373.21,203.35L373.89,204.94L373.97,199.39L374.57,205.24L374.8,203.3L374.87,203.29L375.02,203.18L375.63,204.89L375.7,204.88L375.78,204.04L375.93,200.02L376.23,205.2L376.45,205.15L376.53,205.21L377.13,204.11L377.28,204.92L377.36,204.89L377.58,204.03L377.96,205.79L378.04,205.8L378.34,206.33L378.56,205.12L378.64,205.07L378.87,204.91L378.94,205.3L379.02,205.81L379.32,204.53L379.77,204.84L379.84,205.53L380.15,205.44L380.22,204L380.82,206.97L381.05,205.36L381.13,205.05L381.2,204.28L381.8,205.31L381.88,205.11L382.26,202.83L382.63,204.62L382.71,204.61L382.93,204.59L383.01,203.75L383.69,205.51L383.76,205.33L383.84,203.14L383.99,203.81L384.06,203.01L384.22,203.89L384.29,203.95L384.52,204.8L385.12,204.45L385.19,204.51L385.42,205.27L385.65,203.34L385.8,204.14L385.87,203.33L386.25,205.4L386.7,204.16L386.78,204.15L387.08,206.8L387.38,205.43L387.46,203.91L387.68,203.42L387.91,204.72L387.98,204.98L388.43,204.13L388.81,205.74L388.89,205.8L389.11,206.06L389.19,205.87L389.26,204.76L389.57,204.48L389.79,204.79L389.87,205.5L390.17,204.5L390.32,205.45L390.39,205.62L390.54,204.98L390.92,206.02L391.07,205.56L391.15,205.49L391.6,205.34L391.83,205.95L391.9,202.32L392.13,202.37L392.2,203.6L392.81,206.13L393.03,205.48L393.11,204.75L393.48,206.47L393.86,205.08L393.94,205.09L394.31,205.78L394.39,206.6L394.54,207L394.61,205.85L394.69,204.41L394.76,204.19L394.91,204.96L394.99,206.17L396.05,206.96L396.12,207.3L396.42,207.06L396.5,205.8L397.1,206.99L397.4,206.74L397.48,206.34L398.23,207.01L398.31,205.79L398.53,205.68L398.91,206.56L399.13,205.8L399.21,201.1L399.36,200.47L399.44,201.45L399.51,205.61L399.59,203.17L399.81,206.69L400.26,204.6L400.34,203.89L400.72,205.69L401.24,205.26L401.32,205.92L401.62,206.38L402.15,204.58L402.3,204.87L402.37,204.97L402.53,205.6L402.83,204.59L402.9,201.48L403.58,206.71L403.73,206.04L403.81,205.86L404.18,205.52L404.26,206.19L404.33,206.59L404.64,205.34L405.09,205.86L405.16,206.36L405.46,206.38L405.54,205.12L405.77,204.91L405.92,206.19L405.99,206.54L406.14,206.59L406.29,205.85L406.37,205.84L406.52,205.28L406.97,206.15L407.05,206.15L407.12,206.13L407.27,205.91L407.35,203.82L407.42,203.27L407.88,204.63L407.95,205.39L408.33,204.47L408.48,204.92L408.55,205.44L409.08,205.86L409.16,203.88L409.38,203.62L409.61,204.6L409.68,204.59L409.76,205.3L410.21,204.66L410.29,204.88L410.36,205.36L410.81,206.27L410.89,206.09L410.96,204.36L411.19,204.19L411.87,205.61L411.94,204.73L412.55,206.7L412.7,206.27L412.77,204.41L412.92,204.88L413,204.16L413.3,204.9L413.38,205.57L413.75,204.36L414.05,205.31L414.13,205.94L414.51,205.88L414.58,204.33L414.73,203.86L415.11,204.42L415.18,205.35L415.49,204.89L416.24,206.39L416.31,206.25L416.39,205.58L416.69,205.33L417.07,205.91L417.14,205.89L417.29,205.37L417.52,206.14L417.82,206.17L417.9,206.17L418.12,206.18L418.2,205.06L418.42,204.62L418.65,205.66L418.73,205.61L418.8,205.84L419.55,205.45L419.63,206.04L419.93,205.88L420.01,203.99L420.91,205.45L420.99,204.76L421.36,205.3L421.44,205.95L421.74,205.83L421.82,204.09L422.04,203.97L422.72,205.47L422.79,204.78L423.17,205.22L423.25,205.85L423.55,205.86L423.62,204.07L424.53,205.54L424.6,204.86L424.98,205.25L425.06,205.88L425.36,205.88L425.43,204.01L426.26,205.6L426.34,205.57L426.41,204.86L426.71,205.18L426.79,205.81L427.09,206.62L427.24,204.98L427.32,204.8L427.77,205.31L427.84,205.64L428.14,205.02L428.37,205.53L428.45,206.25L428.52,205.21L428.97,206.49L429.2,205.93L429.28,205.61L430.03,205.62L430.1,206.2L430.33,205.59L430.78,206.61L430.86,205.35L431.08,205L431.23,205.72L431.38,205.55L431.46,206.1L432.14,204.95L432.21,205.34L432.29,205.95L432.59,205.69L432.67,204.21L432.82,204.57L432.89,203.43L433.19,204.22L433.27,205L433.49,205.07L433.57,199.5L433.8,198.64L433.87,204.6L434.1,206.13L434.47,203.7L434.55,203.7L435.23,205.36L435.38,205.22L435.45,200.05L436.06,205.99L436.21,205.73L436.28,203.93L437.04,205.42L437.11,205.37L437.19,200.39L437.41,198.73L437.56,202.66L437.64,204.4L437.87,206.14L438.09,204.1L438.39,204.96L438.47,205.1L438.62,204.97L438.69,205.77L439,205.63L439.07,201L439.22,200.43L439.3,205.17L439.75,206.94L440.05,205.5L440.13,205.5L441.03,206.09L441.11,206.58L441.63,207L441.86,206.53L441.93,206.47L443.44,207L443.52,206.24L444.42,206.93L444.5,206.53L445.1,207.08L445.17,207.1L445.4,205.8L445.93,206.74L446,206.73L447.06,206.94L447.13,205.68L448.04,206.57L448.11,206.1L448.87,206.84L448.94,205.49L449.17,205.38L449.77,206.44L449.85,203.46L449.92,202.97L450.15,206.4L450.22,206.36L450.6,206.81L450.67,206.76L450.75,205.4L451.65,206.39L451.73,205.88L452.03,206.36L452.11,206.8L452.48,206.77L452.56,205.94L453.69,206.46L453.76,206.79L454.22,206.95L454.59,206.38L454.67,206.36L456.1,206.87L456.18,206.12L456.4,205.99L457.08,206.77L457.15,206.33L457.91,206.81L457.98,205.49L458.89,206.46L458.96,206.03L459.04,206.02L459.57,207L459.72,206.83L459.79,205.51L460.62,206.47L460.7,203.51L460.92,203.54L461,204.69L461.3,206.86L461.75,206.03L461.83,205.55L462.2,206.52L462.35,206.46L462.43,202.54L462.58,201.51L462.96,204.79L463.03,205.63L463.26,205.62L463.33,204.72L463.48,200.02L464.01,206.51L464.09,203.14L464.16,202.71L464.31,201.77L464.69,203.98L464.77,204.82L465.07,206.89L465.52,206.06L465.59,206.06L465.9,206.58L465.97,203.28L466.2,202.84L466.42,204.94L466.5,206.8L466.95,207.19L467.25,206.75L467.33,203.85L467.48,204.21L467.85,203.24L468.08,203.88L468.16,204.24L468.61,205.74L468.76,204.68L468.83,203.28L468.91,202.54L468.99,206.62L469.21,206.6L469.29,206.6L469.51,206.99L469.59,203.89L469.81,202.59L470.12,204.28L470.19,206.61L470.42,207.02L470.57,204.82L470.64,201.7L470.72,200.68L471.02,203.2L471.17,203.2L471.25,203.7L471.47,202.31L471.55,206.57L471.62,206.1L471.7,206.15L472.3,207.25L472.38,207.2L472.45,205.97L472.68,205.8L473.05,206.82L473.13,206.75L473.2,204.26L473.51,203.43L473.73,205.24L473.81,205.91L473.96,206.58L474.18,205.57L474.26,202.94L474.33,202.14L474.71,204.14L474.94,203.49L475.01,203.54L475.84,207.24L475.92,207.23L476.29,205.7L476.6,206.19L476.67,206.67L477.35,206.84L477.42,207.22L477.8,207.13L477.88,206.24L478.1,202.6L478.48,206.69L478.78,202.96L478.86,203.02L479.53,207L479.61,205.83L479.68,205.37L479.91,206.43L479.99,202.26L480.21,206.46L480.29,206.87L480.44,206.85L480.51,203.51L480.66,203.12L481.04,204.5L481.12,205.36L481.34,204.98L481.42,204.19L481.49,202.46L481.95,206.78L482.02,206.77L482.1,207.01L482.47,202.97L482.85,206.62L482.92,207.05L483.23,207.01L483.3,205.71L484.21,206.69L484.28,206.24L484.58,206.88L484.66,206.21L484.73,207.23L485.03,206.1L485.11,203.12L485.71,206.69L485.86,203.89L485.94,203.41L486.09,202.95L486.17,206.24L486.24,206.3L486.77,207.25L486.92,205.93L486.99,205.86L487.14,205.81L487.67,206.74L487.75,203.67L487.9,203.23L488.05,204.25L488.12,206.84L488.35,207.07L488.95,205.61L489.25,206.19L489.33,206.69L490.01,206.66L490.08,207.03L490.46,206.96L490.54,206.11L490.61,205.89L491.14,206.64L491.21,206.64L491.44,203.44L491.97,205.93L492.04,205.94L492.42,205.18L493.02,207.06L493.1,204.41L493.25,203.6L493.7,205.24L493.78,205.98L494.23,202.16L494.3,206.61L494.6,206.69L495.13,202.48L495.43,203.89L495.51,205.05L495.66,206.99L496.04,200.66L496.26,206L496.34,205.98L496.64,206.25L496.71,202.12L496.94,200.57L497.24,203.96L497.32,204.76L497.54,205.52L497.69,204.03L497.77,200.5L497.84,197.41L498.22,206.13L498.45,203.08L498.52,201.5L498.67,200.05L499.05,203.11L499.13,203.89L499.28,204.7L499.5,203.65L499.58,200.32L499.65,199.77L499.73,205.91L500.18,206.57L500.33,202.39L500.41,200.93L500.56,200.5L500.71,201.73L500.78,203.55L501.24,205.42L501.31,204.45L501.39,200.77L501.46,199.32L501.84,205.95L502.06,202.14L502.14,201.57L502.29,199.71L502.74,203.51L502.82,204.41L503.04,204.84L503.19,202.79L503.27,202.01L503.5,199.24L503.72,206.1L503.8,206.55L504.17,201.05L504.55,204.24L504.63,204.94L504.93,204.35L505,203.89L506.06,200.25L506.13,201.52L506.66,202.79L506.74,201.94L506.81,199.9L506.89,198.65L507.26,202.67L507.41,202.24L507.49,201.67L507.72,196.89L508.17,200.77L508.24,202.14L508.47,201.28L508.54,190.36L508.7,170.44L509.22,188.56L509.3,188.56L509.52,180.73L509.83,197.92L509.9,194.4L509.98,196.44L510.13,198.01L510.35,188.39L510.43,180.39L510.5,173.78L511.03,192.88L511.11,191.54L512.01,206.97L512.16,206.62L512.24,199.81L512.69,206.21L512.91,201.87L512.99,199.55L513.14,198.65L513.29,200.38L513.37,201.08L513.67,204.44L513.97,200.82L514.04,195.73L514.35,204.46L514.95,191.26L515.02,191.15L515.63,199.19L515.85,194.58L515.93,192.89L516.08,188.78L516.31,197.12L516.38,199.71L516.68,194.16L516.98,201.24L517.06,202.87L517.51,204.53L517.66,203.51L517.74,201.53L518.26,202.75L518.57,197.58L518.64,199.8L519.24,203.93L519.39,203L519.47,197.86L519.92,203.65L520.37,191.5L520.45,191.66L520.53,191.52L520.6,192.14L520.68,193.15L520.9,196.14L521.05,195.28L521.13,193.56L521.35,176.67L521.81,189.49L521.88,189.53L522.11,183.83L522.41,187.58L522.48,190.8L522.56,190.66L522.64,193.07L522.79,196.24L523.09,184.65L523.16,180.77L523.69,194.18L523.99,189.02L524.07,188.46L524.67,197.23L524.82,193.59L524.9,183.42L524.97,178.82L525.5,191.98L525.57,190.17L525.72,184.62L526.18,195.63L526.25,199.78L526.33,201.56L526.63,195.68L526.7,189.51L526.78,184.13L527.38,191.9L527.46,190.06L527.61,188.38L528.06,193.48L528.14,194.36L528.29,197.04L528.59,190.36L528.66,188.54L528.89,184.95L529.12,188.76L529.42,186.68L529.49,186.99L530.02,194.25L530.32,189.95L530.4,187.7L530.77,189.2L531.15,180.2L531.23,181.6L531.3,183.97L531.83,198.97L532.05,192.08L532.13,184.77L532.2,180.62L532.58,192.54L532.81,188.55L532.88,185.39L532.96,183.44L533.33,188.64L533.41,187.47L533.49,190.61L533.64,192.77L533.86,189.78L533.94,152.08L534.01,138.4L534.47,182.52L534.54,178.83L534.62,178.63L534.77,165.73L535.29,190.74L535.37,193.09L535.52,193.36L535.6,193.24L535.67,190.66L535.82,177.86L536.42,186.57L536.5,185.07L536.57,182.63L537.03,188.92L537.1,191.1L537.18,193.28L537.48,189.2L537.55,181.21L537.63,173.98L538.08,184.37L538.23,182.58L538.31,181.31L538.38,178.78L538.84,184.87L538.91,187.7L538.99,189.87L539.29,186.24L539.36,177.22L539.44,172.9L539.89,181.78L540.04,180.86L540.12,177.34L540.19,175.46L540.64,183.23L540.72,185.79L540.95,188.23L541.1,187.28L541.17,175.3L542,153.45L542.08,158.44L542.68,189.28L542.9,187.58L542.98,183.97L543.81,151.96L543.88,168.37L543.96,176.7L544.56,196.62L544.86,185.25L544.94,187.73L545.32,188.17L545.69,177L545.92,182.03L545.99,185.23L546.37,198.87L546.52,188.14L546.6,176.99L547.05,177.05L547.43,160.69L547.5,163.13L548.25,186.81L548.33,182.89L548.41,170.09L548.93,171.62L549.23,146.83L549.31,143.64L549.99,187.01L550.14,182.4L550.21,172.65L550.29,163.06L550.67,180.95L550.89,177.23L550.97,175.01L551.04,171.36L551.49,184.55L551.57,188.1L551.87,196.71L551.95,187.8L552.02,176.44L552.1,166.87L552.7,179.88L552.78,177.06L552.85,175.05L553.23,182.81L553.3,184.72L553.6,200.49L553.91,184.04L553.98,179.91L554.13,175.19L554.51,182.21L554.73,179.32L554.81,180.83L555.56,199.54L555.71,195.3L555.79,191.05L556.47,184.99L556.62,185.9L556.69,187.98L557.3,195.48L557.45,189L557.52,182.53L557.9,189.15L558.2,183.72L558.28,179.63L558.95,194.45L559.18,190.54L559.26,181.97L559.63,186.01L560.16,158.4L560.24,172.3L560.84,190.14L560.99,184.89L561.06,173.5L561.14,155.06L561.52,180.05L561.82,170.27L561.89,160L561.97,156.6L562.19,177.77L562.27,181.17L562.65,189.34L562.8,185.12L562.87,176.35L562.95,167.15L563.4,180.28L563.55,179.18L563.63,175.64L563.7,173.51L564.08,183.71L564.15,184.75L564.3,188.84L564.61,183.44L564.68,172.28L564.76,164.02L565.13,177.37L565.36,176.8L565.43,174.65L565.51,170.76L565.96,182.48L566.04,186.42L566.26,193.11L566.56,180.98L566.64,177.39L567.39,170.95L567.47,172.83L567.54,174.96L568.15,186.15L568.37,180.89L568.45,175.36L569.2,157.66L569.28,168.97L569.35,171.01L569.88,184.6L570.11,172.53L570.18,166.74L570.56,176.37L570.86,166.39L570.94,156.11L571.76,182.84L571.84,179.25L571.91,168.06L572.14,156.95L572.59,173.53L572.67,172.53L572.74,167.68L573.2,182.81L573.27,185.99L573.5,188.2L573.65,185.89L573.72,175.94L574.55,164.1L574.63,164.74L575.31,182.86L575.46,177.56L575.53,161.09L575.61,142.05L575.98,165.75L576.28,155.68L576.36,150.15L576.44,147.3L576.66,162.49L576.74,168.39L577.11,179.54L577.26,173.27L577.34,158.95L578.17,130L578.24,143.7L578.85,176.15L579.15,165.27L579.22,157.69L580.05,138.75L580.13,141.95L580.81,175.24L581.03,165.05L581.11,159.08L581.86,149.64L581.94,156.42L582.61,187.01L582.92,177.02L582.99,174.26L583.52,166.72L583.59,158.39L583.67,155.16L583.97,167.42L584.05,171.18L584.27,181.86L584.57,157.93L584.65,140.79L585.03,164.5L585.4,148.56L585.48,150.75L586.16,180.14L586.31,173.26L586.38,155.58L586.46,141.87L586.76,156.74L587.14,151.88L587.21,146.52L587.66,170.99L587.74,174.16L588.04,178.84L588.19,163.1L588.27,157.95L588.87,181.4L589.09,174.54L589.17,174.7L589.47,182.67L589.55,187.06L589.85,197.39L590,177.82L590.07,170.26L590.45,182.49L590.83,175.69L590.9,177.08L591.66,193.72L591.73,189.44L591.81,184.35L592.11,168.24L592.71,169.69L592.79,171.11L592.94,174.85L593.01,179.46L593.47,185.33L593.62,180.98L593.69,176.86L594.52,150.99L594.67,156.9L594.75,162.53L595.27,175.83L595.35,172.54L595.42,162.59L595.88,164.61L596.33,143.06L596.4,142.97L597.08,178.02L597.23,154.13L597.31,136.71L597.91,157.15L598.06,148.02L598.14,148.66L598.81,177.55L598.97,169.81L599.04,155.78L599.87,116.56L599.95,121.82L600.7,173.51L600.85,155.28L600.92,135.66L601.3,154.76L601.6,132.81L601.68,109.82L602.36,176.3L602.66,154.56L602.73,127.98L602.81,128.48L602.88,119.94L603.34,141.8L603.49,106.5L603.56,112.83L604.24,173.02L604.47,161.29L604.54,147.14L605.3,96.04L605.37,106.74L605.45,122.18L606.05,165.96L606.35,157.58L606.43,146.41L607.18,123.73L607.25,133.09L607.33,139.61L607.78,162.52L608.08,152.29L608.16,141.7L608.23,153.21L608.84,137.31L608.91,130.37L608.99,130.13L609.06,131.13L609.14,139.62L609.67,162.88L609.82,155.63L609.89,138.04L610.65,72.7L610.72,89.32L610.8,120.97L611.47,161.61L611.62,155.87L611.7,136.07L611.85,36.67L612.45,89.35L612.53,105.75L613.36,163.81L613.51,142.46L613.58,118.24L613.73,115.8L614.19,140.1L614.26,126.57L614.34,117.63L615.09,169.25L615.32,146.97L615.39,129.22L616.3,153.91L616.37,155.1L616.9,176.74L617.2,163.12L617.28,154.88L617.43,145.03L617.73,157.77L618.03,152.2L618.1,158.57L618.78,182.79L619.01,176.73L619.08,173.24L619.31,163.22L619.84,171.91L619.91,172.92L620.59,193.32L620.74,181.4L620.82,176.21L621.27,179.71L621.5,173.21L621.57,170.26L621.65,169.35L621.87,174.03L621.95,175.27L622.32,190.23L622.48,185.88L622.55,171.27L623.38,156.79L623.45,155.24L624.13,181.1L624.28,177.05L624.36,162.35L624.43,149.51L625.04,162.97L625.11,159.96L625.19,158.45L626.02,181.22L626.09,176.64L626.17,166.36L626.24,149.68L626.92,158.13L627,152.69L627.67,177.37L627.9,171.89L627.98,156.6L628.05,138.2L628.73,148.31L628.8,144.57L628.96,149.84L629.03,154.25L629.63,178.86L629.86,164L629.93,153.81L630.01,147.88L630.39,165.67L630.54,162.59L630.61,160.57L631.52,186.45L631.74,177.64L631.82,174.18L631.89,172.52L632.27,181.14L632.35,181.03L632.42,178.5L632.87,187.37L632.95,189.34L633.25,195.45L633.48,181.91L633.55,186.91L633.63,184.68L633.93,189.76L634,188.21L634.08,185.34L634.38,179.88L634.68,185.63L634.76,187.87L634.98,190.4L635.13,186.05L635.21,176.59L635.28,170.2L635.74,179.59L635.89,178.96L635.96,177.85L636.04,175.45L636.42,184.44L636.49,185.7L636.79,191.13L637.02,178.39L637.09,172.1L637.62,179.39L637.85,173.42L637.92,173.29L638.68,193.56L638.75,189.24L638.83,178.97L639.35,179.57L639.66,168.32L639.73,167.95L640.48,190.55L640.63,180.73L640.71,170.85L641.31,180.15L641.46,175.73L641.54,175.77L641.77,178.46L641.84,183.44L642.22,199.58L642.52,183.81L642.59,180.39L643.35,172.62L643.42,175.29L643.5,176.98L644.03,199.42L644.33,189.71L644.4,183.15L645.08,168.38L645.31,172.9L645.38,176.24L645.98,186.43L646.06,181.56L646.14,172.58L647.11,184.6L647.19,185.34L647.79,194.02L647.94,188.22L648.02,182.44L648.09,175.3L648.77,178.41L648.85,179.64L648.92,177.44L649.22,183.69L649.3,189.69L649.9,167.83L650.28,170.84L650.36,171.7L650.73,170.66L650.81,171.95L651.33,180.03L651.41,176.34L651.49,165.59L651.56,157.58L651.86,169.13L652.24,163.3L652.31,162.28L652.62,173.37L652.69,176.9L653.07,191.84L653.37,174.74L653.44,180.02L653.52,175.17L653.67,176.35L654.12,169.86L654.35,171.72L654.42,174.85L655.03,189.88L655.18,182.91L655.25,177.18L655.93,168.33L656.08,169.98L656.16,170.77L656.84,184.45L656.99,179.5L657.06,176.68L657.21,170.95L657.51,177.78L657.81,171.01L657.89,173.95L658.57,191.55L658.72,184.27L658.79,179.31L658.87,182.13L659.4,178.78L659.47,176.42L659.55,174.18L660,180.12" style="fill: rgb(54, 112, 97); fill-opacity: 0.5; stroke-width: 0;"/></g></g><g class="errorbars"/><g class="lines"><path class="js-line" d="M0,175.77L0.53,188.08L0.68,173.63L0.75,169.95L0.83,166.9L1.13,172.16L1.43,170.44L1.51,170.6L1.58,170.81L1.66,174.89L1.73,175.08L1.81,172.35L2.03,176.05L2.26,160.14L2.34,145.36L2.79,157.73L3.01,149.12L3.09,142.42L3.16,140.85L3.32,148.05L3.39,153.66L3.77,170.07L3.99,162.24L4.07,148.1L4.14,126.63L4.82,136.98L4.9,130.97L5.12,139.11L5.2,149.4L5.65,182.03L5.95,151.71L6.03,159.06L6.56,161.23L6.71,153.12L6.78,155.22L6.86,156.06L7.23,175.17L7.31,177.74L7.46,180.83L7.61,175.17L7.69,161.62L8.51,134.94L8.59,135.02L8.67,140.6L9.34,180.97L9.64,161.52L9.72,154.82L9.87,154.24L9.95,157.11L10.02,159.49L10.1,159.81L10.17,157.13L10.25,154.92L10.32,145.86L10.85,171.64L10.93,177.77L11.15,183.08L11.3,178.42L11.38,172.25L11.6,161.31L11.98,172.61L12.13,170.52L12.21,170.16L12.58,193.31L12.66,198.3L12.89,203.89L13.26,190.55L13.34,180.9L13.49,179.98L13.56,180.3L13.64,182.37L14.02,173.84L14.32,180.88L14.39,186.22L14.69,197.09L14.92,173L14.99,162.94L15.15,162.13L15.45,172.54L15.67,165.29L15.75,156.81L16.35,187.22L16.65,180.38L16.73,163.71L16.8,150.72L17.26,165.54L17.41,165.1L17.48,163.78L17.56,159.12L17.86,175.01L17.93,181.35L18.31,200.4L18.54,182.25L18.61,166.81L19.06,177.14L19.37,168.31L19.44,168.19L19.89,191.12L19.97,203.91L20.27,194.24L20.34,177.55L20.42,165.89L20.87,179.35L21.1,175.82L21.17,169.76L21.25,168.64L21.4,173.29L21.48,177.49L21.85,201.54L22.23,182.05L22.3,174.79L22.45,170.05L22.76,179.26L23.06,172.45L23.13,174.25L23.74,189.36L23.81,196.65L23.96,194.14L24.04,184.6L24.34,167.59L24.94,171.75L25.02,172.64L25.62,202.78L25.92,198.74L26,188.71L26.67,171.43L26.82,172.24L26.9,173.89L27.28,184.18L27.5,174.3L27.58,160.17L27.65,145.84L28.11,164.18L28.33,157.55L28.41,150.94L28.48,149.95L28.56,153.89L28.63,159.33L29.09,183.81L29.31,177.49L29.39,163.43L29.46,154.69L29.84,170.39L30.14,160.18L30.22,155.83L30.74,176.9L30.82,180.4L30.89,180.17L31.04,180.78L31.12,176.25L31.27,148.38L31.87,166.91L31.95,162.21L32.02,156.57L32.48,173.9L32.55,178.81L32.85,182.33L32.93,177.38L33,164.17L33.08,146.71L33.76,150.19L33.83,147.39L34.51,173.59L34.81,164.61L34.89,160.33L35.11,127.23L35.64,147.18L35.72,144.27L36.47,166.37L36.62,163.1L36.7,154.69L37.52,126.31L37.6,140.31L38.05,162.05L38.35,157.53L38.43,145.07L39.11,147.12L39.26,125.68L39.33,121.83L40.09,164.19L40.16,159.59L40.24,143.82L40.31,104.57L40.99,130.81L41.07,117.18L41.14,117.63L41.22,140.44L41.82,174.18L42.05,155.94L42.12,147.32L42.27,124.58L42.57,149.85L42.87,129.56L42.95,157.51L43.7,183.02L43.78,179.01L43.85,166.46L43.93,147.24L44.53,175.92L44.61,171.63L44.76,164.47L45.21,180.06L45.29,183.56L45.44,184.14L45.51,183.61L45.59,179.7L45.74,157.53L46.42,164.93L46.49,160.79L46.57,160.65L46.64,162.05L47.17,179.14L47.4,175.89L47.47,165.74L47.77,132.11L48.3,133.69L48.38,154.7L49.05,176.84L49.35,169.79L49.43,164.34L49.58,156.64L49.96,169.11L50.18,163.58L50.26,165.48L50.64,177.35L50.71,179.4L50.94,181.55L51.01,178.52L51.09,170.27L51.16,164.21L51.69,179.74L51.77,181.13L51.92,176.76L52.37,186.86L52.44,190.37L52.67,197.79L52.82,189.85L52.9,175.73L52.97,169.9L53.5,184.91L53.57,183.57L53.88,175.2L54.25,184.49L54.33,186.93L54.55,185.11L54.63,181.47L54.78,160.47L55.38,174.89L55.46,173.33L55.53,169.33L55.99,181.69L56.06,181.92L56.36,185.14L56.44,180.63L56.51,167.69L56.59,156.01L57.04,172.24L57.19,170.73L57.27,168L57.34,161.22L57.87,177.15L57.94,179.76L58.02,180.59L58.17,177.22L58.25,173L59.15,135.88L59.23,134.2L59.45,150.7L59.53,159.78L59.9,178.45L60.28,162.82L60.36,158.33L60.73,165.43L60.96,158.2L61.03,157.81L61.56,172.93L61.94,165.47L62.01,159.44L62.16,133.23L62.69,154.18L62.77,150.05L62.84,148.68L62.99,158.1L63.07,162.62L63.6,177.2L63.75,164.77L63.82,159.27L64.27,172.01L64.5,165.79L64.58,159.38L64.65,157.52L64.95,165.79L65.03,167.49L65.33,174.54L65.48,167.51L65.56,140.3L65.63,119.14L66.16,159.87L66.23,157.03L66.31,143.19L66.38,135.4L66.84,166.96L66.91,171.96L67.21,174.55L67.29,169.64L67.36,157.01L67.44,150.58L67.82,165.84L67.97,165.15L68.04,166.93L68.27,159.72L68.64,168.18L68.72,174.61L68.87,178.31L69.1,171.81L69.17,161.41L69.25,151.61L69.78,169.92L69.85,171.64L70,166.64L70.3,173.45L70.38,177.8L70.83,188.36L70.91,184.87L70.98,175.12L71.06,167.45L71.66,181.53L71.73,178.56L71.96,174.76L72.19,180.74L72.26,182.2L72.41,187.01L72.79,179.15L72.86,174.09L73.09,163.2L73.54,175.23L73.62,172.32L73.69,172.76L73.92,177.37L73.99,182.07L74.52,188.96L74.67,183.47L74.75,179.46L75.2,180.22L75.5,167.9L75.58,170.32L75.65,174.21L76.1,183.61L76.33,179.05L76.41,170.23L76.48,162.63L77.01,178.62L77.08,178.15L77.16,172.92L77.31,169.17L77.69,178.81L77.76,181.99L77.91,185.55L78.21,170.02L78.29,163.02L78.82,182.74L79.04,170.7L79.12,170.74L79.19,169.37L79.5,177.75L79.57,181.07L79.72,183.04L79.95,177.4L80.02,164.58L80.1,128.29L80.7,168.89L80.78,158.48L80.85,144.32L80.93,138.67L81.15,167.89L81.23,173.35L81.3,172.36L81.38,177.65L81.45,181.12L81.68,181.21L81.76,176.59L81.98,146.75L82.51,170.05L82.58,166.69L82.74,164.58L82.96,172.27L83.04,175.48L83.26,183.78L83.56,179.53L83.64,166.01L83.87,154.96L84.17,174.46L84.24,173.25L84.32,173.44L84.62,165.98L84.92,177.47L85,178.84L85.3,187.38L85.6,176.3L85.67,171.19L85.75,170.25L85.9,174.26L85.98,177.02L86.35,174.35L87.03,192.68L87.18,189.91L87.26,186.05L87.56,168.95L88.16,171.91L88.24,171.94L88.84,183.78L88.99,178.74L89.06,170.86L89.14,160.48L89.67,178.73L89.74,178.18L89.82,173.87L89.97,166.64L90.42,181.73L90.5,187.08L90.72,195.77L90.95,169.13L91.1,178.71L91.17,181.93L91.55,187.79L91.7,177.16L91.78,174.45L92,177.12L92.08,181.3L92.31,195.41L92.68,177.59L92.76,168.02L93.06,177.42L93.44,170.2L93.51,164.69L93.59,155.79L94.11,181.32L94.19,181.42L94.34,181.43L94.41,178.05L94.57,158.54L95.17,171.78L95.24,166.64L95.32,164.7L95.62,169.03L95.7,173.73L95.85,178.29L95.92,180.24L96.15,180.54L96.22,177.22L96.37,159.44L96.98,174.49L97.05,168.86L97.2,164.28L97.58,176.74L97.65,178.35L97.88,183.66L98.18,174.48L98.26,170.84L98.41,164.47L98.79,173.33L99.01,168.17L99.09,170.25L99.69,183.95L99.99,179.4L100.07,174.01L100.22,170.5L100.52,179.44L100.82,170.61L100.9,170.61L101.42,182.08L101.65,177.06L101.72,169.2L101.8,162.28L102.25,181.11L102.33,181.9L102.7,164.66L102.85,170.47L102.93,173.26L103.23,181.12L103.46,175.23L103.53,163.2L103.68,149.66L104.14,179.18L104.21,179.11L104.51,166.09L104.89,177.84L104.96,179.91L105.04,181.59L105.27,175.91L105.34,166.12L105.42,156.97L105.94,178.11L106.02,178.11L106.25,165.82L106.7,177.55L106.77,182.56L107.07,177.08L107.15,167.43L107.22,147.09L107.83,179.37L107.9,175.74L108.13,167.19L108.51,178.37L108.58,181.84L108.88,176.36L108.96,166.37L109.03,155.17L109.64,177.14L109.71,173.73L109.86,165.44L110.31,177L110.39,178.71L110.69,177.99L110.77,174.58L111.07,158.6L111.37,177.86L111.44,176.86L111.52,175.36L111.59,171.86L112.12,179.26L112.2,182.62L112.35,182.48L112.42,183.77L113.55,164.03L113.63,166.13L113.7,169.75L114.01,177.85L114.31,171.81L114.38,163.61L114.46,154.1L114.91,174.32L114.99,173.9L115.06,172.93L115.36,145.54L115.66,166.05L115.74,167.8L115.89,174.67L116.19,152.93L116.27,124.43L116.87,167.37L117.1,145.19L117.17,138.78L117.7,175.94L118,160.69L118.08,149.86L118.68,169.35L118.83,156.04L118.9,143.86L119.58,170.21L119.73,161.66L119.81,142.85L119.88,120.87L120.49,158.55L120.56,153.54L120.79,136.44L121.09,163.08L121.16,166.75L121.39,171.35L121.54,165.59L121.62,148.78L121.69,130.6L122.29,165.34L122.37,161.42L122.6,143L122.97,166.82L123.05,170.53L123.2,171.07L123.35,167.69L123.43,161.61L123.73,143.85L124.25,149.95L124.33,146.63L125.01,173.62L125.23,166.31L125.31,161.21L125.38,156.06L125.84,171.29L125.91,170.95L125.99,166.83L126.21,157.85L126.59,170.99L126.67,173.57L126.89,174.48L126.97,171.6L127.04,164.61L127.12,157.72L127.64,176.12L127.72,176.99L127.95,161.41L128.32,174.76L128.4,179.34L128.62,186.62L128.85,169.6L128.93,163.22L129.53,175.31L129.68,170.29L129.75,168.76L129.83,167.85L129.98,173.2L130.06,176L130.51,182.94L130.58,180.27L130.66,169.16L130.73,159L131.34,178.11L131.41,172.82L131.71,163.39L132.09,176.14L132.17,174.76L132.39,168.96L132.47,156.41L132.54,137.98L132.99,176.71L133.07,176.14L133.15,175.81L133.52,161.98L133.82,172.34L133.9,174.05L133.97,176.5L134.2,171.95L134.28,159.8L134.35,138.17L134.8,177.15L134.95,176.36L135.03,172.28L135.18,165.51L135.63,180.04L135.71,182.68L135.86,184.46L136.08,178.55L136.16,174.66L136.99,165.8L137.06,168.17L137.52,181.95L137.59,183.68L137.67,184.04L137.82,183.12L137.89,180.02L138.19,170.71L138.42,180.45L138.5,182.08L138.72,173.15L138.8,169.76L139.55,184.82L139.63,181.84L139.7,174.54L139.78,168.68L140.23,179.91L140.38,178.92L140.45,175.38L140.61,171.78L141.06,180.9L141.13,184.2L141.36,184.32L141.43,180.78L141.58,164.47L142.11,180.76L142.19,180.41L142.49,166.21L142.79,175.81L142.87,179.24L143.09,182.63L143.32,168.52L143.39,161.56L144,175.42L144.15,168.65L144.22,167.07L144.6,178.16L144.67,182.12L144.98,187.74L145.13,173.6L145.2,166.29L145.8,183.5L146.03,175.51L146.11,173.73L146.26,175.38L146.33,179.34L146.78,196.57L146.86,188.27L146.93,177.07L147.01,169.93L147.54,184.59L147.61,183.68L147.91,173.9L148.22,182.85L148.29,185.82L148.59,192.89L148.89,179.98L148.97,177.79L149.42,181.83L149.72,175.29L149.8,175.37L149.87,179.67L150.4,202.77L150.63,189.54L150.7,182.81L150.93,175.01L151.53,176.62L151.61,177.39L152.21,185.72L152.28,183.85L152.36,175.57L152.44,167.92L152.96,181.45L153.04,179.84L153.11,175.66L153.34,165.33L153.79,178.44L153.87,179.28L154.09,170.82L154.17,154.6L154.24,154.27L154.32,166.63L154.39,166.85L154.47,172.05L154.85,179.03L155,168.01L155.07,165.6L155.15,163.09L155.45,172.57L155.52,176.36L155.6,178.41L155.83,174.23L155.9,165.12L156.05,134.89L156.43,172.92L156.58,172.52L156.65,173.18L156.88,145.69L157.11,165.19L157.18,172.07L157.41,179.54L157.63,178.33L157.71,173.06L157.86,142.22L158.39,172L158.46,173.11L158.69,149.38L159.07,175.11L159.14,179.11L159.37,181.55L159.52,176.42L159.59,157.57L159.67,144.84L160.05,174.72L160.2,174.51L160.27,175.81L160.57,161.06L160.87,174.13L160.95,179.55L161.1,182.82L161.4,173.25L161.48,166.14L161.63,159.28L162,175.21L162.08,174.41L162.16,172L162.31,165.97L162.76,181.08L162.83,182.57L162.91,183.9L163.29,179.36L163.36,174.95L163.89,178.98L164.11,170.73L164.19,171.88L164.27,172.1L164.64,182.91L165.02,172.47L165.09,169.45L165.7,183.16L165.85,174.49L165.92,167.71L166.07,165.4L166.22,172.18L166.3,172.33L166.6,179.92L166.75,170.73L166.83,151.15L166.9,140.72L167.35,181.64L167.43,180.18L167.66,168.62L167.73,157.34L167.81,154.45L168.03,171.31L168.11,171.84L168.33,180.06L168.56,174.42L168.64,147.87L168.71,140.89L169.01,177.56L169.09,179.43L169.16,181.28L169.39,175.48L169.46,169.29L169.62,163.39L169.99,178.13L170.07,181.52L170.22,181.43L170.29,178.99L170.52,148.9L170.59,170.04L170.67,171.94L171.05,180.33L171.35,169.75L171.42,171.55L171.5,171.34L171.57,173.07L171.65,176.31L171.73,174.87L172.03,182.53L172.1,181.88L172.33,158.04L172.7,172.92L172.78,172.68L173.16,163.27L173.46,171.62L173.53,173.76L173.68,180.16L174.14,171.86L174.21,169.31L174.36,165.18L174.66,176.83L175.04,165.24L175.12,166.83L175.79,181.22L175.94,177.62L176.02,174.1L176.17,170.67L176.4,181.41L176.47,184.58L176.7,176.31L176.77,172.68L176.92,172.54L177,175.98L177.45,186.7L177.6,183.34L177.68,176.53L177.75,171.15L178.21,193.37L178.28,193.17L178.66,174.83L179.03,189.15L179.11,191.2L179.26,192.37L179.41,188.54L179.49,180.99L179.56,176.96L179.86,197.98L179.94,199.2L180.01,200.78L180.24,194.71L180.32,183.58L180.39,181.85L180.69,192.86L180.77,200.92L180.99,203.11L181.14,194.63L181.22,186.24L181.37,166.82L181.97,184.65L182.05,181.37L182.35,170.51L182.65,188.25L182.73,192.26L182.95,192.6L183.03,189.34L183.33,179.43L183.78,186.91L183.86,185.9L184.08,178.61L184.46,190.98L184.53,194.56L184.69,195.55L184.84,192.61L184.91,187.65L185.14,182.36L185.51,189.08L185.74,183.25L185.82,182.93L185.97,182.55L186.04,184.32L186.12,186.86L186.34,189.04L186.72,184.24L186.8,182.43L187.62,168.94L187.7,170.65L187.77,170.61L188.38,187.65L188.68,180.08L188.75,174.8L189.73,183.76L189.81,183.96L190.11,189.37L190.41,183.76L190.49,182.04L190.71,179.58L190.94,187.39L191.01,188.33L191.39,180.34L191.77,185.84L191.84,185.99L191.99,185.23L192.07,181.3L192.15,157.99L192.75,200.49L192.82,200.41L193.12,178.07L193.58,191.15L193.65,191.13L193.88,188.58L193.95,173.05L194.03,165.65L194.41,199.38L194.48,199.7L194.56,201.25L194.71,200.57L194.78,185.66L194.93,181.7L195.31,189.97L195.39,192.79L195.84,172.77L195.91,198.15L195.99,197.39L196.29,200.25L196.36,201.53L196.59,200.51L196.67,181.17L197.27,194.77L197.5,192.03L197.57,182.4L198.17,200.95L198.4,200.08L198.47,184.86L198.55,182.43L198.93,191.74L199,193.35L199.45,189.43L199.53,198.01L199.6,198.87L199.98,201.8L200.21,200.12L200.28,182.92L200.43,182.63L200.51,186.22L201.56,203.26L201.79,202.68L201.87,201.75L201.94,201.03L202.02,186.42L202.24,183.84L202.47,190.32L202.54,192.86L202.69,196.67L203,185.77L203.07,179.84L203.52,196.31L203.75,180.78L203.82,175.72L203.98,173.63L204.28,180.26L204.35,187.14L204.58,190L204.65,186.6L204.73,179.16L204.88,152.94L205.48,177.6L205.56,173.4L205.86,165.35L206.16,181.04L206.24,182.84L206.39,183.25L206.46,182.27L206.54,177.62L206.69,159.15L207.14,181.8L207.22,181.54L207.29,178.43L207.67,168.29L207.89,176.41L207.97,179.94L208.12,183.12L208.35,177.02L208.42,163.72L208.5,158.42L208.8,176.54L208.87,176.48L208.95,178.41L209.17,175.2L209.25,170.41L209.48,166.87L209.63,173.96L209.7,173.43L209.78,178.16L209.93,182.2L210.15,175.44L210.23,157.54L210.3,156.33L210.38,173.37L210.61,178.58L210.68,181.84L210.91,183.62L210.98,178.53L211.06,172.41L211.21,156.42L211.59,181.3L211.66,184.76L211.89,184.93L211.96,184.28L212.04,177.48L212.34,169.67L212.41,172.49L212.49,177.99L212.64,182.04L212.79,178.24L212.87,172.53L213.09,167.72L213.32,179.76L213.39,179.6L213.7,185.64L214,178.25L214.07,174.14L214.22,178.2L214.3,181.33L214.45,185.48L214.83,173.69L214.9,172.89L215.88,194.98L215.96,186.55L216.03,187.21L216.33,188.74L216.41,184.98L216.48,177.94L216.71,171.28L216.94,179.39L217.01,185.95L217.24,192.33L217.61,182.53L217.69,177.29L218.07,184.64L218.29,177.87L218.37,174.76L218.52,170.1L218.82,182.23L218.89,185.57L219.2,179.47L219.27,162.82L219.35,158.58L219.42,171.64L219.5,195.39L219.57,197.68L219.65,179.23L219.87,187.28L219.95,184.28L220.33,169.29L220.63,184.01L220.7,187.5L220.78,187.92L220.85,185.54L220.93,186.35L221,182.73L221.08,169.38L221.68,188.83L221.76,185.52L222.13,171.19L222.44,185.13L222.51,188.38L222.74,186.68L222.81,182.47L222.96,164.25L223.42,189.36L223.49,187.62L223.57,185.09L223.87,168.15L224.24,186.75L224.32,188.28L224.62,186.48L224.7,182.5L224.92,177.41L225.3,186.76L225.45,186.41L225.53,182.05L225.68,182.23L225.75,179.91L226.43,191.51L226.58,187.86L226.66,183.22L226.73,181.9L226.96,189.68L227.03,191.93L227.18,188.63L227.26,186.86L227.56,177.34L227.94,188.7L228.01,188.56L228.16,189.87L228.24,188.62L228.31,181.91L228.39,180.21L228.46,188.4L228.54,200.21L228.92,203.93L228.99,193.94L229.07,190.56L229.37,178.84L229.75,189.93L229.82,191.77L230.2,174.76L230.27,198.43L230.35,197.42L230.72,201.37L230.8,201.01L230.88,188.49L231.18,181.02L231.48,193.43L231.55,196.1L231.86,193.16L231.93,184.57L232.01,181.33L232.23,200.2L232.31,200.59L232.46,200.41L232.53,201.23L232.68,200.5L232.76,186.32L232.91,184.65L233.14,190.46L233.21,192.36L233.66,201.52L234.12,199.71L234.19,199.49L234.34,200.89L234.72,198.95L234.79,186.56L235.32,201.24L235.85,198.62L235.92,198.4L236.15,200.73L236.23,191.57L236.53,185.79L236.83,190.22L236.9,193.05L237.28,201.33L237.81,200.54L237.88,200.76L237.96,201.79L238.34,199.58L238.56,201.28L238.64,200.3L239.16,200.04L239.62,205.5L239.69,205.53L239.77,205.92L239.84,203.82L239.92,202.14L240.14,193.09L240.37,195.9L240.45,197.44L241.58,206.19L241.65,203.1L242.03,193.01L242.25,196.77L242.33,200.1L242.4,202.5L242.86,197.06L243.01,197.84L243.08,199.46L243.16,199.32L243.31,199.65L243.38,201.45L243.46,201.58L243.69,200.94L243.76,199.42L243.91,192.45L244.29,202.64L244.44,202.09L244.51,201.64L244.66,187.46L245.19,205.2L245.27,203.44L245.57,191.15L245.72,196.97L245.8,200.85L245.87,196.11L246.02,202.88L246.47,196.95L246.55,203.9L246.7,197.38L247,207.12L247.15,204.72L247.23,193.35L247.45,187.23L247.83,193.71L247.91,193.7L247.98,193.8L248.21,183.92L248.28,181.34L248.73,203.29L249.04,200.78L249.11,185.79L249.26,184.29L249.41,189.47L249.49,188.55L249.56,191.72L250.09,189.51L250.54,201.26L250.62,202.03L250.77,200.89L250.84,186.2L250.99,184.72L251.15,187.99L251.22,191.34L252.43,206.3L252.5,206.22L252.8,191.94L253.1,198.48L253.18,201.05L254.08,206.21L254.16,206.18L254.23,206.47L254.39,205.99L254.46,202.99L254.91,198.14L255.21,202.02L255.29,201.94L255.52,197.45L256.04,201.84L256.12,201.8L256.42,200.08L256.72,200.83L256.8,201.18L257.32,198.65L257.7,204.04L257.78,204.08L257.85,205.72L258.08,193.75L258.15,191.65L258.38,191.35L258.45,194.13L259.66,205.67L259.74,204.37L259.89,204.31L259.96,203.06L260.11,204.35L260.19,196.7L260.26,196.2L260.41,199.21L260.49,201.69L260.64,202.29L260.94,199.15L261.17,202.08L261.24,203.02L261.47,205.57L261.62,203.44L261.69,193.19L261.92,190.02L262.22,197.12L262.3,198.25L262.37,197.15L262.6,202.47L262.82,201.08L262.9,201.49L263.28,205.92L263.5,202.44L263.58,192.94L263.65,191.84L264.03,197.48L264.11,198.59L264.26,198.64L264.33,199.9L264.41,200.09L264.48,198.92L264.56,201.8L264.71,204.34L264.78,205.8L265.09,206.24L265.16,205.47L265.24,195.84L265.31,191.94L265.91,200.29L265.99,200.31L266.14,200.48L266.22,203.26L266.29,201.1L266.59,206.52L266.82,206.52L266.89,206.54L267.27,190.84L267.65,197.83L267.72,199.1L267.8,199.46L267.95,198.3L268.02,196.79L268.1,190.5L268.63,205.41L268.7,205.88L268.85,205.84L268.93,203.81L269.08,190.08L269.38,195.16L269.46,198.63L269.76,202.93L269.91,197.55L270.36,201.23L270.43,201.3L270.81,202.34L270.89,201.36L270.96,194.78L272.32,205.87L272.39,203.93L272.85,196.64L273.07,202.7L273.15,203.75L273.22,204.78L273.6,200.53L273.68,201.75L273.75,200.58L274.05,206.01L274.43,202.73L274.5,192.61L274.58,191.62L274.88,196.85L274.96,199.1L275.41,197.17L275.48,201.87L275.56,201.89L275.94,203.54L276.16,203.24L276.24,193.83L276.31,192.79L276.61,197.05L276.69,199.31L277.67,207.7L277.74,208.12L278.2,197.2L278.5,200.56L278.57,206.84L279.03,203.95L279.18,207.47L279.33,206.05L279.4,207.1L279.55,208.08L279.78,205.8L279.85,204.73L280.08,205.76L280.16,200.51L280.68,203.91L280.91,202.39L280.98,201.3L281.66,203.56L281.81,202.49L281.89,198.26L282.19,203.97L282.64,201.36L282.72,202.43L282.79,201.35L283.32,203.56L283.4,203.56L283.85,202.44L284.07,203.67L284.15,203.65L284.3,203.4L284.37,198.74L285.13,203.46L285.43,202.25L285.51,202.05L286.03,203.49L286.11,203.45L286.18,200.66L287.09,203.13L287.16,201.91L287.46,202.43L287.54,203.62L287.77,203.74L287.92,203.45L287.99,201.89L288.52,202.02L288.59,203.18L288.82,203.07L288.9,201.91L289.2,201.21L289.65,203.34L289.72,203.32L289.8,202.19L289.95,202.41L290.03,204.26L290.4,206.37L290.63,203.35L290.7,202.18L291.01,199.91L291.31,204.97L291.53,203.97L291.61,202.27L292.21,207.26L292.36,204.1L292.44,203.26L292.74,201.9L292.81,198.43L292.89,198.67L292.96,202.21L293.12,204.49L293.49,199.77L293.57,201.36L293.64,200.1L294.32,202.87L294.47,201.65L294.55,201.55L295,203.22L295.15,203.11L295.23,199.99L295.38,201.12L295.45,199.82L295.53,201.13L295.6,201.93L295.83,202.94L296.21,201.45L296.28,201.45L296.36,201.48L296.81,202.86L296.96,202.73L297.03,199.79L297.11,199.48L297.34,201.17L297.41,201.12L297.49,201.1L297.64,202.41L298.24,201.1L298.31,201.07L298.69,202.57L298.77,202.3L298.84,198.73L299.07,198.66L299.67,201.87L299.75,201.81L299.82,200.24L300.12,200.92L300.2,202.3L300.58,202.21L300.65,200.09L301.18,200.23L301.25,201.69L301.48,201.79L301.55,200.46L302.23,202.28L302.38,202.21L302.46,200.85L302.69,200.74L302.76,201.37L302.84,202.17L302.99,203.67L303.44,200.59L303.51,202.04L303.59,202.03L304.04,202.27L304.34,199.5L304.49,200.66L304.57,202.58L304.8,204.74L305.02,202.08L305.17,202.14L305.25,200.73L305.62,200.82L305.7,202.21L306,202.07L306.08,198.31L306.3,197.59L306.45,199.85L306.53,199.94L306.98,201.55L307.36,200.85L307.43,200.94L307.66,202.32L307.96,199.09L308.04,200.47L308.11,199.05L308.71,201.97L308.94,200.56L309.01,200.54L309.47,202.47L309.62,202.18L309.69,198.93L309.92,198.88L310.6,201.79L310.67,200.36L310.97,201.08L311.05,201.34L311.28,202.81L311.58,198.89L311.65,200.45L311.73,199.02L312.33,201.95L312.48,200.51L312.56,200.54L313.08,203.33L313.23,202.87L313.31,201.02L313.84,200.83L313.91,202.21L314.14,202.32L314.21,201.02L314.97,204.1L315.12,202.87L315.19,202.68L315.27,202.22L315.42,204.7L315.49,205.47L315.65,206.6L315.95,203.42L316.02,202.36L316.7,204.26L316.85,203.69L316.93,201.4L317,201.56L317.08,204.21L317.53,206.66L317.76,203.18L317.83,203.2L318.21,201.81L318.43,203.35L318.58,202.99L318.66,202.43L318.96,198.87L319.34,203.24L319.41,202.7L319.71,201.35L320.09,202.06L320.17,203.26L320.47,203.08L320.54,200.15L320.77,199.32L321,201.44L321.07,201.21L321.15,202.07L321.45,202.41L321.52,200.71L322.2,202.95L322.28,202.93L322.35,199.7L322.58,197.26L322.88,200.05L322.95,202.22L323.26,202.48L323.33,201.08L323.56,201.64L323.71,201.37L323.78,202.65L324.08,202.66L324.16,199.58L324.31,200.48L324.39,199.1L324.69,199.6L324.76,202.16L325.06,202.25L325.14,200.9L325.44,201.51L325.52,202.77L325.82,203.11L325.89,202.95L325.97,201.5L326.5,201.2L326.57,202.49L326.8,202.43L326.87,201.19L327.63,203.78L327.7,203.74L327.78,202.53L327.85,201.81L328.15,205.31L328.23,206.25L328.38,206.91L328.46,206.19L328.53,203.66L328.68,201.64L329.06,204.78L329.13,206.35L329.51,206.97L329.59,206.24L329.89,206.77L329.96,206.73L330.19,207.27L330.49,206.67L330.57,204.49L331.09,206.36L331.47,200.81L331.54,202.03L332,206.04L332.3,203.18L332.37,201.6L332.52,201.42L332.75,202.5L332.83,203.6L333.13,203.28L333.2,200.17L333.73,204.46L334.03,203.27L334.11,202.78L334.18,201.54L334.78,203.83L334.86,203.83L334.94,203.63L335.01,200.99L335.24,200.47L335.31,202.59L335.39,202.86L335.69,204.27L335.76,203.76L335.84,203.07L335.99,201.64L336.37,203.26L336.44,204.46L336.52,204.71L336.74,203.6L336.82,200.46L336.89,200.26L337.12,201.79L337.2,202.06L337.35,202.12L337.42,203.3L337.5,203.49L337.65,202.75L337.72,202.73L337.8,201.54L337.87,201.71L337.95,195.96L338.33,203.94L338.7,201.42L338.78,201.38L339.16,201.56L339.23,202.72L339.46,202.63L339.53,201.37L340.29,204.31L340.36,204.05L340.44,202.62L340.66,202.47L340.74,202.82L340.81,203.95L340.96,204.93L341.34,202.12L341.49,203.47L341.57,203.55L341.94,203.91L342.47,201.2L342.55,202.83L342.7,203.89L343.15,203.33L343.22,202.21L343.6,202.48L343.68,203.61L343.98,203.33L344.05,200.66L344.28,200.49L344.96,203.01L345.03,201.84L345.56,203.94L345.79,203.57L345.86,200.78L346.09,200.67L346.46,203.14L346.77,203.02L346.84,201.98L347.44,204.54L347.59,204.11L347.67,201.5L347.9,201.18L348.27,204.98L348.57,203.58L348.65,202.63L348.88,203.12L348.95,203.64L349.18,204.64L349.4,204.51L349.48,202.05L349.7,201.72L349.93,202.88L350.01,202.88L350.08,203.87L350.38,203.79L350.46,202.8L350.76,203.91L350.83,204.78L351.66,203.03L351.81,203.16L351.89,204.15L352.27,203.02L352.34,204.08L352.57,203.95L353.7,206.97L353.77,206.87L353.85,205.74L354,204.06L354.3,206.02L354.45,205.7L354.53,206.82L354.9,206.28L355.2,208.04L355.28,208.83L355.43,210.1L355.73,206.38L355.81,205.44L356.11,206.14L356.18,204.71L356.56,206.49L356.64,205.23L356.71,203.28L356.79,203.02L356.86,203.94L356.94,203.31L357.01,205.25L357.31,206.43L357.62,205.36L357.69,204.17L357.84,204.13L357.92,204.54L357.99,205.07L358.37,206.06L358.52,204.1L358.6,204.05L359.2,205.41L359.42,205.18L359.5,204.6L359.88,205.3L359.95,205.96L360.25,205.78L360.33,204.14L360.55,204L361.23,205.42L361.31,204.78L361.46,201.41L361.99,206.04L362.06,206.05L362.36,204.41L362.82,205.71L362.89,205.71L362.97,201.28L363.04,205.73L363.64,205.12L363.72,205.67L363.87,206.21L364.02,205.3L364.32,205.28L364.4,205.28L364.77,205.89L364.85,205.29L364.93,201.69L365.68,206.2L365.9,205.66L365.98,205.62L366.13,200.58L366.58,206.15L366.81,201.84L366.88,202.94L367.04,202.62L367.11,203.29L367.19,204.56L367.49,206.67L368.01,206.3L368.09,206.02L368.17,206.68L368.54,205.24L368.62,205.24L368.69,202.2L369.14,205.69L369.52,204.24L369.6,203.42L370.05,201.3L370.12,205.12L370.2,199.89L370.35,200.16L370.43,204.61L370.95,205.71L371.1,205.42L371.18,203.48L371.78,205.23L372.08,205.01L372.16,204.22L372.54,204.75L372.61,205.5L372.91,205.28L372.99,203.42L373.21,203.35L373.89,204.94L373.97,199.39L374.57,205.24L374.8,203.3L374.87,203.29L375.02,203.18L375.63,204.89L375.7,204.88L375.78,204.04L375.93,200.02L376.23,205.2L376.45,205.15L376.53,205.21L377.13,204.11L377.28,204.92L377.36,204.89L377.58,204.03L377.96,205.79L378.04,205.8L378.34,206.33L378.56,205.12L378.64,205.07L378.87,204.91L378.94,205.3L379.02,205.81L379.32,204.53L379.77,204.84L379.84,205.53L380.15,205.44L380.22,204L380.82,206.97L381.05,205.36L381.13,205.05L381.2,204.28L381.8,205.31L381.88,205.11L382.26,202.83L382.63,204.62L382.71,204.61L382.93,204.59L383.01,203.75L383.69,205.51L383.76,205.33L383.84,203.14L383.99,203.81L384.06,203.01L384.22,203.89L384.29,203.95L384.52,204.8L385.12,204.45L385.19,204.51L385.42,205.27L385.65,203.34L385.8,204.14L385.87,203.33L386.25,205.4L386.7,204.16L386.78,204.15L387.08,206.8L387.38,205.43L387.46,203.91L387.68,203.42L387.91,204.72L387.98,204.98L388.43,204.13L388.81,205.74L388.89,205.8L389.11,206.06L389.19,205.87L389.26,204.76L389.57,204.48L389.79,204.79L389.87,205.5L390.17,204.5L390.32,205.45L390.39,205.62L390.54,204.98L390.92,206.02L391.07,205.56L391.15,205.49L391.6,205.34L391.83,205.95L391.9,202.32L392.13,202.37L392.2,203.6L392.81,206.13L393.03,205.48L393.11,204.75L393.48,206.47L393.86,205.08L393.94,205.09L394.31,205.78L394.39,206.6L394.54,207L394.61,205.85L394.69,204.41L394.76,204.19L394.91,204.96L394.99,206.17L396.05,206.96L396.12,207.3L396.42,207.06L396.5,205.8L397.1,206.99L397.4,206.74L397.48,206.34L398.23,207.01L398.31,205.79L398.53,205.68L398.91,206.56L399.13,205.8L399.21,201.1L399.36,200.47L399.44,201.45L399.51,205.61L399.59,203.17L399.81,206.69L400.26,204.6L400.34,203.89L400.72,205.69L401.24,205.26L401.32,205.92L401.62,206.38L402.15,204.58L402.3,204.87L402.37,204.97L402.53,205.6L402.83,204.59L402.9,201.48L403.58,206.71L403.73,206.04L403.81,205.86L404.18,205.52L404.26,206.19L404.33,206.59L404.64,205.34L405.09,205.86L405.16,206.36L405.46,206.38L405.54,205.12L405.77,204.91L405.92,206.19L405.99,206.54L406.14,206.59L406.29,205.85L406.37,205.84L406.52,205.28L406.97,206.15L407.05,206.15L407.12,206.13L407.27,205.91L407.35,203.82L407.42,203.27L407.88,204.63L407.95,205.39L408.33,204.47L408.48,204.92L408.55,205.44L409.08,205.86L409.16,203.88L409.38,203.62L409.61,204.6L409.68,204.59L409.76,205.3L410.21,204.66L410.29,204.88L410.36,205.36L410.81,206.27L410.89,206.09L410.96,204.36L411.19,204.19L411.87,205.61L411.94,204.73L412.55,206.7L412.7,206.27L412.77,204.41L412.92,204.88L413,204.16L413.3,204.9L413.38,205.57L413.75,204.36L414.05,205.31L414.13,205.94L414.51,205.88L414.58,204.33L414.73,203.86L415.11,204.42L415.18,205.35L415.49,204.89L416.24,206.39L416.31,206.25L416.39,205.58L416.69,205.33L417.07,205.91L417.14,205.89L417.29,205.37L417.52,206.14L417.82,206.17L417.9,206.17L418.12,206.18L418.2,205.06L418.42,204.62L418.65,205.66L418.73,205.61L418.8,205.84L419.55,205.45L419.63,206.04L419.93,205.88L420.01,203.99L420.91,205.45L420.99,204.76L421.36,205.3L421.44,205.95L421.74,205.83L421.82,204.09L422.04,203.97L422.72,205.47L422.79,204.78L423.17,205.22L423.25,205.85L423.55,205.86L423.62,204.07L424.53,205.54L424.6,204.86L424.98,205.25L425.06,205.88L425.36,205.88L425.43,204.01L426.26,205.6L426.34,205.57L426.41,204.86L426.71,205.18L426.79,205.81L427.09,206.62L427.24,204.98L427.32,204.8L427.77,205.31L427.84,205.64L428.14,205.02L428.37,205.53L428.45,206.25L428.52,205.21L428.97,206.49L429.2,205.93L429.28,205.61L430.03,205.62L430.1,206.2L430.33,205.59L430.78,206.61L430.86,205.35L431.08,205L431.23,205.72L431.38,205.55L431.46,206.1L432.14,204.95L432.21,205.34L432.29,205.95L432.59,205.69L432.67,204.21L432.82,204.57L432.89,203.43L433.19,204.22L433.27,205L433.49,205.07L433.57,199.5L433.8,198.64L433.87,204.6L434.1,206.13L434.47,203.7L434.55,203.7L435.23,205.36L435.38,205.22L435.45,200.05L436.06,205.99L436.21,205.73L436.28,203.93L437.04,205.42L437.11,205.37L437.19,200.39L437.41,198.73L437.56,202.66L437.64,204.4L437.87,206.14L438.09,204.1L438.39,204.96L438.47,205.1L438.62,204.97L438.69,205.77L439,205.63L439.07,201L439.22,200.43L439.3,205.17L439.75,206.94L440.05,205.5L440.13,205.5L441.03,206.09L441.11,206.58L441.63,207L441.86,206.53L441.93,206.47L443.44,207L443.52,206.24L444.42,206.93L444.5,206.53L445.1,207.08L445.17,207.1L445.4,205.8L445.93,206.74L446,206.73L447.06,206.94L447.13,205.68L448.04,206.57L448.11,206.1L448.87,206.84L448.94,205.49L449.17,205.38L449.77,206.44L449.85,203.46L449.92,202.97L450.15,206.4L450.22,206.36L450.6,206.81L450.67,206.76L450.75,205.4L451.65,206.39L451.73,205.88L452.03,206.36L452.11,206.8L452.48,206.77L452.56,205.94L453.69,206.46L453.76,206.79L454.22,206.95L454.59,206.38L454.67,206.36L456.1,206.87L456.18,206.12L456.4,205.99L457.08,206.77L457.15,206.33L457.91,206.81L457.98,205.49L458.89,206.46L458.96,206.03L459.04,206.02L459.57,207L459.72,206.83L459.79,205.51L460.62,206.47L460.7,203.51L460.92,203.54L461,204.69L461.3,206.86L461.75,206.03L461.83,205.55L462.2,206.52L462.35,206.46L462.43,202.54L462.58,201.51L462.96,204.79L463.03,205.63L463.26,205.62L463.33,204.72L463.48,200.02L464.01,206.51L464.09,203.14L464.16,202.71L464.31,201.77L464.69,203.98L464.77,204.82L465.07,206.89L465.52,206.06L465.59,206.06L465.9,206.58L465.97,203.28L466.2,202.84L466.42,204.94L466.5,206.8L466.95,207.19L467.25,206.75L467.33,203.85L467.48,204.21L467.85,203.24L468.08,203.88L468.16,204.24L468.61,205.74L468.76,204.68L468.83,203.28L468.91,202.54L468.99,206.62L469.21,206.6L469.29,206.6L469.51,206.99L469.59,203.89L469.81,202.59L470.12,204.28L470.19,206.61L470.42,207.02L470.57,204.82L470.64,201.7L470.72,200.68L471.02,203.2L471.17,203.2L471.25,203.7L471.47,202.31L471.55,206.57L471.62,206.1L471.7,206.15L472.3,207.25L472.38,207.2L472.45,205.97L472.68,205.8L473.05,206.82L473.13,206.75L473.2,204.26L473.51,203.43L473.73,205.24L473.81,205.91L473.96,206.58L474.18,205.57L474.26,202.94L474.33,202.14L474.71,204.14L474.94,203.49L475.01,203.54L475.84,207.24L475.92,207.23L476.29,205.7L476.6,206.19L476.67,206.67L477.35,206.84L477.42,207.22L477.8,207.13L477.88,206.24L478.1,202.6L478.48,206.69L478.78,202.96L478.86,203.02L479.53,207L479.61,205.83L479.68,205.37L479.91,206.43L479.99,202.26L480.21,206.46L480.29,206.87L480.44,206.85L480.51,203.51L480.66,203.12L481.04,204.5L481.12,205.36L481.34,204.98L481.42,204.19L481.49,202.46L481.95,206.78L482.02,206.77L482.1,207.01L482.47,202.97L482.85,206.62L482.92,207.05L483.23,207.01L483.3,205.71L484.21,206.69L484.28,206.24L484.58,206.88L484.66,206.21L484.73,207.23L485.03,206.1L485.11,203.12L485.71,206.69L485.86,203.89L485.94,203.41L486.09,202.95L486.17,206.24L486.24,206.3L486.77,207.25L486.92,205.93L486.99,205.86L487.14,205.81L487.67,206.74L487.75,203.67L487.9,203.23L488.05,204.25L488.12,206.84L488.35,207.07L488.95,205.61L489.25,206.19L489.33,206.69L490.01,206.66L490.08,207.03L490.46,206.96L490.54,206.11L490.61,205.89L491.14,206.64L491.21,206.64L491.44,203.44L491.97,205.93L492.04,205.94L492.42,205.18L493.02,207.06L493.1,204.41L493.25,203.6L493.7,205.24L493.78,205.98L494.23,202.16L494.3,206.61L494.6,206.69L495.13,202.48L495.43,203.89L495.51,205.05L495.66,206.99L496.04,200.66L496.26,206L496.34,205.98L496.64,206.25L496.71,202.12L496.94,200.57L497.24,203.96L497.32,204.76L497.54,205.52L497.69,204.03L497.77,200.5L497.84,197.41L498.22,206.13L498.45,203.08L498.52,201.5L498.67,200.05L499.05,203.11L499.13,203.89L499.28,204.7L499.5,203.65L499.58,200.32L499.65,199.77L499.73,205.91L500.18,206.57L500.33,202.39L500.41,200.93L500.56,200.5L500.71,201.73L500.78,203.55L501.24,205.42L501.31,204.45L501.39,200.77L501.46,199.32L501.84,205.95L502.06,202.14L502.14,201.57L502.29,199.71L502.74,203.51L502.82,204.41L503.04,204.84L503.19,202.79L503.27,202.01L503.5,199.24L503.72,206.1L503.8,206.55L504.17,201.05L504.55,204.24L504.63,204.94L504.93,204.35L505,203.89L506.06,200.25L506.13,201.52L506.66,202.79L506.74,201.94L506.81,199.9L506.89,198.65L507.26,202.67L507.41,202.24L507.49,201.67L507.72,196.89L508.17,200.77L508.24,202.14L508.47,201.28L508.54,190.36L508.7,170.44L509.22,188.56L509.3,188.56L509.52,180.73L509.83,197.92L509.9,194.4L509.98,196.44L510.13,198.01L510.35,188.39L510.43,180.39L510.5,173.78L511.03,192.88L511.11,191.54L512.01,206.97L512.16,206.62L512.24,199.81L512.69,206.21L512.91,201.87L512.99,199.55L513.14,198.65L513.29,200.38L513.37,201.08L513.67,204.44L513.97,200.82L514.04,195.73L514.35,204.46L514.95,191.26L515.02,191.15L515.63,199.19L515.85,194.58L515.93,192.89L516.08,188.78L516.31,197.12L516.38,199.71L516.68,194.16L516.98,201.24L517.06,202.87L517.51,204.53L517.66,203.51L517.74,201.53L518.26,202.75L518.57,197.58L518.64,199.8L519.24,203.93L519.39,203L519.47,197.86L519.92,203.65L520.37,191.5L520.45,191.66L520.53,191.52L520.6,192.14L520.68,193.15L520.9,196.14L521.05,195.28L521.13,193.56L521.35,176.67L521.81,189.49L521.88,189.53L522.11,183.83L522.41,187.58L522.48,190.8L522.56,190.66L522.64,193.07L522.79,196.24L523.09,184.65L523.16,180.77L523.69,194.18L523.99,189.02L524.07,188.46L524.67,197.23L524.82,193.59L524.9,183.42L524.97,178.82L525.5,191.98L525.57,190.17L525.72,184.62L526.18,195.63L526.25,199.78L526.33,201.56L526.63,195.68L526.7,189.51L526.78,184.13L527.38,191.9L527.46,190.06L527.61,188.38L528.06,193.48L528.14,194.36L528.29,197.04L528.59,190.36L528.66,188.54L528.89,184.95L529.12,188.76L529.42,186.68L529.49,186.99L530.02,194.25L530.32,189.95L530.4,187.7L530.77,189.2L531.15,180.2L531.23,181.6L531.3,183.97L531.83,198.97L532.05,192.08L532.13,184.77L532.2,180.62L532.58,192.54L532.81,188.55L532.88,185.39L532.96,183.44L533.33,188.64L533.41,187.47L533.49,190.61L533.64,192.77L533.86,189.78L533.94,152.08L534.01,138.4L534.47,182.52L534.54,178.83L534.62,178.63L534.77,165.73L535.29,190.74L535.37,193.09L535.52,193.36L535.6,193.24L535.67,190.66L535.82,177.86L536.42,186.57L536.5,185.07L536.57,182.63L537.03,188.92L537.1,191.1L537.18,193.28L537.48,189.2L537.55,181.21L537.63,173.98L538.08,184.37L538.23,182.58L538.31,181.31L538.38,178.78L538.84,184.87L538.91,187.7L538.99,189.87L539.29,186.24L539.36,177.22L539.44,172.9L539.89,181.78L540.04,180.86L540.12,177.34L540.19,175.46L540.64,183.23L540.72,185.79L540.95,188.23L541.1,187.28L541.17,175.3L542,153.45L542.08,158.44L542.68,189.28L542.9,187.58L542.98,183.97L543.81,151.96L543.88,168.37L543.96,176.7L544.56,196.62L544.86,185.25L544.94,187.73L545.32,188.17L545.69,177L545.92,182.03L545.99,185.23L546.37,198.87L546.52,188.14L546.6,176.99L547.05,177.05L547.43,160.69L547.5,163.13L548.25,186.81L548.33,182.89L548.41,170.09L548.93,171.62L549.23,146.83L549.31,143.64L549.99,187.01L550.14,182.4L550.21,172.65L550.29,163.06L550.67,180.95L550.89,177.23L550.97,175.01L551.04,171.36L551.49,184.55L551.57,188.1L551.87,196.71L551.95,187.8L552.02,176.44L552.1,166.87L552.7,179.88L552.78,177.06L552.85,175.05L553.23,182.81L553.3,184.72L553.6,200.49L553.91,184.04L553.98,179.91L554.13,175.19L554.51,182.21L554.73,179.32L554.81,180.83L555.56,199.54L555.71,195.3L555.79,191.05L556.47,184.99L556.62,185.9L556.69,187.98L557.3,195.48L557.45,189L557.52,182.53L557.9,189.15L558.2,183.72L558.28,179.63L558.95,194.45L559.18,190.54L559.26,181.97L559.63,186.01L560.16,158.4L560.24,172.3L560.84,190.14L560.99,184.89L561.06,173.5L561.14,155.06L561.52,180.05L561.82,170.27L561.89,160L561.97,156.6L562.19,177.77L562.27,181.17L562.65,189.34L562.8,185.12L562.87,176.35L562.95,167.15L563.4,180.28L563.55,179.18L563.63,175.64L563.7,173.51L564.08,183.71L564.15,184.75L564.3,188.84L564.61,183.44L564.68,172.28L564.76,164.02L565.13,177.37L565.36,176.8L565.43,174.65L565.51,170.76L565.96,182.48L566.04,186.42L566.26,193.11L566.56,180.98L566.64,177.39L567.39,170.95L567.47,172.83L567.54,174.96L568.15,186.15L568.37,180.89L568.45,175.36L569.2,157.66L569.28,168.97L569.35,171.01L569.88,184.6L570.11,172.53L570.18,166.74L570.56,176.37L570.86,166.39L570.94,156.11L571.76,182.84L571.84,179.25L571.91,168.06L572.14,156.95L572.59,173.53L572.67,172.53L572.74,167.68L573.2,182.81L573.27,185.99L573.5,188.2L573.65,185.89L573.72,175.94L574.55,164.1L574.63,164.74L575.31,182.86L575.46,177.56L575.53,161.09L575.61,142.05L575.98,165.75L576.28,155.68L576.36,150.15L576.44,147.3L576.66,162.49L576.74,168.39L577.11,179.54L577.26,173.27L577.34,158.95L578.17,130L578.24,143.7L578.85,176.15L579.15,165.27L579.22,157.69L580.05,138.75L580.13,141.95L580.81,175.24L581.03,165.05L581.11,159.08L581.86,149.64L581.94,156.42L582.61,187.01L582.92,177.02L582.99,174.26L583.52,166.72L583.59,158.39L583.67,155.16L583.97,167.42L584.05,171.18L584.27,181.86L584.57,157.93L584.65,140.79L585.03,164.5L585.4,148.56L585.48,150.75L586.16,180.14L586.31,173.26L586.38,155.58L586.46,141.87L586.76,156.74L587.14,151.88L587.21,146.52L587.66,170.99L587.74,174.16L588.04,178.84L588.19,163.1L588.27,157.95L588.87,181.4L589.09,174.54L589.17,174.7L589.47,182.67L589.55,187.06L589.85,197.39L590,177.82L590.07,170.26L590.45,182.49L590.83,175.69L590.9,177.08L591.66,193.72L591.73,189.44L591.81,184.35L592.11,168.24L592.71,169.69L592.79,171.11L592.94,174.85L593.01,179.46L593.47,185.33L593.62,180.98L593.69,176.86L594.52,150.99L594.67,156.9L594.75,162.53L595.27,175.83L595.35,172.54L595.42,162.59L595.88,164.61L596.33,143.06L596.4,142.97L597.08,178.02L597.23,154.13L597.31,136.71L597.91,157.15L598.06,148.02L598.14,148.66L598.81,177.55L598.97,169.81L599.04,155.78L599.87,116.56L599.95,121.82L600.7,173.51L600.85,155.28L600.92,135.66L601.3,154.76L601.6,132.81L601.68,109.82L602.36,176.3L602.66,154.56L602.73,127.98L602.81,128.48L602.88,119.94L603.34,141.8L603.49,106.5L603.56,112.83L604.24,173.02L604.47,161.29L604.54,147.14L605.3,96.04L605.37,106.74L605.45,122.18L606.05,165.96L606.35,157.58L606.43,146.41L607.18,123.73L607.25,133.09L607.33,139.61L607.78,162.52L608.08,152.29L608.16,141.7L608.23,153.21L608.84,137.31L608.91,130.37L608.99,130.13L609.06,131.13L609.14,139.62L609.67,162.88L609.82,155.63L609.89,138.04L610.65,72.7L610.72,89.32L610.8,120.97L611.47,161.61L611.62,155.87L611.7,136.07L611.85,36.67L612.45,89.35L612.53,105.75L613.36,163.81L613.51,142.46L613.58,118.24L613.73,115.8L614.19,140.1L614.26,126.57L614.34,117.63L615.09,169.25L615.32,146.97L615.39,129.22L616.3,153.91L616.37,155.1L616.9,176.74L617.2,163.12L617.28,154.88L617.43,145.03L617.73,157.77L618.03,152.2L618.1,158.57L618.78,182.79L619.01,176.73L619.08,173.24L619.31,163.22L619.84,171.91L619.91,172.92L620.59,193.32L620.74,181.4L620.82,176.21L621.27,179.71L621.5,173.21L621.57,170.26L621.65,169.35L621.87,174.03L621.95,175.27L622.32,190.23L622.48,185.88L622.55,171.27L623.38,156.79L623.45,155.24L624.13,181.1L624.28,177.05L624.36,162.35L624.43,149.51L625.04,162.97L625.11,159.96L625.19,158.45L626.02,181.22L626.09,176.64L626.17,166.36L626.24,149.68L626.92,158.13L627,152.69L627.67,177.37L627.9,171.89L627.98,156.6L628.05,138.2L628.73,148.31L628.8,144.57L628.96,149.84L629.03,154.25L629.63,178.86L629.86,164L629.93,153.81L630.01,147.88L630.39,165.67L630.54,162.59L630.61,160.57L631.52,186.45L631.74,177.64L631.82,174.18L631.89,172.52L632.27,181.14L632.35,181.03L632.42,178.5L632.87,187.37L632.95,189.34L633.25,195.45L633.48,181.91L633.55,186.91L633.63,184.68L633.93,189.76L634,188.21L634.08,185.34L634.38,179.88L634.68,185.63L634.76,187.87L634.98,190.4L635.13,186.05L635.21,176.59L635.28,170.2L635.74,179.59L635.89,178.96L635.96,177.85L636.04,175.45L636.42,184.44L636.49,185.7L636.79,191.13L637.02,178.39L637.09,172.1L637.62,179.39L637.85,173.42L637.92,173.29L638.68,193.56L638.75,189.24L638.83,178.97L639.35,179.57L639.66,168.32L639.73,167.95L640.48,190.55L640.63,180.73L640.71,170.85L641.31,180.15L641.46,175.73L641.54,175.77L641.77,178.46L641.84,183.44L642.22,199.58L642.52,183.81L642.59,180.39L643.35,172.62L643.42,175.29L643.5,176.98L644.03,199.42L644.33,189.71L644.4,183.15L645.08,168.38L645.31,172.9L645.38,176.24L645.98,186.43L646.06,181.56L646.14,172.58L647.11,184.6L647.19,185.34L647.79,194.02L647.94,188.22L648.02,182.44L648.09,175.3L648.77,178.41L648.85,179.64L648.92,177.44L649.22,183.69L649.3,189.69L649.9,167.83L650.28,170.84L650.36,171.7L650.73,170.66L650.81,171.95L651.33,180.03L651.41,176.34L651.49,165.59L651.56,157.58L651.86,169.13L652.24,163.3L652.31,162.28L652.62,173.37L652.69,176.9L653.07,191.84L653.37,174.74L653.44,180.02L653.52,175.17L653.67,176.35L654.12,169.86L654.35,171.72L654.42,174.85L655.03,189.88L655.18,182.91L655.25,177.18L655.93,168.33L656.08,169.98L656.16,170.77L656.84,184.45L656.99,179.5L657.06,176.68L657.21,170.95L657.51,177.78L657.81,171.01L657.89,173.95L658.57,191.55L658.72,184.27L658.79,179.31L658.87,182.13L659.4,178.78L659.47,176.42L659.55,174.18L660,180.12" style="vector-effect: none; fill: none; stroke: rgb(54, 112, 97); stroke-opacity: 1; stroke-width: 0px; opacity: 1;"/></g><g class="points"/><g class="text"/></g></g></g><g class="overplot"/><path class="xlines-above crisp" d="M19,230.5H681M19,19.5H681" style="fill: none; stroke-width: 1px; stroke: rgb(68, 68, 68); stroke-opacity: 1;"/><path class="ylines-above crisp" d="M19.5,20V230M680.5,20V230" style="fill: none; stroke-width: 1px; stroke: rgb(68, 68, 68); stroke-opacity: 1;"/><g class="overlines-above"/><g class="xaxislayer-above"><path class="xtick ticks crisp" d="M0,231v5" transform="translate(20,0)" style="stroke: rgb(68, 68, 68); stroke-opacity: 1; stroke-width: 1px;"/><path class="xtick ticks crisp" d="M0,231v5" transform="translate(126.7,0)" style="stroke: rgb(68, 68, 68); stroke-opacity: 1; stroke-width: 1px;"/><path class="xtick ticks crisp" d="M0,231v5" transform="translate(237.01,0)" style="stroke: rgb(68, 68, 68); stroke-opacity: 1; stroke-width: 1px;"/><path class="xtick ticks crisp" d="M0,231v5" transform="translate(347.33,0)" style="stroke: rgb(68, 68, 68); stroke-opacity: 1; stroke-width: 1px;"/><path class="xtick ticks crisp" d="M0,231v5" transform="translate(459.45,0)" style="stroke: rgb(68, 68, 68); stroke-opacity: 1; stroke-width: 1px;"/><path class="xtick ticks crisp" d="M0,231v5" transform="translate(569.76,0)" style="stroke: rgb(68, 68, 68); stroke-opacity: 1; stroke-width: 1px;"/><g class="xtick"><text text-anchor="middle" x="0" y="255.2" transform="translate(20,0)" style="font-family: 'Open Sans', verdana, arial, sans-serif; font-size: 16px; fill: rgb(68, 68, 68); fill-opacity: 1; white-space: pre; opacity: 0;">01.01</text></g><g class="xtick"><text text-anchor="middle" x="0" y="255.2" style="font-family: 'Open Sans', verdana, arial, sans-serif; font-size: 16px; fill: rgb(68, 68, 68); fill-opacity: 1; white-space: pre; opacity: 1;" transform="translate(126.7,0)">01.03</text></g><g class="xtick"><text text-anchor="middle" x="0" y="255.2" style="font-family: 'Open Sans', verdana, arial, sans-serif; font-size: 16px; fill: rgb(68, 68, 68); fill-opacity: 1; white-space: pre; opacity: 1;" transform="translate(237.01,0)">01.05</text></g><g class="xtick"><text text-anchor="middle" x="0" y="255.2" style="font-family: 'Open Sans', verdana, arial, sans-serif; font-size: 16px; fill: rgb(68, 68, 68); fill-opacity: 1; white-space: pre; opacity: 1;" transform="translate(347.33,0)">01.07</text></g><g class="xtick"><text text-anchor="middle" x="0" y="255.2" style="font-family: 'Open Sans', verdana, arial, sans-serif; font-size: 16px; fill: rgb(68, 68, 68); fill-opacity: 1; white-space: pre; opacity: 1;" transform="translate(459.45,0)">01.09</text></g><g class="xtick"><text text-anchor="middle" x="0" y="255.2" style="font-family: 'Open Sans', verdana, arial, sans-serif; font-size: 16px; fill: rgb(68, 68, 68); fill-opacity: 1; white-space: pre; opacity: 1;" transform="translate(569.76,0)">01.11</text></g></g><g class="yaxislayer-above"><path class="ytick ticks crisp" d="M19,0h-5" transform="translate(0,230)" style="stroke: rgb(68, 68, 68); stroke-opacity: 1; stroke-width: 1px;"/><path class="ytick ticks crisp" d="M19,0h-5" transform="translate(0,188)" style="stroke: rgb(68, 68, 68); stroke-opacity: 1; stroke-width: 1px;"/><path class="ytick ticks crisp" d="M19,0h-5" transform="translate(0,146)" style="stroke: rgb(68, 68, 68); stroke-opacity: 1; stroke-width: 1px;"/><path class="ytick ticks crisp" d="M19,0h-5" transform="translate(0,104)" style="stroke: rgb(68, 68, 68); stroke-opacity: 1; stroke-width: 1px;"/><path class="ytick ticks crisp" d="M19,0h-5" transform="translate(0,62)" style="stroke: rgb(68, 68, 68); stroke-opacity: 1; stroke-width: 1px;"/><path class="ytick ticks crisp" d="M19,0h-5" transform="translate(0,20)" style="stroke: rgb(68, 68, 68); stroke-opacity: 1; stroke-width: 1px;"/><g class="ytick"><text text-anchor="end" x="10.8" y="5.6" transform="translate(0,230)" style="font-family: 'Open Sans', verdana, arial, sans-serif; font-size: 16px; fill: rgb(68, 68, 68); fill-opacity: 1; white-space: pre; opacity: 1;">0</text></g><g class="ytick"><text text-anchor="end" x="10.8" y="5.6" style="font-family: 'Open Sans', verdana, arial, sans-serif; font-size: 16px; fill: rgb(68, 68, 68); fill-opacity: 1; white-space: pre; opacity: 1;" transform="translate(0,188)">10</text></g><g class="ytick"><text text-anchor="end" x="10.8" y="5.6" style="font-family: 'Open Sans', verdana, arial, sans-serif; font-size: 16px; fill: rgb(68, 68, 68); fill-opacity: 1; white-space: pre; opacity: 1;" transform="translate(0,146)">20</text></g><g class="ytick"><text text-anchor="end" x="10.8" y="5.6" style="font-family: 'Open Sans', verdana, arial, sans-serif; font-size: 16px; fill: rgb(68, 68, 68); fill-opacity: 1; white-space: pre; opacity: 1;" transform="translate(0,104)">30</text></g><g class="ytick"><text text-anchor="end" x="10.8" y="5.6" style="font-family: 'Open Sans', verdana, arial, sans-serif; font-size: 16px; fill: rgb(68, 68, 68); fill-opacity: 1; white-space: pre; opacity: 1;" transform="translate(0,62)">40</text></g><g class="ytick"><text text-anchor="end" x="10.8" y="5.6" style="font-family: 'Open Sans', verdana, arial, sans-serif; font-size: 16px; fill: rgb(68, 68, 68); fill-opacity: 1; white-space: pre; opacity: 1;" transform="translate(0,20)">50</text></g></g><g class="overaxes-above"/></g></g><g class="polarlayer"/><g class="smithlayer"/><g class="ternarylayer"/><g class="geolayer"/><g class="funnelarealayer"/><g class="pielayer"/><g class="iciclelayer"/><g class="treemaplayer"/><g class="sunburstlayer"/><g class="glimages"/><defs id="topdefs-71e22d"><g class="clips"/><clipPath id="legend71e22d"><rect width="210" height="55" x="0" y="0"/></clipPath></defs><g class="layer-above"><g class="imagelayer"/><g class="shapelayer"/></g><g class="infolayer"><g class="legend" pointer-events="all" transform="translate(26.6,24.200000000000003)"><rect class="bg" shape-rendering="crispEdges" width="210" height="55" x="0" y="0" style="stroke: rgb(68, 68, 68); stroke-opacity: 1; fill: rgb(0, 0, 0); fill-opacity: 0; stroke-width: 0px;"/><g class="scrollbox" transform="" clip-path="url(#legend71e22d)"><g class="groups"><g class="traces" transform="translate(0,27.3)" style="opacity: 1;"><text class="legendtext" text-anchor="start" x="40" y="-4.16" style="font-family: 'Open Sans', verdana, arial, sans-serif; font-size: 16px; fill: rgb(68, 68, 68); fill-opacity: 1; white-space: pre;"><tspan class="line" dy="0em" x="40" y="-4.16">Strm:</tspan><tspan class="line" dy="1.3em" x="40" y="-4.16">49 451 kr/r | 41 kr</tspan></text><g class="layers"><g class="legendfill"><path class="js-fill" d="M5,-2h30v6h-30z" style="stroke-width: 0; fill: rgb(54, 112, 97); fill-opacity: 0.5;"/></g><g class="legendlines"><path class="js-line" d="M5,-2h30" style="fill: none; stroke: rgb(54, 112, 97); stroke-opacity: 1; stroke-width: 0px;"/></g><g class="legendsymbols"><g class="legendpoints"/></g></g><rect class="legendtoggle" x="0" y="-22.3" width="206.5625" height="44.6" style="fill: rgb(0, 0, 0); fill-opacity: 0;"/></g></g></g><rect class="scrollbar" rx="20" ry="3" width="0" height="0" x="0" y="0" style="fill: rgb(128, 139, 164); fill-opacity: 1;"/></g><g class="g-gtitle"/><g class="g-xtitle"/><g class="g-ytitle" transform="translate(32,0)"><text class="ytitle" transform="rotate(-90,-18,125)" x="-18" y="125" text-anchor="middle" style="font-family: 'Open Sans', verdana, arial, sans-serif; font-size: 14px; fill: rgb(68, 68, 68); opacity: 1; font-weight: normal; white-space: pre;">Kostnad (kr)</text></g></g></svg>