<svg class="main-svg" xmlns="http://www.w3.org/2000/svg" xmlns:xlink="http://www.w3.org/1999/xlink" width="700" height="250" style="" viewBox="0 0 700 250"><rect x="0" y="0" width="700" height="250" style="fill: rgb(255, 255, 255); fill-opacity: 1;"/><defs id="defs-d03ff0"><g class="clips"><clipPath id="clipd03ff0xyplot" class="plotclip"><rect width="660" height="210"/></clipPath><clipPath class="axesclip" id="clipd03ff0x"><rect x="20" y="0" width="660" height="250"/></clipPath><clipPath class="axesclip" id="clipd03ff0y"><rect x="0" y="20" width="700" height="210"/></clipPath><clipPath class="axesclip" id="clipd03ff0xy"><rect x="20" y="20" width="660" height="210"/></clipPath></g><g class="gradients"/><g class="patterns"/></defs><g class="bglayer"/><g class="layer-below"><g class="imagelayer"/><g class="shapelayer"/></g><g class="cartesianlayer"><g class="subplot xy"><g class="layer-subplot"><g class="shapelayer"/><g class="imagelayer"/></g><g class="minor-gridlayer"><g class="x"/><g class="y"/></g><g class="gridlayer"><g class="x"><path class="xgrid crisp" transform="translate(126.7,0)" d="M0,20v210" style="stroke: rgb(238, 238, 238); stroke-opacity: 1; stroke-width: 0.1px;"/><path class="xgrid crisp" transform="translate(237.01,0)" d="M0,20v210" style="stroke: rgb(238, 238, 238); stroke-opacity: 1; stroke-width: 0.1px;"/><path class="xgrid crisp" transform="translate(347.33,0)" d="M0,20v210" style="stroke: rgb(238, 238, 238); stroke-opacity: 1; stroke-width: 0.1px;"/><path class="xgrid crisp" transform="translate(459.45,0)" d="M0,20v210" style="stroke: rgb(238, 238, 238); stroke-opacity: 1; stroke-width: 0.1px;"/><path class="xgrid crisp" transform="translate(569.76,0)" d="M0,20v210" style="stroke: rgb(238, 238, 238); stroke-opacity: 1; stroke-width: 0.1px;"/></g><g class="y"><path class="ygrid crisp" transform="translate(0,188)" d="M20,0h660" style="stroke: rgb(238, 238, 238); stroke-opacity: 1; stroke-width: 0.1px;"/><path class="ygrid crisp" transform="translate(0,146)" d="M20,0h660" style="stroke: rgb(238, 238, 238); stroke-opacity: 1; stroke-width: 0.1px;"/><path class="ygrid crisp" transform="translate(0,104)" d="M20,0h660" style="stroke: rgb(238, 238, 238); stroke-opacity: 1; stroke-width: 0.1px;"/><path class="ygrid crisp" transform="translate(0,62)" d="M20,0h660" style="stroke: rgb(238, 238, 238); stroke-opacity: 1; stroke-width: 0.1px;"/></g></g><g class="zerolinelayer"><path class="yzl zl crisp" transform="translate(0,230)" d="M20,0h660" style="stroke: rgb(68, 68, 68); stroke-opacity: 1; stroke-width: 1px;"/></g><g class="layer-between"><g class="shapelayer"/><g class="imagelayer"/></g><path class="xlines-below"/><path class="ylines-below"/><g class="overlines-below"/><g class="xaxislayer-below"/><g class="yaxislayer-below"/><g class="overaxes-below"/><g class="plot" transform="translate(20,20)" clip-path="url(#clipd03ff0xyplot)"><g class="scatterlayer mlayer"><g class="trace scatter tracebf0ea1" style="stroke-miterlimit: 2;"><g class="fills"><g><path class="js-fill" d="M660,210L0,210L0,151.82L0.53,172.74L0.68,148.17L0.75,141.92L0.83,136.73L1.13,145.67L1.43,142.74L1.51,143.02L1.58,143.38L1.66,150.32L1.73,150.64L1.81,146L2.03,152.29L2.26,125.23L2.34,100.1L2.79,121.14L3.01,106.51L3.09,95.11L3.16,92.44L3.32,104.69L3.39,114.22L3.77,142.12L3.99,128.81L4.07,104.77L4.14,68.27L4.82,85.86L4.9,75.64L5.12,89.49L5.2,106.98L5.65,162.45L5.95,110.91L6.03,123.4L6.56,127.09L6.71,113.3L6.78,116.87L6.86,118.31L7.23,150.79L7.31,155.16L7.46,160.42L7.61,150.79L7.69,127.76L8.51,82.39L8.59,82.54L8.67,92.02L9.34,160.65L9.64,127.58L9.72,116.19L9.87,115.2L9.95,120.09L10.02,124.14L10.1,124.67L10.17,120.12L10.25,116.37L10.32,100.96L10.85,144.79L10.93,155.21L11.15,164.23L11.3,156.32L11.38,145.83L11.6,127.23L11.98,146.44L12.13,142.88L12.21,142.28L12.58,181.62L12.66,190.11L12.89,199.61L13.26,176.94L13.34,160.52L13.49,158.97L13.56,159.5L13.64,163.03L14.02,148.52L14.32,160.49L14.39,169.58L14.69,188.05L14.92,147.1L14.99,129.99L15.15,128.62L15.45,146.32L15.67,134L15.75,119.57L16.35,171.27L16.65,159.64L16.73,131.31L16.8,109.23L17.26,134.42L17.41,133.67L17.48,131.43L17.56,123.51L17.86,150.52L17.93,161.29L18.31,193.68L18.54,162.82L18.61,136.58L19.06,154.13L19.37,139.13L19.44,138.92L19.89,177.9L19.97,199.65L20.27,183.2L20.34,154.83L20.42,135.02L20.87,157.89L21.1,151.9L21.17,141.59L21.25,139.69L21.4,147.6L21.48,154.74L21.85,195.61L22.23,162.49L22.3,150.14L22.45,142.08L22.76,157.74L23.06,146.17L23.13,149.22L23.74,174.91L23.81,187.3L23.96,183.04L24.04,166.82L24.34,137.9L24.94,144.97L25.02,146.48L25.62,197.72L25.92,190.85L26,173.81L26.67,144.43L26.82,145.81L26.9,148.61L27.28,166.1L27.5,149.31L27.58,125.29L27.65,100.93L28.11,132.11L28.33,120.83L28.41,109.6L28.48,107.92L28.56,114.62L28.63,123.87L29.09,165.47L29.31,154.73L29.39,130.84L29.46,115.96L29.84,142.66L30.14,125.3L30.22,117.91L30.74,153.72L30.82,159.68L30.89,159.29L31.04,160.33L31.12,152.62L31.27,105.24L31.87,136.74L31.95,128.76L32.02,119.17L32.48,148.63L32.55,156.97L32.85,162.96L32.93,154.55L33,132.09L33.08,102.41L33.76,108.32L33.83,103.56L34.51,148.11L34.81,132.83L34.89,125.56L35.11,69.29L35.64,103.2L35.72,98.25L36.47,135.82L36.62,130.27L36.7,115.97L37.52,67.73L37.6,91.52L38.05,128.49L38.35,120.81L38.43,99.62L39.11,103.1L39.26,66.66L39.33,60.11L40.09,132.12L40.16,124.3L40.24,97.5L40.31,30.77L40.99,75.38L41.07,52.21L41.14,52.97L41.22,91.75L41.82,149.11L42.05,118.1L42.12,103.44L42.27,64.78L42.57,107.74L42.87,73.25L42.95,120.77L43.7,164.14L43.78,157.32L43.85,135.97L43.93,103.3L44.53,152.07L44.61,144.77L44.76,132.59L45.21,159.1L45.29,165.05L45.44,166.03L45.51,165.13L45.59,158.5L45.74,120.81L46.42,133.39L46.49,126.34L46.57,126.11L46.64,128.49L47.17,157.54L47.4,152.02L47.47,134.75L47.77,77.59L48.3,80.27L48.38,115.98L49.05,153.63L49.35,141.64L49.43,132.38L49.58,119.28L49.96,140.48L50.18,131.09L50.26,134.32L50.64,154.5L50.71,157.99L50.94,161.64L51.01,156.48L51.09,142.47L51.16,132.16L51.69,158.56L51.77,160.91L51.92,153.49L52.37,170.66L52.44,176.63L52.67,189.24L52.82,175.75L52.9,151.74L52.97,141.83L53.5,167.34L53.57,165.07L53.88,150.85L54.25,166.63L54.33,170.78L54.48,170.34L54.55,167.69L54.78,125.8L55.16,152.11L55.23,152.63L55.53,140.86L55.84,150.81L55.91,157.52L56.36,168.29L56.44,160.62L56.51,138.63L56.59,118.77L57.04,146.36L57.19,143.79L57.27,139.15L57.34,127.62L57.87,154.71L57.94,159.14L58.02,160.56L58.17,154.83L58.25,147.65L59.15,84.56L59.23,81.69L59.45,109.74L59.53,125.18L59.9,156.93L60.28,130.34L60.36,122.71L60.73,134.79L60.96,122.5L61.03,121.84L61.56,147.54L61.94,134.85L62.01,124.6L62.16,80.05L62.69,115.67L62.77,108.64L62.84,106.31L62.99,122.33L63.07,130.01L63.6,154.79L63.75,133.66L63.82,124.32L64.27,145.96L64.5,135.4L64.58,124.5L64.65,121.34L64.95,135.4L65.03,138.28L65.33,150.28L65.48,138.33L65.56,92.06L65.63,56.09L66.16,125.33L66.23,120.5L66.31,96.98L66.38,83.74L66.84,137.4L66.91,145.89L67.21,150.29L67.29,141.95L67.36,120.47L67.44,109.55L67.82,135.49L67.97,134.31L68.04,137.33L68.27,125.09L68.64,139.46L68.72,150.39L68.87,156.68L69.1,145.64L69.17,127.95L69.25,111.3L69.78,142.42L69.85,145.34L70,136.84L70.3,148.42L70.38,155.82L70.83,173.77L70.91,167.83L70.98,151.25L71.06,138.22L71.66,162.16L71.73,157.11L71.96,150.65L72.19,160.82L72.26,163.29L72.41,171.47L72.79,158.1L72.86,149.51L73.09,131L73.54,151.44L73.62,146.5L73.69,147.24L73.92,155.09L73.99,163.08L74.52,174.79L74.67,165.46L74.75,158.64L75.2,159.93L75.5,138.99L75.58,143.11L75.65,149.71L76.1,165.7L76.33,157.95L76.41,142.95L76.48,130.03L77.01,157.21L77.08,156.42L77.16,147.52L77.31,141.15L77.69,157.53L77.76,162.94L77.91,168.99L78.21,142.6L78.29,130.7L78.82,164.22L79.04,143.75L79.12,143.82L79.19,141.49L79.5,155.73L79.57,161.38L79.72,164.73L79.95,155.14L80.02,133.35L80.1,71.64L80.7,140.67L80.78,122.98L80.85,98.9L80.93,89.29L81.15,138.97L81.23,148.24L81.3,146.57L81.38,155.56L81.45,161.46L81.61,161.7L81.68,161.62L81.76,153.77L81.98,103.03L82.51,142.64L82.58,136.93L82.74,133.35L82.96,146.41L83.04,151.87L83.26,165.98L83.56,158.76L83.64,135.77L83.87,116.99L84.17,150.13L84.24,148.09L84.32,148.4L84.62,135.72L84.92,155.25L85,157.59L85.3,172.1L85.6,153.27L85.67,144.58L85.75,142.99L85.9,149.79L85.98,154.5L86.35,149.95L87.03,181.11L87.18,176.4L87.26,169.84L87.56,140.77L88.16,145.81L88.24,145.86L88.84,165.99L88.99,157.42L89.06,144.02L89.14,126.37L89.67,157.39L89.74,156.47L89.82,149.14L89.97,136.85L90.42,162.5L90.5,171.59L90.72,186.37L90.95,141.08L91.1,157.37L91.17,162.83L91.55,172.8L91.7,154.72L91.78,150.12L91.93,151L92,154.65L92.31,185.75L92.61,170.22L92.68,155.46L93.59,118.4L93.66,127.71L94.26,162.07L94.49,136.01L94.57,123.08L95.17,145.58L95.32,133.54L95.39,134.04L96.15,160.47L96.22,154.84L96.3,136.53L96.37,124.6L96.9,150.29L96.98,150.18L97.2,132.84L97.65,156.75L97.73,162.26L97.88,165.77L98.18,150.17L98.26,143.99L98.41,133.16L98.79,148.22L99.01,139.44L99.09,142.97L99.69,166.26L99.99,158.53L100.07,149.38L100.22,143.4L100.52,158.61L100.82,143.6L100.9,143.6L101.42,163.09L101.65,154.56L101.72,141.19L101.8,129.44L102.25,161.44L102.33,162.78L102.7,133.48L102.85,143.35L102.93,148.1L103.23,161.45L103.46,151.45L103.53,130.99L103.68,107.97L104.14,158.17L104.21,158.04L104.51,135.9L104.89,155.89L104.96,159.41L105.04,162.26L105.27,152.61L105.34,135.96L105.42,120.4L105.94,156.35L106.02,156.35L106.25,135.45L106.7,155.45L106.77,163.97L106.85,164.11L106.92,161.43L107,161.24L107.07,154.65L107.22,103.66L107.68,156.84L107.75,156.49L107.83,158.54L107.9,152.38L107.98,142.86L108.13,137.84L108.43,150.26L108.51,156.85L108.66,162.88L108.96,136.45L109.03,117.41L109.64,154.75L109.79,140.42L109.86,134.86L110.39,157.43L110.77,150.39L110.84,142.94L111.07,123.23L111.37,155.98L111.44,154.28L111.52,151.73L111.59,145.77L112.12,158.35L112.2,164.07L112.35,163.83L112.42,166.03L113.55,132.47L113.63,136.03L113.7,142.19L114.01,155.96L114.31,145.7L114.38,131.76L114.46,115.59L114.91,149.96L114.99,149.24L115.06,147.59L115.36,101.03L115.66,135.91L115.74,138.88L115.89,150.56L116.19,113.6L116.27,65.14L116.87,138.14L117.1,100.43L117.17,89.54L117.7,152.71L118,126.8L118.08,108.38L118.68,141.5L118.83,118.88L118.9,98.17L119.58,142.96L119.73,128.43L119.81,96.45L119.88,59.1L120.49,123.14L120.56,114.64L120.79,85.56L121.09,130.85L121.16,137.1L121.39,144.91L121.54,135.13L121.62,106.55L121.69,75.64L122.29,134.7L122.37,128.02L122.6,96.72L122.97,137.2L123.05,143.51L123.2,144.44L123.35,138.7L123.43,128.36L123.73,98.15L124.25,108.53L124.33,102.89L125.01,148.76L125.23,136.35L125.31,127.67L125.38,118.91L125.84,144.81L125.91,144.23L125.99,137.23L126.21,121.96L126.59,144.3L126.67,148.69L126.89,150.22L126.97,145.34L127.04,133.45L127.12,121.74L127.64,153.02L127.72,154.5L127.95,128.02L128.32,150.7L128.4,158.5L128.62,170.86L128.85,141.93L128.93,131.08L129.53,151.64L129.68,143.11L129.75,140.52L129.83,138.95L129.98,148.05L130.06,152.81L130.51,164.61L130.58,160.08L130.66,141.2L130.73,123.91L131.34,156.41L131.41,147.41L131.71,131.38L132.09,153.05L132.17,150.71L132.24,150.53L132.32,147.74L132.54,88.18L132.77,136.29L132.84,144.12L132.99,154.02L133.37,129.19L133.45,130.12L133.52,128.98L133.67,136.23L133.75,138.77L133.97,153.67L134.28,125.28L134.35,88.5L134.8,154.76L135.18,134.98L135.26,135.78L135.86,167.2L136.08,157.16L136.16,150.53L136.99,135.47L137.06,139.5L137.52,162.93L137.59,165.87L137.67,166.49L137.82,164.92L137.89,159.66L138.19,143.82L138.42,160.38L138.5,163.14L138.72,147.97L138.8,142.21L139.55,167.81L139.63,162.74L139.7,150.34L139.78,140.37L140.23,159.46L140.38,157.78L140.45,151.75L140.61,145.64L141.06,161.15L141.13,166.75L141.28,167.04L141.36,166.96L141.43,160.94L141.58,133.22L142.11,160.9L142.19,160.32L142.49,136.18L142.79,152.5L142.87,158.33L143.09,164.09L143.32,140.11L143.39,128.27L144,151.83L144.15,140.32L144.22,137.63L144.6,156.48L144.67,163.21L144.98,172.77L145.13,148.73L145.2,136.31L145.8,165.57L146.03,151.99L146.11,148.96L146.26,151.76L146.33,158.49L146.78,187.79L146.86,173.68L146.93,154.64L147.01,142.5L147.54,167.42L147.61,165.87L147.91,149.24L148.22,164.47L148.29,169.51L148.59,181.53L148.89,159.59L148.97,155.86L149.42,162.73L149.72,151.6L149.8,151.75L149.87,159.05L150.4,198.32L150.63,175.84L150.7,164.4L150.93,151.13L151.53,153.87L151.61,155.18L152.21,169.34L152.28,166.15L152.36,152.08L152.44,139.08L152.96,162.08L153.04,159.35L153.11,152.24L153.34,134.67L153.79,156.96L153.87,158.39L154.09,144L154.17,116.44L154.24,115.88L154.32,136.89L154.39,137.26L154.47,146.11L154.85,157.96L155,139.24L155.07,135.14L155.15,130.86L155.45,146.99L155.52,153.43L155.6,156.92L155.83,149.81L155.9,134.32L156.05,82.92L156.43,147.59L156.58,146.9L156.65,148.03L156.88,101.29L157.11,134.44L157.18,146.14L157.41,158.83L157.63,156.78L157.71,147.81L157.86,95.39L158.39,146.02L158.46,147.9L158.69,107.56L159.07,151.3L159.14,158.1L159.37,162.24L159.52,153.53L159.59,121.48L159.67,99.84L160.05,150.63L160.2,150.28L160.27,152.49L160.57,127.42L160.87,149.64L160.95,158.86L161.1,164.41L161.4,148.13L161.48,136.05L161.63,124.38L162,151.47L162.08,150.11L162.16,146.02L162.31,135.76L162.76,161.39L162.83,163.93L162.91,166.18L163.29,158.46L163.36,150.97L163.89,157.82L164.11,143.8L164.19,145.75L164.27,146.13L164.64,164.5L165.02,146.76L165.09,141.62L165.7,164.93L165.85,150.19L165.92,138.66L166.07,134.74L166.15,141.87L166.22,146.26L166.3,146.52L166.38,152.4L166.6,159.42L166.75,143.79L166.83,110.51L166.9,92.78L167.35,162.34L167.43,159.87L167.66,140.21L167.73,121.04L167.81,116.12L168.03,144.79L168.11,145.69L168.33,159.65L168.56,150.08L168.64,104.93L168.71,93.06L169.01,155.41L169.09,158.59L169.16,161.73L169.39,151.87L169.46,141.34L169.62,131.32L169.99,156.38L170.07,162.14L170.22,161.98L170.29,157.84L170.52,106.69L170.59,142.63L170.67,145.85L171.05,160.12L171.35,142.13L171.42,145.19L171.5,144.83L171.57,147.78L171.65,153.28L171.73,150.83L172.03,163.85L172.1,162.75L172.33,122.22L172.7,147.53L172.78,147.11L173.16,131.12L173.46,145.3L173.53,148.95L173.68,159.82L174.14,145.72L174.21,141.39L174.36,134.37L174.66,154.16L175.04,134.46L175.12,137.17L175.79,161.63L175.94,155.51L176.02,149.53L176.17,143.7L176.47,167.33L176.55,165.86L176.92,146.88L177.23,164.86L177.3,170.6L177.53,170.91L177.6,165.23L177.75,144.52L178.21,182.28L178.28,181.95L178.66,150.77L179.03,175.12L179.11,178.6L179.26,180.58L179.41,174.07L179.49,161.24L179.56,154.38L179.86,190.12L179.94,192.2L180.01,194.89L180.24,184.57L180.32,165.64L180.39,162.7L180.69,181.42L180.77,195.11L180.99,198.84L181.14,184.43L181.22,170.17L181.37,137.15L181.97,167.47L182.05,161.89L182.35,143.42L182.65,173.58L182.73,180.41L182.95,180.97L183.03,175.43L183.33,158.59L183.78,171.3L183.86,169.58L184.08,157.19L184.46,178.22L184.53,184.31L184.69,185.99L184.84,180.99L184.91,172.57L185.14,163.57L185.51,174.99L185.74,165.08L185.82,164.53L185.89,163.87L186.04,166.9L186.12,171.22L186.34,174.93L186.72,166.77L186.8,163.69L187.62,140.75L187.7,143.66L187.77,143.6L188.38,172.57L188.68,159.69L188.75,150.72L189.73,165.95L189.81,166.29L190.11,175.49L190.41,165.96L190.49,163.02L190.71,158.83L190.94,172.12L191.01,173.71L191.39,160.14L191.77,169.48L191.84,169.74L191.99,168.45L192.07,161.76L192.15,122.14L192.75,194.38L192.82,194.25L193.12,156.27L193.58,178.52L193.65,178.47L193.88,174.14L193.95,147.74L194.03,135.16L194.41,192.5L194.48,193.05L194.56,195.68L194.71,194.52L194.78,169.17L194.93,162.44L195.31,176.5L195.39,181.3L195.84,147.26L195.91,190.41L195.99,189.13L196.29,193.98L196.36,196.15L196.59,194.42L196.67,161.54L197.27,184.67L197.5,180.01L197.57,163.64L198.17,195.16L198.4,193.69L198.47,167.82L198.55,163.69L198.93,179.51L199,182.25L199.45,175.59L199.53,190.18L199.6,191.64L199.98,196.61L200.21,193.76L200.28,164.52L200.43,164.03L200.51,170.13L201.56,199.1L201.79,198.11L201.87,196.54L201.94,195.31L202.02,170.48L202.24,166.08L202.47,177.09L202.54,181.41L202.69,187.9L203,169.36L203.07,159.29L203.52,187.29L203.75,160.88L203.82,152.28L204.05,148.74L204.28,159.99L204.35,171.7L204.58,176.55L204.65,170.77L204.73,158.13L204.88,113.56L205.48,155.47L205.56,148.33L205.86,134.65L206.16,161.32L206.24,164.39L206.39,165.08L206.46,163.41L206.54,155.52L206.69,124.11L207.14,162.61L207.22,162.18L207.29,156.88L207.67,139.65L207.89,153.45L207.97,159.46L208.12,164.86L208.35,154.49L208.42,131.88L208.5,122.87L208.8,153.68L208.87,153.56L208.95,156.85L209.17,151.39L209.25,143.25L209.48,137.23L209.63,149.28L209.7,148.39L209.78,156.43L209.93,163.29L210.15,151.81L210.23,121.37L210.3,119.32L210.38,148.29L210.61,157.15L210.68,162.69L210.76,162.54L210.83,165.67L211.21,119.47L211.36,143.88L211.44,153.26L211.89,167.94L212.04,155.27L212.11,154.13L212.34,141.99L212.64,163.02L212.94,143.76L213.02,141.53L213.09,138.68L213.32,159.15L213.39,158.88L213.7,169.14L214,156.59L214.07,149.59L214.22,156.5L214.3,161.82L214.45,168.87L214.83,148.83L214.9,147.46L215.88,185.03L215.96,170.69L216.03,171.81L216.33,174.42L216.41,168.02L216.48,156.06L216.71,144.73L216.94,158.52L217.01,170.36L217.24,181.2L217.61,164.55L217.69,155.64L218.07,168.14L218.29,156.62L218.37,151.34L218.52,143.42L218.82,164.04L218.89,169.72L219.2,159.34L219.27,131.04L219.35,123.83L219.42,146.03L219.5,186.4L219.57,190.3L219.65,158.94L219.87,172.63L219.95,167.53L220.33,142.03L220.63,167.06L220.7,172.99L220.78,173.71L220.85,169.66L220.93,171.04L221,164.88L221.08,142.18L221.68,175.25L221.76,169.62L222.13,145.26L222.44,168.97L222.51,174.5L222.74,171.59L222.81,164.45L222.96,133.47L223.42,176.16L223.49,173.2L223.57,168.9L223.87,140.11L224.24,171.72L224.32,174.32L224.62,171.26L224.7,164.5L224.92,155.84L225.3,171.73L225.45,171.14L225.53,163.72L225.68,164.04L225.75,160.1L226.43,179.82L226.58,173.61L226.66,165.73L226.73,163.48L226.96,176.69L227.03,180.53L227.18,174.92L227.26,171.91L227.56,155.72L227.94,175.04L228.01,174.79L228.09,174.96L228.16,177.03L228.39,160.6L228.46,174.53L228.54,194.61L228.92,200.93L228.99,183.95L229.07,178.2L229.37,158.28L229.75,177.12L229.82,180.26L230.2,151.34L230.27,191.58L230.35,189.87L230.72,196.57L230.8,195.96L230.88,174.67L231.18,161.98L231.48,183.07L231.55,187.62L231.86,182.61L231.93,168.02L232.01,162.5L232.23,194.59L232.31,195.25L232.46,194.95L232.53,196.34L232.68,195.1L232.76,170.98L232.83,170.81L232.91,168.15L233.66,196.83L234.19,193.38L234.27,193.27L234.34,195.75L234.72,192.46L234.79,171.39L235.32,196.35L235.85,191.9L235.92,191.52L236.15,195.48L236.23,179.92L236.53,170.08L236.83,177.62L236.9,182.44L237.28,196.51L237.81,195.16L237.88,195.54L237.96,197.28L238.34,193.53L238.56,196.41L238.64,194.76L239.16,194.32L239.62,203.59L239.69,203.65L239.77,204.31L239.84,200.74L239.92,197.89L240.14,182.5L240.37,187.27L240.45,189.89L241.58,204.76L241.65,199.51L242.03,182.37L242.25,188.75L242.33,194.42L242.4,198.5L242.86,189.25L243.01,190.57L243.08,193.33L243.16,193.09L243.31,193.65L243.38,196.72L243.46,196.93L243.69,195.85L243.76,193.26L243.84,193.39L243.91,181.41L244.29,198.73L244.51,197.03L244.59,179.97L244.66,172.93L245.12,201.1L245.19,203.08L245.57,179.2L245.87,187.63L245.95,195.25L246.47,189.05L246.62,202.83L246.7,189.78L247,206.36L247.3,179.37L247.38,175.6L247.45,172.53L247.83,183.54L247.91,183.54L247.98,183.7L248.21,166.91L248.28,162.52L248.73,199.85L249.04,195.58L249.11,170.08L249.26,167.54L249.41,176.35L249.49,174.77L249.56,180.17L250.09,176.41L250.54,196.39L250.62,197.7L250.77,195.75L250.84,170.79L250.99,168.26L251.15,173.83L251.22,179.53L252.43,204.95L252.5,204.81L252.8,180.54L253.1,191.67L253.18,196.04L254.08,204.81L254.16,204.75L254.23,205.25L254.39,204.43L254.46,199.34L254.91,191.08L255.21,197.67L255.29,197.55L255.52,189.92L256.04,197.37L256.12,197.31L256.42,194.38L256.72,195.65L256.8,196.25L257.32,191.95L257.7,201.12L257.78,201.17L257.85,203.96L258.08,183.63L258.15,180.04L258.38,179.53L258.45,184.27L259.66,203.88L259.74,201.67L259.89,201.57L259.96,199.44L260.11,201.63L260.19,188.64L260.26,187.78L260.41,192.9L260.49,197.12L260.64,198.13L260.94,192.81L261.17,197.79L261.24,199.38L261.47,203.71L261.62,200.09L261.69,182.66L261.92,177.29L262.22,189.34L262.3,191.27L262.37,189.4L262.6,198.44L262.82,196.08L262.9,196.78L263.28,204.31L263.5,198.39L263.58,182.24L263.65,180.38L264.03,189.96L264.11,191.86L264.26,191.93L264.33,194.08L264.41,194.4L264.48,192.4L264.56,197.31L264.71,201.62L264.78,204.11L265.09,204.85L265.16,203.54L265.24,187.17L265.31,180.54L265.91,194.74L265.99,194.78L266.14,195.06L266.22,199.78L266.29,196.11L266.59,205.33L266.82,205.32L266.89,205.37L267.27,178.68L267.65,190.56L267.72,192.72L267.8,193.33L267.95,191.35L268.02,188.79L268.1,178.1L268.63,203.45L268.7,204.24L268.85,204.18L268.93,200.72L269.08,177.39L269.38,186.01L269.46,191.91L269.76,199.22L269.91,190.08L270.36,196.34L270.43,196.46L270.81,198.23L270.89,196.55L270.96,185.38L272.32,204.22L272.39,200.93L272.85,188.53L273.15,199.47L273.22,201.24L273.6,194L273.9,198.48L273.98,202.47L274.05,203.32L274.28,198.07L274.35,197.73L274.58,178.85L275.11,191.6L275.18,193.3L275.33,190.29L275.41,188.29L275.94,199.11L276.16,198.62L276.24,182.61L276.31,180.84L276.61,188.08L276.69,191.93L277.67,206.2L277.74,206.9L278.2,188.34L278.5,194.05L278.57,204.73L279.03,199.81L279.18,205.8L279.33,203.39L279.4,205.17L279.55,206.85L279.78,202.96L279.85,201.14L280.08,202.9L280.16,193.97L280.68,199.74L280.91,197.17L280.98,195.31L281.66,199.15L281.81,197.34L281.89,190.15L282.19,199.85L282.64,195.41L282.72,197.24L282.79,195.39L283.32,199.15L283.4,199.16L283.85,197.25L284.07,199.35L284.15,199.3L284.3,198.87L284.37,190.95L285.13,198.98L285.43,196.93L285.51,196.59L286.03,199.03L286.11,198.96L286.18,194.22L287.09,198.42L287.16,196.36L287.46,197.24L287.54,199.26L287.77,199.46L287.92,198.96L287.99,196.31L288.52,196.53L288.59,198.51L288.97,196.28L289.05,198.31L289.2,195.17L289.57,198.79L289.8,196.83L289.88,196.8L290.03,200.35L290.1,202.75L290.4,203.94L290.55,200.16L290.63,198.8L291.01,192.95L291.23,201.3L291.31,201.55L291.61,196.96L291.91,204.52L291.99,204.7L292.21,205.44L292.29,205.02L292.36,200.06L292.81,190.43L292.96,196.86L293.04,200.72L293.49,192.71L293.87,196.16L293.94,195.82L294.32,197.98L294.55,195.74L294.7,196.48L294.77,196.55L295,198.57L295.3,192.81L295.38,195.01L295.45,192.8L295.83,198.1L296.28,195.57L296.36,195.62L296.81,197.97L296.96,197.75L297.03,192.75L297.11,192.22L297.34,195.09L297.41,195L297.49,194.97L297.64,197.21L298.24,194.97L298.31,194.93L298.62,197.5L298.77,197.01L298.84,190.94L299.07,190.82L299.67,196.28L299.75,196.18L299.82,193.52L300.12,194.66L300.2,197.02L300.42,197.17L300.58,196.87L300.65,193.25L300.8,193.04L301.18,193.5L301.25,195.97L301.48,196.14L301.55,193.88L302.23,196.98L302.38,196.86L302.46,194.54L302.69,194.35L302.76,195.43L302.99,199.34L303.36,194.24L303.44,194.11L304.12,196.95L304.19,196.87L304.27,192.26L304.8,201.16L305.17,196.74L305.25,194.34L305.62,194.49L305.7,196.85L305.93,196.84L306,196.62L306.08,190.23L306.3,189.01L306.45,192.85L306.53,193.01L306.75,195.76L307.36,194.54L307.43,194.7L307.66,197.05L307.96,191.55L308.04,193.89L308.11,191.48L308.71,196.45L308.94,194.05L309.01,194.02L309.47,197.3L309.62,196.8L309.69,191.28L309.92,191.19L310.6,196.14L310.67,193.71L310.9,194.53L310.97,194.93L311.28,197.87L311.43,197.05L311.5,191.6L311.58,191.21L311.65,193.86L311.8,193.86L311.88,193.85L312.03,193.93L312.1,196.33L312.41,196.39L312.48,193.96L312.71,194.78L312.78,196.48L313.08,198.76L313.39,194.61L313.46,194.48L313.84,194.52L313.91,196.85L314.14,197.04L314.21,194.83L314.29,194.96L314.36,197.44L314.97,200.08L315.12,197.99L315.19,197.66L315.27,196.88L315.42,201.1L315.49,202.41L315.65,204.32L315.95,198.91L316.02,197.12L316.1,197.26L316.17,199.18L316.32,199.21L316.4,198.12L316.7,200.34L316.85,199.38L316.93,195.49L317,195.76L317.08,200.25L317.53,204.43L317.76,198.51L317.83,198.55L318.21,196.17L318.43,198.79L318.58,198.19L318.66,197.23L318.96,191.19L319.34,198.62L319.41,197.69L319.71,195.4L320.09,196.6L320.17,198.65L320.39,198.71L320.47,198.35L320.54,193.35L320.77,191.95L321,195.55L321.07,195.16L321.15,196.62L321.45,197.19L321.52,194.3L321.67,194.28L322.2,198.11L322.28,198.08L322.35,192.6L322.58,188.45L322.88,193.18L322.95,196.88L323.26,197.31L323.33,194.94L323.56,195.89L323.71,195.43L323.78,197.6L324.08,197.63L324.16,192.39L324.31,193.92L324.39,191.58L324.69,192.41L324.76,196.77L325.06,196.92L325.14,194.62L325.37,195.36L325.44,195.67L325.82,198.38L326.12,195.03L326.19,195.01L326.5,195.14L326.57,197.34L326.8,197.23L326.87,195.13L327.63,200.2L327.7,200.13L327.78,198.08L327.85,196.85L328.15,202.81L328.23,204.4L328.38,205.52L328.46,204.31L328.53,200L328.68,196.56L329.06,201.9L329.13,204.57L329.51,205.63L329.59,204.38L329.89,205.28L329.96,205.22L330.19,206.13L330.49,205.11L330.57,201.41L331.09,204.59L331.47,195.15L331.54,197.22L332,204.05L332.3,199.18L332.37,196.5L332.45,196.17L332.75,198.03L332.83,199.9L333.05,199.88L333.13,199.36L333.2,194.07L333.5,201.37L334.03,199.34L334.11,198.51L334.18,196.4L334.78,200.29L334.86,200.29L334.94,199.95L335.01,195.46L335.24,194.57L335.31,198.18L335.39,198.64L335.69,201.03L335.76,200.16L335.84,198.99L335.99,196.57L336.37,199.33L336.44,201.36L336.52,201.78L336.74,199.9L336.82,194.56L336.89,194.23L336.97,196.43L337.05,194.46L337.12,196.81L337.5,199.7L337.72,198.42L337.8,196.39L337.87,196.69L337.95,186.91L338.33,200.47L338.7,196.2L338.78,196.13L339.16,196.42L339.23,198.39L339.46,198.25L339.53,196.11L339.61,196.25L339.68,198.47L339.91,198.23L340.29,201.11L340.36,200.66L340.44,198.24L340.66,197.98L340.74,198.57L340.81,200.49L340.96,202.16L341.34,197.38L341.49,199.68L341.57,199.81L342.02,200.45L342.47,195.82L342.55,198.59L342.7,200.39L343.15,199.43L343.22,197.54L343.6,197.99L343.68,199.92L343.98,199.44L344.05,194.89L344.28,194.6L344.96,198.9L345.03,196.9L345.41,198.59L345.48,200.38L345.79,199.85L345.86,195.09L346.09,194.92L346.46,199.11L346.77,198.91L346.84,197.14L347.44,201.49L347.59,200.77L347.67,196.33L347.82,197.73L347.9,195.79L347.97,198.1L348.27,202.24L348.65,198.24L348.72,198.29L349.18,201.67L349.4,201.45L349.48,197.27L349.7,196.7L349.93,198.67L350.01,198.67L350.08,200.35L350.16,200.52L350.31,200.23L350.38,200.22L350.46,198.53L350.76,200.42L350.83,201.91L351.66,198.92L351.81,199.14L351.89,200.83L352.27,198.91L352.34,200.71L352.57,200.49L353.7,205.63L353.77,205.45L353.85,203.53L354,200.67L354.3,204L354.45,203.47L354.53,205.36L354.9,204.45L355.2,207.44L355.28,208.79L355.43,210.94L355.73,204.61L355.81,203.02L356.11,204.21L356.18,201.78L356.26,202.27L356.34,204.53L356.56,204.8L356.64,202.67L356.79,198.9L357.31,204.7L357.39,204.46L357.77,200.69L358.07,202.57L358.14,203.66L358.37,204.07L358.45,203.82L358.52,200.74L358.75,200.67L359.2,202.98L359.42,202.58L359.5,201.6L359.95,203.91L360.25,203.6L360.33,200.81L360.55,200.58L361.23,202.99L361.31,201.9L361.46,196.18L361.99,204.04L362.06,204.07L362.36,201.28L362.82,203.48L362.89,203.49L362.97,195.95L363.04,203.51L363.64,202.48L363.72,203.41L363.87,204.33L364.1,202.75L364.32,202.75L364.4,202.75L364.77,203.79L364.85,202.77L364.93,196.65L365.68,204.32L365.9,203.39L365.98,203.34L366.13,194.77L366.58,204.23L366.81,196.9L366.88,198.78L367.04,198.23L367.11,199.36L367.19,201.53L367.49,205.12L368.01,204.48L368.09,204L368.17,205.13L368.54,202.69L368.62,202.69L368.69,197.52L368.99,203.47L369.52,200.98L369.6,199.59L370.05,195.98L370.12,202.49L370.2,193.58L370.35,194.05L370.43,201.61L370.95,203.48L371.1,202.98L371.18,199.69L371.78,202.67L372.08,202.3L372.16,200.95L372.54,201.86L372.61,203.12L372.91,202.75L372.99,199.58L373.21,199.48L373.89,202.17L373.97,192.75L374.49,202.7L374.8,199.38L374.87,199.36L375.02,199.19L375.63,202.09L375.7,202.08L375.78,200.65L375.93,193.81L376.23,202.62L376.45,202.52L376.53,202.64L376.91,200.74L377.28,202.14L377.36,202.09L377.58,200.63L377.81,202.8L377.89,202.24L377.96,203.63L378.34,204.54L378.41,203.17L378.49,202.7L378.87,202.12L378.94,202.79L379.02,203.66L379.32,201.47L379.77,202.01L379.84,203.17L380.15,203.02L380.22,200.57L380.82,205.62L381.05,202.88L381.13,202.35L381.2,201.06L381.8,202.8L381.88,202.46L382.26,198.59L382.63,201.63L382.71,201.61L382.93,201.58L383.01,200.16L383.61,203.15L383.76,202.81L383.84,199.08L384.06,198.86L384.14,200.34L384.22,200.37L384.37,200.42L384.44,201.92L384.74,201.71L384.82,200.5L385.5,202.67L385.57,202.58L385.65,199.43L386.25,202.93L386.55,202.18L386.63,200.84L386.78,200.81L386.85,201.49L386.93,202.12L387.08,205.31L387.53,199.95L387.61,201.09L387.68,199.56L388.06,203.31L388.51,200.89L388.59,201.07L389.11,204.05L389.34,201.52L389.41,201.37L389.79,201.89L389.87,203.1L390.17,201.4L390.24,201.56L390.32,203.02L390.54,202.21L390.92,203.99L391,203.96L391.07,203.19L391.6,202.83L391.67,203.91L391.83,203.86L391.9,197.69L392.13,197.78L392.2,199.86L392.81,204.18L393.03,203.06L393.11,201.82L393.48,204.76L393.86,202.38L393.94,202.4L394.31,203.57L394.39,204.96L394.54,205.65L394.61,203.69L394.69,201.24L394.76,200.87L394.91,202.18L394.99,204.24L395.52,205.05L395.59,204.67L395.67,204.2L396.05,205.58L396.12,206.16L396.42,205.75L396.5,203.61L397.1,205.64L397.4,205.22L397.48,204.54L397.85,205.12L397.93,205.75L398.23,205.66L398.31,203.59L398.53,203.41L398.68,204.25L398.83,204.05L398.91,204.9L399.13,203.61L399.21,195.62L399.36,194.55L399.44,196.21L399.51,203.29L399.59,199.14L399.81,205.12L400.26,201.57L400.34,200.37L400.72,203.43L401.24,202.68L401.32,203.81L401.62,204.6L402.15,201.53L402.3,202.03L402.37,202.2L402.53,203.26L402.83,201.56L402.9,196.26L403.58,205.15L403.73,204.02L403.81,203.72L404.11,203.12L404.26,204.27L404.33,204.96L404.64,202.82L405.09,203.71L405.16,204.57L405.46,204.59L405.54,202.46L405.77,202.09L405.92,204.27L405.99,204.87L406.14,204.95L406.22,203.9L406.52,202.72L406.9,203.22L406.97,204.21L407.27,203.79L407.35,200.24L407.42,199.31L407.88,201.62L407.95,202.92L408.33,201.35L408.48,202.12L408.55,203L408.7,203.05L408.78,204.14L409.08,203.71L409.16,200.34L409.23,199.86L409.61,201.57L409.68,201.55L409.76,202.76L409.91,202.59L410.06,202.8L410.14,201.56L410.81,204.41L410.89,204.1L410.96,201.16L411.19,200.87L411.27,202.09L411.34,202.14L411.49,202.15L411.57,203.3L411.87,203.29L411.94,201.79L412.55,205.15L412.7,204.41L412.77,201.25L412.92,202.05L413,200.83L413.3,202.08L413.38,203.22L413.75,201.17L414.05,202.78L414.13,203.86L414.36,203.97L414.51,203.75L414.58,201.11L414.73,200.32L415.11,201.26L415.18,202.85L415.49,202.07L416.24,204.62L416.31,204.38L416.39,203.24L416.69,202.81L416.92,203.5L416.99,203.91L417.29,202.87L417.37,202.99L417.44,204.08L417.6,204.2L417.67,203.23L418.05,204.34L418.2,202.35L418.27,202L418.42,201.6L418.8,203.68L419.1,203.59L419.18,202.5L419.55,203.01L419.63,204.02L419.93,203.74L420.01,200.54L420.23,200.5L420.91,203.01L420.99,201.84L421.36,202.76L421.44,203.87L421.74,203.66L421.82,200.71L422.04,200.51L422.72,203.05L422.79,201.87L422.95,201.85L423.02,202.6L423.17,202.62L423.25,203.69L423.55,203.71L423.62,200.66L423.85,200.62L424.53,203.17L424.6,202.02L425.28,203.79L425.36,203.75L425.43,200.56L425.66,200.5L426.26,203.26L426.34,203.22L426.41,202.01L426.56,202.06L426.64,203.07L427.09,205.01L427.39,201.68L427.47,201.91L427.54,202.34L428.45,204.37L428.52,202.61L428.97,204.79L429.28,203.28L429.35,203.16L429.58,203.29L429.65,204.33L430.03,203.3L430.18,204.17L430.25,204.56L430.78,204.99L431.08,202.25L431.16,203.2L431.46,204.11L431.76,203.66L431.84,202.6L432.14,202.16L432.21,202.82L432.29,203.87L432.59,203.43L432.67,200.91L432.82,201.52L432.89,199.59L433.19,200.92L433.27,202.26L433.49,202.37L433.57,192.9L433.72,192.74L433.8,191.44L434.1,204.17L434.55,200.04L434.62,201.32L434.7,200.06L435.23,202.86L435.3,202.61L435.45,193.84L435.98,203.94L436.06,203.93L436.21,203.49L436.28,200.44L437.04,202.96L437.11,202.88L437.19,194.42L437.41,191.6L437.56,198.27L437.64,201.23L437.87,204.18L438.09,200.72L438.39,202.19L438.47,202.43L438.62,202.19L438.69,203.57L438.92,203.31L439,203.31L439.22,194.49L439.67,205.35L439.75,205.54L440.2,203.11L440.5,204.14L440.58,204.19L440.8,203.13L440.88,203.24L440.95,204.4L441.03,204.1L441.33,205.54L441.41,205.56L441.48,205.57L441.63,205.66L441.71,205L441.78,204.93L441.86,204.85L442.24,204.81L442.31,205.5L442.69,204.75L442.84,205.44L442.91,205.46L443.37,205.66L443.74,204.21L443.82,204.88L444.57,204.87L444.65,204.75L445.25,205.88L445.32,203.81L445.4,203.61L445.63,204.49L445.78,204.54L445.85,204.54L446.61,205.25L446.68,205.21L446.76,205.81L447.06,205.55L447.13,203.4L447.36,203.32L448.04,204.92L448.11,204.11L448.64,205.66L448.87,205.38L448.94,203.08L449.17,202.9L449.77,204.7L449.85,199.63L449.92,198.8L450.15,204.64L450.22,204.56L450.6,205.33L450.67,205.25L450.75,202.93L451.58,204.64L451.65,204.62L451.73,203.75L451.96,204.46L452.03,204.57L452.33,205.34L452.63,203.78L452.71,203.79L453.09,203.85L453.16,204.72L453.39,204.73L453.46,203.89L454.29,205.56L454.37,204.83L454.44,204.76L454.89,204.61L454.97,205.33L455.35,204.63L455.42,205.46L455.65,204.88L456.02,205.62L456.1,205.43L456.18,204.16L456.4,203.94L457.08,205.26L457.15,204.51L457.53,204.63L457.61,205.36L457.91,205.32L457.98,203.08L458.21,202.99L458.89,204.73L458.96,203.99L459.19,204.67L459.26,205L459.57,205.66L459.72,205.36L459.79,203.12L460.62,204.76L460.7,199.72L460.92,199.77L461,201.73L461.3,205.42L461.75,204.01L461.83,203.19L462.2,204.84L462.35,204.74L462.43,198.07L462.58,196.31L462.96,201.9L463.03,203.32L463.26,203.3L463.33,201.77L463.48,193.78L464.01,204.82L464.09,199.1L464.16,198.36L464.31,196.76L464.69,200.52L464.77,201.95L465.07,205.47L465.52,204.05L465.59,204.04L465.74,204.09L465.82,204.94L466.05,198.55L466.5,205.3L466.57,205.91L466.95,205.98L467.03,205.39L467.1,205.31L467.25,205.23L467.33,200.3L467.55,200.91L467.85,199.25L468.01,199.62L468.08,200.35L468.61,203.51L468.76,201.7L468.83,199.33L468.91,198.06L468.99,205.01L469.21,204.97L469.29,204.98L469.51,205.64L469.59,200.36L469.81,198.16L470.12,201.02L470.19,204.98L470.42,205.69L470.57,201.95L470.64,196.64L470.72,194.91L471.02,199.19L471.17,199.19L471.25,200.04L471.47,197.68L471.55,204.93L471.62,204.11L471.7,204.2L472.3,206.08L472.38,205.99L472.45,203.9L472.68,203.6L473.05,205.35L473.13,205.23L473.2,200.99L473.51,199.58L473.73,202.65L473.81,203.79L473.96,204.94L474.18,203.22L474.26,198.75L474.33,197.38L474.71,200.8L474.94,199.68L475.01,199.78L475.84,206.07L475.92,206.05L476.14,203.36L476.52,204.26L476.6,204.28L477.5,206.05L477.58,206.06L477.8,205.87L477.88,204.37L478.1,198.17L478.48,205.13L478.78,198.77L478.86,198.89L479.01,199.8L479.08,201.78L479.46,205.66L479.68,202.89L479.76,202.76L479.99,197.6L480.29,205.44L480.36,205.43L480.44,205.4L480.59,199.03L481.19,202.89L481.27,202.89L481.49,197.93L481.57,204.04L481.64,204.67L481.72,204.2L482.1,205.67L482.17,200.45L482.47,198.8L482.55,204.62L483.08,205.8L483.23,205.66L483.3,203.46L484.21,205.12L484.28,204.37L484.58,205.45L484.66,204.31L484.88,206.05L485.11,199.05L485.34,203.49L485.41,204.29L485.79,205.06L485.86,200.37L486.09,198.77L486.17,204.36L486.24,204.46L486.77,206.07L486.92,203.83L486.99,203.71L487.14,203.62L487.52,205.23L487.67,205.2L487.75,199.99L487.9,199.24L488.05,200.98L488.12,205.38L488.35,205.76L488.95,203.29L489.25,204.27L489.33,205.13L489.48,205.18L489.63,204.73L489.71,204.03L490.38,205.65L490.46,205.59L490.54,204.13L490.61,203.76L491.06,204.25L491.14,205.04L491.29,205.04L491.36,199.6L491.59,199.73L491.67,201.31L492.65,205.09L492.72,205.1L493.02,205.75L493.1,201.24L493.25,199.87L493.62,202.09L493.7,202.01L493.78,203.26L494.23,196.77L494.3,204.35L494.6,204.48L495.06,197.3L495.43,199.71L495.51,201.69L495.66,204.99L496.04,194.23L496.26,203.3L496.34,203.28L496.49,203.31L496.56,204.13L496.64,203.73L496.71,196.7L496.94,194.08L497.24,199.84L497.32,201.2L497.54,202.49L497.69,199.96L497.77,193.96L497.84,188.71L498.22,203.53L498.45,198.34L498.52,195.65L498.67,193.18L499.05,198.39L499.13,199.73L499.28,201.1L499.5,199.31L499.58,193.65L499.65,192.72L499.73,203.16L500.18,204.27L500.33,197.16L500.41,194.68L500.56,193.95L500.71,196.05L500.78,199.15L501.08,202.35L501.31,200.67L501.39,194.42L501.46,191.95L501.84,203.22L502.06,196.75L502.14,195.78L502.29,192.61L502.74,199.08L502.82,200.6L503.04,201.34L503.19,197.85L503.27,196.52L503.5,191.81L503.72,203.48L503.8,204.24L504.17,194.89L504.55,200.31L504.63,201.5L504.93,200.5L505,199.72L506.06,193.53L506.13,195.69L506.66,197.84L506.74,196.41L506.81,192.94L506.89,190.8L507.26,197.64L507.41,196.91L507.49,195.95L507.72,187.82L508.17,194.42L508.24,196.74L508.47,195.27L508.54,176.72L508.7,142.86L509.22,173.65L509.3,173.65L509.52,160.35L509.83,189.57L509.9,183.58L509.98,187.05L510.13,189.72L510.35,173.36L510.43,159.77L510.5,148.53L511.03,181L511.11,178.72L512.01,204.95L512.16,204.36L512.24,192.78L512.69,203.66L512.91,196.29L512.99,192.34L513.14,190.8L513.29,193.75L513.37,194.95L513.67,200.66L513.97,194.49L514.04,185.85L514.35,200.68L514.95,178.25L515.02,178.05L515.63,191.72L515.85,183.89L515.93,181.02L516.08,174.04L516.31,188.21L516.38,192.61L516.46,192.43L516.53,187.14L516.68,183.18L516.98,195.22L517.06,197.99L517.51,200.81L517.66,199.07L517.74,195.71L518.26,197.79L518.57,188.99L518.64,192.77L518.72,192.9L518.79,194.78L519.24,199.78L519.39,198.2L519.47,189.46L519.92,199.31L520.37,178.65L520.45,178.92L520.53,178.68L520.6,179.74L520.68,181.45L520.9,186.55L521.05,185.07L521.13,182.15L521.35,153.44L521.81,175.23L521.88,175.31L522.11,165.61L522.41,172L522.48,177.47L522.56,177.22L522.64,181.32L522.79,186.71L523.09,167.01L523.16,160.42L523.69,183.22L523.99,174.44L524.07,173.48L524.67,188.4L524.82,182.22L524.9,164.92L524.97,157.1L525.5,179.48L525.57,176.39L525.72,166.96L526.18,185.68L526.25,192.73L526.33,195.75L526.63,185.76L526.7,175.27L526.78,166.12L527.38,179.33L527.46,176.2L527.61,173.35L528.06,182.02L528.14,183.52L528.29,188.07L528.59,176.73L528.66,173.62L528.89,167.51L529.12,174L529.42,170.46L529.49,170.99L530.02,183.33L530.32,176.01L530.4,172.2L530.77,174.74L531.15,159.44L531.23,161.83L531.3,165.85L531.83,191.36L532.05,179.64L532.13,167.22L532.2,160.16L532.58,180.42L532.81,173.64L532.88,168.26L532.96,164.96L533.33,173.79L533.41,171.81L533.49,177.14L533.64,180.82L533.86,175.73L533.94,111.65L534.01,88.39L534.47,163.39L534.54,157.11L534.62,156.77L534.77,134.84L535.29,177.36L535.37,181.36L535.52,181.81L535.6,181.61L535.67,177.23L535.82,155.47L536.42,170.27L536.5,167.72L536.57,163.57L537.03,174.26L537.1,177.98L537.18,181.68L537.48,174.75L537.55,161.16L537.63,148.87L538.08,166.54L538.23,163.49L538.31,161.33L538.38,157.04L538.84,167.39L538.91,172.2L538.99,175.89L539.29,169.71L539.36,154.38L539.44,147.03L539.89,162.13L540.04,160.57L540.12,154.59L540.19,151.39L540.64,164.59L540.72,168.94L540.95,173.09L541.1,171.49L541.17,151.11L542,113.96L542.08,122.45L542.68,174.88L542.9,172L542.98,165.85L543.81,111.43L543.88,139.34L543.96,153.5L544.56,187.35L544.86,168.02L544.94,172.25L545.32,172.99L545.69,154L545.92,162.55L545.99,167.99L546.37,191.19L546.52,172.94L546.6,153.99L547.05,154.09L547.43,126.28L547.5,130.43L548.25,170.69L548.33,164.02L548.41,142.26L548.93,144.86L549.23,102.71L549.31,97.29L549.99,171.47L550.14,163.63L550.21,147.06L550.29,130.76L550.67,161.18L550.89,154.85L550.97,151.07L551.04,144.87L551.49,167.29L551.57,173.33L551.87,187.96L551.95,172.82L552.02,153.51L552.1,137.24L552.7,159.35L552.78,154.56L552.85,151.13L553.23,164.34L553.3,167.59L553.6,194.4L553.91,166.42L553.98,159.41L554.13,151.39L554.51,163.31L554.73,158.4L554.81,160.96L555.56,192.77L555.71,185.57L555.79,178.34L556.47,168.05L556.62,169.58L556.69,173.12L557.3,185.87L557.45,174.86L557.52,163.86L557.9,175.12L558.2,165.88L558.28,158.93L558.95,184.12L559.18,177.48L559.26,162.9L559.63,169.78L560.16,122.83L560.24,146.46L560.84,176.8L560.99,167.86L561.06,148.51L561.14,117.15L561.52,159.64L561.82,143.01L561.89,125.55L561.97,119.78L562.19,155.77L562.27,161.55L562.65,175.44L562.8,168.25L562.87,153.34L562.95,137.71L563.4,160.03L563.55,158.16L563.63,152.14L563.7,148.53L564.08,165.86L564.15,167.63L564.3,174.59L564.61,165.4L564.68,146.44L564.76,132.39L565.13,155.09L565.36,154.12L565.43,150.47L565.51,143.85L565.96,163.77L566.04,170.47L566.26,181.84L566.56,161.22L566.64,155.11L567.39,144.16L567.47,147.37L567.54,150.98L568.15,170.02L568.37,161.07L568.45,151.67L569.2,121.57L569.28,140.81L569.35,144.27L569.88,167.37L570.11,146.86L570.18,137.01L570.56,153.39L570.86,136.42L570.94,118.94L571.76,164.38L571.84,158.28L571.91,139.26L572.14,120.38L572.59,148.55L572.67,146.86L572.74,138.61L573.2,164.33L573.27,169.74L573.5,173.49L573.65,169.56L573.72,152.66L574.55,132.52L574.63,133.61L575.31,164.41L575.46,155.4L575.53,127.41L575.61,95.05L575.98,135.33L576.28,118.21L576.36,108.81L576.44,103.96L576.66,129.79L576.74,139.82L577.11,158.77L577.26,148.11L577.34,123.77L578.17,74.56L578.24,97.84L578.85,153.01L579.15,134.51L579.22,121.62L580.05,89.43L580.13,94.87L580.81,151.47L581.03,134.14L581.11,123.98L581.86,107.95L581.94,119.47L582.61,171.48L582.92,154.49L582.99,149.79L583.52,136.98L583.59,122.82L583.67,117.33L583.97,138.17L584.05,144.57L584.27,162.72L584.57,122.04L584.65,92.9L585.03,133.21L585.4,106.11L585.48,109.83L586.16,159.8L586.31,148.1L586.38,118.05L586.46,94.73L586.76,120.02L587.14,111.75L587.21,102.64L587.66,144.24L587.74,149.62L588.04,157.58L588.19,130.83L588.27,122.06L588.87,161.93L589.09,150.28L589.17,150.55L589.25,150.4L589.32,152.88L589.85,189.13L590,155.86L590.07,143L590.45,163.79L590.83,152.23L590.9,154.59L591.66,182.88L591.73,175.61L591.81,166.95L592.11,139.56L592.71,142.02L592.79,144.44L592.94,150.8L593.01,158.64L593.47,168.61L593.62,161.22L593.69,154.22L594.52,110.25L594.67,120.29L594.75,129.86L595.27,152.47L595.35,146.88L595.42,129.96L595.88,133.39L596.33,96.76L596.4,96.6L597.08,156.19L597.23,115.58L597.31,85.97L597.91,120.71L598.06,105.18L598.14,106.27L598.81,155.39L598.97,142.23L599.04,118.39L599.87,51.7L599.95,60.64L600.7,148.53L600.85,117.53L600.92,84.17L601.3,116.65L601.6,79.34L601.68,40.26L602.36,153.26L602.66,116.3L602.73,71.13L602.81,71.97L602.88,57.46L603.34,94.61L603.49,34.61L603.56,45.37L604.24,147.7L604.47,127.77L604.54,103.72L605.3,16.84L605.37,35.03L605.45,61.28L606.05,135.7L606.35,121.45L606.43,102.48L607.18,63.92L607.25,79.83L607.33,90.91L607.78,129.86L608.08,112.47L608.16,94.47L608.23,114.04L608.84,87L608.91,75.2L608.99,74.79L609.06,76.5L609.14,90.93L609.67,130.46L609.82,118.15L609.89,88.24L610.65,-22.83L610.72,5.41L610.8,59.23L611.47,128.3L611.62,118.55L611.7,84.89L611.85,-84.09L612.45,5.47L612.53,33.35L613.36,132.05L613.51,95.75L613.58,54.59L613.73,50.44L614.19,91.75L614.26,68.75L614.34,53.54L615.09,141.29L615.32,103.42L615.39,73.25L616.3,115.22L616.37,117.24L616.9,154.03L617.2,130.87L617.28,116.86L617.43,100.13L617.73,121.79L618.03,112.31L618.1,123.15L618.78,164.31L619.01,154.02L619.08,148.08L619.31,131.05L619.84,145.81L619.91,147.54L620.59,182.22L620.74,161.96L620.82,153.13L621.27,159.08L621.5,148.04L621.57,143.02L621.65,141.48L621.87,149.42L621.95,151.53L622.32,176.96L622.48,169.58L622.55,144.73L623.38,120.12L623.45,117.48L624.13,161.45L624.28,154.56L624.36,129.56L624.43,107.75L625.04,130.62L625.11,125.5L625.19,122.95L626.02,161.64L626.09,153.86L626.17,136.38L626.24,108.03L626.92,122.39L627,113.15L627.67,155.11L627.9,145.78L627.98,119.79L628.05,88.51L628.73,105.7L628.8,99.34L628.96,108.29L629.03,115.81L629.63,157.63L629.86,132.37L629.93,115.05L630.01,104.97L630.39,135.21L630.54,129.97L630.61,126.55L631.52,170.54L631.74,155.56L631.82,149.68L631.89,146.87L632.27,161.51L632.35,161.32L632.42,157.03L632.87,172.1L632.95,175.45L633.25,185.84L633.48,162.82L633.55,171.32L633.63,167.53L633.93,176.16L634,173.53L634.08,168.66L634.38,159.37L634.68,169.14L634.76,172.96L634.98,177.26L635.13,169.86L635.21,153.78L635.28,142.91L635.74,158.88L635.89,157.81L635.96,155.91L636.04,151.83L636.42,167.13L636.49,169.27L636.79,178.5L637.02,156.84L637.09,146.14L637.62,158.54L637.85,148.39L637.92,148.16L638.68,182.62L638.75,175.29L638.83,157.82L639.35,158.84L639.66,139.73L639.73,139.09L640.48,177.52L640.63,160.82L640.71,144.02L641.31,159.83L641.46,152.31L641.54,152.38L641.69,153.15L641.77,156.95L642.22,192.85L642.52,166.05L642.59,160.23L643.35,147.02L643.42,151.57L643.5,154.44L644.03,192.59L644.33,176.07L644.4,164.92L645.08,139.82L645.31,147.5L645.38,153.18L645.98,170.5L646.06,162.23L646.14,146.95L647.11,167.4L647.19,168.65L647.79,183.41L647.94,173.55L648.02,163.73L648.09,151.58L648.77,156.87L648.85,158.96L648.92,155.23L649.22,165.84L649.3,176.05L649.9,138.89L650.28,144L650.36,145.47L650.73,143.7L650.81,145.9L650.88,155.03L651.03,153.89L651.11,155.93L651.18,157.77L651.33,159.63L651.41,153.35L651.56,121.46L652.24,131.19L652.31,129.46L652.62,148.3L652.69,154.3L653.07,179.7L653.37,150.62L653.44,159.6L653.52,151.36L653.67,153.37L654.12,142.33L654.35,145.5L654.42,150.81L655.03,176.36L655.18,164.52L655.25,154.78L655.93,139.74L656.08,142.55L656.16,143.89L656.84,167.14L656.99,158.73L657.06,153.93L657.21,144.19L657.51,155.8L657.81,144.28L657.89,149.29L658.57,179.21L658.72,166.83L658.79,158.41L658.87,163.19L659.4,157.49L659.47,153.48L659.55,149.68L660,159.11" style="fill: rgb(54, 112, 97); fill-opacity: 0.5; stroke-width: 0;"/></g></g><g class="errorbars"/><g class="lines"><path class="js-line" d="M0,151.82L0.53,172.74L0.68,148.17L0.75,141.92L0.83,136.73L1.13,145.67L1.43,142.74L1.51,143.02L1.58,143.38L1.66,150.32L1.73,150.64L1.81,146L2.03,152.29L2.26,125.23L2.34,100.1L2.79,121.14L3.01,106.51L3.09,95.11L3.16,92.44L3.32,104.69L3.39,114.22L3.77,142.12L3.99,128.81L4.07,104.77L4.14,68.27L4.82,85.86L4.9,75.64L5.12,89.49L5.2,106.98L5.65,162.45L5.95,110.91L6.03,123.4L6.56,127.09L6.71,113.3L6.78,116.87L6.86,118.31L7.23,150.79L7.31,155.16L7.46,160.42L7.61,150.79L7.69,127.76L8.51,82.39L8.59,82.54L8.67,92.02L9.34,160.65L9.64,127.58L9.72,116.19L9.87,115.2L9.95,120.09L10.02,124.14L10.1,124.67L10.17,120.12L10.25,116.37L10.32,100.96L10.85,144.79L10.93,155.21L11.15,164.23L11.3,156.32L11.38,145.83L11.6,127.23L11.98,146.44L12.13,142.88L12.21,142.28L12.58,181.62L12.66,190.11L12.89,199.61L13.26,176.94L13.34,160.52L13.49,158.97L13.56,159.5L13.64,163.03L14.02,148.52L14.32,160.49L14.39,169.58L14.69,188.05L14.92,147.1L14.99,129.99L15.15,128.62L15.45,146.32L15.67,134L15.75,119.57L16.35,171.27L16.65,159.64L16.73,131.31L16.8,109.23L17.26,134.42L17.41,133.67L17.48,131.43L17.56,123.51L17.86,150.52L17.93,161.29L18.31,193.68L18.54,162.82L18.61,136.58L19.06,154.13L19.37,139.13L19.44,138.92L19.89,177.9L19.97,199.65L20.27,183.2L20.34,154.83L20.42,135.02L20.87,157.89L21.1,151.9L21.17,141.59L21.25,139.69L21.4,147.6L21.48,154.74L21.85,195.61L22.23,162.49L22.3,150.14L22.45,142.08L22.76,157.74L23.06,146.17L23.13,149.22L23.74,174.91L23.81,187.3L23.96,183.04L24.04,166.82L24.34,137.9L24.94,144.97L25.02,146.48L25.62,197.72L25.92,190.85L26,173.81L26.67,144.43L26.82,145.81L26.9,148.61L27.28,166.1L27.5,149.31L27.58,125.29L27.65,100.93L28.11,132.11L28.33,120.83L28.41,109.6L28.48,107.92L28.56,114.62L28.63,123.87L29.09,165.47L29.31,154.73L29.39,130.84L29.46,115.96L29.84,142.66L30.14,125.3L30.22,117.91L30.74,153.72L30.82,159.68L30.89,159.29L31.04,160.33L31.12,152.62L31.27,105.24L31.87,136.74L31.95,128.76L32.02,119.17L32.48,148.63L32.55,156.97L32.85,162.96L32.93,154.55L33,132.09L33.08,102.41L33.76,108.32L33.83,103.56L34.51,148.11L34.81,132.83L34.89,125.56L35.11,69.29L35.64,103.2L35.72,98.25L36.47,135.82L36.62,130.27L36.7,115.97L37.52,67.73L37.6,91.52L38.05,128.49L38.35,120.81L38.43,99.62L39.11,103.1L39.26,66.66L39.33,60.11L40.09,132.12L40.16,124.3L40.24,97.5L40.31,30.77L40.99,75.38L41.07,52.21L41.14,52.97L41.22,91.75L41.82,149.11L42.05,118.1L42.12,103.44L42.27,64.78L42.57,107.74L42.87,73.25L42.95,120.77L43.7,164.14L43.78,157.32L43.85,135.97L43.93,103.3L44.53,152.07L44.61,144.77L44.76,132.59L45.21,159.1L45.29,165.05L45.44,166.03L45.51,165.13L45.59,158.5L45.74,120.81L46.42,133.39L46.49,126.34L46.57,126.11L46.64,128.49L47.17,157.54L47.4,152.02L47.47,134.75L47.77,77.59L48.3,80.27L48.38,115.98L49.05,153.63L49.35,141.64L49.43,132.38L49.58,119.28L49.96,140.48L50.18,131.09L50.26,134.32L50.64,154.5L50.71,157.99L50.94,161.64L51.01,156.48L51.09,142.47L51.16,132.16L51.69,158.56L51.77,160.91L51.92,153.49L52.37,170.66L52.44,176.63L52.67,189.24L52.82,175.75L52.9,151.74L52.97,141.83L53.5,167.34L53.57,165.07L53.88,150.85L54.25,166.63L54.33,170.78L54.48,170.34L54.55,167.69L54.78,125.8L55.16,152.11L55.23,152.63L55.53,140.86L55.84,150.81L55.91,157.52L56.36,168.29L56.44,160.62L56.51,138.63L56.59,118.77L57.04,146.36L57.19,143.79L57.27,139.15L57.34,127.62L57.87,154.71L57.94,159.14L58.02,160.56L58.17,154.83L58.25,147.65L59.15,84.56L59.23,81.69L59.45,109.74L59.53,125.18L59.9,156.93L60.28,130.34L60.36,122.71L60.73,134.79L60.96,122.5L61.03,121.84L61.56,147.54L61.94,134.85L62.01,124.6L62.16,80.05L62.69,115.67L62.77,108.64L62.84,106.31L62.99,122.33L63.07,130.01L63.6,154.79L63.75,133.66L63.82,124.32L64.27,145.96L64.5,135.4L64.58,124.5L64.65,121.34L64.95,135.4L65.03,138.28L65.33,150.28L65.48,138.33L65.56,92.06L65.63,56.09L66.16,125.33L66.23,120.5L66.31,96.98L66.38,83.74L66.84,137.4L66.91,145.89L67.21,150.29L67.29,141.95L67.36,120.47L67.44,109.55L67.82,135.49L67.97,134.31L68.04,137.33L68.27,125.09L68.64,139.46L68.72,150.39L68.87,156.68L69.1,145.64L69.17,127.95L69.25,111.3L69.78,142.42L69.85,145.34L70,136.84L70.3,148.42L70.38,155.82L70.83,173.77L70.91,167.83L70.98,151.25L71.06,138.22L71.66,162.16L71.73,157.11L71.96,150.65L72.19,160.82L72.26,163.29L72.41,171.47L72.79,158.1L72.86,149.51L73.09,131L73.54,151.44L73.62,146.5L73.69,147.24L73.92,155.09L73.99,163.08L74.52,174.79L74.67,165.46L74.75,158.64L75.2,159.93L75.5,138.99L75.58,143.11L75.65,149.71L76.1,165.7L76.33,157.95L76.41,142.95L76.48,130.03L77.01,157.21L77.08,156.42L77.16,147.52L77.31,141.15L77.69,157.53L77.76,162.94L77.91,168.99L78.21,142.6L78.29,130.7L78.82,164.22L79.04,143.75L79.12,143.82L79.19,141.49L79.5,155.73L79.57,161.38L79.72,164.73L79.95,155.14L80.02,133.35L80.1,71.64L80.7,140.67L80.78,122.98L80.85,98.9L80.93,89.29L81.15,138.97L81.23,148.24L81.3,146.57L81.38,155.56L81.45,161.46L81.61,161.7L81.68,161.62L81.76,153.77L81.98,103.03L82.51,142.64L82.58,136.93L82.74,133.35L82.96,146.41L83.04,151.87L83.26,165.98L83.56,158.76L83.64,135.77L83.87,116.99L84.17,150.13L84.24,148.09L84.32,148.4L84.62,135.72L84.92,155.25L85,157.59L85.3,172.1L85.6,153.27L85.67,144.58L85.75,142.99L85.9,149.79L85.98,154.5L86.35,149.95L87.03,181.11L87.18,176.4L87.26,169.84L87.56,140.77L88.16,145.81L88.24,145.86L88.84,165.99L88.99,157.42L89.06,144.02L89.14,126.37L89.67,157.39L89.74,156.47L89.82,149.14L89.97,136.85L90.42,162.5L90.5,171.59L90.72,186.37L90.95,141.08L91.1,157.37L91.17,162.83L91.55,172.8L91.7,154.72L91.78,150.12L91.93,151L92,154.65L92.31,185.75L92.61,170.22L92.68,155.46L93.59,118.4L93.66,127.71L94.26,162.07L94.49,136.01L94.57,123.08L95.17,145.58L95.32,133.54L95.39,134.04L96.15,160.47L96.22,154.84L96.3,136.53L96.37,124.6L96.9,150.29L96.98,150.18L97.2,132.84L97.65,156.75L97.73,162.26L97.88,165.77L98.18,150.17L98.26,143.99L98.41,133.16L98.79,148.22L99.01,139.44L99.09,142.97L99.69,166.26L99.99,158.53L100.07,149.38L100.22,143.4L100.52,158.61L100.82,143.6L100.9,143.6L101.42,163.09L101.65,154.56L101.72,141.19L101.8,129.44L102.25,161.44L102.33,162.78L102.7,133.48L102.85,143.35L102.93,148.1L103.23,161.45L103.46,151.45L103.53,130.99L103.68,107.97L104.14,158.17L104.21,158.04L104.51,135.9L104.89,155.89L104.96,159.41L105.04,162.26L105.27,152.61L105.34,135.96L105.42,120.4L105.94,156.35L106.02,156.35L106.25,135.45L106.7,155.45L106.77,163.97L106.85,164.11L106.92,161.43L107,161.24L107.07,154.65L107.22,103.66L107.68,156.84L107.75,156.49L107.83,158.54L107.9,152.38L107.98,142.86L108.13,137.84L108.43,150.26L108.51,156.85L108.66,162.88L108.96,136.45L109.03,117.41L109.64,154.75L109.79,140.42L109.86,134.86L110.39,157.43L110.77,150.39L110.84,142.94L111.07,123.23L111.37,155.98L111.44,154.28L111.52,151.73L111.59,145.77L112.12,158.35L112.2,164.07L112.35,163.83L112.42,166.03L113.55,132.47L113.63,136.03L113.7,142.19L114.01,155.96L114.31,145.7L114.38,131.76L114.46,115.59L114.91,149.96L114.99,149.24L115.06,147.59L115.36,101.03L115.66,135.91L115.74,138.88L115.89,150.56L116.19,113.6L116.27,65.14L116.87,138.14L117.1,100.43L117.17,89.54L117.7,152.71L118,126.8L118.08,108.38L118.68,141.5L118.83,118.88L118.9,98.17L119.58,142.96L119.73,128.43L119.81,96.45L119.88,59.1L120.49,123.14L120.56,114.64L120.79,85.56L121.09,130.85L121.16,137.1L121.39,144.91L121.54,135.13L121.62,106.55L121.69,75.64L122.29,134.7L122.37,128.02L122.6,96.72L122.97,137.2L123.05,143.51L123.2,144.44L123.35,138.7L123.43,128.36L123.73,98.15L124.25,108.53L124.33,102.89L125.01,148.76L125.23,136.35L125.31,127.67L125.38,118.91L125.84,144.81L125.91,144.23L125.99,137.23L126.21,121.96L126.59,144.3L126.67,148.69L126.89,150.22L126.97,145.34L127.04,133.45L127.12,121.74L127.64,153.02L127.72,154.5L127.95,128.02L128.32,150.7L128.4,158.5L128.62,170.86L128.85,141.93L128.93,131.08L129.53,151.64L129.68,143.11L129.75,140.52L129.83,138.95L129.98,148.05L130.06,152.81L130.51,164.61L130.58,160.08L130.66,141.2L130.73,123.91L131.34,156.41L131.41,147.41L131.71,131.38L132.09,153.05L132.17,150.71L132.24,150.53L132.32,147.74L132.54,88.18L132.77,136.29L132.84,144.12L132.99,154.02L133.37,129.19L133.45,130.12L133.52,128.98L133.67,136.23L133.75,138.77L133.97,153.67L134.28,125.28L134.35,88.5L134.8,154.76L135.18,134.98L135.26,135.78L135.86,167.2L136.08,157.16L136.16,150.53L136.99,135.47L137.06,139.5L137.52,162.93L137.59,165.87L137.67,166.49L137.82,164.92L137.89,159.66L138.19,143.82L138.42,160.38L138.5,163.14L138.72,147.97L138.8,142.21L139.55,167.81L139.63,162.74L139.7,150.34L139.78,140.37L140.23,159.46L140.38,157.78L140.45,151.75L140.61,145.64L141.06,161.15L141.13,166.75L141.28,167.04L141.36,166.96L141.43,160.94L141.58,133.22L142.11,160.9L142.19,160.32L142.49,136.18L142.79,152.5L142.87,158.33L143.09,164.09L143.32,140.11L143.39,128.27L144,151.83L144.15,140.32L144.22,137.63L144.6,156.48L144.67,163.21L144.98,172.77L145.13,148.73L145.2,136.31L145.8,165.57L146.03,151.99L146.11,148.96L146.26,151.76L146.33,158.49L146.78,187.79L146.86,173.68L146.93,154.64L147.01,142.5L147.54,167.42L147.61,165.87L147.91,149.24L148.22,164.47L148.29,169.51L148.59,181.53L148.89,159.59L148.97,155.86L149.42,162.73L149.72,151.6L149.8,151.75L149.87,159.05L150.4,198.32L150.63,175.84L150.7,164.4L150.93,151.13L151.53,153.87L151.61,155.18L152.21,169.34L152.28,166.15L152.36,152.08L152.44,139.08L152.96,162.08L153.04,159.35L153.11,152.24L153.34,134.67L153.79,156.96L153.87,158.39L154.09,144L154.17,116.44L154.24,115.88L154.32,136.89L154.39,137.26L154.47,146.11L154.85,157.96L155,139.24L155.07,135.14L155.15,130.86L155.45,146.99L155.52,153.43L155.6,156.92L155.83,149.81L155.9,134.32L156.05,82.92L156.43,147.59L156.58,146.9L156.65,148.03L156.88,101.29L157.11,134.44L157.18,146.14L157.41,158.83L157.63,156.78L157.71,147.81L157.86,95.39L158.39,146.02L158.46,147.9L158.69,107.56L159.07,151.3L159.14,158.1L159.37,162.24L159.52,153.53L159.59,121.48L159.67,99.84L160.05,150.63L160.2,150.28L160.27,152.49L160.57,127.42L160.87,149.64L160.95,158.86L161.1,164.41L161.4,148.13L161.48,136.05L161.63,124.38L162,151.47L162.08,150.11L162.16,146.02L162.31,135.76L162.76,161.39L162.83,163.93L162.91,166.18L163.29,158.46L163.36,150.97L163.89,157.82L164.11,143.8L164.19,145.75L164.27,146.13L164.64,164.5L165.02,146.76L165.09,141.62L165.7,164.93L165.85,150.19L165.92,138.66L166.07,134.74L166.15,141.87L166.22,146.26L166.3,146.52L166.38,152.4L166.6,159.42L166.75,143.79L166.83,110.51L166.9,92.78L167.35,162.34L167.43,159.87L167.66,140.21L167.73,121.04L167.81,116.12L168.03,144.79L168.11,145.69L168.33,159.65L168.56,150.08L168.64,104.93L168.71,93.06L169.01,155.41L169.09,158.59L169.16,161.73L169.39,151.87L169.46,141.34L169.62,131.32L169.99,156.38L170.07,162.14L170.22,161.98L170.29,157.84L170.52,106.69L170.59,142.63L170.67,145.85L171.05,160.12L171.35,142.13L171.42,145.19L171.5,144.83L171.57,147.78L171.65,153.28L171.73,150.83L172.03,163.85L172.1,162.75L172.33,122.22L172.7,147.53L172.78,147.11L173.16,131.12L173.46,145.3L173.53,148.95L173.68,159.82L174.14,145.72L174.21,141.39L174.36,134.37L174.66,154.16L175.04,134.46L175.12,137.17L175.79,161.63L175.94,155.51L176.02,149.53L176.17,143.7L176.47,167.33L176.55,165.86L176.92,146.88L177.23,164.86L177.3,170.6L177.53,170.91L177.6,165.23L177.75,144.52L178.21,182.28L178.28,181.95L178.66,150.77L179.03,175.12L179.11,178.6L179.26,180.58L179.41,174.07L179.49,161.24L179.56,154.38L179.86,190.12L179.94,192.2L180.01,194.89L180.24,184.57L180.32,165.64L180.39,162.7L180.69,181.42L180.77,195.11L180.99,198.84L181.14,184.43L181.22,170.17L181.37,137.15L181.97,167.47L182.05,161.89L182.35,143.42L182.65,173.58L182.73,180.41L182.95,180.97L183.03,175.43L183.33,158.59L183.78,171.3L183.86,169.58L184.08,157.19L184.46,178.22L184.53,184.31L184.69,185.99L184.84,180.99L184.91,172.57L185.14,163.57L185.51,174.99L185.74,165.08L185.82,164.53L185.89,163.87L186.04,166.9L186.12,171.22L186.34,174.93L186.72,166.77L186.8,163.69L187.62,140.75L187.7,143.66L187.77,143.6L188.38,172.57L188.68,159.69L188.75,150.72L189.73,165.95L189.81,166.29L190.11,175.49L190.41,165.96L190.49,163.02L190.71,158.83L190.94,172.12L191.01,173.71L191.39,160.14L191.77,169.48L191.84,169.74L191.99,168.45L192.07,161.76L192.15,122.14L192.75,194.38L192.82,194.25L193.12,156.27L193.58,178.52L193.65,178.47L193.88,174.14L193.95,147.74L194.03,135.16L194.41,192.5L194.48,193.05L194.56,195.68L194.71,194.52L194.78,169.17L194.93,162.44L195.31,176.5L195.39,181.3L195.84,147.26L195.91,190.41L195.99,189.13L196.29,193.98L196.36,196.15L196.59,194.42L196.67,161.54L197.27,184.67L197.5,180.01L197.57,163.64L198.17,195.16L198.4,193.69L198.47,167.82L198.55,163.69L198.93,179.51L199,182.25L199.45,175.59L199.53,190.18L199.6,191.64L199.98,196.61L200.21,193.76L200.28,164.52L200.43,164.03L200.51,170.13L201.56,199.1L201.79,198.11L201.87,196.54L201.94,195.31L202.02,170.48L202.24,166.08L202.47,177.09L202.54,181.41L202.69,187.9L203,169.36L203.07,159.29L203.52,187.29L203.75,160.88L203.82,152.28L204.05,148.74L204.28,159.99L204.35,171.7L204.58,176.55L204.65,170.77L204.73,158.13L204.88,113.56L205.48,155.47L205.56,148.33L205.86,134.65L206.16,161.32L206.24,164.39L206.39,165.08L206.46,163.41L206.54,155.52L206.69,124.11L207.14,162.61L207.22,162.18L207.29,156.88L207.67,139.65L207.89,153.45L207.97,159.46L208.12,164.86L208.35,154.49L208.42,131.88L208.5,122.87L208.8,153.68L208.87,153.56L208.95,156.85L209.17,151.39L209.25,143.25L209.48,137.23L209.63,149.28L209.7,148.39L209.78,156.43L209.93,163.29L210.15,151.81L210.23,121.37L210.3,119.32L210.38,148.29L210.61,157.15L210.68,162.69L210.76,162.54L210.83,165.67L211.21,119.47L211.36,143.88L211.44,153.26L211.89,167.94L212.04,155.27L212.11,154.13L212.34,141.99L212.64,163.02L212.94,143.76L213.02,141.53L213.09,138.68L213.32,159.15L213.39,158.88L213.7,169.14L214,156.59L214.07,149.59L214.22,156.5L214.3,161.82L214.45,168.87L214.83,148.83L214.9,147.46L215.88,185.03L215.96,170.69L216.03,171.81L216.33,174.42L216.41,168.02L216.48,156.06L216.71,144.73L216.94,158.52L217.01,170.36L217.24,181.2L217.61,164.55L217.69,155.64L218.07,168.14L218.29,156.62L218.37,151.34L218.52,143.42L218.82,164.04L218.89,169.72L219.2,159.34L219.27,131.04L219.35,123.83L219.42,146.03L219.5,186.4L219.57,190.3L219.65,158.94L219.87,172.63L219.95,167.53L220.33,142.03L220.63,167.06L220.7,172.99L220.78,173.71L220.85,169.66L220.93,171.04L221,164.88L221.08,142.18L221.68,175.25L221.76,169.62L222.13,145.26L222.44,168.97L222.51,174.5L222.74,171.59L222.81,164.45L222.96,133.47L223.42,176.16L223.49,173.2L223.57,168.9L223.87,140.11L224.24,171.72L224.32,174.32L224.62,171.26L224.7,164.5L224.92,155.84L225.3,171.73L225.45,171.14L225.53,163.72L225.68,164.04L225.75,160.1L226.43,179.82L226.58,173.61L226.66,165.73L226.73,163.48L226.96,176.69L227.03,180.53L227.18,174.92L227.26,171.91L227.56,155.72L227.94,175.04L228.01,174.79L228.09,174.96L228.16,177.03L228.39,160.6L228.46,174.53L228.54,194.61L228.92,200.93L228.99,183.95L229.07,178.2L229.37,158.28L229.75,177.12L229.82,180.26L230.2,151.34L230.27,191.58L230.35,189.87L230.72,196.57L230.8,195.96L230.88,174.67L231.18,161.98L231.48,183.07L231.55,187.62L231.86,182.61L231.93,168.02L232.01,162.5L232.23,194.59L232.31,195.25L232.46,194.95L232.53,196.34L232.68,195.1L232.76,170.98L232.83,170.81L232.91,168.15L233.66,196.83L234.19,193.38L234.27,193.27L234.34,195.75L234.72,192.46L234.79,171.39L235.32,196.35L235.85,191.9L235.92,191.52L236.15,195.48L236.23,179.92L236.53,170.08L236.83,177.62L236.9,182.44L237.28,196.51L237.81,195.16L237.88,195.54L237.96,197.28L238.34,193.53L238.56,196.41L238.64,194.76L239.16,194.32L239.62,203.59L239.69,203.65L239.77,204.31L239.84,200.74L239.92,197.89L240.14,182.5L240.37,187.27L240.45,189.89L241.58,204.76L241.65,199.51L242.03,182.37L242.25,188.75L242.33,194.42L242.4,198.5L242.86,189.25L243.01,190.57L243.08,193.33L243.16,193.09L243.31,193.65L243.38,196.72L243.46,196.93L243.69,195.85L243.76,193.26L243.84,193.39L243.91,181.41L244.29,198.73L244.51,197.03L244.59,179.97L244.66,172.93L245.12,201.1L245.19,203.08L245.57,179.2L245.87,187.63L245.95,195.25L246.47,189.05L246.62,202.83L246.7,189.78L247,206.36L247.3,179.37L247.38,175.6L247.45,172.53L247.83,183.54L247.91,183.54L247.98,183.7L248.21,166.91L248.28,162.52L248.73,199.85L249.04,195.58L249.11,170.08L249.26,167.54L249.41,176.35L249.49,174.77L249.56,180.17L250.09,176.41L250.54,196.39L250.62,197.7L250.77,195.75L250.84,170.79L250.99,168.26L251.15,173.83L251.22,179.53L252.43,204.95L252.5,204.81L252.8,180.54L253.1,191.67L253.18,196.04L254.08,204.81L254.16,204.75L254.23,205.25L254.39,204.43L254.46,199.34L254.91,191.08L255.21,197.67L255.29,197.55L255.52,189.92L256.04,197.37L256.12,197.31L256.42,194.38L256.72,195.65L256.8,196.25L257.32,191.95L257.7,201.12L257.78,201.17L257.85,203.96L258.08,183.63L258.15,180.04L258.38,179.53L258.45,184.27L259.66,203.88L259.74,201.67L259.89,201.57L259.96,199.44L260.11,201.63L260.19,188.64L260.26,187.78L260.41,192.9L260.49,197.12L260.64,198.13L260.94,192.81L261.17,197.79L261.24,199.38L261.47,203.71L261.62,200.09L261.69,182.66L261.92,177.29L262.22,189.34L262.3,191.27L262.37,189.4L262.6,198.44L262.82,196.08L262.9,196.78L263.28,204.31L263.5,198.39L263.58,182.24L263.65,180.38L264.03,189.96L264.11,191.86L264.26,191.93L264.33,194.08L264.41,194.4L264.48,192.4L264.56,197.31L264.71,201.62L264.78,204.11L265.09,204.85L265.16,203.54L265.24,187.17L265.31,180.54L265.91,194.74L265.99,194.78L266.14,195.06L266.22,199.78L266.29,196.11L266.59,205.33L266.82,205.32L266.89,205.37L267.27,178.68L267.65,190.56L267.72,192.72L267.8,193.33L267.95,191.35L268.02,188.79L268.1,178.1L268.63,203.45L268.7,204.24L268.85,204.18L268.93,200.72L269.08,177.39L269.38,186.01L269.46,191.91L269.76,199.22L269.91,190.08L270.36,196.34L270.43,196.46L270.81,198.23L270.89,196.55L270.96,185.38L272.32,204.22L272.39,200.93L272.85,188.53L273.15,199.47L273.22,201.24L273.6,194L273.9,198.48L273.98,202.47L274.05,203.32L274.28,198.07L274.35,197.73L274.58,178.85L275.11,191.6L275.18,193.3L275.33,190.29L275.41,188.29L275.94,199.11L276.16,198.62L276.24,182.61L276.31,180.84L276.61,188.08L276.69,191.93L277.67,206.2L277.74,206.9L278.2,188.34L278.5,194.05L278.57,204.73L279.03,199.81L279.18,205.8L279.33,203.39L279.4,205.17L279.55,206.85L279.78,202.96L279.85,201.14L280.08,202.9L280.16,193.97L280.68,199.74L280.91,197.17L280.98,195.31L281.66,199.15L281.81,197.34L281.89,190.15L282.19,199.85L282.64,195.41L282.72,197.24L282.79,195.39L283.32,199.15L283.4,199.16L283.85,197.25L284.07,199.35L284.15,199.3L284.3,198.87L284.37,190.95L285.13,198.98L285.43,196.93L285.51,196.59L286.03,199.03L286.11,198.96L286.18,194.22L287.09,198.42L287.16,196.36L287.46,197.24L287.54,199.26L287.77,199.46L287.92,198.96L287.99,196.31L288.52,196.53L288.59,198.51L288.97,196.28L289.05,198.31L289.2,195.17L289.57,198.79L289.8,196.83L289.88,196.8L290.03,200.35L290.1,202.75L290.4,203.94L290.55,200.16L290.63,198.8L291.01,192.95L291.23,201.3L291.31,201.55L291.61,196.96L291.91,204.52L291.99,204.7L292.21,205.44L292.29,205.02L292.36,200.06L292.81,190.43L292.96,196.86L293.04,200.72L293.49,192.71L293.87,196.16L293.94,195.82L294.32,197.98L294.55,195.74L294.7,196.48L294.77,196.55L295,198.57L295.3,192.81L295.38,195.01L295.45,192.8L295.83,198.1L296.28,195.57L296.36,195.62L296.81,197.97L296.96,197.75L297.03,192.75L297.11,192.22L297.34,195.09L297.41,195L297.49,194.97L297.64,197.21L298.24,194.97L298.31,194.93L298.62,197.5L298.77,197.01L298.84,190.94L299.07,190.82L299.67,196.28L299.75,196.18L299.82,193.52L300.12,194.66L300.2,197.02L300.42,197.17L300.58,196.87L300.65,193.25L300.8,193.04L301.18,193.5L301.25,195.97L301.48,196.14L301.55,193.88L302.23,196.98L302.38,196.86L302.46,194.54L302.69,194.35L302.76,195.43L302.99,199.34L303.36,194.24L303.44,194.11L304.12,196.95L304.19,196.87L304.27,192.26L304.8,201.16L305.17,196.74L305.25,194.34L305.62,194.49L305.7,196.85L305.93,196.84L306,196.62L306.08,190.23L306.3,189.01L306.45,192.85L306.53,193.01L306.75,195.76L307.36,194.54L307.43,194.7L307.66,197.05L307.96,191.55L308.04,193.89L308.11,191.48L308.71,196.45L308.94,194.05L309.01,194.02L309.47,197.3L309.62,196.8L309.69,191.28L309.92,191.19L310.6,196.14L310.67,193.71L310.9,194.53L310.97,194.93L311.28,197.87L311.43,197.05L311.5,191.6L311.58,191.21L311.65,193.86L311.8,193.86L311.88,193.85L312.03,193.93L312.1,196.33L312.41,196.39L312.48,193.96L312.71,194.78L312.78,196.48L313.08,198.76L313.39,194.61L313.46,194.48L313.84,194.52L313.91,196.85L314.14,197.04L314.21,194.83L314.29,194.96L314.36,197.44L314.97,200.08L315.12,197.99L315.19,197.66L315.27,196.88L315.42,201.1L315.49,202.41L315.65,204.32L315.95,198.91L316.02,197.12L316.1,197.26L316.17,199.18L316.32,199.21L316.4,198.12L316.7,200.34L316.85,199.38L316.93,195.49L317,195.76L317.08,200.25L317.53,204.43L317.76,198.51L317.83,198.55L318.21,196.17L318.43,198.79L318.58,198.19L318.66,197.23L318.96,191.19L319.34,198.62L319.41,197.69L319.71,195.4L320.09,196.6L320.17,198.65L320.39,198.71L320.47,198.35L320.54,193.35L320.77,191.95L321,195.55L321.07,195.16L321.15,196.62L321.45,197.19L321.52,194.3L321.67,194.28L322.2,198.11L322.28,198.08L322.35,192.6L322.58,188.45L322.88,193.18L322.95,196.88L323.26,197.31L323.33,194.94L323.56,195.89L323.71,195.43L323.78,197.6L324.08,197.63L324.16,192.39L324.31,193.92L324.39,191.58L324.69,192.41L324.76,196.77L325.06,196.92L325.14,194.62L325.37,195.36L325.44,195.67L325.82,198.38L326.12,195.03L326.19,195.01L326.5,195.14L326.57,197.34L326.8,197.23L326.87,195.13L327.63,200.2L327.7,200.13L327.78,198.08L327.85,196.85L328.15,202.81L328.23,204.4L328.38,205.52L328.46,204.31L328.53,200L328.68,196.56L329.06,201.9L329.13,204.57L329.51,205.63L329.59,204.38L329.89,205.28L329.96,205.22L330.19,206.13L330.49,205.11L330.57,201.41L331.09,204.59L331.47,195.15L331.54,197.22L332,204.05L332.3,199.18L332.37,196.5L332.45,196.17L332.75,198.03L332.83,199.9L333.05,199.88L333.13,199.36L333.2,194.07L333.5,201.37L334.03,199.34L334.11,198.51L334.18,196.4L334.78,200.29L334.86,200.29L334.94,199.95L335.01,195.46L335.24,194.57L335.31,198.18L335.39,198.64L335.69,201.03L335.76,200.16L335.84,198.99L335.99,196.57L336.37,199.33L336.44,201.36L336.52,201.78L336.74,199.9L336.82,194.56L336.89,194.23L336.97,196.43L337.05,194.46L337.12,196.81L337.5,199.7L337.72,198.42L337.8,196.39L337.87,196.69L337.95,186.91L338.33,200.47L338.7,196.2L338.78,196.13L339.16,196.42L339.23,198.39L339.46,198.25L339.53,196.11L339.61,196.25L339.68,198.47L339.91,198.23L340.29,201.11L340.36,200.66L340.44,198.24L340.66,197.98L340.74,198.57L340.81,200.49L340.96,202.16L341.34,197.38L341.49,199.68L341.57,199.81L342.02,200.45L342.47,195.82L342.55,198.59L342.7,200.39L343.15,199.43L343.22,197.54L343.6,197.99L343.68,199.92L343.98,199.44L344.05,194.89L344.28,194.6L344.96,198.9L345.03,196.9L345.41,198.59L345.48,200.38L345.79,199.85L345.86,195.09L346.09,194.92L346.46,199.11L346.77,198.91L346.84,197.14L347.44,201.49L347.59,200.77L347.67,196.33L347.82,197.73L347.9,195.79L347.97,198.1L348.27,202.24L348.65,198.24L348.72,198.29L349.18,201.67L349.4,201.45L349.48,197.27L349.7,196.7L349.93,198.67L350.01,198.67L350.08,200.35L350.16,200.52L350.31,200.23L350.38,200.22L350.46,198.53L350.76,200.42L350.83,201.91L351.66,198.92L351.81,199.14L351.89,200.83L352.27,198.91L352.34,200.71L352.57,200.49L353.7,205.63L353.77,205.45L353.85,203.53L354,200.67L354.3,204L354.45,203.47L354.53,205.36L354.9,204.45L355.2,207.44L355.28,208.79L355.43,210.94L355.73,204.61L355.81,203.02L356.11,204.21L356.18,201.78L356.26,202.27L356.34,204.53L356.56,204.8L356.64,202.67L356.79,198.9L357.31,204.7L357.39,204.46L357.77,200.69L358.07,202.57L358.14,203.66L358.37,204.07L358.45,203.82L358.52,200.74L358.75,200.67L359.2,202.98L359.42,202.58L359.5,201.6L359.95,203.91L360.25,203.6L360.33,200.81L360.55,200.58L361.23,202.99L361.31,201.9L361.46,196.18L361.99,204.04L362.06,204.07L362.36,201.28L362.82,203.48L362.89,203.49L362.97,195.95L363.04,203.51L363.64,202.48L363.72,203.41L363.87,204.33L364.1,202.75L364.32,202.75L364.4,202.75L364.77,203.79L364.85,202.77L364.93,196.65L365.68,204.32L365.9,203.39L365.98,203.34L366.13,194.77L366.58,204.23L366.81,196.9L366.88,198.78L367.04,198.23L367.11,199.36L367.19,201.53L367.49,205.12L368.01,204.48L368.09,204L368.17,205.13L368.54,202.69L368.62,202.69L368.69,197.52L368.99,203.47L369.52,200.98L369.6,199.59L370.05,195.98L370.12,202.49L370.2,193.58L370.35,194.05L370.43,201.61L370.95,203.48L371.1,202.98L371.18,199.69L371.78,202.67L372.08,202.3L372.16,200.95L372.54,201.86L372.61,203.12L372.91,202.75L372.99,199.58L373.21,199.48L373.89,202.17L373.97,192.75L374.49,202.7L374.8,199.38L374.87,199.36L375.02,199.19L375.63,202.09L375.7,202.08L375.78,200.65L375.93,193.81L376.23,202.62L376.45,202.52L376.53,202.64L376.91,200.74L377.28,202.14L377.36,202.09L377.58,200.63L377.81,202.8L377.89,202.24L377.96,203.63L378.34,204.54L378.41,203.17L378.49,202.7L378.87,202.12L378.94,202.79L379.02,203.66L379.32,201.47L379.77,202.01L379.84,203.17L380.15,203.02L380.22,200.57L380.82,205.62L381.05,202.88L381.13,202.35L381.2,201.06L381.8,202.8L381.88,202.46L382.26,198.59L382.63,201.63L382.71,201.61L382.93,201.58L383.01,200.16L383.61,203.15L383.76,202.81L383.84,199.08L384.06,198.86L384.14,200.34L384.22,200.37L384.37,200.42L384.44,201.92L384.74,201.71L384.82,200.5L385.5,202.67L385.57,202.58L385.65,199.43L386.25,202.93L386.55,202.18L386.63,200.84L386.78,200.81L386.85,201.49L386.93,202.12L387.08,205.31L387.53,199.95L387.61,201.09L387.68,199.56L388.06,203.31L388.51,200.89L388.59,201.07L389.11,204.05L389.34,201.52L389.41,201.37L389.79,201.89L389.87,203.1L390.17,201.4L390.24,201.56L390.32,203.02L390.54,202.21L390.92,203.99L391,203.96L391.07,203.19L391.6,202.83L391.67,203.91L391.83,203.86L391.9,197.69L392.13,197.78L392.2,199.86L392.81,204.18L393.03,203.06L393.11,201.82L393.48,204.76L393.86,202.38L393.94,202.4L394.31,203.57L394.39,204.96L394.54,205.65L394.61,203.69L394.69,201.24L394.76,200.87L394.91,202.18L394.99,204.24L395.52,205.05L395.59,204.67L395.67,204.2L396.05,205.58L396.12,206.16L396.42,205.75L396.5,203.61L397.1,205.64L397.4,205.22L397.48,204.54L397.85,205.12L397.93,205.75L398.23,205.66L398.31,203.59L398.53,203.41L398.68,204.25L398.83,204.05L398.91,204.9L399.13,203.61L399.21,195.62L399.36,194.55L399.44,196.21L399.51,203.29L399.59,199.14L399.81,205.12L400.26,201.57L400.34,200.37L400.72,203.43L401.24,202.68L401.32,203.81L401.62,204.6L402.15,201.53L402.3,202.03L402.37,202.2L402.53,203.26L402.83,201.56L402.9,196.26L403.58,205.15L403.73,204.02L403.81,203.72L404.11,203.12L404.26,204.27L404.33,204.96L404.64,202.82L405.09,203.71L405.16,204.57L405.46,204.59L405.54,202.46L405.77,202.09L405.92,204.27L405.99,204.87L406.14,204.95L406.22,203.9L406.52,202.72L406.9,203.22L406.97,204.21L407.27,203.79L407.35,200.24L407.42,199.31L407.88,201.62L407.95,202.92L408.33,201.35L408.48,202.12L408.55,203L408.7,203.05L408.78,204.14L409.08,203.71L409.16,200.34L409.23,199.86L409.61,201.57L409.68,201.55L409.76,202.76L409.91,202.59L410.06,202.8L410.14,201.56L410.81,204.41L410.89,204.1L410.96,201.16L411.19,200.87L411.27,202.09L411.34,202.14L411.49,202.15L411.57,203.3L411.87,203.29L411.94,201.79L412.55,205.15L412.7,204.41L412.77,201.25L412.92,202.05L413,200.83L413.3,202.08L413.38,203.22L413.75,201.17L414.05,202.78L414.13,203.86L414.36,203.97L414.51,203.75L414.58,201.11L414.73,200.32L415.11,201.26L415.18,202.85L415.49,202.07L416.24,204.62L416.31,204.38L416.39,203.24L416.69,202.81L416.92,203.5L416.99,203.91L417.29,202.87L417.37,202.99L417.44,204.08L417.6,204.2L417.67,203.23L418.05,204.34L418.2,202.35L418.27,202L418.42,201.6L418.8,203.68L419.1,203.59L419.18,202.5L419.55,203.01L419.63,204.02L419.93,203.74L420.01,200.54L420.23,200.5L420.91,203.01L420.99,201.84L421.36,202.76L421.44,203.87L421.74,203.66L421.82,200.71L422.04,200.51L422.72,203.05L422.79,201.87L422.95,201.85L423.02,202.6L423.17,202.62L423.25,203.69L423.55,203.71L423.62,200.66L423.85,200.62L424.53,203.17L424.6,202.02L425.28,203.79L425.36,203.75L425.43,200.56L425.66,200.5L426.26,203.26L426.34,203.22L426.41,202.01L426.56,202.06L426.64,203.07L427.09,205.01L427.39,201.68L427.47,201.91L427.54,202.34L428.45,204.37L428.52,202.61L428.97,204.79L429.28,203.28L429.35,203.16L429.58,203.29L429.65,204.33L430.03,203.3L430.18,204.17L430.25,204.56L430.78,204.99L431.08,202.25L431.16,203.2L431.46,204.11L431.76,203.66L431.84,202.6L432.14,202.16L432.21,202.82L432.29,203.87L432.59,203.43L432.67,200.91L432.82,201.52L432.89,199.59L433.19,200.92L433.27,202.26L433.49,202.37L433.57,192.9L433.72,192.74L433.8,191.44L434.1,204.17L434.55,200.04L434.62,201.32L434.7,200.06L435.23,202.86L435.3,202.61L435.45,193.84L435.98,203.94L436.06,203.93L436.21,203.49L436.28,200.44L437.04,202.96L437.11,202.88L437.19,194.42L437.41,191.6L437.56,198.27L437.64,201.23L437.87,204.18L438.09,200.72L438.39,202.19L438.47,202.43L438.62,202.19L438.69,203.57L438.92,203.31L439,203.31L439.22,194.49L439.67,205.35L439.75,205.54L440.2,203.11L440.5,204.14L440.58,204.19L440.8,203.13L440.88,203.24L440.95,204.4L441.03,204.1L441.33,205.54L441.41,205.56L441.48,205.57L441.63,205.66L441.71,205L441.78,204.93L441.86,204.85L442.24,204.81L442.31,205.5L442.69,204.75L442.84,205.44L442.91,205.46L443.37,205.66L443.74,204.21L443.82,204.88L444.57,204.87L444.65,204.75L445.25,205.88L445.32,203.81L445.4,203.61L445.63,204.49L445.78,204.54L445.85,204.54L446.61,205.25L446.68,205.21L446.76,205.81L447.06,205.55L447.13,203.4L447.36,203.32L448.04,204.92L448.11,204.11L448.64,205.66L448.87,205.38L448.94,203.08L449.17,202.9L449.77,204.7L449.85,199.63L449.92,198.8L450.15,204.64L450.22,204.56L450.6,205.33L450.67,205.25L450.75,202.93L451.58,204.64L451.65,204.62L451.73,203.75L451.96,204.46L452.03,204.57L452.33,205.34L452.63,203.78L452.71,203.79L453.09,203.85L453.16,204.72L453.39,204.73L453.46,203.89L454.29,205.56L454.37,204.83L454.44,204.76L454.89,204.61L454.97,205.33L455.35,204.63L455.42,205.46L455.65,204.88L456.02,205.62L456.1,205.43L456.18,204.16L456.4,203.94L457.08,205.26L457.15,204.51L457.53,204.63L457.61,205.36L457.91,205.32L457.98,203.08L458.21,202.99L458.89,204.73L458.96,203.99L459.19,204.67L459.26,205L459.57,205.66L459.72,205.36L459.79,203.12L460.62,204.76L460.7,199.72L460.92,199.77L461,201.73L461.3,205.42L461.75,204.01L461.83,203.19L462.2,204.84L462.35,204.74L462.43,198.07L462.58,196.31L462.96,201.9L463.03,203.32L463.26,203.3L463.33,201.77L463.48,193.78L464.01,204.82L464.09,199.1L464.16,198.36L464.31,196.76L464.69,200.52L464.77,201.95L465.07,205.47L465.52,204.05L465.59,204.04L465.74,204.09L465.82,204.94L466.05,198.55L466.5,205.3L466.57,205.91L466.95,205.98L467.03,205.39L467.1,205.31L467.25,205.23L467.33,200.3L467.55,200.91L467.85,199.25L468.01,199.62L468.08,200.35L468.61,203.51L468.76,201.7L468.83,199.33L468.91,198.06L468.99,205.01L469.21,204.97L469.29,204.98L469.51,205.64L469.59,200.36L469.81,198.16L470.12,201.02L470.19,204.98L470.42,205.69L470.57,201.95L470.64,196.64L470.72,194.91L471.02,199.19L471.17,199.19L471.25,200.04L471.47,197.68L471.55,204.93L471.62,204.11L471.7,204.2L472.3,206.08L472.38,205.99L472.45,203.9L472.68,203.6L473.05,205.35L473.13,205.23L473.2,200.99L473.51,199.58L473.73,202.65L473.81,203.79L473.96,204.94L474.18,203.22L474.26,198.75L474.33,197.38L474.71,200.8L474.94,199.68L475.01,199.78L475.84,206.07L475.92,206.05L476.14,203.36L476.52,204.26L476.6,204.28L477.5,206.05L477.58,206.06L477.8,205.87L477.88,204.37L478.1,198.17L478.48,205.13L478.78,198.77L478.86,198.89L479.01,199.8L479.08,201.78L479.46,205.66L479.68,202.89L479.76,202.76L479.99,197.6L480.29,205.44L480.36,205.43L480.44,205.4L480.59,199.03L481.19,202.89L481.27,202.89L481.49,197.93L481.57,204.04L481.64,204.67L481.72,204.2L482.1,205.67L482.17,200.45L482.47,198.8L482.55,204.62L483.08,205.8L483.23,205.66L483.3,203.46L484.21,205.12L484.28,204.37L484.58,205.45L484.66,204.31L484.88,206.05L485.11,199.05L485.34,203.49L485.41,204.29L485.79,205.06L485.86,200.37L486.09,198.77L486.17,204.36L486.24,204.46L486.77,206.07L486.92,203.83L486.99,203.71L487.14,203.62L487.52,205.23L487.67,205.2L487.75,199.99L487.9,199.24L488.05,200.98L488.12,205.38L488.35,205.76L488.95,203.29L489.25,204.27L489.33,205.13L489.48,205.18L489.63,204.73L489.71,204.03L490.38,205.65L490.46,205.59L490.54,204.13L490.61,203.76L491.06,204.25L491.14,205.04L491.29,205.04L491.36,199.6L491.59,199.73L491.67,201.31L492.65,205.09L492.72,205.1L493.02,205.75L493.1,201.24L493.25,199.87L493.62,202.09L493.7,202.01L493.78,203.26L494.23,196.77L494.3,204.35L494.6,204.48L495.06,197.3L495.43,199.71L495.51,201.69L495.66,204.99L496.04,194.23L496.26,203.3L496.34,203.28L496.49,203.31L496.56,204.13L496.64,203.73L496.71,196.7L496.94,194.08L497.24,199.84L497.32,201.2L497.54,202.49L497.69,199.96L497.77,193.96L497.84,188.71L498.22,203.53L498.45,198.34L498.52,195.65L498.67,193.18L499.05,198.39L499.13,199.73L499.28,201.1L499.5,199.31L499.58,193.65L499.65,192.72L499.73,203.16L500.18,204.27L500.33,197.16L500.41,194.68L500.56,193.95L500.71,196.05L500.78,199.15L501.08,202.35L501.31,200.67L501.39,194.42L501.46,191.95L501.84,203.22L502.06,196.75L502.14,195.78L502.29,192.61L502.74,199.08L502.82,200.6L503.04,201.34L503.19,197.85L503.27,196.52L503.5,191.81L503.72,203.48L503.8,204.24L504.17,194.89L504.55,200.31L504.63,201.5L504.93,200.5L505,199.72L506.06,193.53L506.13,195.69L506.66,197.84L506.74,196.41L506.81,192.94L506.89,190.8L507.26,197.64L507.41,196.91L507.49,195.95L507.72,187.82L508.17,194.42L508.24,196.74L508.47,195.27L508.54,176.72L508.7,142.86L509.22,173.65L509.3,173.65L509.52,160.35L509.83,189.57L509.9,183.58L509.98,187.05L510.13,189.72L510.35,173.36L510.43,159.77L510.5,148.53L511.03,181L511.11,178.72L512.01,204.95L512.16,204.36L512.24,192.78L512.69,203.66L512.91,196.29L512.99,192.34L513.14,190.8L513.29,193.75L513.37,194.95L513.67,200.66L513.97,194.49L514.04,185.85L514.35,200.68L514.95,178.25L515.02,178.05L515.63,191.72L515.85,183.89L515.93,181.02L516.08,174.04L516.31,188.21L516.38,192.61L516.46,192.43L516.53,187.14L516.68,183.18L516.98,195.22L517.06,197.99L517.51,200.81L517.66,199.07L517.74,195.71L518.26,197.79L518.57,188.99L518.64,192.77L518.72,192.9L518.79,194.78L519.24,199.78L519.39,198.2L519.47,189.46L519.92,199.31L520.37,178.65L520.45,178.92L520.53,178.68L520.6,179.74L520.68,181.45L520.9,186.55L521.05,185.07L521.13,182.15L521.35,153.44L521.81,175.23L521.88,175.31L522.11,165.61L522.41,172L522.48,177.47L522.56,177.22L522.64,181.32L522.79,186.71L523.09,167.01L523.16,160.42L523.69,183.22L523.99,174.44L524.07,173.48L524.67,188.4L524.82,182.22L524.9,164.92L524.97,157.1L525.5,179.48L525.57,176.39L525.72,166.96L526.18,185.68L526.25,192.73L526.33,195.75L526.63,185.76L526.7,175.27L526.78,166.12L527.38,179.33L527.46,176.2L527.61,173.35L528.06,182.02L528.14,183.52L528.29,188.07L528.59,176.73L528.66,173.62L528.89,167.51L529.12,174L529.42,170.46L529.49,170.99L530.02,183.33L530.32,176.01L530.4,172.2L530.77,174.74L531.15,159.44L531.23,161.83L531.3,165.85L531.83,191.36L532.05,179.64L532.13,167.22L532.2,160.16L532.58,180.42L532.81,173.64L532.88,168.26L532.96,164.96L533.33,173.79L533.41,171.81L533.49,177.14L533.64,180.82L533.86,175.73L533.94,111.65L534.01,88.39L534.47,163.39L534.54,157.11L534.62,156.77L534.77,134.84L535.29,177.36L535.37,181.36L535.52,181.81L535.6,181.61L535.67,177.23L535.82,155.47L536.42,170.27L536.5,167.72L536.57,163.57L537.03,174.26L537.1,177.98L537.18,181.68L537.48,174.75L537.55,161.16L537.63,148.87L538.08,166.54L538.23,163.49L538.31,161.33L538.38,157.04L538.84,167.39L538.91,172.2L538.99,175.89L539.29,169.71L539.36,154.38L539.44,147.03L539.89,162.13L540.04,160.57L540.12,154.59L540.19,151.39L540.64,164.59L540.72,168.94L540.95,173.09L541.1,171.49L541.17,151.11L542,113.96L542.08,122.45L542.68,174.88L542.9,172L542.98,165.85L543.81,111.43L543.88,139.34L543.96,153.5L544.56,187.35L544.86,168.02L544.94,172.25L545.32,172.99L545.69,154L545.92,162.55L545.99,167.99L546.37,191.19L546.52,172.94L546.6,153.99L547.05,154.09L547.43,126.28L547.5,130.43L548.25,170.69L548.33,164.02L548.41,142.26L548.93,144.86L549.23,102.71L549.31,97.29L549.99,171.47L550.14,163.63L550.21,147.06L550.29,130.76L550.67,161.18L550.89,154.85L550.97,151.07L551.04,144.87L551.49,167.29L551.57,173.33L551.87,187.96L551.95,172.82L552.02,153.51L552.1,137.24L552.7,159.35L552.78,154.56L552.85,151.13L553.23,164.34L553.3,167.59L553.6,194.4L553.91,166.42L553.98,159.41L554.13,151.39L554.51,163.31L554.73,158.4L554.81,160.96L555.56,192.77L555.71,185.57L555.79,178.34L556.47,168.05L556.62,169.58L556.69,173.12L557.3,185.87L557.45,174.86L557.52,163.86L557.9,175.12L558.2,165.88L558.28,158.93L558.95,184.12L559.18,177.48L559.26,162.9L559.63,169.78L560.16,122.83L560.24,146.46L560.84,176.8L560.99,167.86L561.06,148.51L561.14,117.15L561.52,159.64L561.82,143.01L561.89,125.55L561.97,119.78L562.19,155.77L562.27,161.55L562.65,175.44L562.8,168.25L562.87,153.34L562.95,137.71L563.4,160.03L563.55,158.16L563.63,152.14L563.7,148.53L564.08,165.86L564.15,167.63L564.3,174.59L564.61,165.4L564.68,146.44L564.76,132.39L565.13,155.09L565.36,154.12L565.43,150.47L565.51,143.85L565.96,163.77L566.04,170.47L566.26,181.84L566.56,161.22L566.64,155.11L567.39,144.16L567.47,147.37L567.54,150.98L568.15,170.02L568.37,161.07L568.45,151.67L569.2,121.57L569.28,140.81L569.35,144.27L569.88,167.37L570.11,146.86L570.18,137.01L570.56,153.39L570.86,136.42L570.94,118.94L571.76,164.38L571.84,158.28L571.91,139.26L572.14,120.38L572.59,148.55L572.67,146.86L572.74,138.61L573.2,164.33L573.27,169.74L573.5,173.49L573.65,169.56L573.72,152.66L574.55,132.52L574.63,133.61L575.31,164.41L575.46,155.4L575.53,127.41L575.61,95.05L575.98,135.33L576.28,118.21L576.36,108.81L576.44,103.96L576.66,129.79L576.74,139.82L577.11,158.77L577.26,148.11L577.34,123.77L578.17,74.56L578.24,97.84L578.85,153.01L579.15,134.51L579.22,121.62L580.05,89.43L580.13,94.87L580.81,151.47L581.03,134.14L581.11,123.98L581.86,107.95L581.94,119.47L582.61,171.48L582.92,154.49L582.99,149.79L583.52,136.98L583.59,122.82L583.67,117.33L583.97,138.17L584.05,144.57L584.27,162.72L584.57,122.04L584.65,92.9L585.03,133.21L585.4,106.11L585.48,109.83L586.16,159.8L586.31,148.1L586.38,118.05L586.46,94.73L586.76,120.02L587.14,111.75L587.21,102.64L587.66,144.24L587.74,149.62L588.04,157.58L588.19,130.83L588.27,122.06L588.87,161.93L589.09,150.28L589.17,150.55L589.25,150.4L589.32,152.88L589.85,189.13L590,155.86L590.07,143L590.45,163.79L590.83,152.23L590.9,154.59L591.66,182.88L591.73,175.61L591.81,166.95L592.11,139.56L592.71,142.02L592.79,144.44L592.94,150.8L593.01,158.64L593.47,168.61L593.62,161.22L593.69,154.22L594.52,110.25L594.67,120.29L594.75,129.86L595.27,152.47L595.35,146.88L595.42,129.96L595.88,133.39L596.33,96.76L596.4,96.6L597.08,156.19L597.23,115.58L597.31,85.97L597.91,120.71L598.06,105.18L598.14,106.27L598.81,155.39L598.97,142.23L599.04,118.39L599.87,51.7L599.95,60.64L600.7,148.53L600.85,117.53L600.92,84.17L601.3,116.65L601.6,79.34L601.68,40.26L602.36,153.26L602.66,116.3L602.73,71.13L602.81,71.97L602.88,57.46L603.34,94.61L603.49,34.61L603.56,45.37L604.24,147.7L604.47,127.77L604.54,103.72L605.3,16.84L605.37,35.03L605.45,61.28L606.05,135.7L606.35,121.45L606.43,102.48L607.18,63.92L607.25,79.83L607.33,90.91L607.78,129.86L608.08,112.47L608.16,94.47L608.23,114.04L608.84,87L608.91,75.2L608.99,74.79L609.06,76.5L609.14,90.93L609.67,130.46L609.82,118.15L609.89,88.24L610.65,-22.83L610.72,5.41L610.8,59.23L611.47,128.3L611.62,118.55L611.7,84.89L611.85,-84.09L612.45,5.47L612.53,33.35L613.36,132.05L613.51,95.75L613.58,54.59L613.73,50.44L614.19,91.75L614.26,68.75L614.34,53.54L615.09,141.29L615.32,103.42L615.39,73.25L616.3,115.22L616.37,117.24L616.9,154.03L617.2,130.87L617.28,116.86L617.43,100.13L617.73,121.79L618.03,112.31L618.1,123.15L618.78,164.31L619.01,154.02L619.08,148.08L619.31,131.05L619.84,145.81L619.91,147.54L620.59,182.22L620.74,161.96L620.82,153.13L621.27,159.08L621.5,148.04L621.57,143.02L621.65,141.48L621.87,149.42L621.95,151.53L622.32,176.96L622.48,169.58L622.55,144.73L623.38,120.12L623.45,117.48L624.13,161.45L624.28,154.56L624.36,129.56L624.43,107.75L625.04,130.62L625.11,125.5L625.19,122.95L626.02,161.64L626.09,153.86L626.17,136.38L626.24,108.03L626.92,122.39L627,113.15L627.67,155.11L627.9,145.78L627.98,119.79L628.05,88.51L628.73,105.7L628.8,99.34L628.96,108.29L629.03,115.81L629.63,157.63L629.86,132.37L629.93,115.05L630.01,104.97L630.39,135.21L630.54,129.97L630.61,126.55L631.52,170.54L631.74,155.56L631.82,149.68L631.89,146.87L632.27,161.51L632.35,161.32L632.42,157.03L632.87,172.1L632.95,175.45L633.25,185.84L633.48,162.82L633.55,171.32L633.63,167.53L633.93,176.16L634,173.53L634.08,168.66L634.38,159.37L634.68,169.14L634.76,172.96L634.98,177.26L635.13,169.86L635.21,153.78L635.28,142.91L635.74,158.88L635.89,157.81L635.96,155.91L636.04,151.83L636.42,167.13L636.49,169.27L636.79,178.5L637.02,156.84L637.09,146.14L637.62,158.54L637.85,148.39L637.92,148.16L638.68,182.62L638.75,175.29L638.83,157.82L639.35,158.84L639.66,139.73L639.73,139.09L640.48,177.52L640.63,160.82L640.71,144.02L641.31,159.83L641.46,152.31L641.54,152.38L641.69,153.15L641.77,156.95L642.22,192.85L642.52,166.05L642.59,160.23L643.35,147.02L643.42,151.57L643.5,154.44L644.03,192.59L644.33,176.07L644.4,164.92L645.08,139.82L645.31,147.5L645.38,153.18L645.98,170.5L646.06,162.23L646.14,146.95L647.11,167.4L647.19,168.65L647.79,183.41L647.94,173.55L648.02,163.73L648.09,151.58L648.77,156.87L648.85,158.96L648.92,155.23L649.22,165.84L649.3,176.05L649.9,138.89L650.28,144L650.36,145.47L650.73,143.7L650.81,145.9L650.88,155.03L651.03,153.89L651.11,155.93L651.18,157.77L651.33,159.63L651.41,153.35L651.56,121.46L652.24,131.19L652.31,129.46L652.62,148.3L652.69,154.3L653.07,179.7L653.37,150.62L653.44,159.6L653.52,151.36L653.67,153.37L654.12,142.33L654.35,145.5L654.42,150.81L655.03,176.36L655.18,164.52L655.25,154.78L655.93,139.74L656.08,142.55L656.16,143.89L656.84,167.14L656.99,158.73L657.06,153.93L657.21,144.19L657.51,155.8L657.81,144.28L657.89,149.29L658.57,179.21L658.72,166.83L658.79,158.41L658.87,163.19L659.4,157.49L659.47,153.48L659.55,149.68L660,159.11" style="vector-effect: none; fill: none; stroke: rgb(54, 112, 97); stroke-opacity: 1; stroke-width: 0px; opacity: 1;"/></g><g class="points"/><g class="text"/></g></g></g><g class="overplot"/><path class="xlines-above crisp" d="M19,230.5H681M19,19.5H681" style="fill: none; stroke-width: 1px; stroke: rgb(68, 68, 68); stroke-opacity: 1;"/><path class="ylines-above crisp" d="M19.5,20V230M680.5,20V230" style="fill: none; stroke-width: 1px; stroke: rgb(68, 68, 68); stroke-opacity: 1;"/><g class="overlines-above"/><g class="xaxislayer-above"><path class="xtick ticks crisp" d="M0,231v5" transform="translate(20,0)" style="stroke: rgb(68, 68, 68); stroke-opacity: 1; stroke-width: 1px;"/><path class="xtick ticks crisp" d="M0,231v5" transform="translate(126.7,0)" style="stroke: rgb(68, 68, 68); stroke-opacity: 1; stroke-width: 1px;"/><path class="xtick ticks crisp" d="M0,231v5" transform="translate(237.01,0)" style="stroke: rgb(68, 68, 68); stroke-opacity: 1; stroke-width: 1px;"/><path class="xtick ticks crisp" d="M0,231v5" transform="translate(347.33,0)" style="stroke: rgb(68, 68, 68); stroke-opacity: 1; stroke-width: 1px;"/><path class="xtick ticks crisp" d="M0,231v5" transform="translate(459.45,0)" style="stroke: rgb(68, 68, 68); stroke-opacity: 1; stroke-width: 1px;"/><path class="xtick ticks crisp" d="M0,231v5" transform="translate(569.76,0)" style="stroke: rgb(68, 68, 68); stroke-opacity: 1; stroke-width: 1px;"/><g class="xtick"><text text-anchor="middle" x="0" y="255.2" transform="translate(20,0)" style="font-family: 'Open Sans', verdana, arial, sans-serif; font-size: 16px; fill: rgb(68, 68, 68); fill-opacity: 1; white-space: pre; opacity: 0;">01.01</text></g><g class="xtick"><text text-anchor="middle" x="0" y="255.2" style="font-family: 'Open Sans', verdana, arial, sans-serif; font-size: 16px; fill: rgb(68, 68, 68); fill-opacity: 1; white-space: pre; opacity: 1;" transform="translate(126.7,0)">01.03</text></g><g class="xtick"><text text-anchor="middle" x="0" y="255.2" style="font-family: 'Open Sans', verdana, arial, sans-serif; font-size: 16px; fill: rgb(68, 68, 68); fill-opacity: 1; white-space: pre; opacity: 1;" transform="translate(237.01,0)">01.05</text></g><g class="xtick"><text text-anchor="middle" x="0" y="255.2" style="font-family: 'Open Sans', verdana, arial, sans-serif; font-size: 16px; fill: rgb(68, 68, 68); fill-opacity: 1; white-space: pre; opacity: 1;" transform="translate(347.33,0)">01.07</text></g><g class="xtick"><text text-anchor="middle" x="0" y="255.2" style="font-family: 'Open Sans', verdana, arial, sans-serif; font-size: 16px; fill: rgb(68, 68, 68); fill-opacity: 1; white-space: pre; opacity: 1;" transform="translate(459.45,0)">01.09</text></g><g class="xtick"><text text-anchor="middle" x="0" y="255.2" style="font-family: 'Open Sans', verdana, arial, sans-serif; font-size: 16px; fill: rgb(68, 68, 68); fill-opacity: 1; white-space: pre; opacity: 1;" transform="translate(569.76,0)">01.11</text></g></g><g class="yaxislayer-above"><path class="ytick ticks crisp" d="M19,0h-5" transform="translate(0,230)" style="stroke: rgb(68, 68, 68); stroke-opacity: 1; stroke-width: 1px;"/><path class="ytick ticks crisp" d="M19,0h-5" transform="translate(0,188)" style="stroke: rgb(68, 68, 68); stroke-opacity: 1; stroke-width: 1px;"/><path class="ytick ticks crisp" d="M19,0h-5" transform="translate(0,146)" style="stroke: rgb(68, 68, 68); stroke-opacity: 1; stroke-width: 1px;"/><path class="ytick ticks crisp" d="M19,0h-5" transform="translate(0,104)" style="stroke: rgb(68, 68, 68); stroke-opacity: 1; stroke-width: 1px;"/><path class="ytick ticks crisp" d="M19,0h-5" transform="translate(0,62)" style="stroke: rgb(68, 68, 68); stroke-opacity: 1; stroke-width: 1px;"/><path class="ytick ticks crisp" d="M19,0h-5" transform="translate(0,20)" style="stroke: rgb(68, 68, 68); stroke-opacity: 1; stroke-width: 1px;"/><g class="ytick"><text text-anchor="end" x="10.8" y="5.6" transform="translate(0,230)" style="font-family: 'Open Sans', verdana, arial, sans-serif; font-size: 16px; fill: rgb(68, 68, 68); fill-opacity: 1; white-space: pre; opacity: 1;">0</text></g><g class="ytick"><text text-anchor="end" x="10.8" y="5.6" style="font-family: 'Open Sans', verdana, arial, sans-serif; font-size: 16px; fill: rgb(68, 68, 68); fill-opacity: 1; white-space: pre; opacity: 1;" transform="translate(0,188)">10</text></g><g class="ytick"><text text-anchor="end" x="10.8" y="5.6" style="font-family: 'Open Sans', verdana, arial, sans-serif; font-size: 16px; fill: rgb(68, 68, 68); fill-opacity: 1; white-space: pre; opacity: 1;" transform="translate(0,146)">20</text></g><g class="ytick"><text text-anchor="end" x="10.8" y="5.6" style="font-family: 'Open Sans', verdana, arial, sans-serif; font-size: 16px; fill: rgb(68, 68, 68); fill-opacity: 1; white-space: pre; opacity: 1;" transform="translate(0,104)">30</text></g><g class="ytick"><text text-anchor="end" x="10.8" y="5.6" style="font-family: 'Open Sans', verdana, arial, sans-serif; font-size: 16px; fill: rgb(68, 68, 68); fill-opacity: 1; white-space: pre; opacity: 1;" transform="translate(0,62)">40</text></g><g class="ytick"><text text-anchor="end" x="10.8" y="5.6" style="font-family: 'Open Sans', verdana, arial, sans-serif; font-size: 16px; fill: rgb(68, 68, 68); fill-opacity: 1; white-space: pre; opacity: 1;" transform="translate(0,20)">50</text></g></g><g class="overaxes-above"/></g></g><g class="polarlayer"/><g class="smithlayer"/><g class="ternarylayer"/><g class="geolayer"/><g class="funnelarealayer"/><g class="pielayer"/><g class="iciclelayer"/><g class="treemaplayer"/><g class="sunburstlayer"/><g class="glimages"/><defs id="topdefs-d03ff0"><g class="clips"/><clipPath id="legendd03ff0"><rect width="210" height="55" x="0" y="0"/></clipPath></defs><g class="layer-above"><g class="imagelayer"/><g class="shapelayer"/></g><g class="infolayer"><g class="legend" pointer-events="all" transform="translate(26.6,24.200000000000003)"><rect class="bg" shape-rendering="crispEdges" width="210" height="55" x="0" y="0" style="stroke: rgb(68, 68, 68); stroke-opacity: 1; fill: rgb(0, 0, 0); fill-opacity: 0; stroke-width: 0px;"/><g class="scrollbox" transform="" clip-path="url(#legendd03ff0)"><g class="groups"><g class="traces" transform="translate(0,27.3)" style="opacity: 1;"><text class="legendtext" text-anchor="start" x="40" y="-4.16" style="font-family: 'Open Sans', verdana, arial, sans-serif; font-size: 16px; fill: rgb(68, 68, 68); fill-opacity: 1; white-space: pre;"><tspan class="line" dy="0em" x="40" y="-4.16">Strm:</tspan><tspan class="line" dy="1.3em" x="40" y="-4.16">82 921 kr/r | 70 kr</tspan></text><g class="layers"><g class="legendfill"><path class="js-fill" d="M5,-2h30v6h-30z" style="stroke-width: 0; fill: rgb(54, 112, 97); fill-opacity: 0.5;"/></g><g class="legendlines"><path class="js-line" d="M5,-2h30" style="fill: none; stroke: rgb(54, 112, 97); stroke-opacity: 1; stroke-width: 0px;"/></g><g class="legendsymbols"><g class="legendpoints"/></g></g><rect class="legendtoggle" x="0" y="-22.3" width="206.5625" height="44.6" style="fill: rgb(0, 0, 0); fill-opacity: 0;"/></g></g></g><rect class="scrollbar" rx="20" ry="3" width="0" height="0" x="0" y="0" style="fill: rgb(128, 139, 164); fill-opacity: 1;"/></g><g class="g-gtitle"/><g class="g-xtitle"/><g class="g-ytitle" transform="translate(32,0)"><text class="ytitle" transform="rotate(-90,-18,125)" x="-18" y="125" text-anchor="middle" style="font-family: 'Open Sans', verdana, arial, sans-serif; font-size: 14px; fill: rgb(68, 68, 68); opacity: 1; font-weight: normal; white-space: pre;">Kostnad (kr)</text></g></g></svg>