<svg class="main-svg" xmlns="http://www.w3.org/2000/svg" xmlns:xlink="http://www.w3.org/1999/xlink" width="700" height="250" style="" viewBox="0 0 700 250"><rect x="0" y="0" width="700" height="250" style="fill: rgb(255, 255, 255); fill-opacity: 1;"/><defs id="defs-165bf8"><g class="clips"><clipPath id="clip165bf8xyplot" class="plotclip"><rect width="660" height="210"/></clipPath><clipPath class="axesclip" id="clip165bf8x"><rect x="20" y="0" width="660" height="250"/></clipPath><clipPath class="axesclip" id="clip165bf8y"><rect x="0" y="20" width="700" height="210"/></clipPath><clipPath class="axesclip" id="clip165bf8xy"><rect x="20" y="20" width="660" height="210"/></clipPath></g><g class="gradients"/><g class="patterns"/></defs><g class="bglayer"/><g class="layer-below"><g class="imagelayer"/><g class="shapelayer"/></g><g class="cartesianlayer"><g class="subplot xy"><g class="layer-subplot"><g class="shapelayer"/><g class="imagelayer"/></g><g class="minor-gridlayer"><g class="x"/><g class="y"/></g><g class="gridlayer"><g class="x"><path class="xgrid crisp" transform="translate(126.7,0)" d="M0,20v210" style="stroke: rgb(238, 238, 238); stroke-opacity: 1; stroke-width: 0.1px;"/><path class="xgrid crisp" transform="translate(237.01,0)" d="M0,20v210" style="stroke: rgb(238, 238, 238); stroke-opacity: 1; stroke-width: 0.1px;"/><path class="xgrid crisp" transform="translate(347.33,0)" d="M0,20v210" style="stroke: rgb(238, 238, 238); stroke-opacity: 1; stroke-width: 0.1px;"/><path class="xgrid crisp" transform="translate(459.45,0)" d="M0,20v210" style="stroke: rgb(238, 238, 238); stroke-opacity: 1; stroke-width: 0.1px;"/><path class="xgrid crisp" transform="translate(569.76,0)" d="M0,20v210" style="stroke: rgb(238, 238, 238); stroke-opacity: 1; stroke-width: 0.1px;"/></g><g class="y"><path class="ygrid crisp" transform="translate(0,188)" d="M20,0h660" style="stroke: rgb(238, 238, 238); stroke-opacity: 1; stroke-width: 0.1px;"/><path class="ygrid crisp" transform="translate(0,146)" d="M20,0h660" style="stroke: rgb(238, 238, 238); stroke-opacity: 1; stroke-width: 0.1px;"/><path class="ygrid crisp" transform="translate(0,104)" d="M20,0h660" style="stroke: rgb(238, 238, 238); stroke-opacity: 1; stroke-width: 0.1px;"/><path class="ygrid crisp" transform="translate(0,62)" d="M20,0h660" style="stroke: rgb(238, 238, 238); stroke-opacity: 1; stroke-width: 0.1px;"/></g></g><g class="zerolinelayer"><path class="yzl zl crisp" transform="translate(0,230)" d="M20,0h660" style="stroke: rgb(68, 68, 68); stroke-opacity: 1; stroke-width: 1px;"/></g><path class="xlines-below"/><path class="ylines-below"/><g class="overlines-below"/><g class="xaxislayer-below"/><g class="yaxislayer-below"/><g class="overaxes-below"/><g class="plot" transform="translate(20,20)" clip-path="url(#clip165bf8xyplot)"><g class="scatterlayer mlayer"><g class="trace scatter trace1c704e" style="stroke-miterlimit: 2;"><g class="fills"><g><path class="js-fill" d="M660,210L0,210L0,174.18L0.23,181.87L0.68,168.21L0.75,167.59L1.13,172.7L1.21,168.39L1.28,162.88L1.36,162.69L1.43,166.32L1.81,175.42L1.88,178.85L2.11,180.52L2.19,177.28L2.26,165.06L2.79,169.86L3.09,157.9L3.16,155.95L3.32,162.14L3.39,165.6L3.77,171.61L3.99,164.96L4.07,155.84L4.14,144.22L4.52,159.73L4.82,150.02L4.9,144.09L5.05,142.56L5.12,144.65L5.2,149.29L5.73,170.92L5.88,146.02L5.95,133.9L6.56,152.89L6.78,144.82L6.86,148.26L7.46,179.24L7.61,171.82L7.69,155.13L7.76,145.84L8.36,162.8L8.44,157.81L8.51,152.06L9.04,169.21L9.12,172.68L9.42,167.38L9.49,160.79L9.64,145.85L9.72,128.89L10.1,135.43L10.32,111.81L10.4,112.2L10.47,131.42L10.55,132.16L10.62,141.69L11.15,176.41L11.38,161.95L11.45,157.06L11.91,157.29L12.21,133.06L12.28,152.35L12.81,178.82L13.11,163.64L13.19,159.75L13.64,173.77L13.94,168.05L14.02,168.78L14.77,189.14L14.84,186.9L14.92,176.8L15.07,177.43L15.82,144.27L15.9,150.55L15.97,162.09L16.35,181.78L16.65,173.69L16.73,156.9L16.8,123.2L17.33,162.7L17.41,160.41L17.48,160.18L17.63,150.92L18.01,168.42L18.08,174.64L18.31,179.71L18.54,159.95L18.61,152.74L19.06,170.36L19.37,160.65L19.44,161.96L20.12,181.62L20.27,177.59L20.34,167.13L20.42,158.33L20.87,173.31L21.02,172.02L21.1,170.19L21.17,166.6L21.63,175.27L21.7,179.03L22,184.84L22.23,175.43L22.3,171.34L22.45,162.34L22.83,171.99L23.06,166.67L23.13,168.74L23.28,172.83L23.36,178.47L23.74,185.04L23.96,179.32L24.04,175.29L24.34,161.65L24.94,163.58L25.02,163.62L25.62,177.95L25.69,174.06L25.77,163.17L26.37,166.66L26.52,147.54L26.6,158.56L27.05,169.7L27.13,173.25L27.28,177.37L27.58,161.93L27.65,154.42L28.11,169.16L28.41,161.46L28.48,162.42L28.63,164.34L28.71,166.31L29.09,180.32L29.39,164.52L29.46,158.98L29.84,170.58L30.14,164.5L30.22,159.14L30.29,159.32L30.37,162.64L30.52,165.1L30.59,169L30.97,178.22L31.12,173.36L31.2,158.19L31.27,117.37L31.87,165.56L31.95,163.29L32.02,159.17L32.48,170.7L32.55,174.88L32.78,177.45L32.93,173.55L33,160.92L33.08,153.2L33.68,166.43L33.76,164.52L33.83,160.94L34.28,172.28L34.36,173.96L34.59,179.56L34.89,167.96L34.96,161.54L35.42,162.81L35.72,154.06L35.79,154.08L35.87,154.12L36.24,170.66L36.62,164.12L36.7,155.78L36.92,140.83L37.52,141.57L37.6,143.36L38.05,163.04L38.35,156.73L38.43,146.33L38.5,130.84L39.11,152.93L39.18,148.74L39.26,144.1L39.71,156.38L39.79,162.2L40.09,167.42L40.16,163.85L40.24,149.73L40.31,144.08L40.84,158.12L40.92,161.73L41.07,152.8L41.52,167.42L41.59,172.39L41.9,176.39L41.97,172.62L42.05,160.07L42.12,152.03L42.72,168.3L42.8,166.28L42.87,162.54L43.33,172.34L43.4,176.06L43.7,180.96L43.85,164.01L43.93,153.16L44.53,166.83L44.68,158.8L44.76,158.27L45.51,181.85L45.59,178.19L45.66,166.05L45.74,158.03L46.19,175.17L46.27,173.42L46.34,173.4L46.49,162.94L47.02,173.87L47.09,178.28L47.25,179.58L47.4,179.02L47.47,173.38L47.77,155L48.38,158.19L48.45,159.43L48.98,175.3L49.28,167.8L49.35,164.54L49.58,150.03L50.18,154.18L50.26,157.69L50.86,186.9L50.94,194.21L51.16,168.7L51.62,175.58L51.69,175.45L51.99,170.66L52.6,188.3L52.82,182.87L52.9,171.42L52.97,166.48L53.5,180.6L53.57,178.85L53.88,165.61L54.25,176.82L54.33,181L54.48,182.98L54.63,175.86L54.7,163L54.93,136.59L55.38,163.37L55.46,161.35L55.53,157.59L55.76,158.04L55.84,161.57L56.29,173.69L56.44,168.22L56.51,154.87L56.59,122.23L57.19,164.34L57.27,162.89L57.42,156.78L57.87,172.62L57.94,175.9L58.02,177.29L58.25,169.86L58.32,155.92L58.4,141.46L58.77,161.28L59,159.36L59.08,154.88L59.3,146.07L59.68,163.02L59.75,168.51L59.9,170.48L59.98,168.25L60.05,167.92L60.28,137.01L60.81,153.3L60.88,152.09L60.96,148.86L61.26,160.06L61.34,165.83L61.79,172.65L61.94,168.28L62.01,161.88L62.16,151.71L62.54,162.46L62.77,156.68L62.84,156.68L63.52,177.45L63.67,173.77L63.75,163.52L63.82,158.44L64.35,172.99L64.43,173.32L64.65,162.71L65.1,175.52L65.18,179.25L65.4,184.97L65.48,180.38L65.56,166.96L65.63,158.05L65.71,167.33L66.31,163.42L66.38,161.55L66.46,160.34L66.69,164.66L66.76,169.85L67.14,177.39L67.29,173.69L67.36,160.76L67.44,153.02L67.82,169.49L67.97,168.28L68.04,169.94L68.27,159.64L68.64,171.56L68.72,175.52L68.87,179.97L69.1,174.97L69.17,163.3L69.25,154.1L69.85,170.77L69.93,168.16L70.23,164.2L70.45,172.9L70.53,178.93L70.83,184.12L70.98,168.06L71.06,160.67L71.43,177.14L71.81,170.91L71.88,168.97L71.96,167.74L72.19,175.02L72.26,176.82L72.41,181.99L72.79,176.2L72.86,171.97L73.17,159.03L73.69,161.36L73.77,161.44L74.37,182.47L74.67,173.78L74.75,164.58L74.82,157.98L75.28,172.23L75.43,166.22L75.5,164.74L76.1,182.03L76.33,178.37L76.41,169.32L76.48,161.18L76.93,178.59L77.08,177.3L77.16,173.59L77.23,169.8L77.69,178.4L77.76,183.16L77.84,186.07L78.21,173.91L78.29,168.13L78.82,185.7L79.04,172.82L79.12,172.65L79.19,172.12L79.34,175.93L79.42,178.73L79.72,185.02L79.95,180.42L80.02,170.44L80.1,159.21L80.4,173.61L80.78,168.64L80.85,164.66L81.08,165.88L81.15,169.34L81.53,180.41L81.83,165.47L81.91,158.02L82.51,171.89L82.66,166.29L82.74,165.01L83.26,183.54L83.56,178.86L83.64,167.1L83.72,161.32L84.17,177.02L84.24,176.37L84.32,177.06L84.54,167.29L84.92,178.65L85,180.78L85.3,186.35L85.52,177.24L85.6,174.04L85.75,168L86.13,174.68L86.35,171.56L86.43,172.54L87.03,186.67L87.33,178.73L87.41,173.68L87.56,167.26L87.93,178.44L88.16,170.65L88.24,171.12L88.84,185.16L88.99,181.43L89.06,173.26L89.14,164.06L89.67,178.09L89.74,178.04L89.82,174.7L89.97,166.86L90.42,177.64L90.5,181.45L90.72,183.68L90.8,182.82L90.87,173.86L90.95,169.42L91.4,182.19L91.48,182.37L91.93,172.13L92.08,178.26L92.15,180.56L92.53,188.68L92.68,175.49L92.76,166.44L93.21,177.92L93.51,168.26L93.59,166.09L93.74,169.22L93.81,173.09L94.11,182.63L94.41,177.75L94.49,165.77L94.64,148.11L95.17,171.47L95.24,165.51L95.32,163.48L95.62,169.35L95.7,174.44L96,182.02L96.22,177.09L96.3,164.84L96.37,156.06L96.83,177.98L96.9,176.93L96.98,176.1L97.13,166.71L97.58,177.09L97.65,177.06L97.73,180.43L97.88,182.48L98.11,174.18L98.18,171.66L98.41,160.59L99.01,161.93L99.09,164.48L99.69,178.43L99.84,177.74L99.92,173.51L100.22,161.09L100.82,163.06L100.9,163.34L101.05,167.41L101.12,170.77L101.27,173.27L101.35,176.63L101.5,174.5L101.57,176.13L101.65,170.56L101.8,154.26L102.33,173.09L102.4,173.02L102.63,160.6L103.08,172.79L103.16,174.59L103.23,176.38L103.46,171.22L103.53,158.98L103.61,153.34L103.98,174.78L104.06,175.05L104.14,176.17L104.29,171.57L104.36,165.67L104.51,161.96L104.81,169.84L104.89,174.54L105.04,178.19L105.27,172.23L105.34,161.18L105.42,149.7L105.94,175.25L106.02,174.83L106.25,161.15L106.7,174.59L106.77,179.89L107,177.41L107.07,173.3L107.22,150.83L107.75,173.62L107.83,175.54L108.13,160.39L108.51,173.58L108.58,177.36L108.88,171.74L108.96,159.97L109.03,143.69L109.64,172.03L109.71,167.89L109.86,156.97L110.39,172.06L110.46,172.11L110.69,171.73L110.77,167.93L111.07,147.27L111.37,168.38L111.52,162.95L111.59,157.54L112.42,172.7L112.5,169.7L112.57,164.95L112.73,106.63L113.33,156.7L113.4,146.82L113.48,135.65L114.01,165.08L114.08,162.96L114.31,155.84L114.38,144.28L114.46,130.05L114.99,159.75L115.06,159.78L115.29,141.75L115.74,158.39L115.81,160.96L115.89,163.28L116.12,156.03L116.19,140.4L116.27,129.1L116.79,152.24L116.87,154.54L117.17,136.51L117.55,151.8L117.62,156.49L117.92,148.8L118,124.95L118.08,5.55L118.68,149.57L118.75,142.19L118.98,128.25L119.28,144.87L119.36,143.93L119.43,149.3L119.58,149.41L119.66,146.7L119.81,115.4L119.88,-81.29L120.49,143.57L120.79,116.86L120.86,123.6L121.24,150.75L121.54,140.55L121.62,120.82L121.69,96.64L122.29,142.12L122.37,137.79L122.6,121.58L123.05,145.38L123.12,145.61L123.27,145.15L123.35,141.28L123.65,118.59L124.03,139.83L124.1,138.23L124.33,122.48L124.63,142.44L124.71,145.23L125.08,152.98L125.23,145.28L125.31,138.85L125.53,128.04L125.91,148.46L126.06,138.08L126.14,137.18L126.21,134.75L126.51,148.8L126.59,157.57L126.74,160.41L126.97,153.05L127.04,141.21L127.12,130.52L127.64,154.8L127.72,156.18L127.95,138.15L128.32,154.29L128.4,160.05L128.77,171.16L128.85,156.45L128.93,144.78L129.38,159.41L129.68,148.32L129.75,146.37L129.91,148.48L129.98,153.47L130.28,162.43L130.58,155.75L130.66,138.94L130.73,122.19L131.19,154.4L131.26,154.39L131.34,156.81L131.71,137.76L132.02,154.44L132.09,159.19L132.47,130.35L132.54,85.1L133.07,156.55L133.37,131.84L133.45,137.66L133.52,136.45L133.67,145.91L133.75,149.31L133.97,161.24L134.28,136.25L134.35,104.62L134.95,156.29L135.18,142.68L135.26,144.54L135.78,171.12L136.08,165.24L136.16,159.66L136.39,144.94L137.06,149.35L137.14,149.6L137.59,172.56L137.97,162.62L138.04,157.79L138.19,149.63L138.5,166.42L138.8,152.2L138.87,154.33L139.47,173.95L139.63,169.84L139.7,159.25L139.78,151.58L140.23,169.63L140.3,168.36L140.38,170.33L140.61,158.9L141.06,172.64L141.13,176.16L141.28,177.06L141.36,176.87L141.43,172.76L141.58,152.85L142.11,171.65L142.19,171.65L142.41,158.64L142.79,166.86L142.87,170.8L143.02,174.83L143.24,167.23L143.32,153.58L143.39,143.25L143.69,162.15L144,159.26L144.07,156.13L144.3,146.98L144.67,164.18L144.75,168.61L144.98,168.02L145.05,162.53L145.28,135.83L145.65,164.01L145.73,162.63L145.8,164.14L146.11,150.83L146.48,167.51L146.56,172.24L146.78,172.22L146.86,165.99L147.01,118.92L147.61,163.88L147.69,158.55L147.84,153.61L148.22,163.66L148.29,168.6L148.52,173.26L148.82,161.76L148.89,156.02L148.97,150.18L149.35,160.55L149.65,154.11L149.72,154.58L149.8,153.75L149.87,158.49L149.95,165.4L150.4,173.12L150.63,165.04L150.7,157.94L150.93,150.14L151.15,159.48L151.46,152.91L151.53,152.93L151.68,158.09L151.76,160.38L152.21,168.26L152.28,164.07L152.36,151.52L152.44,140.92L152.81,161.84L153.04,159.54L153.11,154.27L153.34,142.08L153.79,158.79L153.87,158.81L154.24,129.93L154.39,145.39L154.47,149.11L154.7,161.22L155,145.95L155.07,144.28L155.15,141.99L155.45,152L155.52,156.45L155.6,160.93L155.9,153.5L155.98,139.68L156.05,131.87L156.58,155.78L156.65,157.54L157.03,144.87L157.33,160.15L157.41,164.5L157.56,164.4L157.63,163.42L157.86,113.27L158.09,147.83L158.16,150.61L158.46,156.96L158.61,143.3L158.69,139.44L158.76,139.27L158.84,140.71L158.92,146.55L159.29,160.52L159.52,151.37L159.59,125.96L159.67,87.61L160.2,147.96L160.27,147.91L160.35,139.84L160.57,132L160.8,150.75L160.87,149.95L160.95,157.19L161.1,163.35L161.4,139.6L161.48,129.95L162.08,157.3L162.53,155.17L162.61,159.24L162.91,168.63L163.29,158.21L163.36,152.55L163.51,148.86L163.81,161.56L163.89,161.85L164.04,152.24L164.11,147.9L164.57,163.12L164.64,167.67L165.02,151.76L165.09,145.71L165.62,168.49L165.85,157.15L165.92,149.61L166,149.11L166.07,149.17L166.15,154.23L166.68,167.08L166.83,152.03L166.9,139.75L167.43,165.67L167.66,155.66L167.73,154.93L167.88,151.04L168.11,162.48L168.18,169.58L168.26,173.97L168.64,154.16L168.71,147.29L169.24,172.83L169.46,161.44L169.54,156.85L169.69,156.72L169.77,158.97L170.07,174.33L170.44,155.73L170.52,152.58L171.05,172.18L171.27,161.86L171.35,156.47L171.5,157.87L171.57,161.7L172.03,177.65L172.25,158.67L172.33,147.24L172.7,162.66L173.08,155.4L173.16,152.14L173.38,155.31L173.46,161.82L173.53,161.68L173.61,166.26L173.83,171.4L174.21,158.5L174.29,154.17L174.36,152.16L174.59,161.29L174.66,165.5L175.04,155.97L175.49,173.27L175.64,173.01L175.72,172.77L175.79,174.61L176.02,166.05L176.1,162.14L176.17,160.27L176.4,171.28L176.47,175.03L176.62,172.51L176.7,167.99L176.92,162.81L177.23,177.58L177.3,181.85L177.53,181.74L177.6,177.58L177.75,162.41L178.28,179.96L178.36,177.96L178.66,167.33L178.96,173.44L179.03,179.59L179.26,181.65L179.41,177.54L179.49,166.03L179.56,157.53L180.01,174.93L180.16,172.77L180.24,170.29L180.39,162.51L180.84,175.65L180.92,177.84L180.99,179.88L181.22,172.14L181.29,155.86L181.37,128.07L181.9,170.81L181.97,170.08L182.05,167.01L182.27,157.4L182.65,177.3L182.73,182.13L182.88,182.05L182.95,183.64L183.25,169.1L183.63,177.71L183.71,179.93L183.86,179.12L183.93,173.85L184.08,169.04L184.38,180.7L184.46,182.95L184.53,187.26L184.99,175.08L185.06,175.49L185.14,168.63L185.36,170.99L185.44,173.04L185.97,172.8L186.19,179.98L186.27,177.85L186.42,180.6L186.8,171.49L186.87,165.1L187.62,152.88L187.7,154.96L187.77,155.04L188.15,178.69L188.6,168.46L188.68,166.68L188.75,158.26L189.21,171.9L189.43,166.03L189.51,163.06L190.11,182.18L190.41,174.78L190.49,173.51L190.56,172.29L190.79,177.9L190.86,180.59L191.01,191.4L191.17,174.34L191.24,172.59L191.32,169.74L191.62,179.49L191.69,178.62L191.77,182.07L191.84,182.65L192.07,179.81L192.15,169.5L192.22,166.54L192.3,173.52L192.37,193.93L192.75,202.53L192.82,201.35L192.9,186.93L193.2,166.76L193.58,194.48L193.65,194.82L194.03,172.32L194.1,196.45L194.48,202.59L195.01,168.67L195.23,175.81L195.31,181.12L195.39,185.83L195.76,168.28L195.84,148.61L196.36,196.93L196.59,196.21L196.67,168.46L197.19,188.31L197.5,184.51L197.57,171.39L198.17,197.15L198.4,196.2L198.47,174.11L198.55,171.48L198.85,178.81L198.93,184.17L199.45,183.45L199.98,197.36L200.06,197.08L200.21,196.49L200.28,172.36L200.43,172.74L200.51,177.86L201.79,201.32L201.94,197.9L202.02,177.72L202.24,174.27L202.32,179.63L202.39,180.83L202.85,193.34L203,178.47L203.07,168.68L203.6,182.74L203.82,171.56L203.9,165.59L203.98,164.93L204.13,167.91L204.2,170.72L204.58,190.52L204.8,176.43L204.88,168.79L205.33,182.45L205.56,165.94L205.63,154.28L205.86,150.02L205.93,154.94L206.01,160.28L206.09,160.46L206.16,167.65L206.24,169.58L206.46,168.25L206.54,157.02L206.69,117.27L207.22,158.9L207.29,158.56L207.44,148.72L207.89,159.09L207.97,164.18L208.12,169.04L208.42,146.47L208.5,136.5L209.1,162.27L209.25,150.05L209.33,150.05L209.4,148.36L209.63,158.61L209.7,157.99L209.78,163.49L209.93,168.72L210.23,147.16L210.3,130.77L210.91,169.91L211.13,154.4L211.21,151.98L211.28,152.2L211.36,155.45L211.96,173.01L212.04,154.47L212.11,155.14L212.19,150.66L212.64,167.24L212.72,166.28L213.09,151.77L213.39,166.93L213.47,169.5L213.7,172.84L213.85,160.12L213.92,155.2L214,154.89L214.07,151.39L214.15,151.66L214.22,155.95L214.45,165.26L214.83,150.93L214.9,150.7L215.35,173.58L215.65,156.95L215.73,151.35L216.18,175.97L216.48,158.87L216.56,156.41L216.71,155.41L216.79,158.71L216.86,162.25L217.09,182L217.46,171.48L217.54,167.01L217.61,167.41L217.69,156.44L218.14,170.68L218.37,157.8L218.44,156.4L218.52,153.5L218.74,166.27L218.82,164.54L218.89,169.65L219.27,143.99L219.35,137.8L219.57,193.23L220.1,160.24L220.18,156.89L220.25,154.08L220.55,163.86L220.63,172.29L220.7,177.53L221.08,157.07L221.16,151.42L221.68,172.84L221.91,155.41L221.98,148.02L222.13,146.5L222.21,151.22L222.29,162.45L222.51,176.07L222.81,165.1L222.89,149.33L222.96,135.47L223.42,167.78L223.49,167.37L223.57,166.73L223.87,139.16L224.17,161.03L224.24,167.93L224.55,172.28L224.77,160.99L224.85,157.27L225,149.7L225.3,169.69L225.6,155.22L225.68,155.22L225.75,152.5L226.05,167.71L226.13,173.67L226.43,175.59L226.81,157.45L226.96,166.83L227.03,169.57L227.11,174.72L227.56,156.6L227.64,161.45L227.71,164.71L228.16,176.82L228.31,160.89L228.39,155.41L228.92,197.69L229.14,169.11L229.22,165.76L229.37,159.97L229.52,166.06L229.59,165.92L230.2,162.34L230.72,198.4L230.8,197.2L231.18,162.31L231.55,186.56L231.63,186.61L231.78,185.96L231.86,182.11L232.01,160.33L232.53,195.91L232.61,195.7L232.68,195.44L232.76,171.98L232.91,169.55L233.14,176.29L233.21,177.38L233.66,196.59L234.19,194.46L234.27,194.5L234.34,196.82L234.72,193.22L234.79,172.98L235.32,196.93L236,195.54L236.07,195.94L236.15,197.66L236.23,185.62L236.3,181.22L236.6,170.94L236.9,185.99L236.98,190.85L237.13,189.97L237.21,190.73L237.28,196.84L237.36,193.8L237.88,200.09L237.96,200.53L238.34,194.07L238.79,196.83L238.86,197.15L239.09,196.65L239.16,194.15L239.39,194.89L239.47,195.5L239.77,204.64L239.99,198.2L240.07,195.85L240.14,185.39L240.67,199.34L240.75,198.24L240.82,198.05L240.9,197.65L240.97,193.04L241.5,205.5L241.65,198.59L241.73,197.57L241.95,194.41L242.03,182.77L243.31,204L243.38,201.16L243.46,198.58L243.91,182.48L244.06,188.2L244.14,193.1L244.21,197.52L244.59,179.74L244.66,172.01L245.34,196.48L245.42,196.39L245.49,175L245.57,172.76L245.8,179.15L245.87,178.3L245.95,185.25L246.47,184.43L246.62,200.83L246.7,179.05L247,203.44L247.38,175.3L247.45,173.02L247.91,184.4L248.13,181.23L248.21,167.93L248.28,164.66L248.36,194.03L248.43,192.02L248.51,194.52L248.73,194.49L248.81,196.6L249.04,195.15L249.11,168.8L249.26,168.68L249.79,188.06L249.94,186.89L250.01,179.81L250.09,177.07L250.32,193.79L250.39,193.9L250.54,194.18L250.62,196.24L250.77,195.21L250.84,171.79L250.99,169.96L251.37,185.88L251.45,190.51L251.75,189.27L251.82,186.23L251.9,182.43L252.35,194.21L252.43,196.38L252.65,196.21L252.73,193.94L252.8,179.73L253.41,198.39L253.48,198.54L253.86,195.2L254.23,201.97L254.31,200.19L254.91,189.74L255.21,197.37L255.29,197.43L255.52,192.87L255.97,198.43L256.04,198.55L256.42,193.82L256.8,195.46L256.87,197.99L257.1,197.39L257.17,196.94L258.15,177.95L258.23,178.35L258.38,179.49L258.45,184.86L258.91,206.23L259.28,201.7L259.36,199.62L259.58,202.73L259.66,204.07L260.26,187.4L260.71,193.71L260.79,197.46L260.94,191.36L261.47,199.48L261.54,199.43L261.62,197.98L261.69,180.23L261.92,176.29L262.07,187.53L262.15,191.14L263.05,205.17L263.13,205.23L263.28,205.81L263.43,204.41L263.5,200.98L263.73,182.05L264.26,197.81L264.33,198.28L264.48,194.12L264.63,202.24L264.71,204.87L265.16,206.08L265.24,203.13L265.54,191.6L265.76,202.8L265.84,203.48L266.22,206.14L266.67,205.8L266.74,205.8L266.89,206.18L266.97,206.12L267.04,201.95L267.42,182.23L267.8,191.88L267.87,191.73L268.02,190.51L268.1,180.04L268.17,175.97L268.55,197.01L268.63,197.53L268.7,199.3L269,197.49L269.08,178.38L269.76,198.64L269.83,197.67L269.91,191.48L269.98,190.46L270.28,194.22L270.43,194.22L270.51,195.87L270.81,196.64L270.89,194.45L270.96,181.41L271.49,198.31L271.87,192.74L271.94,190.57L272.62,196.98L272.77,194.71L272.85,185.73L273.22,200.9L273.68,193.5L273.75,191.33L274.2,197.53L274.43,196.98L274.5,178.34L274.58,175.59L274.88,187.41L274.96,191.38L275.41,184.94L275.48,194.95L275.56,195.58L275.94,198.84L276.16,197.51L276.24,179.73L276.31,177.57L276.61,186.94L276.69,191.16L277.59,202.98L277.67,202.99L277.74,204.98L278.05,200.27L278.12,187.29L278.2,185.25L278.5,193.65L278.57,205.12L279.03,198.25L279.33,201.41L279.4,203.95L279.55,205.43L279.78,202.52L279.85,200.25L279.93,200L280,202.28L280.16,191.99L280.83,195.65L280.91,197.16L280.98,195.25L281.21,200.25L281.59,198.93L281.66,198.94L281.89,189.07L282.11,200.82L282.19,202.64L282.49,202.22L282.57,198.78L283.17,206.19L283.24,205.22L283.32,200.27L283.7,197.3L284,200.62L284.07,200.62L284.22,200.61L284.3,199.45L284.45,190.33L285.05,198.11L285.13,197.76L285.35,195.14L285.66,198.84L285.73,201.62L285.96,202.86L286.03,201.85L286.11,199.59L286.41,191.97L286.86,198.98L286.94,198.83L287.09,198.68L287.16,196.47L287.31,197L287.39,198.82L287.69,200.33L287.99,196.57L288.07,194.67L288.22,194.35L288.44,195.74L288.52,196.22L288.9,195.11L289.12,198.88L289.27,198.11L289.35,198.21L289.57,200.33L289.88,195.45L289.95,195.45L290.03,195.74L290.48,199.91L290.93,199.81L291.01,194.47L291.31,202.24L291.83,200.06L291.91,201.85L292.14,206.34L292.29,203.62L292.36,200.61L292.81,192.85L292.89,194.35L292.96,199.98L293.42,197.04L293.79,204.92L293.87,205.92L294.02,206.14L294.1,203.36L294.4,197.45L294.85,200.32L294.92,200.37L295.15,199.77L295.23,191.5L295.83,201.96L296.05,199.07L296.13,199.1L296.21,197.13L296.81,200.4L296.88,200.44L297.26,194.22L297.56,196.48L297.64,198.32L297.94,198.57L298.01,196.5L298.69,199.81L298.77,198.97L298.84,192.84L298.92,192.05L299.22,195.41L299.29,195.32L299.37,195.54L300.27,199.92L300.35,199.94L300.5,199.92L300.58,199.13L300.73,190.68L301.25,199.39L301.33,198.9L301.4,197.66L301.63,193.13L301.86,199.14L301.93,197.22L302.01,199.25L302.31,199.24L302.38,197.33L302.53,191.11L303.06,197.39L303.14,197.37L303.36,196.98L303.66,199.35L303.74,197.03L304.04,199.23L304.34,194.96L304.42,196.88L304.49,194.9L304.72,201.16L305.25,196.93L305.32,196.96L305.62,196.88L305.7,198.89L305.93,200.9L306,200.82L306.08,198.21L306.45,200.62L306.6,197.93L306.83,198.45L306.9,198.44L307.21,196.34L307.58,198.87L307.66,198.89L307.81,198.67L307.88,193.04L308.04,194.61L308.11,191.98L308.41,193.9L308.49,196.84L308.79,198.2L308.86,196.14L308.94,195.87L309.01,195.56L309.24,197.47L309.32,199.64L309.47,199.87L309.54,199.1L309.62,198.3L309.92,192.09L310.37,196.86L310.45,196.9L310.6,196.93L310.67,195.18L311.28,198.95L311.43,198.37L311.5,192.55L311.73,192.48L312.41,197.5L312.48,195.74L312.56,195.45L312.78,196.81L312.86,199.08L313.08,200.12L313.23,198.73L313.31,196.16L313.84,196.05L313.91,198.21L314.14,198.27L314.21,196.14L314.89,200.54L315.04,199.46L315.12,197.05L315.65,196.98L315.72,199.03L316.4,196.63L316.47,196.93L316.55,199.13L316.78,199.29L316.85,199.19L316.93,195.13L317.08,196.61L317.15,194.53L317.3,196.59L317.38,196.6L317.83,198.68L318.13,196.97L318.21,196.94L318.58,199.34L318.74,194.54L318.81,194.57L319.19,201L319.56,198.36L319.64,198.24L319.71,196.31L320.32,198.96L320.39,198.95L320.77,192.41L321.15,198L321.22,197.99L321.45,198.45L321.52,195.18L322.13,199.7L322.28,198.91L322.35,194.02L322.43,193.83L322.5,195.83L322.58,193.57L323.03,198.28L323.11,198.28L323.18,198.41L323.41,196.27L323.78,199.4L323.86,199.45L324.01,199.61L324.08,198.93L324.16,193.87L324.31,194.74L324.39,191.33L324.46,195.78L324.69,195.94L324.76,198.15L325.06,198.25L325.14,196.07L325.29,196.11L325.37,196.97L325.44,196.78L325.52,198.84L325.82,198.82L325.89,198.04L326.12,193.43L326.65,197.59L326.72,197.61L326.87,195.45L327.4,198.54L327.48,198.55L327.63,198.64L327.7,198.18L327.78,194.88L327.85,194.55L328.3,194.87L328.38,198.04L328.68,195.58L328.98,198.51L329.13,196.11L329.21,198.35L329.51,198.38L329.59,194.13L330.19,198.86L330.49,198.37L330.57,196.28L330.72,185.78L331.17,198.59L331.24,198.59L331.32,198.56L331.47,193.91L331.85,201.6L332.07,198.03L332.15,197.93L332.3,197.9L332.37,195.58L332.75,196.28L332.83,198.4L333.13,198.32L333.2,193.7L333.28,193.55L333.35,195.69L333.43,193.42L333.88,198.05L333.96,197.82L334.03,197.82L334.18,195.88L334.71,198.15L334.78,198.17L334.94,198.21L335.01,194.69L335.16,195.71L335.24,193.33L335.54,195.55L335.61,197.88L335.92,197.77L335.99,195.66L336.14,195.78L336.22,197.07L336.59,199.62L337.05,192.71L337.12,195.13L337.35,195.41L337.42,197.86L337.8,195.13L337.87,195.15L337.95,183.94L338.4,199.41L338.7,195.24L338.78,195.26L339.16,195.47L339.23,198.06L339.31,198.28L339.38,197.59L339.46,197.6L339.53,195.36L340.21,199.1L340.36,198.45L340.44,195.75L340.74,195.58L340.96,196.32L341.04,198.35L341.34,195.71L341.57,198.32L341.64,198.32L342.17,199.86L342.32,194.9L342.4,197.33L342.47,198.09L342.85,206.31L343.22,200.07L343.3,200.47L343.37,199.28L343.75,205.27L343.83,203.55L343.9,203.8L344.05,202.59L344.43,204.72L344.51,204.66L345.03,195.63L345.48,198.88L345.56,198.9L345.79,198.44L345.86,192.71L346.09,191.38L346.39,194.53L346.46,196.92L346.84,194.37L347.22,194.57L347.29,197.13L347.44,197.48L347.59,196.91L347.67,191.46L348.42,197.23L348.57,196.93L348.65,194.1L349.18,197.63L349.4,197.32L349.48,191.55L350.08,198.46L350.38,197.06L350.46,194.46L351.06,198.16L351.21,198.02L351.29,195.29L351.66,194.85L351.81,195.36L351.89,197.77L352.12,197.68L352.19,195.35L352.27,195.17L352.34,197.59L352.49,198.05L352.57,196.83L352.64,199.61L352.94,199.49L353.02,197.81L353.1,195.78L353.7,198.02L353.77,197.99L353.92,197.98L354,195.88L354.75,198.88L354.83,198.79L354.9,194.12L355.58,206.91L355.66,204L355.73,198.08L356.11,195.78L356.26,196.28L356.34,198.44L356.64,198.25L356.71,193.52L357.16,200.5L357.62,198.01L357.69,195.84L358.07,196.4L358.14,198.52L358.45,198.3L358.52,193.61L359.42,198.02L359.5,195.84L359.88,196.46L359.95,198.53L360.18,198.58L360.25,198.25L360.33,193.49L360.4,193.22L360.48,195.46L360.55,193.27L360.63,195.58L360.86,195.74L360.93,197.99L361.23,197.83L361.31,195.69L361.46,185.27L361.99,198.74L362.06,198.41L362.36,193.38L362.82,197.78L362.89,197.86L363.04,197.93L363.12,182.48L363.64,194.11L363.72,196.24L363.87,197.95L364.02,192.15L364.1,192.2L364.17,192.19L364.32,191.28L364.47,193.04L364.55,196.68L364.77,196.05L364.85,193.49L365,179.4L365.53,198.25L365.6,198.22L366.06,193.83L366.13,171.39L366.43,197.64L366.96,185.44L367.04,187.04L367.49,198.2L367.94,195.8L368.01,195.85L368.24,198.25L368.54,195.81L368.62,195.96L368.69,185.31L369.9,203.01L369.97,201.96L370.28,181.88L370.73,195.65L370.8,197.89L371.03,198.68L371.1,198.31L371.18,192.5L371.71,195.38L371.78,197.65L372.08,197.67L372.16,195.46L372.31,195.42L372.38,195.83L372.46,196.26L372.54,196.02L372.61,198.26L372.84,198.66L372.91,197.72L372.99,192.56L373.59,200.36L373.67,200.24L373.89,198.58L373.97,181.29L374.65,199.84L374.95,195.3L375.02,193.03L375.47,196.68L375.85,194.76L375.93,183.96L376.38,197.05L376.68,193.65L376.76,193.24L376.98,193.03L377.06,193.83L377.13,193.39L377.21,196.19L377.51,192.34L377.58,192.72L377.66,195.52L377.81,196.36L377.89,193.5L378.34,196.21L378.41,193.32L378.49,193.07L378.94,193.31L379.02,195.94L379.24,195.58L379.32,193.19L379.62,196.2L379.69,193.29L380.15,196.06L380.22,190.97L380.3,190.78L380.45,190.72L380.82,195.94L381.13,195.89L381.2,193.36L381.58,193.12L381.65,195.77L381.95,195.96L382.03,190.35L382.11,190.12L382.18,192.8L382.26,190.05L382.78,195.43L382.86,195.36L383.01,192.72L383.54,195.67L383.61,195.67L383.76,195.58L383.84,189.89L383.99,192.07L384.06,188.9L384.14,192.03L384.37,192.31L384.44,195.34L384.59,195L384.74,195.21L384.82,192.47L385.04,192.94L385.12,190.99L385.42,195.12L385.57,194.03L385.65,188.45L385.87,186.18L386.17,194.27L386.25,196.41L386.93,191.11L387.08,194.09L387.15,194.18L387.3,194.48L387.38,194.45L387.46,188.35L387.53,185.67L387.91,194.7L387.98,192.37L388.06,194.38L388.36,194.25L388.43,191.33L388.51,190.99L388.74,191.95L388.81,194.92L389.19,194.72L389.26,191.14L389.57,190.67L389.79,191.69L389.87,194.25L390.24,190.63L390.39,193.91L390.47,194.67L390.77,195.09L391.3,191.57L391.37,191.73L391.6,191.74L391.67,194.72L391.83,194.65L391.9,177.55L392.13,177.47L392.2,183.2L392.28,183.35L392.35,192.23L392.73,195.23L392.88,189.55L392.96,189.35L393.48,199.68L393.78,194.62L393.86,191.78L394.24,191.97L394.31,195.25L394.69,190.72L394.91,198.17L394.99,197.82L395.07,194.12L395.37,197.68L395.67,188.71L395.89,190.76L395.97,191.27L396.2,194.67L396.42,193.03L396.5,184.42L396.57,181.32L397.02,188.64L397.1,191.92L397.25,191.66L397.4,192.33L397.48,189.02L397.55,188.16L397.7,191.24L397.85,190.27L397.93,193.44L398,193.73L398.23,193.38L398.31,185.7L398.53,183.64L398.76,190L398.83,189.89L398.91,193.07L399.06,192.31L399.13,192.38L399.21,169.12L399.36,167.36L399.44,170.67L399.51,190.27L399.59,175.48L399.96,193.86L400.26,188.4L400.34,184.37L401.02,192.99L401.17,189.77L401.24,189.92L401.7,194.11L401.85,193.67L401.92,189.93L402.37,189.96L402.45,189.7L402.53,193.08L402.68,192.95L402.75,193.04L402.83,189.94L402.9,174.5L403.43,193.95L403.5,193.85L403.58,193.6L403.66,193.35L403.73,187.19L403.88,184.71L404.26,188.84L404.33,193.6L404.41,193.35L404.56,193.65L404.64,190.33L404.94,194.22L405.01,189.8L405.46,193.89L405.54,187.92L405.77,187.15L406.14,193.84L406.44,193.34L406.52,190.56L406.59,189.66L406.97,193.36L407.05,193.44L407.27,193.49L407.35,187.72L407.57,186.93L407.65,190.78L407.72,191.47L407.88,191.45L407.95,194.29L408.63,188.35L408.78,192.6L408.85,192.68L409.01,192.42L409.08,192.51L409.16,185.56L409.23,185.16L409.31,188.9L409.38,185.79L409.46,188.91L409.61,188.98L409.68,188.6L409.76,192.23L409.99,192.11L410.06,192.23L410.14,188.89L410.36,189.13L410.44,188.31L410.89,193.01L410.96,185.76L411.19,181.12L411.57,190.36L411.64,190.28L411.87,191.14L412.09,176.7L412.25,188.07L412.32,188.68L412.55,192.57L412.85,182.28L412.92,186.08L413,180.36L413.68,191.74L413.9,188.3L413.98,188.68L414.05,188.3L414.13,192.03L414.36,192.12L414.43,191.82L414.51,190.59L414.73,178.27L415.26,189.46L415.34,189.09L415.56,185.2L415.79,189.9L416.01,189.9L416.09,189.59L416.31,188.42L416.39,183.46L416.84,177.25L416.99,188.42L417.07,186.56L417.14,188.33L417.6,188.83L417.67,183.62L417.82,188.47L417.9,188.55L418.12,188.52L418.2,179.96L418.27,179.81L418.35,183.29L418.42,177.74L418.8,189.09L419.03,188.55L419.1,188.61L419.48,183.56L419.78,190.82L419.86,190.76L420.08,181.18L420.23,186.81L420.31,194.94L420.46,196.02L421.14,183.05L421.36,183.83L421.44,188.06L421.74,187.67L421.82,176.54L421.89,175.45L422.12,180.87L422.19,180.8L422.27,181.46L422.64,186.2L422.87,179.61L423.02,182.52L423.1,181.76L423.32,186.67L423.55,184.5L423.62,172.01L423.7,169.85L423.93,178.04L424.08,177.28L424.15,178.03L424.53,183.79L424.68,177.96L424.9,180.2L424.98,180.27L425.21,185.32L425.51,170.18L425.58,176.51L425.66,171.47L426.34,184.55L426.49,178.2L426.56,179.82L426.71,178.44L427.01,183.64L427.17,182.23L427.24,176.02L427.77,177.46L427.84,182.62L428.07,182.81L428.14,177.53L428.22,176.15L428.45,183.31L428.52,177.46L428.6,182.95L428.82,183.26L428.97,182.28L429.05,176.32L429.12,175.08L429.58,176.23L429.65,181.79L429.88,181.96L429.95,176.63L430.1,183.39L430.25,183.32L430.33,175.53L430.41,175.98L430.48,181.52L430.71,181.54L430.78,181.4L430.86,170.18L430.93,169.66L431.01,174.51L431.08,168.25L431.46,182.81L431.91,174.83L431.99,175.01L432.14,171.84L432.21,175.49L432.29,182.31L432.52,186.03L432.74,172.32L432.89,181.54L432.97,175.55L433.12,175.36L433.19,175.55L433.27,182.64L433.34,187.15L433.49,180.63L433.57,133.92L433.72,133.52L433.8,140.13L434.17,180.92L434.55,160.05L434.62,166.98L434.7,160.36L435.08,175.81L435.23,174.1L435.3,174.29L435.45,125.09L435.91,176.98L435.98,176.98L436.06,176.47L436.36,151.95L436.58,166.33L436.66,170.06L436.73,169.89L436.81,171.03L436.89,175.22L437.11,168.32L437.19,105.02L437.26,104.43L437.34,112.03L437.79,180.72L438.32,159.18L438.39,166.41L438.69,179.22L439,171.03L439.07,120.68L439.22,132.56L439.3,173.23L439.6,181.25L439.82,176.01L439.9,165.7L440.05,168.74L440.13,169.89L440.5,177.68L440.73,172.58L440.8,163.8L440.95,173.74L441.03,177.25L441.18,176.9L441.41,187.31L441.63,179L441.71,170.86L441.78,169.79L441.93,174.19L442.01,179.63L442.31,190.13L442.61,170.54L442.76,183.87L442.84,188.32L442.91,195.57L443.44,192.1L443.52,178.15L443.67,181.83L443.74,173.74L444.04,177.65L444.12,184.38L444.5,174.3L444.95,196.23L445.17,195.01L445.25,195.66L445.78,180.74L446.08,185.16L446.15,183.48L446.3,174.71L446.61,189.25L446.68,192.43L446.76,195.58L447.06,183L447.13,168.78L447.21,167.79L447.28,176.24L447.36,174.25L447.43,181.94L447.59,181.12L447.66,187.88L448.11,174.49L448.26,185.49L448.34,192.08L448.56,192.18L449.02,166.1L449.17,173.35L449.24,186.6L449.32,189.78L449.77,179.08L449.85,140.55L449.92,135.39L450.07,176.87L450.15,178.08L450.45,187.42L450.67,182.49L450.75,169.16L450.83,168.86L450.9,175.08L450.98,171.62L451.35,185.25L451.5,180.47L451.58,179.35L451.73,173.21L452.03,178.96L452.11,185.74L452.33,187.23L452.41,183.95L452.48,182.87L452.63,174.46L453.16,185.58L453.24,185L453.54,175.75L453.69,186.13L453.76,189.56L454.07,196.53L454.44,180.19L454.59,182.9L454.67,185.1L454.74,184.46L454.82,187.54L454.89,187.45L454.97,191.18L455.27,177.99L455.72,183.33L455.8,188.01L455.95,188.23L456.02,187.76L456.1,186.39L456.4,173.77L456.78,187.9L456.85,186.32L456.93,183L457,183.85L457.08,181.87L457.15,176.46L457.76,187.6L457.91,186.53L457.98,176.68L458.06,175.38L458.29,181.56L458.36,182.86L458.59,190.61L458.81,182.27L458.89,180.79L458.96,174.46L459.49,188.1L459.57,187.92L459.87,169.79L460.02,175.1L460.09,182.9L460.4,188.06L460.47,185.31L460.55,182.67L460.62,180.95L460.7,146.77L460.92,160.68L461,169.21L461.22,191.79L461.53,172.69L461.6,173.15L461.68,172.38L461.75,178.2L461.83,173.86L461.9,178.39L462.2,188.05L462.35,184.92L462.43,141.78L462.5,128.38L462.96,171.53L463.03,178.16L463.11,178.51L463.18,177.54L463.26,175.29L463.48,110.36L463.86,177.87L463.94,155.26L464.01,183.57L464.31,127.5L464.77,168L464.84,189.68L464.99,192.12L465.14,186.2L465.22,179.14L465.37,178.95L465.44,180.3L465.82,192.41L465.9,190.8L465.97,157.59L466.2,144.65L466.42,177.27L466.5,194.62L466.8,199.2L466.95,187.61L467.03,179.88L467.18,181.05L467.25,180.91L467.33,143.77L467.4,138.4L467.78,164.36L468.01,145.66L468.08,168.91L468.23,174.42L468.31,159.46L468.38,162.45L468.46,182.07L468.68,184.17L468.76,193.39L468.91,157.5L469.44,196.89L469.51,205.06L469.89,135.84L470.12,200.77L470.19,204.82L470.27,205.78L470.57,202.43L470.64,192.22L470.94,153.51L471.02,192.81L471.09,172.8L471.17,199.28L471.25,199.86L471.32,182.98L471.47,174.31L472.15,202.19L472.23,201.55L472.53,175.28L472.9,190.96L472.98,190.93L473.05,194.74L473.13,192.86L473.2,161.28L473.36,143.23L473.73,172.67L473.81,179.49L473.96,185.8L474.11,179.81L474.18,166.4L474.33,123.07L474.94,151.29L475.01,145.43L475.84,190.46L475.92,187.66L476.14,168.06L476.37,184.77L476.44,186.32L476.6,185.45L476.67,187.82L477.05,177.43L477.35,182.43L477.42,188.17L477.58,189.75L477.73,186.89L477.8,184.92L478.1,149.64L478.33,187.4L478.4,185.61L478.48,187.56L478.55,186.71L478.63,155.53L478.71,145.79L479.16,168.36L479.23,175.45L479.38,191.36L479.84,156.09L479.91,183.31L479.99,142.66L480.29,188.7L480.74,147.92L480.82,157.04L481.27,176.58L481.34,172.14L481.42,160L481.49,141.91L481.95,186.69L482.02,186.64L482.1,189.21L482.4,144.22L482.85,186.29L482.92,191.51L483.08,196.12L483.23,194.07L483.3,186.98L483.53,183.01L483.9,192.42L483.98,189.66L484.28,182.65L484.58,190.42L484.66,190.09L484.73,198.49L484.88,201.52L484.96,194.01L485.03,183.29L485.11,157.13L485.64,195.9L485.71,194.12L485.79,190.82L486.09,155.51L486.47,191.18L486.54,197.5L486.62,198.54L486.77,191.16L486.84,190.49L486.99,180.78L487.52,189.78L487.6,189.54L487.67,189.17L487.75,160.54L487.9,155.75L488.05,166.2L488.12,186.38L488.43,194.22L488.65,190.62L488.73,182.82L488.95,181.69L489.03,185.83L489.25,185.44L489.33,189.38L489.48,190.13L489.63,189.85L489.71,186.29L489.93,188.2L490.01,186.65L490.08,190.52L490.46,189.86L490.54,185.5L490.76,182.44L491.14,188.01L491.21,187.18L491.29,186.84L491.36,155.35L491.59,158.29L491.67,168.79L492.12,182.66L492.27,178.33L492.34,171.87L492.42,166.14L492.8,189.98L492.87,193.43L492.95,196.27L493.02,195.15L493.1,165.54L493.25,157.05L493.47,179.79L493.55,191.82L493.93,203.69L494.45,199.26L494.53,200.41L494.6,201.51L494.83,194.7L494.91,183.42L495.06,166.95L495.51,197.66L495.58,203.61L495.66,203.4L495.89,203.55L495.96,182.06L496.64,201.02L496.71,172.99L496.86,146.01L497.32,183.89L497.39,189.22L497.47,195.94L497.69,177.48L497.77,146.81L497.84,132L498.15,198.22L498.3,184.07L498.37,178.81L498.67,130.2L498.97,152.7L499.05,169.77L499.28,184.57L499.5,169.46L499.58,147.86L499.65,142.55L499.73,187.1L499.8,186.19L499.88,192.13L500.18,198.64L500.26,177.44L500.33,171.48L500.41,159.15L500.86,196.77L500.93,194.57L501.01,200.07L501.24,201.42L501.31,193.35L501.46,169.99L501.84,204.65L501.99,200.95L502.06,197.09L502.97,205.04L503.12,202.77L503.19,196.76L503.42,193.25L503.65,200.96L503.72,205.94L504.17,192.97L504.48,200.91L504.55,203.2L504.78,204.65L504.93,203.5L505,196.78L505.23,194.11L505.45,200.26L505.53,198.61L505.61,198.91L506.06,189.34L506.36,194.81L506.43,195.42L506.66,195.33L506.74,193.42L506.89,180.53L507.41,197.48L507.49,194.52L508.09,179.82L508.39,185.48L508.47,185.57L508.7,171.83L509,189.35L509.07,190.97L509.3,181.83L509.37,176.71L509.52,171.87L509.83,188.03L509.9,186.01L510.05,191.06L510.28,184.05L510.35,176.75L510.5,149.82L510.96,177.54L511.11,172.64L511.18,169.55L511.26,164.53L511.56,173.16L511.63,198.63L511.86,201.12L512.09,199.86L512.16,198.43L512.24,170.97L512.91,177.73L512.99,172.3L513.14,169.93L513.29,173.22L513.37,175.54L513.67,188.99L513.97,175.8L514.04,161.24L514.12,157.89L514.2,164.95L514.27,188.59L514.35,192.91L514.42,173.04L514.65,174.09L514.72,171.7L514.95,158.31L515.4,176.65L515.48,180.75L515.78,174.34L515.85,165.7L516.15,141.09L516.76,146.9L516.83,147.83L517.51,179.18L517.74,166.67L517.81,151.48L517.89,144.86L518.26,171.13L518.34,168.81L518.42,164.31L518.57,149.03L519.02,180.16L519.09,185.68L519.24,188L519.39,183.64L519.47,171.86L519.55,159.7L520,184.93L520.15,180.8L520.22,172.13L520.37,158.82L520.75,186.51L520.83,190.57L520.9,192.04L521.2,187.57L521.28,179.03L521.58,183.85L522.18,153.78L522.26,157.18L522.86,191.71L523.09,166.5L523.16,154.38L523.54,184.14L523.92,168.05L523.99,165.4L524.07,162.38L524.37,178.95L524.44,183.54L524.59,184.78L524.74,182.32L524.82,177.5L524.97,144.45L525.42,180.54L525.57,172.88L525.65,162.67L525.88,152.77L526.18,173.39L526.25,179.87L526.33,183.88L526.63,171.18L526.7,152.1L526.78,135.41L527.23,167.65L527.38,161.74L527.46,153.45L527.53,149.53L527.91,169.71L527.98,170.77L528.29,187.84L528.51,163.51L528.59,158.15L528.74,149.76L528.89,157.69L528.96,162.28L529.12,164.89L529.27,157.42L529.34,150.74L529.42,149.5L529.49,155.77L529.57,160.31L530.02,180.42L530.32,165.72L530.4,158.07L530.62,147.72L530.92,159.4L531.15,150.77L531.23,156.87L531.75,179.06L532.05,174.59L532.13,161.87L532.2,155L532.66,176.08L532.73,175.66L532.81,171.51L533.03,155.39L533.41,176.32L533.49,183.41L533.79,188.22L533.94,170.21L534.01,164.62L534.39,185.41L534.77,173.06L534.84,170.48L535.44,199.57L535.67,190.46L535.75,175.1L535.82,166.23L536.27,187.04L536.42,182.77L536.5,175.98L536.65,168.85L537.03,189.41L537.1,192.68L537.25,193.64L537.4,190.02L537.48,184.49L537.63,157.68L538.31,163.3L538.38,153.38L538.46,151.72L538.53,159.34L538.61,165.07L539.06,186.35L539.29,175.81L539.36,156.58L539.44,148.28L539.74,173.67L539.97,170.82L540.04,167.68L540.19,162.66L540.42,170L540.49,174.56L540.87,185.16L541.17,173.75L541.25,168.79L541.47,161.28L541.62,169.57L542.08,162.33L542.15,164.81L542.23,164.02L542.3,169.93L542.38,176.94L542.68,184.78L543.06,173.9L543.13,168.53L543.21,166.88L543.43,174.54L543.51,173.64L543.58,175.35L543.88,163.13L544.11,175.85L544.19,180.6L544.26,180.36L544.34,181.83L544.41,184.98L544.79,171.39L544.86,161.38L545.24,179.86L545.54,167.61L545.62,160.92L545.77,165.97L545.84,168.93L546.37,181.95L546.52,178.97L546.6,168.21L546.97,172.17L547.5,148.61L547.58,150.13L548.18,178.75L548.33,173.57L548.41,155.8L548.48,140.92L548.93,163.31L549.16,152.51L549.23,147.74L549.31,147.54L549.38,151.4L549.99,193.14L550.21,178.68L550.29,164.95L550.67,187.17L550.97,172.82L551.04,163.54L551.12,160.62L551.34,175.93L551.42,180.4L551.8,197.23L552.02,174.82L552.1,160.7L552.4,186.26L552.78,170.93L552.85,156.01L553.53,194.62L553.83,184.25L553.91,180.58L554.21,166.42L554.73,169.89L554.81,174.27L555.34,194.96L555.64,189.12L555.71,183.03L555.86,174.17L556.24,184.25L556.47,178.2L556.54,177.82L557.22,195.91L557.45,190.78L557.52,186.25L557.6,189.75L558.2,187.54L558.28,184.88L559.03,199.13L559.18,196.93L559.26,191.35L559.86,193.17L560.08,186.58L560.16,186.63L560.84,201.72L560.99,198L561.06,188.98L561.14,181.94L561.59,189.89L561.82,185.32L561.89,182.74L562.65,197.62L562.8,194.74L562.87,183.14L562.95,176.77L563.48,186.33L563.55,186.25L563.63,183.34L563.7,181.8L564,190.36L564.08,192.71L564.45,199.11L564.68,189.69L564.76,183.03L565.21,189.99L565.43,185.12L565.51,182.62L565.81,186.99L565.89,190.19L565.96,190.61L566.04,195.98L566.34,198.91L566.56,192.41L566.64,188.86L566.79,187.52L567.17,191.4L567.24,191.23L567.32,190.73L567.47,193.77L567.54,194.64L568.15,202.12L568.45,199.11L568.52,197.88L568.9,198.83L569.13,196.99L569.2,197.43L569.28,198.05L569.88,201.7L570.03,200.9L570.11,198.55L570.56,199.47L570.94,196.19L571.01,196.58L571.09,195.62L571.39,199.42L571.61,198.3L571.69,197.99L571.84,196.3L571.91,190.51L572.74,185.07L572.82,186.35L572.97,190.34L573.04,188.26L573.12,191.79L573.5,195.85L573.65,194.54L573.72,185.33L573.8,169.51L574.48,176.42L574.55,174.11L575.31,196.49L575.53,190.47L575.61,166.71L576.89,194.11L576.96,195.55L577.11,195.73L577.19,195.69L577.26,194.24L578.17,179.55L578.24,181.8L579,198.55L579.07,195.6L579.15,187.41L579.98,169.18L580.05,173.98L580.43,189.22L580.81,178.11L580.88,175.17L581.86,135.72L581.94,148.58L582.54,163.95L582.69,160.03L582.77,149.04L583.59,127.03L583.67,127.11L584.35,163.2L584.42,165.84L584.65,140.1L585.1,154.23L585.18,154.24L585.25,154.81L585.33,148.48L585.48,140.48L585.85,157.91L585.93,168.64L586.16,171.48L586.31,162.13L586.38,143.93L586.61,107.1L587.21,118.56L587.29,115.83L587.96,181.94L588.12,175.96L588.19,151.45L588.27,133.02L588.79,153.77L588.94,148.51L589.02,142.76L589.25,154.06L589.32,157.02L589.85,180.52L590,159.19L590.07,149.78L590.53,165.02L590.83,153.08L590.9,154.15L591.58,180.61L591.81,164.93L591.88,162.12L592.11,137.42L592.71,139.58L592.79,145.42L593.39,172.57L593.62,162.54L593.69,154.87L594.52,124.85L594.6,127.88L594.67,133.43L595.27,160.4L595.42,144.95L595.5,130.58L596.1,145.89L596.25,133.2L596.33,129.36L596.55,142.34L596.63,148.02L597.08,177.56L597.23,155.98L597.31,144.19L597.38,156.52L597.99,143.17L598.06,135.72L598.14,133.28L598.29,143.15L598.36,152.25L598.81,166.24L598.97,161.04L599.04,138.84L599.87,106.62L599.95,109.68L600.47,145.45L600.77,138.18L600.85,111.4L600.92,49.4L601.6,70.33L601.68,47.58L601.98,100.81L602.06,120.17L602.36,145.03L602.66,112.72L602.73,65.08L602.88,64.64L603.34,101.15L603.41,66.16L603.49,47.53L603.71,80.21L603.79,102.27L604.09,136.25L604.47,121.08L604.54,90.37L605.3,15.73L605.37,52.04L605.45,55.2L605.82,104.88L605.9,111.46L606.05,113.75L606.27,103.12L606.35,77.15L606.58,28.81L606.95,89.53L607.1,50.39L607.18,61.14L607.78,126.46L608.08,93.64L608.16,75.09L608.23,100.9L608.84,74.44L608.91,65.99L609.74,126.09L609.82,116.59L609.89,98.65L610.72,44.68L610.8,62.52L610.95,77.38L611.02,80.27L611.55,132.54L611.7,76.25L611.78,45.08L612.38,77.61L612.45,63.86L612.53,39.33L612.6,20.3L612.98,90.69L613.06,102.31L613.36,112.39L613.43,103.64L613.51,68.09L613.73,18.41L613.96,77.66L614.26,33.52L614.34,60.84L614.41,39.99L614.86,116.13L614.94,129.68L615.09,139.45L615.24,117.73L615.32,87.79L615.77,93.91L616.07,49.9L616.15,50.9L616.22,57.75L616.37,54.75L616.45,91.1L616.52,107.25L616.82,130.6L617.13,111.25L617.2,85.07L617.95,34.2L618.03,46.75L618.1,53.77L618.71,136.57L618.93,118.47L619.01,87.63L619.31,40.74L619.84,59.74L619.91,67.22L620.59,142.74L620.74,112.03L620.82,91.92L621.27,106.57L621.5,85.87L621.57,67.58L621.72,76.04L621.8,93.29L622.32,143.39L622.55,111.86L622.63,98.01L622.7,117.83L623.3,99.72L623.38,75.82L623.45,71.14L623.61,84.54L623.68,106.6L624.21,145.75L624.28,135.55L624.36,86.83L624.43,21.66L625.11,39.93L625.19,18.06L625.94,137.6L626.09,117.26L626.17,80.41L627,-26.59L627.07,2.16L627.67,131.46L627.98,68.34L628.05,-3.52L628.65,38.09L628.8,-7.16L628.88,4.08L629.56,133.26L629.86,92.36L629.93,45.15L630.09,22.6L630.31,64.52L630.69,30.34L630.76,35.38L631.37,135.89L631.59,117.08L631.67,82.22L631.89,17.67L632.42,59.3L632.5,68.95L633.1,156.12L633.4,135.23L633.48,119.98L633.93,143.19L634.23,126.01L634.31,129.35L634.38,128.84L634.46,134.9L634.83,166.79L635.13,162.05L635.21,146.78L635.66,148.56L636.04,130.87L636.11,133.4L636.87,183.61L636.94,176.12L637.02,148.75L637.09,118.58L637.77,128.47L637.85,125.32L637.92,122.14L638.07,139.39L638.15,147.41L638.68,180.39L638.83,148.16L638.9,126.1L639.35,138.43L639.58,126.34L639.66,119.83L639.73,117.25L639.96,125.38L640.03,134.46L640.48,155.76L640.63,120.84L640.71,96.14L641.31,133.96L641.54,120.15L641.61,123.08L642.22,170.16L642.44,154.08L642.52,142.68L643.35,119.96L643.42,126.98L644.03,165.56L644.25,152.37L644.33,142.09L644.55,114.21L645.16,119.02L645.23,121.51L645.91,168.06L646.21,150.84L646.29,141.05L646.36,141.38L646.44,146.3L646.66,144.96L646.74,147.01L646.81,139.12L646.89,134.48L647.19,154.11L647.27,158.69L647.72,178.91L647.94,172.36L648.02,164.43L648.77,151.39L648.85,151.53L648.92,150.11L649.3,183.69L649.83,166.39L649.9,152.58L649.98,155.65L650.43,146.65L650.51,144.38L650.81,149.81L650.88,160.83L651.18,164.48L651.41,158.07L651.49,139.96L651.56,128.8L651.86,147.74L652.24,138.22L652.31,134.4L652.39,129.97L652.62,148.38L652.69,159.27L653.07,177.81L653.29,159.09L653.37,146.8L653.44,156.08L654.05,148.41L654.12,145.76L654.88,195.09L655.1,179.32L655.18,170.95L656.01,149.48L656.16,152.9L656.23,161.8L656.76,185.69L656.99,171.62L657.06,164.97L657.21,151.72L657.81,162.38L657.89,165.05L658.12,177.52L658.19,198.93L658.79,159.85L659.1,163.86L659.17,163.8L659.55,153.35L659.77,157.52L659.85,160.04L660,163.86" style="fill: rgb(54, 112, 97); fill-opacity: 0.5; stroke-width: 0;"/></g></g><g class="errorbars"/><g class="lines"><path class="js-line" d="M0,174.18L0.23,181.87L0.68,168.21L0.75,167.59L1.13,172.7L1.21,168.39L1.28,162.88L1.36,162.69L1.43,166.32L1.81,175.42L1.88,178.85L2.11,180.52L2.19,177.28L2.26,165.06L2.79,169.86L3.09,157.9L3.16,155.95L3.32,162.14L3.39,165.6L3.77,171.61L3.99,164.96L4.07,155.84L4.14,144.22L4.52,159.73L4.82,150.02L4.9,144.09L5.05,142.56L5.12,144.65L5.2,149.29L5.73,170.92L5.88,146.02L5.95,133.9L6.56,152.89L6.78,144.82L6.86,148.26L7.46,179.24L7.61,171.82L7.69,155.13L7.76,145.84L8.36,162.8L8.44,157.81L8.51,152.06L9.04,169.21L9.12,172.68L9.42,167.38L9.49,160.79L9.64,145.85L9.72,128.89L10.1,135.43L10.32,111.81L10.4,112.2L10.47,131.42L10.55,132.16L10.62,141.69L11.15,176.41L11.38,161.95L11.45,157.06L11.91,157.29L12.21,133.06L12.28,152.35L12.81,178.82L13.11,163.64L13.19,159.75L13.64,173.77L13.94,168.05L14.02,168.78L14.77,189.14L14.84,186.9L14.92,176.8L15.07,177.43L15.82,144.27L15.9,150.55L15.97,162.09L16.35,181.78L16.65,173.69L16.73,156.9L16.8,123.2L17.33,162.7L17.41,160.41L17.48,160.18L17.63,150.92L18.01,168.42L18.08,174.64L18.31,179.71L18.54,159.95L18.61,152.74L19.06,170.36L19.37,160.65L19.44,161.96L20.12,181.62L20.27,177.59L20.34,167.13L20.42,158.33L20.87,173.31L21.02,172.02L21.1,170.19L21.17,166.6L21.63,175.27L21.7,179.03L22,184.84L22.23,175.43L22.3,171.34L22.45,162.34L22.83,171.99L23.06,166.67L23.13,168.74L23.28,172.83L23.36,178.47L23.74,185.04L23.96,179.32L24.04,175.29L24.34,161.65L24.94,163.58L25.02,163.62L25.62,177.95L25.69,174.06L25.77,163.17L26.37,166.66L26.52,147.54L26.6,158.56L27.05,169.7L27.13,173.25L27.28,177.37L27.58,161.93L27.65,154.42L28.11,169.16L28.41,161.46L28.48,162.42L28.63,164.34L28.71,166.31L29.09,180.32L29.39,164.52L29.46,158.98L29.84,170.58L30.14,164.5L30.22,159.14L30.29,159.32L30.37,162.64L30.52,165.1L30.59,169L30.97,178.22L31.12,173.36L31.2,158.19L31.27,117.37L31.87,165.56L31.95,163.29L32.02,159.17L32.48,170.7L32.55,174.88L32.78,177.45L32.93,173.55L33,160.92L33.08,153.2L33.68,166.43L33.76,164.52L33.83,160.94L34.28,172.28L34.36,173.96L34.59,179.56L34.89,167.96L34.96,161.54L35.42,162.81L35.72,154.06L35.79,154.08L35.87,154.12L36.24,170.66L36.62,164.12L36.7,155.78L36.92,140.83L37.52,141.57L37.6,143.36L38.05,163.04L38.35,156.73L38.43,146.33L38.5,130.84L39.11,152.93L39.18,148.74L39.26,144.1L39.71,156.38L39.79,162.2L40.09,167.42L40.16,163.85L40.24,149.73L40.31,144.08L40.84,158.12L40.92,161.73L41.07,152.8L41.52,167.42L41.59,172.39L41.9,176.39L41.97,172.62L42.05,160.07L42.12,152.03L42.72,168.3L42.8,166.28L42.87,162.54L43.33,172.34L43.4,176.06L43.7,180.96L43.85,164.01L43.93,153.16L44.53,166.83L44.68,158.8L44.76,158.27L45.51,181.85L45.59,178.19L45.66,166.05L45.74,158.03L46.19,175.17L46.27,173.42L46.34,173.4L46.49,162.94L47.02,173.87L47.09,178.28L47.25,179.58L47.4,179.02L47.47,173.38L47.77,155L48.38,158.19L48.45,159.43L48.98,175.3L49.28,167.8L49.35,164.54L49.58,150.03L50.18,154.18L50.26,157.69L50.86,186.9L50.94,194.21L51.16,168.7L51.62,175.58L51.69,175.45L51.99,170.66L52.6,188.3L52.82,182.87L52.9,171.42L52.97,166.48L53.5,180.6L53.57,178.85L53.88,165.61L54.25,176.82L54.33,181L54.48,182.98L54.63,175.86L54.7,163L54.93,136.59L55.38,163.37L55.46,161.35L55.53,157.59L55.76,158.04L55.84,161.57L56.29,173.69L56.44,168.22L56.51,154.87L56.59,122.23L57.19,164.34L57.27,162.89L57.42,156.78L57.87,172.62L57.94,175.9L58.02,177.29L58.25,169.86L58.32,155.92L58.4,141.46L58.77,161.28L59,159.36L59.08,154.88L59.3,146.07L59.68,163.02L59.75,168.51L59.9,170.48L59.98,168.25L60.05,167.92L60.28,137.01L60.81,153.3L60.88,152.09L60.96,148.86L61.26,160.06L61.34,165.83L61.79,172.65L61.94,168.28L62.01,161.88L62.16,151.71L62.54,162.46L62.77,156.68L62.84,156.68L63.52,177.45L63.67,173.77L63.75,163.52L63.82,158.44L64.35,172.99L64.43,173.32L64.65,162.71L65.1,175.52L65.18,179.25L65.4,184.97L65.48,180.38L65.56,166.96L65.63,158.05L65.71,167.33L66.31,163.42L66.38,161.55L66.46,160.34L66.69,164.66L66.76,169.85L67.14,177.39L67.29,173.69L67.36,160.76L67.44,153.02L67.82,169.49L67.97,168.28L68.04,169.94L68.27,159.64L68.64,171.56L68.72,175.52L68.87,179.97L69.1,174.97L69.17,163.3L69.25,154.1L69.85,170.77L69.93,168.16L70.23,164.2L70.45,172.9L70.53,178.93L70.83,184.12L70.98,168.06L71.06,160.67L71.43,177.14L71.81,170.91L71.88,168.97L71.96,167.74L72.19,175.02L72.26,176.82L72.41,181.99L72.79,176.2L72.86,171.97L73.17,159.03L73.69,161.36L73.77,161.44L74.37,182.47L74.67,173.78L74.75,164.58L74.82,157.98L75.28,172.23L75.43,166.22L75.5,164.74L76.1,182.03L76.33,178.37L76.41,169.32L76.48,161.18L76.93,178.59L77.08,177.3L77.16,173.59L77.23,169.8L77.69,178.4L77.76,183.16L77.84,186.07L78.21,173.91L78.29,168.13L78.82,185.7L79.04,172.82L79.12,172.65L79.19,172.12L79.34,175.93L79.42,178.73L79.72,185.02L79.95,180.42L80.02,170.44L80.1,159.21L80.4,173.61L80.78,168.64L80.85,164.66L81.08,165.88L81.15,169.34L81.53,180.41L81.83,165.47L81.91,158.02L82.51,171.89L82.66,166.29L82.74,165.01L83.26,183.54L83.56,178.86L83.64,167.1L83.72,161.32L84.17,177.02L84.24,176.37L84.32,177.06L84.54,167.29L84.92,178.65L85,180.78L85.3,186.35L85.52,177.24L85.6,174.04L85.75,168L86.13,174.68L86.35,171.56L86.43,172.54L87.03,186.67L87.33,178.73L87.41,173.68L87.56,167.26L87.93,178.44L88.16,170.65L88.24,171.12L88.84,185.16L88.99,181.43L89.06,173.26L89.14,164.06L89.67,178.09L89.74,178.04L89.82,174.7L89.97,166.86L90.42,177.64L90.5,181.45L90.72,183.68L90.8,182.82L90.87,173.86L90.95,169.42L91.4,182.19L91.48,182.37L91.93,172.13L92.08,178.26L92.15,180.56L92.53,188.68L92.68,175.49L92.76,166.44L93.21,177.92L93.51,168.26L93.59,166.09L93.74,169.22L93.81,173.09L94.11,182.63L94.41,177.75L94.49,165.77L94.64,148.11L95.17,171.47L95.24,165.51L95.32,163.48L95.62,169.35L95.7,174.44L96,182.02L96.22,177.09L96.3,164.84L96.37,156.06L96.83,177.98L96.9,176.93L96.98,176.1L97.13,166.71L97.58,177.09L97.65,177.06L97.73,180.43L97.88,182.48L98.11,174.18L98.18,171.66L98.41,160.59L99.01,161.93L99.09,164.48L99.69,178.43L99.84,177.74L99.92,173.51L100.22,161.09L100.82,163.06L100.9,163.34L101.05,167.41L101.12,170.77L101.27,173.27L101.35,176.63L101.5,174.5L101.57,176.13L101.65,170.56L101.8,154.26L102.33,173.09L102.4,173.02L102.63,160.6L103.08,172.79L103.16,174.59L103.23,176.38L103.46,171.22L103.53,158.98L103.61,153.34L103.98,174.78L104.06,175.05L104.14,176.17L104.29,171.57L104.36,165.67L104.51,161.96L104.81,169.84L104.89,174.54L105.04,178.19L105.27,172.23L105.34,161.18L105.42,149.7L105.94,175.25L106.02,174.83L106.25,161.15L106.7,174.59L106.77,179.89L107,177.41L107.07,173.3L107.22,150.83L107.75,173.62L107.83,175.54L108.13,160.39L108.51,173.58L108.58,177.36L108.88,171.74L108.96,159.97L109.03,143.69L109.64,172.03L109.71,167.89L109.86,156.97L110.39,172.06L110.46,172.11L110.69,171.73L110.77,167.93L111.07,147.27L111.37,168.38L111.52,162.95L111.59,157.54L112.42,172.7L112.5,169.7L112.57,164.95L112.73,106.63L113.33,156.7L113.4,146.82L113.48,135.65L114.01,165.08L114.08,162.96L114.31,155.84L114.38,144.28L114.46,130.05L114.99,159.75L115.06,159.78L115.29,141.75L115.74,158.39L115.81,160.96L115.89,163.28L116.12,156.03L116.19,140.4L116.27,129.1L116.79,152.24L116.87,154.54L117.17,136.51L117.55,151.8L117.62,156.49L117.92,148.8L118,124.95L118.08,5.55L118.68,149.57L118.75,142.19L118.98,128.25L119.28,144.87L119.36,143.93L119.43,149.3L119.58,149.41L119.66,146.7L119.81,115.4L119.88,-81.29L120.49,143.57L120.79,116.86L120.86,123.6L121.24,150.75L121.54,140.55L121.62,120.82L121.69,96.64L122.29,142.12L122.37,137.79L122.6,121.58L123.05,145.38L123.12,145.61L123.27,145.15L123.35,141.28L123.65,118.59L124.03,139.83L124.1,138.23L124.33,122.48L124.63,142.44L124.71,145.23L125.08,152.98L125.23,145.28L125.31,138.85L125.53,128.04L125.91,148.46L126.06,138.08L126.14,137.18L126.21,134.75L126.51,148.8L126.59,157.57L126.74,160.41L126.97,153.05L127.04,141.21L127.12,130.52L127.64,154.8L127.72,156.18L127.95,138.15L128.32,154.29L128.4,160.05L128.77,171.16L128.85,156.45L128.93,144.78L129.38,159.41L129.68,148.32L129.75,146.37L129.91,148.48L129.98,153.47L130.28,162.43L130.58,155.75L130.66,138.94L130.73,122.19L131.19,154.4L131.26,154.39L131.34,156.81L131.71,137.76L132.02,154.44L132.09,159.19L132.47,130.35L132.54,85.1L133.07,156.55L133.37,131.84L133.45,137.66L133.52,136.45L133.67,145.91L133.75,149.31L133.97,161.24L134.28,136.25L134.35,104.62L134.95,156.29L135.18,142.68L135.26,144.54L135.78,171.12L136.08,165.24L136.16,159.66L136.39,144.94L137.06,149.35L137.14,149.6L137.59,172.56L137.97,162.62L138.04,157.79L138.19,149.63L138.5,166.42L138.8,152.2L138.87,154.33L139.47,173.95L139.63,169.84L139.7,159.25L139.78,151.58L140.23,169.63L140.3,168.36L140.38,170.33L140.61,158.9L141.06,172.64L141.13,176.16L141.28,177.06L141.36,176.87L141.43,172.76L141.58,152.85L142.11,171.65L142.19,171.65L142.41,158.64L142.79,166.86L142.87,170.8L143.02,174.83L143.24,167.23L143.32,153.58L143.39,143.25L143.69,162.15L144,159.26L144.07,156.13L144.3,146.98L144.67,164.18L144.75,168.61L144.98,168.02L145.05,162.53L145.28,135.83L145.65,164.01L145.73,162.63L145.8,164.14L146.11,150.83L146.48,167.51L146.56,172.24L146.78,172.22L146.86,165.99L147.01,118.92L147.61,163.88L147.69,158.55L147.84,153.61L148.22,163.66L148.29,168.6L148.52,173.26L148.82,161.76L148.89,156.02L148.97,150.18L149.35,160.55L149.65,154.11L149.72,154.58L149.8,153.75L149.87,158.49L149.95,165.4L150.4,173.12L150.63,165.04L150.7,157.94L150.93,150.14L151.15,159.48L151.46,152.91L151.53,152.93L151.68,158.09L151.76,160.38L152.21,168.26L152.28,164.07L152.36,151.52L152.44,140.92L152.81,161.84L153.04,159.54L153.11,154.27L153.34,142.08L153.79,158.79L153.87,158.81L154.24,129.93L154.39,145.39L154.47,149.11L154.7,161.22L155,145.95L155.07,144.28L155.15,141.99L155.45,152L155.52,156.45L155.6,160.93L155.9,153.5L155.98,139.68L156.05,131.87L156.58,155.78L156.65,157.54L157.03,144.87L157.33,160.15L157.41,164.5L157.56,164.4L157.63,163.42L157.86,113.27L158.09,147.83L158.16,150.61L158.46,156.96L158.61,143.3L158.69,139.44L158.76,139.27L158.84,140.71L158.92,146.55L159.29,160.52L159.52,151.37L159.59,125.96L159.67,87.61L160.2,147.96L160.27,147.91L160.35,139.84L160.57,132L160.8,150.75L160.87,149.95L160.95,157.19L161.1,163.35L161.4,139.6L161.48,129.95L162.08,157.3L162.53,155.17L162.61,159.24L162.91,168.63L163.29,158.21L163.36,152.55L163.51,148.86L163.81,161.56L163.89,161.85L164.04,152.24L164.11,147.9L164.57,163.12L164.64,167.67L165.02,151.76L165.09,145.71L165.62,168.49L165.85,157.15L165.92,149.61L166,149.11L166.07,149.17L166.15,154.23L166.68,167.08L166.83,152.03L166.9,139.75L167.43,165.67L167.66,155.66L167.73,154.93L167.88,151.04L168.11,162.48L168.18,169.58L168.26,173.97L168.64,154.16L168.71,147.29L169.24,172.83L169.46,161.44L169.54,156.85L169.69,156.72L169.77,158.97L170.07,174.33L170.44,155.73L170.52,152.58L171.05,172.18L171.27,161.86L171.35,156.47L171.5,157.87L171.57,161.7L172.03,177.65L172.25,158.67L172.33,147.24L172.7,162.66L173.08,155.4L173.16,152.14L173.38,155.31L173.46,161.82L173.53,161.68L173.61,166.26L173.83,171.4L174.21,158.5L174.29,154.17L174.36,152.16L174.59,161.29L174.66,165.5L175.04,155.97L175.49,173.27L175.64,173.01L175.72,172.77L175.79,174.61L176.02,166.05L176.1,162.14L176.17,160.27L176.4,171.28L176.47,175.03L176.62,172.51L176.7,167.99L176.92,162.81L177.23,177.58L177.3,181.85L177.53,181.74L177.6,177.58L177.75,162.41L178.28,179.96L178.36,177.96L178.66,167.33L178.96,173.44L179.03,179.59L179.26,181.65L179.41,177.54L179.49,166.03L179.56,157.53L180.01,174.93L180.16,172.77L180.24,170.29L180.39,162.51L180.84,175.65L180.92,177.84L180.99,179.88L181.22,172.14L181.29,155.86L181.37,128.07L181.9,170.81L181.97,170.08L182.05,167.01L182.27,157.4L182.65,177.3L182.73,182.13L182.88,182.05L182.95,183.64L183.25,169.1L183.63,177.71L183.71,179.93L183.86,179.12L183.93,173.85L184.08,169.04L184.38,180.7L184.46,182.95L184.53,187.26L184.99,175.08L185.06,175.49L185.14,168.63L185.36,170.99L185.44,173.04L185.97,172.8L186.19,179.98L186.27,177.85L186.42,180.6L186.8,171.49L186.87,165.1L187.62,152.88L187.7,154.96L187.77,155.04L188.15,178.69L188.6,168.46L188.68,166.68L188.75,158.26L189.21,171.9L189.43,166.03L189.51,163.06L190.11,182.18L190.41,174.78L190.49,173.51L190.56,172.29L190.79,177.9L190.86,180.59L191.01,191.4L191.17,174.34L191.24,172.59L191.32,169.74L191.62,179.49L191.69,178.62L191.77,182.07L191.84,182.65L192.07,179.81L192.15,169.5L192.22,166.54L192.3,173.52L192.37,193.93L192.75,202.53L192.82,201.35L192.9,186.93L193.2,166.76L193.58,194.48L193.65,194.82L194.03,172.32L194.1,196.45L194.48,202.59L195.01,168.67L195.23,175.81L195.31,181.12L195.39,185.83L195.76,168.28L195.84,148.61L196.36,196.93L196.59,196.21L196.67,168.46L197.19,188.31L197.5,184.51L197.57,171.39L198.17,197.15L198.4,196.2L198.47,174.11L198.55,171.48L198.85,178.81L198.93,184.17L199.45,183.45L199.98,197.36L200.06,197.08L200.21,196.49L200.28,172.36L200.43,172.74L200.51,177.86L201.79,201.32L201.94,197.9L202.02,177.72L202.24,174.27L202.32,179.63L202.39,180.83L202.85,193.34L203,178.47L203.07,168.68L203.6,182.74L203.82,171.56L203.9,165.59L203.98,164.93L204.13,167.91L204.2,170.72L204.58,190.52L204.8,176.43L204.88,168.79L205.33,182.45L205.56,165.94L205.63,154.28L205.86,150.02L205.93,154.94L206.01,160.28L206.09,160.46L206.16,167.65L206.24,169.58L206.46,168.25L206.54,157.02L206.69,117.27L207.22,158.9L207.29,158.56L207.44,148.72L207.89,159.09L207.97,164.18L208.12,169.04L208.42,146.47L208.5,136.5L209.1,162.27L209.25,150.05L209.33,150.05L209.4,148.36L209.63,158.61L209.7,157.99L209.78,163.49L209.93,168.72L210.23,147.16L210.3,130.77L210.91,169.91L211.13,154.4L211.21,151.98L211.28,152.2L211.36,155.45L211.96,173.01L212.04,154.47L212.11,155.14L212.19,150.66L212.64,167.24L212.72,166.28L213.09,151.77L213.39,166.93L213.47,169.5L213.7,172.84L213.85,160.12L213.92,155.2L214,154.89L214.07,151.39L214.15,151.66L214.22,155.95L214.45,165.26L214.83,150.93L214.9,150.7L215.35,173.58L215.65,156.95L215.73,151.35L216.18,175.97L216.48,158.87L216.56,156.41L216.71,155.41L216.79,158.71L216.86,162.25L217.09,182L217.46,171.48L217.54,167.01L217.61,167.41L217.69,156.44L218.14,170.68L218.37,157.8L218.44,156.4L218.52,153.5L218.74,166.27L218.82,164.54L218.89,169.65L219.27,143.99L219.35,137.8L219.57,193.23L220.1,160.24L220.18,156.89L220.25,154.08L220.55,163.86L220.63,172.29L220.7,177.53L221.08,157.07L221.16,151.42L221.68,172.84L221.91,155.41L221.98,148.02L222.13,146.5L222.21,151.22L222.29,162.45L222.51,176.07L222.81,165.1L222.89,149.33L222.96,135.47L223.42,167.78L223.49,167.37L223.57,166.73L223.87,139.16L224.17,161.03L224.24,167.93L224.55,172.28L224.77,160.99L224.85,157.27L225,149.7L225.3,169.69L225.6,155.22L225.68,155.22L225.75,152.5L226.05,167.71L226.13,173.67L226.43,175.59L226.81,157.45L226.96,166.83L227.03,169.57L227.11,174.72L227.56,156.6L227.64,161.45L227.71,164.71L228.16,176.82L228.31,160.89L228.39,155.41L228.92,197.69L229.14,169.11L229.22,165.76L229.37,159.97L229.52,166.06L229.59,165.92L230.2,162.34L230.72,198.4L230.8,197.2L231.18,162.31L231.55,186.56L231.63,186.61L231.78,185.96L231.86,182.11L232.01,160.33L232.53,195.91L232.61,195.7L232.68,195.44L232.76,171.98L232.91,169.55L233.14,176.29L233.21,177.38L233.66,196.59L234.19,194.46L234.27,194.5L234.34,196.82L234.72,193.22L234.79,172.98L235.32,196.93L236,195.54L236.07,195.94L236.15,197.66L236.23,185.62L236.3,181.22L236.6,170.94L236.9,185.99L236.98,190.85L237.13,189.97L237.21,190.73L237.28,196.84L237.36,193.8L237.88,200.09L237.96,200.53L238.34,194.07L238.79,196.83L238.86,197.15L239.09,196.65L239.16,194.15L239.39,194.89L239.47,195.5L239.77,204.64L239.99,198.2L240.07,195.85L240.14,185.39L240.67,199.34L240.75,198.24L240.82,198.05L240.9,197.65L240.97,193.04L241.5,205.5L241.65,198.59L241.73,197.57L241.95,194.41L242.03,182.77L243.31,204L243.38,201.16L243.46,198.58L243.91,182.48L244.06,188.2L244.14,193.1L244.21,197.52L244.59,179.74L244.66,172.01L245.34,196.48L245.42,196.39L245.49,175L245.57,172.76L245.8,179.15L245.87,178.3L245.95,185.25L246.47,184.43L246.62,200.83L246.7,179.05L247,203.44L247.38,175.3L247.45,173.02L247.91,184.4L248.13,181.23L248.21,167.93L248.28,164.66L248.36,194.03L248.43,192.02L248.51,194.52L248.73,194.49L248.81,196.6L249.04,195.15L249.11,168.8L249.26,168.68L249.79,188.06L249.94,186.89L250.01,179.81L250.09,177.07L250.32,193.79L250.39,193.9L250.54,194.18L250.62,196.24L250.77,195.21L250.84,171.79L250.99,169.96L251.37,185.88L251.45,190.51L251.75,189.27L251.82,186.23L251.9,182.43L252.35,194.21L252.43,196.38L252.65,196.21L252.73,193.94L252.8,179.73L253.41,198.39L253.48,198.54L253.86,195.2L254.23,201.97L254.31,200.19L254.91,189.74L255.21,197.37L255.29,197.43L255.52,192.87L255.97,198.43L256.04,198.55L256.42,193.82L256.8,195.46L256.87,197.99L257.1,197.39L257.17,196.94L258.15,177.95L258.23,178.35L258.38,179.49L258.45,184.86L258.91,206.23L259.28,201.7L259.36,199.62L259.58,202.73L259.66,204.07L260.26,187.4L260.71,193.71L260.79,197.46L260.94,191.36L261.47,199.48L261.54,199.43L261.62,197.98L261.69,180.23L261.92,176.29L262.07,187.53L262.15,191.14L263.05,205.17L263.13,205.23L263.28,205.81L263.43,204.41L263.5,200.98L263.73,182.05L264.26,197.81L264.33,198.28L264.48,194.12L264.63,202.24L264.71,204.87L265.16,206.08L265.24,203.13L265.54,191.6L265.76,202.8L265.84,203.48L266.22,206.14L266.67,205.8L266.74,205.8L266.89,206.18L266.97,206.12L267.04,201.95L267.42,182.23L267.8,191.88L267.87,191.73L268.02,190.51L268.1,180.04L268.17,175.97L268.55,197.01L268.63,197.53L268.7,199.3L269,197.49L269.08,178.38L269.76,198.64L269.83,197.67L269.91,191.48L269.98,190.46L270.28,194.22L270.43,194.22L270.51,195.87L270.81,196.64L270.89,194.45L270.96,181.41L271.49,198.31L271.87,192.74L271.94,190.57L272.62,196.98L272.77,194.71L272.85,185.73L273.22,200.9L273.68,193.5L273.75,191.33L274.2,197.53L274.43,196.98L274.5,178.34L274.58,175.59L274.88,187.41L274.96,191.38L275.41,184.94L275.48,194.95L275.56,195.58L275.94,198.84L276.16,197.51L276.24,179.73L276.31,177.57L276.61,186.94L276.69,191.16L277.59,202.98L277.67,202.99L277.74,204.98L278.05,200.27L278.12,187.29L278.2,185.25L278.5,193.65L278.57,205.12L279.03,198.25L279.33,201.41L279.4,203.95L279.55,205.43L279.78,202.52L279.85,200.25L279.93,200L280,202.28L280.16,191.99L280.83,195.65L280.91,197.16L280.98,195.25L281.21,200.25L281.59,198.93L281.66,198.94L281.89,189.07L282.11,200.82L282.19,202.64L282.49,202.22L282.57,198.78L283.17,206.19L283.24,205.22L283.32,200.27L283.7,197.3L284,200.62L284.07,200.62L284.22,200.61L284.3,199.45L284.45,190.33L285.05,198.11L285.13,197.76L285.35,195.14L285.66,198.84L285.73,201.62L285.96,202.86L286.03,201.85L286.11,199.59L286.41,191.97L286.86,198.98L286.94,198.83L287.09,198.68L287.16,196.47L287.31,197L287.39,198.82L287.69,200.33L287.99,196.57L288.07,194.67L288.22,194.35L288.44,195.74L288.52,196.22L288.9,195.11L289.12,198.88L289.27,198.11L289.35,198.21L289.57,200.33L289.88,195.45L289.95,195.45L290.03,195.74L290.48,199.91L290.93,199.81L291.01,194.47L291.31,202.24L291.83,200.06L291.91,201.85L292.14,206.34L292.29,203.62L292.36,200.61L292.81,192.85L292.89,194.35L292.96,199.98L293.42,197.04L293.79,204.92L293.87,205.92L294.02,206.14L294.1,203.36L294.4,197.45L294.85,200.32L294.92,200.37L295.15,199.77L295.23,191.5L295.83,201.96L296.05,199.07L296.13,199.1L296.21,197.13L296.81,200.4L296.88,200.44L297.26,194.22L297.56,196.48L297.64,198.32L297.94,198.57L298.01,196.5L298.69,199.81L298.77,198.97L298.84,192.84L298.92,192.05L299.22,195.41L299.29,195.32L299.37,195.54L300.27,199.92L300.35,199.94L300.5,199.92L300.58,199.13L300.73,190.68L301.25,199.39L301.33,198.9L301.4,197.66L301.63,193.13L301.86,199.14L301.93,197.22L302.01,199.25L302.31,199.24L302.38,197.33L302.53,191.11L303.06,197.39L303.14,197.37L303.36,196.98L303.66,199.35L303.74,197.03L304.04,199.23L304.34,194.96L304.42,196.88L304.49,194.9L304.72,201.16L305.25,196.93L305.32,196.96L305.62,196.88L305.7,198.89L305.93,200.9L306,200.82L306.08,198.21L306.45,200.62L306.6,197.93L306.83,198.45L306.9,198.44L307.21,196.34L307.58,198.87L307.66,198.89L307.81,198.67L307.88,193.04L308.04,194.61L308.11,191.98L308.41,193.9L308.49,196.84L308.79,198.2L308.86,196.14L308.94,195.87L309.01,195.56L309.24,197.47L309.32,199.64L309.47,199.87L309.54,199.1L309.62,198.3L309.92,192.09L310.37,196.86L310.45,196.9L310.6,196.93L310.67,195.18L311.28,198.95L311.43,198.37L311.5,192.55L311.73,192.48L312.41,197.5L312.48,195.74L312.56,195.45L312.78,196.81L312.86,199.08L313.08,200.12L313.23,198.73L313.31,196.16L313.84,196.05L313.91,198.21L314.14,198.27L314.21,196.14L314.89,200.54L315.04,199.46L315.12,197.05L315.65,196.98L315.72,199.03L316.4,196.63L316.47,196.93L316.55,199.13L316.78,199.29L316.85,199.19L316.93,195.13L317.08,196.61L317.15,194.53L317.3,196.59L317.38,196.6L317.83,198.68L318.13,196.97L318.21,196.94L318.58,199.34L318.74,194.54L318.81,194.57L319.19,201L319.56,198.36L319.64,198.24L319.71,196.31L320.32,198.96L320.39,198.95L320.77,192.41L321.15,198L321.22,197.99L321.45,198.45L321.52,195.18L322.13,199.7L322.28,198.91L322.35,194.02L322.43,193.83L322.5,195.83L322.58,193.57L323.03,198.28L323.11,198.28L323.18,198.41L323.41,196.27L323.78,199.4L323.86,199.45L324.01,199.61L324.08,198.93L324.16,193.87L324.31,194.74L324.39,191.33L324.46,195.78L324.69,195.94L324.76,198.15L325.06,198.25L325.14,196.07L325.29,196.11L325.37,196.97L325.44,196.78L325.52,198.84L325.82,198.82L325.89,198.04L326.12,193.43L326.65,197.59L326.72,197.61L326.87,195.45L327.4,198.54L327.48,198.55L327.63,198.64L327.7,198.18L327.78,194.88L327.85,194.55L328.3,194.87L328.38,198.04L328.68,195.58L328.98,198.51L329.13,196.11L329.21,198.35L329.51,198.38L329.59,194.13L330.19,198.86L330.49,198.37L330.57,196.28L330.72,185.78L331.17,198.59L331.24,198.59L331.32,198.56L331.47,193.91L331.85,201.6L332.07,198.03L332.15,197.93L332.3,197.9L332.37,195.58L332.75,196.28L332.83,198.4L333.13,198.32L333.2,193.7L333.28,193.55L333.35,195.69L333.43,193.42L333.88,198.05L333.96,197.82L334.03,197.82L334.18,195.88L334.71,198.15L334.78,198.17L334.94,198.21L335.01,194.69L335.16,195.71L335.24,193.33L335.54,195.55L335.61,197.88L335.92,197.77L335.99,195.66L336.14,195.78L336.22,197.07L336.59,199.62L337.05,192.71L337.12,195.13L337.35,195.41L337.42,197.86L337.8,195.13L337.87,195.15L337.95,183.94L338.4,199.41L338.7,195.24L338.78,195.26L339.16,195.47L339.23,198.06L339.31,198.28L339.38,197.59L339.46,197.6L339.53,195.36L340.21,199.1L340.36,198.45L340.44,195.75L340.74,195.58L340.96,196.32L341.04,198.35L341.34,195.71L341.57,198.32L341.64,198.32L342.17,199.86L342.32,194.9L342.4,197.33L342.47,198.09L342.85,206.31L343.22,200.07L343.3,200.47L343.37,199.28L343.75,205.27L343.83,203.55L343.9,203.8L344.05,202.59L344.43,204.72L344.51,204.66L345.03,195.63L345.48,198.88L345.56,198.9L345.79,198.44L345.86,192.71L346.09,191.38L346.39,194.53L346.46,196.92L346.84,194.37L347.22,194.57L347.29,197.13L347.44,197.48L347.59,196.91L347.67,191.46L348.42,197.23L348.57,196.93L348.65,194.1L349.18,197.63L349.4,197.32L349.48,191.55L350.08,198.46L350.38,197.06L350.46,194.46L351.06,198.16L351.21,198.02L351.29,195.29L351.66,194.85L351.81,195.36L351.89,197.77L352.12,197.68L352.19,195.35L352.27,195.17L352.34,197.59L352.49,198.05L352.57,196.83L352.64,199.61L352.94,199.49L353.02,197.81L353.1,195.78L353.7,198.02L353.77,197.99L353.92,197.98L354,195.88L354.75,198.88L354.83,198.79L354.9,194.12L355.58,206.91L355.66,204L355.73,198.08L356.11,195.78L356.26,196.28L356.34,198.44L356.64,198.25L356.71,193.52L357.16,200.5L357.62,198.01L357.69,195.84L358.07,196.4L358.14,198.52L358.45,198.3L358.52,193.61L359.42,198.02L359.5,195.84L359.88,196.46L359.95,198.53L360.18,198.58L360.25,198.25L360.33,193.49L360.4,193.22L360.48,195.46L360.55,193.27L360.63,195.58L360.86,195.74L360.93,197.99L361.23,197.83L361.31,195.69L361.46,185.27L361.99,198.74L362.06,198.41L362.36,193.38L362.82,197.78L362.89,197.86L363.04,197.93L363.12,182.48L363.64,194.11L363.72,196.24L363.87,197.95L364.02,192.15L364.1,192.2L364.17,192.19L364.32,191.28L364.47,193.04L364.55,196.68L364.77,196.05L364.85,193.49L365,179.4L365.53,198.25L365.6,198.22L366.06,193.83L366.13,171.39L366.43,197.64L366.96,185.44L367.04,187.04L367.49,198.2L367.94,195.8L368.01,195.85L368.24,198.25L368.54,195.81L368.62,195.96L368.69,185.31L369.9,203.01L369.97,201.96L370.28,181.88L370.73,195.65L370.8,197.89L371.03,198.68L371.1,198.31L371.18,192.5L371.71,195.38L371.78,197.65L372.08,197.67L372.16,195.46L372.31,195.42L372.38,195.83L372.46,196.26L372.54,196.02L372.61,198.26L372.84,198.66L372.91,197.72L372.99,192.56L373.59,200.36L373.67,200.24L373.89,198.58L373.97,181.29L374.65,199.84L374.95,195.3L375.02,193.03L375.47,196.68L375.85,194.76L375.93,183.96L376.38,197.05L376.68,193.65L376.76,193.24L376.98,193.03L377.06,193.83L377.13,193.39L377.21,196.19L377.51,192.34L377.58,192.72L377.66,195.52L377.81,196.36L377.89,193.5L378.34,196.21L378.41,193.32L378.49,193.07L378.94,193.31L379.02,195.94L379.24,195.58L379.32,193.19L379.62,196.2L379.69,193.29L380.15,196.06L380.22,190.97L380.3,190.78L380.45,190.72L380.82,195.94L381.13,195.89L381.2,193.36L381.58,193.12L381.65,195.77L381.95,195.96L382.03,190.35L382.11,190.12L382.18,192.8L382.26,190.05L382.78,195.43L382.86,195.36L383.01,192.72L383.54,195.67L383.61,195.67L383.76,195.58L383.84,189.89L383.99,192.07L384.06,188.9L384.14,192.03L384.37,192.31L384.44,195.34L384.59,195L384.74,195.21L384.82,192.47L385.04,192.94L385.12,190.99L385.42,195.12L385.57,194.03L385.65,188.45L385.87,186.18L386.17,194.27L386.25,196.41L386.93,191.11L387.08,194.09L387.15,194.18L387.3,194.48L387.38,194.45L387.46,188.35L387.53,185.67L387.91,194.7L387.98,192.37L388.06,194.38L388.36,194.25L388.43,191.33L388.51,190.99L388.74,191.95L388.81,194.92L389.19,194.72L389.26,191.14L389.57,190.67L389.79,191.69L389.87,194.25L390.24,190.63L390.39,193.91L390.47,194.67L390.77,195.09L391.3,191.57L391.37,191.73L391.6,191.74L391.67,194.72L391.83,194.65L391.9,177.55L392.13,177.47L392.2,183.2L392.28,183.35L392.35,192.23L392.73,195.23L392.88,189.55L392.96,189.35L393.48,199.68L393.78,194.62L393.86,191.78L394.24,191.97L394.31,195.25L394.69,190.72L394.91,198.17L394.99,197.82L395.07,194.12L395.37,197.68L395.67,188.71L395.89,190.76L395.97,191.27L396.2,194.67L396.42,193.03L396.5,184.42L396.57,181.32L397.02,188.64L397.1,191.92L397.25,191.66L397.4,192.33L397.48,189.02L397.55,188.16L397.7,191.24L397.85,190.27L397.93,193.44L398,193.73L398.23,193.38L398.31,185.7L398.53,183.64L398.76,190L398.83,189.89L398.91,193.07L399.06,192.31L399.13,192.38L399.21,169.12L399.36,167.36L399.44,170.67L399.51,190.27L399.59,175.48L399.96,193.86L400.26,188.4L400.34,184.37L401.02,192.99L401.17,189.77L401.24,189.92L401.7,194.11L401.85,193.67L401.92,189.93L402.37,189.96L402.45,189.7L402.53,193.08L402.68,192.95L402.75,193.04L402.83,189.94L402.9,174.5L403.43,193.95L403.5,193.85L403.58,193.6L403.66,193.35L403.73,187.19L403.88,184.71L404.26,188.84L404.33,193.6L404.41,193.35L404.56,193.65L404.64,190.33L404.94,194.22L405.01,189.8L405.46,193.89L405.54,187.92L405.77,187.15L406.14,193.84L406.44,193.34L406.52,190.56L406.59,189.66L406.97,193.36L407.05,193.44L407.27,193.49L407.35,187.72L407.57,186.93L407.65,190.78L407.72,191.47L407.88,191.45L407.95,194.29L408.63,188.35L408.78,192.6L408.85,192.68L409.01,192.42L409.08,192.51L409.16,185.56L409.23,185.16L409.31,188.9L409.38,185.79L409.46,188.91L409.61,188.98L409.68,188.6L409.76,192.23L409.99,192.11L410.06,192.23L410.14,188.89L410.36,189.13L410.44,188.31L410.89,193.01L410.96,185.76L411.19,181.12L411.57,190.36L411.64,190.28L411.87,191.14L412.09,176.7L412.25,188.07L412.32,188.68L412.55,192.57L412.85,182.28L412.92,186.08L413,180.36L413.68,191.74L413.9,188.3L413.98,188.68L414.05,188.3L414.13,192.03L414.36,192.12L414.43,191.82L414.51,190.59L414.73,178.27L415.26,189.46L415.34,189.09L415.56,185.2L415.79,189.9L416.01,189.9L416.09,189.59L416.31,188.42L416.39,183.46L416.84,177.25L416.99,188.42L417.07,186.56L417.14,188.33L417.6,188.83L417.67,183.62L417.82,188.47L417.9,188.55L418.12,188.52L418.2,179.96L418.27,179.81L418.35,183.29L418.42,177.74L418.8,189.09L419.03,188.55L419.1,188.61L419.48,183.56L419.78,190.82L419.86,190.76L420.08,181.18L420.23,186.81L420.31,194.94L420.46,196.02L421.14,183.05L421.36,183.83L421.44,188.06L421.74,187.67L421.82,176.54L421.89,175.45L422.12,180.87L422.19,180.8L422.27,181.46L422.64,186.2L422.87,179.61L423.02,182.52L423.1,181.76L423.32,186.67L423.55,184.5L423.62,172.01L423.7,169.85L423.93,178.04L424.08,177.28L424.15,178.03L424.53,183.79L424.68,177.96L424.9,180.2L424.98,180.27L425.21,185.32L425.51,170.18L425.58,176.51L425.66,171.47L426.34,184.55L426.49,178.2L426.56,179.82L426.71,178.44L427.01,183.64L427.17,182.23L427.24,176.02L427.77,177.46L427.84,182.62L428.07,182.81L428.14,177.53L428.22,176.15L428.45,183.31L428.52,177.46L428.6,182.95L428.82,183.26L428.97,182.28L429.05,176.32L429.12,175.08L429.58,176.23L429.65,181.79L429.88,181.96L429.95,176.63L430.1,183.39L430.25,183.32L430.33,175.53L430.41,175.98L430.48,181.52L430.71,181.54L430.78,181.4L430.86,170.18L430.93,169.66L431.01,174.51L431.08,168.25L431.46,182.81L431.91,174.83L431.99,175.01L432.14,171.84L432.21,175.49L432.29,182.31L432.52,186.03L432.74,172.32L432.89,181.54L432.97,175.55L433.12,175.36L433.19,175.55L433.27,182.64L433.34,187.15L433.49,180.63L433.57,133.92L433.72,133.52L433.8,140.13L434.17,180.92L434.55,160.05L434.62,166.98L434.7,160.36L435.08,175.81L435.23,174.1L435.3,174.29L435.45,125.09L435.91,176.98L435.98,176.98L436.06,176.47L436.36,151.95L436.58,166.33L436.66,170.06L436.73,169.89L436.81,171.03L436.89,175.22L437.11,168.32L437.19,105.02L437.26,104.43L437.34,112.03L437.79,180.72L438.32,159.18L438.39,166.41L438.69,179.22L439,171.03L439.07,120.68L439.22,132.56L439.3,173.23L439.6,181.25L439.82,176.01L439.9,165.7L440.05,168.74L440.13,169.89L440.5,177.68L440.73,172.58L440.8,163.8L440.95,173.74L441.03,177.25L441.18,176.9L441.41,187.31L441.63,179L441.71,170.86L441.78,169.79L441.93,174.19L442.01,179.63L442.31,190.13L442.61,170.54L442.76,183.87L442.84,188.32L442.91,195.57L443.44,192.1L443.52,178.15L443.67,181.83L443.74,173.74L444.04,177.65L444.12,184.38L444.5,174.3L444.95,196.23L445.17,195.01L445.25,195.66L445.78,180.74L446.08,185.16L446.15,183.48L446.3,174.71L446.61,189.25L446.68,192.43L446.76,195.58L447.06,183L447.13,168.78L447.21,167.79L447.28,176.24L447.36,174.25L447.43,181.94L447.59,181.12L447.66,187.88L448.11,174.49L448.26,185.49L448.34,192.08L448.56,192.18L449.02,166.1L449.17,173.35L449.24,186.6L449.32,189.78L449.77,179.08L449.85,140.55L449.92,135.39L450.07,176.87L450.15,178.08L450.45,187.42L450.67,182.49L450.75,169.16L450.83,168.86L450.9,175.08L450.98,171.62L451.35,185.25L451.5,180.47L451.58,179.35L451.73,173.21L452.03,178.96L452.11,185.74L452.33,187.23L452.41,183.95L452.48,182.87L452.63,174.46L453.16,185.58L453.24,185L453.54,175.75L453.69,186.13L453.76,189.56L454.07,196.53L454.44,180.19L454.59,182.9L454.67,185.1L454.74,184.46L454.82,187.54L454.89,187.45L454.97,191.18L455.27,177.99L455.72,183.33L455.8,188.01L455.95,188.23L456.02,187.76L456.1,186.39L456.4,173.77L456.78,187.9L456.85,186.32L456.93,183L457,183.85L457.08,181.87L457.15,176.46L457.76,187.6L457.91,186.53L457.98,176.68L458.06,175.38L458.29,181.56L458.36,182.86L458.59,190.61L458.81,182.27L458.89,180.79L458.96,174.46L459.49,188.1L459.57,187.92L459.87,169.79L460.02,175.1L460.09,182.9L460.4,188.06L460.47,185.31L460.55,182.67L460.62,180.95L460.7,146.77L460.92,160.68L461,169.21L461.22,191.79L461.53,172.69L461.6,173.15L461.68,172.38L461.75,178.2L461.83,173.86L461.9,178.39L462.2,188.05L462.35,184.92L462.43,141.78L462.5,128.38L462.96,171.53L463.03,178.16L463.11,178.51L463.18,177.54L463.26,175.29L463.48,110.36L463.86,177.87L463.94,155.26L464.01,183.57L464.31,127.5L464.77,168L464.84,189.68L464.99,192.12L465.14,186.2L465.22,179.14L465.37,178.95L465.44,180.3L465.82,192.41L465.9,190.8L465.97,157.59L466.2,144.65L466.42,177.27L466.5,194.62L466.8,199.2L466.95,187.61L467.03,179.88L467.18,181.05L467.25,180.91L467.33,143.77L467.4,138.4L467.78,164.36L468.01,145.66L468.08,168.91L468.23,174.42L468.31,159.46L468.38,162.45L468.46,182.07L468.68,184.17L468.76,193.39L468.91,157.5L469.44,196.89L469.51,205.06L469.89,135.84L470.12,200.77L470.19,204.82L470.27,205.78L470.57,202.43L470.64,192.22L470.94,153.51L471.02,192.81L471.09,172.8L471.17,199.28L471.25,199.86L471.32,182.98L471.47,174.31L472.15,202.19L472.23,201.55L472.53,175.28L472.9,190.96L472.98,190.93L473.05,194.74L473.13,192.86L473.2,161.28L473.36,143.23L473.73,172.67L473.81,179.49L473.96,185.8L474.11,179.81L474.18,166.4L474.33,123.07L474.94,151.29L475.01,145.43L475.84,190.46L475.92,187.66L476.14,168.06L476.37,184.77L476.44,186.32L476.6,185.45L476.67,187.82L477.05,177.43L477.35,182.43L477.42,188.17L477.58,189.75L477.73,186.89L477.8,184.92L478.1,149.64L478.33,187.4L478.4,185.61L478.48,187.56L478.55,186.71L478.63,155.53L478.71,145.79L479.16,168.36L479.23,175.45L479.38,191.36L479.84,156.09L479.91,183.31L479.99,142.66L480.29,188.7L480.74,147.92L480.82,157.04L481.27,176.58L481.34,172.14L481.42,160L481.49,141.91L481.95,186.69L482.02,186.64L482.1,189.21L482.4,144.22L482.85,186.29L482.92,191.51L483.08,196.12L483.23,194.07L483.3,186.98L483.53,183.01L483.9,192.42L483.98,189.66L484.28,182.65L484.58,190.42L484.66,190.09L484.73,198.49L484.88,201.52L484.96,194.01L485.03,183.29L485.11,157.13L485.64,195.9L485.71,194.12L485.79,190.82L486.09,155.51L486.47,191.18L486.54,197.5L486.62,198.54L486.77,191.16L486.84,190.49L486.99,180.78L487.52,189.78L487.6,189.54L487.67,189.17L487.75,160.54L487.9,155.75L488.05,166.2L488.12,186.38L488.43,194.22L488.65,190.62L488.73,182.82L488.95,181.69L489.03,185.83L489.25,185.44L489.33,189.38L489.48,190.13L489.63,189.85L489.71,186.29L489.93,188.2L490.01,186.65L490.08,190.52L490.46,189.86L490.54,185.5L490.76,182.44L491.14,188.01L491.21,187.18L491.29,186.84L491.36,155.35L491.59,158.29L491.67,168.79L492.12,182.66L492.27,178.33L492.34,171.87L492.42,166.14L492.8,189.98L492.87,193.43L492.95,196.27L493.02,195.15L493.1,165.54L493.25,157.05L493.47,179.79L493.55,191.82L493.93,203.69L494.45,199.26L494.53,200.41L494.6,201.51L494.83,194.7L494.91,183.42L495.06,166.95L495.51,197.66L495.58,203.61L495.66,203.4L495.89,203.55L495.96,182.06L496.64,201.02L496.71,172.99L496.86,146.01L497.32,183.89L497.39,189.22L497.47,195.94L497.69,177.48L497.77,146.81L497.84,132L498.15,198.22L498.3,184.07L498.37,178.81L498.67,130.2L498.97,152.7L499.05,169.77L499.28,184.57L499.5,169.46L499.58,147.86L499.65,142.55L499.73,187.1L499.8,186.19L499.88,192.13L500.18,198.64L500.26,177.44L500.33,171.48L500.41,159.15L500.86,196.77L500.93,194.57L501.01,200.07L501.24,201.42L501.31,193.35L501.46,169.99L501.84,204.65L501.99,200.95L502.06,197.09L502.97,205.04L503.12,202.77L503.19,196.76L503.42,193.25L503.65,200.96L503.72,205.94L504.17,192.97L504.48,200.91L504.55,203.2L504.78,204.65L504.93,203.5L505,196.78L505.23,194.11L505.45,200.26L505.53,198.61L505.61,198.91L506.06,189.34L506.36,194.81L506.43,195.42L506.66,195.33L506.74,193.42L506.89,180.53L507.41,197.48L507.49,194.52L508.09,179.82L508.39,185.48L508.47,185.57L508.7,171.83L509,189.35L509.07,190.97L509.3,181.83L509.37,176.71L509.52,171.87L509.83,188.03L509.9,186.01L510.05,191.06L510.28,184.05L510.35,176.75L510.5,149.82L510.96,177.54L511.11,172.64L511.18,169.55L511.26,164.53L511.56,173.16L511.63,198.63L511.86,201.12L512.09,199.86L512.16,198.43L512.24,170.97L512.91,177.73L512.99,172.3L513.14,169.93L513.29,173.22L513.37,175.54L513.67,188.99L513.97,175.8L514.04,161.24L514.12,157.89L514.2,164.95L514.27,188.59L514.35,192.91L514.42,173.04L514.65,174.09L514.72,171.7L514.95,158.31L515.4,176.65L515.48,180.75L515.78,174.34L515.85,165.7L516.15,141.09L516.76,146.9L516.83,147.83L517.51,179.18L517.74,166.67L517.81,151.48L517.89,144.86L518.26,171.13L518.34,168.81L518.42,164.31L518.57,149.03L519.02,180.16L519.09,185.68L519.24,188L519.39,183.64L519.47,171.86L519.55,159.7L520,184.93L520.15,180.8L520.22,172.13L520.37,158.82L520.75,186.51L520.83,190.57L520.9,192.04L521.2,187.57L521.28,179.03L521.58,183.85L522.18,153.78L522.26,157.18L522.86,191.71L523.09,166.5L523.16,154.38L523.54,184.14L523.92,168.05L523.99,165.4L524.07,162.38L524.37,178.95L524.44,183.54L524.59,184.78L524.74,182.32L524.82,177.5L524.97,144.45L525.42,180.54L525.57,172.88L525.65,162.67L525.88,152.77L526.18,173.39L526.25,179.87L526.33,183.88L526.63,171.18L526.7,152.1L526.78,135.41L527.23,167.65L527.38,161.74L527.46,153.45L527.53,149.53L527.91,169.71L527.98,170.77L528.29,187.84L528.51,163.51L528.59,158.15L528.74,149.76L528.89,157.69L528.96,162.28L529.12,164.89L529.27,157.42L529.34,150.74L529.42,149.5L529.49,155.77L529.57,160.31L530.02,180.42L530.32,165.72L530.4,158.07L530.62,147.72L530.92,159.4L531.15,150.77L531.23,156.87L531.75,179.06L532.05,174.59L532.13,161.87L532.2,155L532.66,176.08L532.73,175.66L532.81,171.51L533.03,155.39L533.41,176.32L533.49,183.41L533.79,188.22L533.94,170.21L534.01,164.62L534.39,185.41L534.77,173.06L534.84,170.48L535.44,199.57L535.67,190.46L535.75,175.1L535.82,166.23L536.27,187.04L536.42,182.77L536.5,175.98L536.65,168.85L537.03,189.41L537.1,192.68L537.25,193.64L537.4,190.02L537.48,184.49L537.63,157.68L538.31,163.3L538.38,153.38L538.46,151.72L538.53,159.34L538.61,165.07L539.06,186.35L539.29,175.81L539.36,156.58L539.44,148.28L539.74,173.67L539.97,170.82L540.04,167.68L540.19,162.66L540.42,170L540.49,174.56L540.87,185.16L541.17,173.75L541.25,168.79L541.47,161.28L541.62,169.57L542.08,162.33L542.15,164.81L542.23,164.02L542.3,169.93L542.38,176.94L542.68,184.78L543.06,173.9L543.13,168.53L543.21,166.88L543.43,174.54L543.51,173.64L543.58,175.35L543.88,163.13L544.11,175.85L544.19,180.6L544.26,180.36L544.34,181.83L544.41,184.98L544.79,171.39L544.86,161.38L545.24,179.86L545.54,167.61L545.62,160.92L545.77,165.97L545.84,168.93L546.37,181.95L546.52,178.97L546.6,168.21L546.97,172.17L547.5,148.61L547.58,150.13L548.18,178.75L548.33,173.57L548.41,155.8L548.48,140.92L548.93,163.31L549.16,152.51L549.23,147.74L549.31,147.54L549.38,151.4L549.99,193.14L550.21,178.68L550.29,164.95L550.67,187.17L550.97,172.82L551.04,163.54L551.12,160.62L551.34,175.93L551.42,180.4L551.8,197.23L552.02,174.82L552.1,160.7L552.4,186.26L552.78,170.93L552.85,156.01L553.53,194.62L553.83,184.25L553.91,180.58L554.21,166.42L554.73,169.89L554.81,174.27L555.34,194.96L555.64,189.12L555.71,183.03L555.86,174.17L556.24,184.25L556.47,178.2L556.54,177.82L557.22,195.91L557.45,190.78L557.52,186.25L557.6,189.75L558.2,187.54L558.28,184.88L559.03,199.13L559.18,196.93L559.26,191.35L559.86,193.17L560.08,186.58L560.16,186.63L560.84,201.72L560.99,198L561.06,188.98L561.14,181.94L561.59,189.89L561.82,185.32L561.89,182.74L562.65,197.62L562.8,194.74L562.87,183.14L562.95,176.77L563.48,186.33L563.55,186.25L563.63,183.34L563.7,181.8L564,190.36L564.08,192.71L564.45,199.11L564.68,189.69L564.76,183.03L565.21,189.99L565.43,185.12L565.51,182.62L565.81,186.99L565.89,190.19L565.96,190.61L566.04,195.98L566.34,198.91L566.56,192.41L566.64,188.86L566.79,187.52L567.17,191.4L567.24,191.23L567.32,190.73L567.47,193.77L567.54,194.64L568.15,202.12L568.45,199.11L568.52,197.88L568.9,198.83L569.13,196.99L569.2,197.43L569.28,198.05L569.88,201.7L570.03,200.9L570.11,198.55L570.56,199.47L570.94,196.19L571.01,196.58L571.09,195.62L571.39,199.42L571.61,198.3L571.69,197.99L571.84,196.3L571.91,190.51L572.74,185.07L572.82,186.35L572.97,190.34L573.04,188.26L573.12,191.79L573.5,195.85L573.65,194.54L573.72,185.33L573.8,169.51L574.48,176.42L574.55,174.11L575.31,196.49L575.53,190.47L575.61,166.71L576.89,194.11L576.96,195.55L577.11,195.73L577.19,195.69L577.26,194.24L578.17,179.55L578.24,181.8L579,198.55L579.07,195.6L579.15,187.41L579.98,169.18L580.05,173.98L580.43,189.22L580.81,178.11L580.88,175.17L581.86,135.72L581.94,148.58L582.54,163.95L582.69,160.03L582.77,149.04L583.59,127.03L583.67,127.11L584.35,163.2L584.42,165.84L584.65,140.1L585.1,154.23L585.18,154.24L585.25,154.81L585.33,148.48L585.48,140.48L585.85,157.91L585.93,168.64L586.16,171.48L586.31,162.13L586.38,143.93L586.61,107.1L587.21,118.56L587.29,115.83L587.96,181.94L588.12,175.96L588.19,151.45L588.27,133.02L588.79,153.77L588.94,148.51L589.02,142.76L589.25,154.06L589.32,157.02L589.85,180.52L590,159.19L590.07,149.78L590.53,165.02L590.83,153.08L590.9,154.15L591.58,180.61L591.81,164.93L591.88,162.12L592.11,137.42L592.71,139.58L592.79,145.42L593.39,172.57L593.62,162.54L593.69,154.87L594.52,124.85L594.6,127.88L594.67,133.43L595.27,160.4L595.42,144.95L595.5,130.58L596.1,145.89L596.25,133.2L596.33,129.36L596.55,142.34L596.63,148.02L597.08,177.56L597.23,155.98L597.31,144.19L597.38,156.52L597.99,143.17L598.06,135.72L598.14,133.28L598.29,143.15L598.36,152.25L598.81,166.24L598.97,161.04L599.04,138.84L599.87,106.62L599.95,109.68L600.47,145.45L600.77,138.18L600.85,111.4L600.92,49.4L601.6,70.33L601.68,47.58L601.98,100.81L602.06,120.17L602.36,145.03L602.66,112.72L602.73,65.08L602.88,64.64L603.34,101.15L603.41,66.16L603.49,47.53L603.71,80.21L603.79,102.27L604.09,136.25L604.47,121.08L604.54,90.37L605.3,15.73L605.37,52.04L605.45,55.2L605.82,104.88L605.9,111.46L606.05,113.75L606.27,103.12L606.35,77.15L606.58,28.81L606.95,89.53L607.1,50.39L607.18,61.14L607.78,126.46L608.08,93.64L608.16,75.09L608.23,100.9L608.84,74.44L608.91,65.99L609.74,126.09L609.82,116.59L609.89,98.65L610.72,44.68L610.8,62.52L610.95,77.38L611.02,80.27L611.55,132.54L611.7,76.25L611.78,45.08L612.38,77.61L612.45,63.86L612.53,39.33L612.6,20.3L612.98,90.69L613.06,102.31L613.36,112.39L613.43,103.64L613.51,68.09L613.73,18.41L613.96,77.66L614.26,33.52L614.34,60.84L614.41,39.99L614.86,116.13L614.94,129.68L615.09,139.45L615.24,117.73L615.32,87.79L615.77,93.91L616.07,49.9L616.15,50.9L616.22,57.75L616.37,54.75L616.45,91.1L616.52,107.25L616.82,130.6L617.13,111.25L617.2,85.07L617.95,34.2L618.03,46.75L618.1,53.77L618.71,136.57L618.93,118.47L619.01,87.63L619.31,40.74L619.84,59.74L619.91,67.22L620.59,142.74L620.74,112.03L620.82,91.92L621.27,106.57L621.5,85.87L621.57,67.58L621.72,76.04L621.8,93.29L622.32,143.39L622.55,111.86L622.63,98.01L622.7,117.83L623.3,99.72L623.38,75.82L623.45,71.14L623.61,84.54L623.68,106.6L624.21,145.75L624.28,135.55L624.36,86.83L624.43,21.66L625.11,39.93L625.19,18.06L625.94,137.6L626.09,117.26L626.17,80.41L627,-26.59L627.07,2.16L627.67,131.46L627.98,68.34L628.05,-3.52L628.65,38.09L628.8,-7.16L628.88,4.08L629.56,133.26L629.86,92.36L629.93,45.15L630.09,22.6L630.31,64.52L630.69,30.34L630.76,35.38L631.37,135.89L631.59,117.08L631.67,82.22L631.89,17.67L632.42,59.3L632.5,68.95L633.1,156.12L633.4,135.23L633.48,119.98L633.93,143.19L634.23,126.01L634.31,129.35L634.38,128.84L634.46,134.9L634.83,166.79L635.13,162.05L635.21,146.78L635.66,148.56L636.04,130.87L636.11,133.4L636.87,183.61L636.94,176.12L637.02,148.75L637.09,118.58L637.77,128.47L637.85,125.32L637.92,122.14L638.07,139.39L638.15,147.41L638.68,180.39L638.83,148.16L638.9,126.1L639.35,138.43L639.58,126.34L639.66,119.83L639.73,117.25L639.96,125.38L640.03,134.46L640.48,155.76L640.63,120.84L640.71,96.14L641.31,133.96L641.54,120.15L641.61,123.08L642.22,170.16L642.44,154.08L642.52,142.68L643.35,119.96L643.42,126.98L644.03,165.56L644.25,152.37L644.33,142.09L644.55,114.21L645.16,119.02L645.23,121.51L645.91,168.06L646.21,150.84L646.29,141.05L646.36,141.38L646.44,146.3L646.66,144.96L646.74,147.01L646.81,139.12L646.89,134.48L647.19,154.11L647.27,158.69L647.72,178.91L647.94,172.36L648.02,164.43L648.77,151.39L648.85,151.53L648.92,150.11L649.3,183.69L649.83,166.39L649.9,152.58L649.98,155.65L650.43,146.65L650.51,144.38L650.81,149.81L650.88,160.83L651.18,164.48L651.41,158.07L651.49,139.96L651.56,128.8L651.86,147.74L652.24,138.22L652.31,134.4L652.39,129.97L652.62,148.38L652.69,159.27L653.07,177.81L653.29,159.09L653.37,146.8L653.44,156.08L654.05,148.41L654.12,145.76L654.88,195.09L655.1,179.32L655.18,170.95L656.01,149.48L656.16,152.9L656.23,161.8L656.76,185.69L656.99,171.62L657.06,164.97L657.21,151.72L657.81,162.38L657.89,165.05L658.12,177.52L658.19,198.93L658.79,159.85L659.1,163.86L659.17,163.8L659.55,153.35L659.77,157.52L659.85,160.04L660,163.86" style="vector-effect: none; fill: none; stroke: rgb(54, 112, 97); stroke-opacity: 1; stroke-width: 0px; opacity: 1;"/></g><g class="points"/><g class="text"/></g></g></g><g class="overplot"/><path class="xlines-above crisp" d="M19,230.5H681M19,19.5H681" style="fill: none; stroke-width: 1px; stroke: rgb(68, 68, 68); stroke-opacity: 1;"/><path class="ylines-above crisp" d="M19.5,20V230M680.5,20V230" style="fill: none; stroke-width: 1px; stroke: rgb(68, 68, 68); stroke-opacity: 1;"/><g class="overlines-above"/><g class="xaxislayer-above"><path class="xtick ticks crisp" d="M0,231v5" transform="translate(20,0)" style="stroke: rgb(68, 68, 68); stroke-opacity: 1; stroke-width: 1px;"/><path class="xtick ticks crisp" d="M0,231v5" transform="translate(126.7,0)" style="stroke: rgb(68, 68, 68); stroke-opacity: 1; stroke-width: 1px;"/><path class="xtick ticks crisp" d="M0,231v5" transform="translate(237.01,0)" style="stroke: rgb(68, 68, 68); stroke-opacity: 1; stroke-width: 1px;"/><path class="xtick ticks crisp" d="M0,231v5" transform="translate(347.33,0)" style="stroke: rgb(68, 68, 68); stroke-opacity: 1; stroke-width: 1px;"/><path class="xtick ticks crisp" d="M0,231v5" transform="translate(459.45,0)" style="stroke: rgb(68, 68, 68); stroke-opacity: 1; stroke-width: 1px;"/><path class="xtick ticks crisp" d="M0,231v5" transform="translate(569.76,0)" style="stroke: rgb(68, 68, 68); stroke-opacity: 1; stroke-width: 1px;"/><g class="xtick"><text text-anchor="middle" x="0" y="255.2" transform="translate(20,0)" style="font-family: 'Open Sans', verdana, arial, sans-serif; font-size: 16px; fill: rgb(68, 68, 68); fill-opacity: 1; white-space: pre; opacity: 0;">01.01</text></g><g class="xtick"><text text-anchor="middle" x="0" y="255.2" style="font-family: 'Open Sans', verdana, arial, sans-serif; font-size: 16px; fill: rgb(68, 68, 68); fill-opacity: 1; white-space: pre; opacity: 1;" transform="translate(126.7,0)">01.03</text></g><g class="xtick"><text text-anchor="middle" x="0" y="255.2" style="font-family: 'Open Sans', verdana, arial, sans-serif; font-size: 16px; fill: rgb(68, 68, 68); fill-opacity: 1; white-space: pre; opacity: 1;" transform="translate(237.01,0)">01.05</text></g><g class="xtick"><text text-anchor="middle" x="0" y="255.2" style="font-family: 'Open Sans', verdana, arial, sans-serif; font-size: 16px; fill: rgb(68, 68, 68); fill-opacity: 1; white-space: pre; opacity: 1;" transform="translate(347.33,0)">01.07</text></g><g class="xtick"><text text-anchor="middle" x="0" y="255.2" style="font-family: 'Open Sans', verdana, arial, sans-serif; font-size: 16px; fill: rgb(68, 68, 68); fill-opacity: 1; white-space: pre; opacity: 1;" transform="translate(459.45,0)">01.09</text></g><g class="xtick"><text text-anchor="middle" x="0" y="255.2" style="font-family: 'Open Sans', verdana, arial, sans-serif; font-size: 16px; fill: rgb(68, 68, 68); fill-opacity: 1; white-space: pre; opacity: 1;" transform="translate(569.76,0)">01.11</text></g></g><g class="yaxislayer-above"><path class="ytick ticks crisp" d="M19,0h-5" transform="translate(0,230)" style="stroke: rgb(68, 68, 68); stroke-opacity: 1; stroke-width: 1px;"/><path class="ytick ticks crisp" d="M19,0h-5" transform="translate(0,188)" style="stroke: rgb(68, 68, 68); stroke-opacity: 1; stroke-width: 1px;"/><path class="ytick ticks crisp" d="M19,0h-5" transform="translate(0,146)" style="stroke: rgb(68, 68, 68); stroke-opacity: 1; stroke-width: 1px;"/><path class="ytick ticks crisp" d="M19,0h-5" transform="translate(0,104)" style="stroke: rgb(68, 68, 68); stroke-opacity: 1; stroke-width: 1px;"/><path class="ytick ticks crisp" d="M19,0h-5" transform="translate(0,62)" style="stroke: rgb(68, 68, 68); stroke-opacity: 1; stroke-width: 1px;"/><path class="ytick ticks crisp" d="M19,0h-5" transform="translate(0,20)" style="stroke: rgb(68, 68, 68); stroke-opacity: 1; stroke-width: 1px;"/><g class="ytick"><text text-anchor="end" x="10.8" y="5.6" transform="translate(0,230)" style="font-family: 'Open Sans', verdana, arial, sans-serif; font-size: 16px; fill: rgb(68, 68, 68); fill-opacity: 1; white-space: pre; opacity: 1;">0</text></g><g class="ytick"><text text-anchor="end" x="10.8" y="5.6" style="font-family: 'Open Sans', verdana, arial, sans-serif; font-size: 16px; fill: rgb(68, 68, 68); fill-opacity: 1; white-space: pre; opacity: 1;" transform="translate(0,188)">10</text></g><g class="ytick"><text text-anchor="end" x="10.8" y="5.6" style="font-family: 'Open Sans', verdana, arial, sans-serif; font-size: 16px; fill: rgb(68, 68, 68); fill-opacity: 1; white-space: pre; opacity: 1;" transform="translate(0,146)">20</text></g><g class="ytick"><text text-anchor="end" x="10.8" y="5.6" style="font-family: 'Open Sans', verdana, arial, sans-serif; font-size: 16px; fill: rgb(68, 68, 68); fill-opacity: 1; white-space: pre; opacity: 1;" transform="translate(0,104)">30</text></g><g class="ytick"><text text-anchor="end" x="10.8" y="5.6" style="font-family: 'Open Sans', verdana, arial, sans-serif; font-size: 16px; fill: rgb(68, 68, 68); fill-opacity: 1; white-space: pre; opacity: 1;" transform="translate(0,62)">40</text></g><g class="ytick"><text text-anchor="end" x="10.8" y="5.6" style="font-family: 'Open Sans', verdana, arial, sans-serif; font-size: 16px; fill: rgb(68, 68, 68); fill-opacity: 1; white-space: pre; opacity: 1;" transform="translate(0,20)">50</text></g></g><g class="overaxes-above"/></g></g><g class="polarlayer"/><g class="smithlayer"/><g class="ternarylayer"/><g class="geolayer"/><g class="funnelarealayer"/><g class="pielayer"/><g class="iciclelayer"/><g class="treemaplayer"/><g class="sunburstlayer"/><g class="glimages"/><defs id="topdefs-165bf8"><g class="clips"/><clipPath id="legend165bf8"><rect width="210" height="55" x="0" y="0"/></clipPath></defs><g class="layer-above"><g class="imagelayer"/><g class="shapelayer"/></g><g class="infolayer"><g class="legend" pointer-events="all" transform="translate(26.6,24.200000000000003)"><rect class="bg" shape-rendering="crispEdges" width="210" height="55" x="0" y="0" style="stroke: rgb(68, 68, 68); stroke-opacity: 1; fill: rgb(0, 0, 0); fill-opacity: 0; stroke-width: 0px;"/><g class="scrollbox" transform="" clip-path="url(#legend165bf8)"><g class="groups"><g class="traces" transform="translate(0,27.3)" style="opacity: 1;"><text class="legendtext" text-anchor="start" x="40" y="-4.16" style="font-family: 'Open Sans', verdana, arial, sans-serif; font-size: 16px; fill: rgb(68, 68, 68); fill-opacity: 1; white-space: pre;"><tspan class="line" dy="0em" x="40" y="-4.16">Strm:</tspan><tspan class="line" dy="1.3em" x="40" y="-4.16">79 807 kr/r | 69 kr</tspan></text><g class="layers"><g class="legendfill"><path class="js-fill" d="M5,-2h30v6h-30z" style="stroke-width: 0; fill: rgb(54, 112, 97); fill-opacity: 0.5;"/></g><g class="legendlines"><path class="js-line" d="M5,-2h30" style="fill: none; stroke: rgb(54, 112, 97); stroke-opacity: 1; stroke-width: 0px;"/></g><g class="legendsymbols"><g class="legendpoints"/></g></g><rect class="legendtoggle" x="0" y="-22.3" width="206.5625" height="44.6" style="fill: rgb(0, 0, 0); fill-opacity: 0;"/></g></g></g><rect class="scrollbar" rx="20" ry="3" width="0" height="0" x="0" y="0" style="fill: rgb(128, 139, 164); fill-opacity: 1;"/></g><g class="g-gtitle"/><g class="g-xtitle"/><g class="g-ytitle" transform="translate(32,0)"><text class="ytitle" transform="rotate(-90,-18,125)" x="-18" y="125" text-anchor="middle" style="font-family: 'Open Sans', verdana, arial, sans-serif; font-size: 14px; fill: rgb(68, 68, 68); opacity: 1; font-weight: normal; white-space: pre;">Kostnad (kr)</text></g></g></svg>