<svg class="main-svg" xmlns="http://www.w3.org/2000/svg" xmlns:xlink="http://www.w3.org/1999/xlink" width="700" height="250" style="" viewBox="0 0 700 250"><rect x="0" y="0" width="700" height="250" style="fill: rgb(255, 255, 255); fill-opacity: 1;"/><defs id="defs-c992fc"><g class="clips"><clipPath id="clipc992fcxyplot" class="plotclip"><rect width="660" height="210"/></clipPath><clipPath class="axesclip" id="clipc992fcx"><rect x="20" y="0" width="660" height="250"/></clipPath><clipPath class="axesclip" id="clipc992fcy"><rect x="0" y="20" width="700" height="210"/></clipPath><clipPath class="axesclip" id="clipc992fcxy"><rect x="20" y="20" width="660" height="210"/></clipPath></g><g class="gradients"/><g class="patterns"/></defs><g class="bglayer"/><g class="layer-below"><g class="imagelayer"/><g class="shapelayer"/></g><g class="cartesianlayer"><g class="subplot xy"><g class="layer-subplot"><g class="shapelayer"/><g class="imagelayer"/></g><g class="minor-gridlayer"><g class="x"/><g class="y"/></g><g class="gridlayer"><g class="x"><path class="xgrid crisp" transform="translate(126.7,0)" d="M0,20v210" style="stroke: rgb(238, 238, 238); stroke-opacity: 1; stroke-width: 0.1px;"/><path class="xgrid crisp" transform="translate(237.01,0)" d="M0,20v210" style="stroke: rgb(238, 238, 238); stroke-opacity: 1; stroke-width: 0.1px;"/><path class="xgrid crisp" transform="translate(347.33,0)" d="M0,20v210" style="stroke: rgb(238, 238, 238); stroke-opacity: 1; stroke-width: 0.1px;"/><path class="xgrid crisp" transform="translate(459.45,0)" d="M0,20v210" style="stroke: rgb(238, 238, 238); stroke-opacity: 1; stroke-width: 0.1px;"/><path class="xgrid crisp" transform="translate(569.76,0)" d="M0,20v210" style="stroke: rgb(238, 238, 238); stroke-opacity: 1; stroke-width: 0.1px;"/></g><g class="y"><path class="ygrid crisp" transform="translate(0,188)" d="M20,0h660" style="stroke: rgb(238, 238, 238); stroke-opacity: 1; stroke-width: 0.1px;"/><path class="ygrid crisp" transform="translate(0,146)" d="M20,0h660" style="stroke: rgb(238, 238, 238); stroke-opacity: 1; stroke-width: 0.1px;"/><path class="ygrid crisp" transform="translate(0,104)" d="M20,0h660" style="stroke: rgb(238, 238, 238); stroke-opacity: 1; stroke-width: 0.1px;"/><path class="ygrid crisp" transform="translate(0,62)" d="M20,0h660" style="stroke: rgb(238, 238, 238); stroke-opacity: 1; stroke-width: 0.1px;"/></g></g><g class="zerolinelayer"><path class="yzl zl crisp" transform="translate(0,230)" d="M20,0h660" style="stroke: rgb(68, 68, 68); stroke-opacity: 1; stroke-width: 1px;"/></g><g class="layer-between"><g class="shapelayer"/><g class="imagelayer"/></g><path class="xlines-below"/><path class="ylines-below"/><g class="overlines-below"/><g class="xaxislayer-below"/><g class="yaxislayer-below"/><g class="overaxes-below"/><g class="plot" transform="translate(20,20)" clip-path="url(#clipc992fcxyplot)"><g class="scatterlayer mlayer"><g class="trace scatter trace69e11a" style="stroke-miterlimit: 2;"><g class="fills"><g><path class="js-fill" d="M660,210L0,210L0,156.09L0.53,175.48L0.68,152.71L0.75,146.93L0.83,142.12L1.13,150.4L1.43,147.69L1.51,147.94L1.58,148.28L1.66,154.71L1.73,155.01L1.81,150.7L2.03,156.54L2.26,131.46L2.34,108.19L2.79,127.68L3.01,114.12L3.09,103.56L3.16,101.08L3.32,112.43L3.39,121.27L3.77,147.11L3.99,134.78L4.07,112.5L4.14,78.69L4.82,94.99L4.9,85.52L5.12,98.35L5.2,114.55L5.65,165.94L5.95,118.19L6.03,129.77L6.56,133.19L6.71,120.41L6.78,123.72L6.86,125.05L7.23,155.14L7.31,159.2L7.46,164.06L7.61,155.14L7.69,133.8L8.51,91.78L8.59,91.91L8.67,100.7L9.34,164.28L9.64,133.64L9.72,123.09L9.87,122.17L9.95,126.7L10.02,130.45L10.1,130.94L10.17,126.73L10.25,123.25L10.32,108.98L10.85,149.59L10.93,159.24L11.15,167.59L11.3,160.26L11.38,150.55L11.6,133.31L11.98,151.12L12.13,147.81L12.21,147.26L12.58,183.71L12.66,191.58L12.89,200.37L13.26,179.37L13.34,164.16L13.49,162.72L13.56,163.21L13.64,166.48L14.02,153.04L14.32,164.13L14.39,172.55L14.69,189.67L14.92,151.72L14.99,135.87L15.15,134.6L15.45,151.01L15.67,139.59L15.75,126.22L16.35,174.12L16.65,163.34L16.73,137.1L16.8,116.64L17.26,139.98L17.41,139.28L17.48,137.21L17.56,129.87L17.86,154.89L17.93,164.87L18.31,194.88L18.54,166.29L18.61,141.98L19.06,158.24L19.37,144.34L19.44,144.15L19.89,180.26L19.97,200.41L20.27,185.17L20.34,158.89L20.42,140.53L20.87,161.72L21.1,156.17L21.17,146.62L21.25,144.86L21.4,152.19L21.48,158.8L21.85,196.67L22.23,165.99L22.3,154.54L22.45,147.07L22.76,161.58L23.06,150.86L23.13,153.69L23.74,177.49L23.81,188.97L23.96,185.02L24.04,169.99L24.34,143.2L24.94,149.75L25.02,151.15L25.62,198.62L25.92,192.26L26,176.47L26.67,149.25L26.82,150.53L26.9,153.12L27.28,169.33L27.5,153.78L27.58,131.52L27.65,108.95L28.11,137.84L28.33,127.39L28.41,116.99L28.48,115.43L28.56,121.63L28.63,130.2L29.09,168.74L29.31,158.8L29.39,136.66L29.46,122.88L29.84,147.61L30.14,131.53L30.22,124.68L30.74,157.86L30.82,163.38L30.89,163.02L31.04,163.99L31.12,156.84L31.27,112.95L31.87,142.13L31.95,134.73L32.02,125.85L32.48,153.14L32.55,160.87L32.85,166.42L32.93,158.63L33,137.82L33.08,110.32L33.76,115.8L33.83,111.39L34.51,152.66L34.81,138.51L34.89,131.77L35.11,79.63L35.64,111.05L35.72,106.47L36.47,141.28L36.62,136.14L36.7,122.88L37.52,78.19L37.6,100.24L38.05,134.48L38.35,127.37L38.43,107.74L39.11,110.96L39.26,77.2L39.33,71.13L40.09,137.85L40.16,130.6L40.24,105.77L40.31,43.94L40.99,85.28L41.07,63.82L41.14,64.51L41.22,100.45L41.82,153.59L42.05,124.85L42.12,111.28L42.27,75.46L42.57,115.26L42.87,83.3L42.95,127.33L43.7,167.51L43.78,161.2L43.85,141.42L43.93,111.15L44.53,156.33L44.61,149.57L44.76,138.28L45.21,162.84L45.29,168.36L45.44,169.27L45.51,168.43L45.59,162.28L45.74,127.36L46.42,139.02L46.49,132.49L46.57,132.28L46.64,134.48L47.17,161.4L47.4,156.28L47.47,140.28L47.77,87.33L48.3,89.81L48.38,122.9L49.05,157.78L49.35,146.67L49.43,138.09L49.58,125.95L49.96,145.59L50.18,136.89L50.26,139.88L50.64,158.58L50.71,161.81L50.94,165.19L51.01,160.42L51.09,147.43L51.16,137.88L51.69,162.34L51.77,164.52L51.92,157.64L52.37,173.55L52.44,179.08L52.67,190.77L52.82,178.27L52.9,156.03L52.97,146.84L53.5,170.48L53.57,168.37L53.88,155.19L54.25,169.81L54.33,173.66L54.48,173.26L54.55,170.8L54.78,131.99L55.16,156.37L55.23,156.85L55.53,145.94L55.84,155.16L55.91,161.37L56.36,171.19L56.44,164.08L56.51,143.7L56.59,125.31L57.04,150.87L57.19,148.49L57.27,144.19L57.34,133.51L57.87,158.6L57.94,162.71L58.02,164.02L58.17,158.71L58.25,152.06L59.15,93.61L59.23,90.95L59.45,116.94L59.53,131.24L59.9,160.66L60.28,136.03L60.36,128.96L60.73,140.15L60.96,128.76L61.03,128.15L61.56,151.96L61.94,140.21L62.01,130.71L62.16,89.43L62.69,122.43L62.77,115.92L62.84,113.76L62.99,128.6L63.07,135.72L63.6,158.68L63.75,139.1L63.82,130.45L64.27,150.5L64.5,140.71L64.58,130.61L64.65,127.69L64.95,140.71L65.03,143.38L65.33,154.5L65.48,143.42L65.56,100.56L65.63,67.23L66.16,131.38L66.23,126.91L66.31,105.12L66.38,92.85L66.84,142.56L66.91,150.43L67.21,154.5L67.29,146.78L67.36,126.88L67.44,116.76L67.82,140.79L67.97,139.7L68.04,142.5L68.27,131.16L68.64,144.47L68.72,154.6L68.87,160.42L69.1,150.2L69.17,133.81L69.25,118.38L69.78,147.22L69.85,149.92L70,142.04L70.3,152.77L70.38,159.63L70.83,176.26L70.91,170.75L70.98,155.4L71.06,143.32L71.66,165.5L71.73,160.83L71.96,154.84L72.19,164.26L72.26,166.55L72.41,174.12L72.79,161.74L72.86,153.78L73.09,136.64L73.54,155.57L73.62,150.99L73.69,151.68L73.92,158.95L73.99,166.35L74.52,177.21L74.67,168.56L74.75,162.24L75.2,163.43L75.5,144.04L75.58,147.85L75.65,153.97L76.1,168.78L76.33,161.6L76.41,147.71L76.48,135.74L77.01,160.92L77.08,160.18L77.16,151.94L77.31,146.04L77.69,161.21L77.76,166.23L77.91,171.84L78.21,147.38L78.29,136.35L78.82,167.41L79.04,148.45L79.12,148.51L79.19,146.35L79.5,159.54L79.57,164.78L79.72,167.88L79.95,159L80.02,138.81L80.1,81.64L80.7,145.59L80.78,129.2L80.85,106.9L80.93,98L81.15,144.02L81.23,152.61L81.3,151.06L81.38,159.39L81.45,164.85L81.61,165.07L81.68,165L81.76,157.73L81.98,110.72L82.51,147.42L82.58,142.13L82.74,138.81L82.96,150.91L83.04,155.97L83.26,169.04L83.56,162.36L83.64,141.05L83.87,123.65L84.17,154.36L84.24,152.47L84.32,152.75L84.62,141.01L84.92,159.1L85,161.27L85.3,174.71L85.6,157.26L85.67,149.21L85.75,147.74L85.9,154.05L85.98,158.4L86.35,154.19L87.03,183.06L87.18,178.69L87.26,172.62L87.56,145.69L88.16,150.35L88.24,150.4L88.84,169.05L88.99,161.11L89.06,148.7L89.14,132.35L89.67,161.08L89.74,160.23L89.82,153.44L89.97,142.05L90.42,165.82L90.5,174.24L90.72,187.93L90.95,145.97L91.1,161.06L91.17,166.13L91.55,175.36L91.7,158.61L91.78,154.35L92,158.55L92.08,165.14L92.31,187.36L92.68,159.3L92.76,144.22L93.06,159.03L93.44,147.66L93.51,138.98L93.59,124.96L94.11,165.17L94.19,165.33L94.34,165.34L94.41,160.02L94.57,129.29L95.17,150.14L95.24,142.05L95.32,138.99L95.62,145.81L95.7,153.22L95.85,160.39L95.92,163.46L96.15,163.94L96.22,158.72L96.37,130.71L96.98,154.41L97.05,145.54L97.2,138.33L97.58,157.95L97.65,160.49L97.88,168.85L98.18,154.4L98.26,148.67L98.41,138.63L98.79,152.59L99.01,144.45L99.09,147.73L99.69,169.3L99.99,162.14L100.07,153.66L100.22,148.13L100.52,162.21L100.82,148.3L100.9,148.31L101.42,166.36L101.65,158.46L101.72,146.07L101.8,135.19L102.25,164.84L102.33,166.08L102.7,138.93L102.85,148.07L102.93,152.48L103.23,164.85L103.46,155.58L103.53,136.63L103.68,115.3L104.14,161.8L104.21,161.68L104.51,141.18L104.89,159.69L104.96,162.95L105.04,165.59L105.27,156.66L105.34,141.23L105.42,126.81L105.94,160.12L106.02,160.12L106.25,140.75L106.7,159.27L106.77,167.16L106.85,167.29L106.92,164.81L107,164.63L107.07,158.53L107.22,111.29L107.68,160.56L107.75,160.23L107.83,162.13L107.9,156.42L107.98,147.6L108.13,142.95L108.43,154.46L108.51,160.56L108.66,166.15L108.96,141.66L109.03,124.02L109.64,158.62L109.79,145.34L109.86,140.19L110.39,161.1L110.77,154.58L110.84,147.67L111.07,129.42L111.37,159.76L111.44,158.19L111.52,155.82L111.59,150.3L112.12,161.96L112.2,167.25L112.35,167.04L112.42,169.07L113.55,137.97L113.63,141.28L113.7,146.98L114.01,159.74L114.31,150.23L114.38,137.32L114.46,122.34L114.91,154.18L114.99,153.51L115.06,151.98L115.36,108.85L115.66,141.16L115.74,143.92L115.89,154.74L116.19,120.5L116.27,75.6L116.87,143.23L117.1,108.3L117.17,98.2L117.7,156.73L118,132.72L118.08,115.66L118.68,146.35L118.83,125.39L118.9,106.2L119.58,147.7L119.73,134.23L119.81,104.61L119.88,70L120.49,129.34L120.56,121.46L120.79,94.52L121.09,136.48L121.16,142.26L121.39,149.5L121.54,140.44L121.62,113.96L121.69,85.33L122.29,140.04L122.37,133.86L122.6,104.86L122.97,142.36L123.05,148.21L123.2,149.06L123.35,143.75L123.43,134.17L123.73,106.19L124.25,115.8L124.33,110.57L125.01,153.07L125.23,141.57L125.31,133.53L125.38,125.41L125.84,149.41L125.91,148.87L125.99,142.38L126.21,128.24L126.59,148.93L126.67,153.01L126.89,154.43L126.97,149.9L127.04,138.88L127.12,128.04L127.64,157.02L127.72,158.38L127.95,133.85L128.32,154.87L128.4,162.09L128.62,173.55L128.85,146.74L128.93,136.69L129.53,155.74L129.68,147.84L129.75,145.43L129.83,143.98L129.98,152.41L130.06,156.82L130.51,167.75L130.58,163.55L130.66,146.06L130.73,130.05L131.34,160.16L131.41,151.82L131.71,136.97L132.09,157.05L132.17,154.88L132.24,154.71L132.32,152.12L132.54,96.94L132.77,141.51L132.84,148.77L132.99,157.94L133.37,134.94L133.45,135.8L133.52,134.74L133.67,141.46L133.75,143.82L133.97,157.62L134.28,131.32L134.35,97.24L134.8,158.63L135.18,140.3L135.26,141.05L135.86,170.16L136.08,160.85L136.16,154.71L136.99,140.76L137.06,144.49L137.52,166.2L137.59,168.93L137.67,169.5L137.82,168.04L137.89,163.17L138.19,148.49L138.42,163.83L138.5,166.4L138.72,152.34L138.8,147L139.55,170.72L139.63,166.02L139.7,154.53L139.78,145.3L140.23,162.98L140.38,161.42L140.45,155.84L140.61,150.18L141.06,164.55L141.13,169.74L141.28,170L141.36,169.93L141.43,164.35L141.58,138.67L142.11,164.32L142.19,163.78L142.49,141.41L142.79,156.53L142.87,161.94L143.09,167.27L143.32,145.05L143.39,134.09L144,155.92L144.15,145.25L144.22,142.76L144.6,160.22L144.67,166.46L144.98,175.31L145.13,153.04L145.2,141.53L145.8,168.64L146.03,156.06L146.11,153.26L146.26,155.85L146.33,162.08L146.78,189.23L146.86,176.16L146.93,158.52L147.01,147.27L147.54,170.36L147.61,168.92L147.91,153.51L148.22,167.62L148.29,172.3L148.59,183.43L148.89,163.1L148.97,159.64L149.42,166.01L149.72,155.71L149.8,155.84L149.87,162.6L150.4,198.99L150.63,178.16L150.7,167.56L150.93,155.26L151.53,157.81L151.61,159.02L152.21,172.14L152.28,169.18L152.36,156.15L152.44,144.1L152.96,165.41L153.04,162.88L153.11,156.29L153.34,140.02L153.79,160.67L153.87,162L154.09,148.66L154.17,123.13L154.24,122.6L154.32,142.08L154.39,142.42L154.47,150.61L154.85,161.6L155,144.25L155.07,140.45L155.15,136.49L155.45,151.43L155.52,157.4L155.6,160.63L155.83,154.04L155.9,139.69L156.05,92.07L156.43,151.98L156.58,151.35L156.65,152.39L156.88,109.09L157.11,139.8L157.18,150.64L157.41,162.4L157.63,160.5L157.71,152.19L157.86,103.62L158.39,150.53L158.46,152.27L158.69,114.9L159.07,155.42L159.14,161.73L159.37,165.56L159.52,157.49L159.59,127.8L159.67,107.74L160.05,154.8L160.2,154.48L160.27,156.53L160.57,133.3L160.87,153.88L160.95,162.43L161.1,167.57L161.4,152.49L161.48,141.29L161.63,130.49L162,155.58L162.08,154.32L162.16,150.53L162.31,141.03L162.76,164.79L162.83,167.14L162.91,169.23L163.29,162.08L163.36,155.13L163.89,161.48L164.11,148.5L164.19,150.3L164.27,150.65L164.72,167.67L165.02,151.23L165.09,146.47L165.7,168.07L165.85,154.41L165.92,143.73L166.07,140.1L166.15,146.7L166.22,150.77L166.3,151.01L166.38,156.46L166.6,162.97L166.75,148.49L166.83,117.65L166.9,101.22L167.35,165.67L167.43,163.38L167.66,145.17L167.73,127.41L167.81,122.85L168.03,149.41L168.11,150.24L168.33,163.18L168.56,154.31L168.64,112.48L168.71,101.49L169.01,159.25L169.09,162.2L169.16,165.1L169.39,155.97L169.46,146.22L169.62,136.93L169.99,160.15L170.07,165.49L170.22,165.34L170.29,161.5L170.52,114.11L170.59,147.41L170.67,150.4L171.05,163.61L171.35,146.95L171.42,149.78L171.5,149.45L171.57,152.18L171.65,157.28L171.73,155L172.03,167.07L172.1,166.05L172.33,128.5L172.7,151.95L172.78,151.56L173.16,136.74L173.46,149.88L173.53,153.26L173.68,163.34L174.14,150.27L174.21,146.26L174.36,139.75L174.66,158.1L175.04,139.84L175.12,142.35L175.79,165.01L175.94,159.34L176.02,153.8L176.17,148.4L176.47,170.3L176.55,168.93L176.92,151.34L177.23,168.01L177.3,173.32L177.53,173.61L177.6,168.35L177.75,149.16L178.21,184.14L178.28,183.84L178.66,154.95L179.03,177.51L179.11,180.73L179.26,182.57L179.41,176.54L179.49,164.66L179.56,158.3L179.86,191.41L179.94,193.34L180.01,195.83L180.24,186.26L180.32,168.73L180.39,166L180.69,183.35L180.77,196.03L180.99,199.48L181.14,186.14L181.22,172.92L181.37,142.33L181.97,170.42L182.05,165.25L182.35,148.14L182.65,176.08L182.73,182.41L182.95,182.93L183.03,177.8L183.33,162.2L183.78,173.97L183.86,172.38L184.08,160.9L184.46,180.38L184.53,186.03L184.69,187.58L184.84,182.95L184.91,175.15L185.14,166.81L185.51,177.39L185.74,168.21L185.82,167.7L185.89,167.08L186.04,169.89L186.12,173.9L186.34,177.33L186.72,169.77L186.8,166.92L187.62,145.67L187.7,148.37L187.77,148.3L188.38,175.15L188.68,163.22L188.75,154.91L189.73,169.02L189.81,169.33L190.11,177.85L190.41,169.02L190.49,166.3L190.71,162.42L190.94,174.73L191.01,176.21L191.39,163.63L191.77,172.28L191.84,172.53L191.99,171.33L192.07,165.13L192.15,128.43L192.75,195.36L192.82,195.23L193.12,160.04L193.58,180.66L193.65,180.62L193.88,176.6L193.95,152.14L194.03,140.49L194.41,193.62L194.48,194.12L194.56,196.55L194.71,195.48L194.78,172L194.93,165.76L195.31,178.79L195.39,183.23L195.84,151.7L195.91,191.68L195.99,190.49L196.29,194.98L196.36,197L196.59,195.39L196.67,164.93L197.27,186.35L197.5,182.04L197.57,166.87L198.17,196.08L198.4,194.71L198.47,170.75L198.55,166.92L198.93,181.58L199,184.11L199.45,177.94L199.53,191.46L199.6,192.82L199.98,197.42L200.21,194.78L200.28,167.69L200.43,167.24L200.51,172.89L201.56,199.73L201.79,198.81L201.87,197.35L201.94,196.21L202.02,173.21L202.24,169.14L202.47,179.34L202.54,183.34L202.69,189.35L203,172.17L203.07,162.85L203.52,188.79L203.75,164.32L203.82,156.35L204.05,153.07L204.28,163.5L204.35,174.34L204.58,178.84L204.65,173.48L204.73,161.77L204.88,120.48L205.48,159.31L205.56,152.69L205.86,140.01L206.16,164.72L206.24,167.57L206.39,168.21L206.46,166.66L206.54,159.35L206.69,130.25L207.14,165.92L207.22,165.52L207.29,160.62L207.67,144.64L207.89,157.43L207.97,163L208.12,168L208.35,158.39L208.42,137.45L208.5,129.1L208.8,157.65L208.87,157.54L208.95,160.59L209.17,155.53L209.25,147.98L209.48,142.41L209.63,153.57L209.7,152.75L209.78,160.2L209.93,166.55L210.15,155.92L210.23,127.71L210.3,125.81L210.38,152.65L210.61,160.86L210.68,165.99L210.76,165.86L210.83,168.76L211.21,125.95L211.36,148.56L211.44,157.26L211.89,170.86L212.04,159.12L212.11,158.06L212.34,146.82L212.64,166.3L212.94,148.46L213.02,146.39L213.09,143.75L213.32,162.71L213.39,162.47L213.7,171.97L214,160.34L214.07,153.86L214.22,160.26L214.3,165.19L214.45,171.72L214.83,153.15L214.9,151.89L215.88,186.69L215.96,173.41L216.03,174.44L216.33,176.86L216.41,170.93L216.48,159.85L216.71,149.35L216.94,162.13L217.01,173.14L217.24,183.19L217.61,167.76L217.69,159.5L218.07,171.09L218.29,160.42L218.37,155.52L218.52,148.19L218.82,167.29L218.89,172.55L219.2,162.93L219.27,136.71L219.35,130.03L219.42,150.6L219.5,188L219.57,191.62L219.65,162.57L219.87,175.25L219.95,170.52L220.33,146.9L220.63,170.09L220.7,175.58L220.78,176.25L220.85,172.49L220.93,173.77L221,168.07L221.08,147.04L221.68,177.68L221.76,172.46L222.13,149.89L222.44,171.86L222.51,176.98L222.74,174.29L222.81,167.67L222.96,138.96L223.42,178.52L223.49,175.77L223.57,171.79L223.87,145.11L224.24,174.4L224.32,176.81L224.62,173.98L224.7,167.72L224.92,159.69L225.3,174.42L225.45,173.87L225.53,167L225.68,167.29L225.75,163.64L226.43,181.91L226.58,176.15L226.66,168.85L226.73,166.77L226.96,179.01L227.03,182.57L227.18,177.37L227.26,174.58L227.56,159.58L227.94,177.48L228.01,177.25L228.09,177.4L228.16,179.32L228.39,164.1L228.46,177.01L228.54,195.61L228.92,201.47L228.99,185.73L229.07,180.41L229.37,161.95L229.75,179.41L229.82,182.32L230.2,155.52L230.27,192.8L230.35,191.22L230.72,197.43L230.8,196.87L230.88,177.14L231.18,165.38L231.48,184.92L231.55,189.13L231.86,184.5L231.93,170.97L232.01,165.87L232.23,195.59L232.31,196.2L232.46,195.92L232.53,197.21L232.68,196.06L232.76,173.72L232.83,173.56L232.91,171.09L233.66,197.67L234.19,194.47L234.27,194.37L234.34,196.67L234.72,193.62L234.79,174.1L235.32,197.23L235.85,193.1L235.92,192.75L236.15,196.42L236.23,182L236.53,172.89L236.83,179.87L236.9,184.33L237.28,197.37L237.81,196.12L237.88,196.47L237.96,198.09L238.34,194.61L238.56,197.28L238.64,195.75L239.16,195.34L239.62,203.93L239.69,203.99L239.77,204.6L239.84,201.29L239.92,198.65L240.14,184.39L240.37,188.81L240.45,191.24L241.58,205.02L241.65,200.15L242.03,184.27L242.25,190.18L242.33,195.44L242.4,199.22L242.86,190.65L243.01,191.87L243.08,194.42L243.16,194.21L243.31,194.72L243.38,197.56L243.46,197.76L243.69,196.76L243.76,194.36L243.91,183.38L244.29,199.42L244.44,198.57L244.51,197.85L244.66,175.53L245.19,203.46L245.27,200.69L245.57,181.34L245.72,190.49L245.8,196.61L245.87,189.14L246.02,199.81L246.47,190.46L246.55,201.42L246.7,191.14L247,206.49L247.15,202.71L247.23,184.8L247.45,175.16L247.83,185.36L247.91,185.36L247.98,185.5L248.21,169.94L248.28,165.88L248.73,200.46L249.04,196.51L249.11,172.89L249.26,170.53L249.41,178.7L249.49,177.23L249.56,182.23L250.09,178.75L250.54,197.26L250.62,198.47L250.77,196.67L250.84,173.54L250.99,171.2L251.15,176.36L251.22,181.64L252.43,205.19L252.5,205.06L252.8,182.58L253.1,192.89L253.18,196.93L254.08,205.06L254.16,205L254.23,205.47L254.39,204.71L254.46,199.99L254.91,192.34L255.21,198.45L255.29,198.33L255.52,191.26L256.04,198.17L256.12,198.11L256.42,195.39L256.72,196.58L256.8,197.13L257.32,193.15L257.7,201.64L257.78,201.69L257.85,204.28L258.08,185.44L258.15,182.12L258.38,181.64L258.45,186.03L259.66,204.2L259.74,202.15L259.89,202.06L259.96,200.09L260.11,202.12L260.19,190.08L260.26,189.28L260.41,194.03L260.49,197.94L260.64,198.87L260.94,193.94L261.17,198.56L261.24,200.03L261.47,204.04L261.62,200.69L261.69,184.54L261.92,179.56L262.22,190.73L262.3,192.52L262.37,190.78L262.6,199.16L262.82,196.97L262.9,197.62L263.28,204.6L263.5,199.12L263.58,184.15L263.65,182.42L264.03,191.31L264.11,193.06L264.26,193.12L264.33,195.12L264.41,195.42L264.48,193.57L264.56,198.11L264.71,202.1L264.78,204.41L265.09,205.1L265.16,203.88L265.24,188.72L265.31,182.57L265.91,195.73L265.99,195.77L266.14,196.02L266.22,200.4L266.29,197L266.59,205.54L266.82,205.53L266.89,205.58L267.27,180.85L267.65,191.86L267.72,193.86L267.8,194.42L267.95,192.59L268.02,190.22L268.1,180.32L268.63,203.8L268.7,204.53L268.85,204.48L268.93,201.27L269.08,179.65L269.38,187.65L269.46,193.11L269.76,199.88L269.91,191.41L270.36,197.22L270.43,197.32L270.81,198.96L270.89,197.41L270.96,187.06L272.32,204.51L272.39,201.46L272.85,189.98L273.15,200.12L273.22,201.75L273.6,195.05L273.9,199.2L273.98,202.9L274.05,203.68L274.28,198.83L274.35,198.5L274.58,181.01L275.11,192.83L275.18,194.4L275.33,191.62L275.41,189.76L275.94,199.79L276.16,199.33L276.24,184.5L276.31,182.86L276.61,189.57L276.69,193.14L277.67,206.35L277.74,207L278.2,189.8L278.5,195.1L278.57,204.99L279.03,200.43L279.18,205.98L279.33,203.75L279.4,205.39L279.55,206.95L279.78,203.35L279.85,201.67L280.08,203.29L280.16,195.02L280.68,200.37L280.91,197.99L280.98,196.27L281.66,199.82L281.81,198.15L281.89,191.48L282.19,200.47L282.64,196.35L282.72,198.05L282.79,196.34L283.32,199.82L283.4,199.83L283.85,198.06L284.07,200L284.15,199.96L284.3,199.57L284.37,192.23L285.13,199.66L285.43,197.76L285.51,197.45L286.03,199.71L286.11,199.65L286.18,195.26L287.09,199.14L287.16,197.23L287.46,198.05L287.54,199.92L287.77,200.11L287.92,199.65L287.99,197.19L288.52,197.39L288.59,199.23L288.97,197.16L289.05,199.05L289.2,196.13L289.57,199.49L289.8,197.67L289.88,197.65L290.03,200.93L290.1,203.16L290.4,204.26L290.55,200.76L290.63,199.49L291.01,194.07L291.23,201.81L291.31,202.04L291.61,197.79L291.91,204.8L291.99,204.96L292.21,205.65L292.29,205.26L292.36,200.67L292.81,191.74L292.96,197.7L293.04,201.28L293.49,193.85L293.87,197.06L293.94,196.73L294.32,198.74L294.55,196.67L294.7,197.35L294.77,197.41L295,199.28L295.3,193.95L295.38,195.99L295.45,193.94L295.83,198.85L296.28,196.51L296.36,196.55L296.81,198.73L296.96,198.52L297.03,193.89L297.11,193.4L297.34,196.06L297.41,195.98L297.49,195.95L297.64,198.02L298.24,195.95L298.31,195.91L298.62,198.29L298.77,197.84L298.84,192.21L299.07,192.11L299.67,197.16L299.75,197.07L299.82,194.6L300.12,195.66L300.2,197.84L300.42,197.98L300.58,197.7L300.65,194.35L300.8,194.16L301.18,194.59L301.25,196.87L301.48,197.03L301.55,194.94L302.23,197.81L302.38,197.7L302.46,195.55L302.69,195.38L302.76,196.38L302.99,200L303.36,195.27L303.44,195.15L304.12,197.79L304.19,197.71L304.27,193.43L304.8,201.68L305.17,197.59L305.25,195.37L305.62,195.51L305.7,197.69L305.93,197.68L306,197.47L306.08,191.55L306.3,190.43L306.45,193.98L306.53,194.13L306.75,196.68L307.36,195.55L307.43,195.7L307.66,197.87L307.96,192.78L308.04,194.95L308.11,192.71L308.71,197.32L308.94,195.09L309.01,195.07L309.47,198.11L309.62,197.64L309.69,192.53L309.92,192.45L310.6,197.03L310.67,194.78L310.9,195.54L310.97,195.91L311.28,198.64L311.43,197.88L311.5,192.83L311.58,192.47L311.65,194.92L311.8,194.92L311.88,194.91L312.03,194.98L312.1,197.21L312.41,197.27L312.48,195.02L312.71,195.77L312.78,197.34L313.08,199.46L313.39,195.62L313.46,195.49L313.84,195.53L313.91,197.69L314.14,197.87L314.21,195.82L314.97,200.68L315.12,198.75L315.19,198.44L315.27,197.72L315.42,201.62L315.49,202.84L315.65,204.61L315.95,199.6L316.02,197.94L316.1,198.07L316.17,199.85L316.32,199.87L316.4,198.87L316.7,200.92L316.85,200.03L316.93,196.43L317,196.68L317.08,200.84L317.53,204.71L317.76,199.23L317.83,199.26L318.21,197.06L318.43,199.49L318.58,198.93L318.66,198.04L318.96,192.44L319.34,199.33L319.41,198.47L319.71,196.35L320.09,197.45L320.17,199.35L320.39,199.42L320.47,199.08L320.54,194.45L320.77,193.15L321,196.48L321.07,196.12L321.15,197.48L321.45,198.01L321.52,195.33L322.2,198.86L322.28,198.83L322.35,193.75L322.58,189.91L322.88,194.29L322.95,197.72L323.26,198.12L323.33,195.92L323.56,196.8L323.71,196.38L323.78,198.38L324.08,198.41L324.16,193.56L324.31,194.98L324.39,192.81L324.69,193.58L324.76,197.61L325.06,197.76L325.14,195.63L325.37,196.31L325.44,196.6L325.82,199.11L326.12,196L326.19,195.98L326.5,196.11L326.57,198.14L326.8,198.04L326.87,196.09L327.63,200.84L327.78,198.88L327.85,197.73L328,199.96L328.08,202.32L328.38,205.77L328.53,200.66L328.61,199.46L328.68,197.47L329.13,204.89L329.21,205.86L329.51,205.87L329.59,204.71L330.19,206.34L330.41,205.87L330.49,205.38L331.39,196.48L331.47,196.16L332,204.4L332.3,199.9L332.37,197.41L332.45,197.1L332.75,198.82L332.83,200.56L333.05,200.55L333.13,200.06L333.2,195.16L333.5,201.93L334.03,200.04L334.11,199.27L334.18,197.32L334.78,200.92L334.86,200.92L334.94,200.61L335.01,196.45L335.24,195.62L335.31,198.97L335.39,199.39L335.69,201.61L335.76,200.8L335.84,199.72L335.99,197.47L336.37,200.03L336.44,201.91L336.52,202.31L336.74,200.56L336.82,195.62L336.89,195.3L337.12,197.7L337.2,198.14L337.35,198.22L337.42,200.08L337.5,200.38L337.72,199.19L337.8,197.31L337.87,197.58L337.95,188.52L338.33,201.09L338.7,197.13L338.78,197.07L339.16,197.34L339.23,199.16L339.46,199.03L339.53,197.05L339.61,197.18L339.68,199.24L339.91,199.01L340.29,201.68L340.36,201.26L340.44,199.02L340.66,198.78L340.74,199.33L340.81,201.11L340.96,202.65L341.34,198.23L341.49,200.35L341.57,200.48L342.02,201.07L342.47,196.78L342.55,199.35L342.7,201.01L343.15,200.13L343.22,198.37L343.6,198.79L343.68,200.58L343.98,200.14L344.05,195.92L344.28,195.65L344.96,199.63L345.03,197.78L345.56,201.1L345.79,200.52L345.86,196.11L346.09,195.95L346.46,199.83L346.77,199.64L346.84,198L347.44,202.03L347.59,201.36L347.67,197.26L347.82,198.55L347.9,196.75L347.97,198.89L348.27,202.73L348.65,199.02L348.72,199.07L349.18,202.2L349.4,201.99L349.48,198.12L349.7,197.6L349.93,199.42L350.01,199.42L350.08,200.98L350.16,201.14L350.31,200.86L350.38,200.86L350.46,199.3L350.76,201.04L350.83,202.42L351.66,199.66L351.81,199.86L351.89,201.42L352.12,201.19L352.19,199.7L352.94,204.6L353.1,202.75L353.17,201.94L353.7,205.87L353.92,202.57L354,201.28L355.2,207.54L355.28,208.8L355.43,210.79L355.73,204.93L355.81,203.45L356.11,204.55L356.18,202.3L356.26,202.75L356.34,204.85L356.56,205.1L356.64,203.13L356.79,199.64L357.31,205.01L357.39,204.79L357.77,201.29L358.07,203.04L358.14,204.05L358.37,204.43L358.45,204.19L358.52,201.34L358.75,201.28L359.2,203.41L359.42,203.04L359.5,202.13L359.95,204.28L360.25,203.99L360.33,201.4L360.55,201.19L361.23,203.42L361.31,202.42L361.46,197.12L361.99,204.4L362.06,204.42L362.36,201.84L362.82,203.88L362.89,203.89L362.97,196.9L363.04,203.91L363.64,202.95L363.72,203.81L363.87,204.66L364.1,203.2L364.32,203.2L364.4,203.2L364.77,204.16L364.85,203.22L364.93,197.55L365.68,204.66L365.9,203.8L365.98,203.75L366.13,195.81L366.58,204.57L366.81,197.78L366.88,199.52L367.04,199.01L367.11,200.06L367.19,202.07L367.49,205.4L368.01,204.81L368.09,204.36L368.17,205.41L368.54,203.14L368.62,203.15L368.69,198.36L368.99,203.87L369.52,201.56L369.6,200.28L370.05,196.93L370.12,202.96L370.2,194.71L370.35,195.14L370.43,202.15L370.95,203.88L371.1,203.42L371.18,200.37L371.78,203.13L372.08,202.78L372.16,201.54L372.54,202.38L372.61,203.55L372.91,203.2L372.99,200.27L373.21,200.17L373.89,202.67L373.97,193.93L374.49,203.16L374.8,200.08L374.87,200.06L375.02,199.9L375.63,202.59L375.7,202.58L375.78,201.25L375.93,194.92L376.23,203.08L376.45,202.99L376.53,203.1L376.98,201.34L377.28,202.63L377.36,202.59L377.58,201.24L377.81,203.24L377.89,202.73L377.96,204.01L378.34,204.86L378.41,203.59L378.49,203.15L378.87,202.62L378.94,203.24L379.02,204.04L379.32,202.02L379.77,202.51L379.84,203.59L380.15,203.45L380.22,201.18L380.82,205.86L381.05,203.32L381.13,202.83L381.2,201.64L381.8,203.25L381.88,202.93L382.26,199.34L382.63,202.17L382.71,202.14L382.93,202.12L383.01,200.8L383.69,203.55L383.76,203.26L383.84,199.81L384.06,199.6L384.22,201L384.29,201.09L384.44,202.44L385.12,201.87L385.19,201.97L385.42,203.17L385.65,200.12L385.8,201.38L385.87,200.11L386.25,203.37L386.7,201.42L386.78,201.41L387.08,205.57L387.38,203.41L387.46,201.03L387.68,200.25L387.91,202.29L387.98,202.71L388.43,201.37L388.81,203.9L388.89,204.01L389.11,204.41L389.19,204.11L389.26,202.36L389.49,201.88L389.79,202.4L389.87,203.52L390.17,201.96L390.24,202.1L390.32,203.46L390.54,202.7L390.92,204.35L391,204.32L391.07,203.62L391.6,203.28L391.67,204.28L391.83,204.23L391.9,198.52L392.13,198.6L392.2,200.53L392.81,204.53L393.03,203.5L393.11,202.34L393.48,205.06L393.86,202.86L393.94,202.88L394.31,203.97L394.39,205.26L394.54,205.89L394.61,204.08L394.69,201.81L394.76,201.46L394.91,202.68L394.99,204.59L395.52,205.33L395.59,204.98L395.67,204.54L396.05,205.83L396.12,206.36L396.42,205.99L396.5,204L397.1,205.88L397.4,205.49L397.48,204.86L397.85,205.4L397.93,205.99L398.23,205.9L398.31,203.98L398.53,203.81L398.68,204.59L398.83,204.41L398.91,205.2L399.13,204L399.21,196.6L399.36,195.61L399.44,197.15L399.51,203.71L399.59,199.86L399.81,205.4L400.26,202.11L400.34,201L400.72,203.84L401.24,203.14L401.32,204.19L401.62,204.92L402.15,202.08L402.3,202.54L402.37,202.7L402.53,203.68L402.83,202.1L402.9,197.19L403.58,205.43L403.73,204.38L403.81,204.1L404.11,203.55L404.26,204.62L404.33,205.25L404.64,203.27L405.09,204.09L405.16,204.89L405.46,204.91L405.54,202.94L405.77,202.6L405.92,204.61L405.99,205.17L406.14,205.25L406.22,204.27L406.52,203.18L406.9,203.64L406.97,204.55L407.27,204.17L407.35,200.88L407.42,200.02L407.88,202.16L407.95,203.36L408.33,201.91L408.48,202.62L408.55,203.43L408.7,203.48L408.78,204.49L409.08,204.09L409.16,200.97L409.23,200.52L409.61,202.11L409.68,202.1L409.76,203.22L410.14,202.1L410.29,202.55L410.36,203.31L410.81,204.74L410.89,204.46L410.96,201.73L411.19,201.46L411.27,202.59L411.34,202.64L411.49,202.65L411.57,203.71L411.87,203.7L411.94,202.32L412.55,205.43L412.7,204.74L412.77,201.82L412.92,202.56L413,201.42L413.3,202.58L413.38,203.64L413.75,201.74L414.05,203.23L414.13,204.23L414.36,204.34L414.51,204.13L414.58,201.68L414.73,200.95L415.11,201.82L415.18,203.3L415.49,202.57L416.24,204.94L416.31,204.71L416.39,203.65L416.69,203.26L416.92,203.9L416.99,204.28L417.29,203.32L417.37,203.43L417.44,204.43L417.6,204.55L417.67,203.65L418.05,204.67L418.2,202.83L418.27,202.51L418.42,202.14L418.8,204.07L419.1,203.98L419.18,202.97L419.55,203.45L419.63,204.38L419.93,204.13L420.01,201.16L420.23,201.12L420.91,203.45L420.99,202.36L421.36,203.21L421.44,204.24L421.74,204.05L421.82,201.31L422.04,201.13L422.72,203.48L422.79,202.39L423.17,203.08L423.25,204.07L423.55,204.1L423.62,201.27L423.85,201.23L424.53,203.59L424.6,202.52L424.75,202.53L424.83,203.46L425.13,204.15L425.51,201.09L425.73,202.22L425.81,202.22L426.26,203.68L426.64,203.5L426.71,203.02L427.09,205.3L427.39,202.22L427.47,202.43L428.45,204.71L428.52,203.08L428.97,205.09L429.28,203.7L429.35,203.58L429.58,203.7L429.65,204.67L430.03,203.72L430.18,204.52L430.25,204.88L430.78,205.28L431.08,202.74L431.16,203.62L431.46,204.47L431.76,204.05L431.84,203.06L432.14,202.66L432.21,203.27L432.29,204.24L432.59,203.83L432.67,201.5L432.82,202.06L432.89,200.27L433.19,201.51L433.27,202.75L433.49,202.85L433.57,194.08L433.72,193.93L433.8,192.73L434.1,204.52L434.55,200.69L434.62,201.88L434.7,200.71L435.23,203.3L435.3,203.08L435.45,194.95L435.98,204.31L436.06,204.3L436.21,203.89L436.28,201.06L437.04,203.4L437.11,203.32L437.19,195.48L437.41,192.87L437.56,199.06L437.64,201.8L437.87,204.53L438.09,201.32L438.39,202.69L438.47,202.9L438.62,202.69L438.69,203.96L438.92,203.73L439,203.73L439.22,195.55L439.67,205.61L439.75,205.79L440.2,203.54L440.5,204.49L440.58,204.54L440.88,203.66L440.95,204.73L441.03,204.46L441.33,205.79L441.41,205.81L441.48,205.82L441.63,205.9L441.71,205.29L441.78,205.22L441.86,205.15L442.24,205.11L442.31,205.75L442.39,205.71L443.06,205.06L443.14,205.8L443.44,205.9L443.52,204.69L443.74,204.56L444.42,205.79L444.5,205.15L444.65,205.05L444.87,205.41L444.95,206.03L445.25,206.1L445.32,204.19L445.4,204L445.63,204.82L445.85,204.86L445.93,205.48L446.68,205.48L446.76,206.04L447.06,205.8L447.13,203.81L447.36,203.73L448.04,205.21L448.11,204.47L448.64,205.9L448.87,205.64L448.94,203.51L449.17,203.34L449.77,205.01L449.85,200.31L449.92,199.54L450.15,204.95L450.22,204.88L450.6,205.6L450.67,205.52L450.75,203.37L451.65,204.94L451.73,204.13L452.03,204.89L452.11,205.58L452.48,205.53L452.56,204.22L453.09,204.22L453.16,205.03L453.39,205.04L453.46,204.26L454.29,205.81L454.37,205.13L454.44,205.07L454.89,204.92L454.97,205.59L455.05,205.58L455.35,204.94L455.5,205.82L455.72,205.22L455.8,205.85L456.1,205.69L456.18,204.51L456.4,204.3L457.08,205.53L457.15,204.83L457.53,204.94L457.61,205.62L457.91,205.58L457.98,203.51L458.21,203.43L458.89,205.04L458.96,204.36L459.19,204.99L459.26,205.28L459.57,205.9L459.72,205.62L459.79,203.55L460.62,205.06L460.7,200.4L460.92,200.44L461,202.26L461.3,205.68L461.75,204.37L461.83,203.61L462.2,205.14L462.35,205.04L462.43,198.87L462.58,197.24L462.96,202.42L463.03,203.73L463.26,203.72L463.33,202.3L463.48,194.89L464.01,205.12L464.09,199.82L464.16,199.14L464.31,197.65L464.69,201.14L464.77,202.47L465.07,205.73L465.52,204.41L465.59,204.4L465.74,204.44L465.82,205.24L466.05,199.31L466.5,205.57L466.57,206.13L466.95,206.2L467.1,205.57L467.18,205.52L467.85,199.96L468.01,200.3L468.08,200.98L468.61,203.91L468.76,202.23L468.83,200.03L468.91,198.86L468.99,205.3L469.21,205.26L469.29,205.27L469.51,205.88L469.59,200.99L469.81,198.95L470.12,201.6L470.19,205.27L470.42,205.92L470.57,202.46L470.64,197.55L470.72,195.94L471.02,199.91L471.17,199.91L471.25,200.7L471.47,198.51L471.55,205.22L471.62,204.47L471.7,204.55L472.3,206.29L472.38,206.21L472.45,204.27L472.68,204L473.05,205.61L473.13,205.51L473.2,201.57L473.51,200.27L473.73,203.11L473.81,204.17L473.96,205.23L474.18,203.64L474.26,199.5L474.33,198.23L474.71,201.39L474.94,200.36L475.01,200.45L475.84,206.28L475.92,206.26L476.14,203.77L476.52,204.6L476.6,204.62L477.5,206.27L477.58,206.27L477.8,206.09L477.88,204.7L478.1,198.96L478.48,205.4L478.78,199.52L478.86,199.63L479.53,205.89L479.61,204.05L479.68,203.33L479.99,198.43L480.21,205.04L480.29,205.69L480.44,205.66L480.51,200.4L480.59,199.76L481.04,201.95L481.12,203.3L481.27,203.34L481.34,202.72L481.42,201.46L481.49,198.73L481.95,205.54L482.02,205.53L482.1,205.91L482.47,199.54L482.85,205.3L482.92,205.96L483.23,205.9L483.3,203.86L484.21,205.4L484.28,204.7L484.58,205.7L484.66,204.65L484.88,206.26L485.11,199.78L485.34,203.89L485.41,204.63L485.79,205.35L485.86,201L486.09,199.52L486.17,204.7L486.24,204.79L486.77,206.28L486.92,204.21L486.99,204.09L487.14,204.01L487.52,205.5L487.67,205.48L487.75,200.65L487.9,199.95L488.05,201.56L488.12,205.64L488.35,205.99L488.95,203.7L489.25,204.61L489.33,205.4L489.48,205.46L489.63,205.04L489.71,204.39L490.38,205.89L490.46,205.83L490.54,204.48L490.61,204.14L491.06,204.6L491.14,205.33L491.29,205.33L491.36,200.28L491.59,200.4L491.67,201.87L492.65,205.37L492.72,205.38L493.02,205.98L493.1,201.81L493.25,200.53L493.62,202.6L493.7,202.47L493.78,203.63L494.23,197.61L494.3,204.63L494.6,204.76L495.06,198.11L495.43,200.34L495.51,202.17L495.66,205.23L496.04,195.26L496.26,203.67L496.34,203.64L496.64,204.06L496.71,197.55L496.94,195.12L497.24,200.46L497.32,201.72L497.54,202.91L497.69,200.57L497.77,195.01L497.84,190.14L498.22,203.87L498.45,199.06L498.52,196.58L498.67,194.29L499.05,199.11L499.13,200.35L499.28,201.63L499.5,199.97L499.58,194.72L499.65,193.86L499.73,203.53L500.18,204.56L500.33,197.98L500.41,195.68L500.56,195L500.71,196.95L500.78,199.81L501.08,202.78L501.31,201.23L501.39,195.43L501.46,193.15L501.84,203.59L502.06,197.59L502.14,196.69L502.29,193.76L502.74,199.75L502.82,201.16L503.04,201.84L503.19,198.62L503.27,197.38L503.5,193.01L503.72,203.83L503.8,204.53L504.17,195.87L504.55,200.89L504.63,201.99L504.93,201.07L505,200.35L506.06,194.61L506.13,196.61L506.66,198.61L506.74,197.28L506.81,194.07L506.89,192.08L507.26,198.42L507.41,197.74L507.49,196.85L507.72,189.32L508.17,195.43L508.24,197.58L508.47,196.23L508.54,179.03L508.7,147.67L509.22,176.19L509.3,176.19L509.52,163.87L509.83,190.94L509.9,185.39L509.98,188.61L510.13,191.08L510.35,175.92L510.43,163.33L510.5,152.91L511.03,183L511.11,180.88L512.01,205.19L512.16,204.64L512.24,193.92L512.69,204L512.91,197.17L512.99,193.51L513.14,192.08L513.29,194.81L513.37,195.92L513.67,201.22L513.97,195.5L514.04,187.49L514.35,201.24L514.95,180.46L515.02,180.27L515.63,192.94L515.85,185.67L515.93,183.02L516.08,176.55L516.31,189.68L516.38,193.76L516.46,193.59L516.53,188.69L516.68,185.02L516.98,196.18L517.06,198.74L517.51,201.35L517.66,199.75L517.74,196.63L518.26,198.55L518.57,190.41L518.64,193.9L518.72,194.03L518.79,195.77L519.24,200.4L519.39,198.94L519.47,190.84L519.92,199.97L520.37,180.82L520.45,181.08L520.53,180.85L520.6,181.83L520.68,183.42L520.9,188.14L521.05,186.78L521.13,184.07L521.35,157.47L521.81,177.66L521.88,177.73L522.11,168.75L522.41,174.66L522.48,179.73L522.56,179.5L522.64,183.3L522.79,188.29L523.09,170.04L523.16,163.93L523.69,185.06L523.99,176.93L524.07,176.03L524.67,189.86L524.82,184.13L524.9,168.1L524.97,160.86L525.5,181.59L525.57,178.73L525.72,169.99L526.18,187.34L526.25,193.87L526.33,196.67L526.63,187.41L526.7,177.69L526.78,169.22L527.38,181.46L527.46,178.56L527.61,175.91L528.06,183.95L528.14,185.34L528.29,189.55L528.59,179.04L528.66,176.17L528.89,170.51L529.12,176.52L529.42,173.24L529.49,173.73L530.02,185.16L530.32,178.38L530.4,174.85L530.77,177.2L531.15,163.03L531.23,165.24L531.3,168.97L531.83,192.6L532.05,181.74L532.13,170.23L532.2,163.69L532.58,182.47L532.81,176.19L532.88,171.2L532.96,168.14L533.33,176.32L533.41,174.48L533.49,179.43L533.64,182.83L533.86,178.12L533.94,118.75L534.01,97.2L534.47,166.68L534.54,160.87L534.62,160.55L534.77,140.24L535.29,179.63L535.37,183.33L535.52,183.75L535.6,183.57L535.67,179.51L535.82,159.35L536.42,173.06L536.5,170.7L536.57,166.85L537.03,176.76L537.1,180.2L537.18,183.63L537.48,177.21L537.55,164.62L537.63,153.23L538.08,169.61L538.23,166.78L538.31,164.78L538.38,160.8L538.84,170.39L538.91,174.85L538.99,178.27L539.29,172.54L539.36,158.34L539.44,151.53L539.89,165.52L540.04,164.08L540.12,158.53L540.19,155.57L540.64,167.8L540.72,171.83L540.87,175.68L541.1,174.19L541.17,155.31L542,120.89L542.08,128.76L542.68,177.33L542.9,174.66L542.98,168.96L543.81,118.55L543.88,144.4L543.96,157.52L544.56,188.89L544.86,170.98L544.94,174.9L545.32,175.58L545.69,157.98L545.92,165.91L545.99,170.95L546.37,192.44L546.52,175.54L546.6,157.97L547.05,158.07L547.43,132.3L547.5,136.15L548.25,173.45L548.33,167.27L548.41,147.11L548.93,149.51L549.23,110.47L549.31,105.44L549.99,174.78L550.14,167.51L550.21,152.16L550.29,137.06L550.67,165.24L550.89,159.38L550.97,155.88L551.04,150.14L551.49,170.9L551.57,176.5L551.87,190.06L551.95,176.03L552.02,158.14L552.1,143.07L552.7,163.55L552.78,159.11L552.85,155.94L553.23,168.17L553.3,171.18L553.6,196.02L553.91,170.1L553.98,163.61L554.13,156.17L554.51,167.22L554.73,162.67L554.81,165.04L555.56,194.51L555.71,187.84L555.79,181.14L556.47,171.61L556.62,173.03L556.69,176.31L557.3,188.12L557.45,177.92L557.52,167.73L557.9,178.16L558.2,169.6L558.28,163.16L558.95,186.5L559.18,180.34L559.26,166.84L559.63,173.21L560.16,129.71L560.24,151.61L560.84,179.71L560.99,171.44L561.06,153.51L561.14,124.45L561.52,163.81L561.82,148.41L561.89,132.24L561.97,126.89L562.19,160.24L562.27,165.58L562.65,178.45L562.8,171.8L562.87,157.99L562.95,143.5L563.4,164.18L563.55,162.44L563.63,156.87L563.7,153.52L564.08,169.58L564.15,171.22L564.3,177.67L564.61,169.15L564.68,151.59L564.76,138.57L565.13,159.6L565.36,158.7L565.43,155.32L565.51,149.19L565.96,167.65L566.04,173.85L566.26,184.38L566.56,165.28L566.64,159.62L567.39,149.48L567.47,152.45L567.54,155.8L568.15,173.43L568.37,165.15L568.45,156.44L569.2,128.55L569.28,146.37L569.35,149.58L569.88,170.98L570.11,151.97L570.18,142.85L570.56,158.03L570.86,142.31L570.94,126.11L571.76,168.21L571.84,162.56L571.91,144.93L572.14,127.44L572.59,153.54L572.67,151.98L572.74,144.33L573.2,168.16L573.27,173.18L573.5,176.65L573.65,173.01L573.72,157.35L574.55,138.69L574.63,139.7L575.31,168.24L575.46,159.89L575.53,133.96L575.61,103.98L575.98,141.3L576.28,125.43L576.36,116.72L576.44,112.23L576.66,136.16L576.74,145.46L577.11,163.01L577.26,153.14L577.34,130.59L578.17,85L578.24,106.56L578.85,157.68L579.15,140.54L579.22,128.59L580.05,98.77L580.13,103.81L580.81,156.25L581.03,140.19L581.11,130.78L581.86,115.93L581.94,126.6L582.61,174.79L582.92,159.05L582.99,154.69L583.52,142.82L583.59,129.71L583.67,124.62L583.97,143.93L584.05,149.85L584.27,166.67L584.57,128.99L584.65,101.99L585.03,139.33L585.4,114.23L585.48,117.67L586.16,163.97L586.31,153.13L586.38,125.29L586.46,103.68L586.76,127.11L587.14,119.45L587.21,111L587.66,149.55L587.74,154.54L588.04,161.91L588.19,137.12L588.27,129L588.87,165.94L589.09,155.15L589.17,155.39L589.25,155.26L589.32,157.55L589.85,191.13L590,160.31L590.07,148.4L590.45,167.66L590.83,156.95L590.9,159.14L591.66,185.35L591.73,178.61L591.81,170.59L592.11,145.22L592.71,147.5L592.79,149.74L592.94,155.62L593.01,162.89L593.47,172.13L593.62,165.28L593.69,158.79L594.52,118.05L594.67,127.36L594.75,136.23L595.27,157.18L595.35,152L595.42,136.32L595.88,139.5L596.33,105.56L596.4,105.42L597.08,160.62L597.23,123L597.31,95.56L597.91,127.75L598.06,113.37L598.14,114.38L598.81,159.88L598.97,147.69L599.04,125.6L599.87,63.82L599.95,72.1L600.7,153.53L600.85,124.8L600.92,93.9L601.3,123.99L601.6,89.42L601.68,53.21L602.36,157.91L602.66,123.66L602.73,81.81L602.81,82.6L602.88,69.15L603.34,103.57L603.49,47.98L603.56,57.95L604.24,152.11L604.47,133.64L604.54,111.35L605.3,30.86L605.37,47.72L605.45,72.04L606.05,140.98L606.35,127.78L606.43,110.2L607.18,74.48L607.25,89.22L607.33,99.49L607.78,135.57L608.08,119.46L608.16,102.78L608.23,120.91L608.84,95.87L608.91,84.93L608.99,84.55L609.06,86.14L609.14,99.5L609.67,136.13L609.82,124.72L609.89,97.01L610.65,-5.89L610.72,20.28L610.8,70.14L611.47,134.13L611.62,125.09L611.7,93.91L611.85,-62.65L612.45,20.33L612.53,46.16L613.36,137.6L613.51,103.97L613.58,65.83L613.73,61.99L614.19,100.26L614.26,78.95L614.34,64.86L615.09,146.16L615.32,111.07L615.39,83.13L616.3,122L616.37,123.88L616.9,157.96L617.2,136.51L617.28,123.53L617.43,108.03L617.73,128.09L618.03,119.31L618.1,129.35L618.78,167.49L619.01,157.95L619.08,152.45L619.31,136.68L619.84,150.35L619.91,151.95L620.59,184.08L620.74,165.31L620.82,157.13L621.27,162.64L621.5,152.41L621.57,147.76L621.65,146.33L621.87,153.7L621.95,155.65L622.32,179.21L622.48,172.37L622.55,149.35L623.38,126.55L623.45,124.1L624.13,164.84L624.28,158.46L624.36,135.3L624.43,115.09L625.04,136.27L625.11,131.53L625.19,129.17L626.02,165.02L626.09,157.81L626.17,141.61L626.24,115.35L626.92,128.66L627,120.09L627.67,158.96L627.9,150.32L627.98,126.24L628.05,97.26L628.73,113.19L628.8,107.3L628.96,115.59L629.03,122.55L629.63,161.3L629.86,137.9L629.93,121.85L630.01,112.52L630.39,140.53L630.54,135.68L630.61,132.5L631.52,173.26L631.74,159.39L631.82,153.94L631.89,151.33L632.27,164.89L632.35,164.72L632.42,160.74L632.87,174.71L632.95,177.81L633.25,187.44L633.48,166.11L633.55,173.98L633.63,170.47L633.93,178.47L634,176.03L634.08,171.52L634.38,162.91L634.68,171.96L634.76,175.5L634.98,179.49L635.13,172.63L635.21,157.74L635.28,147.66L635.74,162.46L635.89,161.47L635.96,159.71L636.04,155.93L636.42,170.1L636.49,172.09L636.79,180.64L637.02,160.57L637.09,150.65L637.62,162.14L637.85,152.74L637.92,152.53L638.68,184.45L638.75,177.66L638.83,161.48L639.35,162.42L639.66,144.71L639.73,144.13L640.48,179.72L640.63,164.26L640.71,148.69L641.31,163.34L641.46,156.37L641.54,156.44L641.77,160.67L641.84,168.52L642.22,193.93L642.52,169.1L642.59,163.71L643.35,151.47L643.42,155.69L643.5,158.34L644.03,193.69L644.33,178.39L644.4,168.06L645.08,144.8L645.31,151.92L645.38,157.18L645.98,173.23L646.06,165.56L646.14,151.41L647.11,170.35L647.19,171.51L647.79,185.19L647.94,176.05L648.02,166.95L648.09,155.7L648.77,160.6L648.85,162.53L648.92,159.07L649.22,168.91L649.3,178.37L649.9,143.94L650.28,148.67L650.36,150.03L650.73,148.4L650.81,150.43L650.88,158.89L651.03,157.83L651.11,159.72L651.18,161.43L651.33,163.15L651.41,157.34L651.56,127.79L652.24,136.8L652.31,135.2L652.62,152.66L652.69,158.21L653.07,181.75L653.37,154.81L653.44,163.13L653.52,155.5L653.67,157.35L654.12,147.13L654.35,150.06L654.42,154.98L655.03,178.66L655.18,167.68L655.25,158.66L655.93,144.72L656.08,147.33L656.16,148.57L656.84,170.11L656.99,162.32L657.06,157.87L657.21,148.85L657.51,159.61L657.81,148.94L657.89,153.57L658.57,181.29L658.72,169.82L658.79,162.02L658.87,166.45L659.4,161.17L659.47,157.46L659.55,153.94L660,163.28" style="fill: rgb(54, 112, 97); fill-opacity: 0.5; stroke-width: 0;"/></g></g><g class="errorbars"/><g class="lines"><path class="js-line" d="M0,156.09L0.53,175.48L0.68,152.71L0.75,146.93L0.83,142.12L1.13,150.4L1.43,147.69L1.51,147.94L1.58,148.28L1.66,154.71L1.73,155.01L1.81,150.7L2.03,156.54L2.26,131.46L2.34,108.19L2.79,127.68L3.01,114.12L3.09,103.56L3.16,101.08L3.32,112.43L3.39,121.27L3.77,147.11L3.99,134.78L4.07,112.5L4.14,78.69L4.82,94.99L4.9,85.52L5.12,98.35L5.2,114.55L5.65,165.94L5.95,118.19L6.03,129.77L6.56,133.19L6.71,120.41L6.78,123.72L6.86,125.05L7.23,155.14L7.31,159.2L7.46,164.06L7.61,155.14L7.69,133.8L8.51,91.78L8.59,91.91L8.67,100.7L9.34,164.28L9.64,133.64L9.72,123.09L9.87,122.17L9.95,126.7L10.02,130.45L10.1,130.94L10.17,126.73L10.25,123.25L10.32,108.98L10.85,149.59L10.93,159.24L11.15,167.59L11.3,160.26L11.38,150.55L11.6,133.31L11.98,151.12L12.13,147.81L12.21,147.26L12.58,183.71L12.66,191.58L12.89,200.37L13.26,179.37L13.34,164.16L13.49,162.72L13.56,163.21L13.64,166.48L14.02,153.04L14.32,164.13L14.39,172.55L14.69,189.67L14.92,151.72L14.99,135.87L15.15,134.6L15.45,151.01L15.67,139.59L15.75,126.22L16.35,174.12L16.65,163.34L16.73,137.1L16.8,116.64L17.26,139.98L17.41,139.28L17.48,137.21L17.56,129.87L17.86,154.89L17.93,164.87L18.31,194.88L18.54,166.29L18.61,141.98L19.06,158.24L19.37,144.34L19.44,144.15L19.89,180.26L19.97,200.41L20.27,185.17L20.34,158.89L20.42,140.53L20.87,161.72L21.1,156.17L21.17,146.62L21.25,144.86L21.4,152.19L21.48,158.8L21.85,196.67L22.23,165.99L22.3,154.54L22.45,147.07L22.76,161.58L23.06,150.86L23.13,153.69L23.74,177.49L23.81,188.97L23.96,185.02L24.04,169.99L24.34,143.2L24.94,149.75L25.02,151.15L25.62,198.62L25.92,192.26L26,176.47L26.67,149.25L26.82,150.53L26.9,153.12L27.28,169.33L27.5,153.78L27.58,131.52L27.65,108.95L28.11,137.84L28.33,127.39L28.41,116.99L28.48,115.43L28.56,121.63L28.63,130.2L29.09,168.74L29.31,158.8L29.39,136.66L29.46,122.88L29.84,147.61L30.14,131.53L30.22,124.68L30.74,157.86L30.82,163.38L30.89,163.02L31.04,163.99L31.12,156.84L31.27,112.95L31.87,142.13L31.95,134.73L32.02,125.85L32.48,153.14L32.55,160.87L32.85,166.42L32.93,158.63L33,137.82L33.08,110.32L33.76,115.8L33.83,111.39L34.51,152.66L34.81,138.51L34.89,131.77L35.11,79.63L35.64,111.05L35.72,106.47L36.47,141.28L36.62,136.14L36.7,122.88L37.52,78.19L37.6,100.24L38.05,134.48L38.35,127.37L38.43,107.74L39.11,110.96L39.26,77.2L39.33,71.13L40.09,137.85L40.16,130.6L40.24,105.77L40.31,43.94L40.99,85.28L41.07,63.82L41.14,64.51L41.22,100.45L41.82,153.59L42.05,124.85L42.12,111.28L42.27,75.46L42.57,115.26L42.87,83.3L42.95,127.33L43.7,167.51L43.78,161.2L43.85,141.42L43.93,111.15L44.53,156.33L44.61,149.57L44.76,138.28L45.21,162.84L45.29,168.36L45.44,169.27L45.51,168.43L45.59,162.28L45.74,127.36L46.42,139.02L46.49,132.49L46.57,132.28L46.64,134.48L47.17,161.4L47.4,156.28L47.47,140.28L47.77,87.33L48.3,89.81L48.38,122.9L49.05,157.78L49.35,146.67L49.43,138.09L49.58,125.95L49.96,145.59L50.18,136.89L50.26,139.88L50.64,158.58L50.71,161.81L50.94,165.19L51.01,160.42L51.09,147.43L51.16,137.88L51.69,162.34L51.77,164.52L51.92,157.64L52.37,173.55L52.44,179.08L52.67,190.77L52.82,178.27L52.9,156.03L52.97,146.84L53.5,170.48L53.57,168.37L53.88,155.19L54.25,169.81L54.33,173.66L54.48,173.26L54.55,170.8L54.78,131.99L55.16,156.37L55.23,156.85L55.53,145.94L55.84,155.16L55.91,161.37L56.36,171.19L56.44,164.08L56.51,143.7L56.59,125.31L57.04,150.87L57.19,148.49L57.27,144.19L57.34,133.51L57.87,158.6L57.94,162.71L58.02,164.02L58.17,158.71L58.25,152.06L59.15,93.61L59.23,90.95L59.45,116.94L59.53,131.24L59.9,160.66L60.28,136.03L60.36,128.96L60.73,140.15L60.96,128.76L61.03,128.15L61.56,151.96L61.94,140.21L62.01,130.71L62.16,89.43L62.69,122.43L62.77,115.92L62.84,113.76L62.99,128.6L63.07,135.72L63.6,158.68L63.75,139.1L63.82,130.45L64.27,150.5L64.5,140.71L64.58,130.61L64.65,127.69L64.95,140.71L65.03,143.38L65.33,154.5L65.48,143.42L65.56,100.56L65.63,67.23L66.16,131.38L66.23,126.91L66.31,105.12L66.38,92.85L66.84,142.56L66.91,150.43L67.21,154.5L67.29,146.78L67.36,126.88L67.44,116.76L67.82,140.79L67.97,139.7L68.04,142.5L68.27,131.16L68.64,144.47L68.72,154.6L68.87,160.42L69.1,150.2L69.17,133.81L69.25,118.38L69.78,147.22L69.85,149.92L70,142.04L70.3,152.77L70.38,159.63L70.83,176.26L70.91,170.75L70.98,155.4L71.06,143.32L71.66,165.5L71.73,160.83L71.96,154.84L72.19,164.26L72.26,166.55L72.41,174.12L72.79,161.74L72.86,153.78L73.09,136.64L73.54,155.57L73.62,150.99L73.69,151.68L73.92,158.95L73.99,166.35L74.52,177.21L74.67,168.56L74.75,162.24L75.2,163.43L75.5,144.04L75.58,147.85L75.65,153.97L76.1,168.78L76.33,161.6L76.41,147.71L76.48,135.74L77.01,160.92L77.08,160.18L77.16,151.94L77.31,146.04L77.69,161.21L77.76,166.23L77.91,171.84L78.21,147.38L78.29,136.35L78.82,167.41L79.04,148.45L79.12,148.51L79.19,146.35L79.5,159.54L79.57,164.78L79.72,167.88L79.95,159L80.02,138.81L80.1,81.64L80.7,145.59L80.78,129.2L80.85,106.9L80.93,98L81.15,144.02L81.23,152.61L81.3,151.06L81.38,159.39L81.45,164.85L81.61,165.07L81.68,165L81.76,157.73L81.98,110.72L82.51,147.42L82.58,142.13L82.74,138.81L82.96,150.91L83.04,155.97L83.26,169.04L83.56,162.36L83.64,141.05L83.87,123.65L84.17,154.36L84.24,152.47L84.32,152.75L84.62,141.01L84.92,159.1L85,161.27L85.3,174.71L85.6,157.26L85.67,149.21L85.75,147.74L85.9,154.05L85.98,158.4L86.35,154.19L87.03,183.06L87.18,178.69L87.26,172.62L87.56,145.69L88.16,150.35L88.24,150.4L88.84,169.05L88.99,161.11L89.06,148.7L89.14,132.35L89.67,161.08L89.74,160.23L89.82,153.44L89.97,142.05L90.42,165.82L90.5,174.24L90.72,187.93L90.95,145.97L91.1,161.06L91.17,166.13L91.55,175.36L91.7,158.61L91.78,154.35L92,158.55L92.08,165.14L92.31,187.36L92.68,159.3L92.76,144.22L93.06,159.03L93.44,147.66L93.51,138.98L93.59,124.96L94.11,165.17L94.19,165.33L94.34,165.34L94.41,160.02L94.57,129.29L95.17,150.14L95.24,142.05L95.32,138.99L95.62,145.81L95.7,153.22L95.85,160.39L95.92,163.46L96.15,163.94L96.22,158.72L96.37,130.71L96.98,154.41L97.05,145.54L97.2,138.33L97.58,157.95L97.65,160.49L97.88,168.85L98.18,154.4L98.26,148.67L98.41,138.63L98.79,152.59L99.01,144.45L99.09,147.73L99.69,169.3L99.99,162.14L100.07,153.66L100.22,148.13L100.52,162.21L100.82,148.3L100.9,148.31L101.42,166.36L101.65,158.46L101.72,146.07L101.8,135.19L102.25,164.84L102.33,166.08L102.7,138.93L102.85,148.07L102.93,152.48L103.23,164.85L103.46,155.58L103.53,136.63L103.68,115.3L104.14,161.8L104.21,161.68L104.51,141.18L104.89,159.69L104.96,162.95L105.04,165.59L105.27,156.66L105.34,141.23L105.42,126.81L105.94,160.12L106.02,160.12L106.25,140.75L106.7,159.27L106.77,167.16L106.85,167.29L106.92,164.81L107,164.63L107.07,158.53L107.22,111.29L107.68,160.56L107.75,160.23L107.83,162.13L107.9,156.42L107.98,147.6L108.13,142.95L108.43,154.46L108.51,160.56L108.66,166.15L108.96,141.66L109.03,124.02L109.64,158.62L109.79,145.34L109.86,140.19L110.39,161.1L110.77,154.58L110.84,147.67L111.07,129.42L111.37,159.76L111.44,158.19L111.52,155.82L111.59,150.3L112.12,161.96L112.2,167.25L112.35,167.04L112.42,169.07L113.55,137.97L113.63,141.28L113.7,146.98L114.01,159.74L114.31,150.23L114.38,137.32L114.46,122.34L114.91,154.18L114.99,153.51L115.06,151.98L115.36,108.85L115.66,141.16L115.74,143.92L115.89,154.74L116.19,120.5L116.27,75.6L116.87,143.23L117.1,108.3L117.17,98.2L117.7,156.73L118,132.72L118.08,115.66L118.68,146.35L118.83,125.39L118.9,106.2L119.58,147.7L119.73,134.23L119.81,104.61L119.88,70L120.49,129.34L120.56,121.46L120.79,94.52L121.09,136.48L121.16,142.26L121.39,149.5L121.54,140.44L121.62,113.96L121.69,85.33L122.29,140.04L122.37,133.86L122.6,104.86L122.97,142.36L123.05,148.21L123.2,149.06L123.35,143.75L123.43,134.17L123.73,106.19L124.25,115.8L124.33,110.57L125.01,153.07L125.23,141.57L125.31,133.53L125.38,125.41L125.84,149.41L125.91,148.87L125.99,142.38L126.21,128.24L126.59,148.93L126.67,153.01L126.89,154.43L126.97,149.9L127.04,138.88L127.12,128.04L127.64,157.02L127.72,158.38L127.95,133.85L128.32,154.87L128.4,162.09L128.62,173.55L128.85,146.74L128.93,136.69L129.53,155.74L129.68,147.84L129.75,145.43L129.83,143.98L129.98,152.41L130.06,156.82L130.51,167.75L130.58,163.55L130.66,146.06L130.73,130.05L131.34,160.16L131.41,151.82L131.71,136.97L132.09,157.05L132.17,154.88L132.24,154.71L132.32,152.12L132.54,96.94L132.77,141.51L132.84,148.77L132.99,157.94L133.37,134.94L133.45,135.8L133.52,134.74L133.67,141.46L133.75,143.82L133.97,157.62L134.28,131.32L134.35,97.24L134.8,158.63L135.18,140.3L135.26,141.05L135.86,170.16L136.08,160.85L136.16,154.71L136.99,140.76L137.06,144.49L137.52,166.2L137.59,168.93L137.67,169.5L137.82,168.04L137.89,163.17L138.19,148.49L138.42,163.83L138.5,166.4L138.72,152.34L138.8,147L139.55,170.72L139.63,166.02L139.7,154.53L139.78,145.3L140.23,162.98L140.38,161.42L140.45,155.84L140.61,150.18L141.06,164.55L141.13,169.74L141.28,170L141.36,169.93L141.43,164.35L141.58,138.67L142.11,164.32L142.19,163.78L142.49,141.41L142.79,156.53L142.87,161.94L143.09,167.27L143.32,145.05L143.39,134.09L144,155.92L144.15,145.25L144.22,142.76L144.6,160.22L144.67,166.46L144.98,175.31L145.13,153.04L145.2,141.53L145.8,168.64L146.03,156.06L146.11,153.26L146.26,155.85L146.33,162.08L146.78,189.23L146.86,176.16L146.93,158.52L147.01,147.27L147.54,170.36L147.61,168.92L147.91,153.51L148.22,167.62L148.29,172.3L148.59,183.43L148.89,163.1L148.97,159.64L149.42,166.01L149.72,155.71L149.8,155.84L149.87,162.6L150.4,198.99L150.63,178.16L150.7,167.56L150.93,155.26L151.53,157.81L151.61,159.02L152.21,172.14L152.28,169.18L152.36,156.15L152.44,144.1L152.96,165.41L153.04,162.88L153.11,156.29L153.34,140.02L153.79,160.67L153.87,162L154.09,148.66L154.17,123.13L154.24,122.6L154.32,142.08L154.39,142.42L154.47,150.61L154.85,161.6L155,144.25L155.07,140.45L155.15,136.49L155.45,151.43L155.52,157.4L155.6,160.63L155.83,154.04L155.9,139.69L156.05,92.07L156.43,151.98L156.58,151.35L156.65,152.39L156.88,109.09L157.11,139.8L157.18,150.64L157.41,162.4L157.63,160.5L157.71,152.19L157.86,103.62L158.39,150.53L158.46,152.27L158.69,114.9L159.07,155.42L159.14,161.73L159.37,165.56L159.52,157.49L159.59,127.8L159.67,107.74L160.05,154.8L160.2,154.48L160.27,156.53L160.57,133.3L160.87,153.88L160.95,162.43L161.1,167.57L161.4,152.49L161.48,141.29L161.63,130.49L162,155.58L162.08,154.32L162.16,150.53L162.31,141.03L162.76,164.79L162.83,167.14L162.91,169.23L163.29,162.08L163.36,155.13L163.89,161.48L164.11,148.5L164.19,150.3L164.27,150.65L164.72,167.67L165.02,151.23L165.09,146.47L165.7,168.07L165.85,154.41L165.92,143.73L166.07,140.1L166.15,146.7L166.22,150.77L166.3,151.01L166.38,156.46L166.6,162.97L166.75,148.49L166.83,117.65L166.9,101.22L167.35,165.67L167.43,163.38L167.66,145.17L167.73,127.41L167.81,122.85L168.03,149.41L168.11,150.24L168.33,163.18L168.56,154.31L168.64,112.48L168.71,101.49L169.01,159.25L169.09,162.2L169.16,165.1L169.39,155.97L169.46,146.22L169.62,136.93L169.99,160.15L170.07,165.49L170.22,165.34L170.29,161.5L170.52,114.11L170.59,147.41L170.67,150.4L171.05,163.61L171.35,146.95L171.42,149.78L171.5,149.45L171.57,152.18L171.65,157.28L171.73,155L172.03,167.07L172.1,166.05L172.33,128.5L172.7,151.95L172.78,151.56L173.16,136.74L173.46,149.88L173.53,153.26L173.68,163.34L174.14,150.27L174.21,146.26L174.36,139.75L174.66,158.1L175.04,139.84L175.12,142.35L175.79,165.01L175.94,159.34L176.02,153.8L176.17,148.4L176.47,170.3L176.55,168.93L176.92,151.34L177.23,168.01L177.3,173.32L177.53,173.61L177.6,168.35L177.75,149.16L178.21,184.14L178.28,183.84L178.66,154.95L179.03,177.51L179.11,180.73L179.26,182.57L179.41,176.54L179.49,164.66L179.56,158.3L179.86,191.41L179.94,193.34L180.01,195.83L180.24,186.26L180.32,168.73L180.39,166L180.69,183.35L180.77,196.03L180.99,199.48L181.14,186.14L181.22,172.92L181.37,142.33L181.97,170.42L182.05,165.25L182.35,148.14L182.65,176.08L182.73,182.41L182.95,182.93L183.03,177.8L183.33,162.2L183.78,173.97L183.86,172.38L184.08,160.9L184.46,180.38L184.53,186.03L184.69,187.58L184.84,182.95L184.91,175.15L185.14,166.81L185.51,177.39L185.74,168.21L185.82,167.7L185.89,167.08L186.04,169.89L186.12,173.9L186.34,177.33L186.72,169.77L186.8,166.92L187.62,145.67L187.7,148.37L187.77,148.3L188.38,175.15L188.68,163.22L188.75,154.91L189.73,169.02L189.81,169.33L190.11,177.85L190.41,169.02L190.49,166.3L190.71,162.42L190.94,174.73L191.01,176.21L191.39,163.63L191.77,172.28L191.84,172.53L191.99,171.33L192.07,165.13L192.15,128.43L192.75,195.36L192.82,195.23L193.12,160.04L193.58,180.66L193.65,180.62L193.88,176.6L193.95,152.14L194.03,140.49L194.41,193.62L194.48,194.12L194.56,196.55L194.71,195.48L194.78,172L194.93,165.76L195.31,178.79L195.39,183.23L195.84,151.7L195.91,191.68L195.99,190.49L196.29,194.98L196.36,197L196.59,195.39L196.67,164.93L197.27,186.35L197.5,182.04L197.57,166.87L198.17,196.08L198.4,194.71L198.47,170.75L198.55,166.92L198.93,181.58L199,184.11L199.45,177.94L199.53,191.46L199.6,192.82L199.98,197.42L200.21,194.78L200.28,167.69L200.43,167.24L200.51,172.89L201.56,199.73L201.79,198.81L201.87,197.35L201.94,196.21L202.02,173.21L202.24,169.14L202.47,179.34L202.54,183.34L202.69,189.35L203,172.17L203.07,162.85L203.52,188.79L203.75,164.32L203.82,156.35L204.05,153.07L204.28,163.5L204.35,174.34L204.58,178.84L204.65,173.48L204.73,161.77L204.88,120.48L205.48,159.31L205.56,152.69L205.86,140.01L206.16,164.72L206.24,167.57L206.39,168.21L206.46,166.66L206.54,159.35L206.69,130.25L207.14,165.92L207.22,165.52L207.29,160.62L207.67,144.64L207.89,157.43L207.97,163L208.12,168L208.35,158.39L208.42,137.45L208.5,129.1L208.8,157.65L208.87,157.54L208.95,160.59L209.17,155.53L209.25,147.98L209.48,142.41L209.63,153.57L209.7,152.75L209.78,160.2L209.93,166.55L210.15,155.92L210.23,127.71L210.3,125.81L210.38,152.65L210.61,160.86L210.68,165.99L210.76,165.86L210.83,168.76L211.21,125.95L211.36,148.56L211.44,157.26L211.89,170.86L212.04,159.12L212.11,158.06L212.34,146.82L212.64,166.3L212.94,148.46L213.02,146.39L213.09,143.75L213.32,162.71L213.39,162.47L213.7,171.97L214,160.34L214.07,153.86L214.22,160.26L214.3,165.19L214.45,171.72L214.83,153.15L214.9,151.89L215.88,186.69L215.96,173.41L216.03,174.44L216.33,176.86L216.41,170.93L216.48,159.85L216.71,149.35L216.94,162.13L217.01,173.14L217.24,183.19L217.61,167.76L217.69,159.5L218.07,171.09L218.29,160.42L218.37,155.52L218.52,148.19L218.82,167.29L218.89,172.55L219.2,162.93L219.27,136.71L219.35,130.03L219.42,150.6L219.5,188L219.57,191.62L219.65,162.57L219.87,175.25L219.95,170.52L220.33,146.9L220.63,170.09L220.7,175.58L220.78,176.25L220.85,172.49L220.93,173.77L221,168.07L221.08,147.04L221.68,177.68L221.76,172.46L222.13,149.89L222.44,171.86L222.51,176.98L222.74,174.29L222.81,167.67L222.96,138.96L223.42,178.52L223.49,175.77L223.57,171.79L223.87,145.11L224.24,174.4L224.32,176.81L224.62,173.98L224.7,167.72L224.92,159.69L225.3,174.42L225.45,173.87L225.53,167L225.68,167.29L225.75,163.64L226.43,181.91L226.58,176.15L226.66,168.85L226.73,166.77L226.96,179.01L227.03,182.57L227.18,177.37L227.26,174.58L227.56,159.58L227.94,177.48L228.01,177.25L228.09,177.4L228.16,179.32L228.39,164.1L228.46,177.01L228.54,195.61L228.92,201.47L228.99,185.73L229.07,180.41L229.37,161.95L229.75,179.41L229.82,182.32L230.2,155.52L230.27,192.8L230.35,191.22L230.72,197.43L230.8,196.87L230.88,177.14L231.18,165.38L231.48,184.92L231.55,189.13L231.86,184.5L231.93,170.97L232.01,165.87L232.23,195.59L232.31,196.2L232.46,195.92L232.53,197.21L232.68,196.06L232.76,173.72L232.83,173.56L232.91,171.09L233.66,197.67L234.19,194.47L234.27,194.37L234.34,196.67L234.72,193.62L234.79,174.1L235.32,197.23L235.85,193.1L235.92,192.75L236.15,196.42L236.23,182L236.53,172.89L236.83,179.87L236.9,184.33L237.28,197.37L237.81,196.12L237.88,196.47L237.96,198.09L238.34,194.61L238.56,197.28L238.64,195.75L239.16,195.34L239.62,203.93L239.69,203.99L239.77,204.6L239.84,201.29L239.92,198.65L240.14,184.39L240.37,188.81L240.45,191.24L241.58,205.02L241.65,200.15L242.03,184.27L242.25,190.18L242.33,195.44L242.4,199.22L242.86,190.65L243.01,191.87L243.08,194.42L243.16,194.21L243.31,194.72L243.38,197.56L243.46,197.76L243.69,196.76L243.76,194.36L243.91,183.38L244.29,199.42L244.44,198.57L244.51,197.85L244.66,175.53L245.19,203.46L245.27,200.69L245.57,181.34L245.72,190.49L245.8,196.61L245.87,189.14L246.02,199.81L246.47,190.46L246.55,201.42L246.7,191.14L247,206.49L247.15,202.71L247.23,184.8L247.45,175.16L247.83,185.36L247.91,185.36L247.98,185.5L248.21,169.94L248.28,165.88L248.73,200.46L249.04,196.51L249.11,172.89L249.26,170.53L249.41,178.7L249.49,177.23L249.56,182.23L250.09,178.75L250.54,197.26L250.62,198.47L250.77,196.67L250.84,173.54L250.99,171.2L251.15,176.36L251.22,181.64L252.43,205.19L252.5,205.06L252.8,182.58L253.1,192.89L253.18,196.93L254.08,205.06L254.16,205L254.23,205.47L254.39,204.71L254.46,199.99L254.91,192.34L255.21,198.45L255.29,198.33L255.52,191.26L256.04,198.17L256.12,198.11L256.42,195.39L256.72,196.58L256.8,197.13L257.32,193.15L257.7,201.64L257.78,201.69L257.85,204.28L258.08,185.44L258.15,182.12L258.38,181.64L258.45,186.03L259.66,204.2L259.74,202.15L259.89,202.06L259.96,200.09L260.11,202.12L260.19,190.08L260.26,189.28L260.41,194.03L260.49,197.94L260.64,198.87L260.94,193.94L261.17,198.56L261.24,200.03L261.47,204.04L261.62,200.69L261.69,184.54L261.92,179.56L262.22,190.73L262.3,192.52L262.37,190.78L262.6,199.16L262.82,196.97L262.9,197.62L263.28,204.6L263.5,199.12L263.58,184.15L263.65,182.42L264.03,191.31L264.11,193.06L264.26,193.12L264.33,195.12L264.41,195.42L264.48,193.57L264.56,198.11L264.71,202.1L264.78,204.41L265.09,205.1L265.16,203.88L265.24,188.72L265.31,182.57L265.91,195.73L265.99,195.77L266.14,196.02L266.22,200.4L266.29,197L266.59,205.54L266.82,205.53L266.89,205.58L267.27,180.85L267.65,191.86L267.72,193.86L267.8,194.42L267.95,192.59L268.02,190.22L268.1,180.32L268.63,203.8L268.7,204.53L268.85,204.48L268.93,201.27L269.08,179.65L269.38,187.65L269.46,193.11L269.76,199.88L269.91,191.41L270.36,197.22L270.43,197.32L270.81,198.96L270.89,197.41L270.96,187.06L272.32,204.51L272.39,201.46L272.85,189.98L273.15,200.12L273.22,201.75L273.6,195.05L273.9,199.2L273.98,202.9L274.05,203.68L274.28,198.83L274.35,198.5L274.58,181.01L275.11,192.83L275.18,194.4L275.33,191.62L275.41,189.76L275.94,199.79L276.16,199.33L276.24,184.5L276.31,182.86L276.61,189.57L276.69,193.14L277.67,206.35L277.74,207L278.2,189.8L278.5,195.1L278.57,204.99L279.03,200.43L279.18,205.98L279.33,203.75L279.4,205.39L279.55,206.95L279.78,203.35L279.85,201.67L280.08,203.29L280.16,195.02L280.68,200.37L280.91,197.99L280.98,196.27L281.66,199.82L281.81,198.15L281.89,191.48L282.19,200.47L282.64,196.35L282.72,198.05L282.79,196.34L283.32,199.82L283.4,199.83L283.85,198.06L284.07,200L284.15,199.96L284.3,199.57L284.37,192.23L285.13,199.66L285.43,197.76L285.51,197.45L286.03,199.71L286.11,199.65L286.18,195.26L287.09,199.14L287.16,197.23L287.46,198.05L287.54,199.92L287.77,200.11L287.92,199.65L287.99,197.19L288.52,197.39L288.59,199.23L288.97,197.16L289.05,199.05L289.2,196.13L289.57,199.49L289.8,197.67L289.88,197.65L290.03,200.93L290.1,203.16L290.4,204.26L290.55,200.76L290.63,199.49L291.01,194.07L291.23,201.81L291.31,202.04L291.61,197.79L291.91,204.8L291.99,204.96L292.21,205.65L292.29,205.26L292.36,200.67L292.81,191.74L292.96,197.7L293.04,201.28L293.49,193.85L293.87,197.06L293.94,196.73L294.32,198.74L294.55,196.67L294.7,197.35L294.77,197.41L295,199.28L295.3,193.95L295.38,195.99L295.45,193.94L295.83,198.85L296.28,196.51L296.36,196.55L296.81,198.73L296.96,198.52L297.03,193.89L297.11,193.4L297.34,196.06L297.41,195.98L297.49,195.95L297.64,198.02L298.24,195.95L298.31,195.91L298.62,198.29L298.77,197.84L298.84,192.21L299.07,192.11L299.67,197.16L299.75,197.07L299.82,194.6L300.12,195.66L300.2,197.84L300.42,197.98L300.58,197.7L300.65,194.35L300.8,194.16L301.18,194.59L301.25,196.87L301.48,197.03L301.55,194.94L302.23,197.81L302.38,197.7L302.46,195.55L302.69,195.38L302.76,196.38L302.99,200L303.36,195.27L303.44,195.15L304.12,197.79L304.19,197.71L304.27,193.43L304.8,201.68L305.17,197.59L305.25,195.37L305.62,195.51L305.7,197.69L305.93,197.68L306,197.47L306.08,191.55L306.3,190.43L306.45,193.98L306.53,194.13L306.75,196.68L307.36,195.55L307.43,195.7L307.66,197.87L307.96,192.78L308.04,194.95L308.11,192.71L308.71,197.32L308.94,195.09L309.01,195.07L309.47,198.11L309.62,197.64L309.69,192.53L309.92,192.45L310.6,197.03L310.67,194.78L310.9,195.54L310.97,195.91L311.28,198.64L311.43,197.88L311.5,192.83L311.58,192.47L311.65,194.92L311.8,194.92L311.88,194.91L312.03,194.98L312.1,197.21L312.41,197.27L312.48,195.02L312.71,195.77L312.78,197.34L313.08,199.46L313.39,195.62L313.46,195.49L313.84,195.53L313.91,197.69L314.14,197.87L314.21,195.82L314.97,200.68L315.12,198.75L315.19,198.44L315.27,197.72L315.42,201.62L315.49,202.84L315.65,204.61L315.95,199.6L316.02,197.94L316.1,198.07L316.17,199.85L316.32,199.87L316.4,198.87L316.7,200.92L316.85,200.03L316.93,196.43L317,196.68L317.08,200.84L317.53,204.71L317.76,199.23L317.83,199.26L318.21,197.06L318.43,199.49L318.58,198.93L318.66,198.04L318.96,192.44L319.34,199.33L319.41,198.47L319.71,196.35L320.09,197.45L320.17,199.35L320.39,199.42L320.47,199.08L320.54,194.45L320.77,193.15L321,196.48L321.07,196.12L321.15,197.48L321.45,198.01L321.52,195.33L322.2,198.86L322.28,198.83L322.35,193.75L322.58,189.91L322.88,194.29L322.95,197.72L323.26,198.12L323.33,195.92L323.56,196.8L323.71,196.38L323.78,198.38L324.08,198.41L324.16,193.56L324.31,194.98L324.39,192.81L324.69,193.58L324.76,197.61L325.06,197.76L325.14,195.63L325.37,196.31L325.44,196.6L325.82,199.11L326.12,196L326.19,195.98L326.5,196.11L326.57,198.14L326.8,198.04L326.87,196.09L327.63,200.84L327.78,198.88L327.85,197.73L328,199.96L328.08,202.32L328.38,205.77L328.53,200.66L328.61,199.46L328.68,197.47L329.13,204.89L329.21,205.86L329.51,205.87L329.59,204.71L330.19,206.34L330.41,205.87L330.49,205.38L331.39,196.48L331.47,196.16L332,204.4L332.3,199.9L332.37,197.41L332.45,197.1L332.75,198.82L332.83,200.56L333.05,200.55L333.13,200.06L333.2,195.16L333.5,201.93L334.03,200.04L334.11,199.27L334.18,197.32L334.78,200.92L334.86,200.92L334.94,200.61L335.01,196.45L335.24,195.62L335.31,198.97L335.39,199.39L335.69,201.61L335.76,200.8L335.84,199.72L335.99,197.47L336.37,200.03L336.44,201.91L336.52,202.31L336.74,200.56L336.82,195.62L336.89,195.3L337.12,197.7L337.2,198.14L337.35,198.22L337.42,200.08L337.5,200.38L337.72,199.19L337.8,197.31L337.87,197.58L337.95,188.52L338.33,201.09L338.7,197.13L338.78,197.07L339.16,197.34L339.23,199.16L339.46,199.03L339.53,197.05L339.61,197.18L339.68,199.24L339.91,199.01L340.29,201.68L340.36,201.26L340.44,199.02L340.66,198.78L340.74,199.33L340.81,201.11L340.96,202.65L341.34,198.23L341.49,200.35L341.57,200.48L342.02,201.07L342.47,196.78L342.55,199.35L342.7,201.01L343.15,200.13L343.22,198.37L343.6,198.79L343.68,200.58L343.98,200.14L344.05,195.92L344.28,195.65L344.96,199.63L345.03,197.78L345.56,201.1L345.79,200.52L345.86,196.11L346.09,195.95L346.46,199.83L346.77,199.64L346.84,198L347.44,202.03L347.59,201.36L347.67,197.26L347.82,198.55L347.9,196.75L347.97,198.89L348.27,202.73L348.65,199.02L348.72,199.07L349.18,202.2L349.4,201.99L349.48,198.12L349.7,197.6L349.93,199.42L350.01,199.42L350.08,200.98L350.16,201.14L350.31,200.86L350.38,200.86L350.46,199.3L350.76,201.04L350.83,202.42L351.66,199.66L351.81,199.86L351.89,201.42L352.12,201.19L352.19,199.7L352.94,204.6L353.1,202.75L353.17,201.94L353.7,205.87L353.92,202.57L354,201.28L355.2,207.54L355.28,208.8L355.43,210.79L355.73,204.93L355.81,203.45L356.11,204.55L356.18,202.3L356.26,202.75L356.34,204.85L356.56,205.1L356.64,203.13L356.79,199.64L357.31,205.01L357.39,204.79L357.77,201.29L358.07,203.04L358.14,204.05L358.37,204.43L358.45,204.19L358.52,201.34L358.75,201.28L359.2,203.41L359.42,203.04L359.5,202.13L359.95,204.28L360.25,203.99L360.33,201.4L360.55,201.19L361.23,203.42L361.31,202.42L361.46,197.12L361.99,204.4L362.06,204.42L362.36,201.84L362.82,203.88L362.89,203.89L362.97,196.9L363.04,203.91L363.64,202.95L363.72,203.81L363.87,204.66L364.1,203.2L364.32,203.2L364.4,203.2L364.77,204.16L364.85,203.22L364.93,197.55L365.68,204.66L365.9,203.8L365.98,203.75L366.13,195.81L366.58,204.57L366.81,197.78L366.88,199.52L367.04,199.01L367.11,200.06L367.19,202.07L367.49,205.4L368.01,204.81L368.09,204.36L368.17,205.41L368.54,203.14L368.62,203.15L368.69,198.36L368.99,203.87L369.52,201.56L369.6,200.28L370.05,196.93L370.12,202.96L370.2,194.71L370.35,195.14L370.43,202.15L370.95,203.88L371.1,203.42L371.18,200.37L371.78,203.13L372.08,202.78L372.16,201.54L372.54,202.38L372.61,203.55L372.91,203.2L372.99,200.27L373.21,200.17L373.89,202.67L373.97,193.93L374.49,203.16L374.8,200.08L374.87,200.06L375.02,199.9L375.63,202.59L375.7,202.58L375.78,201.25L375.93,194.92L376.23,203.08L376.45,202.99L376.53,203.1L376.98,201.34L377.28,202.63L377.36,202.59L377.58,201.24L377.81,203.24L377.89,202.73L377.96,204.01L378.34,204.86L378.41,203.59L378.49,203.15L378.87,202.62L378.94,203.24L379.02,204.04L379.32,202.02L379.77,202.51L379.84,203.59L380.15,203.45L380.22,201.18L380.82,205.86L381.05,203.32L381.13,202.83L381.2,201.64L381.8,203.25L381.88,202.93L382.26,199.34L382.63,202.17L382.71,202.14L382.93,202.12L383.01,200.8L383.69,203.55L383.76,203.26L383.84,199.81L384.06,199.6L384.22,201L384.29,201.09L384.44,202.44L385.12,201.87L385.19,201.97L385.42,203.17L385.65,200.12L385.8,201.38L385.87,200.11L386.25,203.37L386.7,201.42L386.78,201.41L387.08,205.57L387.38,203.41L387.46,201.03L387.68,200.25L387.91,202.29L387.98,202.71L388.43,201.37L388.81,203.9L388.89,204.01L389.11,204.41L389.19,204.11L389.26,202.36L389.49,201.88L389.79,202.4L389.87,203.52L390.17,201.96L390.24,202.1L390.32,203.46L390.54,202.7L390.92,204.35L391,204.32L391.07,203.62L391.6,203.28L391.67,204.28L391.83,204.23L391.9,198.52L392.13,198.6L392.2,200.53L392.81,204.53L393.03,203.5L393.11,202.34L393.48,205.06L393.86,202.86L393.94,202.88L394.31,203.97L394.39,205.26L394.54,205.89L394.61,204.08L394.69,201.81L394.76,201.46L394.91,202.68L394.99,204.59L395.52,205.33L395.59,204.98L395.67,204.54L396.05,205.83L396.12,206.36L396.42,205.99L396.5,204L397.1,205.88L397.4,205.49L397.48,204.86L397.85,205.4L397.93,205.99L398.23,205.9L398.31,203.98L398.53,203.81L398.68,204.59L398.83,204.41L398.91,205.2L399.13,204L399.21,196.6L399.36,195.61L399.44,197.15L399.51,203.71L399.59,199.86L399.81,205.4L400.26,202.11L400.34,201L400.72,203.84L401.24,203.14L401.32,204.19L401.62,204.92L402.15,202.08L402.3,202.54L402.37,202.7L402.53,203.68L402.83,202.1L402.9,197.19L403.58,205.43L403.73,204.38L403.81,204.1L404.11,203.55L404.26,204.62L404.33,205.25L404.64,203.27L405.09,204.09L405.16,204.89L405.46,204.91L405.54,202.94L405.77,202.6L405.92,204.61L405.99,205.17L406.14,205.25L406.22,204.27L406.52,203.18L406.9,203.64L406.97,204.55L407.27,204.17L407.35,200.88L407.42,200.02L407.88,202.16L407.95,203.36L408.33,201.91L408.48,202.62L408.55,203.43L408.7,203.48L408.78,204.49L409.08,204.09L409.16,200.97L409.23,200.52L409.61,202.11L409.68,202.1L409.76,203.22L410.14,202.1L410.29,202.55L410.36,203.31L410.81,204.74L410.89,204.46L410.96,201.73L411.19,201.46L411.27,202.59L411.34,202.64L411.49,202.65L411.57,203.71L411.87,203.7L411.94,202.32L412.55,205.43L412.7,204.74L412.77,201.82L412.92,202.56L413,201.42L413.3,202.58L413.38,203.64L413.75,201.74L414.05,203.23L414.13,204.23L414.36,204.34L414.51,204.13L414.58,201.68L414.73,200.95L415.11,201.82L415.18,203.3L415.49,202.57L416.24,204.94L416.31,204.71L416.39,203.65L416.69,203.26L416.92,203.9L416.99,204.28L417.29,203.32L417.37,203.43L417.44,204.43L417.6,204.55L417.67,203.65L418.05,204.67L418.2,202.83L418.27,202.51L418.42,202.14L418.8,204.07L419.1,203.98L419.18,202.97L419.55,203.45L419.63,204.38L419.93,204.13L420.01,201.16L420.23,201.12L420.91,203.45L420.99,202.36L421.36,203.21L421.44,204.24L421.74,204.05L421.82,201.31L422.04,201.13L422.72,203.48L422.79,202.39L423.17,203.08L423.25,204.07L423.55,204.1L423.62,201.27L423.85,201.23L424.53,203.59L424.6,202.52L424.75,202.53L424.83,203.46L425.13,204.15L425.51,201.09L425.73,202.22L425.81,202.22L426.26,203.68L426.64,203.5L426.71,203.02L427.09,205.3L427.39,202.22L427.47,202.43L428.45,204.71L428.52,203.08L428.97,205.09L429.28,203.7L429.35,203.58L429.58,203.7L429.65,204.67L430.03,203.72L430.18,204.52L430.25,204.88L430.78,205.28L431.08,202.74L431.16,203.62L431.46,204.47L431.76,204.05L431.84,203.06L432.14,202.66L432.21,203.27L432.29,204.24L432.59,203.83L432.67,201.5L432.82,202.06L432.89,200.27L433.19,201.51L433.27,202.75L433.49,202.85L433.57,194.08L433.72,193.93L433.8,192.73L434.1,204.52L434.55,200.69L434.62,201.88L434.7,200.71L435.23,203.3L435.3,203.08L435.45,194.95L435.98,204.31L436.06,204.3L436.21,203.89L436.28,201.06L437.04,203.4L437.11,203.32L437.19,195.48L437.41,192.87L437.56,199.06L437.64,201.8L437.87,204.53L438.09,201.32L438.39,202.69L438.47,202.9L438.62,202.69L438.69,203.96L438.92,203.73L439,203.73L439.22,195.55L439.67,205.61L439.75,205.79L440.2,203.54L440.5,204.49L440.58,204.54L440.88,203.66L440.95,204.73L441.03,204.46L441.33,205.79L441.41,205.81L441.48,205.82L441.63,205.9L441.71,205.29L441.78,205.22L441.86,205.15L442.24,205.11L442.31,205.75L442.39,205.71L443.06,205.06L443.14,205.8L443.44,205.9L443.52,204.69L443.74,204.56L444.42,205.79L444.5,205.15L444.65,205.05L444.87,205.41L444.95,206.03L445.25,206.1L445.32,204.19L445.4,204L445.63,204.82L445.85,204.86L445.93,205.48L446.68,205.48L446.76,206.04L447.06,205.8L447.13,203.81L447.36,203.73L448.04,205.21L448.11,204.47L448.64,205.9L448.87,205.64L448.94,203.51L449.17,203.34L449.77,205.01L449.85,200.31L449.92,199.54L450.15,204.95L450.22,204.88L450.6,205.6L450.67,205.52L450.75,203.37L451.65,204.94L451.73,204.13L452.03,204.89L452.11,205.58L452.48,205.53L452.56,204.22L453.09,204.22L453.16,205.03L453.39,205.04L453.46,204.26L454.29,205.81L454.37,205.13L454.44,205.07L454.89,204.92L454.97,205.59L455.05,205.58L455.35,204.94L455.5,205.82L455.72,205.22L455.8,205.85L456.1,205.69L456.18,204.51L456.4,204.3L457.08,205.53L457.15,204.83L457.53,204.94L457.61,205.62L457.91,205.58L457.98,203.51L458.21,203.43L458.89,205.04L458.96,204.36L459.19,204.99L459.26,205.28L459.57,205.9L459.72,205.62L459.79,203.55L460.62,205.06L460.7,200.4L460.92,200.44L461,202.26L461.3,205.68L461.75,204.37L461.83,203.61L462.2,205.14L462.35,205.04L462.43,198.87L462.58,197.24L462.96,202.42L463.03,203.73L463.26,203.72L463.33,202.3L463.48,194.89L464.01,205.12L464.09,199.82L464.16,199.14L464.31,197.65L464.69,201.14L464.77,202.47L465.07,205.73L465.52,204.41L465.59,204.4L465.74,204.44L465.82,205.24L466.05,199.31L466.5,205.57L466.57,206.13L466.95,206.2L467.1,205.57L467.18,205.52L467.85,199.96L468.01,200.3L468.08,200.98L468.61,203.91L468.76,202.23L468.83,200.03L468.91,198.86L468.99,205.3L469.21,205.26L469.29,205.27L469.51,205.88L469.59,200.99L469.81,198.95L470.12,201.6L470.19,205.27L470.42,205.92L470.57,202.46L470.64,197.55L470.72,195.94L471.02,199.91L471.17,199.91L471.25,200.7L471.47,198.51L471.55,205.22L471.62,204.47L471.7,204.55L472.3,206.29L472.38,206.21L472.45,204.27L472.68,204L473.05,205.61L473.13,205.51L473.2,201.57L473.51,200.27L473.73,203.11L473.81,204.17L473.96,205.23L474.18,203.64L474.26,199.5L474.33,198.23L474.71,201.39L474.94,200.36L475.01,200.45L475.84,206.28L475.92,206.26L476.14,203.77L476.52,204.6L476.6,204.62L477.5,206.27L477.58,206.27L477.8,206.09L477.88,204.7L478.1,198.96L478.48,205.4L478.78,199.52L478.86,199.63L479.53,205.89L479.61,204.05L479.68,203.33L479.99,198.43L480.21,205.04L480.29,205.69L480.44,205.66L480.51,200.4L480.59,199.76L481.04,201.95L481.12,203.3L481.27,203.34L481.34,202.72L481.42,201.46L481.49,198.73L481.95,205.54L482.02,205.53L482.1,205.91L482.47,199.54L482.85,205.3L482.92,205.96L483.23,205.9L483.3,203.86L484.21,205.4L484.28,204.7L484.58,205.7L484.66,204.65L484.88,206.26L485.11,199.78L485.34,203.89L485.41,204.63L485.79,205.35L485.86,201L486.09,199.52L486.17,204.7L486.24,204.79L486.77,206.28L486.92,204.21L486.99,204.09L487.14,204.01L487.52,205.5L487.67,205.48L487.75,200.65L487.9,199.95L488.05,201.56L488.12,205.64L488.35,205.99L488.95,203.7L489.25,204.61L489.33,205.4L489.48,205.46L489.63,205.04L489.71,204.39L490.38,205.89L490.46,205.83L490.54,204.48L490.61,204.14L491.06,204.6L491.14,205.33L491.29,205.33L491.36,200.28L491.59,200.4L491.67,201.87L492.65,205.37L492.72,205.38L493.02,205.98L493.1,201.81L493.25,200.53L493.62,202.6L493.7,202.47L493.78,203.63L494.23,197.61L494.3,204.63L494.6,204.76L495.06,198.11L495.43,200.34L495.51,202.17L495.66,205.23L496.04,195.26L496.26,203.67L496.34,203.64L496.64,204.06L496.71,197.55L496.94,195.12L497.24,200.46L497.32,201.72L497.54,202.91L497.69,200.57L497.77,195.01L497.84,190.14L498.22,203.87L498.45,199.06L498.52,196.58L498.67,194.29L499.05,199.11L499.13,200.35L499.28,201.63L499.5,199.97L499.58,194.72L499.65,193.86L499.73,203.53L500.18,204.56L500.33,197.98L500.41,195.68L500.56,195L500.71,196.95L500.78,199.81L501.08,202.78L501.31,201.23L501.39,195.43L501.46,193.15L501.84,203.59L502.06,197.59L502.14,196.69L502.29,193.76L502.74,199.75L502.82,201.16L503.04,201.84L503.19,198.62L503.27,197.38L503.5,193.01L503.72,203.83L503.8,204.53L504.17,195.87L504.55,200.89L504.63,201.99L504.93,201.07L505,200.35L506.06,194.61L506.13,196.61L506.66,198.61L506.74,197.28L506.81,194.07L506.89,192.08L507.26,198.42L507.41,197.74L507.49,196.85L507.72,189.32L508.17,195.43L508.24,197.58L508.47,196.23L508.54,179.03L508.7,147.67L509.22,176.19L509.3,176.19L509.52,163.87L509.83,190.94L509.9,185.39L509.98,188.61L510.13,191.08L510.35,175.92L510.43,163.33L510.5,152.91L511.03,183L511.11,180.88L512.01,205.19L512.16,204.64L512.24,193.92L512.69,204L512.91,197.17L512.99,193.51L513.14,192.08L513.29,194.81L513.37,195.92L513.67,201.22L513.97,195.5L514.04,187.49L514.35,201.24L514.95,180.46L515.02,180.27L515.63,192.94L515.85,185.67L515.93,183.02L516.08,176.55L516.31,189.68L516.38,193.76L516.46,193.59L516.53,188.69L516.68,185.02L516.98,196.18L517.06,198.74L517.51,201.35L517.66,199.75L517.74,196.63L518.26,198.55L518.57,190.41L518.64,193.9L518.72,194.03L518.79,195.77L519.24,200.4L519.39,198.94L519.47,190.84L519.92,199.97L520.37,180.82L520.45,181.08L520.53,180.85L520.6,181.83L520.68,183.42L520.9,188.14L521.05,186.78L521.13,184.07L521.35,157.47L521.81,177.66L521.88,177.73L522.11,168.75L522.41,174.66L522.48,179.73L522.56,179.5L522.64,183.3L522.79,188.29L523.09,170.04L523.16,163.93L523.69,185.06L523.99,176.93L524.07,176.03L524.67,189.86L524.82,184.13L524.9,168.1L524.97,160.86L525.5,181.59L525.57,178.73L525.72,169.99L526.18,187.34L526.25,193.87L526.33,196.67L526.63,187.41L526.7,177.69L526.78,169.22L527.38,181.46L527.46,178.56L527.61,175.91L528.06,183.95L528.14,185.34L528.29,189.55L528.59,179.04L528.66,176.17L528.89,170.51L529.12,176.52L529.42,173.24L529.49,173.73L530.02,185.16L530.32,178.38L530.4,174.85L530.77,177.2L531.15,163.03L531.23,165.24L531.3,168.97L531.83,192.6L532.05,181.74L532.13,170.23L532.2,163.69L532.58,182.47L532.81,176.19L532.88,171.2L532.96,168.14L533.33,176.32L533.41,174.48L533.49,179.43L533.64,182.83L533.86,178.12L533.94,118.75L534.01,97.2L534.47,166.68L534.54,160.87L534.62,160.55L534.77,140.24L535.29,179.63L535.37,183.33L535.52,183.75L535.6,183.57L535.67,179.51L535.82,159.35L536.42,173.06L536.5,170.7L536.57,166.85L537.03,176.76L537.1,180.2L537.18,183.63L537.48,177.21L537.55,164.62L537.63,153.23L538.08,169.61L538.23,166.78L538.31,164.78L538.38,160.8L538.84,170.39L538.91,174.85L538.99,178.27L539.29,172.54L539.36,158.34L539.44,151.53L539.89,165.52L540.04,164.08L540.12,158.53L540.19,155.57L540.64,167.8L540.72,171.83L540.87,175.68L541.1,174.19L541.17,155.31L542,120.89L542.08,128.76L542.68,177.33L542.9,174.66L542.98,168.96L543.81,118.55L543.88,144.4L543.96,157.52L544.56,188.89L544.86,170.98L544.94,174.9L545.32,175.58L545.69,157.98L545.92,165.91L545.99,170.95L546.37,192.44L546.52,175.54L546.6,157.97L547.05,158.07L547.43,132.3L547.5,136.15L548.25,173.45L548.33,167.27L548.41,147.11L548.93,149.51L549.23,110.47L549.31,105.44L549.99,174.78L550.14,167.51L550.21,152.16L550.29,137.06L550.67,165.24L550.89,159.38L550.97,155.88L551.04,150.14L551.49,170.9L551.57,176.5L551.87,190.06L551.95,176.03L552.02,158.14L552.1,143.07L552.7,163.55L552.78,159.11L552.85,155.94L553.23,168.17L553.3,171.18L553.6,196.02L553.91,170.1L553.98,163.61L554.13,156.17L554.51,167.22L554.73,162.67L554.81,165.04L555.56,194.51L555.71,187.84L555.79,181.14L556.47,171.61L556.62,173.03L556.69,176.31L557.3,188.12L557.45,177.92L557.52,167.73L557.9,178.16L558.2,169.6L558.28,163.16L558.95,186.5L559.18,180.34L559.26,166.84L559.63,173.21L560.16,129.71L560.24,151.61L560.84,179.71L560.99,171.44L561.06,153.51L561.14,124.45L561.52,163.81L561.82,148.41L561.89,132.24L561.97,126.89L562.19,160.24L562.27,165.58L562.65,178.45L562.8,171.8L562.87,157.99L562.95,143.5L563.4,164.18L563.55,162.44L563.63,156.87L563.7,153.52L564.08,169.58L564.15,171.22L564.3,177.67L564.61,169.15L564.68,151.59L564.76,138.57L565.13,159.6L565.36,158.7L565.43,155.32L565.51,149.19L565.96,167.65L566.04,173.85L566.26,184.38L566.56,165.28L566.64,159.62L567.39,149.48L567.47,152.45L567.54,155.8L568.15,173.43L568.37,165.15L568.45,156.44L569.2,128.55L569.28,146.37L569.35,149.58L569.88,170.98L570.11,151.97L570.18,142.85L570.56,158.03L570.86,142.31L570.94,126.11L571.76,168.21L571.84,162.56L571.91,144.93L572.14,127.44L572.59,153.54L572.67,151.98L572.74,144.33L573.2,168.16L573.27,173.18L573.5,176.65L573.65,173.01L573.72,157.35L574.55,138.69L574.63,139.7L575.31,168.24L575.46,159.89L575.53,133.96L575.61,103.98L575.98,141.3L576.28,125.43L576.36,116.72L576.44,112.23L576.66,136.16L576.74,145.46L577.11,163.01L577.26,153.14L577.34,130.59L578.17,85L578.24,106.56L578.85,157.68L579.15,140.54L579.22,128.59L580.05,98.77L580.13,103.81L580.81,156.25L581.03,140.19L581.11,130.78L581.86,115.93L581.94,126.6L582.61,174.79L582.92,159.05L582.99,154.69L583.52,142.82L583.59,129.71L583.67,124.62L583.97,143.93L584.05,149.85L584.27,166.67L584.57,128.99L584.65,101.99L585.03,139.33L585.4,114.23L585.48,117.67L586.16,163.97L586.31,153.13L586.38,125.29L586.46,103.68L586.76,127.11L587.14,119.45L587.21,111L587.66,149.55L587.74,154.54L588.04,161.91L588.19,137.12L588.27,129L588.87,165.94L589.09,155.15L589.17,155.39L589.25,155.26L589.32,157.55L589.85,191.13L590,160.31L590.07,148.4L590.45,167.66L590.83,156.95L590.9,159.14L591.66,185.35L591.73,178.61L591.81,170.59L592.11,145.22L592.71,147.5L592.79,149.74L592.94,155.62L593.01,162.89L593.47,172.13L593.62,165.28L593.69,158.79L594.52,118.05L594.67,127.36L594.75,136.23L595.27,157.18L595.35,152L595.42,136.32L595.88,139.5L596.33,105.56L596.4,105.42L597.08,160.62L597.23,123L597.31,95.56L597.91,127.75L598.06,113.37L598.14,114.38L598.81,159.88L598.97,147.69L599.04,125.6L599.87,63.82L599.95,72.1L600.7,153.53L600.85,124.8L600.92,93.9L601.3,123.99L601.6,89.42L601.68,53.21L602.36,157.91L602.66,123.66L602.73,81.81L602.81,82.6L602.88,69.15L603.34,103.57L603.49,47.98L603.56,57.95L604.24,152.11L604.47,133.64L604.54,111.35L605.3,30.86L605.37,47.72L605.45,72.04L606.05,140.98L606.35,127.78L606.43,110.2L607.18,74.48L607.25,89.22L607.33,99.49L607.78,135.57L608.08,119.46L608.16,102.78L608.23,120.91L608.84,95.87L608.91,84.93L608.99,84.55L609.06,86.14L609.14,99.5L609.67,136.13L609.82,124.72L609.89,97.01L610.65,-5.89L610.72,20.28L610.8,70.14L611.47,134.13L611.62,125.09L611.7,93.91L611.85,-62.65L612.45,20.33L612.53,46.16L613.36,137.6L613.51,103.97L613.58,65.83L613.73,61.99L614.19,100.26L614.26,78.95L614.34,64.86L615.09,146.16L615.32,111.07L615.39,83.13L616.3,122L616.37,123.88L616.9,157.96L617.2,136.51L617.28,123.53L617.43,108.03L617.73,128.09L618.03,119.31L618.1,129.35L618.78,167.49L619.01,157.95L619.08,152.45L619.31,136.68L619.84,150.35L619.91,151.95L620.59,184.08L620.74,165.31L620.82,157.13L621.27,162.64L621.5,152.41L621.57,147.76L621.65,146.33L621.87,153.7L621.95,155.65L622.32,179.21L622.48,172.37L622.55,149.35L623.38,126.55L623.45,124.1L624.13,164.84L624.28,158.46L624.36,135.3L624.43,115.09L625.04,136.27L625.11,131.53L625.19,129.17L626.02,165.02L626.09,157.81L626.17,141.61L626.24,115.35L626.92,128.66L627,120.09L627.67,158.96L627.9,150.32L627.98,126.24L628.05,97.26L628.73,113.19L628.8,107.3L628.96,115.59L629.03,122.55L629.63,161.3L629.86,137.9L629.93,121.85L630.01,112.52L630.39,140.53L630.54,135.68L630.61,132.5L631.52,173.26L631.74,159.39L631.82,153.94L631.89,151.33L632.27,164.89L632.35,164.72L632.42,160.74L632.87,174.71L632.95,177.81L633.25,187.44L633.48,166.11L633.55,173.98L633.63,170.47L633.93,178.47L634,176.03L634.08,171.52L634.38,162.91L634.68,171.96L634.76,175.5L634.98,179.49L635.13,172.63L635.21,157.74L635.28,147.66L635.74,162.46L635.89,161.47L635.96,159.71L636.04,155.93L636.42,170.1L636.49,172.09L636.79,180.64L637.02,160.57L637.09,150.65L637.62,162.14L637.85,152.74L637.92,152.53L638.68,184.45L638.75,177.66L638.83,161.48L639.35,162.42L639.66,144.71L639.73,144.13L640.48,179.72L640.63,164.26L640.71,148.69L641.31,163.34L641.46,156.37L641.54,156.44L641.77,160.67L641.84,168.52L642.22,193.93L642.52,169.1L642.59,163.71L643.35,151.47L643.42,155.69L643.5,158.34L644.03,193.69L644.33,178.39L644.4,168.06L645.08,144.8L645.31,151.92L645.38,157.18L645.98,173.23L646.06,165.56L646.14,151.41L647.11,170.35L647.19,171.51L647.79,185.19L647.94,176.05L648.02,166.95L648.09,155.7L648.77,160.6L648.85,162.53L648.92,159.07L649.22,168.91L649.3,178.37L649.9,143.94L650.28,148.67L650.36,150.03L650.73,148.4L650.81,150.43L650.88,158.89L651.03,157.83L651.11,159.72L651.18,161.43L651.33,163.15L651.41,157.34L651.56,127.79L652.24,136.8L652.31,135.2L652.62,152.66L652.69,158.21L653.07,181.75L653.37,154.81L653.44,163.13L653.52,155.5L653.67,157.35L654.12,147.13L654.35,150.06L654.42,154.98L655.03,178.66L655.18,167.68L655.25,158.66L655.93,144.72L656.08,147.33L656.16,148.57L656.84,170.11L656.99,162.32L657.06,157.87L657.21,148.85L657.51,159.61L657.81,148.94L657.89,153.57L658.57,181.29L658.72,169.82L658.79,162.02L658.87,166.45L659.4,161.17L659.47,157.46L659.55,153.94L660,163.28" style="vector-effect: none; fill: none; stroke: rgb(54, 112, 97); stroke-opacity: 1; stroke-width: 0px; opacity: 1;"/></g><g class="points"/><g class="text"/></g></g></g><g class="overplot"/><path class="xlines-above crisp" d="M19,230.5H681M19,19.5H681" style="fill: none; stroke-width: 1px; stroke: rgb(68, 68, 68); stroke-opacity: 1;"/><path class="ylines-above crisp" d="M19.5,20V230M680.5,20V230" style="fill: none; stroke-width: 1px; stroke: rgb(68, 68, 68); stroke-opacity: 1;"/><g class="overlines-above"/><g class="xaxislayer-above"><path class="xtick ticks crisp" d="M0,231v5" transform="translate(20,0)" style="stroke: rgb(68, 68, 68); stroke-opacity: 1; stroke-width: 1px;"/><path class="xtick ticks crisp" d="M0,231v5" transform="translate(126.7,0)" style="stroke: rgb(68, 68, 68); stroke-opacity: 1; stroke-width: 1px;"/><path class="xtick ticks crisp" d="M0,231v5" transform="translate(237.01,0)" style="stroke: rgb(68, 68, 68); stroke-opacity: 1; stroke-width: 1px;"/><path class="xtick ticks crisp" d="M0,231v5" transform="translate(347.33,0)" style="stroke: rgb(68, 68, 68); stroke-opacity: 1; stroke-width: 1px;"/><path class="xtick ticks crisp" d="M0,231v5" transform="translate(459.45,0)" style="stroke: rgb(68, 68, 68); stroke-opacity: 1; stroke-width: 1px;"/><path class="xtick ticks crisp" d="M0,231v5" transform="translate(569.76,0)" style="stroke: rgb(68, 68, 68); stroke-opacity: 1; stroke-width: 1px;"/><g class="xtick"><text text-anchor="middle" x="0" y="255.2" transform="translate(20,0)" style="font-family: 'Open Sans', verdana, arial, sans-serif; font-size: 16px; fill: rgb(68, 68, 68); fill-opacity: 1; white-space: pre; opacity: 0;">01.01</text></g><g class="xtick"><text text-anchor="middle" x="0" y="255.2" style="font-family: 'Open Sans', verdana, arial, sans-serif; font-size: 16px; fill: rgb(68, 68, 68); fill-opacity: 1; white-space: pre; opacity: 1;" transform="translate(126.7,0)">01.03</text></g><g class="xtick"><text text-anchor="middle" x="0" y="255.2" style="font-family: 'Open Sans', verdana, arial, sans-serif; font-size: 16px; fill: rgb(68, 68, 68); fill-opacity: 1; white-space: pre; opacity: 1;" transform="translate(237.01,0)">01.05</text></g><g class="xtick"><text text-anchor="middle" x="0" y="255.2" style="font-family: 'Open Sans', verdana, arial, sans-serif; font-size: 16px; fill: rgb(68, 68, 68); fill-opacity: 1; white-space: pre; opacity: 1;" transform="translate(347.33,0)">01.07</text></g><g class="xtick"><text text-anchor="middle" x="0" y="255.2" style="font-family: 'Open Sans', verdana, arial, sans-serif; font-size: 16px; fill: rgb(68, 68, 68); fill-opacity: 1; white-space: pre; opacity: 1;" transform="translate(459.45,0)">01.09</text></g><g class="xtick"><text text-anchor="middle" x="0" y="255.2" style="font-family: 'Open Sans', verdana, arial, sans-serif; font-size: 16px; fill: rgb(68, 68, 68); fill-opacity: 1; white-space: pre; opacity: 1;" transform="translate(569.76,0)">01.11</text></g></g><g class="yaxislayer-above"><path class="ytick ticks crisp" d="M19,0h-5" transform="translate(0,230)" style="stroke: rgb(68, 68, 68); stroke-opacity: 1; stroke-width: 1px;"/><path class="ytick ticks crisp" d="M19,0h-5" transform="translate(0,188)" style="stroke: rgb(68, 68, 68); stroke-opacity: 1; stroke-width: 1px;"/><path class="ytick ticks crisp" d="M19,0h-5" transform="translate(0,146)" style="stroke: rgb(68, 68, 68); stroke-opacity: 1; stroke-width: 1px;"/><path class="ytick ticks crisp" d="M19,0h-5" transform="translate(0,104)" style="stroke: rgb(68, 68, 68); stroke-opacity: 1; stroke-width: 1px;"/><path class="ytick ticks crisp" d="M19,0h-5" transform="translate(0,62)" style="stroke: rgb(68, 68, 68); stroke-opacity: 1; stroke-width: 1px;"/><path class="ytick ticks crisp" d="M19,0h-5" transform="translate(0,20)" style="stroke: rgb(68, 68, 68); stroke-opacity: 1; stroke-width: 1px;"/><g class="ytick"><text text-anchor="end" x="10.8" y="5.6" transform="translate(0,230)" style="font-family: 'Open Sans', verdana, arial, sans-serif; font-size: 16px; fill: rgb(68, 68, 68); fill-opacity: 1; white-space: pre; opacity: 1;">0</text></g><g class="ytick"><text text-anchor="end" x="10.8" y="5.6" style="font-family: 'Open Sans', verdana, arial, sans-serif; font-size: 16px; fill: rgb(68, 68, 68); fill-opacity: 1; white-space: pre; opacity: 1;" transform="translate(0,188)">10</text></g><g class="ytick"><text text-anchor="end" x="10.8" y="5.6" style="font-family: 'Open Sans', verdana, arial, sans-serif; font-size: 16px; fill: rgb(68, 68, 68); fill-opacity: 1; white-space: pre; opacity: 1;" transform="translate(0,146)">20</text></g><g class="ytick"><text text-anchor="end" x="10.8" y="5.6" style="font-family: 'Open Sans', verdana, arial, sans-serif; font-size: 16px; fill: rgb(68, 68, 68); fill-opacity: 1; white-space: pre; opacity: 1;" transform="translate(0,104)">30</text></g><g class="ytick"><text text-anchor="end" x="10.8" y="5.6" style="font-family: 'Open Sans', verdana, arial, sans-serif; font-size: 16px; fill: rgb(68, 68, 68); fill-opacity: 1; white-space: pre; opacity: 1;" transform="translate(0,62)">40</text></g><g class="ytick"><text text-anchor="end" x="10.8" y="5.6" style="font-family: 'Open Sans', verdana, arial, sans-serif; font-size: 16px; fill: rgb(68, 68, 68); fill-opacity: 1; white-space: pre; opacity: 1;" transform="translate(0,20)">50</text></g></g><g class="overaxes-above"/></g></g><g class="polarlayer"/><g class="smithlayer"/><g class="ternarylayer"/><g class="geolayer"/><g class="funnelarealayer"/><g class="pielayer"/><g class="iciclelayer"/><g class="treemaplayer"/><g class="sunburstlayer"/><g class="glimages"/><defs id="topdefs-c992fc"><g class="clips"/><clipPath id="legendc992fc"><rect width="210" height="55" x="0" y="0"/></clipPath></defs><g class="layer-above"><g class="imagelayer"/><g class="shapelayer"/></g><g class="infolayer"><g class="legend" pointer-events="all" transform="translate(26.6,24.200000000000003)"><rect class="bg" shape-rendering="crispEdges" style="stroke: rgb(68, 68, 68); stroke-opacity: 1; fill: rgb(0, 0, 0); fill-opacity: 0; stroke-width: 0px;" width="210" height="55" x="0" y="0"/><g class="scrollbox" transform="" clip-path="url(#legendc992fc)"><g class="groups"><g class="traces" transform="translate(0,27.3)" style="opacity: 1;"><text class="legendtext" text-anchor="start" x="40" y="-4.16" style="font-family: 'Open Sans', verdana, arial, sans-serif; font-size: 16px; fill: rgb(68, 68, 68); fill-opacity: 1; white-space: pre;"><tspan class="line" dy="0em" x="40" y="-4.16">Strm:</tspan><tspan class="line" dy="1.3em" x="40" y="-4.16">76 976 kr/r | 65 kr</tspan></text><g class="layers"><g class="legendfill"><path class="js-fill" d="M5,-2h30v6h-30z" style="stroke-width: 0; fill: rgb(54, 112, 97); fill-opacity: 0.5;"/></g><g class="legendlines"><path class="js-line" d="M5,-2h30" style="fill: none; stroke: rgb(54, 112, 97); stroke-opacity: 1; stroke-width: 0px;"/></g><g class="legendsymbols"><g class="legendpoints"/></g></g><rect class="legendtoggle" x="0" y="-22.3" width="206.5625" height="44.6" style="fill: rgb(0, 0, 0); fill-opacity: 0;"/></g></g></g><rect class="scrollbar" rx="20" ry="3" width="0" height="0" style="fill: rgb(128, 139, 164); fill-opacity: 1;" x="0" y="0"/></g><g class="g-gtitle"/><g class="g-xtitle"/><g class="g-ytitle" transform="translate(32,0)"><text class="ytitle" transform="rotate(-90,-18,125)" x="-18" y="125" text-anchor="middle" style="font-family: 'Open Sans', verdana, arial, sans-serif; font-size: 14px; fill: rgb(68, 68, 68); opacity: 1; font-weight: normal; white-space: pre;">Kostnad (kr)</text></g></g></svg>