<svg class="main-svg" xmlns="http://www.w3.org/2000/svg" xmlns:xlink="http://www.w3.org/1999/xlink" width="700" height="250" style="" viewBox="0 0 700 250"><rect x="0" y="0" width="700" height="250" style="fill: rgb(255, 255, 255); fill-opacity: 1;"/><defs id="defs-efef7f"><g class="clips"><clipPath id="clipefef7fxyplot" class="plotclip"><rect width="660" height="210"/></clipPath><clipPath class="axesclip" id="clipefef7fx"><rect x="20" y="0" width="660" height="250"/></clipPath><clipPath class="axesclip" id="clipefef7fy"><rect x="0" y="20" width="700" height="210"/></clipPath><clipPath class="axesclip" id="clipefef7fxy"><rect x="20" y="20" width="660" height="210"/></clipPath></g><g class="gradients"/><g class="patterns"/></defs><g class="bglayer"/><g class="layer-below"><g class="imagelayer"/><g class="shapelayer"/></g><g class="cartesianlayer"><g class="subplot xy"><g class="layer-subplot"><g class="shapelayer"/><g class="imagelayer"/></g><g class="minor-gridlayer"><g class="x"/><g class="y"/></g><g class="gridlayer"><g class="x"><path class="xgrid crisp" transform="translate(126.7,0)" d="M0,20v210" style="stroke: rgb(238, 238, 238); stroke-opacity: 1; stroke-width: 0.1px;"/><path class="xgrid crisp" transform="translate(237.01,0)" d="M0,20v210" style="stroke: rgb(238, 238, 238); stroke-opacity: 1; stroke-width: 0.1px;"/><path class="xgrid crisp" transform="translate(347.33,0)" d="M0,20v210" style="stroke: rgb(238, 238, 238); stroke-opacity: 1; stroke-width: 0.1px;"/><path class="xgrid crisp" transform="translate(459.45,0)" d="M0,20v210" style="stroke: rgb(238, 238, 238); stroke-opacity: 1; stroke-width: 0.1px;"/><path class="xgrid crisp" transform="translate(569.76,0)" d="M0,20v210" style="stroke: rgb(238, 238, 238); stroke-opacity: 1; stroke-width: 0.1px;"/></g><g class="y"><path class="ygrid crisp" transform="translate(0,188)" d="M20,0h660" style="stroke: rgb(238, 238, 238); stroke-opacity: 1; stroke-width: 0.1px;"/><path class="ygrid crisp" transform="translate(0,146)" d="M20,0h660" style="stroke: rgb(238, 238, 238); stroke-opacity: 1; stroke-width: 0.1px;"/><path class="ygrid crisp" transform="translate(0,104)" d="M20,0h660" style="stroke: rgb(238, 238, 238); stroke-opacity: 1; stroke-width: 0.1px;"/><path class="ygrid crisp" transform="translate(0,62)" d="M20,0h660" style="stroke: rgb(238, 238, 238); stroke-opacity: 1; stroke-width: 0.1px;"/></g></g><g class="zerolinelayer"><path class="yzl zl crisp" transform="translate(0,230)" d="M20,0h660" style="stroke: rgb(68, 68, 68); stroke-opacity: 1; stroke-width: 1px;"/></g><g class="layer-between"><g class="shapelayer"/><g class="imagelayer"/></g><path class="xlines-below"/><path class="ylines-below"/><g class="overlines-below"/><g class="xaxislayer-below"/><g class="yaxislayer-below"/><g class="overaxes-below"/><g class="plot" transform="translate(20,20)" clip-path="url(#clipefef7fxyplot)"><g class="scatterlayer mlayer"><g class="trace scatter trace356613" style="stroke-miterlimit: 2;"><g class="fills"><g><path class="js-fill" d="M660,210L0,210L0,176.66L0.53,188.96L0.68,174.76L0.75,171.09L0.83,168.04L1.13,173.13L1.43,171.44L1.51,171.61L1.58,171.82L1.66,175.82L1.73,176.01L1.81,173.32L2.03,176.94L2.26,161.35L2.34,146.78L2.79,158.82L3.01,150.3L3.09,143.68L3.16,142.11L3.32,149.31L3.39,154.88L3.77,171.08L3.99,163.42L4.07,149.48L4.14,128.31L4.82,138.36L4.9,132.44L5.12,140.58L5.2,150.78L5.65,183.12L5.95,153.31L6.03,160.36L6.56,162.41L6.71,154.46L6.78,156.52L6.86,157.37L7.23,176.18L7.31,178.71L7.46,181.76L7.61,176.18L7.69,162.88L8.51,136.2L8.59,136.28L8.67,141.86L9.34,181.93L9.64,162.69L9.72,156.16L9.87,155.62L9.95,158.42L10.02,160.75L10.1,161.02L10.17,158.35L10.32,147.16L10.55,154.47L10.62,160.4L11.15,183.96L11.45,168.5L11.53,163.84L11.6,162.65L11.83,170.73L11.91,173.55L11.98,173.71L12.06,173.53L12.13,171.65L12.21,171.3L12.28,172.86L12.36,176.28L12.89,204.6L13.26,191.48L13.34,181.86L13.49,180.82L13.56,181.14L13.64,183.17L14.02,174.76L14.32,181.72L14.39,187.02L14.69,197.72L14.92,173.96L14.99,164.03L15.15,163.05L15.45,173.38L15.67,166.18L15.75,157.81L16.35,187.89L16.65,181.17L16.73,164.76L16.8,151.94L17.26,166.51L17.41,166.07L17.48,164.79L17.56,160.22L17.86,176.02L17.93,182.31L18.31,201.12L18.54,183.34L18.61,168.03L18.76,167.97L19.06,177.98L19.37,169.28L19.44,169.15L19.89,191.83L19.97,204.58L20.27,194.99L20.34,178.51L20.42,167.03L20.87,180.19L21.1,176.75L21.17,170.77L21.25,169.65L21.4,174.3L21.48,178.42L21.85,202.25L22.23,182.89L22.3,175.71L22.45,171.18L22.76,180.18L23.06,173.5L23.13,175.26L23.74,190.07L23.81,197.36L23.96,194.94L24.04,185.48L24.34,168.8L24.94,172.84L25.02,173.73L25.62,203.53L25.92,199.75L26,189.76L26.67,172.52L26.82,173.34L26.9,174.94L27.28,184.98L27.5,175.23L27.58,161.34L27.65,147.23L28.11,165.19L28.33,158.64L28.41,152.12L28.48,151.13L28.56,155.07L28.63,160.47L29.09,184.6L29.31,178.37L29.39,164.57L29.46,155.95L29.84,171.36L30.14,161.19L30.22,156.92L31.04,181.54L31.12,177.09L31.2,163.09L31.27,149.64L31.72,171.2L31.87,167.87L31.95,163.22L32.02,157.66L32.48,174.86L32.55,179.65L32.85,183.13L32.93,178.27L33,165.3L33.08,148.01L33.76,151.24L33.83,148.52L34.51,174.43L34.81,165.53L34.89,161.34L35.11,128.53L35.64,148.44L35.72,145.57L36.47,167.42L36.62,164.24L36.7,155.95L37.52,127.86L37.6,141.86L38.05,163.27L38.35,158.88L38.43,146.67L39.11,148.42L39.26,127.15L39.33,123.3L40.09,165.24L40.16,160.72L40.24,145.25L40.31,106.12L40.99,131.99L41.07,118.44L41.14,118.89L41.22,141.7L41.82,175.02L42.05,157.11L42.12,148.66L42.27,125.71L42.57,150.82L42.87,130.65L42.95,158.6L43.7,183.74L43.78,179.81L43.85,167.51L43.93,148.45L44.53,176.76L44.61,172.51L44.76,165.47L45.21,180.85L45.29,184.28L45.44,184.85L45.51,184.32L45.59,180.5L45.74,158.75L46.42,165.94L46.49,161.88L46.57,161.75L46.64,163.14L47.17,179.98L47.4,176.73L47.47,166.66L47.77,133.42L48.3,134.95L48.38,155.96L49.05,177.77L49.35,170.88L49.43,165.56L49.58,158.02L49.96,170.24L50.18,164.84L50.26,166.7L50.64,178.28L50.71,180.29L50.94,182.39L51.01,179.44L51.09,171.45L51.16,165.56L51.69,180.67L51.77,182.01L51.92,177.76L52.37,187.74L52.44,191.13L52.67,198.46L52.82,190.65L52.9,176.78L52.97,171.07L53.5,185.66L53.57,184.37L53.88,176.21L54.25,185.28L54.33,187.64L54.55,185.87L54.63,182.31L54.78,161.73L55.38,175.9L55.46,174.38L55.53,170.46L55.99,182.69L56.06,182.8L56.36,185.98L56.44,181.55L56.51,168.87L56.59,157.35L57.04,173.25L57.19,171.78L57.27,169.09L57.34,162.43L57.87,178.16L57.94,180.68L58.02,181.52L58.17,178.18L58.25,174.05L59.15,137.19L59.23,135.5L59.45,151.96L59.53,160.95L59.9,179.38L60.28,163.99L60.36,159.63L60.73,166.61L60.96,159.46L61.03,159.07L61.56,173.9L61.94,166.52L62.01,160.61L62.16,134.66L62.69,155.44L62.77,151.35L62.84,149.98L62.99,159.36L63.07,163.79L63.6,178.08L63.75,165.98L63.82,160.62L64.27,173.01L64.5,166.84L64.58,160.51L64.65,158.7L64.95,166.84L65.03,168.5L65.33,175.38L65.48,168.48L65.56,141.52L65.63,120.56L66.16,160.96L66.23,158.08L66.31,144.32L66.38,136.58L66.84,168.01L66.91,172.89L67.21,175.43L67.29,170.61L67.36,158.22L67.44,151.93L67.82,166.85L67.97,166.15L68.04,167.89L68.27,160.86L68.64,169.19L68.72,175.49L68.87,179.11L69.1,172.74L69.17,162.54L69.25,152.96L69.78,170.89L69.85,172.56L70,167.69L70.3,174.46L70.38,178.73L70.83,189.03L70.91,185.62L70.98,176.12L71.06,168.63L71.66,182.33L71.73,179.44L71.96,175.77L72.19,181.62L72.26,183.04L72.41,187.72L72.79,179.94L72.86,174.97L73.09,164.38L73.54,176.28L73.62,173.45L73.69,173.89L73.92,178.38L73.99,183.04L74.52,189.63L74.67,184.31L74.75,180.43L75.2,181.14L75.5,169L75.58,171.37L75.65,175.22L76.1,184.33L76.33,179.89L76.41,171.32L76.48,163.93L77.01,179.5L77.08,179.04L77.16,173.88L77.31,170.22L77.69,179.69L77.76,182.75L77.91,186.22L78.21,171.03L78.29,164.2L78.82,183.41L79.04,171.67L79.12,171.71L79.19,170.38L79.5,178.59L79.57,181.83L79.72,183.76L79.95,178.24L80.02,165.63L80.1,129.59L80.7,169.86L80.78,159.53L80.85,145.46L80.93,139.8L81.15,168.94L81.23,174.31L81.3,173.37L81.38,178.53L81.45,181.92L81.68,182.01L81.76,177.48L81.98,147.8L82.51,171.02L82.58,167.74L82.74,165.72L82.96,173.27L83.04,176.45L83.26,184.53L83.56,180.37L83.64,167.1L83.87,155.97L84.17,175.3L84.24,174.14L84.32,174.32L84.62,167.07L84.92,178.35L85,179.68L85.3,188.09L85.6,177.22L85.67,172.28L85.75,171.39L85.9,175.31L85.98,178.03L86.35,175.36L87.03,193.35L87.18,190.58L87.26,186.8L87.56,170.04L88.16,172.92L88.24,172.95L88.84,184.54L88.99,179.63L89.06,171.95L89.14,161.82L89.67,179.65L89.74,179.11L89.82,174.88L89.97,167.78L90.42,182.61L90.5,187.88L90.72,196.57L90.95,170.39L91.1,179.72L91.17,182.85L91.55,188.55L91.7,178.12L91.78,175.46L92,178.08L92.08,182.18L92.31,196.04L92.68,178.52L92.76,169.15L93.06,178.26L93.44,171.13L93.51,165.74L93.59,156.88L94.11,182.07L94.19,182.18L94.34,182.18L94.41,178.89L94.57,159.8L95.17,172.7L95.24,167.69L95.32,165.79L95.62,170.08L95.7,174.7L96.15,181.34L96.22,178.11L96.3,167.59L96.37,160.74L96.9,175.43L96.98,175.37L97.2,165.37L97.65,179.23L97.73,182.39L97.88,184.41L98.18,175.41L98.26,171.85L98.41,165.69L98.79,174.34L99.01,169.3L99.09,171.34L99.69,184.74L99.99,180.32L100.07,175.06L100.52,180.41L100.82,171.7L100.9,171.71L101.42,182.83L101.65,177.94L101.72,170.29L101.8,163.54L102.25,181.99L102.33,182.74L102.7,165.75L102.85,171.47L102.93,174.23L103.23,181.87L103.46,176.11L103.53,164.33L103.68,150.67L104.14,179.94L104.21,179.86L104.51,167.14L104.89,178.64L104.96,180.67L105.04,182.3L105.27,176.75L105.34,167.17L105.42,158.23L105.94,178.87L106.02,178.87L106.25,166.87L106.7,178.35L106.77,183.23L107.07,177.88L107.15,168.43L107.22,148.31L107.83,180.08L107.9,176.54L108.13,168.2L108.51,179.17L108.58,182.55L108.88,177.2L108.96,167.42L109.03,156.47L109.64,177.94L109.71,174.61L109.86,166.53L110.31,177.84L110.39,179.51L110.69,178.79L110.77,175.42L111.07,159.82L111.37,178.7L111.44,177.74L111.52,176.29L111.59,172.86L112.12,180.1L112.2,183.37L112.35,183.24L112.42,184.49L113.55,165.16L113.63,167.22L113.7,170.76L114.01,178.69L114.31,172.82L114.38,164.83L114.46,155.57L114.91,175.24L114.99,174.82L115.06,173.85L115.36,146.71L115.66,167.1L115.74,168.73L115.89,175.51L116.19,154.15L116.27,125.86L116.87,168.34L117.1,146.4L117.17,140.04L117.7,176.9L118,162L118.08,151.41L118.68,170.4L118.83,157.3L118.9,145.16L119.58,171.21L119.73,162.83L119.81,144.23L119.88,122.55L120.49,159.6L120.56,154.68L120.79,137.74L121.09,164.21L121.16,167.8L121.39,172.31L121.54,166.69L121.62,150.09L121.69,132.16L122.29,166.39L122.37,162.55L122.6,144.35L122.97,167.95L123.05,171.58L123.2,172.12L123.35,168.79L123.43,162.75L123.73,145.27L124.25,151.29L124.33,147.97L125.01,174.67L125.23,167.45L125.31,162.42L125.38,157.4L125.84,172.47L125.91,172.08L125.99,168.01L126.21,159.15L126.59,172L126.67,174.54L126.89,175.48L126.97,172.69L127.04,165.91L127.12,159.23L127.64,177.17L127.72,178L127.95,162.63L128.32,175.81L128.4,180.31L128.62,187.5L128.85,170.77L128.93,164.56L129.53,176.27L129.68,171.43L129.75,169.9L129.83,168.98L129.98,174.25L130.06,177.01L130.51,183.82L130.58,181.24L130.66,170.34L130.73,160.38L131.34,179L131.41,173.83L131.71,164.57L132.09,177.02L132.17,175.69L132.39,170.01L132.47,157.67L132.54,139.45L132.99,177.59L133.07,177.02L133.15,176.69L133.52,163.15L133.82,173.31L133.9,174.98L133.97,177.39L134.2,172.96L134.28,161.02L134.35,139.64L134.8,178.11L134.95,177.29L135.03,173.29L135.18,166.64L135.63,180.96L135.71,183.52L135.86,185.26L136.08,179.39L136.16,175.58L136.99,166.89L137.06,169.22L137.52,182.71L137.59,184.4L137.67,184.76L137.82,183.83L137.89,180.82L138.19,171.8L138.42,181.33L138.5,182.87L138.72,174.11L138.8,170.81L139.55,185.49L139.63,182.6L139.7,175.51L139.78,169.81L140.23,180.75L140.38,179.76L140.45,176.3L140.61,172.79L141.06,181.66L141.13,184.87L141.36,184.99L141.43,181.53L141.58,165.61L142.11,181.51L142.19,181.17L142.49,167.18L142.79,176.69L142.87,180.04L143.09,183.35L143.32,169.57L143.39,162.78L144,176.35L144.15,169.7L144.22,168.16L144.6,179.08L144.67,182.96L144.98,188.49L145.13,174.65L145.2,167.51L145.8,184.3L146.03,176.48L146.11,174.74L146.26,176.35L146.33,180.22L146.78,197.24L146.86,189.03L146.93,178.08L147.01,171.07L147.54,185.39L147.61,184.48L147.91,174.86L148.22,183.69L148.29,186.58L148.59,193.56L148.89,180.87L148.97,178.8L149.42,182.71L149.72,176.25L149.8,176.34L149.87,180.55L150.4,203.44L150.63,190.34L150.7,183.74L150.93,176.14L151.53,177.67L151.61,178.44L152.21,186.52L152.28,184.73L152.36,176.7L152.44,169.26L152.96,182.41L153.04,180.81L153.11,176.71L153.34,166.55L153.79,179.36L153.87,180.21L154.09,171.87L154.17,155.86L154.24,155.7L154.32,167.77L154.39,168.03L154.47,173.19L154.85,179.99L155,169.19L155.07,166.78L155.15,164.31L155.45,173.66L155.52,177.37L155.6,179.34L155.83,175.2L155.9,166.17L156.05,136.27L156.43,173.93L156.58,173.53L156.65,174.15L156.88,146.87L157.11,166.28L157.18,173.08L157.41,180.38L157.63,179.17L157.71,173.98L157.86,143.52L158.39,172.97L158.46,174.03L158.69,150.56L159.07,176.11L159.14,180.04L159.37,182.43L159.52,177.39L159.59,158.79L159.67,146.26L160.05,175.77L160.2,175.56L160.27,176.82L160.57,162.24L160.87,175.18L160.95,180.48L161.1,183.66L161.4,174.13L161.48,167.06L161.63,160.41L162,176.13L162.08,175.33L162.16,172.97L162.31,167.06L162.76,181.92L162.83,183.37L162.91,184.65L163.29,180.2L163.36,175.91L163.81,179.86L164.11,171.78L164.19,172.93L164.27,173.15L164.72,183.66L165.02,173.52L165.09,170.58L165.7,183.92L165.85,175.41L165.92,168.76L166.07,166.45L166.22,173.1L166.3,173.25L166.6,180.68L166.75,171.53L166.83,152.15L166.9,141.94L167.35,182.44L167.43,180.98L167.66,169.59L167.73,158.31L167.81,155.46L168.03,172.24L168.11,172.76L168.33,180.77L168.56,175.22L168.64,148.87L168.71,142.02L169.01,178.32L169.09,180.15L169.16,181.95L169.39,176.24L169.46,170.17L169.62,164.36L169.99,178.89L170.07,182.19L170.22,182.1L170.29,179.7L170.52,149.91L170.59,170.84L170.67,172.78L171.05,181L171.35,170.68L171.42,172.43L171.5,172.22L171.57,173.91L171.65,177.11L172.03,183.16L172.25,168.37L172.33,159.17L172.7,173.81L173.08,166.16L173.16,164.32L173.38,167.23L173.46,172.54L173.68,180.91L174.14,172.74L174.21,170.28L174.66,177.67L175.04,166.25L175.12,167.8L175.79,181.89L175.94,178.37L176.02,174.94L176.17,171.64L176.4,182.17L176.47,185.25L176.7,177.11L176.77,173.56L176.92,173.42L177,176.78L177.45,187.24L177.6,183.97L177.68,177.32L177.75,172.08L178.13,193.08L178.21,193.96L178.28,193.76L178.36,189.39L178.66,175.67L179.03,189.74L179.11,191.75L179.26,192.91L179.41,189.17L179.49,181.83L179.56,177.97L179.86,198.69L179.94,199.88L180.01,201.46L180.24,195.47L180.32,184.42L180.39,182.73L180.69,193.58L180.77,201.63L180.99,203.65L181.14,195.22L181.22,186.91L181.37,167.87L181.9,186.94L181.97,185.37L182.05,182.13L182.35,171.39L182.65,188.83L182.73,192.77L182.95,193.06L183.03,189.84L183.33,180.15L183.78,187.46L183.86,186.44L184.08,179.32L184.46,191.48L184.53,194.98L184.69,195.97L184.84,193.03L184.91,188.16L185.14,183.08L185.51,189.62L185.74,183.88L185.82,183.56L185.97,183.18L186.04,184.91L186.12,187.41L186.34,189.55L186.72,184.83L186.8,183.06L187.62,169.9L187.7,171.58L187.77,171.54L188.38,188.2L188.68,180.84L188.75,175.73L189.06,184.44L189.73,184.39L189.81,184.59L190.11,189.88L190.41,184.39L190.49,182.71L190.71,180.33L190.94,187.98L191.01,188.87L191.39,181.06L191.77,186.42L191.84,186.58L191.99,185.82L192.07,181.93L192.15,158.83L192.75,200.7L192.82,200.62L193.12,178.82L193.58,191.62L193.65,191.59L193.88,189.08L193.95,173.76L194.03,166.45L194.41,199.63L194.48,199.95L194.56,201.46L194.71,200.78L194.78,186.24L194.93,182.37L195.31,190.47L195.39,193.21L195.84,173.52L195.91,198.4L195.99,197.69L196.29,200.5L196.36,201.74L196.59,200.72L196.67,181.84L197.27,195.15L197.5,192.45L197.57,183.03L198.17,201.16L198.4,200.29L198.47,185.45L198.55,183.06L198.93,192.2L199,193.77L199.45,189.85L199.53,198.27L199.6,199.13L199.98,202.01L200.21,200.33L200.28,183.55L200.43,183.26L200.51,186.77L201.56,203.51L201.79,202.89L201.87,201.96L201.94,201.24L202.02,187.01L202.24,184.47L202.47,190.78L202.54,193.28L202.69,197.01L203,186.4L203.07,180.64L203.52,196.94L203.75,181.53L203.82,176.56L203.98,174.47L204.28,181.01L204.35,187.77L204.58,190.59L204.65,187.23L204.73,179.87L204.88,154.08L205.48,178.44L205.56,174.28L205.86,166.36L206.16,181.79L206.24,183.56L206.39,183.96L206.46,182.98L206.54,178.42L206.69,160.37L207.14,182.68L207.22,182.42L207.29,179.31L207.67,169.3L207.89,177.29L207.97,180.74L208.12,183.83L208.35,177.82L208.42,164.77L208.5,159.6L208.8,177.38L208.87,177.32L208.95,179.21L209.17,176.04L209.25,171.37L209.48,167.88L209.63,174.84L209.7,174.31L209.78,178.96L209.93,182.91L210.15,176.2L210.23,158.5L210.3,157.38L210.38,174.21L210.61,179.38L210.68,182.56L210.91,184.3L210.98,179.29L211.06,173.25L211.21,157.34L211.59,182.06L211.66,185.44L211.89,185.56L211.96,184.87L212.04,178.15L212.34,170.59L212.41,173.37L212.49,178.79L212.64,182.75L212.79,179L212.87,173.37L213.09,168.6L213.32,180.48L213.39,180.32L213.7,186.23L214,179.01L214.07,175.02L214.22,179.09L214.3,182.17L214.45,186.24L214.83,174.57L214.9,173.77L215.88,195.74L215.96,187.26L216.03,187.88L216.33,189.37L216.41,185.69L216.48,178.78L216.71,172.12L216.94,180.1L217.01,186.54L217.24,192.79L217.61,183.24L217.69,178.21L218.07,185.36L218.29,178.62L218.37,175.56L218.52,170.94L218.82,182.99L218.89,186.25L219.2,180.18L219.27,163.78L219.35,159.59L219.42,172.43L219.5,195.68L219.57,197.93L219.65,179.95L219.87,187.87L219.95,184.91L220.33,170.08L220.63,184.64L220.7,188.04L220.78,188.47L220.85,186.12L220.93,186.89L221,183.31L221.08,170.17L221.68,189.42L221.76,186.15L222.13,172.03L222.44,185.76L222.51,188.93L222.74,187.22L222.81,183.1L222.96,165.21L223.42,190.04L223.49,188.29L223.57,185.76L223.87,169.03L224.24,187.42L224.32,188.91L224.62,187.07L224.7,183.13L224.92,178.25L225.3,187.39L225.45,187.04L225.53,182.8L225.68,182.99L225.75,180.71L226.43,192.02L226.58,188.45L226.66,183.94L226.73,182.7L226.96,190.39L227.03,192.6L227.18,189.26L227.26,187.49L227.56,178.18L227.94,189.29L228.01,189.14L228.16,190.42L228.24,189.21L228.31,182.71L228.39,181.09L228.46,189.08L228.54,200.51L228.92,204.14L228.99,194.49L229.07,191.11L229.37,179.64L229.75,190.47L229.82,192.28L230.2,175.56L230.27,198.68L230.35,197.72L230.72,201.58L230.8,201.22L230.88,189.03L231.18,181.74L231.48,193.89L231.55,196.48L231.86,193.58L231.93,185.2L232.01,182.04L232.23,200.45L232.31,200.84L232.46,200.66L232.53,201.44L232.68,200.71L232.76,186.9L232.91,185.28L233.06,187.64L233.14,191L233.66,201.73L234.12,199.96L234.19,199.74L234.34,201.1L234.72,199.2L234.79,187.14L235.32,201.45L235.85,198.87L235.92,198.65L236.15,200.94L236.23,192.03L236.53,186.42L236.83,190.77L236.9,193.52L237.28,201.54L237.81,200.79L237.88,201.01L237.96,202L238.34,199.83L238.56,201.49L238.64,200.55L239.16,200.3L239.62,205.75L239.69,205.79L239.77,206.13L239.84,204.03L239.92,202.35L240.14,193.56L240.45,197.77L240.52,199.14L241.42,206.03L241.5,206.15L241.58,206.4L241.65,203.31L242.03,193.48L242.25,197.14L242.33,200.4L242.4,202.71L242.86,197.36L243.01,198.13L243.08,199.71L243.16,199.57L243.31,199.9L243.38,201.66L243.46,201.79L243.69,201.15L243.76,199.67L243.91,192.91L244.29,202.85L244.44,202.3L244.51,201.85L244.66,188.09L245.19,205.41L245.27,203.65L245.57,191.78L245.72,197.55L245.8,201.4L245.87,196.65L246.02,203.18L246.47,197.37L246.55,204.07L246.7,197.88L247,207.21L247.15,204.85L247.23,193.85L247.45,187.86L247.83,194.17L247.91,194.17L247.98,194.26L248.21,184.63L248.28,182.09L248.73,203.55L249.04,200.99L249.11,186.42L249.26,184.96L249.41,190.06L249.49,189.13L249.56,192.23L250.09,189.97L250.54,201.51L250.62,202.24L250.77,201.1L250.84,186.79L250.99,185.35L251.15,188.54L251.22,191.85L252.43,206.51L252.5,206.43L252.8,192.44L253.1,198.86L253.18,201.39L254.08,206.46L254.16,206.43L254.23,206.68L254.39,206.2L254.46,203.2L254.91,198.47L255.21,202.23L255.29,202.15L255.52,197.75L256.04,202.05L256.12,202.01L256.42,200.33L256.72,201.08L256.8,201.43L257.32,198.94L257.7,204.3L257.78,204.41L257.85,205.93L258,196.42L258.08,194.26L258.38,191.89L258.6,199.12L258.68,201.33L258.83,201.21L258.91,204.73L259.13,200.85L259.58,204.29L259.66,205.75L260.26,196.62L260.56,201.44L260.64,202.54L260.94,199.45L261.24,203.28L261.32,204.78L261.47,205.78L261.62,203.65L261.69,193.73L261.92,190.65L262.22,197.54L262.3,198.63L262.37,197.57L262.6,202.68L262.82,201.33L262.9,201.74L263.28,206.13L263.5,202.65L263.58,193.48L263.65,192.43L264.03,197.9L264.11,198.97L264.26,199.01L264.33,200.24L264.41,200.43L264.48,199.3L264.56,202.05L264.71,204.59L264.78,206.06L265.09,206.45L265.16,205.68L265.24,196.34L265.31,192.57L265.91,200.63L265.99,200.65L266.14,200.81L266.22,203.47L266.29,201.39L266.59,206.77L266.82,206.77L266.89,206.75L267.27,191.43L267.65,198.25L267.72,199.48L267.8,199.84L267.95,198.68L268.02,197.21L268.1,191.13L268.63,205.67L268.7,206.09L268.85,206.05L268.93,204.02L269.08,190.67L269.38,195.66L269.46,199L269.76,203.14L269.91,197.84L270.36,201.49L270.43,201.55L270.81,202.55L270.89,201.61L270.96,195.29L272.32,206.08L272.39,204.14L272.85,197.06L273.07,202.95L273.15,203.96L273.22,204.95L273.6,200.82L273.68,202L273.75,200.87L274.05,206.26L274.43,202.94L274.5,193.16L274.58,192.2L274.88,197.31L274.96,199.48L275.41,197.59L275.48,202.12L275.56,202.14L275.94,203.75L276.16,203.45L276.24,194.38L276.31,193.38L276.61,197.51L276.69,199.69L277.67,207.83L277.74,208.2L278.2,197.66L278.5,200.89L278.57,206.92L279.03,204.16L279.18,207.59L279.33,206.22L279.4,207.22L279.55,208.17L279.78,205.93L279.85,204.9L280.08,205.89L280.16,200.85L280.68,204.12L280.91,202.64L280.98,201.59L281.66,203.77L281.81,202.75L281.89,198.68L282.19,204.18L282.64,201.65L282.72,202.69L282.79,201.64L283.32,203.77L283.4,203.77L283.85,202.69L284,203.87L284.07,203.88L284.15,203.86L284.3,203.61L284.37,199.03L285.13,203.67L285.43,202.5L285.51,202.31L286.03,203.7L286.11,203.66L286.18,200.95L287.09,203.34L287.16,202.17L287.46,202.69L287.54,203.83L287.77,203.95L287.92,203.66L287.99,202.14L288.52,202.27L288.59,203.39L288.82,203.28L288.9,202.16L289.2,201.51L289.65,203.55L289.72,203.53L289.8,202.45L289.95,202.66L290.03,204.51L290.4,206.58L290.63,203.56L290.7,202.43L291.01,200.25L291.31,205.13L291.53,204.18L291.61,202.56L292.21,207.47L292.36,204.31L292.44,203.47L292.74,202.15L292.81,198.81L292.89,199.05L292.96,202.46L293.12,204.66L293.49,200.06L293.57,201.61L293.64,200.4L294.32,203.08L294.47,201.9L294.55,201.81L295,203.43L295.15,203.32L295.23,200.28L295.38,201.38L295.45,200.12L295.53,201.38L295.6,202.18L295.83,203.15L296.21,201.7L296.28,201.71L296.36,201.73L296.81,203.07L296.96,202.94L297.03,200.08L297.11,199.78L297.34,201.42L297.41,201.37L297.49,201.35L297.64,202.62L298.24,201.35L298.31,201.33L298.69,202.78L298.77,202.51L298.84,199.02L299.07,198.95L299.67,202.08L299.75,202.02L299.82,200.5L300.12,201.17L300.2,202.51L300.58,202.42L300.65,200.34L301.18,200.49L301.25,201.9L301.48,202L301.55,200.71L302.23,202.49L302.38,202.42L302.46,201.1L302.69,200.99L302.76,201.62L302.84,202.42L302.99,203.92L303.44,200.85L303.51,202.25L303.59,202.24L304.04,202.48L304.34,199.8L304.49,200.96L304.57,202.83L304.8,204.99L305.02,202.29L305.17,202.35L305.25,200.98L305.62,201.07L305.7,202.42L306,202.28L306.08,198.6L306.3,197.89L306.45,200.1L306.53,200.2L306.98,201.76L307.36,201.1L307.43,201.19L307.66,202.53L307.96,199.38L308.04,200.72L308.11,199.34L308.71,202.18L308.94,200.81L309.01,200.79L309.47,202.68L309.62,202.39L309.69,199.22L309.92,199.17L310.6,202L310.67,200.61L310.97,201.33L311.05,201.59L311.28,203.02L311.58,199.18L311.65,200.7L311.73,199.32L312.33,202.16L312.48,200.76L312.56,200.8L313.08,203.54L313.23,203.08L313.31,201.27L313.84,201.08L313.91,202.42L314.14,202.53L314.21,201.27L314.97,204.31L315.12,203.13L315.19,202.94L315.27,202.47L315.42,204.95L315.49,205.72L315.65,206.85L315.95,203.63L316.02,202.62L316.7,204.47L316.85,203.9L316.93,201.7L317,201.86L317.08,204.46L317.53,206.87L317.76,203.39L317.83,203.41L318.21,202.06L318.43,203.56L318.58,203.2L318.66,202.64L318.96,199.17L319.34,203.45L319.41,202.91L319.71,201.6L320.09,202.31L320.17,203.47L320.47,203.29L320.54,200.44L320.77,199.62L321,201.69L321.07,201.46L321.15,202.28L321.45,202.62L321.52,200.96L322.2,203.16L322.28,203.14L322.35,200L322.58,197.56L322.88,200.3L322.95,202.43L323.26,202.69L323.33,201.33L323.56,201.89L323.71,201.62L323.78,202.86L324.08,202.87L324.16,199.88L324.31,200.74L324.39,199.4L324.69,199.85L324.76,202.37L325.06,202.46L325.14,201.15L325.44,201.77L325.52,202.98L325.82,203.32L325.89,203.16L325.97,201.75L326.5,201.45L326.57,202.7L326.8,202.64L326.87,201.44L327.63,203.99L327.7,203.95L327.78,202.78L327.85,202.06L328.15,205.56L328.23,206.5L328.38,207.12L328.46,206.4L328.53,203.87L328.68,201.89L329.06,205.03L329.13,206.6L329.51,207.18L329.59,206.53L329.89,207.02L329.96,206.99L330.19,207.48L330.49,206.88L330.57,204.74L331.09,206.57L331.47,201.1L331.54,202.28L332,206.25L332.3,203.39L332.37,201.86L332.52,201.67L332.75,202.75L332.83,203.81L333.13,203.49L333.2,200.47L333.73,204.71L334.03,203.48L334.11,202.99L334.18,201.8L334.78,204.04L334.86,204.04L334.94,203.84L335.01,201.29L335.24,200.76L335.31,202.84L335.39,203.11L335.69,204.48L335.76,203.97L335.84,203.28L335.99,201.89L336.37,203.52L336.44,204.67L336.52,204.92L336.74,203.81L336.82,200.76L336.89,200.56L337.12,202.04L337.2,202.32L337.35,202.37L337.42,203.51L337.5,203.7L337.65,202.96L337.72,202.94L337.8,201.79L337.87,201.96L337.95,196.42L338.33,204.15L338.7,201.68L338.78,201.64L339.16,201.81L339.23,202.93L339.46,202.84L339.53,201.63L340.29,204.52L340.36,204.26L340.44,202.88L340.66,202.72L340.74,203.07L340.81,204.2L340.96,205.18L341.34,202.37L341.49,203.68L341.57,203.76L341.94,204.12L342.47,201.5L342.55,203.08L342.7,204.14L343.15,203.54L343.22,202.46L343.6,202.73L343.68,203.82L343.98,203.54L344.05,200.95L344.28,200.78L344.96,203.22L345.03,202.09L345.56,204.15L345.79,203.78L345.86,201.07L346.09,200.97L346.46,203.35L346.77,203.23L346.84,202.23L347.44,204.75L347.59,204.32L347.67,201.8L347.9,201.48L348.27,205.19L348.57,203.79L348.65,202.88L348.88,203.38L348.95,203.89L349.18,204.85L349.4,204.72L349.48,202.35L349.7,202.01L349.93,203.13L350.01,203.13L350.08,204.08L350.38,204L350.46,203.05L350.76,204.16L350.83,204.99L351.66,203.28L351.81,203.41L351.89,204.36L352.27,203.27L352.34,204.29L352.57,204.2L353.7,207.18L353.77,207.08L353.85,205.95L354,204.31L354.3,206.23L354.45,205.96L354.53,207.03L354.9,206.57L355.2,208.29L355.28,209.08L355.43,210.35L355.73,206.59L355.81,205.65L356.18,204.96L356.56,206.7L356.64,205.44L356.79,203.31L357.31,206.64L357.39,206.49L357.77,204.32L358.07,205.43L358.14,206.03L358.45,206.12L358.52,204.39L359.2,205.62L359.42,205.39L359.5,204.85L359.88,205.55L359.95,206.17L360.25,205.99L360.33,204.43L360.55,204.29L361.23,205.63L361.31,205.03L361.46,201.88L361.99,206.25L362.06,206.26L362.36,204.71L362.82,205.92L362.89,205.92L362.97,201.78L363.04,205.94L363.64,205.41L363.72,205.92L363.87,206.42L363.95,205.57L364.32,205.53L364.4,205.53L364.77,206.1L364.85,205.54L364.93,202.19L365.68,206.41L365.9,205.91L365.98,205.88L366.13,201.21L366.58,206.36L366.81,202.38L366.88,203.4L367.04,203.04L367.11,203.66L367.19,204.85L367.71,206.82L368.01,206.55L368.09,206.27L368.17,206.89L368.54,205.49L368.62,205.5L368.69,202.66L369.14,205.9L369.52,204.49L369.6,203.72L370.05,201.72L370.12,205.33L370.2,200.39L370.35,200.67L370.43,204.86L370.95,205.92L371.1,205.63L371.18,203.77L371.78,205.44L372.08,205.22L372.16,204.47L372.54,205.01L372.61,205.71L372.91,205.49L372.99,203.71L373.21,203.65L373.89,205.15L373.97,199.9L374.57,205.45L374.8,203.59L374.87,203.58L375.02,203.48L375.63,205.1L375.7,205.09L375.78,204.29L375.93,200.48L376.23,205.41L376.45,205.36L376.53,205.42L376.98,204.35L377.28,205.13L377.36,205.1L377.58,204.29L377.81,205.52L377.89,205.23L377.96,206L378.34,206.54L378.49,205.5L378.56,205.38L378.87,205.16L378.94,205.55L379.02,206.02L379.32,204.78L379.77,205.09L379.84,205.74L380.15,205.65L380.22,204.29L380.82,207.18L381.05,205.57L381.13,205.26L381.2,204.54L381.8,205.52L381.88,205.32L382.26,203.12L382.63,204.83L382.71,204.82L382.93,204.8L383.01,204.01L383.69,205.72L383.76,205.54L383.84,203.43L384.06,203.3L384.52,205.01L384.74,204.89L384.82,204.22L385.57,205.4L385.65,203.63L386.25,205.61L386.55,205.17L386.63,204.42L386.85,204.81L386.93,205.18L387.08,207.01L387.53,203.94L387.61,204.57L387.68,203.71L388.06,205.83L388.51,204.45L388.59,204.56L389.11,206.27L389.34,204.82L389.41,204.73L389.79,205.04L389.87,205.71L390.17,204.75L390.32,205.66L390.39,205.83L390.54,205.23L390.92,206.23L391.07,205.81L391.15,205.74L391.6,205.59L391.83,206.16L391.9,202.78L392.13,202.83L392.2,203.97L392.81,206.34L393.03,205.73L393.11,205.04L393.48,206.68L393.86,205.33L393.94,205.34L394.31,205.99L394.39,206.81L394.54,207.21L394.61,206.06L394.69,204.7L394.76,204.48L394.91,205.25L394.99,206.42L396.05,207.21L396.12,207.51L396.42,207.27L396.5,206.09L397.1,207.2L397.4,206.95L397.48,206.6L398.23,207.22L398.31,206.08L398.91,206.77L399.13,206.01L399.21,201.6L399.36,201.02L399.44,201.95L399.51,205.87L399.59,203.63L399.81,206.9L400.26,204.85L400.34,204.19L401.32,206.17L401.4,205.85L401.62,206.59L402,204.85L402.07,204.83L402.6,205.78L402.75,205.56L402.83,204.84L402.9,201.94L403.5,206.77L403.58,206.92L404.11,205.76L404.48,206.17L404.56,206.14L404.64,205.59L405.16,206.57L405.24,206.54L405.31,206.51L405.39,206.66L405.54,205.42L405.61,205.19L406.14,206.8L406.44,206.04L406.52,205.53L407.2,206.25L407.27,206.12L407.35,204.11L407.42,203.57L407.88,204.88L407.95,205.6L408.33,204.72L408.48,205.17L408.55,205.69L409.08,206.07L409.16,204.17L409.38,203.91L409.61,204.85L409.68,204.84L409.76,205.51L410.21,204.91L410.29,205.13L410.36,205.61L410.81,206.48L410.89,206.3L410.96,204.65L411.19,204.48L411.87,205.82L411.94,204.98L412.55,206.91L412.7,206.48L412.77,204.71L412.92,205.13L413,204.46L413.3,205.15L413.38,205.78L413.75,204.62L414.05,205.56L414.13,206.15L414.51,206.09L414.58,204.58L414.73,204.12L415.11,204.67L415.18,205.56L415.49,205.14L416.24,206.6L416.31,206.46L416.39,205.83L416.69,205.58L417.14,206.1L417.22,206.11L417.29,205.62L417.52,206.35L417.9,206.38L417.97,206.37L418.12,206.39L418.2,205.35L418.42,204.91L418.65,205.91L418.73,205.87L418.8,206.05L419.55,205.7L419.63,206.25L419.93,206.09L420.01,204.29L420.91,205.66L420.99,205.01L421.36,205.55L421.44,206.16L421.74,206.04L421.82,204.39L422.04,204.27L422.72,205.68L422.79,205.03L423.17,205.47L423.25,206.06L423.55,206.07L423.62,204.36L424.53,205.75L424.6,205.11L424.98,205.51L425.06,206.09L425.36,206.09L425.43,204.3L426.26,205.81L426.34,205.78L426.41,205.11L426.71,205.43L426.79,206.02L427.09,206.83L427.24,205.24L427.32,205.05L427.77,205.56L427.84,205.85L428.14,205.27L428.37,205.74L428.45,206.46L428.52,205.47L428.97,206.7L429.2,206.18L429.28,205.86L430.03,205.87L430.1,206.41L430.33,205.85L430.78,206.82L430.86,205.64L431.08,205.29L431.23,205.97L431.38,205.8L431.46,206.31L432.14,205.2L432.29,206.16L432.36,206.16L432.59,205.9L432.67,204.5L432.82,204.82L432.89,203.73L433.19,204.47L433.27,205.21L433.49,205.28L433.57,200.01L433.8,199.11L433.87,204.86L434.1,206.34L434.47,204L434.55,203.99L435.23,205.57L435.38,205.43L435.45,200.56L436.06,206.2L436.21,205.94L436.28,204.23L437.04,205.63L437.11,205.58L437.19,200.89L437.41,199.24L437.56,203.08L437.64,204.74L437.87,206.35L438.09,204.39L438.39,205.22L438.47,205.36L438.62,205.22L438.69,205.98L439,205.84L439.07,201.51L439.22,200.94L439.3,205.42L439.75,207.15L440.05,205.76L440.13,205.76L441.03,206.3L441.11,206.79L441.63,207.21L441.86,206.78L441.93,206.72L443.67,206.85L443.74,206.45L444.42,207.14L444.57,206.79L444.65,206.72L445.25,207.34L445.32,206.21L446.23,206.99L446.3,206.6L446.38,206.6L446.76,207.3L447.06,207.15L447.13,205.97L448.04,206.78L448.11,206.35L448.87,207.05L448.94,205.78L449.17,205.68L449.77,206.65L449.85,203.92L449.92,203.47L450.15,206.66L450.22,206.61L450.6,207.02L450.67,206.97L450.75,205.69L451.65,206.6L451.73,206.13L452.03,206.62L452.11,207.01L452.48,206.98L452.56,206.19L453.69,206.67L453.76,207L454.22,207.16L454.59,206.63L454.67,206.62L456.1,207.08L456.18,206.42L456.4,206.29L457.08,206.98L457.15,206.58L457.91,207.02L457.98,205.78L458.89,206.67L458.96,206.28L459.04,206.27L459.57,207.21L459.72,207.04L459.79,205.81L460.62,206.68L460.7,203.98L460.92,204L461,205.11L461.3,207.07L461.75,206.28L461.83,205.85L462.2,206.73L462.35,206.67L462.43,203.08L462.58,202.14L462.96,205.21L463.03,205.96L463.26,205.95L463.33,205.14L463.48,200.77L464.01,206.72L464.09,203.65L464.16,203.26L464.31,202.4L464.69,204.49L464.77,205.24L465.07,207.1L465.52,206.31L465.59,206.31L465.9,206.79L465.97,203.79L466.2,203.39L466.42,205.36L466.5,207.05L466.95,207.4L467.25,207.01L467.33,204.44L467.48,204.75L467.85,203.87L468.08,204.47L468.16,204.79L468.61,206.12L468.76,205.18L468.83,203.95L468.91,203.29L468.99,206.88L469.21,206.85L469.29,206.85L469.51,207.2L469.59,204.44L469.81,203.27L470.04,204.78L470.12,204.78L470.19,206.86L470.42,207.23L470.57,205.24L470.64,202.33L470.72,201.39L471.02,203.71L471.17,203.7L471.25,204.16L471.47,202.9L471.55,206.78L471.62,206.35L471.7,206.4L472.3,207.46L472.38,207.41L472.45,206.26L472.68,206.09L473.05,207.03L473.13,206.96L473.2,204.72L473.51,203.98L473.73,205.7L473.81,206.29L473.96,206.87L474.18,205.99L474.26,203.57L474.33,202.85L474.71,204.65L474.94,204.04L475.01,204.09L475.84,207.45L475.92,207.44L476.29,206L476.6,206.44L476.67,206.88L477.35,207.09L477.42,207.43L477.8,207.34L477.88,206.5L478.1,203.19L478.48,206.9L478.78,203.5L478.86,203.57L479.53,207.21L479.61,206.17L479.68,205.75L479.91,206.69L479.99,202.93L480.21,206.71L480.29,207.08L480.44,207.06L480.51,204.06L480.59,203.69L481.04,204.96L481.12,205.73L481.27,205.76L481.34,205.4L481.42,204.69L481.49,203.13L481.95,207.03L482.02,207.02L482.1,207.22L482.47,203.56L482.85,206.87L482.92,207.26L483.23,207.22L483.3,206L484.21,206.9L484.28,206.5L484.88,207.44L484.96,206.85L485.03,206.43L485.11,203.66L485.71,206.9L485.79,206.86L486.09,203.5L486.39,207.16L486.47,207.15L486.54,207.45L486.84,207.44L486.92,206.22L487.14,206.1L487.67,206.95L487.75,204.17L487.9,203.77L488.05,204.71L488.12,207.09L488.35,207.28L488.95,205.9L489.25,206.44L489.33,206.9L490.01,206.91L490.08,207.24L490.46,207.17L490.54,206.36L490.61,206.14L491.14,206.85L491.21,206.85L491.44,203.94L491.97,206.27L492.04,206.27L492.42,205.6L493.02,207.27L493.1,204.91L493.25,204.19L493.7,205.66L493.78,206.31L494.23,202.91L494.3,206.86L494.6,206.95L495.13,203.15L495.43,204.43L495.51,205.47L495.66,207.2L496.04,201.38L496.26,206.25L496.34,206.23L496.64,206.46L496.71,202.66L496.86,201.24L497.24,204.51L497.32,205.23L497.54,205.9L497.69,204.54L497.77,201.22L497.84,198.25L498.22,206.38L498.45,203.62L498.52,202.13L498.67,200.8L499.05,203.74L499.13,204.44L499.28,205.17L499.5,204.2L499.58,201.03L499.65,200.53L499.73,206.16L500.18,206.78L500.33,202.98L500.41,201.64L500.56,201.25L500.71,202.41L500.78,204.14L501.24,205.8L501.31,204.91L501.39,201.45L501.46,200.08L501.84,206.2L502.06,202.73L502.14,202.2L502.29,200.47L502.74,204.06L502.82,204.87L503.04,205.26L503.19,203.3L503.27,202.55L503.5,200.03L503.72,206.36L503.8,206.76L504.17,201.77L504.55,204.78L504.63,205.4L504.93,204.86L505,204.44L506.06,201.13L506.13,202.28L506.66,203.42L506.74,202.66L506.81,200.83L506.89,199.7L507.26,203.3L507.41,202.91L507.49,202.39L507.72,197.85L508.17,201.53L508.24,202.77L508.47,201.95L508.54,191.12L508.7,171.49L509.22,189.31L509.3,189.31L509.52,181.74L509.83,198.76L509.9,195.24L509.98,197.19L510.13,198.68L510.28,192.8L510.35,189.14L510.5,174.87L511.03,193.59L511.11,192.25L512.01,207.18L512.16,206.83L512.24,200.48L512.69,206.46L512.91,202.42L512.99,200.18L513.14,199.32L513.29,201.01L513.37,201.71L513.67,204.86L513.97,201.4L514.04,196.49L514.35,204.71L514.95,192.06L515.02,191.94L515.63,199.73L515.85,195.16L515.93,193.52L516.08,189.62L516.31,197.92L516.38,200.47L516.46,200.32L516.53,197.25L516.68,194.96L516.98,201.96L517.06,203.55L517.51,205.03L517.66,204.1L517.74,202.16L518.26,203.43L518.57,198.42L518.64,200.56L519.24,204.39L519.39,203.55L519.47,198.61L519.92,204.24L520.37,192.38L520.45,192.54L520.53,192.4L520.6,192.98L520.68,193.94L520.83,196.07L520.9,196.77L521.05,195.91L521.13,194.23L521.35,177.76L521.81,190.2L521.88,190.25L522.11,184.75L522.41,188.42L522.48,191.6L522.56,191.41L522.64,193.74L522.86,196.78L523.09,185.49L523.16,181.74L523.69,194.77L523.99,189.78L524.07,189.25L524.67,197.78L524.82,194.27L524.9,184.26L524.97,179.79L525.5,192.66L525.57,190.88L525.72,185.5L526.1,194.7L526.18,196.47L526.33,202.19L526.7,190.48L526.78,185.3L527.38,192.78L527.53,189.46L527.61,189.43L527.83,190.48L527.91,193.64L528.29,197.79L528.89,186.08L528.96,187.97L529.04,188.86L529.34,187.35L530.02,195.01L530.25,193.85L530.32,190.74L531.15,181.29L531.23,182.65L531.3,185.02L531.83,199.69L532.05,192.88L532.13,185.82L532.2,181.8L532.58,193.38L532.81,189.39L532.88,186.31L532.96,184.41L533.33,189.48L533.41,188.31L533.49,191.32L533.64,193.4L533.86,190.5L533.94,153.05L534.01,139.45L534.47,183.27L534.54,179.58L534.62,179.38L534.77,166.61L535.29,191.41L535.37,193.68L535.52,193.95L535.6,193.83L535.67,191.34L535.82,178.87L536.42,187.36L536.5,185.91L536.57,183.55L537.03,189.72L537.1,191.82L537.18,193.91L537.48,189.96L537.55,182.17L537.63,175.16L538.08,185.26L538.23,183.46L538.31,182.23L538.38,179.79L538.84,185.75L538.91,188.5L538.99,190.59L539.29,187.04L539.36,178.27L539.44,174.08L539.89,182.66L540.04,181.75L540.12,178.27L540.19,176.47L540.64,184.11L540.72,186.58L540.95,188.94L541.1,188L541.17,176.09L542,154.54L542.08,159.53L542.68,190.04L542.9,188.34L542.98,184.81L543.81,153.09L543.88,169.5L543.96,177.79L544.56,197.41L544.94,188.78L545.01,187.95L545.32,189.13L545.39,188.89L545.47,185.35L545.69,178.09L546.07,189.33L546.14,196.88L546.37,199.67L546.52,189.02L546.6,178.12L547.43,161.82L547.5,164.27L548.25,187.61L548.33,183.77L548.41,171.22L548.93,172.58L549.23,147.92L549.31,144.73L549.99,187.81L550.14,183.32L550.21,173.78L550.29,164.41L550.67,181.96L550.89,178.24L550.97,176.06L551.04,172.5L551.49,185.56L551.57,188.99L551.87,197.55L551.95,188.72L552.02,177.62L552.1,168.22L552.7,180.85L552.78,178.11L552.85,176.18L553.23,183.78L553.3,185.65L553.6,201.21L553.91,184.88L553.98,180.88L554.13,176.33L554.51,183.13L554.73,180.33L554.81,181.79L555.56,200.17L555.71,196.06L555.79,191.93L556.47,185.96L556.62,186.86L556.69,188.9L557.3,196.15L557.45,189.97L557.52,183.66L557.9,189.99L558.2,184.6L558.28,180.6L558.95,195.08L559.18,191.26L559.26,182.89L559.63,186.81L560.16,159.32L560.24,173.22L560.84,190.77L560.99,185.6L561.06,174.47L561.14,156.15L561.52,180.84L561.82,171.15L561.89,160.96L561.97,157.57L562.19,178.66L562.27,182.01L562.65,190.01L562.8,185.87L562.87,177.31L562.95,168.28L563.4,181.12L563.55,180.02L563.63,176.56L563.7,174.48L564.08,184.59L564.15,185.59L564.3,189.52L564.61,184.19L564.68,173.29L564.76,165.19L565.13,178.21L565.36,177.64L565.43,175.54L565.51,171.73L565.96,183.32L566.04,187.18L566.26,193.74L566.56,181.78L566.64,178.27L567.39,171.95L567.47,173.8L567.54,175.88L568.15,186.83L568.37,181.69L568.45,176.29L569.2,158.71L569.28,170.02L569.35,172.02L569.88,185.31L570.11,173.58L570.18,167.96L570.56,177.3L570.86,167.4L570.94,157.2L571.76,183.63L571.84,180.13L571.91,169.19L572.14,158.05L572.59,174.53L572.67,173.58L572.74,168.85L573.2,183.82L573.27,186.87L573.5,189L573.65,186.77L573.72,177.08L574.55,165.23L574.63,165.87L575.31,183.7L575.46,178.48L575.53,162.27L575.61,143.48L575.98,166.84L576.28,156.81L576.36,151.37L576.44,148.56L576.66,163.67L576.74,169.48L577.11,180.46L577.26,174.28L577.34,160.21L578.17,131.22L578.24,144.96L578.85,177.03L579.15,166.24L579.22,158.74L580.05,140.05L580.13,143.25L580.81,176.25L581.03,166.26L581.11,160.38L581.86,151.11L581.94,157.89L582.61,188.11L582.92,178.32L582.99,175.6L583.52,167.98L583.59,159.74L583.67,156.5L583.97,168.6L584.05,172.32L584.27,182.83L584.57,159.19L584.65,142.22L585.03,165.6L585.4,149.7L585.48,151.88L586.16,180.94L586.31,174.19L586.38,156.76L586.46,143.21L586.76,157.79L587.14,152.97L587.21,147.69L587.66,172L587.74,175.08L588.04,179.68L588.19,164.28L588.27,159.25L588.87,182.24L589.09,175.59L589.17,175.75L589.47,183.55L589.55,187.85L589.85,198.11L590,178.87L590.07,171.48L590.45,183.33L590.83,176.7L590.9,178.08L591.66,194.43L591.73,190.2L591.81,185.15L592.11,169.42L592.71,170.82L592.79,172.2L592.94,175.86L593.01,180.39L593.47,186.08L593.62,181.82L593.69,177.78L594.52,152.25L594.67,158.08L594.75,163.63L595.27,176.71L595.35,173.51L595.42,163.81L595.88,165.66L596.33,144.32L596.4,144.27L597.08,178.9L597.23,155.35L597.31,138.14L597.91,158.29L598.06,149.32L598.14,150L598.81,178.6L598.97,170.98L599.04,157.21L599.87,117.94L599.95,123.2L600.7,174.52L600.85,156.58L600.92,137.13L601.3,155.85L601.6,133.91L601.68,111L602.36,177.14L602.66,155.73L602.73,129.33L602.81,129.57L602.88,121.08L603.34,142.81L603.49,107.68L603.56,114.01L604.24,173.98L604.47,162.34L604.54,148.28L605.3,97.51L605.37,108.21L605.45,123.65L606.05,167.09L606.35,158.88L606.43,147.84L607.18,125.37L607.25,134.69L607.33,141.16L607.78,163.74L608.08,153.89L608.16,143.55L608.23,154.68L608.84,138.86L608.91,132L608.99,131.76L609.06,132.81L609.14,141.26L609.67,164.18L609.82,157.06L609.89,139.72L610.65,74.26L610.72,91L610.8,122.65L611.47,162.95L611.62,157.3L611.7,137.75L611.85,38.26L612.45,90.91L612.53,107.43L613.36,165.03L613.51,144.05L613.58,120.01L613.73,117.32L614.19,141.36L614.26,127.96L614.34,119.1L615.09,170.34L615.32,148.39L615.39,130.86L616.37,156.44L616.45,161.06L616.9,177.7L617.2,164.21L617.28,156.09L617.43,146.42L617.73,158.95L618.03,153.46L618.1,159.79L618.78,183.63L619.01,177.7L619.08,174.29L619.31,164.48L619.84,173.04L619.91,174.05L620.59,194.12L620.74,182.54L620.82,177.51L621.27,180.68L621.42,178.11L621.5,174.26L621.65,170.49L622.02,178.85L622.1,184.4L622.32,191.03L622.55,172.4L622.63,161.6L623,172.02L623.3,165.5L623.38,157.92L623.45,156.37L623.68,167.57L623.76,171.61L624.13,181.9L624.36,163.48L624.43,150.82L625.41,165.98L625.49,167.76L626.02,182.1L626.17,167.57L626.24,151.15L626.62,165.3L627,153.95L627.07,155.82L627.67,178.34L627.9,172.98L627.98,157.94L628.05,139.75L628.73,149.57L628.8,145.91L628.96,151.18L629.03,155.6L629.63,179.82L629.86,165.09L629.93,155.03L630.01,149.27L630.39,166.89L630.54,163.8L630.61,161.87L631.52,187.33L631.74,178.77L631.82,175.44L631.89,173.83L632.27,182.14L632.35,182.04L632.42,179.59L632.87,188.21L632.95,190.18L633.25,196.21L633.48,183.13L633.55,187.87L633.63,185.69L633.93,190.64L634,189.09L634.08,186.27L634.38,180.97L634.68,186.59L634.76,188.71L634.98,191.16L635.13,186.89L635.21,177.69L635.28,171.46L635.74,180.51L635.89,179.93L635.96,178.85L636.04,176.54L636.42,185.37L636.49,186.63L636.79,191.85L637.02,179.44L637.09,173.31L637.62,180.32L637.85,174.51L637.92,174.42L638.68,194.35L638.75,190.13L638.83,180.1L639.35,180.57L639.66,169.54L639.73,169.21L640.48,191.52L640.63,182.04L640.71,172.36L641.31,181.2L641.46,176.95L641.54,176.99L641.77,179.63L641.84,184.53L642.22,200.42L642.52,184.78L642.59,181.44L643.35,173.92L643.42,176.51L643.5,178.15L644.03,200.34L644.33,190.84L644.4,184.41L645.08,169.81L645.31,174.29L645.38,177.54L645.98,187.65L646.06,183.03L646.14,174.26L647.11,185.95L647.19,186.64L647.79,194.95L647.94,189.19L648.02,183.49L648.09,176.56L648.77,179.59L648.85,180.81L648.92,178.7L649.22,184.78L649.3,190.53L649.9,169.34L650.28,172.18L650.36,173L650.73,172.01L650.81,173.26L651.33,181.17L651.41,177.56L651.49,167.1L651.56,159.26L651.86,170.39L652.24,164.69L652.31,163.67L652.62,174.67L652.69,178.16L653.07,192.85L653.37,176.29L653.44,181.23L653.52,176.43L653.67,177.52L654.12,171.2L654.35,173.02L654.42,176.06L655.03,190.8L655.18,183.96L655.25,178.35L655.93,169.67L656.08,171.29L656.16,172.08L656.84,185.37L656.99,180.59L657.06,177.85L657.51,178.92L657.81,172.18L657.89,175.13L658.57,192.39L658.72,185.44L658.79,180.66L658.87,183.22L659.4,179.87L659.47,177.59L659.55,175.44L660,181.21" style="fill: rgb(54, 112, 97); fill-opacity: 0.5; stroke-width: 0;"/></g></g><g class="errorbars"/><g class="lines"><path class="js-line" d="M0,176.66L0.53,188.96L0.68,174.76L0.75,171.09L0.83,168.04L1.13,173.13L1.43,171.44L1.51,171.61L1.58,171.82L1.66,175.82L1.73,176.01L1.81,173.32L2.03,176.94L2.26,161.35L2.34,146.78L2.79,158.82L3.01,150.3L3.09,143.68L3.16,142.11L3.32,149.31L3.39,154.88L3.77,171.08L3.99,163.42L4.07,149.48L4.14,128.31L4.82,138.36L4.9,132.44L5.12,140.58L5.2,150.78L5.65,183.12L5.95,153.31L6.03,160.36L6.56,162.41L6.71,154.46L6.78,156.52L6.86,157.37L7.23,176.18L7.31,178.71L7.46,181.76L7.61,176.18L7.69,162.88L8.51,136.2L8.59,136.28L8.67,141.86L9.34,181.93L9.64,162.69L9.72,156.16L9.87,155.62L9.95,158.42L10.02,160.75L10.1,161.02L10.17,158.35L10.32,147.16L10.55,154.47L10.62,160.4L11.15,183.96L11.45,168.5L11.53,163.84L11.6,162.65L11.83,170.73L11.91,173.55L11.98,173.71L12.06,173.53L12.13,171.65L12.21,171.3L12.28,172.86L12.36,176.28L12.89,204.6L13.26,191.48L13.34,181.86L13.49,180.82L13.56,181.14L13.64,183.17L14.02,174.76L14.32,181.72L14.39,187.02L14.69,197.72L14.92,173.96L14.99,164.03L15.15,163.05L15.45,173.38L15.67,166.18L15.75,157.81L16.35,187.89L16.65,181.17L16.73,164.76L16.8,151.94L17.26,166.51L17.41,166.07L17.48,164.79L17.56,160.22L17.86,176.02L17.93,182.31L18.31,201.12L18.54,183.34L18.61,168.03L18.76,167.97L19.06,177.98L19.37,169.28L19.44,169.15L19.89,191.83L19.97,204.58L20.27,194.99L20.34,178.51L20.42,167.03L20.87,180.19L21.1,176.75L21.17,170.77L21.25,169.65L21.4,174.3L21.48,178.42L21.85,202.25L22.23,182.89L22.3,175.71L22.45,171.18L22.76,180.18L23.06,173.5L23.13,175.26L23.74,190.07L23.81,197.36L23.96,194.94L24.04,185.48L24.34,168.8L24.94,172.84L25.02,173.73L25.62,203.53L25.92,199.75L26,189.76L26.67,172.52L26.82,173.34L26.9,174.94L27.28,184.98L27.5,175.23L27.58,161.34L27.65,147.23L28.11,165.19L28.33,158.64L28.41,152.12L28.48,151.13L28.56,155.07L28.63,160.47L29.09,184.6L29.31,178.37L29.39,164.57L29.46,155.95L29.84,171.36L30.14,161.19L30.22,156.92L31.04,181.54L31.12,177.09L31.2,163.09L31.27,149.64L31.72,171.2L31.87,167.87L31.95,163.22L32.02,157.66L32.48,174.86L32.55,179.65L32.85,183.13L32.93,178.27L33,165.3L33.08,148.01L33.76,151.24L33.83,148.52L34.51,174.43L34.81,165.53L34.89,161.34L35.11,128.53L35.64,148.44L35.72,145.57L36.47,167.42L36.62,164.24L36.7,155.95L37.52,127.86L37.6,141.86L38.05,163.27L38.35,158.88L38.43,146.67L39.11,148.42L39.26,127.15L39.33,123.3L40.09,165.24L40.16,160.72L40.24,145.25L40.31,106.12L40.99,131.99L41.07,118.44L41.14,118.89L41.22,141.7L41.82,175.02L42.05,157.11L42.12,148.66L42.27,125.71L42.57,150.82L42.87,130.65L42.95,158.6L43.7,183.74L43.78,179.81L43.85,167.51L43.93,148.45L44.53,176.76L44.61,172.51L44.76,165.47L45.21,180.85L45.29,184.28L45.44,184.85L45.51,184.32L45.59,180.5L45.74,158.75L46.42,165.94L46.49,161.88L46.57,161.75L46.64,163.14L47.17,179.98L47.4,176.73L47.47,166.66L47.77,133.42L48.3,134.95L48.38,155.96L49.05,177.77L49.35,170.88L49.43,165.56L49.58,158.02L49.96,170.24L50.18,164.84L50.26,166.7L50.64,178.28L50.71,180.29L50.94,182.39L51.01,179.44L51.09,171.45L51.16,165.56L51.69,180.67L51.77,182.01L51.92,177.76L52.37,187.74L52.44,191.13L52.67,198.46L52.82,190.65L52.9,176.78L52.97,171.07L53.5,185.66L53.57,184.37L53.88,176.21L54.25,185.28L54.33,187.64L54.55,185.87L54.63,182.31L54.78,161.73L55.38,175.9L55.46,174.38L55.53,170.46L55.99,182.69L56.06,182.8L56.36,185.98L56.44,181.55L56.51,168.87L56.59,157.35L57.04,173.25L57.19,171.78L57.27,169.09L57.34,162.43L57.87,178.16L57.94,180.68L58.02,181.52L58.17,178.18L58.25,174.05L59.15,137.19L59.23,135.5L59.45,151.96L59.53,160.95L59.9,179.38L60.28,163.99L60.36,159.63L60.73,166.61L60.96,159.46L61.03,159.07L61.56,173.9L61.94,166.52L62.01,160.61L62.16,134.66L62.69,155.44L62.77,151.35L62.84,149.98L62.99,159.36L63.07,163.79L63.6,178.08L63.75,165.98L63.82,160.62L64.27,173.01L64.5,166.84L64.58,160.51L64.65,158.7L64.95,166.84L65.03,168.5L65.33,175.38L65.48,168.48L65.56,141.52L65.63,120.56L66.16,160.96L66.23,158.08L66.31,144.32L66.38,136.58L66.84,168.01L66.91,172.89L67.21,175.43L67.29,170.61L67.36,158.22L67.44,151.93L67.82,166.85L67.97,166.15L68.04,167.89L68.27,160.86L68.64,169.19L68.72,175.49L68.87,179.11L69.1,172.74L69.17,162.54L69.25,152.96L69.78,170.89L69.85,172.56L70,167.69L70.3,174.46L70.38,178.73L70.83,189.03L70.91,185.62L70.98,176.12L71.06,168.63L71.66,182.33L71.73,179.44L71.96,175.77L72.19,181.62L72.26,183.04L72.41,187.72L72.79,179.94L72.86,174.97L73.09,164.38L73.54,176.28L73.62,173.45L73.69,173.89L73.92,178.38L73.99,183.04L74.52,189.63L74.67,184.31L74.75,180.43L75.2,181.14L75.5,169L75.58,171.37L75.65,175.22L76.1,184.33L76.33,179.89L76.41,171.32L76.48,163.93L77.01,179.5L77.08,179.04L77.16,173.88L77.31,170.22L77.69,179.69L77.76,182.75L77.91,186.22L78.21,171.03L78.29,164.2L78.82,183.41L79.04,171.67L79.12,171.71L79.19,170.38L79.5,178.59L79.57,181.83L79.72,183.76L79.95,178.24L80.02,165.63L80.1,129.59L80.7,169.86L80.78,159.53L80.85,145.46L80.93,139.8L81.15,168.94L81.23,174.31L81.3,173.37L81.38,178.53L81.45,181.92L81.68,182.01L81.76,177.48L81.98,147.8L82.51,171.02L82.58,167.74L82.74,165.72L82.96,173.27L83.04,176.45L83.26,184.53L83.56,180.37L83.64,167.1L83.87,155.97L84.17,175.3L84.24,174.14L84.32,174.32L84.62,167.07L84.92,178.35L85,179.68L85.3,188.09L85.6,177.22L85.67,172.28L85.75,171.39L85.9,175.31L85.98,178.03L86.35,175.36L87.03,193.35L87.18,190.58L87.26,186.8L87.56,170.04L88.16,172.92L88.24,172.95L88.84,184.54L88.99,179.63L89.06,171.95L89.14,161.82L89.67,179.65L89.74,179.11L89.82,174.88L89.97,167.78L90.42,182.61L90.5,187.88L90.72,196.57L90.95,170.39L91.1,179.72L91.17,182.85L91.55,188.55L91.7,178.12L91.78,175.46L92,178.08L92.08,182.18L92.31,196.04L92.68,178.52L92.76,169.15L93.06,178.26L93.44,171.13L93.51,165.74L93.59,156.88L94.11,182.07L94.19,182.18L94.34,182.18L94.41,178.89L94.57,159.8L95.17,172.7L95.24,167.69L95.32,165.79L95.62,170.08L95.7,174.7L96.15,181.34L96.22,178.11L96.3,167.59L96.37,160.74L96.9,175.43L96.98,175.37L97.2,165.37L97.65,179.23L97.73,182.39L97.88,184.41L98.18,175.41L98.26,171.85L98.41,165.69L98.79,174.34L99.01,169.3L99.09,171.34L99.69,184.74L99.99,180.32L100.07,175.06L100.52,180.41L100.82,171.7L100.9,171.71L101.42,182.83L101.65,177.94L101.72,170.29L101.8,163.54L102.25,181.99L102.33,182.74L102.7,165.75L102.85,171.47L102.93,174.23L103.23,181.87L103.46,176.11L103.53,164.33L103.68,150.67L104.14,179.94L104.21,179.86L104.51,167.14L104.89,178.64L104.96,180.67L105.04,182.3L105.27,176.75L105.34,167.17L105.42,158.23L105.94,178.87L106.02,178.87L106.25,166.87L106.7,178.35L106.77,183.23L107.07,177.88L107.15,168.43L107.22,148.31L107.83,180.08L107.9,176.54L108.13,168.2L108.51,179.17L108.58,182.55L108.88,177.2L108.96,167.42L109.03,156.47L109.64,177.94L109.71,174.61L109.86,166.53L110.31,177.84L110.39,179.51L110.69,178.79L110.77,175.42L111.07,159.82L111.37,178.7L111.44,177.74L111.52,176.29L111.59,172.86L112.12,180.1L112.2,183.37L112.35,183.24L112.42,184.49L113.55,165.16L113.63,167.22L113.7,170.76L114.01,178.69L114.31,172.82L114.38,164.83L114.46,155.57L114.91,175.24L114.99,174.82L115.06,173.85L115.36,146.71L115.66,167.1L115.74,168.73L115.89,175.51L116.19,154.15L116.27,125.86L116.87,168.34L117.1,146.4L117.17,140.04L117.7,176.9L118,162L118.08,151.41L118.68,170.4L118.83,157.3L118.9,145.16L119.58,171.21L119.73,162.83L119.81,144.23L119.88,122.55L120.49,159.6L120.56,154.68L120.79,137.74L121.09,164.21L121.16,167.8L121.39,172.31L121.54,166.69L121.62,150.09L121.69,132.16L122.29,166.39L122.37,162.55L122.6,144.35L122.97,167.95L123.05,171.58L123.2,172.12L123.35,168.79L123.43,162.75L123.73,145.27L124.25,151.29L124.33,147.97L125.01,174.67L125.23,167.45L125.31,162.42L125.38,157.4L125.84,172.47L125.91,172.08L125.99,168.01L126.21,159.15L126.59,172L126.67,174.54L126.89,175.48L126.97,172.69L127.04,165.91L127.12,159.23L127.64,177.17L127.72,178L127.95,162.63L128.32,175.81L128.4,180.31L128.62,187.5L128.85,170.77L128.93,164.56L129.53,176.27L129.68,171.43L129.75,169.9L129.83,168.98L129.98,174.25L130.06,177.01L130.51,183.82L130.58,181.24L130.66,170.34L130.73,160.38L131.34,179L131.41,173.83L131.71,164.57L132.09,177.02L132.17,175.69L132.39,170.01L132.47,157.67L132.54,139.45L132.99,177.59L133.07,177.02L133.15,176.69L133.52,163.15L133.82,173.31L133.9,174.98L133.97,177.39L134.2,172.96L134.28,161.02L134.35,139.64L134.8,178.11L134.95,177.29L135.03,173.29L135.18,166.64L135.63,180.96L135.71,183.52L135.86,185.26L136.08,179.39L136.16,175.58L136.99,166.89L137.06,169.22L137.52,182.71L137.59,184.4L137.67,184.76L137.82,183.83L137.89,180.82L138.19,171.8L138.42,181.33L138.5,182.87L138.72,174.11L138.8,170.81L139.55,185.49L139.63,182.6L139.7,175.51L139.78,169.81L140.23,180.75L140.38,179.76L140.45,176.3L140.61,172.79L141.06,181.66L141.13,184.87L141.36,184.99L141.43,181.53L141.58,165.61L142.11,181.51L142.19,181.17L142.49,167.18L142.79,176.69L142.87,180.04L143.09,183.35L143.32,169.57L143.39,162.78L144,176.35L144.15,169.7L144.22,168.16L144.6,179.08L144.67,182.96L144.98,188.49L145.13,174.65L145.2,167.51L145.8,184.3L146.03,176.48L146.11,174.74L146.26,176.35L146.33,180.22L146.78,197.24L146.86,189.03L146.93,178.08L147.01,171.07L147.54,185.39L147.61,184.48L147.91,174.86L148.22,183.69L148.29,186.58L148.59,193.56L148.89,180.87L148.97,178.8L149.42,182.71L149.72,176.25L149.8,176.34L149.87,180.55L150.4,203.44L150.63,190.34L150.7,183.74L150.93,176.14L151.53,177.67L151.61,178.44L152.21,186.52L152.28,184.73L152.36,176.7L152.44,169.26L152.96,182.41L153.04,180.81L153.11,176.71L153.34,166.55L153.79,179.36L153.87,180.21L154.09,171.87L154.17,155.86L154.24,155.7L154.32,167.77L154.39,168.03L154.47,173.19L154.85,179.99L155,169.19L155.07,166.78L155.15,164.31L155.45,173.66L155.52,177.37L155.6,179.34L155.83,175.2L155.9,166.17L156.05,136.27L156.43,173.93L156.58,173.53L156.65,174.15L156.88,146.87L157.11,166.28L157.18,173.08L157.41,180.38L157.63,179.17L157.71,173.98L157.86,143.52L158.39,172.97L158.46,174.03L158.69,150.56L159.07,176.11L159.14,180.04L159.37,182.43L159.52,177.39L159.59,158.79L159.67,146.26L160.05,175.77L160.2,175.56L160.27,176.82L160.57,162.24L160.87,175.18L160.95,180.48L161.1,183.66L161.4,174.13L161.48,167.06L161.63,160.41L162,176.13L162.08,175.33L162.16,172.97L162.31,167.06L162.76,181.92L162.83,183.37L162.91,184.65L163.29,180.2L163.36,175.91L163.81,179.86L164.11,171.78L164.19,172.93L164.27,173.15L164.72,183.66L165.02,173.52L165.09,170.58L165.7,183.92L165.85,175.41L165.92,168.76L166.07,166.45L166.22,173.1L166.3,173.25L166.6,180.68L166.75,171.53L166.83,152.15L166.9,141.94L167.35,182.44L167.43,180.98L167.66,169.59L167.73,158.31L167.81,155.46L168.03,172.24L168.11,172.76L168.33,180.77L168.56,175.22L168.64,148.87L168.71,142.02L169.01,178.32L169.09,180.15L169.16,181.95L169.39,176.24L169.46,170.17L169.62,164.36L169.99,178.89L170.07,182.19L170.22,182.1L170.29,179.7L170.52,149.91L170.59,170.84L170.67,172.78L171.05,181L171.35,170.68L171.42,172.43L171.5,172.22L171.57,173.91L171.65,177.11L172.03,183.16L172.25,168.37L172.33,159.17L172.7,173.81L173.08,166.16L173.16,164.32L173.38,167.23L173.46,172.54L173.68,180.91L174.14,172.74L174.21,170.28L174.66,177.67L175.04,166.25L175.12,167.8L175.79,181.89L175.94,178.37L176.02,174.94L176.17,171.64L176.4,182.17L176.47,185.25L176.7,177.11L176.77,173.56L176.92,173.42L177,176.78L177.45,187.24L177.6,183.97L177.68,177.32L177.75,172.08L178.13,193.08L178.21,193.96L178.28,193.76L178.36,189.39L178.66,175.67L179.03,189.74L179.11,191.75L179.26,192.91L179.41,189.17L179.49,181.83L179.56,177.97L179.86,198.69L179.94,199.88L180.01,201.46L180.24,195.47L180.32,184.42L180.39,182.73L180.69,193.58L180.77,201.63L180.99,203.65L181.14,195.22L181.22,186.91L181.37,167.87L181.9,186.94L181.97,185.37L182.05,182.13L182.35,171.39L182.65,188.83L182.73,192.77L182.95,193.06L183.03,189.84L183.33,180.15L183.78,187.46L183.86,186.44L184.08,179.32L184.46,191.48L184.53,194.98L184.69,195.97L184.84,193.03L184.91,188.16L185.14,183.08L185.51,189.62L185.74,183.88L185.82,183.56L185.97,183.18L186.04,184.91L186.12,187.41L186.34,189.55L186.72,184.83L186.8,183.06L187.62,169.9L187.7,171.58L187.77,171.54L188.38,188.2L188.68,180.84L188.75,175.73L189.06,184.44L189.73,184.39L189.81,184.59L190.11,189.88L190.41,184.39L190.49,182.71L190.71,180.33L190.94,187.98L191.01,188.87L191.39,181.06L191.77,186.42L191.84,186.58L191.99,185.82L192.07,181.93L192.15,158.83L192.75,200.7L192.82,200.62L193.12,178.82L193.58,191.62L193.65,191.59L193.88,189.08L193.95,173.76L194.03,166.45L194.41,199.63L194.48,199.95L194.56,201.46L194.71,200.78L194.78,186.24L194.93,182.37L195.31,190.47L195.39,193.21L195.84,173.52L195.91,198.4L195.99,197.69L196.29,200.5L196.36,201.74L196.59,200.72L196.67,181.84L197.27,195.15L197.5,192.45L197.57,183.03L198.17,201.16L198.4,200.29L198.47,185.45L198.55,183.06L198.93,192.2L199,193.77L199.45,189.85L199.53,198.27L199.6,199.13L199.98,202.01L200.21,200.33L200.28,183.55L200.43,183.26L200.51,186.77L201.56,203.51L201.79,202.89L201.87,201.96L201.94,201.24L202.02,187.01L202.24,184.47L202.47,190.78L202.54,193.28L202.69,197.01L203,186.4L203.07,180.64L203.52,196.94L203.75,181.53L203.82,176.56L203.98,174.47L204.28,181.01L204.35,187.77L204.58,190.59L204.65,187.23L204.73,179.87L204.88,154.08L205.48,178.44L205.56,174.28L205.86,166.36L206.16,181.79L206.24,183.56L206.39,183.96L206.46,182.98L206.54,178.42L206.69,160.37L207.14,182.68L207.22,182.42L207.29,179.31L207.67,169.3L207.89,177.29L207.97,180.74L208.12,183.83L208.35,177.82L208.42,164.77L208.5,159.6L208.8,177.38L208.87,177.32L208.95,179.21L209.17,176.04L209.25,171.37L209.48,167.88L209.63,174.84L209.7,174.31L209.78,178.96L209.93,182.91L210.15,176.2L210.23,158.5L210.3,157.38L210.38,174.21L210.61,179.38L210.68,182.56L210.91,184.3L210.98,179.29L211.06,173.25L211.21,157.34L211.59,182.06L211.66,185.44L211.89,185.56L211.96,184.87L212.04,178.15L212.34,170.59L212.41,173.37L212.49,178.79L212.64,182.75L212.79,179L212.87,173.37L213.09,168.6L213.32,180.48L213.39,180.32L213.7,186.23L214,179.01L214.07,175.02L214.22,179.09L214.3,182.17L214.45,186.24L214.83,174.57L214.9,173.77L215.88,195.74L215.96,187.26L216.03,187.88L216.33,189.37L216.41,185.69L216.48,178.78L216.71,172.12L216.94,180.1L217.01,186.54L217.24,192.79L217.61,183.24L217.69,178.21L218.07,185.36L218.29,178.62L218.37,175.56L218.52,170.94L218.82,182.99L218.89,186.25L219.2,180.18L219.27,163.78L219.35,159.59L219.42,172.43L219.5,195.68L219.57,197.93L219.65,179.95L219.87,187.87L219.95,184.91L220.33,170.08L220.63,184.64L220.7,188.04L220.78,188.47L220.85,186.12L220.93,186.89L221,183.31L221.08,170.17L221.68,189.42L221.76,186.15L222.13,172.03L222.44,185.76L222.51,188.93L222.74,187.22L222.81,183.1L222.96,165.21L223.42,190.04L223.49,188.29L223.57,185.76L223.87,169.03L224.24,187.42L224.32,188.91L224.62,187.07L224.7,183.13L224.92,178.25L225.3,187.39L225.45,187.04L225.53,182.8L225.68,182.99L225.75,180.71L226.43,192.02L226.58,188.45L226.66,183.94L226.73,182.7L226.96,190.39L227.03,192.6L227.18,189.26L227.26,187.49L227.56,178.18L227.94,189.29L228.01,189.14L228.16,190.42L228.24,189.21L228.31,182.71L228.39,181.09L228.46,189.08L228.54,200.51L228.92,204.14L228.99,194.49L229.07,191.11L229.37,179.64L229.75,190.47L229.82,192.28L230.2,175.56L230.27,198.68L230.35,197.72L230.72,201.58L230.8,201.22L230.88,189.03L231.18,181.74L231.48,193.89L231.55,196.48L231.86,193.58L231.93,185.2L232.01,182.04L232.23,200.45L232.31,200.84L232.46,200.66L232.53,201.44L232.68,200.71L232.76,186.9L232.91,185.28L233.06,187.64L233.14,191L233.66,201.73L234.12,199.96L234.19,199.74L234.34,201.1L234.72,199.2L234.79,187.14L235.32,201.45L235.85,198.87L235.92,198.65L236.15,200.94L236.23,192.03L236.53,186.42L236.83,190.77L236.9,193.52L237.28,201.54L237.81,200.79L237.88,201.01L237.96,202L238.34,199.83L238.56,201.49L238.64,200.55L239.16,200.3L239.62,205.75L239.69,205.79L239.77,206.13L239.84,204.03L239.92,202.35L240.14,193.56L240.45,197.77L240.52,199.14L241.42,206.03L241.5,206.15L241.58,206.4L241.65,203.31L242.03,193.48L242.25,197.14L242.33,200.4L242.4,202.71L242.86,197.36L243.01,198.13L243.08,199.71L243.16,199.57L243.31,199.9L243.38,201.66L243.46,201.79L243.69,201.15L243.76,199.67L243.91,192.91L244.29,202.85L244.44,202.3L244.51,201.85L244.66,188.09L245.19,205.41L245.27,203.65L245.57,191.78L245.72,197.55L245.8,201.4L245.87,196.65L246.02,203.18L246.47,197.37L246.55,204.07L246.7,197.88L247,207.21L247.15,204.85L247.23,193.85L247.45,187.86L247.83,194.17L247.91,194.17L247.98,194.26L248.21,184.63L248.28,182.09L248.73,203.55L249.04,200.99L249.11,186.42L249.26,184.96L249.41,190.06L249.49,189.13L249.56,192.23L250.09,189.97L250.54,201.51L250.62,202.24L250.77,201.1L250.84,186.79L250.99,185.35L251.15,188.54L251.22,191.85L252.43,206.51L252.5,206.43L252.8,192.44L253.1,198.86L253.18,201.39L254.08,206.46L254.16,206.43L254.23,206.68L254.39,206.2L254.46,203.2L254.91,198.47L255.21,202.23L255.29,202.15L255.52,197.75L256.04,202.05L256.12,202.01L256.42,200.33L256.72,201.08L256.8,201.43L257.32,198.94L257.7,204.3L257.78,204.41L257.85,205.93L258,196.42L258.08,194.26L258.38,191.89L258.6,199.12L258.68,201.33L258.83,201.21L258.91,204.73L259.13,200.85L259.58,204.29L259.66,205.75L260.26,196.62L260.56,201.44L260.64,202.54L260.94,199.45L261.24,203.28L261.32,204.78L261.47,205.78L261.62,203.65L261.69,193.73L261.92,190.65L262.22,197.54L262.3,198.63L262.37,197.57L262.6,202.68L262.82,201.33L262.9,201.74L263.28,206.13L263.5,202.65L263.58,193.48L263.65,192.43L264.03,197.9L264.11,198.97L264.26,199.01L264.33,200.24L264.41,200.43L264.48,199.3L264.56,202.05L264.71,204.59L264.78,206.06L265.09,206.45L265.16,205.68L265.24,196.34L265.31,192.57L265.91,200.63L265.99,200.65L266.14,200.81L266.22,203.47L266.29,201.39L266.59,206.77L266.82,206.77L266.89,206.75L267.27,191.43L267.65,198.25L267.72,199.48L267.8,199.84L267.95,198.68L268.02,197.21L268.1,191.13L268.63,205.67L268.7,206.09L268.85,206.05L268.93,204.02L269.08,190.67L269.38,195.66L269.46,199L269.76,203.14L269.91,197.84L270.36,201.49L270.43,201.55L270.81,202.55L270.89,201.61L270.96,195.29L272.32,206.08L272.39,204.14L272.85,197.06L273.07,202.95L273.15,203.96L273.22,204.95L273.6,200.82L273.68,202L273.75,200.87L274.05,206.26L274.43,202.94L274.5,193.16L274.58,192.2L274.88,197.31L274.96,199.48L275.41,197.59L275.48,202.12L275.56,202.14L275.94,203.75L276.16,203.45L276.24,194.38L276.31,193.38L276.61,197.51L276.69,199.69L277.67,207.83L277.74,208.2L278.2,197.66L278.5,200.89L278.57,206.92L279.03,204.16L279.18,207.59L279.33,206.22L279.4,207.22L279.55,208.17L279.78,205.93L279.85,204.9L280.08,205.89L280.16,200.85L280.68,204.12L280.91,202.64L280.98,201.59L281.66,203.77L281.81,202.75L281.89,198.68L282.19,204.18L282.64,201.65L282.72,202.69L282.79,201.64L283.32,203.77L283.4,203.77L283.85,202.69L284,203.87L284.07,203.88L284.15,203.86L284.3,203.61L284.37,199.03L285.13,203.67L285.43,202.5L285.51,202.31L286.03,203.7L286.11,203.66L286.18,200.95L287.09,203.34L287.16,202.17L287.46,202.69L287.54,203.83L287.77,203.95L287.92,203.66L287.99,202.14L288.52,202.27L288.59,203.39L288.82,203.28L288.9,202.16L289.2,201.51L289.65,203.55L289.72,203.53L289.8,202.45L289.95,202.66L290.03,204.51L290.4,206.58L290.63,203.56L290.7,202.43L291.01,200.25L291.31,205.13L291.53,204.18L291.61,202.56L292.21,207.47L292.36,204.31L292.44,203.47L292.74,202.15L292.81,198.81L292.89,199.05L292.96,202.46L293.12,204.66L293.49,200.06L293.57,201.61L293.64,200.4L294.32,203.08L294.47,201.9L294.55,201.81L295,203.43L295.15,203.32L295.23,200.28L295.38,201.38L295.45,200.12L295.53,201.38L295.6,202.18L295.83,203.15L296.21,201.7L296.28,201.71L296.36,201.73L296.81,203.07L296.96,202.94L297.03,200.08L297.11,199.78L297.34,201.42L297.41,201.37L297.49,201.35L297.64,202.62L298.24,201.35L298.31,201.33L298.69,202.78L298.77,202.51L298.84,199.02L299.07,198.95L299.67,202.08L299.75,202.02L299.82,200.5L300.12,201.17L300.2,202.51L300.58,202.42L300.65,200.34L301.18,200.49L301.25,201.9L301.48,202L301.55,200.71L302.23,202.49L302.38,202.42L302.46,201.1L302.69,200.99L302.76,201.62L302.84,202.42L302.99,203.92L303.44,200.85L303.51,202.25L303.59,202.24L304.04,202.48L304.34,199.8L304.49,200.96L304.57,202.83L304.8,204.99L305.02,202.29L305.17,202.35L305.25,200.98L305.62,201.07L305.7,202.42L306,202.28L306.08,198.6L306.3,197.89L306.45,200.1L306.53,200.2L306.98,201.76L307.36,201.1L307.43,201.19L307.66,202.53L307.96,199.38L308.04,200.72L308.11,199.34L308.71,202.18L308.94,200.81L309.01,200.79L309.47,202.68L309.62,202.39L309.69,199.22L309.92,199.17L310.6,202L310.67,200.61L310.97,201.33L311.05,201.59L311.28,203.02L311.58,199.18L311.65,200.7L311.73,199.32L312.33,202.16L312.48,200.76L312.56,200.8L313.08,203.54L313.23,203.08L313.31,201.27L313.84,201.08L313.91,202.42L314.14,202.53L314.21,201.27L314.97,204.31L315.12,203.13L315.19,202.94L315.27,202.47L315.42,204.95L315.49,205.72L315.65,206.85L315.95,203.63L316.02,202.62L316.7,204.47L316.85,203.9L316.93,201.7L317,201.86L317.08,204.46L317.53,206.87L317.76,203.39L317.83,203.41L318.21,202.06L318.43,203.56L318.58,203.2L318.66,202.64L318.96,199.17L319.34,203.45L319.41,202.91L319.71,201.6L320.09,202.31L320.17,203.47L320.47,203.29L320.54,200.44L320.77,199.62L321,201.69L321.07,201.46L321.15,202.28L321.45,202.62L321.52,200.96L322.2,203.16L322.28,203.14L322.35,200L322.58,197.56L322.88,200.3L322.95,202.43L323.26,202.69L323.33,201.33L323.56,201.89L323.71,201.62L323.78,202.86L324.08,202.87L324.16,199.88L324.31,200.74L324.39,199.4L324.69,199.85L324.76,202.37L325.06,202.46L325.14,201.15L325.44,201.77L325.52,202.98L325.82,203.32L325.89,203.16L325.97,201.75L326.5,201.45L326.57,202.7L326.8,202.64L326.87,201.44L327.63,203.99L327.7,203.95L327.78,202.78L327.85,202.06L328.15,205.56L328.23,206.5L328.38,207.12L328.46,206.4L328.53,203.87L328.68,201.89L329.06,205.03L329.13,206.6L329.51,207.18L329.59,206.53L329.89,207.02L329.96,206.99L330.19,207.48L330.49,206.88L330.57,204.74L331.09,206.57L331.47,201.1L331.54,202.28L332,206.25L332.3,203.39L332.37,201.86L332.52,201.67L332.75,202.75L332.83,203.81L333.13,203.49L333.2,200.47L333.73,204.71L334.03,203.48L334.11,202.99L334.18,201.8L334.78,204.04L334.86,204.04L334.94,203.84L335.01,201.29L335.24,200.76L335.31,202.84L335.39,203.11L335.69,204.48L335.76,203.97L335.84,203.28L335.99,201.89L336.37,203.52L336.44,204.67L336.52,204.92L336.74,203.81L336.82,200.76L336.89,200.56L337.12,202.04L337.2,202.32L337.35,202.37L337.42,203.51L337.5,203.7L337.65,202.96L337.72,202.94L337.8,201.79L337.87,201.96L337.95,196.42L338.33,204.15L338.7,201.68L338.78,201.64L339.16,201.81L339.23,202.93L339.46,202.84L339.53,201.63L340.29,204.52L340.36,204.26L340.44,202.88L340.66,202.72L340.74,203.07L340.81,204.2L340.96,205.18L341.34,202.37L341.49,203.68L341.57,203.76L341.94,204.12L342.47,201.5L342.55,203.08L342.7,204.14L343.15,203.54L343.22,202.46L343.6,202.73L343.68,203.82L343.98,203.54L344.05,200.95L344.28,200.78L344.96,203.22L345.03,202.09L345.56,204.15L345.79,203.78L345.86,201.07L346.09,200.97L346.46,203.35L346.77,203.23L346.84,202.23L347.44,204.75L347.59,204.32L347.67,201.8L347.9,201.48L348.27,205.19L348.57,203.79L348.65,202.88L348.88,203.38L348.95,203.89L349.18,204.85L349.4,204.72L349.48,202.35L349.7,202.01L349.93,203.13L350.01,203.13L350.08,204.08L350.38,204L350.46,203.05L350.76,204.16L350.83,204.99L351.66,203.28L351.81,203.41L351.89,204.36L352.27,203.27L352.34,204.29L352.57,204.2L353.7,207.18L353.77,207.08L353.85,205.95L354,204.31L354.3,206.23L354.45,205.96L354.53,207.03L354.9,206.57L355.2,208.29L355.28,209.08L355.43,210.35L355.73,206.59L355.81,205.65L356.18,204.96L356.56,206.7L356.64,205.44L356.79,203.31L357.31,206.64L357.39,206.49L357.77,204.32L358.07,205.43L358.14,206.03L358.45,206.12L358.52,204.39L359.2,205.62L359.42,205.39L359.5,204.85L359.88,205.55L359.95,206.17L360.25,205.99L360.33,204.43L360.55,204.29L361.23,205.63L361.31,205.03L361.46,201.88L361.99,206.25L362.06,206.26L362.36,204.71L362.82,205.92L362.89,205.92L362.97,201.78L363.04,205.94L363.64,205.41L363.72,205.92L363.87,206.42L363.95,205.57L364.32,205.53L364.4,205.53L364.77,206.1L364.85,205.54L364.93,202.19L365.68,206.41L365.9,205.91L365.98,205.88L366.13,201.21L366.58,206.36L366.81,202.38L366.88,203.4L367.04,203.04L367.11,203.66L367.19,204.85L367.71,206.82L368.01,206.55L368.09,206.27L368.17,206.89L368.54,205.49L368.62,205.5L368.69,202.66L369.14,205.9L369.52,204.49L369.6,203.72L370.05,201.72L370.12,205.33L370.2,200.39L370.35,200.67L370.43,204.86L370.95,205.92L371.1,205.63L371.18,203.77L371.78,205.44L372.08,205.22L372.16,204.47L372.54,205.01L372.61,205.71L372.91,205.49L372.99,203.71L373.21,203.65L373.89,205.15L373.97,199.9L374.57,205.45L374.8,203.59L374.87,203.58L375.02,203.48L375.63,205.1L375.7,205.09L375.78,204.29L375.93,200.48L376.23,205.41L376.45,205.36L376.53,205.42L376.98,204.35L377.28,205.13L377.36,205.1L377.58,204.29L377.81,205.52L377.89,205.23L377.96,206L378.34,206.54L378.49,205.5L378.56,205.38L378.87,205.16L378.94,205.55L379.02,206.02L379.32,204.78L379.77,205.09L379.84,205.74L380.15,205.65L380.22,204.29L380.82,207.18L381.05,205.57L381.13,205.26L381.2,204.54L381.8,205.52L381.88,205.32L382.26,203.12L382.63,204.83L382.71,204.82L382.93,204.8L383.01,204.01L383.69,205.72L383.76,205.54L383.84,203.43L384.06,203.3L384.52,205.01L384.74,204.89L384.82,204.22L385.57,205.4L385.65,203.63L386.25,205.61L386.55,205.17L386.63,204.42L386.85,204.81L386.93,205.18L387.08,207.01L387.53,203.94L387.61,204.57L387.68,203.71L388.06,205.83L388.51,204.45L388.59,204.56L389.11,206.27L389.34,204.82L389.41,204.73L389.79,205.04L389.87,205.71L390.17,204.75L390.32,205.66L390.39,205.83L390.54,205.23L390.92,206.23L391.07,205.81L391.15,205.74L391.6,205.59L391.83,206.16L391.9,202.78L392.13,202.83L392.2,203.97L392.81,206.34L393.03,205.73L393.11,205.04L393.48,206.68L393.86,205.33L393.94,205.34L394.31,205.99L394.39,206.81L394.54,207.21L394.61,206.06L394.69,204.7L394.76,204.48L394.91,205.25L394.99,206.42L396.05,207.21L396.12,207.51L396.42,207.27L396.5,206.09L397.1,207.2L397.4,206.95L397.48,206.6L398.23,207.22L398.31,206.08L398.91,206.77L399.13,206.01L399.21,201.6L399.36,201.02L399.44,201.95L399.51,205.87L399.59,203.63L399.81,206.9L400.26,204.85L400.34,204.19L401.32,206.17L401.4,205.85L401.62,206.59L402,204.85L402.07,204.83L402.6,205.78L402.75,205.56L402.83,204.84L402.9,201.94L403.5,206.77L403.58,206.92L404.11,205.76L404.48,206.17L404.56,206.14L404.64,205.59L405.16,206.57L405.24,206.54L405.31,206.51L405.39,206.66L405.54,205.42L405.61,205.19L406.14,206.8L406.44,206.04L406.52,205.53L407.2,206.25L407.27,206.12L407.35,204.11L407.42,203.57L407.88,204.88L407.95,205.6L408.33,204.72L408.48,205.17L408.55,205.69L409.08,206.07L409.16,204.17L409.38,203.91L409.61,204.85L409.68,204.84L409.76,205.51L410.21,204.91L410.29,205.13L410.36,205.61L410.81,206.48L410.89,206.3L410.96,204.65L411.19,204.48L411.87,205.82L411.94,204.98L412.55,206.91L412.7,206.48L412.77,204.71L412.92,205.13L413,204.46L413.3,205.15L413.38,205.78L413.75,204.62L414.05,205.56L414.13,206.15L414.51,206.09L414.58,204.58L414.73,204.12L415.11,204.67L415.18,205.56L415.49,205.14L416.24,206.6L416.31,206.46L416.39,205.83L416.69,205.58L417.14,206.1L417.22,206.11L417.29,205.62L417.52,206.35L417.9,206.38L417.97,206.37L418.12,206.39L418.2,205.35L418.42,204.91L418.65,205.91L418.73,205.87L418.8,206.05L419.55,205.7L419.63,206.25L419.93,206.09L420.01,204.29L420.91,205.66L420.99,205.01L421.36,205.55L421.44,206.16L421.74,206.04L421.82,204.39L422.04,204.27L422.72,205.68L422.79,205.03L423.17,205.47L423.25,206.06L423.55,206.07L423.62,204.36L424.53,205.75L424.6,205.11L424.98,205.51L425.06,206.09L425.36,206.09L425.43,204.3L426.26,205.81L426.34,205.78L426.41,205.11L426.71,205.43L426.79,206.02L427.09,206.83L427.24,205.24L427.32,205.05L427.77,205.56L427.84,205.85L428.14,205.27L428.37,205.74L428.45,206.46L428.52,205.47L428.97,206.7L429.2,206.18L429.28,205.86L430.03,205.87L430.1,206.41L430.33,205.85L430.78,206.82L430.86,205.64L431.08,205.29L431.23,205.97L431.38,205.8L431.46,206.31L432.14,205.2L432.29,206.16L432.36,206.16L432.59,205.9L432.67,204.5L432.82,204.82L432.89,203.73L433.19,204.47L433.27,205.21L433.49,205.28L433.57,200.01L433.8,199.11L433.87,204.86L434.1,206.34L434.47,204L434.55,203.99L435.23,205.57L435.38,205.43L435.45,200.56L436.06,206.2L436.21,205.94L436.28,204.23L437.04,205.63L437.11,205.58L437.19,200.89L437.41,199.24L437.56,203.08L437.64,204.74L437.87,206.35L438.09,204.39L438.39,205.22L438.47,205.36L438.62,205.22L438.69,205.98L439,205.84L439.07,201.51L439.22,200.94L439.3,205.42L439.75,207.15L440.05,205.76L440.13,205.76L441.03,206.3L441.11,206.79L441.63,207.21L441.86,206.78L441.93,206.72L443.67,206.85L443.74,206.45L444.42,207.14L444.57,206.79L444.65,206.72L445.25,207.34L445.32,206.21L446.23,206.99L446.3,206.6L446.38,206.6L446.76,207.3L447.06,207.15L447.13,205.97L448.04,206.78L448.11,206.35L448.87,207.05L448.94,205.78L449.17,205.68L449.77,206.65L449.85,203.92L449.92,203.47L450.15,206.66L450.22,206.61L450.6,207.02L450.67,206.97L450.75,205.69L451.65,206.6L451.73,206.13L452.03,206.62L452.11,207.01L452.48,206.98L452.56,206.19L453.69,206.67L453.76,207L454.22,207.16L454.59,206.63L454.67,206.62L456.1,207.08L456.18,206.42L456.4,206.29L457.08,206.98L457.15,206.58L457.91,207.02L457.98,205.78L458.89,206.67L458.96,206.28L459.04,206.27L459.57,207.21L459.72,207.04L459.79,205.81L460.62,206.68L460.7,203.98L460.92,204L461,205.11L461.3,207.07L461.75,206.28L461.83,205.85L462.2,206.73L462.35,206.67L462.43,203.08L462.58,202.14L462.96,205.21L463.03,205.96L463.26,205.95L463.33,205.14L463.48,200.77L464.01,206.72L464.09,203.65L464.16,203.26L464.31,202.4L464.69,204.49L464.77,205.24L465.07,207.1L465.52,206.31L465.59,206.31L465.9,206.79L465.97,203.79L466.2,203.39L466.42,205.36L466.5,207.05L466.95,207.4L467.25,207.01L467.33,204.44L467.48,204.75L467.85,203.87L468.08,204.47L468.16,204.79L468.61,206.12L468.76,205.18L468.83,203.95L468.91,203.29L468.99,206.88L469.21,206.85L469.29,206.85L469.51,207.2L469.59,204.44L469.81,203.27L470.04,204.78L470.12,204.78L470.19,206.86L470.42,207.23L470.57,205.24L470.64,202.33L470.72,201.39L471.02,203.71L471.17,203.7L471.25,204.16L471.47,202.9L471.55,206.78L471.62,206.35L471.7,206.4L472.3,207.46L472.38,207.41L472.45,206.26L472.68,206.09L473.05,207.03L473.13,206.96L473.2,204.72L473.51,203.98L473.73,205.7L473.81,206.29L473.96,206.87L474.18,205.99L474.26,203.57L474.33,202.85L474.71,204.65L474.94,204.04L475.01,204.09L475.84,207.45L475.92,207.44L476.29,206L476.6,206.44L476.67,206.88L477.35,207.09L477.42,207.43L477.8,207.34L477.88,206.5L478.1,203.19L478.48,206.9L478.78,203.5L478.86,203.57L479.53,207.21L479.61,206.17L479.68,205.75L479.91,206.69L479.99,202.93L480.21,206.71L480.29,207.08L480.44,207.06L480.51,204.06L480.59,203.69L481.04,204.96L481.12,205.73L481.27,205.76L481.34,205.4L481.42,204.69L481.49,203.13L481.95,207.03L482.02,207.02L482.1,207.22L482.47,203.56L482.85,206.87L482.92,207.26L483.23,207.22L483.3,206L484.21,206.9L484.28,206.5L484.88,207.44L484.96,206.85L485.03,206.43L485.11,203.66L485.71,206.9L485.79,206.86L486.09,203.5L486.39,207.16L486.47,207.15L486.54,207.45L486.84,207.44L486.92,206.22L487.14,206.1L487.67,206.95L487.75,204.17L487.9,203.77L488.05,204.71L488.12,207.09L488.35,207.28L488.95,205.9L489.25,206.44L489.33,206.9L490.01,206.91L490.08,207.24L490.46,207.17L490.54,206.36L490.61,206.14L491.14,206.85L491.21,206.85L491.44,203.94L491.97,206.27L492.04,206.27L492.42,205.6L493.02,207.27L493.1,204.91L493.25,204.19L493.7,205.66L493.78,206.31L494.23,202.91L494.3,206.86L494.6,206.95L495.13,203.15L495.43,204.43L495.51,205.47L495.66,207.2L496.04,201.38L496.26,206.25L496.34,206.23L496.64,206.46L496.71,202.66L496.86,201.24L497.24,204.51L497.32,205.23L497.54,205.9L497.69,204.54L497.77,201.22L497.84,198.25L498.22,206.38L498.45,203.62L498.52,202.13L498.67,200.8L499.05,203.74L499.13,204.44L499.28,205.17L499.5,204.2L499.58,201.03L499.65,200.53L499.73,206.16L500.18,206.78L500.33,202.98L500.41,201.64L500.56,201.25L500.71,202.41L500.78,204.14L501.24,205.8L501.31,204.91L501.39,201.45L501.46,200.08L501.84,206.2L502.06,202.73L502.14,202.2L502.29,200.47L502.74,204.06L502.82,204.87L503.04,205.26L503.19,203.3L503.27,202.55L503.5,200.03L503.72,206.36L503.8,206.76L504.17,201.77L504.55,204.78L504.63,205.4L504.93,204.86L505,204.44L506.06,201.13L506.13,202.28L506.66,203.42L506.74,202.66L506.81,200.83L506.89,199.7L507.26,203.3L507.41,202.91L507.49,202.39L507.72,197.85L508.17,201.53L508.24,202.77L508.47,201.95L508.54,191.12L508.7,171.49L509.22,189.31L509.3,189.31L509.52,181.74L509.83,198.76L509.9,195.24L509.98,197.19L510.13,198.68L510.28,192.8L510.35,189.14L510.5,174.87L511.03,193.59L511.11,192.25L512.01,207.18L512.16,206.83L512.24,200.48L512.69,206.46L512.91,202.42L512.99,200.18L513.14,199.32L513.29,201.01L513.37,201.71L513.67,204.86L513.97,201.4L514.04,196.49L514.35,204.71L514.95,192.06L515.02,191.94L515.63,199.73L515.85,195.16L515.93,193.52L516.08,189.62L516.31,197.92L516.38,200.47L516.46,200.32L516.53,197.25L516.68,194.96L516.98,201.96L517.06,203.55L517.51,205.03L517.66,204.1L517.74,202.16L518.26,203.43L518.57,198.42L518.64,200.56L519.24,204.39L519.39,203.55L519.47,198.61L519.92,204.24L520.37,192.38L520.45,192.54L520.53,192.4L520.6,192.98L520.68,193.94L520.83,196.07L520.9,196.77L521.05,195.91L521.13,194.23L521.35,177.76L521.81,190.2L521.88,190.25L522.11,184.75L522.41,188.42L522.48,191.6L522.56,191.41L522.64,193.74L522.86,196.78L523.09,185.49L523.16,181.74L523.69,194.77L523.99,189.78L524.07,189.25L524.67,197.78L524.82,194.27L524.9,184.26L524.97,179.79L525.5,192.66L525.57,190.88L525.72,185.5L526.1,194.7L526.18,196.47L526.33,202.19L526.7,190.48L526.78,185.3L527.38,192.78L527.53,189.46L527.61,189.43L527.83,190.48L527.91,193.64L528.29,197.79L528.89,186.08L528.96,187.97L529.04,188.86L529.34,187.35L530.02,195.01L530.25,193.85L530.32,190.74L531.15,181.29L531.23,182.65L531.3,185.02L531.83,199.69L532.05,192.88L532.13,185.82L532.2,181.8L532.58,193.38L532.81,189.39L532.88,186.31L532.96,184.41L533.33,189.48L533.41,188.31L533.49,191.32L533.64,193.4L533.86,190.5L533.94,153.05L534.01,139.45L534.47,183.27L534.54,179.58L534.62,179.38L534.77,166.61L535.29,191.41L535.37,193.68L535.52,193.95L535.6,193.83L535.67,191.34L535.82,178.87L536.42,187.36L536.5,185.91L536.57,183.55L537.03,189.72L537.1,191.82L537.18,193.91L537.48,189.96L537.55,182.17L537.63,175.16L538.08,185.26L538.23,183.46L538.31,182.23L538.38,179.79L538.84,185.75L538.91,188.5L538.99,190.59L539.29,187.04L539.36,178.27L539.44,174.08L539.89,182.66L540.04,181.75L540.12,178.27L540.19,176.47L540.64,184.11L540.72,186.58L540.95,188.94L541.1,188L541.17,176.09L542,154.54L542.08,159.53L542.68,190.04L542.9,188.34L542.98,184.81L543.81,153.09L543.88,169.5L543.96,177.79L544.56,197.41L544.94,188.78L545.01,187.95L545.32,189.13L545.39,188.89L545.47,185.35L545.69,178.09L546.07,189.33L546.14,196.88L546.37,199.67L546.52,189.02L546.6,178.12L547.43,161.82L547.5,164.27L548.25,187.61L548.33,183.77L548.41,171.22L548.93,172.58L549.23,147.92L549.31,144.73L549.99,187.81L550.14,183.32L550.21,173.78L550.29,164.41L550.67,181.96L550.89,178.24L550.97,176.06L551.04,172.5L551.49,185.56L551.57,188.99L551.87,197.55L551.95,188.72L552.02,177.62L552.1,168.22L552.7,180.85L552.78,178.11L552.85,176.18L553.23,183.78L553.3,185.65L553.6,201.21L553.91,184.88L553.98,180.88L554.13,176.33L554.51,183.13L554.73,180.33L554.81,181.79L555.56,200.17L555.71,196.06L555.79,191.93L556.47,185.96L556.62,186.86L556.69,188.9L557.3,196.15L557.45,189.97L557.52,183.66L557.9,189.99L558.2,184.6L558.28,180.6L558.95,195.08L559.18,191.26L559.26,182.89L559.63,186.81L560.16,159.32L560.24,173.22L560.84,190.77L560.99,185.6L561.06,174.47L561.14,156.15L561.52,180.84L561.82,171.15L561.89,160.96L561.97,157.57L562.19,178.66L562.27,182.01L562.65,190.01L562.8,185.87L562.87,177.31L562.95,168.28L563.4,181.12L563.55,180.02L563.63,176.56L563.7,174.48L564.08,184.59L564.15,185.59L564.3,189.52L564.61,184.19L564.68,173.29L564.76,165.19L565.13,178.21L565.36,177.64L565.43,175.54L565.51,171.73L565.96,183.32L566.04,187.18L566.26,193.74L566.56,181.78L566.64,178.27L567.39,171.95L567.47,173.8L567.54,175.88L568.15,186.83L568.37,181.69L568.45,176.29L569.2,158.71L569.28,170.02L569.35,172.02L569.88,185.31L570.11,173.58L570.18,167.96L570.56,177.3L570.86,167.4L570.94,157.2L571.76,183.63L571.84,180.13L571.91,169.19L572.14,158.05L572.59,174.53L572.67,173.58L572.74,168.85L573.2,183.82L573.27,186.87L573.5,189L573.65,186.77L573.72,177.08L574.55,165.23L574.63,165.87L575.31,183.7L575.46,178.48L575.53,162.27L575.61,143.48L575.98,166.84L576.28,156.81L576.36,151.37L576.44,148.56L576.66,163.67L576.74,169.48L577.11,180.46L577.26,174.28L577.34,160.21L578.17,131.22L578.24,144.96L578.85,177.03L579.15,166.24L579.22,158.74L580.05,140.05L580.13,143.25L580.81,176.25L581.03,166.26L581.11,160.38L581.86,151.11L581.94,157.89L582.61,188.11L582.92,178.32L582.99,175.6L583.52,167.98L583.59,159.74L583.67,156.5L583.97,168.6L584.05,172.32L584.27,182.83L584.57,159.19L584.65,142.22L585.03,165.6L585.4,149.7L585.48,151.88L586.16,180.94L586.31,174.19L586.38,156.76L586.46,143.21L586.76,157.79L587.14,152.97L587.21,147.69L587.66,172L587.74,175.08L588.04,179.68L588.19,164.28L588.27,159.25L588.87,182.24L589.09,175.59L589.17,175.75L589.47,183.55L589.55,187.85L589.85,198.11L590,178.87L590.07,171.48L590.45,183.33L590.83,176.7L590.9,178.08L591.66,194.43L591.73,190.2L591.81,185.15L592.11,169.42L592.71,170.82L592.79,172.2L592.94,175.86L593.01,180.39L593.47,186.08L593.62,181.82L593.69,177.78L594.52,152.25L594.67,158.08L594.75,163.63L595.27,176.71L595.35,173.51L595.42,163.81L595.88,165.66L596.33,144.32L596.4,144.27L597.08,178.9L597.23,155.35L597.31,138.14L597.91,158.29L598.06,149.32L598.14,150L598.81,178.6L598.97,170.98L599.04,157.21L599.87,117.94L599.95,123.2L600.7,174.52L600.85,156.58L600.92,137.13L601.3,155.85L601.6,133.91L601.68,111L602.36,177.14L602.66,155.73L602.73,129.33L602.81,129.57L602.88,121.08L603.34,142.81L603.49,107.68L603.56,114.01L604.24,173.98L604.47,162.34L604.54,148.28L605.3,97.51L605.37,108.21L605.45,123.65L606.05,167.09L606.35,158.88L606.43,147.84L607.18,125.37L607.25,134.69L607.33,141.16L607.78,163.74L608.08,153.89L608.16,143.55L608.23,154.68L608.84,138.86L608.91,132L608.99,131.76L609.06,132.81L609.14,141.26L609.67,164.18L609.82,157.06L609.89,139.72L610.65,74.26L610.72,91L610.8,122.65L611.47,162.95L611.62,157.3L611.7,137.75L611.85,38.26L612.45,90.91L612.53,107.43L613.36,165.03L613.51,144.05L613.58,120.01L613.73,117.32L614.19,141.36L614.26,127.96L614.34,119.1L615.09,170.34L615.32,148.39L615.39,130.86L616.37,156.44L616.45,161.06L616.9,177.7L617.2,164.21L617.28,156.09L617.43,146.42L617.73,158.95L618.03,153.46L618.1,159.79L618.78,183.63L619.01,177.7L619.08,174.29L619.31,164.48L619.84,173.04L619.91,174.05L620.59,194.12L620.74,182.54L620.82,177.51L621.27,180.68L621.42,178.11L621.5,174.26L621.65,170.49L622.02,178.85L622.1,184.4L622.32,191.03L622.55,172.4L622.63,161.6L623,172.02L623.3,165.5L623.38,157.92L623.45,156.37L623.68,167.57L623.76,171.61L624.13,181.9L624.36,163.48L624.43,150.82L625.41,165.98L625.49,167.76L626.02,182.1L626.17,167.57L626.24,151.15L626.62,165.3L627,153.95L627.07,155.82L627.67,178.34L627.9,172.98L627.98,157.94L628.05,139.75L628.73,149.57L628.8,145.91L628.96,151.18L629.03,155.6L629.63,179.82L629.86,165.09L629.93,155.03L630.01,149.27L630.39,166.89L630.54,163.8L630.61,161.87L631.52,187.33L631.74,178.77L631.82,175.44L631.89,173.83L632.27,182.14L632.35,182.04L632.42,179.59L632.87,188.21L632.95,190.18L633.25,196.21L633.48,183.13L633.55,187.87L633.63,185.69L633.93,190.64L634,189.09L634.08,186.27L634.38,180.97L634.68,186.59L634.76,188.71L634.98,191.16L635.13,186.89L635.21,177.69L635.28,171.46L635.74,180.51L635.89,179.93L635.96,178.85L636.04,176.54L636.42,185.37L636.49,186.63L636.79,191.85L637.02,179.44L637.09,173.31L637.62,180.32L637.85,174.51L637.92,174.42L638.68,194.35L638.75,190.13L638.83,180.1L639.35,180.57L639.66,169.54L639.73,169.21L640.48,191.52L640.63,182.04L640.71,172.36L641.31,181.2L641.46,176.95L641.54,176.99L641.77,179.63L641.84,184.53L642.22,200.42L642.52,184.78L642.59,181.44L643.35,173.92L643.42,176.51L643.5,178.15L644.03,200.34L644.33,190.84L644.4,184.41L645.08,169.81L645.31,174.29L645.38,177.54L645.98,187.65L646.06,183.03L646.14,174.26L647.11,185.95L647.19,186.64L647.79,194.95L647.94,189.19L648.02,183.49L648.09,176.56L648.77,179.59L648.85,180.81L648.92,178.7L649.22,184.78L649.3,190.53L649.9,169.34L650.28,172.18L650.36,173L650.73,172.01L650.81,173.26L651.33,181.17L651.41,177.56L651.49,167.1L651.56,159.26L651.86,170.39L652.24,164.69L652.31,163.67L652.62,174.67L652.69,178.16L653.07,192.85L653.37,176.29L653.44,181.23L653.52,176.43L653.67,177.52L654.12,171.2L654.35,173.02L654.42,176.06L655.03,190.8L655.18,183.96L655.25,178.35L655.93,169.67L656.08,171.29L656.16,172.08L656.84,185.37L656.99,180.59L657.06,177.85L657.51,178.92L657.81,172.18L657.89,175.13L658.57,192.39L658.72,185.44L658.79,180.66L658.87,183.22L659.4,179.87L659.47,177.59L659.55,175.44L660,181.21" style="vector-effect: none; fill: none; stroke: rgb(54, 112, 97); stroke-opacity: 1; stroke-width: 0px; opacity: 1;"/></g><g class="points"/><g class="text"/></g></g></g><g class="overplot"/><path class="xlines-above crisp" d="M19,230.5H681M19,19.5H681" style="fill: none; stroke-width: 1px; stroke: rgb(68, 68, 68); stroke-opacity: 1;"/><path class="ylines-above crisp" d="M19.5,20V230M680.5,20V230" style="fill: none; stroke-width: 1px; stroke: rgb(68, 68, 68); stroke-opacity: 1;"/><g class="overlines-above"/><g class="xaxislayer-above"><path class="xtick ticks crisp" d="M0,231v5" transform="translate(20,0)" style="stroke: rgb(68, 68, 68); stroke-opacity: 1; stroke-width: 1px;"/><path class="xtick ticks crisp" d="M0,231v5" transform="translate(126.7,0)" style="stroke: rgb(68, 68, 68); stroke-opacity: 1; stroke-width: 1px;"/><path class="xtick ticks crisp" d="M0,231v5" transform="translate(237.01,0)" style="stroke: rgb(68, 68, 68); stroke-opacity: 1; stroke-width: 1px;"/><path class="xtick ticks crisp" d="M0,231v5" transform="translate(347.33,0)" style="stroke: rgb(68, 68, 68); stroke-opacity: 1; stroke-width: 1px;"/><path class="xtick ticks crisp" d="M0,231v5" transform="translate(459.45,0)" style="stroke: rgb(68, 68, 68); stroke-opacity: 1; stroke-width: 1px;"/><path class="xtick ticks crisp" d="M0,231v5" transform="translate(569.76,0)" style="stroke: rgb(68, 68, 68); stroke-opacity: 1; stroke-width: 1px;"/><g class="xtick"><text text-anchor="middle" x="0" y="255.2" transform="translate(20,0)" style="font-family: 'Open Sans', verdana, arial, sans-serif; font-size: 16px; fill: rgb(68, 68, 68); fill-opacity: 1; white-space: pre; opacity: 0;">01.01</text></g><g class="xtick"><text text-anchor="middle" x="0" y="255.2" style="font-family: 'Open Sans', verdana, arial, sans-serif; font-size: 16px; fill: rgb(68, 68, 68); fill-opacity: 1; white-space: pre; opacity: 1;" transform="translate(126.7,0)">01.03</text></g><g class="xtick"><text text-anchor="middle" x="0" y="255.2" style="font-family: 'Open Sans', verdana, arial, sans-serif; font-size: 16px; fill: rgb(68, 68, 68); fill-opacity: 1; white-space: pre; opacity: 1;" transform="translate(237.01,0)">01.05</text></g><g class="xtick"><text text-anchor="middle" x="0" y="255.2" style="font-family: 'Open Sans', verdana, arial, sans-serif; font-size: 16px; fill: rgb(68, 68, 68); fill-opacity: 1; white-space: pre; opacity: 1;" transform="translate(347.33,0)">01.07</text></g><g class="xtick"><text text-anchor="middle" x="0" y="255.2" style="font-family: 'Open Sans', verdana, arial, sans-serif; font-size: 16px; fill: rgb(68, 68, 68); fill-opacity: 1; white-space: pre; opacity: 1;" transform="translate(459.45,0)">01.09</text></g><g class="xtick"><text text-anchor="middle" x="0" y="255.2" style="font-family: 'Open Sans', verdana, arial, sans-serif; font-size: 16px; fill: rgb(68, 68, 68); fill-opacity: 1; white-space: pre; opacity: 1;" transform="translate(569.76,0)">01.11</text></g></g><g class="yaxislayer-above"><path class="ytick ticks crisp" d="M19,0h-5" transform="translate(0,230)" style="stroke: rgb(68, 68, 68); stroke-opacity: 1; stroke-width: 1px;"/><path class="ytick ticks crisp" d="M19,0h-5" transform="translate(0,188)" style="stroke: rgb(68, 68, 68); stroke-opacity: 1; stroke-width: 1px;"/><path class="ytick ticks crisp" d="M19,0h-5" transform="translate(0,146)" style="stroke: rgb(68, 68, 68); stroke-opacity: 1; stroke-width: 1px;"/><path class="ytick ticks crisp" d="M19,0h-5" transform="translate(0,104)" style="stroke: rgb(68, 68, 68); stroke-opacity: 1; stroke-width: 1px;"/><path class="ytick ticks crisp" d="M19,0h-5" transform="translate(0,62)" style="stroke: rgb(68, 68, 68); stroke-opacity: 1; stroke-width: 1px;"/><path class="ytick ticks crisp" d="M19,0h-5" transform="translate(0,20)" style="stroke: rgb(68, 68, 68); stroke-opacity: 1; stroke-width: 1px;"/><g class="ytick"><text text-anchor="end" x="10.8" y="5.6" transform="translate(0,230)" style="font-family: 'Open Sans', verdana, arial, sans-serif; font-size: 16px; fill: rgb(68, 68, 68); fill-opacity: 1; white-space: pre; opacity: 1;">0</text></g><g class="ytick"><text text-anchor="end" x="10.8" y="5.6" style="font-family: 'Open Sans', verdana, arial, sans-serif; font-size: 16px; fill: rgb(68, 68, 68); fill-opacity: 1; white-space: pre; opacity: 1;" transform="translate(0,188)">10</text></g><g class="ytick"><text text-anchor="end" x="10.8" y="5.6" style="font-family: 'Open Sans', verdana, arial, sans-serif; font-size: 16px; fill: rgb(68, 68, 68); fill-opacity: 1; white-space: pre; opacity: 1;" transform="translate(0,146)">20</text></g><g class="ytick"><text text-anchor="end" x="10.8" y="5.6" style="font-family: 'Open Sans', verdana, arial, sans-serif; font-size: 16px; fill: rgb(68, 68, 68); fill-opacity: 1; white-space: pre; opacity: 1;" transform="translate(0,104)">30</text></g><g class="ytick"><text text-anchor="end" x="10.8" y="5.6" style="font-family: 'Open Sans', verdana, arial, sans-serif; font-size: 16px; fill: rgb(68, 68, 68); fill-opacity: 1; white-space: pre; opacity: 1;" transform="translate(0,62)">40</text></g><g class="ytick"><text text-anchor="end" x="10.8" y="5.6" style="font-family: 'Open Sans', verdana, arial, sans-serif; font-size: 16px; fill: rgb(68, 68, 68); fill-opacity: 1; white-space: pre; opacity: 1;" transform="translate(0,20)">50</text></g></g><g class="overaxes-above"/></g></g><g class="polarlayer"/><g class="smithlayer"/><g class="ternarylayer"/><g class="geolayer"/><g class="funnelarealayer"/><g class="pielayer"/><g class="iciclelayer"/><g class="treemaplayer"/><g class="sunburstlayer"/><g class="glimages"/><defs id="topdefs-efef7f"><g class="clips"/><clipPath id="legendefef7f"><rect width="210" height="55" x="0" y="0"/></clipPath></defs><g class="layer-above"><g class="imagelayer"/><g class="shapelayer"/></g><g class="infolayer"><g class="legend" pointer-events="all" transform="translate(26.6,24.200000000000003)"><rect class="bg" shape-rendering="crispEdges" width="210" height="55" x="0" y="0" style="stroke: rgb(68, 68, 68); stroke-opacity: 1; fill: rgb(0, 0, 0); fill-opacity: 0; stroke-width: 0px;"/><g class="scrollbox" transform="" clip-path="url(#legendefef7f)"><g class="groups"><g class="traces" transform="translate(0,27.3)" style="opacity: 1;"><text class="legendtext" text-anchor="start" x="40" y="-4.16" style="font-family: 'Open Sans', verdana, arial, sans-serif; font-size: 16px; fill: rgb(68, 68, 68); fill-opacity: 1; white-space: pre;"><tspan class="line" dy="0em" x="40" y="-4.16">Strm:</tspan><tspan class="line" dy="1.3em" x="40" y="-4.16">48 041 kr/r | 41 kr</tspan></text><g class="layers"><g class="legendfill"><path class="js-fill" d="M5,-2h30v6h-30z" style="stroke-width: 0; fill: rgb(54, 112, 97); fill-opacity: 0.5;"/></g><g class="legendlines"><path class="js-line" d="M5,-2h30" style="fill: none; stroke: rgb(54, 112, 97); stroke-opacity: 1; stroke-width: 0px;"/></g><g class="legendsymbols"><g class="legendpoints"/></g></g><rect class="legendtoggle" x="0" y="-22.3" width="206.5625" height="44.6" style="fill: rgb(0, 0, 0); fill-opacity: 0;"/></g></g></g><rect class="scrollbar" rx="20" ry="3" width="0" height="0" x="0" y="0" style="fill: rgb(128, 139, 164); fill-opacity: 1;"/></g><g class="g-gtitle"/><g class="g-xtitle"/><g class="g-ytitle" transform="translate(32,0)"><text class="ytitle" transform="rotate(-90,-18,125)" x="-18" y="125" text-anchor="middle" style="font-family: 'Open Sans', verdana, arial, sans-serif; font-size: 14px; fill: rgb(68, 68, 68); opacity: 1; font-weight: normal; white-space: pre;">Kostnad (kr)</text></g></g></svg>