<svg class="main-svg" xmlns="http://www.w3.org/2000/svg" xmlns:xlink="http://www.w3.org/1999/xlink" width="700" height="250" style="" viewBox="0 0 700 250"><rect x="0" y="0" width="700" height="250" style="fill: rgb(255, 255, 255); fill-opacity: 1;"/><defs id="defs-ed895d"><g class="clips"><clipPath id="cliped895dxyplot" class="plotclip"><rect width="660" height="210"/></clipPath><clipPath class="axesclip" id="cliped895dx"><rect x="20" y="0" width="660" height="250"/></clipPath><clipPath class="axesclip" id="cliped895dy"><rect x="0" y="20" width="700" height="210"/></clipPath><clipPath class="axesclip" id="cliped895dxy"><rect x="20" y="20" width="660" height="210"/></clipPath></g><g class="gradients"/><g class="patterns"/></defs><g class="bglayer"/><g class="layer-below"><g class="imagelayer"/><g class="shapelayer"/></g><g class="cartesianlayer"><g class="subplot xy"><g class="layer-subplot"><g class="shapelayer"/><g class="imagelayer"/></g><g class="minor-gridlayer"><g class="x"/><g class="y"/></g><g class="gridlayer"><g class="x"><path class="xgrid crisp" transform="translate(126.7,0)" d="M0,20v210" style="stroke: rgb(238, 238, 238); stroke-opacity: 1; stroke-width: 0.1px;"/><path class="xgrid crisp" transform="translate(237.01,0)" d="M0,20v210" style="stroke: rgb(238, 238, 238); stroke-opacity: 1; stroke-width: 0.1px;"/><path class="xgrid crisp" transform="translate(347.33,0)" d="M0,20v210" style="stroke: rgb(238, 238, 238); stroke-opacity: 1; stroke-width: 0.1px;"/><path class="xgrid crisp" transform="translate(459.45,0)" d="M0,20v210" style="stroke: rgb(238, 238, 238); stroke-opacity: 1; stroke-width: 0.1px;"/><path class="xgrid crisp" transform="translate(569.76,0)" d="M0,20v210" style="stroke: rgb(238, 238, 238); stroke-opacity: 1; stroke-width: 0.1px;"/></g><g class="y"><path class="ygrid crisp" transform="translate(0,188)" d="M20,0h660" style="stroke: rgb(238, 238, 238); stroke-opacity: 1; stroke-width: 0.1px;"/><path class="ygrid crisp" transform="translate(0,146)" d="M20,0h660" style="stroke: rgb(238, 238, 238); stroke-opacity: 1; stroke-width: 0.1px;"/><path class="ygrid crisp" transform="translate(0,104)" d="M20,0h660" style="stroke: rgb(238, 238, 238); stroke-opacity: 1; stroke-width: 0.1px;"/><path class="ygrid crisp" transform="translate(0,62)" d="M20,0h660" style="stroke: rgb(238, 238, 238); stroke-opacity: 1; stroke-width: 0.1px;"/></g></g><g class="zerolinelayer"><path class="yzl zl crisp" transform="translate(0,230)" d="M20,0h660" style="stroke: rgb(68, 68, 68); stroke-opacity: 1; stroke-width: 1px;"/></g><g class="layer-between"><g class="shapelayer"/><g class="imagelayer"/></g><path class="xlines-below"/><path class="ylines-below"/><g class="overlines-below"/><g class="xaxislayer-below"/><g class="yaxislayer-below"/><g class="overaxes-below"/><g class="plot" transform="translate(20,20)" clip-path="url(#cliped895dxyplot)"><g class="scatterlayer mlayer"><g class="trace scatter trace51afa2" style="stroke-miterlimit: 2;"><g class="fills"><g><path class="js-fill" d="M660,210L0,210L0,155.41L0.53,175.04L0.68,151.99L0.75,146.13L0.83,141.26L1.13,149.65L1.43,146.9L1.51,147.15L1.58,147.49L1.66,154L1.73,154.31L1.81,149.95L2.03,155.86L2.26,130.47L2.34,106.89L2.79,126.63L3.01,112.9L3.09,102.21L3.16,99.7L3.32,111.19L3.39,120.14L3.77,146.31L3.99,133.83L4.07,111.27L4.14,77.03L4.82,93.53L4.9,83.94L5.12,96.94L5.2,113.34L5.65,165.38L5.95,117.03L6.03,128.75L6.56,132.21L6.71,119.27L6.78,122.62L6.86,123.97L7.23,154.44L7.31,158.55L7.46,163.48L7.61,154.44L7.69,132.84L8.51,90.27L8.59,90.41L8.67,99.31L9.34,163.7L9.64,132.67L9.72,121.98L9.87,121.06L9.95,125.65L10.02,129.44L10.1,129.94L10.17,125.67L10.25,122.15L10.32,107.7L10.85,148.82L10.93,158.6L11.15,167.06L11.3,159.63L11.38,149.79L11.6,132.34L11.98,150.37L12.13,147.02L12.21,146.46L12.58,183.37L12.66,191.34L12.89,200.25L13.26,178.98L13.34,163.58L13.49,162.12L13.56,162.62L13.64,165.93L14.02,152.32L14.32,163.55L14.39,172.08L14.69,189.41L14.92,150.98L14.99,134.93L15.15,133.65L15.45,150.26L15.67,138.7L15.75,125.16L16.35,173.66L16.65,162.75L16.73,136.17L16.8,115.45L17.26,139.09L17.41,138.38L17.48,136.28L17.56,128.85L17.86,154.19L17.93,164.3L18.31,194.69L18.54,165.73L18.61,141.12L19.06,157.58L19.37,143.51L19.44,143.31L19.89,179.88L19.97,200.29L20.27,184.86L20.34,158.24L20.42,139.65L20.87,161.11L21.1,155.49L21.17,145.82L21.25,144.03L21.4,151.45L21.48,158.15L21.85,196.5L22.23,165.43L22.3,153.83L22.45,146.28L22.76,160.97L23.06,150.11L23.13,152.98L23.74,177.08L23.81,188.7L23.96,184.7L24.04,169.48L24.34,142.35L24.94,148.99L25.02,150.41L25.62,198.48L25.92,192.04L26,176.05L26.67,148.48L26.82,149.78L26.9,152.4L27.28,168.82L27.5,153.06L27.58,130.52L27.65,107.67L28.11,136.92L28.33,126.34L28.41,115.8L28.48,114.23L28.56,120.51L28.63,129.19L29.09,168.22L29.31,158.15L29.39,135.73L29.46,121.77L29.84,146.82L30.14,130.53L30.22,123.6L30.74,157.2L30.82,162.79L30.89,162.42L31.04,163.4L31.12,156.16L31.27,111.71L31.87,141.27L31.95,133.77L32.02,124.78L32.48,152.42L32.55,160.25L32.85,165.86L32.93,157.98L33,136.9L33.08,109.05L33.76,114.6L33.83,110.14L34.51,151.93L34.81,137.6L34.89,130.78L35.11,77.98L35.64,109.8L35.72,105.15L36.47,140.4L36.62,135.2L36.7,121.78L37.52,76.51L37.6,98.84L38.05,133.53L38.35,126.32L38.43,106.44L39.11,109.7L39.26,75.52L39.33,69.37L40.09,136.93L40.16,129.59L40.24,104.44L40.31,41.84L40.99,83.7L41.07,61.96L41.14,62.67L41.22,99.05L41.82,152.87L42.05,123.77L42.12,110.03L42.27,73.75L42.57,114.06L42.87,81.7L42.95,126.28L43.7,166.97L43.78,160.58L43.85,140.55L43.93,109.89L44.53,155.65L44.61,148.8L44.76,137.37L45.21,162.24L45.29,167.83L45.44,168.75L45.51,167.9L45.59,161.68L45.74,126.32L46.42,138.12L46.49,131.5L46.57,131.29L46.64,133.52L47.17,160.78L47.4,155.6L47.47,139.4L47.77,85.77L48.3,88.28L48.38,121.79L49.05,157.11L49.35,145.86L49.43,137.18L49.58,124.89L49.96,144.77L50.18,135.96L50.26,138.99L50.64,157.93L50.71,161.2L50.94,164.62L51.01,159.79L51.09,146.64L51.16,136.97L51.69,161.74L51.77,163.94L51.92,156.98L52.37,173.09L52.44,178.69L52.67,190.52L52.82,177.86L52.9,155.34L52.97,146.04L53.5,169.98L53.57,167.84L53.88,154.5L54.25,169.3L54.33,173.2L54.48,172.79L54.55,170.3L54.78,131L55.16,155.68L55.23,156.17L55.53,145.13L55.84,154.46L55.91,160.76L56.36,170.72L56.44,163.53L56.51,142.89L56.59,124.26L57.04,150.14L57.19,147.74L57.27,143.38L57.34,132.56L57.87,157.98L57.94,162.14L58.02,163.47L58.17,158.09L58.25,151.36L59.15,92.16L59.23,89.47L59.45,115.78L59.53,130.27L59.9,160.06L60.28,135.12L60.36,127.96L60.73,139.29L60.96,127.75L61.03,127.14L61.56,151.25L61.94,139.35L62.01,129.73L62.16,87.93L62.69,121.35L62.77,114.75L62.84,112.57L62.99,127.6L63.07,134.8L63.6,158.06L63.75,138.23L63.82,129.47L64.27,149.77L64.5,139.86L64.58,129.64L64.65,126.67L64.95,139.86L65.03,142.57L65.33,153.82L65.48,142.61L65.56,99.2L65.63,65.45L66.16,130.42L66.23,125.88L66.31,103.81L66.38,91.4L66.84,141.73L66.91,149.7L67.21,153.83L67.29,146.01L67.36,125.85L67.44,115.61L67.82,139.95L67.97,138.83L68.04,141.67L68.27,130.19L68.64,143.67L68.72,153.92L68.87,159.83L69.1,149.47L69.17,132.87L69.25,117.25L69.78,146.45L69.85,149.18L70,141.21L70.3,152.08L70.38,159.02L70.83,175.86L70.91,170.29L70.98,154.74L71.06,142.51L71.66,164.97L71.73,160.23L71.96,154.17L72.19,163.71L72.26,166.03L72.41,173.7L72.79,161.16L72.86,153.1L73.09,135.74L73.54,154.91L73.62,150.27L73.69,150.97L73.92,158.33L73.99,165.83L74.52,176.82L74.67,168.06L74.75,161.67L75.2,162.87L75.5,143.23L75.58,147.09L75.65,153.29L76.1,168.29L76.33,161.01L76.41,146.94L76.48,134.82L77.01,160.33L77.08,159.58L77.16,151.23L77.31,145.25L77.69,160.62L77.76,165.7L77.91,171.38L78.21,146.61L78.29,135.45L78.82,166.9L79.04,147.7L79.12,147.76L79.19,145.57L79.5,158.93L79.57,164.24L79.72,167.38L79.95,158.38L80.02,137.94L80.1,80.04L80.7,144.8L80.78,128.21L80.85,105.62L80.93,96.6L81.15,143.21L81.23,151.91L81.3,150.34L81.38,158.78L81.45,164.31L81.61,164.53L81.68,164.46L81.76,157.09L81.98,109.49L82.51,146.65L82.58,141.29L82.74,137.93L82.96,150.19L83.04,155.32L83.26,168.55L83.56,161.78L83.64,140.21L83.87,122.58L84.17,153.68L84.24,151.77L84.32,152.06L84.62,140.16L84.92,158.48L85,160.68L85.3,174.29L85.6,156.62L85.67,148.47L85.75,146.98L85.9,153.37L85.98,157.78L86.35,153.52L87.03,182.75L87.18,178.33L87.26,172.17L87.56,144.9L88.16,149.63L88.24,149.67L88.84,168.56L88.99,160.52L89.06,147.95L89.14,131.39L89.67,160.49L89.74,159.63L89.82,152.76L89.97,141.22L90.42,165.28L90.5,173.82L90.72,187.68L90.95,145.19L91.1,160.47L91.17,165.6L91.55,174.95L91.7,157.99L91.78,153.68L91.93,154.5L92,157.93L92.31,187.1L92.61,172.53L92.68,158.68L93.59,123.91L93.66,132.65L94.26,164.88L94.49,140.43L94.57,128.3L95.17,149.41L95.32,138.12L95.39,138.59L96.15,163.39L96.22,158.1L96.3,140.92L96.37,129.73L96.9,153.83L96.98,153.73L97.2,137.46L97.65,159.89L97.73,165.06L97.88,168.36L98.18,153.72L98.26,147.92L98.41,137.76L98.79,151.89L99.01,143.65L99.09,146.97L99.69,168.82L99.99,161.57L100.07,152.98L100.22,147.37L100.52,161.64L100.82,147.55L100.9,147.56L101.42,165.84L101.65,157.84L101.72,145.29L101.8,134.27L102.25,164.3L102.33,165.55L102.7,138.06L102.85,147.32L102.93,151.78L103.23,164.3L103.46,154.92L103.53,135.72L103.68,114.13L104.14,161.22L104.21,161.1L104.51,140.33L104.89,159.08L104.96,162.38L105.04,165.06L105.27,156.01L105.34,140.39L105.42,125.79L105.94,159.51L106.02,159.51L106.25,139.9L106.7,158.66L106.77,166.65L106.85,166.78L106.92,164.27L107,164.09L107.07,157.9L107.22,110.07L107.68,159.96L107.75,159.63L107.83,161.56L107.9,155.78L107.98,146.84L108.13,142.13L108.43,153.79L108.51,159.97L108.66,165.63L108.96,140.83L109.03,122.97L109.64,158L109.79,144.56L109.86,139.34L110.39,160.51L110.77,153.91L110.84,146.92L111.07,128.43L111.37,159.16L111.44,157.56L111.52,155.17L111.59,149.57L112.12,161.38L112.2,166.74L112.35,166.52L112.42,168.58L113.55,137.09L113.63,140.44L113.7,146.21L114.01,159.14L114.31,149.51L114.38,136.43L114.46,121.26L114.91,153.51L114.99,152.83L115.06,151.28L115.36,107.6L115.66,140.32L115.74,143.11L115.89,154.07L116.19,119.39L116.27,73.93L116.87,142.42L117.1,107.04L117.17,96.82L117.7,156.08L118,131.77L118.08,114.49L118.68,145.57L118.83,124.35L118.9,104.92L119.58,146.94L119.73,133.31L119.81,103.3L119.88,68.26L120.49,128.35L120.56,120.37L120.79,93.08L121.09,135.58L121.16,141.44L121.39,148.77L121.54,139.59L121.62,112.78L121.69,83.78L122.29,139.19L122.37,132.93L122.6,103.55L122.97,141.54L123.05,147.45L123.2,148.32L123.35,142.94L123.43,133.24L123.73,104.9L124.25,114.64L124.33,109.34L125.01,152.38L125.23,140.73L125.31,132.59L125.38,124.37L125.84,148.68L125.91,148.13L125.99,141.56L126.21,127.23L126.59,148.19L126.67,152.32L126.89,153.75L126.97,149.17L127.04,138.01L127.12,127.03L127.64,156.38L127.72,157.76L127.95,132.92L128.32,154.2L128.4,161.52L128.62,173.12L128.85,145.97L128.93,135.79L129.53,155.08L129.68,147.08L129.75,144.64L129.83,143.18L129.98,151.72L130.06,156.18L130.51,167.25L130.58,163L130.66,145.28L130.73,129.07L131.34,159.56L131.41,151.11L131.71,136.07L132.09,156.41L132.17,154.21L132.24,154.04L132.32,151.42L132.54,95.54L132.77,140.68L132.84,148.03L132.99,157.31L133.37,134.02L133.45,134.89L133.52,133.82L133.67,140.62L133.75,143.01L133.97,156.99L134.28,130.35L134.35,95.84L134.8,158.01L135.18,139.45L135.26,140.2L135.86,169.68L136.08,160.26L136.16,154.04L136.99,139.91L137.06,143.69L137.52,165.68L137.59,168.44L137.67,169.02L137.82,167.54L137.89,162.6L138.19,147.75L138.42,163.28L138.5,165.88L138.72,151.64L138.8,146.24L139.55,170.26L139.63,165.5L139.7,153.86L139.78,144.51L140.23,162.42L140.38,160.84L140.45,155.19L140.61,149.45L141.06,164.01L141.13,169.26L141.28,169.53L141.36,169.46L141.43,163.81L141.58,137.8L142.11,163.77L142.19,163.23L142.49,140.57L142.79,155.89L142.87,161.36L143.09,166.76L143.32,144.26L143.39,133.16L144,155.26L144.15,144.46L144.22,141.93L144.6,159.63L144.67,165.94L144.98,174.91L145.13,152.35L145.2,140.69L145.8,168.15L146.03,155.41L146.11,152.57L146.26,155.2L146.33,161.51L146.78,189L146.86,175.76L146.93,157.9L147.01,146.51L147.54,169.89L147.61,168.43L147.91,152.83L148.22,167.12L148.29,171.85L148.59,183.13L148.89,162.54L148.97,159.04L149.42,165.49L149.72,155.05L149.8,155.18L149.87,162.04L150.4,198.88L150.63,177.79L150.7,167.06L150.93,154.6L151.53,157.18L151.61,158.41L152.21,171.69L152.28,168.7L152.36,155.5L152.44,143.3L152.96,164.88L153.04,162.31L153.11,155.64L153.34,139.16L153.79,160.07L153.87,161.42L154.09,147.92L154.17,122.06L154.24,121.53L154.32,141.25L154.39,141.6L154.47,149.89L154.85,161.02L155,143.44L155.07,139.6L155.15,135.59L155.45,150.72L155.52,156.76L155.6,160.03L155.83,153.36L155.9,138.83L156.05,90.61L156.43,151.28L156.58,150.64L156.65,151.69L156.88,107.84L157.11,138.94L157.18,149.92L157.41,161.83L157.63,159.9L157.71,151.49L157.86,102.3L158.39,149.81L158.46,151.57L158.69,113.73L159.07,154.76L159.14,161.15L159.37,165.03L159.52,156.86L159.59,126.79L159.67,106.48L160.05,154.14L160.2,153.81L160.27,155.88L160.57,132.36L160.87,153.2L160.95,161.85L161.1,167.06L161.4,151.79L161.48,140.45L161.63,129.51L162,154.92L162.08,153.64L162.16,149.81L162.31,140.18L162.76,164.24L162.83,166.63L162.91,168.74L163.29,161.5L163.36,154.47L163.81,160.89L164.11,147.74L164.19,149.57L164.27,149.93L164.72,167.16L165.02,150.52L165.09,145.7L165.7,167.57L165.85,153.74L165.92,142.92L166.07,139.24L166.15,145.93L166.22,150.05L166.3,150.29L166.38,155.81L166.6,162.4L166.75,147.74L166.83,116.5L166.9,99.87L167.35,165.14L167.43,162.82L167.66,144.37L167.73,126.39L167.81,121.77L168.03,148.67L168.11,149.51L168.33,162.61L168.56,153.63L168.64,111.27L168.71,100.14L169.01,158.63L169.09,161.62L169.16,164.56L169.39,155.32L169.46,145.44L169.62,136.03L169.99,159.55L170.07,164.95L170.22,164.8L170.29,160.91L170.52,112.93L170.59,146.65L170.67,149.67L171.05,163.06L171.35,146.18L171.42,149.05L171.5,148.71L171.57,151.48L171.65,156.64L171.73,154.34L172.03,166.55L172.1,165.52L172.33,127.5L172.7,151.24L172.78,150.85L173.16,135.84L173.46,149.15L173.53,152.57L173.68,162.78L174.14,149.54L174.21,145.48L174.36,138.89L174.66,157.47L175.04,138.98L175.12,141.53L175.79,164.47L175.94,158.73L176.02,153.11L176.17,147.65L176.4,164.78L176.47,169.82L176.7,156.64L176.77,150.85L176.92,150.63L177,156.12L177.45,173.2L177.6,167.85L177.68,156.98L177.75,148.42L178.21,183.85L178.28,183.54L178.66,154.28L179.03,177.13L179.11,180.39L179.26,182.25L179.41,176.14L179.49,164.11L179.56,157.67L179.86,191.2L179.94,193.16L180.01,195.68L180.24,185.99L180.32,168.24L180.39,165.47L180.69,183.04L180.77,195.89L180.99,199.38L181.14,185.86L181.22,172.48L181.37,141.5L181.97,169.95L182.05,164.71L182.35,147.38L182.65,175.68L182.73,182.09L182.95,182.62L183.03,177.42L183.33,161.62L183.78,173.55L183.86,171.93L184.08,160.31L184.46,180.04L184.53,185.75L184.69,187.33L184.84,182.64L184.91,174.73L185.14,166.29L185.51,177L185.74,167.7L185.82,167.19L185.89,166.57L186.04,169.41L186.12,173.47L186.34,176.95L186.72,169.29L186.8,166.4L187.62,144.88L187.7,147.61L187.77,147.55L188.38,174.73L188.68,162.65L188.75,154.24L189.73,168.53L189.81,168.84L190.11,177.47L190.41,168.53L190.49,165.78L190.71,161.85L190.94,174.31L191.01,175.81L191.39,163.07L191.77,171.83L191.84,172.08L191.99,170.87L192.07,164.59L192.15,127.42L192.75,195.2L192.82,195.07L193.12,159.44L193.58,180.32L193.65,180.28L193.88,176.21L193.95,151.43L194.03,139.64L194.41,193.44L194.48,193.95L194.56,196.41L194.71,195.33L194.78,171.55L194.93,165.23L195.31,178.42L195.39,182.92L195.84,150.99L195.91,191.47L195.99,190.27L196.29,194.82L196.36,196.86L196.59,195.23L196.67,164.39L197.27,186.08L197.5,181.72L197.57,166.35L198.17,195.93L198.4,194.55L198.47,170.28L198.55,166.4L198.93,181.25L199,183.81L199.45,177.57L199.53,191.26L199.6,192.63L199.98,197.29L200.21,194.62L200.28,167.19L200.43,166.72L200.51,172.45L201.56,199.63L201.79,198.7L201.87,197.22L201.94,196.07L202.02,172.77L202.24,168.65L202.47,178.98L202.54,183.03L202.69,189.12L203,171.72L203.07,162.28L203.52,188.55L203.75,163.77L203.82,155.7L203.98,152.37L204.28,162.94L204.35,173.92L204.58,178.47L204.65,173.04L204.73,161.19L204.88,119.37L205.48,158.69L205.56,151.99L205.86,139.15L206.16,164.18L206.24,167.06L206.39,167.7L206.46,166.14L206.54,158.73L206.69,129.27L207.14,165.39L207.22,164.98L207.29,160.02L207.67,143.84L207.89,156.79L207.97,162.44L208.12,167.5L208.35,157.77L208.42,136.56L208.5,128.1L208.8,157.01L208.87,156.9L208.95,159.99L209.17,154.87L209.25,147.23L209.48,141.58L209.63,152.89L209.7,152.05L209.78,159.59L209.93,166.03L210.15,155.26L210.23,126.7L210.3,124.77L210.38,151.95L210.61,160.26L210.68,165.46L210.76,165.33L210.83,168.26L211.21,124.91L211.36,147.81L211.44,156.62L211.89,170.39L212.04,158.5L212.11,157.43L212.34,146.05L212.64,165.78L212.94,147.7L213.02,145.61L213.09,142.94L213.32,162.14L213.39,161.89L213.7,171.52L214,159.74L214.07,153.18L214.22,159.66L214.3,164.65L214.45,171.27L214.83,152.46L214.9,151.18L215.88,186.42L215.96,172.97L216.03,174.02L216.33,176.47L216.41,170.46L216.48,159.24L216.71,148.61L216.94,161.55L217.01,172.7L217.24,182.87L217.61,167.24L217.69,158.88L218.07,170.62L218.29,159.81L218.37,154.85L218.52,147.42L218.82,166.77L218.89,172.1L219.2,162.36L219.27,135.8L219.35,129.04L219.42,149.87L219.5,187.75L219.57,191.4L219.65,161.99L219.87,174.83L219.95,170.04L220.33,146.12L220.63,169.6L220.7,175.17L220.78,175.84L220.85,172.04L220.93,173.33L221,167.56L221.08,146.26L221.68,177.29L221.76,172.01L222.13,149.15L222.44,171.39L222.51,176.58L222.74,173.86L222.81,167.15L222.96,138.08L223.42,178.14L223.49,175.36L223.57,171.33L223.87,144.31L224.24,173.97L224.32,176.41L224.62,173.54L224.7,167.2L225,159.07L225.3,173.99L225.45,173.43L225.53,166.47L225.68,166.77L225.75,163.07L226.43,181.57L226.58,175.75L226.66,168.35L226.73,166.24L226.96,178.64L227.03,182.24L227.18,176.98L227.26,174.15L227.56,158.96L227.94,177.09L228.01,176.86L228.09,177.01L228.16,178.95L228.39,163.54L228.46,176.61L228.54,195.45L228.92,201.38L228.99,185.45L229.07,180.06L229.37,161.36L229.75,179.04L229.82,181.99L230.2,154.85L230.27,192.61L230.35,191L230.72,197.29L230.8,196.72L230.88,176.74L231.18,164.84L231.48,184.62L231.55,188.89L231.86,184.2L231.93,170.5L232.01,165.33L232.23,195.43L232.31,196.05L232.46,195.77L232.53,197.07L232.68,195.91L232.76,173.28L232.83,173.12L232.91,170.62L233.66,197.53L234.19,194.3L234.27,194.19L234.34,196.52L234.72,193.44L234.79,173.67L235.32,197.09L235.85,192.91L235.92,192.56L236.15,196.27L236.23,181.67L236.53,172.44L236.83,179.51L236.9,184.03L237.28,197.23L237.81,195.96L237.88,196.32L237.96,197.96L238.34,194.44L238.56,197.14L238.64,195.59L239.16,195.18L239.62,203.88L239.69,203.93L239.77,204.55L239.84,201.2L239.92,198.53L240.14,184.09L240.37,188.56L240.45,191.02L241.58,204.98L241.65,200.05L242.03,183.97L242.25,189.95L242.33,195.27L242.4,199.1L242.86,190.43L243.01,191.66L243.08,194.25L243.16,194.03L243.31,194.55L243.38,197.43L243.46,197.63L243.69,196.61L243.76,194.18L243.84,194.31L243.91,183.07L244.29,199.31L244.51,197.72L244.59,181.71L244.66,175.11L245.12,201.54L245.19,203.4L245.57,181L245.87,188.9L245.95,196.06L246.47,190.24L246.62,203.17L246.7,190.92L247,206.47L247.3,181.15L247.38,177.62L247.45,174.74L247.83,185.07L247.91,185.07L247.98,185.22L248.21,169.46L248.28,165.34L248.73,200.36L249.04,196.36L249.11,172.44L249.26,170.05L249.41,178.32L249.49,176.84L249.56,181.91L250.09,178.38L250.54,197.12L250.62,198.35L250.77,196.52L250.84,173.1L250.99,170.73L251.15,175.96L251.22,181.3L252.43,205.16L252.5,205.02L252.8,182.25L253.1,192.69L253.18,196.79L254.08,205.02L254.16,204.96L254.23,205.43L254.39,204.66L254.46,199.88L254.91,192.14L255.21,198.32L255.29,198.21L255.52,191.05L256.04,198.04L256.12,197.98L256.42,195.23L256.72,196.43L256.8,196.99L257.32,192.95L257.7,201.56L257.78,201.61L257.85,204.23L258.08,185.15L258.15,181.78L258.38,181.31L258.45,185.75L259.66,204.15L259.74,202.08L259.89,201.98L259.96,199.98L260.11,202.04L260.19,189.84L260.26,189.04L260.41,193.85L260.49,197.81L260.64,198.76L260.94,193.76L261.17,198.43L261.24,199.93L261.47,203.99L261.62,200.59L261.69,184.24L261.92,179.2L262.22,190.51L262.3,192.32L262.37,190.56L262.6,199.04L262.82,196.83L262.9,197.48L263.28,204.56L263.5,199L263.58,183.85L263.65,182.1L264.03,191.09L264.11,192.87L264.26,192.93L264.33,194.96L264.41,195.25L264.48,193.38L264.56,197.98L264.71,202.02L264.78,204.36L265.09,205.06L265.16,203.83L265.24,188.47L265.31,182.25L265.91,195.57L265.99,195.61L266.14,195.87L266.22,200.3L266.29,196.86L266.59,205.51L266.82,205.5L266.89,205.55L267.27,180.5L267.65,191.65L267.72,193.67L267.8,194.25L267.95,192.39L268.02,189.99L268.1,179.96L268.63,203.75L268.7,204.49L268.85,204.43L268.93,201.19L269.08,179.29L269.38,187.39L269.46,192.92L269.76,199.78L269.91,191.2L270.36,197.08L270.43,197.18L270.81,198.84L270.89,197.27L270.96,186.79L272.32,204.47L272.39,201.38L272.85,189.75L273.15,200.01L273.22,201.67L273.6,194.89L273.9,199.08L273.98,202.83L274.05,203.62L274.28,198.71L274.35,198.38L274.58,180.67L275.11,192.63L275.18,194.23L275.33,191.41L275.41,189.53L275.94,199.68L276.16,199.21L276.24,184.2L276.31,182.54L276.61,189.33L276.69,192.94L277.67,206.33L277.74,206.99L278.2,189.57L278.5,194.93L278.57,204.95L279.03,200.33L279.18,205.95L279.33,203.69L279.4,205.36L279.55,206.93L279.78,203.29L279.85,201.58L280.08,203.23L280.16,194.86L280.68,200.27L280.91,197.85L280.98,196.11L281.66,199.71L281.81,198.02L281.89,191.27L282.19,200.37L282.64,196.2L282.72,197.92L282.79,196.19L283.32,199.71L283.4,199.72L283.85,197.93L284.07,199.9L284.15,199.85L284.3,199.46L284.37,192.02L285.13,199.55L285.43,197.63L285.51,197.32L286.03,199.61L286.11,199.54L286.18,195.09L287.09,199.02L287.16,197.09L287.46,197.92L287.54,199.81L287.77,200.01L287.92,199.54L287.99,197.05L288.52,197.26L288.59,199.11L288.97,197.02L289.05,198.93L289.2,195.98L289.57,199.38L289.8,197.54L289.88,197.51L290.03,200.84L290.1,203.09L290.4,204.21L290.55,200.66L290.63,199.38L291.01,193.89L291.23,201.73L291.31,201.96L291.61,197.66L291.91,204.76L291.99,204.92L292.21,205.62L292.29,205.22L292.36,200.57L292.81,191.53L292.96,197.57L293.04,201.19L293.49,193.67L293.87,196.91L293.94,196.59L294.32,198.61L294.55,196.52L294.7,197.21L294.77,197.28L295,199.17L295.3,193.77L295.38,195.83L295.45,193.76L295.83,198.73L296.28,196.36L296.36,196.4L296.81,198.61L296.96,198.4L297.03,193.71L297.11,193.21L297.34,195.9L297.41,195.82L297.49,195.79L297.64,197.89L298.24,195.79L298.31,195.75L298.62,198.17L298.77,197.7L298.84,192.01L299.07,191.9L299.67,197.02L299.75,196.92L299.82,194.43L300.12,195.5L300.2,197.71L300.42,197.85L300.58,197.57L300.65,194.18L300.8,193.98L301.18,194.41L301.25,196.73L301.48,196.89L301.55,194.77L302.23,197.68L302.38,197.56L302.46,195.39L302.69,195.21L302.76,196.23L302.99,199.89L303.36,195.11L303.44,194.99L304.12,197.65L304.19,197.58L304.27,193.25L304.8,201.6L305.17,197.45L305.25,195.2L305.62,195.34L305.7,197.56L305.93,197.55L306,197.34L306.08,191.34L306.3,190.2L306.45,193.8L306.53,193.95L306.75,196.53L307.36,195.39L307.43,195.54L307.66,197.74L307.96,192.59L308.04,194.78L308.11,192.52L308.71,197.18L308.94,194.93L309.01,194.9L309.47,197.98L309.62,197.51L309.69,192.33L309.92,192.25L310.6,196.89L310.67,194.61L310.9,195.38L310.97,195.76L311.28,198.52L311.43,197.74L311.5,192.63L311.58,192.27L311.65,194.75L311.73,192.48L311.8,194.75L312.03,194.81L312.1,197.07L312.41,197.13L312.48,194.85L312.71,195.61L312.78,197.21L313.08,199.35L313.39,195.45L313.46,195.33L313.84,195.37L313.91,197.56L314.14,197.73L314.21,195.66L314.29,195.79L314.36,198.11L314.97,200.58L315.12,198.62L315.19,198.32L315.27,197.58L315.42,201.54L315.49,202.77L315.65,204.56L315.95,199.49L316.02,197.81L316.1,197.94L316.17,199.74L316.32,199.77L316.4,198.75L316.7,200.83L316.85,199.93L316.93,196.28L317,196.53L317.08,200.75L317.53,204.67L317.76,199.11L317.83,199.15L318.21,196.92L318.43,199.38L318.58,198.81L318.66,197.91L318.96,192.24L319.34,199.21L319.41,198.35L319.71,196.2L320.09,197.32L320.17,199.24L320.39,199.3L320.47,198.96L320.54,194.28L320.77,192.96L321,196.33L321.07,195.97L321.15,197.34L321.45,197.88L321.52,195.17L322.2,198.74L322.28,198.71L322.35,193.57L322.58,189.68L322.88,194.12L322.95,197.58L323.26,197.99L323.33,195.76L323.56,196.65L323.71,196.23L323.78,198.26L324.08,198.28L324.16,193.37L324.31,194.81L324.39,192.61L324.69,193.39L324.76,197.48L325.06,197.62L325.14,195.47L325.37,196.16L325.44,196.45L325.82,198.99L326.12,195.85L326.19,195.83L326.5,195.95L326.57,198.01L326.8,197.91L326.87,195.94L327.63,200.74L327.78,198.75L327.85,197.59L328,199.84L328.08,202.23L328.38,205.73L328.53,200.55L328.61,199.34L328.68,197.32L329.13,204.84L329.21,205.83L329.51,205.83L329.59,204.66L330.19,206.3L330.41,205.83L330.49,205.34L331.39,196.32L331.47,195.99L332,204.35L332.3,199.78L332.37,197.27L332.45,196.95L332.75,198.7L332.83,200.45L333.05,200.44L333.13,199.95L333.2,194.99L333.5,201.84L334.03,199.93L334.11,199.15L334.18,197.17L334.78,200.82L334.86,200.82L334.94,200.5L335.01,196.29L335.24,195.45L335.31,198.84L335.39,199.27L335.69,201.52L335.76,200.7L335.84,199.6L335.99,197.33L336.37,199.92L336.44,201.82L336.52,202.22L336.74,200.46L336.82,195.45L336.89,195.13L337.12,197.56L337.2,198L337.35,198.09L337.42,199.97L337.5,200.27L337.72,199.07L337.8,197.17L337.87,197.44L337.95,188.26L338.33,200.99L338.7,196.98L338.78,196.92L339.16,197.19L339.23,199.04L339.46,198.91L339.53,196.9L339.61,197.04L339.68,199.11L339.91,198.89L340.29,201.59L340.36,201.17L340.44,198.9L340.66,198.65L340.74,199.21L340.81,201.01L340.96,202.57L341.34,198.09L341.49,200.25L341.57,200.37L342.02,200.97L342.47,196.63L342.55,199.22L342.7,200.91L343.15,200.01L343.22,198.24L343.6,198.67L343.68,200.48L343.98,200.03L344.05,195.76L344.28,195.49L344.96,199.52L345.03,197.64L345.56,201L345.79,200.41L345.86,195.95L346.09,195.78L346.46,199.71L346.77,199.53L346.84,197.87L347.44,201.94L347.59,201.27L347.67,197.11L347.82,198.42L347.9,196.59L347.97,198.76L348.27,202.65L348.65,198.9L348.72,198.95L349.18,202.11L349.4,201.91L349.48,197.99L349.7,197.45L349.93,199.3L350.01,199.3L350.08,200.88L350.16,201.04L350.31,200.76L350.38,200.76L350.46,199.17L350.76,200.94L350.83,202.34L351.66,199.54L351.81,199.74L351.89,201.33L352.27,199.53L352.34,201.21L352.57,201.01L353.7,205.83L353.77,205.66L353.85,203.86L354,201.18L354.3,204.3L354.45,203.81L354.53,205.58L354.9,204.72L355.2,207.53L355.28,208.79L355.43,210.81L355.73,204.88L355.81,203.38L356.11,204.5L356.18,202.22L356.26,202.68L356.34,204.8L356.56,205.05L356.64,203.05L356.79,199.52L357.31,204.96L357.39,204.73L357.77,201.19L358.07,202.96L358.14,203.99L358.37,204.37L358.45,204.13L358.52,201.24L358.75,201.18L359.2,203.34L359.42,202.97L359.5,202.05L359.95,204.22L360.25,203.93L360.33,201.31L360.55,201.09L361.23,203.35L361.31,202.33L361.46,196.97L361.99,204.34L362.06,204.36L362.36,201.75L362.82,203.81L362.89,203.82L362.97,196.75L363.04,203.84L363.64,202.88L363.72,203.75L363.87,204.61L364.1,203.13L364.32,203.13L364.4,203.13L364.77,204.1L364.85,203.15L364.93,197.4L365.68,204.6L365.9,203.73L365.98,203.68L366.13,195.64L366.58,204.52L366.81,197.64L366.88,199.4L367.04,198.89L367.11,199.95L367.19,201.98L367.49,205.35L368.01,204.76L368.09,204.31L368.17,205.36L368.54,203.07L368.62,203.07L368.69,198.22L368.99,203.8L369.52,201.47L369.6,200.17L370.05,196.78L370.12,202.88L370.2,194.53L370.35,194.97L370.43,202.06L370.95,203.82L371.1,203.35L371.18,200.26L371.78,203.05L372.08,202.7L372.16,201.44L372.54,202.29L372.61,203.48L372.91,203.13L372.99,200.16L373.21,200.06L373.89,202.59L373.97,193.74L374.49,203.09L374.8,199.97L374.87,199.95L375.02,199.79L375.63,202.51L375.7,202.5L375.78,201.15L375.93,194.74L376.23,203.01L376.45,202.92L376.53,203.02L376.98,201.25L377.28,202.55L377.36,202.51L377.58,201.14L377.81,203.17L377.89,202.65L377.96,203.95L378.34,204.81L378.41,203.52L378.49,203.08L378.87,202.54L378.94,203.16L379.02,203.98L379.32,201.93L379.77,202.43L379.84,203.53L380.15,203.39L380.22,201.09L380.82,205.82L381.05,203.25L381.13,202.76L381.2,201.54L381.8,203.17L381.88,202.86L382.26,199.22L382.63,202.08L382.71,202.06L382.93,202.03L383.01,200.7L383.61,203.51L383.76,203.19L383.84,199.69L384.06,199.48L384.22,200.9L384.29,200.99L384.52,202.35L385.12,201.78L385.19,201.88L385.42,203.09L385.65,200.01L385.8,201.29L385.87,200L386.25,203.3L386.7,201.33L386.78,201.31L387.08,205.53L387.38,203.34L387.46,200.93L387.68,200.14L387.91,202.21L387.98,202.63L388.43,201.28L388.81,203.84L388.89,203.94L389.11,204.35L389.19,204.05L389.26,202.28L389.49,201.79L389.79,202.32L389.87,203.46L390.17,201.87L390.24,202.01L390.32,203.39L390.54,202.62L390.92,204.3L391,204.26L391.07,203.55L391.6,203.2L391.67,204.22L391.83,204.17L391.9,198.38L392.13,198.47L392.2,200.42L392.81,204.47L393.03,203.43L393.11,202.26L393.48,205.02L393.86,202.79L393.94,202.8L394.31,203.9L394.39,205.21L394.54,205.85L394.61,204.01L394.69,201.72L394.76,201.37L394.91,202.6L394.99,204.53L395.52,205.29L395.59,204.93L395.67,204.49L396.05,205.79L396.12,206.33L396.42,205.95L396.5,203.93L397.1,205.84L397.4,205.45L397.48,204.81L397.85,205.35L397.93,205.95L398.23,205.86L398.31,203.92L398.53,203.75L398.68,204.54L398.83,204.35L398.91,205.15L399.13,203.94L399.21,196.44L399.36,195.44L399.44,197L399.51,203.64L399.59,199.74L399.81,205.35L400.26,202.02L400.34,200.9L400.72,203.77L401.24,203.07L401.32,204.13L401.62,204.87L402.15,201.99L402.3,202.46L402.37,202.62L402.53,203.61L402.83,202.01L402.9,197.04L403.58,205.38L403.73,204.33L403.81,204.04L404.11,203.48L404.26,204.56L404.33,205.2L404.64,203.2L405.09,204.03L405.16,204.84L405.46,204.86L405.54,202.86L405.77,202.52L405.92,204.56L405.99,205.12L406.14,205.2L406.22,204.21L406.52,203.1L406.9,203.57L406.97,204.5L407.27,204.11L407.35,200.78L407.42,199.91L407.88,202.07L407.95,203.29L408.33,201.82L408.48,202.54L408.55,203.36L408.7,203.41L408.78,204.44L409.08,204.03L409.16,200.87L409.23,200.42L409.61,202.02L409.68,202.01L409.76,203.15L410.14,202.01L410.29,202.47L410.36,203.23L410.81,204.69L410.89,204.4L410.96,201.64L411.19,201.37L411.27,202.51L411.34,202.56L411.49,202.57L411.57,203.65L411.87,203.63L411.94,202.23L412.55,205.38L412.7,204.69L412.77,201.73L412.92,202.47L413,201.33L413.3,202.5L413.38,203.57L413.75,201.65L414.05,203.16L414.13,204.17L414.36,204.28L414.51,204.07L414.58,201.59L414.73,200.85L415.11,201.73L415.18,203.22L415.49,202.49L416.24,204.89L416.31,204.66L416.39,203.59L416.69,203.19L416.92,203.83L416.99,204.22L417.29,203.25L417.37,203.36L417.44,204.38L417.6,204.5L417.67,203.59L418.05,204.62L418.2,202.75L418.27,202.43L418.42,202.05L418.8,204.01L419.1,203.92L419.18,202.89L419.55,203.38L419.63,204.32L419.93,204.07L420.01,201.06L420.23,201.02L420.91,203.38L420.99,202.28L421.36,203.14L421.44,204.18L421.74,203.99L421.82,201.22L422.04,201.03L422.72,203.41L422.79,202.31L423.17,203.01L423.25,204.01L423.55,204.04L423.62,201.17L423.85,201.13L424.53,203.52L424.6,202.44L424.75,202.45L424.83,203.4L425.13,204.09L425.51,200.99L425.73,202.13L425.81,202.13L425.96,202.14L426.03,203.43L426.34,203.57L426.41,202.44L426.56,202.48L426.64,203.43L427.09,205.25L427.39,202.13L427.47,202.34L427.54,202.75L428.45,204.65L428.52,203L428.97,205.04L429.28,203.63L429.35,203.52L429.58,203.63L429.65,204.62L430.03,203.65L430.18,204.46L430.25,204.83L430.78,205.23L431.08,202.66L431.16,203.55L431.46,204.41L431.76,203.98L431.84,202.99L432.14,202.58L432.21,203.2L432.29,204.18L432.59,203.77L432.67,201.4L432.82,201.98L432.89,200.16L433.19,201.42L433.27,202.67L433.49,202.77L433.57,193.89L433.72,193.74L433.8,192.52L434.1,204.46L434.55,200.59L434.62,201.79L434.7,200.6L435.23,203.23L435.3,203L435.45,194.77L435.98,204.25L436.06,204.24L436.21,203.83L436.28,200.96L437.04,203.33L437.11,203.25L437.19,195.31L437.41,192.67L437.56,198.93L437.64,201.71L437.87,204.48L438.09,201.23L438.39,202.61L438.47,202.83L438.62,202.61L438.69,203.9L438.92,203.66L439,203.66L439.22,195.38L439.67,205.57L439.75,205.75L440.2,203.47L440.5,204.44L440.58,204.49L440.88,203.59L440.95,204.68L441.03,204.4L441.33,205.75L441.41,205.77L441.48,205.78L441.63,205.86L441.71,205.25L441.78,205.17L441.86,205.11L442.24,205.06L442.31,205.71L442.39,205.67L443.06,205.02L443.14,205.76L443.44,205.86L443.52,204.64L443.74,204.5L444.42,205.75L444.5,205.11L444.65,205L444.87,205.36L444.95,205.99L445.25,206.07L445.32,204.13L445.4,203.94L445.63,204.76L445.78,204.81L445.85,204.81L446.61,205.48L446.68,205.44L446.76,206L447.06,205.76L447.13,203.74L447.36,203.66L448.04,205.16L448.11,204.41L448.64,205.86L448.87,205.6L448.94,203.44L449.17,203.27L449.77,204.96L449.85,200.2L449.92,199.42L450.15,204.9L450.22,204.83L450.6,205.56L450.67,205.47L450.75,203.3L451.65,204.89L451.73,204.07L452.03,204.84L452.11,205.54L452.48,205.49L452.56,204.17L453.09,204.16L453.16,204.98L453.39,204.99L453.46,204.2L454.29,205.77L454.37,205.08L454.44,205.02L454.89,204.87L454.97,205.55L455.05,205.54L455.35,204.89L455.5,205.78L455.72,205.17L455.8,205.82L456.1,205.65L456.18,204.45L456.4,204.25L457.08,205.48L457.15,204.78L457.53,204.89L457.61,205.58L457.91,205.54L457.98,203.44L458.21,203.36L458.89,204.99L458.96,204.3L459.19,204.94L459.26,205.24L459.57,205.86L459.72,205.58L459.79,203.48L460.62,205.01L460.7,200.29L460.92,200.33L461,202.17L461.3,205.64L461.75,204.31L461.83,203.54L462.2,205.09L462.35,204.99L462.43,198.74L462.58,197.09L462.96,202.33L463.03,203.66L463.26,203.65L463.33,202.21L463.48,194.71L464.01,205.08L464.09,199.7L464.16,199.01L464.31,197.51L464.69,201.04L464.77,202.38L465.07,205.69L465.52,204.35L465.59,204.35L465.74,204.38L465.82,205.19L466.05,199.19L466.5,205.53L466.57,206.1L466.95,206.16L467.1,205.53L467.18,205.48L467.85,199.85L468.01,200.19L468.08,200.88L468.61,203.85L468.76,202.14L468.83,199.92L468.91,198.73L468.99,205.25L469.21,205.22L469.29,205.22L469.51,205.84L469.59,200.89L469.81,198.83L470.12,201.51L470.19,205.23L470.42,205.89L470.57,202.38L470.64,197.4L470.72,195.77L471.02,199.8L471.17,199.79L471.25,200.59L471.47,198.38L471.55,205.17L471.62,204.41L471.7,204.49L472.3,206.25L472.38,206.17L472.45,204.21L472.68,203.93L473.05,205.57L473.13,205.46L473.2,201.48L473.51,200.16L473.73,203.04L473.81,204.11L473.96,205.18L474.18,203.58L474.26,199.38L474.33,198.1L474.71,201.3L474.94,200.26L475.01,200.34L475.84,206.24L475.92,206.22L476.14,203.7L476.52,204.55L476.6,204.56L477.5,206.23L477.58,206.23L477.8,206.05L477.88,204.65L478.1,198.84L478.48,205.36L478.78,199.4L478.86,199.51L479.53,205.85L479.61,203.99L479.68,203.26L479.99,198.29L480.21,204.99L480.29,205.65L480.44,205.62L480.51,200.29L480.59,199.64L481.04,201.86L481.12,203.23L481.27,203.27L481.34,202.64L481.42,201.37L481.49,198.6L481.95,205.5L482.02,205.49L482.1,205.87L482.47,199.42L482.85,205.25L482.92,205.93L483.23,205.86L483.3,203.8L484.21,205.36L484.28,204.65L484.58,205.66L484.66,204.6L484.88,206.23L485.11,199.66L485.34,203.83L485.41,204.58L485.79,205.3L485.86,200.89L486.09,199.4L486.17,204.65L486.24,204.73L486.77,206.25L486.92,204.15L486.99,204.03L487.14,203.95L487.52,205.46L487.67,205.43L487.75,200.54L487.9,199.84L488.05,201.47L488.12,205.6L488.35,205.96L488.95,203.64L489.25,204.56L489.33,205.36L489.63,204.99L489.71,204.33L490.38,205.85L490.46,205.79L490.54,204.43L490.61,204.08L491.06,204.54L491.14,205.28L491.29,205.28L491.36,200.17L491.59,200.3L491.67,201.78L492.65,205.33L492.72,205.33L493.02,205.94L493.1,201.72L493.25,200.43L493.62,202.52L493.7,202.4L493.78,203.57L494.23,197.48L494.3,204.59L494.6,204.71L495.06,197.98L495.43,200.24L495.51,202.09L495.66,205.19L496.04,195.1L496.26,203.61L496.34,203.58L496.56,204.38L496.64,204.01L496.71,197.42L496.86,194.95L497.24,200.36L497.32,201.64L497.54,202.84L497.69,200.47L497.77,194.84L497.84,189.91L498.22,203.82L498.45,198.95L498.52,196.43L498.67,194.11L499.05,199L499.13,200.25L499.28,201.54L499.5,199.86L499.58,194.55L499.65,193.67L499.73,203.47L500.18,204.52L500.33,197.85L500.41,195.52L500.56,194.83L500.71,196.81L500.78,199.71L501.16,202.71L501.31,201.14L501.39,195.27L501.46,192.96L501.84,203.53L502.06,197.46L502.14,196.54L502.29,193.58L502.74,199.64L502.82,201.07L503.04,201.76L503.19,198.49L503.27,197.24L503.5,192.82L503.72,203.77L503.8,204.48L504.17,195.72L504.55,200.8L504.63,201.91L504.93,200.98L505,200.25L506.06,194.44L506.13,196.46L506.66,198.48L506.74,197.14L506.81,193.89L506.89,191.88L507.26,198.29L507.41,197.61L507.49,196.71L507.72,189.08L508.17,195.27L508.24,197.44L508.47,196.07L508.54,178.66L508.7,146.9L509.22,175.78L509.3,175.78L509.52,163.3L509.83,190.72L509.9,185.1L509.98,188.36L510.13,190.87L510.35,175.51L510.43,162.76L510.5,152.21L511.03,182.68L511.11,180.54L512.01,205.16L512.16,204.6L512.24,193.74L512.69,203.95L512.91,197.03L512.99,193.32L513.14,191.88L513.29,194.64L513.37,195.77L513.67,201.13L513.97,195.34L514.04,187.23L514.35,201.15L514.95,180.1L515.02,179.92L515.63,192.74L515.85,185.39L515.93,182.7L516.08,176.15L516.31,189.45L516.38,193.57L516.46,193.41L516.53,188.44L516.68,184.73L516.98,196.02L517.06,198.62L517.51,201.26L517.66,199.64L517.74,196.49L518.26,198.43L518.57,190.18L518.64,193.72L518.72,193.85L518.79,195.61L519.24,200.3L519.39,198.82L519.47,190.62L519.92,199.86L520.37,180.47L520.45,180.73L520.53,180.51L520.6,181.5L520.68,183.11L520.9,187.88L521.05,186.5L521.13,183.76L521.35,156.82L521.81,177.27L521.88,177.34L522.11,168.25L522.41,174.24L522.48,179.36L522.56,179.14L522.64,182.98L522.79,188.04L523.09,169.55L523.16,163.37L523.69,184.76L523.99,176.53L524.07,175.62L524.67,189.63L524.82,183.82L524.9,167.59L524.97,160.26L525.5,181.25L525.57,178.35L525.72,169.51L526.18,187.07L526.25,193.69L526.33,196.52L526.63,187.14L526.7,177.31L526.78,168.72L527.38,181.12L527.46,178.18L527.61,175.5L528.06,183.64L528.14,185.05L528.29,189.31L528.59,178.67L528.66,175.76L528.89,170.03L529.12,176.11L529.42,172.8L529.49,173.29L530.02,184.87L530.32,178L530.4,174.42L530.77,176.81L531.15,162.46L531.23,164.69L531.3,168.47L531.83,192.4L532.05,181.41L532.13,169.75L532.2,163.13L532.58,182.14L532.81,175.78L532.88,170.73L532.96,167.63L533.33,175.92L533.41,174.06L533.49,179.06L533.64,182.51L533.86,177.74L533.94,117.61L534.01,95.79L534.47,166.15L534.54,160.27L534.62,159.95L534.77,139.37L535.29,179.27L535.37,183.02L535.52,183.44L535.6,183.25L535.67,179.15L535.82,158.73L536.42,172.61L536.5,170.23L536.57,166.33L537.03,176.36L537.1,179.85L537.18,183.32L537.48,176.82L537.55,164.06L537.63,152.54L538.08,169.12L538.23,166.25L538.31,164.23L538.38,160.2L538.84,169.91L538.91,174.42L538.99,177.89L539.29,172.09L539.36,157.71L539.44,150.81L539.89,164.98L540.04,163.52L540.12,157.9L540.19,154.9L540.64,167.29L540.72,171.37L540.95,175.26L541.1,173.76L541.17,154.64L542,119.79L542.08,127.75L542.68,176.94L542.9,174.24L542.98,168.46L543.81,117.41L543.88,143.59L543.96,156.88L544.56,188.64L544.86,170.51L544.94,174.47L545.32,175.17L545.69,157.35L545.92,165.37L545.99,170.47L546.37,192.24L546.52,175.12L546.6,157.34L547.05,157.44L547.43,131.34L547.5,135.24L548.25,173L548.33,166.75L548.41,146.33L548.93,148.77L549.23,109.23L549.31,104.14L549.99,174.35L550.14,167L550.21,151.45L550.29,136.16L550.67,164.7L550.89,158.76L550.97,155.21L551.04,149.4L551.49,170.43L551.57,176.1L551.87,189.83L551.95,175.62L552.02,157.5L552.1,142.24L552.7,162.98L552.78,158.49L552.85,155.27L553.23,167.66L553.3,170.71L553.6,195.86L553.91,169.62L553.98,163.04L554.13,155.51L554.51,166.69L554.73,162.09L554.81,164.49L555.56,194.33L555.71,187.58L555.79,180.8L556.47,171.14L556.62,172.58L556.69,175.9L557.3,187.86L557.45,177.54L557.52,167.21L557.9,177.77L558.2,169.11L558.28,162.59L558.95,186.22L559.18,179.99L559.26,166.31L559.63,172.77L560.16,128.72L560.24,150.89L560.84,179.35L560.99,170.97L561.06,152.81L561.14,123.39L561.52,163.25L561.82,147.65L561.89,131.27L561.97,125.86L562.19,159.62L562.27,165.04L562.65,178.07L562.8,171.33L562.87,157.35L562.95,142.68L563.4,163.62L563.55,161.86L563.63,156.21L563.7,152.83L564.08,169.09L564.15,170.75L564.3,177.28L564.61,168.66L564.68,150.87L564.76,137.68L565.13,158.98L565.36,158.07L565.43,154.65L565.51,148.44L565.96,167.13L566.04,173.41L566.26,184.08L566.56,164.73L566.64,159.01L567.39,148.73L567.47,151.74L567.54,155.13L568.15,172.99L568.37,164.6L568.45,155.78L569.2,127.54L569.28,145.59L569.35,148.84L569.88,170.51L570.11,151.26L570.18,142.02L570.56,157.39L570.86,141.47L570.94,125.07L571.76,167.7L571.84,161.98L571.91,144.13L572.14,126.42L572.59,152.85L572.67,151.27L572.74,143.52L573.2,167.65L573.27,172.73L573.5,176.25L573.65,172.56L573.72,156.7L574.55,137.81L574.63,138.83L575.31,167.73L575.46,159.28L575.53,133.01L575.61,102.65L575.98,140.45L576.28,124.38L576.36,115.56L576.44,111.01L576.66,135.25L576.74,144.66L577.11,162.44L577.26,152.44L577.34,129.6L578.17,83.43L578.24,105.27L578.85,157.03L579.15,139.68L579.22,127.58L580.05,97.38L580.13,102.48L580.81,155.59L581.03,139.32L581.11,129.8L581.86,114.75L581.94,125.56L582.61,174.36L582.92,158.42L582.99,154.01L583.52,141.99L583.59,128.71L583.67,123.56L583.97,143.11L584.05,149.11L584.27,166.14L584.57,127.98L584.65,100.64L585.03,138.46L585.4,113.03L585.48,116.52L586.16,163.41L586.31,152.43L586.38,124.23L586.46,102.35L586.76,126.08L587.14,118.32L587.21,109.77L587.66,148.8L587.74,153.86L588.04,161.32L588.19,136.22L588.27,128L588.87,165.4L589.09,154.47L589.17,154.72L589.25,154.58L589.32,156.91L589.85,190.92L590,159.7L590.07,147.64L590.45,167.14L590.83,156.3L590.9,158.51L591.66,185.06L591.73,178.23L591.81,170.11L592.11,144.42L592.71,146.72L592.79,148.99L592.94,154.96L593.01,162.32L593.47,171.67L593.62,164.73L593.69,158.16L594.52,116.91L594.67,126.33L594.75,135.32L595.27,156.53L595.35,151.28L595.42,135.41L595.88,138.62L596.33,104.26L596.4,104.11L597.08,160.02L597.23,121.92L597.31,94.13L597.91,126.73L598.06,112.16L598.14,113.18L598.81,159.26L598.97,146.92L599.04,124.55L599.87,61.98L599.95,70.37L600.7,152.83L600.85,123.74L600.92,92.45L601.3,122.92L601.6,87.91L601.68,51.24L602.36,157.27L602.66,122.59L602.73,80.21L602.81,81L602.88,67.38L603.34,102.24L603.49,45.94L603.56,56.04L604.24,151.4L604.47,132.7L604.54,110.13L605.3,28.62L605.37,45.69L605.45,70.32L606.05,140.14L606.35,126.77L606.43,108.97L607.18,72.79L607.25,87.72L607.33,98.11L607.78,134.66L608.08,118.35L608.16,101.45L608.23,119.81L608.84,94.45L608.91,83.37L608.99,82.99L609.06,84.6L609.14,98.13L609.67,135.23L609.82,123.67L609.89,95.61L610.65,-8.6L610.72,17.9L610.8,68.39L611.47,133.2L611.62,124.05L611.7,92.47L611.85,-66.08L612.45,17.95L612.53,44.11L613.36,136.71L613.51,102.65L613.58,64.03L613.73,60.15L614.19,98.9L614.26,77.32L614.34,63.05L615.09,145.38L615.32,109.85L615.39,81.55L616.3,120.92L616.37,122.82L616.9,157.33L617.2,135.61L617.28,122.47L617.43,106.76L617.73,127.08L618.03,118.19L618.1,128.36L618.78,166.98L619.01,157.32L619.08,151.75L619.31,135.78L619.84,149.63L619.91,151.24L620.59,183.79L620.74,164.77L620.82,156.49L621.27,162.07L621.5,151.71L621.57,147L621.65,145.56L621.87,153.01L621.95,154.99L622.32,178.85L622.48,171.92L622.55,148.61L623.38,125.52L623.45,123.04L624.13,164.3L624.28,157.84L624.36,134.38L624.43,113.91L625.04,135.37L625.11,130.57L625.19,128.17L626.02,164.48L626.09,157.18L626.17,140.77L626.24,114.18L626.92,127.65L627,118.98L627.67,158.35L627.9,149.6L627.98,125.21L628.05,95.86L628.73,111.99L628.8,106.03L628.96,114.43L629.03,121.47L629.63,160.71L629.86,137.01L629.93,120.76L630.01,111.31L630.39,139.68L630.54,134.76L630.61,131.55L631.52,172.82L631.74,158.77L631.82,153.26L631.89,150.62L632.27,164.35L632.35,164.18L632.42,160.15L632.87,174.29L632.95,177.43L633.25,187.19L633.48,165.59L633.55,173.56L633.63,170L633.93,178.1L634,175.63L634.08,171.06L634.38,162.34L634.68,171.51L634.76,175.1L634.98,179.13L635.13,172.19L635.21,157.11L635.28,146.9L635.74,161.88L635.89,160.89L635.96,159.1L636.04,155.27L636.42,169.62L636.49,171.64L636.79,180.3L637.02,159.97L637.09,149.93L637.62,161.57L637.85,152.04L637.92,151.83L638.68,184.16L638.75,177.28L638.83,160.89L639.35,161.84L639.66,143.92L639.73,143.32L640.48,179.37L640.63,163.71L640.71,147.94L641.31,162.77L641.46,155.72L641.54,155.79L641.77,160.08L641.84,168.02L642.22,193.76L642.52,168.62L642.59,163.16L643.35,150.76L643.42,155.03L643.5,157.72L644.03,193.51L644.33,178.02L644.4,167.56L645.08,144L645.31,151.21L645.38,156.54L645.98,172.79L646.06,165.03L646.14,150.7L647.11,169.88L647.19,171.05L647.79,184.9L647.94,175.65L648.02,166.44L648.09,155.04L648.77,160L648.85,161.96L648.92,158.46L649.22,168.42L649.3,178L649.9,143.13L650.28,147.92L650.36,149.3L650.73,147.65L650.81,149.7L651.33,162.59L651.41,156.7L651.49,139.55L651.56,126.78L651.86,145.2L652.24,135.91L652.31,134.28L652.62,151.96L652.69,157.59L653.07,181.42L653.37,154.14L653.44,162.56L653.52,154.83L653.67,156.71L654.12,146.36L654.35,149.33L654.42,154.32L655.03,178.29L655.18,167.18L655.25,158.04L655.93,143.93L656.08,146.56L656.16,147.82L656.84,169.63L656.99,161.74L657.06,157.24L657.21,148.11L657.51,159L657.81,148.19L657.89,152.89L658.57,180.96L658.72,169.34L658.79,161.44L658.87,165.93L659.4,160.58L659.47,156.82L659.55,153.26L660,162.72" style="fill: rgb(54, 112, 97); fill-opacity: 0.5; stroke-width: 0;"/></g></g><g class="errorbars"/><g class="lines"><path class="js-line" d="M0,155.41L0.53,175.04L0.68,151.99L0.75,146.13L0.83,141.26L1.13,149.65L1.43,146.9L1.51,147.15L1.58,147.49L1.66,154L1.73,154.31L1.81,149.95L2.03,155.86L2.26,130.47L2.34,106.89L2.79,126.63L3.01,112.9L3.09,102.21L3.16,99.7L3.32,111.19L3.39,120.14L3.77,146.31L3.99,133.83L4.07,111.27L4.14,77.03L4.82,93.53L4.9,83.94L5.12,96.94L5.2,113.34L5.65,165.38L5.95,117.03L6.03,128.75L6.56,132.21L6.71,119.27L6.78,122.62L6.86,123.97L7.23,154.44L7.31,158.55L7.46,163.48L7.61,154.44L7.69,132.84L8.51,90.27L8.59,90.41L8.67,99.31L9.34,163.7L9.64,132.67L9.72,121.98L9.87,121.06L9.95,125.65L10.02,129.44L10.1,129.94L10.17,125.67L10.25,122.15L10.32,107.7L10.85,148.82L10.93,158.6L11.15,167.06L11.3,159.63L11.38,149.79L11.6,132.34L11.98,150.37L12.13,147.02L12.21,146.46L12.58,183.37L12.66,191.34L12.89,200.25L13.26,178.98L13.34,163.58L13.49,162.12L13.56,162.62L13.64,165.93L14.02,152.32L14.32,163.55L14.39,172.08L14.69,189.41L14.92,150.98L14.99,134.93L15.15,133.65L15.45,150.26L15.67,138.7L15.75,125.16L16.35,173.66L16.65,162.75L16.73,136.17L16.8,115.45L17.26,139.09L17.41,138.38L17.48,136.28L17.56,128.85L17.86,154.19L17.93,164.3L18.31,194.69L18.54,165.73L18.61,141.12L19.06,157.58L19.37,143.51L19.44,143.31L19.89,179.88L19.97,200.29L20.27,184.86L20.34,158.24L20.42,139.65L20.87,161.11L21.1,155.49L21.17,145.82L21.25,144.03L21.4,151.45L21.48,158.15L21.85,196.5L22.23,165.43L22.3,153.83L22.45,146.28L22.76,160.97L23.06,150.11L23.13,152.98L23.74,177.08L23.81,188.7L23.96,184.7L24.04,169.48L24.34,142.35L24.94,148.99L25.02,150.41L25.62,198.48L25.92,192.04L26,176.05L26.67,148.48L26.82,149.78L26.9,152.4L27.28,168.82L27.5,153.06L27.58,130.52L27.65,107.67L28.11,136.92L28.33,126.34L28.41,115.8L28.48,114.23L28.56,120.51L28.63,129.19L29.09,168.22L29.31,158.15L29.39,135.73L29.46,121.77L29.84,146.82L30.14,130.53L30.22,123.6L30.74,157.2L30.82,162.79L30.89,162.42L31.04,163.4L31.12,156.16L31.27,111.71L31.87,141.27L31.95,133.77L32.02,124.78L32.48,152.42L32.55,160.25L32.85,165.86L32.93,157.98L33,136.9L33.08,109.05L33.76,114.6L33.83,110.14L34.51,151.93L34.81,137.6L34.89,130.78L35.11,77.98L35.64,109.8L35.72,105.15L36.47,140.4L36.62,135.2L36.7,121.78L37.52,76.51L37.6,98.84L38.05,133.53L38.35,126.32L38.43,106.44L39.11,109.7L39.26,75.52L39.33,69.37L40.09,136.93L40.16,129.59L40.24,104.44L40.31,41.84L40.99,83.7L41.07,61.96L41.14,62.67L41.22,99.05L41.82,152.87L42.05,123.77L42.12,110.03L42.27,73.75L42.57,114.06L42.87,81.7L42.95,126.28L43.7,166.97L43.78,160.58L43.85,140.55L43.93,109.89L44.53,155.65L44.61,148.8L44.76,137.37L45.21,162.24L45.29,167.83L45.44,168.75L45.51,167.9L45.59,161.68L45.74,126.32L46.42,138.12L46.49,131.5L46.57,131.29L46.64,133.52L47.17,160.78L47.4,155.6L47.47,139.4L47.77,85.77L48.3,88.28L48.38,121.79L49.05,157.11L49.35,145.86L49.43,137.18L49.58,124.89L49.96,144.77L50.18,135.96L50.26,138.99L50.64,157.93L50.71,161.2L50.94,164.62L51.01,159.79L51.09,146.64L51.16,136.97L51.69,161.74L51.77,163.94L51.92,156.98L52.37,173.09L52.44,178.69L52.67,190.52L52.82,177.86L52.9,155.34L52.97,146.04L53.5,169.98L53.57,167.84L53.88,154.5L54.25,169.3L54.33,173.2L54.48,172.79L54.55,170.3L54.78,131L55.16,155.68L55.23,156.17L55.53,145.13L55.84,154.46L55.91,160.76L56.36,170.72L56.44,163.53L56.51,142.89L56.59,124.26L57.04,150.14L57.19,147.74L57.27,143.38L57.34,132.56L57.87,157.98L57.94,162.14L58.02,163.47L58.17,158.09L58.25,151.36L59.15,92.16L59.23,89.47L59.45,115.78L59.53,130.27L59.9,160.06L60.28,135.12L60.36,127.96L60.73,139.29L60.96,127.75L61.03,127.14L61.56,151.25L61.94,139.35L62.01,129.73L62.16,87.93L62.69,121.35L62.77,114.75L62.84,112.57L62.99,127.6L63.07,134.8L63.6,158.06L63.75,138.23L63.82,129.47L64.27,149.77L64.5,139.86L64.58,129.64L64.65,126.67L64.95,139.86L65.03,142.57L65.33,153.82L65.48,142.61L65.56,99.2L65.63,65.45L66.16,130.42L66.23,125.88L66.31,103.81L66.38,91.4L66.84,141.73L66.91,149.7L67.21,153.83L67.29,146.01L67.36,125.85L67.44,115.61L67.82,139.95L67.97,138.83L68.04,141.67L68.27,130.19L68.64,143.67L68.72,153.92L68.87,159.83L69.1,149.47L69.17,132.87L69.25,117.25L69.78,146.45L69.85,149.18L70,141.21L70.3,152.08L70.38,159.02L70.83,175.86L70.91,170.29L70.98,154.74L71.06,142.51L71.66,164.97L71.73,160.23L71.96,154.17L72.19,163.71L72.26,166.03L72.41,173.7L72.79,161.16L72.86,153.1L73.09,135.74L73.54,154.91L73.62,150.27L73.69,150.97L73.92,158.33L73.99,165.83L74.52,176.82L74.67,168.06L74.75,161.67L75.2,162.87L75.5,143.23L75.58,147.09L75.65,153.29L76.1,168.29L76.33,161.01L76.41,146.94L76.48,134.82L77.01,160.33L77.08,159.58L77.16,151.23L77.31,145.25L77.69,160.62L77.76,165.7L77.91,171.38L78.21,146.61L78.29,135.45L78.82,166.9L79.04,147.7L79.12,147.76L79.19,145.57L79.5,158.93L79.57,164.24L79.72,167.38L79.95,158.38L80.02,137.94L80.1,80.04L80.7,144.8L80.78,128.21L80.85,105.62L80.93,96.6L81.15,143.21L81.23,151.91L81.3,150.34L81.38,158.78L81.45,164.31L81.61,164.53L81.68,164.46L81.76,157.09L81.98,109.49L82.51,146.65L82.58,141.29L82.74,137.93L82.96,150.19L83.04,155.32L83.26,168.55L83.56,161.78L83.64,140.21L83.87,122.58L84.17,153.68L84.24,151.77L84.32,152.06L84.62,140.16L84.92,158.48L85,160.68L85.3,174.29L85.6,156.62L85.67,148.47L85.75,146.98L85.9,153.37L85.98,157.78L86.35,153.52L87.03,182.75L87.18,178.33L87.26,172.17L87.56,144.9L88.16,149.63L88.24,149.67L88.84,168.56L88.99,160.52L89.06,147.95L89.14,131.39L89.67,160.49L89.74,159.63L89.82,152.76L89.97,141.22L90.42,165.28L90.5,173.82L90.72,187.68L90.95,145.19L91.1,160.47L91.17,165.6L91.55,174.95L91.7,157.99L91.78,153.68L91.93,154.5L92,157.93L92.31,187.1L92.61,172.53L92.68,158.68L93.59,123.91L93.66,132.65L94.26,164.88L94.49,140.43L94.57,128.3L95.17,149.41L95.32,138.12L95.39,138.59L96.15,163.39L96.22,158.1L96.3,140.92L96.37,129.73L96.9,153.83L96.98,153.73L97.2,137.46L97.65,159.89L97.73,165.06L97.88,168.36L98.18,153.72L98.26,147.92L98.41,137.76L98.79,151.89L99.01,143.65L99.09,146.97L99.69,168.82L99.99,161.57L100.07,152.98L100.22,147.37L100.52,161.64L100.82,147.55L100.9,147.56L101.42,165.84L101.65,157.84L101.72,145.29L101.8,134.27L102.25,164.3L102.33,165.55L102.7,138.06L102.85,147.32L102.93,151.78L103.23,164.3L103.46,154.92L103.53,135.72L103.68,114.13L104.14,161.22L104.21,161.1L104.51,140.33L104.89,159.08L104.96,162.38L105.04,165.06L105.27,156.01L105.34,140.39L105.42,125.79L105.94,159.51L106.02,159.51L106.25,139.9L106.7,158.66L106.77,166.65L106.85,166.78L106.92,164.27L107,164.09L107.07,157.9L107.22,110.07L107.68,159.96L107.75,159.63L107.83,161.56L107.9,155.78L107.98,146.84L108.13,142.13L108.43,153.79L108.51,159.97L108.66,165.63L108.96,140.83L109.03,122.97L109.64,158L109.79,144.56L109.86,139.34L110.39,160.51L110.77,153.91L110.84,146.92L111.07,128.43L111.37,159.16L111.44,157.56L111.52,155.17L111.59,149.57L112.12,161.38L112.2,166.74L112.35,166.52L112.42,168.58L113.55,137.09L113.63,140.44L113.7,146.21L114.01,159.14L114.31,149.51L114.38,136.43L114.46,121.26L114.91,153.51L114.99,152.83L115.06,151.28L115.36,107.6L115.66,140.32L115.74,143.11L115.89,154.07L116.19,119.39L116.27,73.93L116.87,142.42L117.1,107.04L117.17,96.82L117.7,156.08L118,131.77L118.08,114.49L118.68,145.57L118.83,124.35L118.9,104.92L119.58,146.94L119.73,133.31L119.81,103.3L119.88,68.26L120.49,128.35L120.56,120.37L120.79,93.08L121.09,135.58L121.16,141.44L121.39,148.77L121.54,139.59L121.62,112.78L121.69,83.78L122.29,139.19L122.37,132.93L122.6,103.55L122.97,141.54L123.05,147.45L123.2,148.32L123.35,142.94L123.43,133.24L123.73,104.9L124.25,114.64L124.33,109.34L125.01,152.38L125.23,140.73L125.31,132.59L125.38,124.37L125.84,148.68L125.91,148.13L125.99,141.56L126.21,127.23L126.59,148.19L126.67,152.32L126.89,153.75L126.97,149.17L127.04,138.01L127.12,127.03L127.64,156.38L127.72,157.76L127.95,132.92L128.32,154.2L128.4,161.52L128.62,173.12L128.85,145.97L128.93,135.79L129.53,155.08L129.68,147.08L129.75,144.64L129.83,143.18L129.98,151.72L130.06,156.18L130.51,167.25L130.58,163L130.66,145.28L130.73,129.07L131.34,159.56L131.41,151.11L131.71,136.07L132.09,156.41L132.17,154.21L132.24,154.04L132.32,151.42L132.54,95.54L132.77,140.68L132.84,148.03L132.99,157.31L133.37,134.02L133.45,134.89L133.52,133.82L133.67,140.62L133.75,143.01L133.97,156.99L134.28,130.35L134.35,95.84L134.8,158.01L135.18,139.45L135.26,140.2L135.86,169.68L136.08,160.26L136.16,154.04L136.99,139.91L137.06,143.69L137.52,165.68L137.59,168.44L137.67,169.02L137.82,167.54L137.89,162.6L138.19,147.75L138.42,163.28L138.5,165.88L138.72,151.64L138.8,146.24L139.55,170.26L139.63,165.5L139.7,153.86L139.78,144.51L140.23,162.42L140.38,160.84L140.45,155.19L140.61,149.45L141.06,164.01L141.13,169.26L141.28,169.53L141.36,169.46L141.43,163.81L141.58,137.8L142.11,163.77L142.19,163.23L142.49,140.57L142.79,155.89L142.87,161.36L143.09,166.76L143.32,144.26L143.39,133.16L144,155.26L144.15,144.46L144.22,141.93L144.6,159.63L144.67,165.94L144.98,174.91L145.13,152.35L145.2,140.69L145.8,168.15L146.03,155.41L146.11,152.57L146.26,155.2L146.33,161.51L146.78,189L146.86,175.76L146.93,157.9L147.01,146.51L147.54,169.89L147.61,168.43L147.91,152.83L148.22,167.12L148.29,171.85L148.59,183.13L148.89,162.54L148.97,159.04L149.42,165.49L149.72,155.05L149.8,155.18L149.87,162.04L150.4,198.88L150.63,177.79L150.7,167.06L150.93,154.6L151.53,157.18L151.61,158.41L152.21,171.69L152.28,168.7L152.36,155.5L152.44,143.3L152.96,164.88L153.04,162.31L153.11,155.64L153.34,139.16L153.79,160.07L153.87,161.42L154.09,147.92L154.17,122.06L154.24,121.53L154.32,141.25L154.39,141.6L154.47,149.89L154.85,161.02L155,143.44L155.07,139.6L155.15,135.59L155.45,150.72L155.52,156.76L155.6,160.03L155.83,153.36L155.9,138.83L156.05,90.61L156.43,151.28L156.58,150.64L156.65,151.69L156.88,107.84L157.11,138.94L157.18,149.92L157.41,161.83L157.63,159.9L157.71,151.49L157.86,102.3L158.39,149.81L158.46,151.57L158.69,113.73L159.07,154.76L159.14,161.15L159.37,165.03L159.52,156.86L159.59,126.79L159.67,106.48L160.05,154.14L160.2,153.81L160.27,155.88L160.57,132.36L160.87,153.2L160.95,161.85L161.1,167.06L161.4,151.79L161.48,140.45L161.63,129.51L162,154.92L162.08,153.64L162.16,149.81L162.31,140.18L162.76,164.24L162.83,166.63L162.91,168.74L163.29,161.5L163.36,154.47L163.81,160.89L164.11,147.74L164.19,149.57L164.27,149.93L164.72,167.16L165.02,150.52L165.09,145.7L165.7,167.57L165.85,153.74L165.92,142.92L166.07,139.24L166.15,145.93L166.22,150.05L166.3,150.29L166.38,155.81L166.6,162.4L166.75,147.74L166.83,116.5L166.9,99.87L167.35,165.14L167.43,162.82L167.66,144.37L167.73,126.39L167.81,121.77L168.03,148.67L168.11,149.51L168.33,162.61L168.56,153.63L168.64,111.27L168.71,100.14L169.01,158.63L169.09,161.62L169.16,164.56L169.39,155.32L169.46,145.44L169.62,136.03L169.99,159.55L170.07,164.95L170.22,164.8L170.29,160.91L170.52,112.93L170.59,146.65L170.67,149.67L171.05,163.06L171.35,146.18L171.42,149.05L171.5,148.71L171.57,151.48L171.65,156.64L171.73,154.34L172.03,166.55L172.1,165.52L172.33,127.5L172.7,151.24L172.78,150.85L173.16,135.84L173.46,149.15L173.53,152.57L173.68,162.78L174.14,149.54L174.21,145.48L174.36,138.89L174.66,157.47L175.04,138.98L175.12,141.53L175.79,164.47L175.94,158.73L176.02,153.11L176.17,147.65L176.4,164.78L176.47,169.82L176.7,156.64L176.77,150.85L176.92,150.63L177,156.12L177.45,173.2L177.6,167.85L177.68,156.98L177.75,148.42L178.21,183.85L178.28,183.54L178.66,154.28L179.03,177.13L179.11,180.39L179.26,182.25L179.41,176.14L179.49,164.11L179.56,157.67L179.86,191.2L179.94,193.16L180.01,195.68L180.24,185.99L180.32,168.24L180.39,165.47L180.69,183.04L180.77,195.89L180.99,199.38L181.14,185.86L181.22,172.48L181.37,141.5L181.97,169.95L182.05,164.71L182.35,147.38L182.65,175.68L182.73,182.09L182.95,182.62L183.03,177.42L183.33,161.62L183.78,173.55L183.86,171.93L184.08,160.31L184.46,180.04L184.53,185.75L184.69,187.33L184.84,182.64L184.91,174.73L185.14,166.29L185.51,177L185.74,167.7L185.82,167.19L185.89,166.57L186.04,169.41L186.12,173.47L186.34,176.95L186.72,169.29L186.8,166.4L187.62,144.88L187.7,147.61L187.77,147.55L188.38,174.73L188.68,162.65L188.75,154.24L189.73,168.53L189.81,168.84L190.11,177.47L190.41,168.53L190.49,165.78L190.71,161.85L190.94,174.31L191.01,175.81L191.39,163.07L191.77,171.83L191.84,172.08L191.99,170.87L192.07,164.59L192.15,127.42L192.75,195.2L192.82,195.07L193.12,159.44L193.58,180.32L193.65,180.28L193.88,176.21L193.95,151.43L194.03,139.64L194.41,193.44L194.48,193.95L194.56,196.41L194.71,195.33L194.78,171.55L194.93,165.23L195.31,178.42L195.39,182.92L195.84,150.99L195.91,191.47L195.99,190.27L196.29,194.82L196.36,196.86L196.59,195.23L196.67,164.39L197.27,186.08L197.5,181.72L197.57,166.35L198.17,195.93L198.4,194.55L198.47,170.28L198.55,166.4L198.93,181.25L199,183.81L199.45,177.57L199.53,191.26L199.6,192.63L199.98,197.29L200.21,194.62L200.28,167.19L200.43,166.72L200.51,172.45L201.56,199.63L201.79,198.7L201.87,197.22L201.94,196.07L202.02,172.77L202.24,168.65L202.47,178.98L202.54,183.03L202.69,189.12L203,171.72L203.07,162.28L203.52,188.55L203.75,163.77L203.82,155.7L203.98,152.37L204.28,162.94L204.35,173.92L204.58,178.47L204.65,173.04L204.73,161.19L204.88,119.37L205.48,158.69L205.56,151.99L205.86,139.15L206.16,164.18L206.24,167.06L206.39,167.7L206.46,166.14L206.54,158.73L206.69,129.27L207.14,165.39L207.22,164.98L207.29,160.02L207.67,143.84L207.89,156.79L207.97,162.44L208.12,167.5L208.35,157.77L208.42,136.56L208.5,128.1L208.8,157.01L208.87,156.9L208.95,159.99L209.17,154.87L209.25,147.23L209.48,141.58L209.63,152.89L209.7,152.05L209.78,159.59L209.93,166.03L210.15,155.26L210.23,126.7L210.3,124.77L210.38,151.95L210.61,160.26L210.68,165.46L210.76,165.33L210.83,168.26L211.21,124.91L211.36,147.81L211.44,156.62L211.89,170.39L212.04,158.5L212.11,157.43L212.34,146.05L212.64,165.78L212.94,147.7L213.02,145.61L213.09,142.94L213.32,162.14L213.39,161.89L213.7,171.52L214,159.74L214.07,153.18L214.22,159.66L214.3,164.65L214.45,171.27L214.83,152.46L214.9,151.18L215.88,186.42L215.96,172.97L216.03,174.02L216.33,176.47L216.41,170.46L216.48,159.24L216.71,148.61L216.94,161.55L217.01,172.7L217.24,182.87L217.61,167.24L217.69,158.88L218.07,170.62L218.29,159.81L218.37,154.85L218.52,147.42L218.82,166.77L218.89,172.1L219.2,162.36L219.27,135.8L219.35,129.04L219.42,149.87L219.5,187.75L219.57,191.4L219.65,161.99L219.87,174.83L219.95,170.04L220.33,146.12L220.63,169.6L220.7,175.17L220.78,175.84L220.85,172.04L220.93,173.33L221,167.56L221.08,146.26L221.68,177.29L221.76,172.01L222.13,149.15L222.44,171.39L222.51,176.58L222.74,173.86L222.81,167.15L222.96,138.08L223.42,178.14L223.49,175.36L223.57,171.33L223.87,144.31L224.24,173.97L224.32,176.41L224.62,173.54L224.7,167.2L225,159.07L225.3,173.99L225.45,173.43L225.53,166.47L225.68,166.77L225.75,163.07L226.43,181.57L226.58,175.75L226.66,168.35L226.73,166.24L226.96,178.64L227.03,182.24L227.18,176.98L227.26,174.15L227.56,158.96L227.94,177.09L228.01,176.86L228.09,177.01L228.16,178.95L228.39,163.54L228.46,176.61L228.54,195.45L228.92,201.38L228.99,185.45L229.07,180.06L229.37,161.36L229.75,179.04L229.82,181.99L230.2,154.85L230.27,192.61L230.35,191L230.72,197.29L230.8,196.72L230.88,176.74L231.18,164.84L231.48,184.62L231.55,188.89L231.86,184.2L231.93,170.5L232.01,165.33L232.23,195.43L232.31,196.05L232.46,195.77L232.53,197.07L232.68,195.91L232.76,173.28L232.83,173.12L232.91,170.62L233.66,197.53L234.19,194.3L234.27,194.19L234.34,196.52L234.72,193.44L234.79,173.67L235.32,197.09L235.85,192.91L235.92,192.56L236.15,196.27L236.23,181.67L236.53,172.44L236.83,179.51L236.9,184.03L237.28,197.23L237.81,195.96L237.88,196.32L237.96,197.96L238.34,194.44L238.56,197.14L238.64,195.59L239.16,195.18L239.62,203.88L239.69,203.93L239.77,204.55L239.84,201.2L239.92,198.53L240.14,184.09L240.37,188.56L240.45,191.02L241.58,204.98L241.65,200.05L242.03,183.97L242.25,189.95L242.33,195.27L242.4,199.1L242.86,190.43L243.01,191.66L243.08,194.25L243.16,194.03L243.31,194.55L243.38,197.43L243.46,197.63L243.69,196.61L243.76,194.18L243.84,194.31L243.91,183.07L244.29,199.31L244.51,197.72L244.59,181.71L244.66,175.11L245.12,201.54L245.19,203.4L245.57,181L245.87,188.9L245.95,196.06L246.47,190.24L246.62,203.17L246.7,190.92L247,206.47L247.3,181.15L247.38,177.62L247.45,174.74L247.83,185.07L247.91,185.07L247.98,185.22L248.21,169.46L248.28,165.34L248.73,200.36L249.04,196.36L249.11,172.44L249.26,170.05L249.41,178.32L249.49,176.84L249.56,181.91L250.09,178.38L250.54,197.12L250.62,198.35L250.77,196.52L250.84,173.1L250.99,170.73L251.15,175.96L251.22,181.3L252.43,205.16L252.5,205.02L252.8,182.25L253.1,192.69L253.18,196.79L254.08,205.02L254.16,204.96L254.23,205.43L254.39,204.66L254.46,199.88L254.91,192.14L255.21,198.32L255.29,198.21L255.52,191.05L256.04,198.04L256.12,197.98L256.42,195.23L256.72,196.43L256.8,196.99L257.32,192.95L257.7,201.56L257.78,201.61L257.85,204.23L258.08,185.15L258.15,181.78L258.38,181.31L258.45,185.75L259.66,204.15L259.74,202.08L259.89,201.98L259.96,199.98L260.11,202.04L260.19,189.84L260.26,189.04L260.41,193.85L260.49,197.81L260.64,198.76L260.94,193.76L261.17,198.43L261.24,199.93L261.47,203.99L261.62,200.59L261.69,184.24L261.92,179.2L262.22,190.51L262.3,192.32L262.37,190.56L262.6,199.04L262.82,196.83L262.9,197.48L263.28,204.56L263.5,199L263.58,183.85L263.65,182.1L264.03,191.09L264.11,192.87L264.26,192.93L264.33,194.96L264.41,195.25L264.48,193.38L264.56,197.98L264.71,202.02L264.78,204.36L265.09,205.06L265.16,203.83L265.24,188.47L265.31,182.25L265.91,195.57L265.99,195.61L266.14,195.87L266.22,200.3L266.29,196.86L266.59,205.51L266.82,205.5L266.89,205.55L267.27,180.5L267.65,191.65L267.72,193.67L267.8,194.25L267.95,192.39L268.02,189.99L268.1,179.96L268.63,203.75L268.7,204.49L268.85,204.43L268.93,201.19L269.08,179.29L269.38,187.39L269.46,192.92L269.76,199.78L269.91,191.2L270.36,197.08L270.43,197.18L270.81,198.84L270.89,197.27L270.96,186.79L272.32,204.47L272.39,201.38L272.85,189.75L273.15,200.01L273.22,201.67L273.6,194.89L273.9,199.08L273.98,202.83L274.05,203.62L274.28,198.71L274.35,198.38L274.58,180.67L275.11,192.63L275.18,194.23L275.33,191.41L275.41,189.53L275.94,199.68L276.16,199.21L276.24,184.2L276.31,182.54L276.61,189.33L276.69,192.94L277.67,206.33L277.74,206.99L278.2,189.57L278.5,194.93L278.57,204.95L279.03,200.33L279.18,205.95L279.33,203.69L279.4,205.36L279.55,206.93L279.78,203.29L279.85,201.58L280.08,203.23L280.16,194.86L280.68,200.27L280.91,197.85L280.98,196.11L281.66,199.71L281.81,198.02L281.89,191.27L282.19,200.37L282.64,196.2L282.72,197.92L282.79,196.19L283.32,199.71L283.4,199.72L283.85,197.93L284.07,199.9L284.15,199.85L284.3,199.46L284.37,192.02L285.13,199.55L285.43,197.63L285.51,197.32L286.03,199.61L286.11,199.54L286.18,195.09L287.09,199.02L287.16,197.09L287.46,197.92L287.54,199.81L287.77,200.01L287.92,199.54L287.99,197.05L288.52,197.26L288.59,199.11L288.97,197.02L289.05,198.93L289.2,195.98L289.57,199.38L289.8,197.54L289.88,197.51L290.03,200.84L290.1,203.09L290.4,204.21L290.55,200.66L290.63,199.38L291.01,193.89L291.23,201.73L291.31,201.96L291.61,197.66L291.91,204.76L291.99,204.92L292.21,205.62L292.29,205.22L292.36,200.57L292.81,191.53L292.96,197.57L293.04,201.19L293.49,193.67L293.87,196.91L293.94,196.59L294.32,198.61L294.55,196.52L294.7,197.21L294.77,197.28L295,199.17L295.3,193.77L295.38,195.83L295.45,193.76L295.83,198.73L296.28,196.36L296.36,196.4L296.81,198.61L296.96,198.4L297.03,193.71L297.11,193.21L297.34,195.9L297.41,195.82L297.49,195.79L297.64,197.89L298.24,195.79L298.31,195.75L298.62,198.17L298.77,197.7L298.84,192.01L299.07,191.9L299.67,197.02L299.75,196.92L299.82,194.43L300.12,195.5L300.2,197.71L300.42,197.85L300.58,197.57L300.65,194.18L300.8,193.98L301.18,194.41L301.25,196.73L301.48,196.89L301.55,194.77L302.23,197.68L302.38,197.56L302.46,195.39L302.69,195.21L302.76,196.23L302.99,199.89L303.36,195.11L303.44,194.99L304.12,197.65L304.19,197.58L304.27,193.25L304.8,201.6L305.17,197.45L305.25,195.2L305.62,195.34L305.7,197.56L305.93,197.55L306,197.34L306.08,191.34L306.3,190.2L306.45,193.8L306.53,193.95L306.75,196.53L307.36,195.39L307.43,195.54L307.66,197.74L307.96,192.59L308.04,194.78L308.11,192.52L308.71,197.18L308.94,194.93L309.01,194.9L309.47,197.98L309.62,197.51L309.69,192.33L309.92,192.25L310.6,196.89L310.67,194.61L310.9,195.38L310.97,195.76L311.28,198.52L311.43,197.74L311.5,192.63L311.58,192.27L311.65,194.75L311.73,192.48L311.8,194.75L312.03,194.81L312.1,197.07L312.41,197.13L312.48,194.85L312.71,195.61L312.78,197.21L313.08,199.35L313.39,195.45L313.46,195.33L313.84,195.37L313.91,197.56L314.14,197.73L314.21,195.66L314.29,195.79L314.36,198.11L314.97,200.58L315.12,198.62L315.19,198.32L315.27,197.58L315.42,201.54L315.49,202.77L315.65,204.56L315.95,199.49L316.02,197.81L316.1,197.94L316.17,199.74L316.32,199.77L316.4,198.75L316.7,200.83L316.85,199.93L316.93,196.28L317,196.53L317.08,200.75L317.53,204.67L317.76,199.11L317.83,199.15L318.21,196.92L318.43,199.38L318.58,198.81L318.66,197.91L318.96,192.24L319.34,199.21L319.41,198.35L319.71,196.2L320.09,197.32L320.17,199.24L320.39,199.3L320.47,198.96L320.54,194.28L320.77,192.96L321,196.33L321.07,195.97L321.15,197.34L321.45,197.88L321.52,195.17L322.2,198.74L322.28,198.71L322.35,193.57L322.58,189.68L322.88,194.12L322.95,197.58L323.26,197.99L323.33,195.76L323.56,196.65L323.71,196.23L323.78,198.26L324.08,198.28L324.16,193.37L324.31,194.81L324.39,192.61L324.69,193.39L324.76,197.48L325.06,197.62L325.14,195.47L325.37,196.16L325.44,196.45L325.82,198.99L326.12,195.85L326.19,195.83L326.5,195.95L326.57,198.01L326.8,197.91L326.87,195.94L327.63,200.74L327.78,198.75L327.85,197.59L328,199.84L328.08,202.23L328.38,205.73L328.53,200.55L328.61,199.34L328.68,197.32L329.13,204.84L329.21,205.83L329.51,205.83L329.59,204.66L330.19,206.3L330.41,205.83L330.49,205.34L331.39,196.32L331.47,195.99L332,204.35L332.3,199.78L332.37,197.27L332.45,196.95L332.75,198.7L332.83,200.45L333.05,200.44L333.13,199.95L333.2,194.99L333.5,201.84L334.03,199.93L334.11,199.15L334.18,197.17L334.78,200.82L334.86,200.82L334.94,200.5L335.01,196.29L335.24,195.45L335.31,198.84L335.39,199.27L335.69,201.52L335.76,200.7L335.84,199.6L335.99,197.33L336.37,199.92L336.44,201.82L336.52,202.22L336.74,200.46L336.82,195.45L336.89,195.13L337.12,197.56L337.2,198L337.35,198.09L337.42,199.97L337.5,200.27L337.72,199.07L337.8,197.17L337.87,197.44L337.95,188.26L338.33,200.99L338.7,196.98L338.78,196.92L339.16,197.19L339.23,199.04L339.46,198.91L339.53,196.9L339.61,197.04L339.68,199.11L339.91,198.89L340.29,201.59L340.36,201.17L340.44,198.9L340.66,198.65L340.74,199.21L340.81,201.01L340.96,202.57L341.34,198.09L341.49,200.25L341.57,200.37L342.02,200.97L342.47,196.63L342.55,199.22L342.7,200.91L343.15,200.01L343.22,198.24L343.6,198.67L343.68,200.48L343.98,200.03L344.05,195.76L344.28,195.49L344.96,199.52L345.03,197.64L345.56,201L345.79,200.41L345.86,195.95L346.09,195.78L346.46,199.71L346.77,199.53L346.84,197.87L347.44,201.94L347.59,201.27L347.67,197.11L347.82,198.42L347.9,196.59L347.97,198.76L348.27,202.65L348.65,198.9L348.72,198.95L349.18,202.11L349.4,201.91L349.48,197.99L349.7,197.45L349.93,199.3L350.01,199.3L350.08,200.88L350.16,201.04L350.31,200.76L350.38,200.76L350.46,199.17L350.76,200.94L350.83,202.34L351.66,199.54L351.81,199.74L351.89,201.33L352.27,199.53L352.34,201.21L352.57,201.01L353.7,205.83L353.77,205.66L353.85,203.86L354,201.18L354.3,204.3L354.45,203.81L354.53,205.58L354.9,204.72L355.2,207.53L355.28,208.79L355.43,210.81L355.73,204.88L355.81,203.38L356.11,204.5L356.18,202.22L356.26,202.68L356.34,204.8L356.56,205.05L356.64,203.05L356.79,199.52L357.31,204.96L357.39,204.73L357.77,201.19L358.07,202.96L358.14,203.99L358.37,204.37L358.45,204.13L358.52,201.24L358.75,201.18L359.2,203.34L359.42,202.97L359.5,202.05L359.95,204.22L360.25,203.93L360.33,201.31L360.55,201.09L361.23,203.35L361.31,202.33L361.46,196.97L361.99,204.34L362.06,204.36L362.36,201.75L362.82,203.81L362.89,203.82L362.97,196.75L363.04,203.84L363.64,202.88L363.72,203.75L363.87,204.61L364.1,203.13L364.32,203.13L364.4,203.13L364.77,204.1L364.85,203.15L364.93,197.4L365.68,204.6L365.9,203.73L365.98,203.68L366.13,195.64L366.58,204.52L366.81,197.64L366.88,199.4L367.04,198.89L367.11,199.95L367.19,201.98L367.49,205.35L368.01,204.76L368.09,204.31L368.17,205.36L368.54,203.07L368.62,203.07L368.69,198.22L368.99,203.8L369.52,201.47L369.6,200.17L370.05,196.78L370.12,202.88L370.2,194.53L370.35,194.97L370.43,202.06L370.95,203.82L371.1,203.35L371.18,200.26L371.78,203.05L372.08,202.7L372.16,201.44L372.54,202.29L372.61,203.48L372.91,203.13L372.99,200.16L373.21,200.06L373.89,202.59L373.97,193.74L374.49,203.09L374.8,199.97L374.87,199.95L375.02,199.79L375.63,202.51L375.7,202.5L375.78,201.15L375.93,194.74L376.23,203.01L376.45,202.92L376.53,203.02L376.98,201.25L377.28,202.55L377.36,202.51L377.58,201.14L377.81,203.17L377.89,202.65L377.96,203.95L378.34,204.81L378.41,203.52L378.49,203.08L378.87,202.54L378.94,203.16L379.02,203.98L379.32,201.93L379.77,202.43L379.84,203.53L380.15,203.39L380.22,201.09L380.82,205.82L381.05,203.25L381.13,202.76L381.2,201.54L381.8,203.17L381.88,202.86L382.26,199.22L382.63,202.08L382.71,202.06L382.93,202.03L383.01,200.7L383.61,203.51L383.76,203.19L383.84,199.69L384.06,199.48L384.22,200.9L384.29,200.99L384.52,202.35L385.12,201.78L385.19,201.88L385.42,203.09L385.65,200.01L385.8,201.29L385.87,200L386.25,203.3L386.7,201.33L386.78,201.31L387.08,205.53L387.38,203.34L387.46,200.93L387.68,200.14L387.91,202.21L387.98,202.63L388.43,201.28L388.81,203.84L388.89,203.94L389.11,204.35L389.19,204.05L389.26,202.28L389.49,201.79L389.79,202.32L389.87,203.46L390.17,201.87L390.24,202.01L390.32,203.39L390.54,202.62L390.92,204.3L391,204.26L391.07,203.55L391.6,203.2L391.67,204.22L391.83,204.17L391.9,198.38L392.13,198.47L392.2,200.42L392.81,204.47L393.03,203.43L393.11,202.26L393.48,205.02L393.86,202.79L393.94,202.8L394.31,203.9L394.39,205.21L394.54,205.85L394.61,204.01L394.69,201.72L394.76,201.37L394.91,202.6L394.99,204.53L395.52,205.29L395.59,204.93L395.67,204.49L396.05,205.79L396.12,206.33L396.42,205.95L396.5,203.93L397.1,205.84L397.4,205.45L397.48,204.81L397.85,205.35L397.93,205.95L398.23,205.86L398.31,203.92L398.53,203.75L398.68,204.54L398.83,204.35L398.91,205.15L399.13,203.94L399.21,196.44L399.36,195.44L399.44,197L399.51,203.64L399.59,199.74L399.81,205.35L400.26,202.02L400.34,200.9L400.72,203.77L401.24,203.07L401.32,204.13L401.62,204.87L402.15,201.99L402.3,202.46L402.37,202.62L402.53,203.61L402.83,202.01L402.9,197.04L403.58,205.38L403.73,204.33L403.81,204.04L404.11,203.48L404.26,204.56L404.33,205.2L404.64,203.2L405.09,204.03L405.16,204.84L405.46,204.86L405.54,202.86L405.77,202.52L405.92,204.56L405.99,205.12L406.14,205.2L406.22,204.21L406.52,203.1L406.9,203.57L406.97,204.5L407.27,204.11L407.35,200.78L407.42,199.91L407.88,202.07L407.95,203.29L408.33,201.82L408.48,202.54L408.55,203.36L408.7,203.41L408.78,204.44L409.08,204.03L409.16,200.87L409.23,200.42L409.61,202.02L409.68,202.01L409.76,203.15L410.14,202.01L410.29,202.47L410.36,203.23L410.81,204.69L410.89,204.4L410.96,201.64L411.19,201.37L411.27,202.51L411.34,202.56L411.49,202.57L411.57,203.65L411.87,203.63L411.94,202.23L412.55,205.38L412.7,204.69L412.77,201.73L412.92,202.47L413,201.33L413.3,202.5L413.38,203.57L413.75,201.65L414.05,203.16L414.13,204.17L414.36,204.28L414.51,204.07L414.58,201.59L414.73,200.85L415.11,201.73L415.18,203.22L415.49,202.49L416.24,204.89L416.31,204.66L416.39,203.59L416.69,203.19L416.92,203.83L416.99,204.22L417.29,203.25L417.37,203.36L417.44,204.38L417.6,204.5L417.67,203.59L418.05,204.62L418.2,202.75L418.27,202.43L418.42,202.05L418.8,204.01L419.1,203.92L419.18,202.89L419.55,203.38L419.63,204.32L419.93,204.07L420.01,201.06L420.23,201.02L420.91,203.38L420.99,202.28L421.36,203.14L421.44,204.18L421.74,203.99L421.82,201.22L422.04,201.03L422.72,203.41L422.79,202.31L423.17,203.01L423.25,204.01L423.55,204.04L423.62,201.17L423.85,201.13L424.53,203.52L424.6,202.44L424.75,202.45L424.83,203.4L425.13,204.09L425.51,200.99L425.73,202.13L425.81,202.13L425.96,202.14L426.03,203.43L426.34,203.57L426.41,202.44L426.56,202.48L426.64,203.43L427.09,205.25L427.39,202.13L427.47,202.34L427.54,202.75L428.45,204.65L428.52,203L428.97,205.04L429.28,203.63L429.35,203.52L429.58,203.63L429.65,204.62L430.03,203.65L430.18,204.46L430.25,204.83L430.78,205.23L431.08,202.66L431.16,203.55L431.46,204.41L431.76,203.98L431.84,202.99L432.14,202.58L432.21,203.2L432.29,204.18L432.59,203.77L432.67,201.4L432.82,201.98L432.89,200.16L433.19,201.42L433.27,202.67L433.49,202.77L433.57,193.89L433.72,193.74L433.8,192.52L434.1,204.46L434.55,200.59L434.62,201.79L434.7,200.6L435.23,203.23L435.3,203L435.45,194.77L435.98,204.25L436.06,204.24L436.21,203.83L436.28,200.96L437.04,203.33L437.11,203.25L437.19,195.31L437.41,192.67L437.56,198.93L437.64,201.71L437.87,204.48L438.09,201.23L438.39,202.61L438.47,202.83L438.62,202.61L438.69,203.9L438.92,203.66L439,203.66L439.22,195.38L439.67,205.57L439.75,205.75L440.2,203.47L440.5,204.44L440.58,204.49L440.88,203.59L440.95,204.68L441.03,204.4L441.33,205.75L441.41,205.77L441.48,205.78L441.63,205.86L441.71,205.25L441.78,205.17L441.86,205.11L442.24,205.06L442.31,205.71L442.39,205.67L443.06,205.02L443.14,205.76L443.44,205.86L443.52,204.64L443.74,204.5L444.42,205.75L444.5,205.11L444.65,205L444.87,205.36L444.95,205.99L445.25,206.07L445.32,204.13L445.4,203.94L445.63,204.76L445.78,204.81L445.85,204.81L446.61,205.48L446.68,205.44L446.76,206L447.06,205.76L447.13,203.74L447.36,203.66L448.04,205.16L448.11,204.41L448.64,205.86L448.87,205.6L448.94,203.44L449.17,203.27L449.77,204.96L449.85,200.2L449.92,199.42L450.15,204.9L450.22,204.83L450.6,205.56L450.67,205.47L450.75,203.3L451.65,204.89L451.73,204.07L452.03,204.84L452.11,205.54L452.48,205.49L452.56,204.17L453.09,204.16L453.16,204.98L453.39,204.99L453.46,204.2L454.29,205.77L454.37,205.08L454.44,205.02L454.89,204.87L454.97,205.55L455.05,205.54L455.35,204.89L455.5,205.78L455.72,205.17L455.8,205.82L456.1,205.65L456.18,204.45L456.4,204.25L457.08,205.48L457.15,204.78L457.53,204.89L457.61,205.58L457.91,205.54L457.98,203.44L458.21,203.36L458.89,204.99L458.96,204.3L459.19,204.94L459.26,205.24L459.57,205.86L459.72,205.58L459.79,203.48L460.62,205.01L460.7,200.29L460.92,200.33L461,202.17L461.3,205.64L461.75,204.31L461.83,203.54L462.2,205.09L462.35,204.99L462.43,198.74L462.58,197.09L462.96,202.33L463.03,203.66L463.26,203.65L463.33,202.21L463.48,194.71L464.01,205.08L464.09,199.7L464.16,199.01L464.31,197.51L464.69,201.04L464.77,202.38L465.07,205.69L465.52,204.35L465.59,204.35L465.74,204.38L465.82,205.19L466.05,199.19L466.5,205.53L466.57,206.1L466.95,206.16L467.1,205.53L467.18,205.48L467.85,199.85L468.01,200.19L468.08,200.88L468.61,203.85L468.76,202.14L468.83,199.92L468.91,198.73L468.99,205.25L469.21,205.22L469.29,205.22L469.51,205.84L469.59,200.89L469.81,198.83L470.12,201.51L470.19,205.23L470.42,205.89L470.57,202.38L470.64,197.4L470.72,195.77L471.02,199.8L471.17,199.79L471.25,200.59L471.47,198.38L471.55,205.17L471.62,204.41L471.7,204.49L472.3,206.25L472.38,206.17L472.45,204.21L472.68,203.93L473.05,205.57L473.13,205.46L473.2,201.48L473.51,200.16L473.73,203.04L473.81,204.11L473.96,205.18L474.18,203.58L474.26,199.38L474.33,198.1L474.71,201.3L474.94,200.26L475.01,200.34L475.84,206.24L475.92,206.22L476.14,203.7L476.52,204.55L476.6,204.56L477.5,206.23L477.58,206.23L477.8,206.05L477.88,204.65L478.1,198.84L478.48,205.36L478.78,199.4L478.86,199.51L479.53,205.85L479.61,203.99L479.68,203.26L479.99,198.29L480.21,204.99L480.29,205.65L480.44,205.62L480.51,200.29L480.59,199.64L481.04,201.86L481.12,203.23L481.27,203.27L481.34,202.64L481.42,201.37L481.49,198.6L481.95,205.5L482.02,205.49L482.1,205.87L482.47,199.42L482.85,205.25L482.92,205.93L483.23,205.86L483.3,203.8L484.21,205.36L484.28,204.65L484.58,205.66L484.66,204.6L484.88,206.23L485.11,199.66L485.34,203.83L485.41,204.58L485.79,205.3L485.86,200.89L486.09,199.4L486.17,204.65L486.24,204.73L486.77,206.25L486.92,204.15L486.99,204.03L487.14,203.95L487.52,205.46L487.67,205.43L487.75,200.54L487.9,199.84L488.05,201.47L488.12,205.6L488.35,205.96L488.95,203.64L489.25,204.56L489.33,205.36L489.63,204.99L489.71,204.33L490.38,205.85L490.46,205.79L490.54,204.43L490.61,204.08L491.06,204.54L491.14,205.28L491.29,205.28L491.36,200.17L491.59,200.3L491.67,201.78L492.65,205.33L492.72,205.33L493.02,205.94L493.1,201.72L493.25,200.43L493.62,202.52L493.7,202.4L493.78,203.57L494.23,197.48L494.3,204.59L494.6,204.71L495.06,197.98L495.43,200.24L495.51,202.09L495.66,205.19L496.04,195.1L496.26,203.61L496.34,203.58L496.56,204.38L496.64,204.01L496.71,197.42L496.86,194.95L497.24,200.36L497.32,201.64L497.54,202.84L497.69,200.47L497.77,194.84L497.84,189.91L498.22,203.82L498.45,198.95L498.52,196.43L498.67,194.11L499.05,199L499.13,200.25L499.28,201.54L499.5,199.86L499.58,194.55L499.65,193.67L499.73,203.47L500.18,204.52L500.33,197.85L500.41,195.52L500.56,194.83L500.71,196.81L500.78,199.71L501.16,202.71L501.31,201.14L501.39,195.27L501.46,192.96L501.84,203.53L502.06,197.46L502.14,196.54L502.29,193.58L502.74,199.64L502.82,201.07L503.04,201.76L503.19,198.49L503.27,197.24L503.5,192.82L503.72,203.77L503.8,204.48L504.17,195.72L504.55,200.8L504.63,201.91L504.93,200.98L505,200.25L506.06,194.44L506.13,196.46L506.66,198.48L506.74,197.14L506.81,193.89L506.89,191.88L507.26,198.29L507.41,197.61L507.49,196.71L507.72,189.08L508.17,195.27L508.24,197.44L508.47,196.07L508.54,178.66L508.7,146.9L509.22,175.78L509.3,175.78L509.52,163.3L509.83,190.72L509.9,185.1L509.98,188.36L510.13,190.87L510.35,175.51L510.43,162.76L510.5,152.21L511.03,182.68L511.11,180.54L512.01,205.16L512.16,204.6L512.24,193.74L512.69,203.95L512.91,197.03L512.99,193.32L513.14,191.88L513.29,194.64L513.37,195.77L513.67,201.13L513.97,195.34L514.04,187.23L514.35,201.15L514.95,180.1L515.02,179.92L515.63,192.74L515.85,185.39L515.93,182.7L516.08,176.15L516.31,189.45L516.38,193.57L516.46,193.41L516.53,188.44L516.68,184.73L516.98,196.02L517.06,198.62L517.51,201.26L517.66,199.64L517.74,196.49L518.26,198.43L518.57,190.18L518.64,193.72L518.72,193.85L518.79,195.61L519.24,200.3L519.39,198.82L519.47,190.62L519.92,199.86L520.37,180.47L520.45,180.73L520.53,180.51L520.6,181.5L520.68,183.11L520.9,187.88L521.05,186.5L521.13,183.76L521.35,156.82L521.81,177.27L521.88,177.34L522.11,168.25L522.41,174.24L522.48,179.36L522.56,179.14L522.64,182.98L522.79,188.04L523.09,169.55L523.16,163.37L523.69,184.76L523.99,176.53L524.07,175.62L524.67,189.63L524.82,183.82L524.9,167.59L524.97,160.26L525.5,181.25L525.57,178.35L525.72,169.51L526.18,187.07L526.25,193.69L526.33,196.52L526.63,187.14L526.7,177.31L526.78,168.72L527.38,181.12L527.46,178.18L527.61,175.5L528.06,183.64L528.14,185.05L528.29,189.31L528.59,178.67L528.66,175.76L528.89,170.03L529.12,176.11L529.42,172.8L529.49,173.29L530.02,184.87L530.32,178L530.4,174.42L530.77,176.81L531.15,162.46L531.23,164.69L531.3,168.47L531.83,192.4L532.05,181.41L532.13,169.75L532.2,163.13L532.58,182.14L532.81,175.78L532.88,170.73L532.96,167.63L533.33,175.92L533.41,174.06L533.49,179.06L533.64,182.51L533.86,177.74L533.94,117.61L534.01,95.79L534.47,166.15L534.54,160.27L534.62,159.95L534.77,139.37L535.29,179.27L535.37,183.02L535.52,183.44L535.6,183.25L535.67,179.15L535.82,158.73L536.42,172.61L536.5,170.23L536.57,166.33L537.03,176.36L537.1,179.85L537.18,183.32L537.48,176.82L537.55,164.06L537.63,152.54L538.08,169.12L538.23,166.25L538.31,164.23L538.38,160.2L538.84,169.91L538.91,174.42L538.99,177.89L539.29,172.09L539.36,157.71L539.44,150.81L539.89,164.98L540.04,163.52L540.12,157.9L540.19,154.9L540.64,167.29L540.72,171.37L540.95,175.26L541.1,173.76L541.17,154.64L542,119.79L542.08,127.75L542.68,176.94L542.9,174.24L542.98,168.46L543.81,117.41L543.88,143.59L543.96,156.88L544.56,188.64L544.86,170.51L544.94,174.47L545.32,175.17L545.69,157.35L545.92,165.37L545.99,170.47L546.37,192.24L546.52,175.12L546.6,157.34L547.05,157.44L547.43,131.34L547.5,135.24L548.25,173L548.33,166.75L548.41,146.33L548.93,148.77L549.23,109.23L549.31,104.14L549.99,174.35L550.14,167L550.21,151.45L550.29,136.16L550.67,164.7L550.89,158.76L550.97,155.21L551.04,149.4L551.49,170.43L551.57,176.1L551.87,189.83L551.95,175.62L552.02,157.5L552.1,142.24L552.7,162.98L552.78,158.49L552.85,155.27L553.23,167.66L553.3,170.71L553.6,195.86L553.91,169.62L553.98,163.04L554.13,155.51L554.51,166.69L554.73,162.09L554.81,164.49L555.56,194.33L555.71,187.58L555.79,180.8L556.47,171.14L556.62,172.58L556.69,175.9L557.3,187.86L557.45,177.54L557.52,167.21L557.9,177.77L558.2,169.11L558.28,162.59L558.95,186.22L559.18,179.99L559.26,166.31L559.63,172.77L560.16,128.72L560.24,150.89L560.84,179.35L560.99,170.97L561.06,152.81L561.14,123.39L561.52,163.25L561.82,147.65L561.89,131.27L561.97,125.86L562.19,159.62L562.27,165.04L562.65,178.07L562.8,171.33L562.87,157.35L562.95,142.68L563.4,163.62L563.55,161.86L563.63,156.21L563.7,152.83L564.08,169.09L564.15,170.75L564.3,177.28L564.61,168.66L564.68,150.87L564.76,137.68L565.13,158.98L565.36,158.07L565.43,154.65L565.51,148.44L565.96,167.13L566.04,173.41L566.26,184.08L566.56,164.73L566.64,159.01L567.39,148.73L567.47,151.74L567.54,155.13L568.15,172.99L568.37,164.6L568.45,155.78L569.2,127.54L569.28,145.59L569.35,148.84L569.88,170.51L570.11,151.26L570.18,142.02L570.56,157.39L570.86,141.47L570.94,125.07L571.76,167.7L571.84,161.98L571.91,144.13L572.14,126.42L572.59,152.85L572.67,151.27L572.74,143.52L573.2,167.65L573.27,172.73L573.5,176.25L573.65,172.56L573.72,156.7L574.55,137.81L574.63,138.83L575.31,167.73L575.46,159.28L575.53,133.01L575.61,102.65L575.98,140.45L576.28,124.38L576.36,115.56L576.44,111.01L576.66,135.25L576.74,144.66L577.11,162.44L577.26,152.44L577.34,129.6L578.17,83.43L578.24,105.27L578.85,157.03L579.15,139.68L579.22,127.58L580.05,97.38L580.13,102.48L580.81,155.59L581.03,139.32L581.11,129.8L581.86,114.75L581.94,125.56L582.61,174.36L582.92,158.42L582.99,154.01L583.52,141.99L583.59,128.71L583.67,123.56L583.97,143.11L584.05,149.11L584.27,166.14L584.57,127.98L584.65,100.64L585.03,138.46L585.4,113.03L585.48,116.52L586.16,163.41L586.31,152.43L586.38,124.23L586.46,102.35L586.76,126.08L587.14,118.32L587.21,109.77L587.66,148.8L587.74,153.86L588.04,161.32L588.19,136.22L588.27,128L588.87,165.4L589.09,154.47L589.17,154.72L589.25,154.58L589.32,156.91L589.85,190.92L590,159.7L590.07,147.64L590.45,167.14L590.83,156.3L590.9,158.51L591.66,185.06L591.73,178.23L591.81,170.11L592.11,144.42L592.71,146.72L592.79,148.99L592.94,154.96L593.01,162.32L593.47,171.67L593.62,164.73L593.69,158.16L594.52,116.91L594.67,126.33L594.75,135.32L595.27,156.53L595.35,151.28L595.42,135.41L595.88,138.62L596.33,104.26L596.4,104.11L597.08,160.02L597.23,121.92L597.31,94.13L597.91,126.73L598.06,112.16L598.14,113.18L598.81,159.26L598.97,146.92L599.04,124.55L599.87,61.98L599.95,70.37L600.7,152.83L600.85,123.74L600.92,92.45L601.3,122.92L601.6,87.91L601.68,51.24L602.36,157.27L602.66,122.59L602.73,80.21L602.81,81L602.88,67.38L603.34,102.24L603.49,45.94L603.56,56.04L604.24,151.4L604.47,132.7L604.54,110.13L605.3,28.62L605.37,45.69L605.45,70.32L606.05,140.14L606.35,126.77L606.43,108.97L607.18,72.79L607.25,87.72L607.33,98.11L607.78,134.66L608.08,118.35L608.16,101.45L608.23,119.81L608.84,94.45L608.91,83.37L608.99,82.99L609.06,84.6L609.14,98.13L609.67,135.23L609.82,123.67L609.89,95.61L610.65,-8.6L610.72,17.9L610.8,68.39L611.47,133.2L611.62,124.05L611.7,92.47L611.85,-66.08L612.45,17.95L612.53,44.11L613.36,136.71L613.51,102.65L613.58,64.03L613.73,60.15L614.19,98.9L614.26,77.32L614.34,63.05L615.09,145.38L615.32,109.85L615.39,81.55L616.3,120.92L616.37,122.82L616.9,157.33L617.2,135.61L617.28,122.47L617.43,106.76L617.73,127.08L618.03,118.19L618.1,128.36L618.78,166.98L619.01,157.32L619.08,151.75L619.31,135.78L619.84,149.63L619.91,151.24L620.59,183.79L620.74,164.77L620.82,156.49L621.27,162.07L621.5,151.71L621.57,147L621.65,145.56L621.87,153.01L621.95,154.99L622.32,178.85L622.48,171.92L622.55,148.61L623.38,125.52L623.45,123.04L624.13,164.3L624.28,157.84L624.36,134.38L624.43,113.91L625.04,135.37L625.11,130.57L625.19,128.17L626.02,164.48L626.09,157.18L626.17,140.77L626.24,114.18L626.92,127.65L627,118.98L627.67,158.35L627.9,149.6L627.98,125.21L628.05,95.86L628.73,111.99L628.8,106.03L628.96,114.43L629.03,121.47L629.63,160.71L629.86,137.01L629.93,120.76L630.01,111.31L630.39,139.68L630.54,134.76L630.61,131.55L631.52,172.82L631.74,158.77L631.82,153.26L631.89,150.62L632.27,164.35L632.35,164.18L632.42,160.15L632.87,174.29L632.95,177.43L633.25,187.19L633.48,165.59L633.55,173.56L633.63,170L633.93,178.1L634,175.63L634.08,171.06L634.38,162.34L634.68,171.51L634.76,175.1L634.98,179.13L635.13,172.19L635.21,157.11L635.28,146.9L635.74,161.88L635.89,160.89L635.96,159.1L636.04,155.27L636.42,169.62L636.49,171.64L636.79,180.3L637.02,159.97L637.09,149.93L637.62,161.57L637.85,152.04L637.92,151.83L638.68,184.16L638.75,177.28L638.83,160.89L639.35,161.84L639.66,143.92L639.73,143.32L640.48,179.37L640.63,163.71L640.71,147.94L641.31,162.77L641.46,155.72L641.54,155.79L641.77,160.08L641.84,168.02L642.22,193.76L642.52,168.62L642.59,163.16L643.35,150.76L643.42,155.03L643.5,157.72L644.03,193.51L644.33,178.02L644.4,167.56L645.08,144L645.31,151.21L645.38,156.54L645.98,172.79L646.06,165.03L646.14,150.7L647.11,169.88L647.19,171.05L647.79,184.9L647.94,175.65L648.02,166.44L648.09,155.04L648.77,160L648.85,161.96L648.92,158.46L649.22,168.42L649.3,178L649.9,143.13L650.28,147.92L650.36,149.3L650.73,147.65L650.81,149.7L651.33,162.59L651.41,156.7L651.49,139.55L651.56,126.78L651.86,145.2L652.24,135.91L652.31,134.28L652.62,151.96L652.69,157.59L653.07,181.42L653.37,154.14L653.44,162.56L653.52,154.83L653.67,156.71L654.12,146.36L654.35,149.33L654.42,154.32L655.03,178.29L655.18,167.18L655.25,158.04L655.93,143.93L656.08,146.56L656.16,147.82L656.84,169.63L656.99,161.74L657.06,157.24L657.21,148.11L657.51,159L657.81,148.19L657.89,152.89L658.57,180.96L658.72,169.34L658.79,161.44L658.87,165.93L659.4,160.58L659.47,156.82L659.55,153.26L660,162.72" style="vector-effect: none; fill: none; stroke: rgb(54, 112, 97); stroke-opacity: 1; stroke-width: 0px; opacity: 1;"/></g><g class="points"/><g class="text"/></g></g></g><g class="overplot"/><path class="xlines-above crisp" d="M19,230.5H681M19,19.5H681" style="fill: none; stroke-width: 1px; stroke: rgb(68, 68, 68); stroke-opacity: 1;"/><path class="ylines-above crisp" d="M19.5,20V230M680.5,20V230" style="fill: none; stroke-width: 1px; stroke: rgb(68, 68, 68); stroke-opacity: 1;"/><g class="overlines-above"/><g class="xaxislayer-above"><path class="xtick ticks crisp" d="M0,231v5" transform="translate(20,0)" style="stroke: rgb(68, 68, 68); stroke-opacity: 1; stroke-width: 1px;"/><path class="xtick ticks crisp" d="M0,231v5" transform="translate(126.7,0)" style="stroke: rgb(68, 68, 68); stroke-opacity: 1; stroke-width: 1px;"/><path class="xtick ticks crisp" d="M0,231v5" transform="translate(237.01,0)" style="stroke: rgb(68, 68, 68); stroke-opacity: 1; stroke-width: 1px;"/><path class="xtick ticks crisp" d="M0,231v5" transform="translate(347.33,0)" style="stroke: rgb(68, 68, 68); stroke-opacity: 1; stroke-width: 1px;"/><path class="xtick ticks crisp" d="M0,231v5" transform="translate(459.45,0)" style="stroke: rgb(68, 68, 68); stroke-opacity: 1; stroke-width: 1px;"/><path class="xtick ticks crisp" d="M0,231v5" transform="translate(569.76,0)" style="stroke: rgb(68, 68, 68); stroke-opacity: 1; stroke-width: 1px;"/><g class="xtick"><text text-anchor="middle" x="0" y="255.2" transform="translate(20,0)" style="font-family: 'Open Sans', verdana, arial, sans-serif; font-size: 16px; fill: rgb(68, 68, 68); fill-opacity: 1; white-space: pre; opacity: 0;">01.01</text></g><g class="xtick"><text text-anchor="middle" x="0" y="255.2" style="font-family: 'Open Sans', verdana, arial, sans-serif; font-size: 16px; fill: rgb(68, 68, 68); fill-opacity: 1; white-space: pre; opacity: 1;" transform="translate(126.7,0)">01.03</text></g><g class="xtick"><text text-anchor="middle" x="0" y="255.2" style="font-family: 'Open Sans', verdana, arial, sans-serif; font-size: 16px; fill: rgb(68, 68, 68); fill-opacity: 1; white-space: pre; opacity: 1;" transform="translate(237.01,0)">01.05</text></g><g class="xtick"><text text-anchor="middle" x="0" y="255.2" style="font-family: 'Open Sans', verdana, arial, sans-serif; font-size: 16px; fill: rgb(68, 68, 68); fill-opacity: 1; white-space: pre; opacity: 1;" transform="translate(347.33,0)">01.07</text></g><g class="xtick"><text text-anchor="middle" x="0" y="255.2" style="font-family: 'Open Sans', verdana, arial, sans-serif; font-size: 16px; fill: rgb(68, 68, 68); fill-opacity: 1; white-space: pre; opacity: 1;" transform="translate(459.45,0)">01.09</text></g><g class="xtick"><text text-anchor="middle" x="0" y="255.2" style="font-family: 'Open Sans', verdana, arial, sans-serif; font-size: 16px; fill: rgb(68, 68, 68); fill-opacity: 1; white-space: pre; opacity: 1;" transform="translate(569.76,0)">01.11</text></g></g><g class="yaxislayer-above"><path class="ytick ticks crisp" d="M19,0h-5" transform="translate(0,230)" style="stroke: rgb(68, 68, 68); stroke-opacity: 1; stroke-width: 1px;"/><path class="ytick ticks crisp" d="M19,0h-5" transform="translate(0,188)" style="stroke: rgb(68, 68, 68); stroke-opacity: 1; stroke-width: 1px;"/><path class="ytick ticks crisp" d="M19,0h-5" transform="translate(0,146)" style="stroke: rgb(68, 68, 68); stroke-opacity: 1; stroke-width: 1px;"/><path class="ytick ticks crisp" d="M19,0h-5" transform="translate(0,104)" style="stroke: rgb(68, 68, 68); stroke-opacity: 1; stroke-width: 1px;"/><path class="ytick ticks crisp" d="M19,0h-5" transform="translate(0,62)" style="stroke: rgb(68, 68, 68); stroke-opacity: 1; stroke-width: 1px;"/><path class="ytick ticks crisp" d="M19,0h-5" transform="translate(0,20)" style="stroke: rgb(68, 68, 68); stroke-opacity: 1; stroke-width: 1px;"/><g class="ytick"><text text-anchor="end" x="10.8" y="5.6" transform="translate(0,230)" style="font-family: 'Open Sans', verdana, arial, sans-serif; font-size: 16px; fill: rgb(68, 68, 68); fill-opacity: 1; white-space: pre; opacity: 1;">0</text></g><g class="ytick"><text text-anchor="end" x="10.8" y="5.6" style="font-family: 'Open Sans', verdana, arial, sans-serif; font-size: 16px; fill: rgb(68, 68, 68); fill-opacity: 1; white-space: pre; opacity: 1;" transform="translate(0,188)">10</text></g><g class="ytick"><text text-anchor="end" x="10.8" y="5.6" style="font-family: 'Open Sans', verdana, arial, sans-serif; font-size: 16px; fill: rgb(68, 68, 68); fill-opacity: 1; white-space: pre; opacity: 1;" transform="translate(0,146)">20</text></g><g class="ytick"><text text-anchor="end" x="10.8" y="5.6" style="font-family: 'Open Sans', verdana, arial, sans-serif; font-size: 16px; fill: rgb(68, 68, 68); fill-opacity: 1; white-space: pre; opacity: 1;" transform="translate(0,104)">30</text></g><g class="ytick"><text text-anchor="end" x="10.8" y="5.6" style="font-family: 'Open Sans', verdana, arial, sans-serif; font-size: 16px; fill: rgb(68, 68, 68); fill-opacity: 1; white-space: pre; opacity: 1;" transform="translate(0,62)">40</text></g><g class="ytick"><text text-anchor="end" x="10.8" y="5.6" style="font-family: 'Open Sans', verdana, arial, sans-serif; font-size: 16px; fill: rgb(68, 68, 68); fill-opacity: 1; white-space: pre; opacity: 1;" transform="translate(0,20)">50</text></g></g><g class="overaxes-above"/></g></g><g class="polarlayer"/><g class="smithlayer"/><g class="ternarylayer"/><g class="geolayer"/><g class="funnelarealayer"/><g class="pielayer"/><g class="iciclelayer"/><g class="treemaplayer"/><g class="sunburstlayer"/><g class="glimages"/><defs id="topdefs-ed895d"><g class="clips"/><clipPath id="legended895d"><rect width="210" height="55" x="0" y="0"/></clipPath></defs><g class="layer-above"><g class="imagelayer"/><g class="shapelayer"/></g><g class="infolayer"><g class="legend" pointer-events="all" transform="translate(26.6,24.200000000000003)"><rect class="bg" shape-rendering="crispEdges" width="210" height="55" x="0" y="0" style="stroke: rgb(68, 68, 68); stroke-opacity: 1; fill: rgb(0, 0, 0); fill-opacity: 0; stroke-width: 0px;"/><g class="scrollbox" transform="" clip-path="url(#legended895d)"><g class="groups"><g class="traces" transform="translate(0,27.3)" style="opacity: 1;"><text class="legendtext" text-anchor="start" x="40" y="-4.16" style="font-family: 'Open Sans', verdana, arial, sans-serif; font-size: 16px; fill: rgb(68, 68, 68); fill-opacity: 1; white-space: pre;"><tspan class="line" dy="0em" x="40" y="-4.16">Strm:</tspan><tspan class="line" dy="1.3em" x="40" y="-4.16">77 909 kr/r | 66 kr</tspan></text><g class="layers"><g class="legendfill"><path class="js-fill" d="M5,-2h30v6h-30z" style="stroke-width: 0; fill: rgb(54, 112, 97); fill-opacity: 0.5;"/></g><g class="legendlines"><path class="js-line" d="M5,-2h30" style="fill: none; stroke: rgb(54, 112, 97); stroke-opacity: 1; stroke-width: 0px;"/></g><g class="legendsymbols"><g class="legendpoints"/></g></g><rect class="legendtoggle" x="0" y="-22.3" width="206.5625" height="44.6" style="fill: rgb(0, 0, 0); fill-opacity: 0;"/></g></g></g><rect class="scrollbar" rx="20" ry="3" width="0" height="0" x="0" y="0" style="fill: rgb(128, 139, 164); fill-opacity: 1;"/></g><g class="g-gtitle"/><g class="g-xtitle"/><g class="g-ytitle" transform="translate(32,0)"><text class="ytitle" transform="rotate(-90,-18,125)" x="-18" y="125" text-anchor="middle" style="font-family: 'Open Sans', verdana, arial, sans-serif; font-size: 14px; fill: rgb(68, 68, 68); opacity: 1; font-weight: normal; white-space: pre;">Kostnad (kr)</text></g></g></svg>