<svg class="main-svg" xmlns="http://www.w3.org/2000/svg" xmlns:xlink="http://www.w3.org/1999/xlink" width="700" height="250" style="" viewBox="0 0 700 250"><rect x="0" y="0" width="700" height="250" style="fill: rgb(255, 255, 255); fill-opacity: 1;"/><defs id="defs-afa979"><g class="clips"><clipPath id="clipafa979xyplot" class="plotclip"><rect width="660" height="210"/></clipPath><clipPath class="axesclip" id="clipafa979x"><rect x="20" y="0" width="660" height="250"/></clipPath><clipPath class="axesclip" id="clipafa979y"><rect x="0" y="20" width="700" height="210"/></clipPath><clipPath class="axesclip" id="clipafa979xy"><rect x="20" y="20" width="660" height="210"/></clipPath></g><g class="gradients"/><g class="patterns"/></defs><g class="bglayer"/><g class="layer-below"><g class="imagelayer"/><g class="shapelayer"/></g><g class="cartesianlayer"><g class="subplot xy"><g class="layer-subplot"><g class="shapelayer"/><g class="imagelayer"/></g><g class="minor-gridlayer"><g class="x"/><g class="y"/></g><g class="gridlayer"><g class="x"><path class="xgrid crisp" transform="translate(126.7,0)" d="M0,20v210" style="stroke: rgb(238, 238, 238); stroke-opacity: 1; stroke-width: 0.1px;"/><path class="xgrid crisp" transform="translate(237.01,0)" d="M0,20v210" style="stroke: rgb(238, 238, 238); stroke-opacity: 1; stroke-width: 0.1px;"/><path class="xgrid crisp" transform="translate(347.33,0)" d="M0,20v210" style="stroke: rgb(238, 238, 238); stroke-opacity: 1; stroke-width: 0.1px;"/><path class="xgrid crisp" transform="translate(459.45,0)" d="M0,20v210" style="stroke: rgb(238, 238, 238); stroke-opacity: 1; stroke-width: 0.1px;"/><path class="xgrid crisp" transform="translate(569.76,0)" d="M0,20v210" style="stroke: rgb(238, 238, 238); stroke-opacity: 1; stroke-width: 0.1px;"/></g><g class="y"><path class="ygrid crisp" transform="translate(0,188)" d="M20,0h660" style="stroke: rgb(238, 238, 238); stroke-opacity: 1; stroke-width: 0.1px;"/><path class="ygrid crisp" transform="translate(0,146)" d="M20,0h660" style="stroke: rgb(238, 238, 238); stroke-opacity: 1; stroke-width: 0.1px;"/><path class="ygrid crisp" transform="translate(0,104)" d="M20,0h660" style="stroke: rgb(238, 238, 238); stroke-opacity: 1; stroke-width: 0.1px;"/><path class="ygrid crisp" transform="translate(0,62)" d="M20,0h660" style="stroke: rgb(238, 238, 238); stroke-opacity: 1; stroke-width: 0.1px;"/></g></g><g class="zerolinelayer"><path class="yzl zl crisp" transform="translate(0,230)" d="M20,0h660" style="stroke: rgb(68, 68, 68); stroke-opacity: 1; stroke-width: 1px;"/></g><g class="layer-between"><g class="shapelayer"/><g class="imagelayer"/></g><path class="xlines-below"/><path class="ylines-below"/><g class="overlines-below"/><g class="xaxislayer-below"/><g class="yaxislayer-below"/><g class="overaxes-below"/><g class="plot" transform="translate(20,20)" clip-path="url(#clipafa979xyplot)"><g class="scatterlayer mlayer"><g class="trace scatter tracee9fe3c" style="stroke-miterlimit: 2;"><g class="fills"><g><path class="js-fill" d="M660,210L0,210L0,183.01L0.38,195.49L0.68,184.63L0.75,177.93L1.28,173.38L1.51,175.94L1.58,177.43L1.96,190.33L2.19,184.88L2.26,172.38L3.09,155.83L3.16,158.7L3.92,177.55L3.99,171.91L4.07,160.01L4.6,163.24L4.9,145.99L4.97,145.6L5.05,146.04L5.12,151.07L5.73,172.88L5.8,168.94L5.88,152.73L6.4,154.91L6.78,121.69L6.86,131.54L7.38,172.35L7.61,165.78L7.69,141.7L8.51,-59.4L8.59,25.73L8.67,106.88L9.19,169.8L9.57,160.06L9.64,154.66L10.32,135.02L10.4,140.69L10.47,145.19L11.15,174.98L11.38,166.9L11.45,161.78L11.6,149.98L11.91,162.29L12.28,153.33L12.36,156.71L12.96,181.06L13.11,161.27L13.19,149.98L13.64,172.79L13.94,153.59L14.02,154.41L14.69,183.75L14.84,178.96L14.92,165.05L15.37,168.28L15.75,145.73L15.82,148.42L16.35,181.45L16.65,176.6L16.73,163.79L17.26,164.23L17.56,138.19L17.63,139.67L18.31,180.91L18.46,176.29L18.54,160.39L18.61,143.76L19.06,168.88L19.29,154.24L19.37,144.35L20.12,182.57L20.34,166.06L20.42,147.41L20.87,167.51L21.17,149.73L21.25,150.3L22,184.61L22.23,177.09L22.3,173.1L22.45,164.51L22.76,174.02L23.06,166.75L23.13,169.25L23.21,169.54L23.28,173.67L23.58,185.24L24.04,176.28L24.11,170.15L24.87,157.38L24.94,163.26L25.02,165.86L25.62,183.54L25.69,178.78L25.77,165.49L26.3,169.81L26.6,153.28L26.67,150.56L27.2,177.48L27.5,171.71L27.58,140.12L27.8,78.28L28.11,142.75L28.33,125.35L28.41,118.5L29.24,181.2L29.31,178.18L29.39,165.3L30.22,139.21L30.29,146.14L30.97,181.08L31.2,159.21L31.27,142L31.8,165.89L32.17,156.7L32.25,159.91L32.78,182.47L33,163.18L33.08,148.95L33.53,168.31L33.76,154.55L33.83,145.63L34.74,180.82L34.89,170.99L34.96,163.36L35.42,163.99L35.72,143.19L35.79,148L35.87,153.84L36.47,178.94L36.7,175.03L36.77,167.42L37.52,157.12L37.6,157.79L37.68,160.62L38.28,188.16L38.43,163.53L38.5,146.9L39.11,165.75L39.33,159.2L39.41,161.22L39.48,160.04L39.63,167.69L39.71,170.5L40.01,196.79L40.31,154.25L40.39,163.48L40.46,162.35L41.07,161.18L41.9,195.69L41.97,193.65L42.05,184.07L42.12,167.86L42.8,177.01L42.87,173.22L43.1,175.51L43.18,178.13L43.55,189.17L43.78,185.47L43.85,173.03L44.38,175.19L44.68,153.4L44.76,153.92L44.83,162.35L44.98,168.76L45.06,174.39L45.51,187.66L45.59,185.83L45.66,173.7L45.74,165.53L46.19,182.84L46.27,181.48L46.34,181.28L46.49,172.5L47.02,180.71L47.09,183.21L47.32,183.48L47.4,183.13L47.47,178.41L47.77,165L48.45,166.03L48.53,166.45L49.05,180.8L49.35,175.18L49.43,171.41L49.51,168.12L49.73,177.65L50.18,169.56L50.26,171.25L50.41,174.45L50.49,177.12L50.86,185.55L51.01,181.02L51.09,172.56L51.54,178.47L51.92,152.06L51.99,155.86L52.07,159.52L52.67,187.96L52.9,172.29L52.97,163.82L53.5,182.25L53.88,175.15L53.95,177.25L54.48,188.35L54.63,184.09L54.7,175.05L54.78,167.13L55.23,178.5L55.38,177.28L55.46,175.86L55.53,173.21L55.99,182.4L56.06,182.59L56.14,185.42L56.44,180.2L56.51,169.87L56.59,163.45L57.04,175.23L57.19,173.74L57.27,171.91L57.49,167.01L57.87,175.74L57.94,178.68L58.02,179.03L58.1,178.12L58.17,178.62L58.25,175.49L58.4,154.05L59,172.04L59.08,169.17L59.3,163.64L59.6,179.6L59.68,178.34L59.75,181.28L59.98,194.59L60.13,187.98L60.21,179.47L61.03,164.38L61.11,166.34L61.34,176.37L61.41,179.8L61.79,197.88L62.01,195.27L62.09,188.66L62.84,168.19L62.99,169.76L63.07,172.48L63.52,197.02L63.67,191.49L63.75,172.86L63.82,165.06L64.2,177.5L64.5,172.21L64.58,165.95L64.65,164.27L64.95,174.02L65.03,176.94L65.18,181.74L65.48,176.33L65.56,163.81L65.63,151.84L66.23,169.57L66.31,166.18L66.38,163.62L66.76,173.27L66.84,174.49L66.99,180.49L67.29,175.22L67.36,158.4L67.82,165.58L68.19,142.29L68.27,135.47L68.87,177.89L69.1,171.75L69.17,156.81L69.25,133.97L69.85,162.59L69.93,161.06L70,151.91L70.53,178.71L70.6,182.21L70.83,184.4L70.91,180.57L71.06,161.55L71.66,176.2L71.73,172.66L71.88,167.4L72.26,178.49L72.34,180.67L72.41,183.26L72.86,175.31L72.94,170.12L73.62,156L73.77,163.53L73.84,166.76L74.45,187.63L74.75,176.6L74.82,171.87L75.2,175.67L75.5,163.57L75.65,168.47L75.73,172.51L76.1,184.19L76.33,178.68L76.41,168.36L76.48,152.73L77.01,177.11L77.08,176.72L77.16,169.56L77.31,159.26L77.76,181.26L77.84,184.49L77.99,185.59L78.06,184.25L78.14,180.87L78.29,160.08L78.82,183.15L78.89,181.71L79.12,159.91L79.5,178.75L79.57,182.36L79.8,184.89L79.95,179.87L80.02,170.05L80.1,156.45L80.4,172.38L80.78,164.14L80.85,158.72L80.93,156.83L81.15,167.63L81.23,173.34L81.61,181.59L81.76,177.94L81.83,166.78L81.91,152.12L82.36,171.9L82.58,163.91L82.66,159.82L82.74,157.98L82.89,166.26L82.96,171.56L83.41,185.3L83.64,171.09L83.72,164.82L84.17,179.93L84.47,171.26L84.54,169.98L84.77,174.19L84.85,179.17L85.22,186.31L85.45,181.32L85.52,179.46L86.35,155.7L86.43,161.77L86.5,167.05L87.18,188.2L87.41,181.5L87.48,178.86L87.56,178.18L87.86,181.71L88.01,179.24L88.09,172.02L88.16,169.77L88.46,179.86L88.54,182.21L88.69,186.71L88.99,181.23L89.06,171.8L89.14,154.36L89.59,177.59L89.74,175.32L89.82,171.23L89.97,154.82L90.42,180.58L90.5,183.44L90.72,183.82L90.8,182.25L90.95,150.85L91.4,183.51L91.48,183.4L91.55,182.53L91.78,170L92.08,181.59L92.15,182.96L92.53,190.45L92.68,178.89L92.76,170.58L93.21,181.29L93.51,172.38L93.59,171.34L93.96,184.28L94.04,187.69L94.11,190.27L94.41,183.6L94.49,172.95L94.64,164.63L95.17,177.2L95.24,173.24L95.32,171.98L95.62,176.54L95.7,181.52L96.07,187.26L96.22,184.71L96.3,173.79L96.37,166.95L96.75,182.15L96.98,180.55L97.05,175.96L97.2,171.36L97.65,180.25L97.73,183L97.88,184.32L98.11,178.46L98.18,176.83L98.71,177.29L99.01,161.81L99.09,169.38L99.16,170.63L99.69,183.08L99.99,178.4L100.07,173.83L100.52,178.68L100.82,158.09L100.9,165.56L100.97,169.6L101.57,184.8L101.72,173.22L101.8,163.04L102.33,179.9L102.55,166.59L102.63,161.53L103.23,183.69L103.46,179.64L103.53,167.38L103.61,146.97L104.14,182L104.21,181.71L104.29,178.1L104.51,170.95L104.89,183.11L104.96,184.63L105.04,185.56L105.27,181.63L105.34,172.59L105.42,162.95L105.94,183.46L106.02,183.16L106.25,171.85L106.7,183.72L106.77,187.79L107.07,183.66L107.15,174.41L107.22,166.12L107.6,182.87L107.83,181.83L107.9,179.1L108.13,171.53L108.51,182.25L108.58,185.64L108.66,185.81L108.73,184.63L108.81,184.78L108.88,181.91L109.03,163.4L109.56,179.38L109.64,180.24L109.86,167.71L110.24,179.02L110.31,181.87L110.39,183.45L110.77,180.1L110.84,177L111.07,168.08L111.37,181.54L111.59,171.29L111.67,174.19L111.75,173.48L111.9,175.8L111.97,179.25L112.12,180.57L112.2,183.23L112.42,184.56L112.57,181.2L112.65,167.2L112.73,160.98L113.18,177.42L113.25,175.93L113.33,174.31L113.48,166.46L114.01,181.17L114.08,179.83L114.31,175.42L114.38,168.15L114.46,158.79L114.91,177.72L114.99,177.55L115.06,177.33L115.29,154.43L115.59,172.19L115.66,172.67L115.89,179.23L116.12,172.49L116.19,154.82L116.27,133.05L116.87,170L116.94,163.7L117.17,135.98L117.62,173.59L117.7,173.94L117.92,168.81L118,152.45L118.08,126.67L118.68,169.32L118.75,164.06L118.9,140.16L119.43,172.56L119.51,172.57L119.58,172.9L119.66,171.34L119.73,166.57L119.88,125.79L120.34,172.49L120.41,172.84L120.49,173.89L120.56,168.79L120.64,163.47L120.79,153.2L121.24,177.88L121.32,178.23L121.47,178.46L121.54,176.34L121.69,157.43L122.29,174.91L122.37,170.63L122.6,160.59L122.97,173.76L123.05,178.14L123.27,183.89L123.5,174.11L123.58,174.12L123.65,170.93L124.1,171.42L124.33,161.75L124.48,162.57L124.56,167.34L124.86,176.77L125.23,171.17L125.31,166.39L125.53,159.4L125.91,170.29L126.14,159.7L126.21,159.6L126.74,174.58L126.97,167.72L127.04,158.32L127.12,136.51L127.72,170.89L127.8,167.79L128.02,150.92L128.4,176.22L128.47,179.51L128.62,179.91L128.7,179.81L128.77,177.77L128.93,155.89L129.53,175.04L129.6,171.22L129.68,166.52L130.13,177L130.21,179.79L130.43,181.77L130.58,178.34L130.66,168.6L130.73,160.86L131.19,178.68L131.26,178.11L131.34,178.71L131.56,167.94L132.02,179.78L132.09,182.7L132.39,177.93L132.47,167.41L132.54,159.14L132.99,181.05L133.07,180.44L133.15,179.68L133.52,168.95L133.82,180.15L133.9,182.29L133.97,184.67L134.28,170.75L134.35,161.61L134.73,181.22L135.1,172.77L135.18,170.53L135.33,170.43L135.41,171.84L135.78,183.08L136.16,177.23L136.23,175.56L136.99,155.73L137.06,160.14L137.14,170.24L137.67,185.75L137.97,177.57L138.04,165.65L138.12,165.2L138.19,167.14L138.27,171.5L139.17,182.73L139.25,184.12L139.47,187.72L139.7,175.93L139.78,157.29L140.23,181.49L140.68,174.51L140.76,176.53L141.28,186.14L141.43,183.2L141.51,172.14L141.58,144.31L142.04,180.46L142.19,178.62L142.26,175.29L142.41,132.91L142.94,184.34L143.02,184.43L143.24,179.43L143.32,167.86L143.39,148.08L143.85,175.18L144,174.27L144.07,172.87L144.22,144.46L144.67,181.74L144.75,185.46L144.98,187.06L145.05,183.69L145.13,174.23L145.2,167L145.8,181.89L145.88,178.92L146.11,172.26L146.48,184.55L146.56,187.71L146.71,188.02L146.78,187.91L146.86,185.43L147.01,174.25L147.39,194.47L147.54,190.85L147.61,189.17L147.91,173.97L148.29,189.64L148.37,192.32L148.44,192.46L148.67,191.67L148.74,190.08L149.72,168.62L149.8,171.59L149.87,175.48L150.17,185.26L150.55,174.94L150.63,165.19L150.7,163.44L151,172.48L151.08,173.53L151.15,174.44L151.3,167.28L151.38,155.21L151.46,131.08L151.98,179.86L152.06,179.96L152.21,180.52L152.28,176.53L152.44,152.53L152.89,180.05L152.96,179.45L153.04,177.33L153.34,167.03L153.72,175.58L153.79,178.59L154.09,175.03L154.17,164.48L154.24,157.52L154.7,172.89L154.77,170.68L154.85,173.49L155.15,164.27L155.52,174.34L155.6,177.5L155.98,163.97L156.05,158.82L156.65,180.09L156.81,170.72L156.88,168.09L157.11,172.51L157.18,179.92L157.63,193.92L157.79,182.47L157.86,170.33L158.24,189.82L158.54,174.06L158.61,168.96L158.84,166.28L159.07,174.81L159.14,177.79L159.22,179.36L159.52,176.62L159.59,166.79L159.67,160.75L160.05,184.24L160.12,185.07L160.57,166.77L160.95,177.66L161.03,180.5L161.25,180.52L161.33,181.83L162.23,171.19L162.31,169.28L162.83,181.87L162.91,183.86L162.98,184.64L163.14,182.53L163.21,178.49L163.36,173.68L163.44,171.03L163.51,170.43L163.59,172.3L163.66,176.79L163.81,180.96L164.11,174.07L164.19,173.55L164.27,172.97L164.34,176.7L164.42,179.57L164.87,195.66L165.02,173.35L165.09,168.33L165.55,184.64L165.85,176.77L165.92,171.31L166.07,170.44L166.15,173.29L166.22,174.89L166.3,175.02L166.38,178.16L166.68,181.95L166.83,170.3L166.9,143.17L167.51,177.95L167.81,167.26L167.88,166.71L168.33,184.52L168.56,180.56L168.64,170.13L168.71,162.58L169.24,183.09L169.31,182.91L169.62,159.94L169.92,178.5L169.99,182.46L170.22,186.19L170.44,173.35L170.52,170.4L171.12,189.67L171.27,182.21L171.35,176.15L171.5,176.1L171.57,177.77L171.88,188.58L172.25,176.04L172.33,168.27L172.78,181.68L173.08,174.62L173.16,171.08L173.31,172.42L173.38,175.12L173.99,198.22L174.29,192.42L174.36,191.87L174.66,198.12L174.89,191.78L174.97,177.52L175.04,174.64L175.42,184.26L175.49,187.24L176.17,175.57L176.32,182.76L176.4,182.76L176.92,176.31L177.3,190.02L177.38,190.09L177.53,190.22L177.6,187.42L177.75,164.85L178.13,191.62L178.21,193.35L178.28,194.07L178.43,188.73L178.51,182.49L178.66,181.02L178.88,185.95L178.96,188.09L179.18,199.73L179.56,176.43L179.64,182.52L179.71,183.94L180.09,195.15L180.16,190.17L180.24,185.02L180.54,148.7L180.62,167.75L180.69,184.75L180.92,192.03L180.99,195.57L181.07,198.15L181.29,181.79L181.37,175.44L181.82,186.31L182.12,180.37L182.2,178.34L182.35,174.49L182.42,175.67L182.5,180.77L182.95,194.58L183.1,189.52L183.18,186.75L183.33,179.83L183.71,199.55L183.78,199.63L184.16,183.72L184.53,198.11L184.61,199.2L184.76,199.51L184.84,198.54L184.91,194.8L185.14,190.97L185.21,197.29L185.29,198.2L185.59,204.97L185.74,195.4L185.82,192.86L185.97,189.23L186.34,201.19L186.42,201.17L186.64,200.14L186.72,196.04L187.47,186.19L187.55,179.24L187.77,176.93L188,183.95L188.08,186.76L188.38,192.03L188.68,183.51L188.75,178.03L189.13,192.39L189.28,188.7L189.36,184.06L189.58,183.82L189.96,197.82L190.04,199.4L190.11,200.26L190.26,194.15L190.34,188.93L190.56,182.85L191.01,190.37L191.17,184.66L191.24,183.91L191.32,182.64L191.62,188.15L191.77,187.2L191.84,187.3L191.99,187.29L192.07,185.06L192.22,173.24L192.52,197.98L192.67,197.97L192.75,199.61L193.2,177.77L193.58,190.42L193.65,190.37L193.95,178.03L194.03,148.41L194.63,199.46L194.78,183.94L194.86,180.15L194.93,177.33L195.31,189.05L195.39,192.79L195.61,193.23L195.69,191.49L195.76,182.33L195.84,177.65L196.21,198.74L196.29,199.09L196.36,200.7L196.59,199.82L196.67,181.8L197.27,194.25L197.5,192.17L197.57,182.89L198.17,202.17L198.4,199.87L198.47,185.03L198.55,182.76L198.93,190.33L199,191.95L199.08,190.41L199.3,195.17L199.45,191.45L199.53,198.01L199.98,201.1L200.21,199.66L200.28,183.07L200.43,181.86L200.51,185.14L200.58,186.53L201.87,199.46L201.94,199.34L202.02,183.97L202.17,184.31L202.24,182.42L202.32,186.04L202.69,194.43L202.92,191.12L203,182.58L203.07,143.44L203.75,176.27L203.82,173.72L204.05,173.53L204.13,175.45L204.58,184.09L204.73,178.9L204.8,168.08L204.88,149.25L205.48,172.6L205.56,170.43L205.86,164.08L206.16,176.14L206.24,178.33L206.46,179.04L206.54,175.9L206.69,152.28L207.29,170.91L207.37,168.56L207.52,156.57L207.97,173.09L208.04,178.31L208.27,177.62L208.35,173.42L208.5,143.16L209.02,175.25L209.1,174.2L209.33,158.68L209.4,142.94L209.48,139.84L209.55,153.09L209.63,168.09L209.93,179.25L210.15,177.12L210.23,167.41L210.3,164.04L210.61,181.98L210.68,184.85L210.83,186.29L210.91,185.73L210.98,180.69L211.28,165.42L211.59,181.13L211.66,186.83L212.11,197.87L212.19,189.85L212.26,183.42L212.34,181.77L212.64,190.14L212.72,193.57L213.09,174.74L213.47,185.87L213.54,186.27L213.7,187.29L213.85,184.22L213.92,177.71L214,169.19L214.45,186.35L214.6,181.97L214.68,178.02L214.9,173.36L215.2,183.9L215.28,186.82L215.5,186.85L215.58,185.28L215.73,172.37L216.18,193.7L216.26,196L216.63,178.9L216.94,184.42L217.01,189.75L217.24,194.56L217.46,189.41L217.84,193.97L217.92,195.93L218.14,198.31L218.29,195.94L218.37,189.21L218.52,180.62L218.89,196.81L218.97,196.38L219.05,197.02L219.2,190.59L219.27,178.75L219.35,173.48L219.57,202.51L219.72,197.84L219.8,199.69L219.95,197.43L220.03,191.55L220.25,181.88L220.7,194.96L220.78,194.83L221.16,181.92L221.38,188.16L221.46,190.21L221.68,191.95L221.91,185.84L221.98,183.95L222.13,182.58L222.21,184.73L222.29,188.66L222.59,197.9L222.81,194.62L222.89,187.6L222.96,180.71L223.42,194.47L223.57,189.21L223.64,188.02L223.94,183.31L224.17,191.15L224.24,192.72L224.62,194.12L224.7,191.26L224.77,190.3L224.92,185.82L225.15,197.61L225.22,197.31L225.3,198.62L225.75,181.87L226.05,190.93L226.13,193.12L226.43,195.01L226.58,188.19L226.66,180.06L226.73,176.16L227.11,189.55L227.26,188.24L227.33,185.16L227.56,174.6L228.01,190.18L228.09,190.29L228.16,190.96L228.24,189.07L228.31,169.93L228.39,157.07L228.84,200.06L228.92,202.27L229.37,167.39L229.75,190.08L229.82,191.75L230.05,189.9L230.12,173.36L230.2,159.99L230.65,198.56L230.72,200.16L230.8,200.34L230.88,186.88L231.1,172.17L231.48,192.96L231.55,195.89L231.78,195.93L231.86,194.57L232.01,185.42L232.46,204.59L232.53,205.18L232.68,202.09L232.76,189.44L232.99,186.37L233.29,193.66L233.36,196.44L233.59,196.44L233.66,201.61L233.81,198.19L234.27,204.53L234.34,204.17L234.42,202.01L234.72,199.52L234.79,187.92L236.15,205.24L236.23,201.53L236.6,186.97L236.98,197.31L237.05,197.35L237.36,202.81L237.43,204.12L237.96,205.52L238.18,204.96L238.26,201.61L238.34,200.55L238.86,203.52L238.94,203.59L239.31,200.55L239.47,202.42L239.54,204.38L239.77,205.58L239.99,202.77L240.07,201.31L240.14,195.57L240.6,203.94L240.75,203.94L240.82,203.94L240.9,203.69L240.97,200.29L241.05,200.13L241.12,201.34L241.2,202.81L241.58,205.94L241.88,203.2L241.95,201.43L242.03,195.75L242.63,203.19L242.71,203.37L242.86,199.69L243.38,205.19L243.46,205.11L243.84,200.96L243.91,195.26L244.51,204.18L244.59,195.88L244.66,190.23L245.19,205.19L245.42,203.74L245.49,194.86L245.57,193.02L245.95,199.74L246.02,202.39L246.62,205.12L246.7,197.04L246.77,197.21L246.85,205.67L247,206.54L247.15,205.44L247.23,197L247.45,192.23L247.83,198.3L247.91,198.54L248.06,198.64L248.13,197.8L248.21,192.21L248.28,191.04L248.36,202.26L248.43,200.7L248.51,202.43L248.81,205.36L249.04,203.36L249.11,193.62L249.26,190.82L249.56,196.75L249.64,198.85L250.09,198.14L250.62,206.18L250.77,205.02L250.84,195.41L250.99,192.19L251.37,198.12L251.45,200.16L251.75,200.2L251.82,199.08L251.9,198.01L252.12,202.5L252.2,204.45L252.43,205.61L252.65,203.13L252.73,201.92L252.88,195.18L253.48,201.15L253.56,203.16L253.71,198.81L254.31,203.03L254.39,203.08L254.61,201.72L254.84,202.07L254.91,200.11L255.14,203.41L255.52,199.74L255.59,200.79L255.67,200.11L256.04,203.93L256.42,201.38L256.5,201.43L257.17,202.94L257.25,200.2L257.78,199.11L257.85,202.53L257.93,196.76L258.38,193.04L258.53,196.35L258.6,199.79L258.91,205.09L259.51,204.69L259.58,204.74L259.66,205.9L259.96,203.68L260.11,204.85L260.19,198L260.26,197.68L260.41,200.05L260.49,202.14L260.79,203.29L261.09,200.47L261.17,201.5L261.24,202.87L261.47,205.18L261.62,203.96L261.69,194.11L261.92,192.09L262.15,196.25L262.22,199.05L263.28,205.51L263.35,205.2L263.43,203.57L263.5,203.06L263.58,194.96L263.73,193.64L264.03,198.65L264.11,199.81L264.41,200.89L264.48,199.54L264.56,201.98L265.16,203.06L265.39,192.53L265.54,193.74L265.61,195.07L266.22,203.3L266.74,201.77L266.82,201.77L266.97,202.86L267.04,195.47L267.12,194.43L267.19,193.51L267.57,194.99L267.65,197.85L267.95,199.29L268.02,198.24L268.1,191.53L268.17,180.71L268.7,202.47L268.78,202.29L268.85,201.71L269,199.4L269.08,182.37L269.76,202.91L269.83,202.83L269.91,199.96L270.13,196.66L270.59,202.3L270.66,202.24L270.96,189L271.19,193.71L271.26,199.48L271.64,202.84L271.79,195.78L271.87,197.12L271.94,195.29L272.39,202.33L272.77,201.14L272.85,196.3L273.3,204.08L273.68,201.39L273.75,200.17L274.13,205L274.43,202.48L274.5,192.97L274.58,191.62L274.88,196.67L274.96,199.16L275.94,205.56L276.01,205.52L276.09,205.24L276.16,204.84L276.24,194.2L276.39,191.34L276.76,200.86L276.84,200.87L277.74,205.77L277.82,204.7L278.05,203.04L278.12,195.59L278.2,193.28L278.5,199.21L278.57,206.03L279.1,201.68L279.4,204.17L279.48,204.66L279.55,206.06L279.93,203.41L280.08,204.66L280.16,198.62L280.61,203.86L280.91,199.97L280.98,199.3L281.36,203.15L281.74,200.33L281.81,200.49L281.89,191.7L282.42,202.95L282.49,202.94L282.57,199.63L282.64,198.78L283.02,202.16L283.09,202.65L283.17,203.19L283.47,201.51L283.55,200.15L284.22,202.71L284.3,202.55L284.37,199.52L284.6,197.71L284.83,201.29L284.9,202.05L284.98,203.76L285.35,200.17L285.58,201.13L285.66,201.17L286.26,199.96L286.56,204.8L286.64,205.1L286.79,206.23L287.09,203.02L287.16,201.26L287.62,203.4L287.69,204.26L287.99,204.16L288.59,207.69L288.67,207.13L288.75,205.57L289.2,200L289.57,202.79L289.65,202.92L289.95,201.07L290.4,202.46L290.48,202.44L290.63,202.13L290.7,200.13L290.93,201.05L291.01,197.9L291.08,200.75L291.16,201.52L291.31,203.77L291.61,198.48L291.68,193.43L292.21,203.6L292.51,202L292.59,199.88L292.74,199.87L292.81,195.89L293.12,203.51L293.34,202.35L293.42,198.82L293.49,191.2L294.02,202.06L294.1,201.84L294.17,201.59L294.32,201.44L294.4,200.02L294.62,200.74L294.7,201.08L295.07,202.4L295.15,202.3L295.23,198.98L295.38,194.51L295.83,201.8L295.9,201.63L295.98,201.72L296.21,200.09L296.43,200.99L296.51,201.17L296.96,202.73L297.03,199.52L297.26,199.13L297.49,200.62L297.56,200.77L297.64,202.25L298.31,201.56L298.39,201.58L298.77,204.85L299.29,204.65L299.37,204.68L299.45,205.3L299.75,203.56L299.82,201.4L299.9,201.07L300.12,201.67L300.2,203.56L300.5,205.49L300.95,204.67L301.03,204.67L301.33,205.24L301.4,204.69L301.48,203.08L301.63,200.91L302.23,202.8L302.31,202.85L302.61,194.6L302.76,199.23L302.84,200.53L303.06,202.36L303.29,199.11L303.36,194.86L303.44,191.89L303.89,202.79L303.97,202.79L304.19,202.49L304.27,199.73L304.49,195.97L304.64,200.92L304.72,200.96L305.02,202.57L305.25,201.24L305.32,201.29L306,202.79L306.08,199.82L306.15,191.6L306.75,203.69L306.83,202.87L307.13,200.41L307.51,202.68L307.58,202.71L307.81,202.74L307.88,199.89L308.11,197.22L308.41,200.17L308.49,201.84L308.79,201.84L308.86,200.55L309.24,201.35L309.32,202.54L309.62,202.59L309.69,199.63L309.92,199.43L310.6,202.19L310.67,200.98L311.05,201.48L311.12,202.62L311.43,202.68L311.5,199.84L312.1,205.22L312.33,202.28L312.41,202.16L312.48,200.95L313.08,202.51L313.16,202.52L313.31,200.89L313.69,204.47L313.76,204.51L313.91,205.23L314.06,204.1L314.14,202.37L314.29,200.82L314.82,202.59L314.89,202.59L315.04,202.63L315.12,201.53L315.42,201.42L315.57,202.02L315.65,202.24L315.72,203L316.02,201.54L316.32,202.65L316.4,201.58L316.78,203.22L316.85,203.15L316.93,200.73L317.15,200.45L317.23,201.81L317.3,202.39L317.53,203.82L317.83,202.8L317.91,201.71L318.28,202.16L318.36,203.19L318.66,203.24L318.74,200.47L318.96,200.03L319.26,201.45L319.34,202.6L319.79,201.26L320.09,202.03L320.17,203.02L320.47,203.07L320.54,200.19L320.77,199.89L321.15,203.04L321.45,202.43L321.52,201.3L321.9,201.95L321.98,203.11L322.28,203.46L322.35,200.61L322.43,200.25L322.65,202.47L322.73,204.2L323.03,205.3L323.18,203.17L323.26,202.7L323.33,201.43L323.93,203.84L324.01,203.88L324.39,200.73L324.61,204.63L324.69,204.63L324.76,204.01L325.14,201.85L325.52,203.42L325.59,203.42L325.89,203.5L325.97,201.99L326.19,204.03L326.27,204.54L326.57,205.16L326.65,203.66L326.95,201.42L327.4,203.41L327.48,203.43L327.7,203.43L327.78,202.31L328.3,202.21L328.38,203.45L328.46,203.62L328.61,203.33L328.68,202.24L329.43,203.44L329.51,203.42L329.59,201.16L329.81,200.9L329.89,202.21L329.96,202.27L330.11,202.37L330.19,203.51L330.49,203.41L330.57,202.25L330.64,202.08L330.72,196.5L331.09,203.43L331.54,201.38L331.62,200.1L332.3,202.81L332.45,201.62L332.52,201.6L333.05,205.48L333.13,205.46L333.2,201.6L333.28,201.2L333.35,202.26L333.43,201.89L333.5,204.89L333.81,207.14L334.03,205.73L334.11,204.89L334.33,201.54L334.78,206.06L334.86,206.04L334.94,205.81L335.01,202.26L335.09,201.22L335.39,205.2L335.46,205.2L335.54,205.24L335.61,205.85L335.92,203.11L335.99,201.66L336.14,201.52L336.22,202.05L336.37,202.06L336.44,203.26L336.67,203.47L336.74,204.65L336.82,203.93L337.12,205.24L337.35,205.25L337.42,205.99L337.8,205.2L337.87,204.59L337.95,200.42L338.33,206.33L338.55,206.28L338.63,205.24L338.93,206.02L339,206.19L339.23,207.15L339.31,205.77L339.61,201.68L340.13,203.41L340.21,203.43L340.36,203.42L340.44,202.21L340.81,202.15L340.89,202.63L340.96,202.87L341.04,203.81L341.34,202.16L341.64,203.27L341.72,202.19L342.09,203.44L342.24,201.11L342.32,200.82L342.85,204.1L343.15,203.14L343.22,201.98L343.6,202.31L343.68,203.57L343.83,203.92L343.98,203.59L344.05,200.44L344.28,200.26L344.73,202.85L344.96,202.72L345.03,201.49L345.41,202.17L345.48,203.3L345.79,203.36L345.86,200.43L346.09,200.31L346.77,202.79L346.84,201.58L347.22,202.23L347.29,203.35L347.59,203.36L347.67,200.51L347.9,200.42L348.57,202.88L348.65,201.69L349.03,202.48L349.1,203.56L349.4,203.77L349.48,201.17L350.08,205.9L350.31,204.29L350.38,203.57L350.53,201.94L351.06,203.59L351.14,203.54L351.29,202.45L351.59,205.48L351.66,205.52L351.89,206.28L351.96,206.17L352.04,205.21L352.27,201.86L352.79,203.55L352.87,203.57L353.02,203.65L353.1,202.54L353.32,202.33L353.4,202.57L353.47,203.61L353.7,204.74L354,202.47L354.07,202.47L354.83,203.87L354.9,201.82L355.13,201.42L355.2,202.8L355.28,203.62L355.51,205.1L355.81,203.59L355.88,202.54L356.26,202.73L356.34,203.84L356.64,203.97L356.71,201.33L356.94,201.06L357.31,204.82L357.62,203.49L357.69,202.41L358.07,202.97L358.14,204.11L358.45,204.15L358.52,201.63L358.67,202.44L358.75,201.26L359.05,202.14L359.12,203.15L359.27,203.63L359.5,202.55L359.8,202.97L359.88,203.09L360.25,204.24L360.4,201.75L360.48,202.64L360.55,201.67L361.23,203.74L361.38,202.67L361.46,197.23L362.06,204.51L362.36,201.63L362.44,202.86L362.74,205.81L362.89,203.95L362.97,196.48L363.04,203.72L363.72,203.41L363.79,203.53L364.1,202.29L364.55,205.68L364.62,204.52L364.7,203.85L364.85,202.8L364.93,196.75L365.53,204.58L365.83,203.26L365.9,203.21L366.06,203.25L366.13,194.95L366.43,204.55L366.88,198.48L366.96,198.73L367.49,204.35L368.01,203.37L368.09,203.38L368.32,204.33L368.54,203.26L368.62,203.34L368.69,198.77L369.3,204.52L369.37,202L369.45,201.89L369.97,205.37L370.05,200.2L370.12,204.19L370.2,196.52L370.35,196.28L370.43,202.68L371.1,204.48L371.18,201.97L371.41,201.63L371.63,202.81L371.71,203.4L371.78,204.38L372.16,202.7L372.46,203.54L372.54,203.63L372.84,204.66L373.06,202.22L373.14,203.09L373.21,202.13L373.67,204.2L373.89,204.07L373.97,197.27L374.57,204.63L374.8,202.19L374.87,202.13L375.02,201.95L375.4,204.32L375.7,203.99L375.78,202.94L375.93,198.12L376.45,204.57L376.53,204.58L376.76,202.98L377.13,207.68L377.21,209.17L377.58,203L378.11,204.49L378.19,204.49L378.64,202.95L378.79,203.61L378.87,205.33L379.02,206.28L379.32,203.09L379.39,203.13L380.15,204.37L380.22,202.52L380.45,202.44L380.82,206.19L381.13,204.29L381.2,203.4L381.58,203.39L381.65,204.33L381.95,204.4L382.03,201.96L382.18,202.81L382.26,201.76L382.41,202.7L382.48,203.03L382.63,204.14L383.08,202.9L383.24,203.4L383.31,203.38L383.76,204.38L383.84,201.85L384.06,201.66L384.74,203.84L384.82,202.83L385.19,203.41L385.27,204.37L385.57,204.41L385.65,201.83L385.87,201.71L386.48,203.93L386.55,203.91L386.63,202.9L387,203.53L387.08,204.47L387.38,204.59L387.46,202.23L387.61,203.01L387.68,202.02L387.83,203.06L387.91,203.73L388.06,205.54L388.43,202.93L388.59,203L388.66,203.51L389.19,204.64L389.34,203.13L389.41,202.98L389.72,204.84L389.79,205.28L389.87,205.72L390.09,204L390.17,202.6L390.92,204.44L391,204.28L391.07,203.21L391.52,202.94L391.6,203L391.67,204.03L391.83,204.07L391.9,198.25L391.98,198.12L392.13,198.29L392.2,200.31L392.81,204.49L393.03,203.07L393.11,201.94L393.48,204.55L393.94,203.15L394.01,203.24L394.24,203.44L394.31,204.42L394.61,204.44L394.69,201.89L394.91,201.78L395.59,203.91L395.67,202.94L396.05,203.58L396.12,204.56L396.42,204.64L396.5,202.08L396.72,201.88L397.4,203.95L397.48,202.97L397.85,203.77L397.93,204.64L398.23,205.96L398.31,203.17L398.53,202.29L398.68,204.88L398.76,205.27L398.91,205.94L399.13,205.66L399.21,198.24L399.36,196.67L399.44,197.63L399.51,203.83L399.59,199.62L400.04,206.24L400.19,204.32L400.26,204.28L400.72,208.6L400.79,207.89L400.87,206.01L401.17,203.83L401.4,204.79L401.47,206.23L401.85,206.31L401.92,205.28L402.15,204.27L402.22,205.35L402.45,210.13L402.68,204.73L402.75,204.76L402.83,204L402.9,199.82L403.43,206.23L403.5,206.23L403.58,206.14L403.88,203.9L404.48,204.8L404.56,204.62L404.71,203.47L405.16,204.99L405.24,204.97L405.31,204.92L405.46,204.72L405.54,202.83L405.77,202.22L406.07,203.98L406.14,204.74L406.52,203.57L406.9,204.04L406.97,204.92L407.27,204.95L407.35,202.74L407.57,202.21L408.03,204.47L408.25,204.12L408.33,203.27L409.08,204.98L409.16,202.54L409.38,202.32L409.76,205.04L410.06,204.32L410.14,203.43L410.44,204.14L410.51,204.37L410.89,205.62L411.04,202.67L411.12,203.49L411.19,202.5L411.42,201.05L411.87,204.68L412.09,203.83L412.17,204.41L412.7,205.64L412.77,203.68L413,203.2L413.3,204.31L413.38,205.09L413.9,203.84L414.05,204.58L414.13,205.56L414.51,205.45L414.58,204.27L415.11,204.26L415.18,205.09L415.56,204.2L415.64,205.13L415.86,205.07L416.24,205.78L416.39,205.13L416.47,204.75L416.54,204.58L416.92,204.82L416.99,205.48L417.37,204.38L417.44,205.25L417.52,205.31L417.67,204.96L418.12,205.97L418.2,204.66L418.42,204.21L418.73,205.21L418.8,205.87L419.48,205.48L419.55,205.67L419.63,206.23L419.93,206.22L420.01,204.41L420.23,203.69L420.53,205.28L420.61,205.89L420.91,205.17L420.99,204.54L421.59,206.13L421.74,206.06L421.82,204.09L422.04,203.04L422.34,205.33L422.42,205.89L422.95,204.78L423.17,205.5L423.25,206.14L423.55,206.25L423.62,204.41L423.85,204.19L424,205.28L424.08,205.28L424.15,205.34L424.23,206L424.75,204.66L424.9,205.3L424.98,205.58L425.36,206.22L425.51,204.43L425.58,205.05L425.66,204.32L426.03,206.23L426.41,204.98L426.49,204.99L427.09,206.38L427.24,205.28L427.32,205.28L427.69,206.52L427.77,206.89L427.84,207.21L428.14,205.18L428.22,205.18L428.97,206.28L429.05,205.7L429.58,205.51L429.8,206.02L429.88,206.02L430.03,205.56L430.48,206.32L430.56,206.32L430.63,206.32L430.78,206.31L430.86,205.04L431.08,204.49L431.38,205.67L431.46,206.12L432.21,205.79L432.29,206.32L432.59,206.31L432.67,204.48L432.82,204.83L432.89,204.14L433.19,204.87L433.27,205.55L433.49,205.25L433.57,200L433.8,201.31L433.87,205.41L434.25,206.23L434.4,206.07L434.47,204.01L434.62,204.28L434.7,203.34L434.78,204.33L434.85,204.74L435.38,205.48L435.45,200.8L436.21,206.32L436.28,204.59L436.43,204.92L436.51,204.22L436.81,204.99L436.89,205.67L437.11,205.54L437.19,200.64L437.26,199.75L437.64,204.22L437.71,205.99L438.02,206.02L438.09,204.22L438.32,204.16L438.69,205.86L439,205.45L439.07,200.52L439.22,200.26L439.3,205.27L439.82,205.58L439.9,204.36L440.13,203.48L440.35,205.25L440.43,205.25L440.5,205.75L440.73,202.96L440.8,201.67L440.88,199.83L441.33,205.25L441.41,205.4L441.63,205.41L441.71,204.47L441.86,196.75L442.46,201.79L442.54,201.75L442.61,200.23L442.91,205.14L443.14,204.75L443.21,204.78L443.44,204.79L443.52,202.96L443.74,198.89L444.12,204.1L444.19,203.94L444.27,203.78L444.42,201.75L444.95,205L445.02,205.04L445.25,205.03L445.32,201.91L445.55,199.07L445.93,203.36L446,203.36L446.08,203.23L446.15,201.62L446.68,204.07L446.76,205.03L447.06,205.03L447.13,202.2L447.21,199.6L447.74,205.63L447.81,205.55L448.11,202.26L448.49,204.35L448.56,205.17L448.87,205.22L448.94,202.97L449.17,202.44L449.32,203.7L449.39,203.86L449.77,204.59L449.85,199.39L449.92,198.55L450.15,204.3L450.22,204.38L450.67,205.88L450.83,204.01L450.9,204.41L450.98,203.42L451.35,205.62L451.81,204.47L451.88,204.51L452.41,206L452.63,204.8L452.71,204.76L452.86,204.67L453.01,205.27L453.09,205.28L453.16,205.78L453.46,204.68L453.69,205.61L453.76,206.18L454.07,206.31L454.59,205.16L454.67,205.18L456.1,206.32L456.18,205.27L456.4,205.01L456.63,205.79L456.7,205.8L456.78,206.33L457.08,206.05L457.15,205.48L457.91,206.12L457.98,204.27L458.21,200.35L458.51,203.21L458.59,204.44L458.81,204.28L459.42,206.31L459.49,206.31L459.72,206.12L459.79,204.25L460.02,203.87L460.24,204.77L460.32,204.72L460.4,205.4L460.62,205.12L460.7,198.5L460.77,198.12L460.92,200.73L461,202.67L461.22,206L461.6,203.97L461.68,198.71L461.75,196.09L462.2,205.09L462.28,205.09L462.5,196.24L463.03,204.08L463.11,204.13L463.26,204.17L463.33,202.92L463.48,196.42L464.01,205.82L464.09,201.02L464.16,199.59L464.31,196.89L464.77,202.14L464.84,205.65L465.14,205.67L465.22,204.48L465.44,204.23L465.67,204.99L465.74,205.08L465.82,205.63L465.9,205.43L465.97,199.35L466.12,197.74L466.42,202.18L466.5,205.03L466.65,205.73L467.03,204.39L467.1,200.63L467.93,189.49L468.01,189.6L468.61,202.11L468.76,199.49L468.83,194.92L468.91,184.18L469.44,204.78L469.51,204.78L469.74,186.23L470.19,204.65L470.27,205.47L470.42,205.72L470.49,203.8L470.72,184.43L470.94,191.69L471.02,197.59L471.25,199.89L471.4,197.67L471.47,190.49L472.3,205.23L472.38,205.17L473.36,196.79L473.43,196.69L473.96,203.96L474.18,201.07L474.26,195.48L474.33,192.99L474.79,199.27L474.86,199.24L474.94,198L475.01,197.24L475.09,204.42L475.16,204.41L475.24,203.54L475.77,205.92L475.84,205.94L475.99,205.95L476.07,203.49L476.29,203.03L476.75,205.05L476.97,204.46L477.05,203.56L477.35,204.29L477.42,205.01L477.8,205.01L477.88,203.73L478.1,196.49L478.48,204.98L478.78,197.15L478.86,196.97L479.46,205.02L479.61,202.62L479.68,201.65L479.76,201.21L479.84,194.28L480.36,204.88L480.59,196.86L480.66,197.19L481.04,200.22L481.12,201.89L481.27,201.93L481.34,201.15L481.49,196.04L481.79,203.78L481.87,203.85L482.02,203.89L482.1,204.7L482.4,195.63L482.85,204.01L482.92,204.89L483.23,204.96L483.3,202.54L483.45,203.24L483.53,202.29L483.68,203.27L483.75,203.38L484.13,204.3L484.58,204.05L484.66,202.27L484.81,204.8L485.11,196.58L485.41,203.04L485.49,203.06L485.71,204.23L485.79,204.14L485.86,198.2L486.09,196.31L486.17,203.1L486.24,203.11L486.77,206.33L486.92,204.12L486.99,202.16L487.52,204.64L487.67,204.12L487.75,197.21L487.9,196.24L488.05,198.35L488.12,203.73L488.27,203.44L488.35,205.07L488.5,206.04L488.8,201.97L488.88,202.83L488.95,202.22L489.33,205.4L489.63,203.48L489.71,202.36L490.01,203.1L490.08,203.94L490.46,203.98L490.54,202.38L490.76,202.12L490.91,202.77L490.99,203.17L491.14,203.8L491.29,203.1L491.36,194.86L491.59,194.23L491.67,196.74L491.74,197.68L492.12,204.62L492.34,198.79L492.42,194.25L492.95,205.06L493.1,197.24L493.17,193.95L493.32,193.03L493.47,196.53L493.55,198.51L493.78,204.7L494.08,197.52L494.15,191.55L494.23,187.96L494.53,202.12L494.83,194.6L494.91,192.57L495.13,185.75L495.51,196.95L495.58,202.96L495.89,202.73L495.96,187.13L496.04,175.41L496.56,201.63L496.64,201.65L496.86,183.78L497.39,197.91L497.47,197.98L497.69,194.14L497.77,184.67L497.84,173.05L498.22,200.73L498.45,190.57L498.52,187.45L498.82,178.3L499.13,192.31L499.2,195.31L499.43,195.56L499.5,192.39L499.65,160.99L499.95,200.24L500.03,200.52L500.18,202.12L500.26,191.81L500.48,175.78L500.56,160.85L501.24,198.29L501.39,188.44L501.46,185.87L501.84,200.97L502.14,189.44L502.21,186.87L502.29,184.69L502.67,191.17L502.74,193.65L503.04,197.41L503.35,190.31L503.42,186.54L503.5,185.57L503.65,191.86L503.72,202.62L503.8,203.45L503.87,193.68L504.17,185.23L504.55,194.17L504.63,196.66L504.78,197.61L504.93,194.78L505,192.81L505.91,182.28L505.98,182.43L506.06,182.52L506.66,190.98L506.74,188.45L506.81,182.01L507.04,172.9L507.26,190.32L507.41,189.34L507.49,188.11L507.79,180.41L508.17,187.39L508.24,191.02L508.32,191.2L508.47,189.97L508.54,187.46L508.7,176.41L509.3,185.57L509.37,181.69L509.6,177.5L509.9,184.87L509.98,187.35L510.2,191.9L510.43,178.54L510.5,174L510.96,192.85L511.33,184.69L511.41,186.22L511.56,188.11L511.63,202.42L511.78,202.25L511.86,203.35L512.16,203.18L512.24,188.02L512.69,200.95L512.99,189.41L513.07,188.66L513.14,187.37L513.52,190.41L513.59,193.83L514.12,184.66L514.35,201.52L514.42,192.33L514.57,197.02L514.8,187.82L514.87,186.02L514.95,184.36L515.25,191.14L515.33,193.51L515.7,202.19L516,193.3L516.08,193.33L516.46,196.23L516.61,190.29L516.68,187.43L516.83,184.57L517.06,190.27L517.13,191.83L517.51,194.9L517.66,191.21L517.74,188.51L517.89,180.86L518.26,188.63L518.57,181.24L518.64,183.37L519.24,195.19L519.39,192.55L519.47,184.8L519.55,152.24L520.07,190.92L520.15,189.66L520.22,186.99L520.45,176.18L520.83,191.22L520.9,197.71L521.05,200.11L521.2,194.94L521.28,181.46L521.35,173.77L521.81,197.71L521.88,197.37L521.96,192.24L522.18,181.74L522.64,195.78L522.71,198.62L522.86,200.83L523.01,193.72L523.09,184.54L523.16,179.82L523.54,191.18L523.69,190.71L523.77,189.66L524.07,184.05L524.37,189.83L524.44,192.21L524.67,193.46L524.82,189.69L524.9,182.39L524.97,178.03L525.5,187.83L525.57,186.78L525.65,183.79L525.88,178.26L526.25,188.72L526.33,191.14L526.7,179.86L526.78,173.39L527.38,181.7L527.53,175.48L527.61,175.24L527.76,175.44L527.83,177.34L528.44,189.58L528.59,183.48L528.66,180.87L528.74,178.48L528.96,193.68L529.04,194.61L529.12,195.53L529.19,194.9L529.27,184.54L529.42,177.49L529.79,197.22L529.87,198.46L530.02,199.52L530.25,198.46L530.32,190.59L531.15,179.28L531.3,180.65L531.38,181.69L531.75,191.19L532.05,188.94L532.13,181.95L532.2,177.77L532.73,188.34L532.81,188.03L533.11,183.06L533.41,187.53L533.49,191.38L533.71,195.02L533.94,182.85L534.01,180.1L534.62,188.51L534.77,184.9L534.84,183.66L534.99,183.71L535.07,186.01L535.6,197.02L535.75,190L535.82,183.1L536.27,188.95L536.57,183.29L536.65,182.43L537.03,194.7L537.1,198.35L537.33,200.23L537.48,197.95L537.55,186.35L537.63,177.07L538.23,188.01L538.31,185.9L538.46,182.07L538.84,190.6L538.91,194.82L539.21,198.38L539.36,187.7L539.44,182.7L539.89,186.11L540.19,182.92L540.27,182.66L540.42,184.64L540.49,187.34L541.1,199.72L541.32,193.43L541.4,191.11L541.77,192.47L542.15,189.03L542.23,189.35L542.68,196.4L542.98,192.66L543.06,189.83L543.88,181.06L543.96,184.43L544.03,185.96L544.41,194.95L544.71,190.67L544.79,182.35L544.86,115.13L545.47,187.76L545.54,186.12L545.62,185L545.99,188.9L546.07,189.86L546.3,198.64L546.75,186.45L546.82,190.01L546.9,191L546.97,191.78L547.12,189.35L547.27,190.88L547.35,182.23L547.58,177.39L547.73,184.35L547.8,191.48L548.03,197.85L548.33,195.69L548.41,181.81L548.48,176.86L548.93,191.09L549.01,190.33L549.08,191.18L549.23,188.14L549.61,195.12L549.69,195.51L549.99,198.06L550.14,196.41L550.21,190.97L550.29,187.18L550.74,192.9L550.97,190.34L551.04,187.65L551.12,186.28L551.34,191.58L551.42,194.97L551.87,197.05L551.95,195.88L552.02,189.84L552.85,173.64L552.93,177.11L553,180.47L553.68,197.76L553.91,193.38L553.98,191.01L554.43,192.5L554.73,186.83L554.81,187.42L554.89,190.68L555.34,197.4L555.56,193.15L555.64,190.17L555.86,162.77L556.47,167.69L556.54,172.5L556.62,160.79L557.07,191.96L557.15,191.87L557.22,192.01L557.52,177.17L557.75,183.89L557.82,186.14L558.13,186.71L558.2,185.3L558.28,182.74L559.03,193.15L559.18,191.01L559.26,183.41L559.33,176.16L559.86,187.23L559.93,187.08L560.01,184.2L560.24,183L560.39,184.41L560.46,188.31L560.76,193.16L560.99,190.78L561.06,181.93L561.14,175.91L561.67,186.21L561.74,185.96L561.82,183.56L562.04,179.27L562.35,187.93L562.42,190.14L562.57,192.26L562.87,182.57L562.95,172.3L563.55,185.7L563.78,181.7L563.85,181.42L563.93,180.53L564.08,186.35L564.15,187.63L564.53,195.25L564.61,189.24L564.68,180.08L564.76,175.75L565.13,184.8L565.28,184.77L565.36,184.51L565.66,167.82L565.81,170.12L565.89,184.39L566.41,195.41L566.56,189.95L566.64,183.12L566.87,177.81L567.02,183.68L567.39,179.12L567.47,179.38L568.07,193.47L568.3,186.88L568.37,175.37L568.45,167.68L568.9,181.89L569.05,181.42L569.13,178.34L569.2,176.84L569.5,184.02L569.58,185.82L569.8,188.86L570.03,186.34L570.11,178.04L570.26,129.16L570.86,167.34L570.94,168.75L571.01,167.29L571.16,175.44L571.24,179L571.54,187.11L571.84,183.61L571.91,171.13L571.99,163.82L572.52,177.71L572.59,177.8L572.82,163.68L572.97,172.56L573.04,174.49L573.5,187.44L573.72,173.11L573.8,166.62L574.4,178.5L574.55,171.24L574.63,169.83L574.7,167.75L574.93,178.82L575,181.25L575.31,187.48L575.46,182.27L575.53,170.97L575.61,161.5L576.21,174.11L576.28,172.73L576.44,169.25L576.74,179.7L576.81,180.7L577.11,185.08L577.26,182.8L577.34,173.92L577.42,166.49L578.02,176.17L578.09,173.32L578.17,170.39L578.24,169.37L578.47,174.13L578.55,177.64L578.62,177.49L578.7,182.19L578.85,186.41L579.22,179.83L579.3,173.67L579.6,174.77L579.98,167.56L580.13,167.9L580.2,169.73L580.66,179.38L580.96,171.78L581.03,163.55L581.86,105.6L581.94,110.23L582.61,160.95L582.77,136.51L582.84,100.8L583.44,138.46L583.67,124.17L583.74,128.74L584.42,177.59L584.5,172.78L584.57,146.7L584.65,119.95L585.1,161.07L585.25,153.96L585.33,147.33L585.48,134.09L585.85,167.73L585.93,175.1L586.16,179.57L586.31,173.24L586.38,146.38L586.83,150.12L587.21,117.75L587.29,124.93L588.04,176.57L588.12,173.55L588.19,143.15L588.27,126.48L588.79,167.71L588.87,173.04L589.09,147.78L589.4,172.82L589.47,177.02L589.77,186.46L590,173.13L590.07,165.13L590.38,175.91L590.83,166.26L590.9,168.22L591.36,188.16L591.43,194.13L591.58,196.49L591.81,193.95L591.88,192.21L592.71,175.7L592.86,178.04L592.94,182.13L593.31,196.86L593.62,188.28L593.69,181.92L594.52,170.93L594.6,172.26L594.67,173.94L595.12,185.22L595.35,182.8L595.42,173.42L595.5,167.63L595.88,177.6L596.1,175.28L596.18,173.75L596.4,168.52L596.78,178.59L596.86,181.24L597.01,181.18L597.08,182.1L597.31,149.46L597.68,158.81L597.76,160.92L597.84,162.02L597.99,155.24L598.06,136.44L598.14,133.56L598.29,152.31L598.36,157.08L598.81,181.44L599.04,154.78L599.12,130.88L599.57,155.71L599.79,134.17L599.87,123.06L599.95,116.97L600.25,150.61L600.32,166.6L600.7,178.3L600.85,160.86L600.92,146.41L601.53,173.7L601.83,169.55L601.9,171.31L602.51,184.83L602.58,182.76L602.66,174.52L602.73,168.29L603.34,177.21L603.41,174.28L603.49,171.7L603.64,170.61L603.79,173.57L603.86,177.28L604.01,180.04L604.09,182.83L605.3,163.55L605.45,163.93L605.52,165.27L605.97,180.39L606.27,172.18L606.35,170.42L607.18,159.9L607.25,161.55L607.33,163.15L607.78,177.34L608.01,168.91L608.08,158.29L608.61,158.69L608.91,97.49L608.99,101.63L609.06,104.06L609.51,165.1L609.82,156.24L609.89,114.6L610.04,42.08L610.57,127.39L610.65,120.9L611.55,166.64L611.62,163.33L611.7,139.91L611.78,107.38L612.38,157.56L612.45,153.77L612.53,149.48L612.98,164.07L613.06,170.62L613.28,185.15L613.51,157.51L613.58,141.16L613.66,133.89L614.04,146.15L614.11,143.86L614.19,154.06L614.41,124.76L614.86,170.32L614.94,174.1L615.09,175.39L615.24,174.43L615.32,163.95L615.39,156.13L615.99,167.41L616.07,163.77L616.15,159.99L616.45,165.14L616.52,170.19L617.05,179.85L617.2,172.73L617.28,167.88L617.43,156.43L618.03,160.72L618.1,164.34L618.71,185.32L618.93,179.44L619.01,174.17L619.76,148.7L619.91,151.15L619.99,155.92L620.44,180.52L620.67,174L620.74,154.48L621.5,115.78L621.57,119.76L621.65,130.01L622.32,181.93L622.55,158.43L622.63,98.64L623.38,33.26L623.45,87.34L624.13,172.87L624.36,137.77L624.43,-30.43L624.81,95.24L625.19,-58.89L625.26,9.63L625.94,180.94L626.17,162.02L626.24,131.07L626.32,109.04L626.92,149.19L627,141.59L627.07,141.21L627.15,162.74L627.22,162.07L627.3,164.89L627.37,171.97L627.67,181.6L627.9,180.83L627.98,171.49L628.05,162.44L628.65,174.47L628.73,171.38L628.8,168.61L629.26,179.12L629.33,181.46L629.56,183.91L629.78,178.03L629.86,175.5L630.09,164.09L630.61,172.94L630.69,174.17L631.37,195.95L631.59,189.3L631.67,183.52L631.89,175.48L632.42,180.42L632.5,181.66L633.1,193.05L633.33,189.27L633.4,181.51L633.93,181.91L634.23,158.51L634.31,168.75L634.38,169.34L634.46,165.36L634.53,173.02L634.98,191.17L635.28,173.3L635.36,178.32L635.66,181.41L635.74,182.91L636.04,178.67L636.34,183.38L636.42,187.55L636.79,197.84L636.94,192.62L637.02,183.96L637.09,175.56L637.77,179.74L637.85,178.59L638,177.34L638.15,180.74L638.22,185.53L638.3,185.8L638.37,189.53L638.52,193.02L638.75,188.88L638.83,180.02L639.28,181.55L639.66,174.23L639.73,173.67L639.96,177.96L640.03,181.88L640.48,187.8L640.56,185.14L640.63,177.55L640.71,171.48L641.31,180.79L641.39,177.84L641.46,175.55L641.77,184.31L641.84,189.34L642.37,195.27L642.59,189.38L642.67,178.96L642.97,179.34L643.2,172.43L643.27,167.1L643.35,166.22L643.42,171.61L643.5,174.08L644.03,192.56L644.25,183.66L644.33,176.84L645.16,143.68L645.23,146.08L645.31,151.38L645.76,180.06L646.06,169.92L646.14,163.04L646.74,176.89L646.96,176.23L647.04,176.68L647.11,174.6L647.42,185.69L647.49,190.8L648.09,176.08L648.77,176.39L648.85,178.18L648.92,175.63L649.22,185.97L649.3,191.18L650.05,171.93L650.28,172.63L650.36,172.9L650.43,170.82L650.81,174.01L650.88,180.12L651.03,179.74L651.33,184.58L651.41,177.97L651.56,160.13L652.24,166.32L652.31,166.26L652.39,166.05L652.54,167.63L652.62,172.1L653.07,185.41L653.29,174.7L653.37,168.3L653.82,175.83L654.12,170.98L654.2,172.28L655.03,189.94L655.18,183.59L655.25,177.41L655.4,171.86L655.7,178.23L656.01,173.84L656.08,175.32L656.23,178.99L656.31,183.62L656.46,183.08L656.61,186.98L656.91,183.19L656.99,180.67L657.21,170.68L657.81,176.66L657.89,178.09L658.42,188.08L658.64,185.12L658.72,179.79L658.79,173.45L659.32,180.22L659.47,177.54L659.55,175.39L659.85,181.5L659.92,184.89L660,184.38" style="fill: rgb(54, 112, 97); fill-opacity: 0.5; stroke-width: 0;"/></g></g><g class="errorbars"/><g class="lines"><path class="js-line" d="M0,183.01L0.38,195.49L0.68,184.63L0.75,177.93L1.28,173.38L1.51,175.94L1.58,177.43L1.96,190.33L2.19,184.88L2.26,172.38L3.09,155.83L3.16,158.7L3.92,177.55L3.99,171.91L4.07,160.01L4.6,163.24L4.9,145.99L4.97,145.6L5.05,146.04L5.12,151.07L5.73,172.88L5.8,168.94L5.88,152.73L6.4,154.91L6.78,121.69L6.86,131.54L7.38,172.35L7.61,165.78L7.69,141.7L8.51,-59.4L8.59,25.73L8.67,106.88L9.19,169.8L9.57,160.06L9.64,154.66L10.32,135.02L10.4,140.69L10.47,145.19L11.15,174.98L11.38,166.9L11.45,161.78L11.6,149.98L11.91,162.29L12.28,153.33L12.36,156.71L12.96,181.06L13.11,161.27L13.19,149.98L13.64,172.79L13.94,153.59L14.02,154.41L14.69,183.75L14.84,178.96L14.92,165.05L15.37,168.28L15.75,145.73L15.82,148.42L16.35,181.45L16.65,176.6L16.73,163.79L17.26,164.23L17.56,138.19L17.63,139.67L18.31,180.91L18.46,176.29L18.54,160.39L18.61,143.76L19.06,168.88L19.29,154.24L19.37,144.35L20.12,182.57L20.34,166.06L20.42,147.41L20.87,167.51L21.17,149.73L21.25,150.3L22,184.61L22.23,177.09L22.3,173.1L22.45,164.51L22.76,174.02L23.06,166.75L23.13,169.25L23.21,169.54L23.28,173.67L23.58,185.24L24.04,176.28L24.11,170.15L24.87,157.38L24.94,163.26L25.02,165.86L25.62,183.54L25.69,178.78L25.77,165.49L26.3,169.81L26.6,153.28L26.67,150.56L27.2,177.48L27.5,171.71L27.58,140.12L27.8,78.28L28.11,142.75L28.33,125.35L28.41,118.5L29.24,181.2L29.31,178.18L29.39,165.3L30.22,139.21L30.29,146.14L30.97,181.08L31.2,159.21L31.27,142L31.8,165.89L32.17,156.7L32.25,159.91L32.78,182.47L33,163.18L33.08,148.95L33.53,168.31L33.76,154.55L33.83,145.63L34.74,180.82L34.89,170.99L34.96,163.36L35.42,163.99L35.72,143.19L35.79,148L35.87,153.84L36.47,178.94L36.7,175.03L36.77,167.42L37.52,157.12L37.6,157.79L37.68,160.62L38.28,188.16L38.43,163.53L38.5,146.9L39.11,165.75L39.33,159.2L39.41,161.22L39.48,160.04L39.63,167.69L39.71,170.5L40.01,196.79L40.31,154.25L40.39,163.48L40.46,162.35L41.07,161.18L41.9,195.69L41.97,193.65L42.05,184.07L42.12,167.86L42.8,177.01L42.87,173.22L43.1,175.51L43.18,178.13L43.55,189.17L43.78,185.47L43.85,173.03L44.38,175.19L44.68,153.4L44.76,153.92L44.83,162.35L44.98,168.76L45.06,174.39L45.51,187.66L45.59,185.83L45.66,173.7L45.74,165.53L46.19,182.84L46.27,181.48L46.34,181.28L46.49,172.5L47.02,180.71L47.09,183.21L47.32,183.48L47.4,183.13L47.47,178.41L47.77,165L48.45,166.03L48.53,166.45L49.05,180.8L49.35,175.18L49.43,171.41L49.51,168.12L49.73,177.65L50.18,169.56L50.26,171.25L50.41,174.45L50.49,177.12L50.86,185.55L51.01,181.02L51.09,172.56L51.54,178.47L51.92,152.06L51.99,155.86L52.07,159.52L52.67,187.96L52.9,172.29L52.97,163.82L53.5,182.25L53.88,175.15L53.95,177.25L54.48,188.35L54.63,184.09L54.7,175.05L54.78,167.13L55.23,178.5L55.38,177.28L55.46,175.86L55.53,173.21L55.99,182.4L56.06,182.59L56.14,185.42L56.44,180.2L56.51,169.87L56.59,163.45L57.04,175.23L57.19,173.74L57.27,171.91L57.49,167.01L57.87,175.74L57.94,178.68L58.02,179.03L58.1,178.12L58.17,178.62L58.25,175.49L58.4,154.05L59,172.04L59.08,169.17L59.3,163.64L59.6,179.6L59.68,178.34L59.75,181.28L59.98,194.59L60.13,187.98L60.21,179.47L61.03,164.38L61.11,166.34L61.34,176.37L61.41,179.8L61.79,197.88L62.01,195.27L62.09,188.66L62.84,168.19L62.99,169.76L63.07,172.48L63.52,197.02L63.67,191.49L63.75,172.86L63.82,165.06L64.2,177.5L64.5,172.21L64.58,165.95L64.65,164.27L64.95,174.02L65.03,176.94L65.18,181.74L65.48,176.33L65.56,163.81L65.63,151.84L66.23,169.57L66.31,166.18L66.38,163.62L66.76,173.27L66.84,174.49L66.99,180.49L67.29,175.22L67.36,158.4L67.82,165.58L68.19,142.29L68.27,135.47L68.87,177.89L69.1,171.75L69.17,156.81L69.25,133.97L69.85,162.59L69.93,161.06L70,151.91L70.53,178.71L70.6,182.21L70.83,184.4L70.91,180.57L71.06,161.55L71.66,176.2L71.73,172.66L71.88,167.4L72.26,178.49L72.34,180.67L72.41,183.26L72.86,175.31L72.94,170.12L73.62,156L73.77,163.53L73.84,166.76L74.45,187.63L74.75,176.6L74.82,171.87L75.2,175.67L75.5,163.57L75.65,168.47L75.73,172.51L76.1,184.19L76.33,178.68L76.41,168.36L76.48,152.73L77.01,177.11L77.08,176.72L77.16,169.56L77.31,159.26L77.76,181.26L77.84,184.49L77.99,185.59L78.06,184.25L78.14,180.87L78.29,160.08L78.82,183.15L78.89,181.71L79.12,159.91L79.5,178.75L79.57,182.36L79.8,184.89L79.95,179.87L80.02,170.05L80.1,156.45L80.4,172.38L80.78,164.14L80.85,158.72L80.93,156.83L81.15,167.63L81.23,173.34L81.61,181.59L81.76,177.94L81.83,166.78L81.91,152.12L82.36,171.9L82.58,163.91L82.66,159.82L82.74,157.98L82.89,166.26L82.96,171.56L83.41,185.3L83.64,171.09L83.72,164.82L84.17,179.93L84.47,171.26L84.54,169.98L84.77,174.19L84.85,179.17L85.22,186.31L85.45,181.32L85.52,179.46L86.35,155.7L86.43,161.77L86.5,167.05L87.18,188.2L87.41,181.5L87.48,178.86L87.56,178.18L87.86,181.71L88.01,179.24L88.09,172.02L88.16,169.77L88.46,179.86L88.54,182.21L88.69,186.71L88.99,181.23L89.06,171.8L89.14,154.36L89.59,177.59L89.74,175.32L89.82,171.23L89.97,154.82L90.42,180.58L90.5,183.44L90.72,183.82L90.8,182.25L90.95,150.85L91.4,183.51L91.48,183.4L91.55,182.53L91.78,170L92.08,181.59L92.15,182.96L92.53,190.45L92.68,178.89L92.76,170.58L93.21,181.29L93.51,172.38L93.59,171.34L93.96,184.28L94.04,187.69L94.11,190.27L94.41,183.6L94.49,172.95L94.64,164.63L95.17,177.2L95.24,173.24L95.32,171.98L95.62,176.54L95.7,181.52L96.07,187.26L96.22,184.71L96.3,173.79L96.37,166.95L96.75,182.15L96.98,180.55L97.05,175.96L97.2,171.36L97.65,180.25L97.73,183L97.88,184.32L98.11,178.46L98.18,176.83L98.71,177.29L99.01,161.81L99.09,169.38L99.16,170.63L99.69,183.08L99.99,178.4L100.07,173.83L100.52,178.68L100.82,158.09L100.9,165.56L100.97,169.6L101.57,184.8L101.72,173.22L101.8,163.04L102.33,179.9L102.55,166.59L102.63,161.53L103.23,183.69L103.46,179.64L103.53,167.38L103.61,146.97L104.14,182L104.21,181.71L104.29,178.1L104.51,170.95L104.89,183.11L104.96,184.63L105.04,185.56L105.27,181.63L105.34,172.59L105.42,162.95L105.94,183.46L106.02,183.16L106.25,171.85L106.7,183.72L106.77,187.79L107.07,183.66L107.15,174.41L107.22,166.12L107.6,182.87L107.83,181.83L107.9,179.1L108.13,171.53L108.51,182.25L108.58,185.64L108.66,185.81L108.73,184.63L108.81,184.78L108.88,181.91L109.03,163.4L109.56,179.38L109.64,180.24L109.86,167.71L110.24,179.02L110.31,181.87L110.39,183.45L110.77,180.1L110.84,177L111.07,168.08L111.37,181.54L111.59,171.29L111.67,174.19L111.75,173.48L111.9,175.8L111.97,179.25L112.12,180.57L112.2,183.23L112.42,184.56L112.57,181.2L112.65,167.2L112.73,160.98L113.18,177.42L113.25,175.93L113.33,174.31L113.48,166.46L114.01,181.17L114.08,179.83L114.31,175.42L114.38,168.15L114.46,158.79L114.91,177.72L114.99,177.55L115.06,177.33L115.29,154.43L115.59,172.19L115.66,172.67L115.89,179.23L116.12,172.49L116.19,154.82L116.27,133.05L116.87,170L116.94,163.7L117.17,135.98L117.62,173.59L117.7,173.94L117.92,168.81L118,152.45L118.08,126.67L118.68,169.32L118.75,164.06L118.9,140.16L119.43,172.56L119.51,172.57L119.58,172.9L119.66,171.34L119.73,166.57L119.88,125.79L120.34,172.49L120.41,172.84L120.49,173.89L120.56,168.79L120.64,163.47L120.79,153.2L121.24,177.88L121.32,178.23L121.47,178.46L121.54,176.34L121.69,157.43L122.29,174.91L122.37,170.63L122.6,160.59L122.97,173.76L123.05,178.14L123.27,183.89L123.5,174.11L123.58,174.12L123.65,170.93L124.1,171.42L124.33,161.75L124.48,162.57L124.56,167.34L124.86,176.77L125.23,171.17L125.31,166.39L125.53,159.4L125.91,170.29L126.14,159.7L126.21,159.6L126.74,174.58L126.97,167.72L127.04,158.32L127.12,136.51L127.72,170.89L127.8,167.79L128.02,150.92L128.4,176.22L128.47,179.51L128.62,179.91L128.7,179.81L128.77,177.77L128.93,155.89L129.53,175.04L129.6,171.22L129.68,166.52L130.13,177L130.21,179.79L130.43,181.77L130.58,178.34L130.66,168.6L130.73,160.86L131.19,178.68L131.26,178.11L131.34,178.71L131.56,167.94L132.02,179.78L132.09,182.7L132.39,177.93L132.47,167.41L132.54,159.14L132.99,181.05L133.07,180.44L133.15,179.68L133.52,168.95L133.82,180.15L133.9,182.29L133.97,184.67L134.28,170.75L134.35,161.61L134.73,181.22L135.1,172.77L135.18,170.53L135.33,170.43L135.41,171.84L135.78,183.08L136.16,177.23L136.23,175.56L136.99,155.73L137.06,160.14L137.14,170.24L137.67,185.75L137.97,177.57L138.04,165.65L138.12,165.2L138.19,167.14L138.27,171.5L139.17,182.73L139.25,184.12L139.47,187.72L139.7,175.93L139.78,157.29L140.23,181.49L140.68,174.51L140.76,176.53L141.28,186.14L141.43,183.2L141.51,172.14L141.58,144.31L142.04,180.46L142.19,178.62L142.26,175.29L142.41,132.91L142.94,184.34L143.02,184.43L143.24,179.43L143.32,167.86L143.39,148.08L143.85,175.18L144,174.27L144.07,172.87L144.22,144.46L144.67,181.74L144.75,185.46L144.98,187.06L145.05,183.69L145.13,174.23L145.2,167L145.8,181.89L145.88,178.92L146.11,172.26L146.48,184.55L146.56,187.71L146.71,188.02L146.78,187.91L146.86,185.43L147.01,174.25L147.39,194.47L147.54,190.85L147.61,189.17L147.91,173.97L148.29,189.64L148.37,192.32L148.44,192.46L148.67,191.67L148.74,190.08L149.72,168.62L149.8,171.59L149.87,175.48L150.17,185.26L150.55,174.94L150.63,165.19L150.7,163.44L151,172.48L151.08,173.53L151.15,174.44L151.3,167.28L151.38,155.21L151.46,131.08L151.98,179.86L152.06,179.96L152.21,180.52L152.28,176.53L152.44,152.53L152.89,180.05L152.96,179.45L153.04,177.33L153.34,167.03L153.72,175.58L153.79,178.59L154.09,175.03L154.17,164.48L154.24,157.52L154.7,172.89L154.77,170.68L154.85,173.49L155.15,164.27L155.52,174.34L155.6,177.5L155.98,163.97L156.05,158.82L156.65,180.09L156.81,170.72L156.88,168.09L157.11,172.51L157.18,179.92L157.63,193.92L157.79,182.47L157.86,170.33L158.24,189.82L158.54,174.06L158.61,168.96L158.84,166.28L159.07,174.81L159.14,177.79L159.22,179.36L159.52,176.62L159.59,166.79L159.67,160.75L160.05,184.24L160.12,185.07L160.57,166.77L160.95,177.66L161.03,180.5L161.25,180.52L161.33,181.83L162.23,171.19L162.31,169.28L162.83,181.87L162.91,183.86L162.98,184.64L163.14,182.53L163.21,178.49L163.36,173.68L163.44,171.03L163.51,170.43L163.59,172.3L163.66,176.79L163.81,180.96L164.11,174.07L164.19,173.55L164.27,172.97L164.34,176.7L164.42,179.57L164.87,195.66L165.02,173.35L165.09,168.33L165.55,184.64L165.85,176.77L165.92,171.31L166.07,170.44L166.15,173.29L166.22,174.89L166.3,175.02L166.38,178.16L166.68,181.95L166.83,170.3L166.9,143.17L167.51,177.95L167.81,167.26L167.88,166.71L168.33,184.52L168.56,180.56L168.64,170.13L168.71,162.58L169.24,183.09L169.31,182.91L169.62,159.94L169.92,178.5L169.99,182.46L170.22,186.19L170.44,173.35L170.52,170.4L171.12,189.67L171.27,182.21L171.35,176.15L171.5,176.1L171.57,177.77L171.88,188.58L172.25,176.04L172.33,168.27L172.78,181.68L173.08,174.62L173.16,171.08L173.31,172.42L173.38,175.12L173.99,198.22L174.29,192.42L174.36,191.87L174.66,198.12L174.89,191.78L174.97,177.52L175.04,174.64L175.42,184.26L175.49,187.24L176.17,175.57L176.32,182.76L176.4,182.76L176.92,176.31L177.3,190.02L177.38,190.09L177.53,190.22L177.6,187.42L177.75,164.85L178.13,191.62L178.21,193.35L178.28,194.07L178.43,188.73L178.51,182.49L178.66,181.02L178.88,185.95L178.96,188.09L179.18,199.73L179.56,176.43L179.64,182.52L179.71,183.94L180.09,195.15L180.16,190.17L180.24,185.02L180.54,148.7L180.62,167.75L180.69,184.75L180.92,192.03L180.99,195.57L181.07,198.15L181.29,181.79L181.37,175.44L181.82,186.31L182.12,180.37L182.2,178.34L182.35,174.49L182.42,175.67L182.5,180.77L182.95,194.58L183.1,189.52L183.18,186.75L183.33,179.83L183.71,199.55L183.78,199.63L184.16,183.72L184.53,198.11L184.61,199.2L184.76,199.51L184.84,198.54L184.91,194.8L185.14,190.97L185.21,197.29L185.29,198.2L185.59,204.97L185.74,195.4L185.82,192.86L185.97,189.23L186.34,201.19L186.42,201.17L186.64,200.14L186.72,196.04L187.47,186.19L187.55,179.24L187.77,176.93L188,183.95L188.08,186.76L188.38,192.03L188.68,183.51L188.75,178.03L189.13,192.39L189.28,188.7L189.36,184.06L189.58,183.82L189.96,197.82L190.04,199.4L190.11,200.26L190.26,194.15L190.34,188.93L190.56,182.85L191.01,190.37L191.17,184.66L191.24,183.91L191.32,182.64L191.62,188.15L191.77,187.2L191.84,187.3L191.99,187.29L192.07,185.06L192.22,173.24L192.52,197.98L192.67,197.97L192.75,199.61L193.2,177.77L193.58,190.42L193.65,190.37L193.95,178.03L194.03,148.41L194.63,199.46L194.78,183.94L194.86,180.15L194.93,177.33L195.31,189.05L195.39,192.79L195.61,193.23L195.69,191.49L195.76,182.33L195.84,177.65L196.21,198.74L196.29,199.09L196.36,200.7L196.59,199.82L196.67,181.8L197.27,194.25L197.5,192.17L197.57,182.89L198.17,202.17L198.4,199.87L198.47,185.03L198.55,182.76L198.93,190.33L199,191.95L199.08,190.41L199.3,195.17L199.45,191.45L199.53,198.01L199.98,201.1L200.21,199.66L200.28,183.07L200.43,181.86L200.51,185.14L200.58,186.53L201.87,199.46L201.94,199.34L202.02,183.97L202.17,184.31L202.24,182.42L202.32,186.04L202.69,194.43L202.92,191.12L203,182.58L203.07,143.44L203.75,176.27L203.82,173.72L204.05,173.53L204.13,175.45L204.58,184.09L204.73,178.9L204.8,168.08L204.88,149.25L205.48,172.6L205.56,170.43L205.86,164.08L206.16,176.14L206.24,178.33L206.46,179.04L206.54,175.9L206.69,152.28L207.29,170.91L207.37,168.56L207.52,156.57L207.97,173.09L208.04,178.31L208.27,177.62L208.35,173.42L208.5,143.16L209.02,175.25L209.1,174.2L209.33,158.68L209.4,142.94L209.48,139.84L209.55,153.09L209.63,168.09L209.93,179.25L210.15,177.12L210.23,167.41L210.3,164.04L210.61,181.98L210.68,184.85L210.83,186.29L210.91,185.73L210.98,180.69L211.28,165.42L211.59,181.13L211.66,186.83L212.11,197.87L212.19,189.85L212.26,183.42L212.34,181.77L212.64,190.14L212.72,193.57L213.09,174.74L213.47,185.87L213.54,186.27L213.7,187.29L213.85,184.22L213.92,177.71L214,169.19L214.45,186.35L214.6,181.97L214.68,178.02L214.9,173.36L215.2,183.9L215.28,186.82L215.5,186.85L215.58,185.28L215.73,172.37L216.18,193.7L216.26,196L216.63,178.9L216.94,184.42L217.01,189.75L217.24,194.56L217.46,189.41L217.84,193.97L217.92,195.93L218.14,198.31L218.29,195.94L218.37,189.21L218.52,180.62L218.89,196.81L218.97,196.38L219.05,197.02L219.2,190.59L219.27,178.75L219.35,173.48L219.57,202.51L219.72,197.84L219.8,199.69L219.95,197.43L220.03,191.55L220.25,181.88L220.7,194.96L220.78,194.83L221.16,181.92L221.38,188.16L221.46,190.21L221.68,191.95L221.91,185.84L221.98,183.95L222.13,182.58L222.21,184.73L222.29,188.66L222.59,197.9L222.81,194.62L222.89,187.6L222.96,180.71L223.42,194.47L223.57,189.21L223.64,188.02L223.94,183.31L224.17,191.15L224.24,192.72L224.62,194.12L224.7,191.26L224.77,190.3L224.92,185.82L225.15,197.61L225.22,197.31L225.3,198.62L225.75,181.87L226.05,190.93L226.13,193.12L226.43,195.01L226.58,188.19L226.66,180.06L226.73,176.16L227.11,189.55L227.26,188.24L227.33,185.16L227.56,174.6L228.01,190.18L228.09,190.29L228.16,190.96L228.24,189.07L228.31,169.93L228.39,157.07L228.84,200.06L228.92,202.27L229.37,167.39L229.75,190.08L229.82,191.75L230.05,189.9L230.12,173.36L230.2,159.99L230.65,198.56L230.72,200.16L230.8,200.34L230.88,186.88L231.1,172.17L231.48,192.96L231.55,195.89L231.78,195.93L231.86,194.57L232.01,185.42L232.46,204.59L232.53,205.18L232.68,202.09L232.76,189.44L232.99,186.37L233.29,193.66L233.36,196.44L233.59,196.44L233.66,201.61L233.81,198.19L234.27,204.53L234.34,204.17L234.42,202.01L234.72,199.52L234.79,187.92L236.15,205.24L236.23,201.53L236.6,186.97L236.98,197.31L237.05,197.35L237.36,202.81L237.43,204.12L237.96,205.52L238.18,204.96L238.26,201.61L238.34,200.55L238.86,203.52L238.94,203.59L239.31,200.55L239.47,202.42L239.54,204.38L239.77,205.58L239.99,202.77L240.07,201.31L240.14,195.57L240.6,203.94L240.75,203.94L240.82,203.94L240.9,203.69L240.97,200.29L241.05,200.13L241.12,201.34L241.2,202.81L241.58,205.94L241.88,203.2L241.95,201.43L242.03,195.75L242.63,203.19L242.71,203.37L242.86,199.69L243.38,205.19L243.46,205.11L243.84,200.96L243.91,195.26L244.51,204.18L244.59,195.88L244.66,190.23L245.19,205.19L245.42,203.74L245.49,194.86L245.57,193.02L245.95,199.74L246.02,202.39L246.62,205.12L246.7,197.04L246.77,197.21L246.85,205.67L247,206.54L247.15,205.44L247.23,197L247.45,192.23L247.83,198.3L247.91,198.54L248.06,198.64L248.13,197.8L248.21,192.21L248.28,191.04L248.36,202.26L248.43,200.7L248.51,202.43L248.81,205.36L249.04,203.36L249.11,193.62L249.26,190.82L249.56,196.75L249.64,198.85L250.09,198.14L250.62,206.18L250.77,205.02L250.84,195.41L250.99,192.19L251.37,198.12L251.45,200.16L251.75,200.2L251.82,199.08L251.9,198.01L252.12,202.5L252.2,204.45L252.43,205.61L252.65,203.13L252.73,201.92L252.88,195.18L253.48,201.15L253.56,203.16L253.71,198.81L254.31,203.03L254.39,203.08L254.61,201.72L254.84,202.07L254.91,200.11L255.14,203.41L255.52,199.74L255.59,200.79L255.67,200.11L256.04,203.93L256.42,201.38L256.5,201.43L257.17,202.94L257.25,200.2L257.78,199.11L257.85,202.53L257.93,196.76L258.38,193.04L258.53,196.35L258.6,199.79L258.91,205.09L259.51,204.69L259.58,204.74L259.66,205.9L259.96,203.68L260.11,204.85L260.19,198L260.26,197.68L260.41,200.05L260.49,202.14L260.79,203.29L261.09,200.47L261.17,201.5L261.24,202.87L261.47,205.18L261.62,203.96L261.69,194.11L261.92,192.09L262.15,196.25L262.22,199.05L263.28,205.51L263.35,205.2L263.43,203.57L263.5,203.06L263.58,194.96L263.73,193.64L264.03,198.65L264.11,199.81L264.41,200.89L264.48,199.54L264.56,201.98L265.16,203.06L265.39,192.53L265.54,193.74L265.61,195.07L266.22,203.3L266.74,201.77L266.82,201.77L266.97,202.86L267.04,195.47L267.12,194.43L267.19,193.51L267.57,194.99L267.65,197.85L267.95,199.29L268.02,198.24L268.1,191.53L268.17,180.71L268.7,202.47L268.78,202.29L268.85,201.71L269,199.4L269.08,182.37L269.76,202.91L269.83,202.83L269.91,199.96L270.13,196.66L270.59,202.3L270.66,202.24L270.96,189L271.19,193.71L271.26,199.48L271.64,202.84L271.79,195.78L271.87,197.12L271.94,195.29L272.39,202.33L272.77,201.14L272.85,196.3L273.3,204.08L273.68,201.39L273.75,200.17L274.13,205L274.43,202.48L274.5,192.97L274.58,191.62L274.88,196.67L274.96,199.16L275.94,205.56L276.01,205.52L276.09,205.24L276.16,204.84L276.24,194.2L276.39,191.34L276.76,200.86L276.84,200.87L277.74,205.77L277.82,204.7L278.05,203.04L278.12,195.59L278.2,193.28L278.5,199.21L278.57,206.03L279.1,201.68L279.4,204.17L279.48,204.66L279.55,206.06L279.93,203.41L280.08,204.66L280.16,198.62L280.61,203.86L280.91,199.97L280.98,199.3L281.36,203.15L281.74,200.33L281.81,200.49L281.89,191.7L282.42,202.95L282.49,202.94L282.57,199.63L282.64,198.78L283.02,202.16L283.09,202.65L283.17,203.19L283.47,201.51L283.55,200.15L284.22,202.71L284.3,202.55L284.37,199.52L284.6,197.71L284.83,201.29L284.9,202.05L284.98,203.76L285.35,200.17L285.58,201.13L285.66,201.17L286.26,199.96L286.56,204.8L286.64,205.1L286.79,206.23L287.09,203.02L287.16,201.26L287.62,203.4L287.69,204.26L287.99,204.16L288.59,207.69L288.67,207.13L288.75,205.57L289.2,200L289.57,202.79L289.65,202.92L289.95,201.07L290.4,202.46L290.48,202.44L290.63,202.13L290.7,200.13L290.93,201.05L291.01,197.9L291.08,200.75L291.16,201.52L291.31,203.77L291.61,198.48L291.68,193.43L292.21,203.6L292.51,202L292.59,199.88L292.74,199.87L292.81,195.89L293.12,203.51L293.34,202.35L293.42,198.82L293.49,191.2L294.02,202.06L294.1,201.84L294.17,201.59L294.32,201.44L294.4,200.02L294.62,200.74L294.7,201.08L295.07,202.4L295.15,202.3L295.23,198.98L295.38,194.51L295.83,201.8L295.9,201.63L295.98,201.72L296.21,200.09L296.43,200.99L296.51,201.17L296.96,202.73L297.03,199.52L297.26,199.13L297.49,200.62L297.56,200.77L297.64,202.25L298.31,201.56L298.39,201.58L298.77,204.85L299.29,204.65L299.37,204.68L299.45,205.3L299.75,203.56L299.82,201.4L299.9,201.07L300.12,201.67L300.2,203.56L300.5,205.49L300.95,204.67L301.03,204.67L301.33,205.24L301.4,204.69L301.48,203.08L301.63,200.91L302.23,202.8L302.31,202.85L302.61,194.6L302.76,199.23L302.84,200.53L303.06,202.36L303.29,199.11L303.36,194.86L303.44,191.89L303.89,202.79L303.97,202.79L304.19,202.49L304.27,199.73L304.49,195.97L304.64,200.92L304.72,200.96L305.02,202.57L305.25,201.24L305.32,201.29L306,202.79L306.08,199.82L306.15,191.6L306.75,203.69L306.83,202.87L307.13,200.41L307.51,202.68L307.58,202.71L307.81,202.74L307.88,199.89L308.11,197.22L308.41,200.17L308.49,201.84L308.79,201.84L308.86,200.55L309.24,201.35L309.32,202.54L309.62,202.59L309.69,199.63L309.92,199.43L310.6,202.19L310.67,200.98L311.05,201.48L311.12,202.62L311.43,202.68L311.5,199.84L312.1,205.22L312.33,202.28L312.41,202.16L312.48,200.95L313.08,202.51L313.16,202.52L313.31,200.89L313.69,204.47L313.76,204.51L313.91,205.23L314.06,204.1L314.14,202.37L314.29,200.82L314.82,202.59L314.89,202.59L315.04,202.63L315.12,201.53L315.42,201.42L315.57,202.02L315.65,202.24L315.72,203L316.02,201.54L316.32,202.65L316.4,201.58L316.78,203.22L316.85,203.15L316.93,200.73L317.15,200.45L317.23,201.81L317.3,202.39L317.53,203.82L317.83,202.8L317.91,201.71L318.28,202.16L318.36,203.19L318.66,203.24L318.74,200.47L318.96,200.03L319.26,201.45L319.34,202.6L319.79,201.26L320.09,202.03L320.17,203.02L320.47,203.07L320.54,200.19L320.77,199.89L321.15,203.04L321.45,202.43L321.52,201.3L321.9,201.95L321.98,203.11L322.28,203.46L322.35,200.61L322.43,200.25L322.65,202.47L322.73,204.2L323.03,205.3L323.18,203.17L323.26,202.7L323.33,201.43L323.93,203.84L324.01,203.88L324.39,200.73L324.61,204.63L324.69,204.63L324.76,204.01L325.14,201.85L325.52,203.42L325.59,203.42L325.89,203.5L325.97,201.99L326.19,204.03L326.27,204.54L326.57,205.16L326.65,203.66L326.95,201.42L327.4,203.41L327.48,203.43L327.7,203.43L327.78,202.31L328.3,202.21L328.38,203.45L328.46,203.62L328.61,203.33L328.68,202.24L329.43,203.44L329.51,203.42L329.59,201.16L329.81,200.9L329.89,202.21L329.96,202.27L330.11,202.37L330.19,203.51L330.49,203.41L330.57,202.25L330.64,202.08L330.72,196.5L331.09,203.43L331.54,201.38L331.62,200.1L332.3,202.81L332.45,201.62L332.52,201.6L333.05,205.48L333.13,205.46L333.2,201.6L333.28,201.2L333.35,202.26L333.43,201.89L333.5,204.89L333.81,207.14L334.03,205.73L334.11,204.89L334.33,201.54L334.78,206.06L334.86,206.04L334.94,205.81L335.01,202.26L335.09,201.22L335.39,205.2L335.46,205.2L335.54,205.24L335.61,205.85L335.92,203.11L335.99,201.66L336.14,201.52L336.22,202.05L336.37,202.06L336.44,203.26L336.67,203.47L336.74,204.65L336.82,203.93L337.12,205.24L337.35,205.25L337.42,205.99L337.8,205.2L337.87,204.59L337.95,200.42L338.33,206.33L338.55,206.28L338.63,205.24L338.93,206.02L339,206.19L339.23,207.15L339.31,205.77L339.61,201.68L340.13,203.41L340.21,203.43L340.36,203.42L340.44,202.21L340.81,202.15L340.89,202.63L340.96,202.87L341.04,203.81L341.34,202.16L341.64,203.27L341.72,202.19L342.09,203.44L342.24,201.11L342.32,200.82L342.85,204.1L343.15,203.14L343.22,201.98L343.6,202.31L343.68,203.57L343.83,203.92L343.98,203.59L344.05,200.44L344.28,200.26L344.73,202.85L344.96,202.72L345.03,201.49L345.41,202.17L345.48,203.3L345.79,203.36L345.86,200.43L346.09,200.31L346.77,202.79L346.84,201.58L347.22,202.23L347.29,203.35L347.59,203.36L347.67,200.51L347.9,200.42L348.57,202.88L348.65,201.69L349.03,202.48L349.1,203.56L349.4,203.77L349.48,201.17L350.08,205.9L350.31,204.29L350.38,203.57L350.53,201.94L351.06,203.59L351.14,203.54L351.29,202.45L351.59,205.48L351.66,205.52L351.89,206.28L351.96,206.17L352.04,205.21L352.27,201.86L352.79,203.55L352.87,203.57L353.02,203.65L353.1,202.54L353.32,202.33L353.4,202.57L353.47,203.61L353.7,204.74L354,202.47L354.07,202.47L354.83,203.87L354.9,201.82L355.13,201.42L355.2,202.8L355.28,203.62L355.51,205.1L355.81,203.59L355.88,202.54L356.26,202.73L356.34,203.84L356.64,203.97L356.71,201.33L356.94,201.06L357.31,204.82L357.62,203.49L357.69,202.41L358.07,202.97L358.14,204.11L358.45,204.15L358.52,201.63L358.67,202.44L358.75,201.26L359.05,202.14L359.12,203.15L359.27,203.63L359.5,202.55L359.8,202.97L359.88,203.09L360.25,204.24L360.4,201.75L360.48,202.64L360.55,201.67L361.23,203.74L361.38,202.67L361.46,197.23L362.06,204.51L362.36,201.63L362.44,202.86L362.74,205.81L362.89,203.95L362.97,196.48L363.04,203.72L363.72,203.41L363.79,203.53L364.1,202.29L364.55,205.68L364.62,204.52L364.7,203.85L364.85,202.8L364.93,196.75L365.53,204.58L365.83,203.26L365.9,203.21L366.06,203.25L366.13,194.95L366.43,204.55L366.88,198.48L366.96,198.73L367.49,204.35L368.01,203.37L368.09,203.38L368.32,204.33L368.54,203.26L368.62,203.34L368.69,198.77L369.3,204.52L369.37,202L369.45,201.89L369.97,205.37L370.05,200.2L370.12,204.19L370.2,196.52L370.35,196.28L370.43,202.68L371.1,204.48L371.18,201.97L371.41,201.63L371.63,202.81L371.71,203.4L371.78,204.38L372.16,202.7L372.46,203.54L372.54,203.63L372.84,204.66L373.06,202.22L373.14,203.09L373.21,202.13L373.67,204.2L373.89,204.07L373.97,197.27L374.57,204.63L374.8,202.19L374.87,202.13L375.02,201.95L375.4,204.32L375.7,203.99L375.78,202.94L375.93,198.12L376.45,204.57L376.53,204.58L376.76,202.98L377.13,207.68L377.21,209.17L377.58,203L378.11,204.49L378.19,204.49L378.64,202.95L378.79,203.61L378.87,205.33L379.02,206.28L379.32,203.09L379.39,203.13L380.15,204.37L380.22,202.52L380.45,202.44L380.82,206.19L381.13,204.29L381.2,203.4L381.58,203.39L381.65,204.33L381.95,204.4L382.03,201.96L382.18,202.81L382.26,201.76L382.41,202.7L382.48,203.03L382.63,204.14L383.08,202.9L383.24,203.4L383.31,203.38L383.76,204.38L383.84,201.85L384.06,201.66L384.74,203.84L384.82,202.83L385.19,203.41L385.27,204.37L385.57,204.41L385.65,201.83L385.87,201.71L386.48,203.93L386.55,203.91L386.63,202.9L387,203.53L387.08,204.47L387.38,204.59L387.46,202.23L387.61,203.01L387.68,202.02L387.83,203.06L387.91,203.73L388.06,205.54L388.43,202.93L388.59,203L388.66,203.51L389.19,204.64L389.34,203.13L389.41,202.98L389.72,204.84L389.79,205.28L389.87,205.72L390.09,204L390.17,202.6L390.92,204.44L391,204.28L391.07,203.21L391.52,202.94L391.6,203L391.67,204.03L391.83,204.07L391.9,198.25L391.98,198.12L392.13,198.29L392.2,200.31L392.81,204.49L393.03,203.07L393.11,201.94L393.48,204.55L393.94,203.15L394.01,203.24L394.24,203.44L394.31,204.42L394.61,204.44L394.69,201.89L394.91,201.78L395.59,203.91L395.67,202.94L396.05,203.58L396.12,204.56L396.42,204.64L396.5,202.08L396.72,201.88L397.4,203.95L397.48,202.97L397.85,203.77L397.93,204.64L398.23,205.96L398.31,203.17L398.53,202.29L398.68,204.88L398.76,205.27L398.91,205.94L399.13,205.66L399.21,198.24L399.36,196.67L399.44,197.63L399.51,203.83L399.59,199.62L400.04,206.24L400.19,204.32L400.26,204.28L400.72,208.6L400.79,207.89L400.87,206.01L401.17,203.83L401.4,204.79L401.47,206.23L401.85,206.31L401.92,205.28L402.15,204.27L402.22,205.35L402.45,210.13L402.68,204.73L402.75,204.76L402.83,204L402.9,199.82L403.43,206.23L403.5,206.23L403.58,206.14L403.88,203.9L404.48,204.8L404.56,204.62L404.71,203.47L405.16,204.99L405.24,204.97L405.31,204.92L405.46,204.72L405.54,202.83L405.77,202.22L406.07,203.98L406.14,204.74L406.52,203.57L406.9,204.04L406.97,204.92L407.27,204.95L407.35,202.74L407.57,202.21L408.03,204.47L408.25,204.12L408.33,203.27L409.08,204.98L409.16,202.54L409.38,202.32L409.76,205.04L410.06,204.32L410.14,203.43L410.44,204.14L410.51,204.37L410.89,205.62L411.04,202.67L411.12,203.49L411.19,202.5L411.42,201.05L411.87,204.68L412.09,203.83L412.17,204.41L412.7,205.64L412.77,203.68L413,203.2L413.3,204.31L413.38,205.09L413.9,203.84L414.05,204.58L414.13,205.56L414.51,205.45L414.58,204.27L415.11,204.26L415.18,205.09L415.56,204.2L415.64,205.13L415.86,205.07L416.24,205.78L416.39,205.13L416.47,204.75L416.54,204.58L416.92,204.82L416.99,205.48L417.37,204.38L417.44,205.25L417.52,205.31L417.67,204.96L418.12,205.97L418.2,204.66L418.42,204.21L418.73,205.21L418.8,205.87L419.48,205.48L419.55,205.67L419.63,206.23L419.93,206.22L420.01,204.41L420.23,203.69L420.53,205.28L420.61,205.89L420.91,205.17L420.99,204.54L421.59,206.13L421.74,206.06L421.82,204.09L422.04,203.04L422.34,205.33L422.42,205.89L422.95,204.78L423.17,205.5L423.25,206.14L423.55,206.25L423.62,204.41L423.85,204.19L424,205.28L424.08,205.28L424.15,205.34L424.23,206L424.75,204.66L424.9,205.3L424.98,205.58L425.36,206.22L425.51,204.43L425.58,205.05L425.66,204.32L426.03,206.23L426.41,204.98L426.49,204.99L427.09,206.38L427.24,205.28L427.32,205.28L427.69,206.52L427.77,206.89L427.84,207.21L428.14,205.18L428.22,205.18L428.97,206.28L429.05,205.7L429.58,205.51L429.8,206.02L429.88,206.02L430.03,205.56L430.48,206.32L430.56,206.32L430.63,206.32L430.78,206.31L430.86,205.04L431.08,204.49L431.38,205.67L431.46,206.12L432.21,205.79L432.29,206.32L432.59,206.31L432.67,204.48L432.82,204.83L432.89,204.14L433.19,204.87L433.27,205.55L433.49,205.25L433.57,200L433.8,201.31L433.87,205.41L434.25,206.23L434.4,206.07L434.47,204.01L434.62,204.28L434.7,203.34L434.78,204.33L434.85,204.74L435.38,205.48L435.45,200.8L436.21,206.32L436.28,204.59L436.43,204.92L436.51,204.22L436.81,204.99L436.89,205.67L437.11,205.54L437.19,200.64L437.26,199.75L437.64,204.22L437.71,205.99L438.02,206.02L438.09,204.22L438.32,204.16L438.69,205.86L439,205.45L439.07,200.52L439.22,200.26L439.3,205.27L439.82,205.58L439.9,204.36L440.13,203.48L440.35,205.25L440.43,205.25L440.5,205.75L440.73,202.96L440.8,201.67L440.88,199.83L441.33,205.25L441.41,205.4L441.63,205.41L441.71,204.47L441.86,196.75L442.46,201.79L442.54,201.75L442.61,200.23L442.91,205.14L443.14,204.75L443.21,204.78L443.44,204.79L443.52,202.96L443.74,198.89L444.12,204.1L444.19,203.94L444.27,203.78L444.42,201.75L444.95,205L445.02,205.04L445.25,205.03L445.32,201.91L445.55,199.07L445.93,203.36L446,203.36L446.08,203.23L446.15,201.62L446.68,204.07L446.76,205.03L447.06,205.03L447.13,202.2L447.21,199.6L447.74,205.63L447.81,205.55L448.11,202.26L448.49,204.35L448.56,205.17L448.87,205.22L448.94,202.97L449.17,202.44L449.32,203.7L449.39,203.86L449.77,204.59L449.85,199.39L449.92,198.55L450.15,204.3L450.22,204.38L450.67,205.88L450.83,204.01L450.9,204.41L450.98,203.42L451.35,205.62L451.81,204.47L451.88,204.51L452.41,206L452.63,204.8L452.71,204.76L452.86,204.67L453.01,205.27L453.09,205.28L453.16,205.78L453.46,204.68L453.69,205.61L453.76,206.18L454.07,206.31L454.59,205.16L454.67,205.18L456.1,206.32L456.18,205.27L456.4,205.01L456.63,205.79L456.7,205.8L456.78,206.33L457.08,206.05L457.15,205.48L457.91,206.12L457.98,204.27L458.21,200.35L458.51,203.21L458.59,204.44L458.81,204.28L459.42,206.31L459.49,206.31L459.72,206.12L459.79,204.25L460.02,203.87L460.24,204.77L460.32,204.72L460.4,205.4L460.62,205.12L460.7,198.5L460.77,198.12L460.92,200.73L461,202.67L461.22,206L461.6,203.97L461.68,198.71L461.75,196.09L462.2,205.09L462.28,205.09L462.5,196.24L463.03,204.08L463.11,204.13L463.26,204.17L463.33,202.92L463.48,196.42L464.01,205.82L464.09,201.02L464.16,199.59L464.31,196.89L464.77,202.14L464.84,205.65L465.14,205.67L465.22,204.48L465.44,204.23L465.67,204.99L465.74,205.08L465.82,205.63L465.9,205.43L465.97,199.35L466.12,197.74L466.42,202.18L466.5,205.03L466.65,205.73L467.03,204.39L467.1,200.63L467.93,189.49L468.01,189.6L468.61,202.11L468.76,199.49L468.83,194.92L468.91,184.18L469.44,204.78L469.51,204.78L469.74,186.23L470.19,204.65L470.27,205.47L470.42,205.72L470.49,203.8L470.72,184.43L470.94,191.69L471.02,197.59L471.25,199.89L471.4,197.67L471.47,190.49L472.3,205.23L472.38,205.17L473.36,196.79L473.43,196.69L473.96,203.96L474.18,201.07L474.26,195.48L474.33,192.99L474.79,199.27L474.86,199.24L474.94,198L475.01,197.24L475.09,204.42L475.16,204.41L475.24,203.54L475.77,205.92L475.84,205.94L475.99,205.95L476.07,203.49L476.29,203.03L476.75,205.05L476.97,204.46L477.05,203.56L477.35,204.29L477.42,205.01L477.8,205.01L477.88,203.73L478.1,196.49L478.48,204.98L478.78,197.15L478.86,196.97L479.46,205.02L479.61,202.62L479.68,201.65L479.76,201.21L479.84,194.28L480.36,204.88L480.59,196.86L480.66,197.19L481.04,200.22L481.12,201.89L481.27,201.93L481.34,201.15L481.49,196.04L481.79,203.78L481.87,203.85L482.02,203.89L482.1,204.7L482.4,195.63L482.85,204.01L482.92,204.89L483.23,204.96L483.3,202.54L483.45,203.24L483.53,202.29L483.68,203.27L483.75,203.38L484.13,204.3L484.58,204.05L484.66,202.27L484.81,204.8L485.11,196.58L485.41,203.04L485.49,203.06L485.71,204.23L485.79,204.14L485.86,198.2L486.09,196.31L486.17,203.1L486.24,203.11L486.77,206.33L486.92,204.12L486.99,202.16L487.52,204.64L487.67,204.12L487.75,197.21L487.9,196.24L488.05,198.35L488.12,203.73L488.27,203.44L488.35,205.07L488.5,206.04L488.8,201.97L488.88,202.83L488.95,202.22L489.33,205.4L489.63,203.48L489.71,202.36L490.01,203.1L490.08,203.94L490.46,203.98L490.54,202.38L490.76,202.12L490.91,202.77L490.99,203.17L491.14,203.8L491.29,203.1L491.36,194.86L491.59,194.23L491.67,196.74L491.74,197.68L492.12,204.62L492.34,198.79L492.42,194.25L492.95,205.06L493.1,197.24L493.17,193.95L493.32,193.03L493.47,196.53L493.55,198.51L493.78,204.7L494.08,197.52L494.15,191.55L494.23,187.96L494.53,202.12L494.83,194.6L494.91,192.57L495.13,185.75L495.51,196.95L495.58,202.96L495.89,202.73L495.96,187.13L496.04,175.41L496.56,201.63L496.64,201.65L496.86,183.78L497.39,197.91L497.47,197.98L497.69,194.14L497.77,184.67L497.84,173.05L498.22,200.73L498.45,190.57L498.52,187.45L498.82,178.3L499.13,192.31L499.2,195.31L499.43,195.56L499.5,192.39L499.65,160.99L499.95,200.24L500.03,200.52L500.18,202.12L500.26,191.81L500.48,175.78L500.56,160.85L501.24,198.29L501.39,188.44L501.46,185.87L501.84,200.97L502.14,189.44L502.21,186.87L502.29,184.69L502.67,191.17L502.74,193.65L503.04,197.41L503.35,190.31L503.42,186.54L503.5,185.57L503.65,191.86L503.72,202.62L503.8,203.45L503.87,193.68L504.17,185.23L504.55,194.17L504.63,196.66L504.78,197.61L504.93,194.78L505,192.81L505.91,182.28L505.98,182.43L506.06,182.52L506.66,190.98L506.74,188.45L506.81,182.01L507.04,172.9L507.26,190.32L507.41,189.34L507.49,188.11L507.79,180.41L508.17,187.39L508.24,191.02L508.32,191.2L508.47,189.97L508.54,187.46L508.7,176.41L509.3,185.57L509.37,181.69L509.6,177.5L509.9,184.87L509.98,187.35L510.2,191.9L510.43,178.54L510.5,174L510.96,192.85L511.33,184.69L511.41,186.22L511.56,188.11L511.63,202.42L511.78,202.25L511.86,203.35L512.16,203.18L512.24,188.02L512.69,200.95L512.99,189.41L513.07,188.66L513.14,187.37L513.52,190.41L513.59,193.83L514.12,184.66L514.35,201.52L514.42,192.33L514.57,197.02L514.8,187.82L514.87,186.02L514.95,184.36L515.25,191.14L515.33,193.51L515.7,202.19L516,193.3L516.08,193.33L516.46,196.23L516.61,190.29L516.68,187.43L516.83,184.57L517.06,190.27L517.13,191.83L517.51,194.9L517.66,191.21L517.74,188.51L517.89,180.86L518.26,188.63L518.57,181.24L518.64,183.37L519.24,195.19L519.39,192.55L519.47,184.8L519.55,152.24L520.07,190.92L520.15,189.66L520.22,186.99L520.45,176.18L520.83,191.22L520.9,197.71L521.05,200.11L521.2,194.94L521.28,181.46L521.35,173.77L521.81,197.71L521.88,197.37L521.96,192.24L522.18,181.74L522.64,195.78L522.71,198.62L522.86,200.83L523.01,193.72L523.09,184.54L523.16,179.82L523.54,191.18L523.69,190.71L523.77,189.66L524.07,184.05L524.37,189.83L524.44,192.21L524.67,193.46L524.82,189.69L524.9,182.39L524.97,178.03L525.5,187.83L525.57,186.78L525.65,183.79L525.88,178.26L526.25,188.72L526.33,191.14L526.7,179.86L526.78,173.39L527.38,181.7L527.53,175.48L527.61,175.24L527.76,175.44L527.83,177.34L528.44,189.58L528.59,183.48L528.66,180.87L528.74,178.48L528.96,193.68L529.04,194.61L529.12,195.53L529.19,194.9L529.27,184.54L529.42,177.49L529.79,197.22L529.87,198.46L530.02,199.52L530.25,198.46L530.32,190.59L531.15,179.28L531.3,180.65L531.38,181.69L531.75,191.19L532.05,188.94L532.13,181.95L532.2,177.77L532.73,188.34L532.81,188.03L533.11,183.06L533.41,187.53L533.49,191.38L533.71,195.02L533.94,182.85L534.01,180.1L534.62,188.51L534.77,184.9L534.84,183.66L534.99,183.71L535.07,186.01L535.6,197.02L535.75,190L535.82,183.1L536.27,188.95L536.57,183.29L536.65,182.43L537.03,194.7L537.1,198.35L537.33,200.23L537.48,197.95L537.55,186.35L537.63,177.07L538.23,188.01L538.31,185.9L538.46,182.07L538.84,190.6L538.91,194.82L539.21,198.38L539.36,187.7L539.44,182.7L539.89,186.11L540.19,182.92L540.27,182.66L540.42,184.64L540.49,187.34L541.1,199.72L541.32,193.43L541.4,191.11L541.77,192.47L542.15,189.03L542.23,189.35L542.68,196.4L542.98,192.66L543.06,189.83L543.88,181.06L543.96,184.43L544.03,185.96L544.41,194.95L544.71,190.67L544.79,182.35L544.86,115.13L545.47,187.76L545.54,186.12L545.62,185L545.99,188.9L546.07,189.86L546.3,198.64L546.75,186.45L546.82,190.01L546.9,191L546.97,191.78L547.12,189.35L547.27,190.88L547.35,182.23L547.58,177.39L547.73,184.35L547.8,191.48L548.03,197.85L548.33,195.69L548.41,181.81L548.48,176.86L548.93,191.09L549.01,190.33L549.08,191.18L549.23,188.14L549.61,195.12L549.69,195.51L549.99,198.06L550.14,196.41L550.21,190.97L550.29,187.18L550.74,192.9L550.97,190.34L551.04,187.65L551.12,186.28L551.34,191.58L551.42,194.97L551.87,197.05L551.95,195.88L552.02,189.84L552.85,173.64L552.93,177.11L553,180.47L553.68,197.76L553.91,193.38L553.98,191.01L554.43,192.5L554.73,186.83L554.81,187.42L554.89,190.68L555.34,197.4L555.56,193.15L555.64,190.17L555.86,162.77L556.47,167.69L556.54,172.5L556.62,160.79L557.07,191.96L557.15,191.87L557.22,192.01L557.52,177.17L557.75,183.89L557.82,186.14L558.13,186.71L558.2,185.3L558.28,182.74L559.03,193.15L559.18,191.01L559.26,183.41L559.33,176.16L559.86,187.23L559.93,187.08L560.01,184.2L560.24,183L560.39,184.41L560.46,188.31L560.76,193.16L560.99,190.78L561.06,181.93L561.14,175.91L561.67,186.21L561.74,185.96L561.82,183.56L562.04,179.27L562.35,187.93L562.42,190.14L562.57,192.26L562.87,182.57L562.95,172.3L563.55,185.7L563.78,181.7L563.85,181.42L563.93,180.53L564.08,186.35L564.15,187.63L564.53,195.25L564.61,189.24L564.68,180.08L564.76,175.75L565.13,184.8L565.28,184.77L565.36,184.51L565.66,167.82L565.81,170.12L565.89,184.39L566.41,195.41L566.56,189.95L566.64,183.12L566.87,177.81L567.02,183.68L567.39,179.12L567.47,179.38L568.07,193.47L568.3,186.88L568.37,175.37L568.45,167.68L568.9,181.89L569.05,181.42L569.13,178.34L569.2,176.84L569.5,184.02L569.58,185.82L569.8,188.86L570.03,186.34L570.11,178.04L570.26,129.16L570.86,167.34L570.94,168.75L571.01,167.29L571.16,175.44L571.24,179L571.54,187.11L571.84,183.61L571.91,171.13L571.99,163.82L572.52,177.71L572.59,177.8L572.82,163.68L572.97,172.56L573.04,174.49L573.5,187.44L573.72,173.11L573.8,166.62L574.4,178.5L574.55,171.24L574.63,169.83L574.7,167.75L574.93,178.82L575,181.25L575.31,187.48L575.46,182.27L575.53,170.97L575.61,161.5L576.21,174.11L576.28,172.73L576.44,169.25L576.74,179.7L576.81,180.7L577.11,185.08L577.26,182.8L577.34,173.92L577.42,166.49L578.02,176.17L578.09,173.32L578.17,170.39L578.24,169.37L578.47,174.13L578.55,177.64L578.62,177.49L578.7,182.19L578.85,186.41L579.22,179.83L579.3,173.67L579.6,174.77L579.98,167.56L580.13,167.9L580.2,169.73L580.66,179.38L580.96,171.78L581.03,163.55L581.86,105.6L581.94,110.23L582.61,160.95L582.77,136.51L582.84,100.8L583.44,138.46L583.67,124.17L583.74,128.74L584.42,177.59L584.5,172.78L584.57,146.7L584.65,119.95L585.1,161.07L585.25,153.96L585.33,147.33L585.48,134.09L585.85,167.73L585.93,175.1L586.16,179.57L586.31,173.24L586.38,146.38L586.83,150.12L587.21,117.75L587.29,124.93L588.04,176.57L588.12,173.55L588.19,143.15L588.27,126.48L588.79,167.71L588.87,173.04L589.09,147.78L589.4,172.82L589.47,177.02L589.77,186.46L590,173.13L590.07,165.13L590.38,175.91L590.83,166.26L590.9,168.22L591.36,188.16L591.43,194.13L591.58,196.49L591.81,193.95L591.88,192.21L592.71,175.7L592.86,178.04L592.94,182.13L593.31,196.86L593.62,188.28L593.69,181.92L594.52,170.93L594.6,172.26L594.67,173.94L595.12,185.22L595.35,182.8L595.42,173.42L595.5,167.63L595.88,177.6L596.1,175.28L596.18,173.75L596.4,168.52L596.78,178.59L596.86,181.24L597.01,181.18L597.08,182.1L597.31,149.46L597.68,158.81L597.76,160.92L597.84,162.02L597.99,155.24L598.06,136.44L598.14,133.56L598.29,152.31L598.36,157.08L598.81,181.44L599.04,154.78L599.12,130.88L599.57,155.71L599.79,134.17L599.87,123.06L599.95,116.97L600.25,150.61L600.32,166.6L600.7,178.3L600.85,160.86L600.92,146.41L601.53,173.7L601.83,169.55L601.9,171.31L602.51,184.83L602.58,182.76L602.66,174.52L602.73,168.29L603.34,177.21L603.41,174.28L603.49,171.7L603.64,170.61L603.79,173.57L603.86,177.28L604.01,180.04L604.09,182.83L605.3,163.55L605.45,163.93L605.52,165.27L605.97,180.39L606.27,172.18L606.35,170.42L607.18,159.9L607.25,161.55L607.33,163.15L607.78,177.34L608.01,168.91L608.08,158.29L608.61,158.69L608.91,97.49L608.99,101.63L609.06,104.06L609.51,165.1L609.82,156.24L609.89,114.6L610.04,42.08L610.57,127.39L610.65,120.9L611.55,166.64L611.62,163.33L611.7,139.91L611.78,107.38L612.38,157.56L612.45,153.77L612.53,149.48L612.98,164.07L613.06,170.62L613.28,185.15L613.51,157.51L613.58,141.16L613.66,133.89L614.04,146.15L614.11,143.86L614.19,154.06L614.41,124.76L614.86,170.32L614.94,174.1L615.09,175.39L615.24,174.43L615.32,163.95L615.39,156.13L615.99,167.41L616.07,163.77L616.15,159.99L616.45,165.14L616.52,170.19L617.05,179.85L617.2,172.73L617.28,167.88L617.43,156.43L618.03,160.72L618.1,164.34L618.71,185.32L618.93,179.44L619.01,174.17L619.76,148.7L619.91,151.15L619.99,155.92L620.44,180.52L620.67,174L620.74,154.48L621.5,115.78L621.57,119.76L621.65,130.01L622.32,181.93L622.55,158.43L622.63,98.64L623.38,33.26L623.45,87.34L624.13,172.87L624.36,137.77L624.43,-30.43L624.81,95.24L625.19,-58.89L625.26,9.63L625.94,180.94L626.17,162.02L626.24,131.07L626.32,109.04L626.92,149.19L627,141.59L627.07,141.21L627.15,162.74L627.22,162.07L627.3,164.89L627.37,171.97L627.67,181.6L627.9,180.83L627.98,171.49L628.05,162.44L628.65,174.47L628.73,171.38L628.8,168.61L629.26,179.12L629.33,181.46L629.56,183.91L629.78,178.03L629.86,175.5L630.09,164.09L630.61,172.94L630.69,174.17L631.37,195.95L631.59,189.3L631.67,183.52L631.89,175.48L632.42,180.42L632.5,181.66L633.1,193.05L633.33,189.27L633.4,181.51L633.93,181.91L634.23,158.51L634.31,168.75L634.38,169.34L634.46,165.36L634.53,173.02L634.98,191.17L635.28,173.3L635.36,178.32L635.66,181.41L635.74,182.91L636.04,178.67L636.34,183.38L636.42,187.55L636.79,197.84L636.94,192.62L637.02,183.96L637.09,175.56L637.77,179.74L637.85,178.59L638,177.34L638.15,180.74L638.22,185.53L638.3,185.8L638.37,189.53L638.52,193.02L638.75,188.88L638.83,180.02L639.28,181.55L639.66,174.23L639.73,173.67L639.96,177.96L640.03,181.88L640.48,187.8L640.56,185.14L640.63,177.55L640.71,171.48L641.31,180.79L641.39,177.84L641.46,175.55L641.77,184.31L641.84,189.34L642.37,195.27L642.59,189.38L642.67,178.96L642.97,179.34L643.2,172.43L643.27,167.1L643.35,166.22L643.42,171.61L643.5,174.08L644.03,192.56L644.25,183.66L644.33,176.84L645.16,143.68L645.23,146.08L645.31,151.38L645.76,180.06L646.06,169.92L646.14,163.04L646.74,176.89L646.96,176.23L647.04,176.68L647.11,174.6L647.42,185.69L647.49,190.8L648.09,176.08L648.77,176.39L648.85,178.18L648.92,175.63L649.22,185.97L649.3,191.18L650.05,171.93L650.28,172.63L650.36,172.9L650.43,170.82L650.81,174.01L650.88,180.12L651.03,179.74L651.33,184.58L651.41,177.97L651.56,160.13L652.24,166.32L652.31,166.26L652.39,166.05L652.54,167.63L652.62,172.1L653.07,185.41L653.29,174.7L653.37,168.3L653.82,175.83L654.12,170.98L654.2,172.28L655.03,189.94L655.18,183.59L655.25,177.41L655.4,171.86L655.7,178.23L656.01,173.84L656.08,175.32L656.23,178.99L656.31,183.62L656.46,183.08L656.61,186.98L656.91,183.19L656.99,180.67L657.21,170.68L657.81,176.66L657.89,178.09L658.42,188.08L658.64,185.12L658.72,179.79L658.79,173.45L659.32,180.22L659.47,177.54L659.55,175.39L659.85,181.5L659.92,184.89L660,184.38" style="vector-effect: none; fill: none; stroke: rgb(54, 112, 97); stroke-opacity: 1; stroke-width: 0px; opacity: 1;"/></g><g class="points"/><g class="text"/></g></g></g><g class="overplot"/><path class="xlines-above crisp" d="M19,230.5H681M19,19.5H681" style="fill: none; stroke-width: 1px; stroke: rgb(68, 68, 68); stroke-opacity: 1;"/><path class="ylines-above crisp" d="M19.5,20V230M680.5,20V230" style="fill: none; stroke-width: 1px; stroke: rgb(68, 68, 68); stroke-opacity: 1;"/><g class="overlines-above"/><g class="xaxislayer-above"><path class="xtick ticks crisp" d="M0,231v5" transform="translate(20,0)" style="stroke: rgb(68, 68, 68); stroke-opacity: 1; stroke-width: 1px;"/><path class="xtick ticks crisp" d="M0,231v5" transform="translate(126.7,0)" style="stroke: rgb(68, 68, 68); stroke-opacity: 1; stroke-width: 1px;"/><path class="xtick ticks crisp" d="M0,231v5" transform="translate(237.01,0)" style="stroke: rgb(68, 68, 68); stroke-opacity: 1; stroke-width: 1px;"/><path class="xtick ticks crisp" d="M0,231v5" transform="translate(347.33,0)" style="stroke: rgb(68, 68, 68); stroke-opacity: 1; stroke-width: 1px;"/><path class="xtick ticks crisp" d="M0,231v5" transform="translate(459.45,0)" style="stroke: rgb(68, 68, 68); stroke-opacity: 1; stroke-width: 1px;"/><path class="xtick ticks crisp" d="M0,231v5" transform="translate(569.76,0)" style="stroke: rgb(68, 68, 68); stroke-opacity: 1; stroke-width: 1px;"/><g class="xtick"><text text-anchor="middle" x="0" y="255.2" transform="translate(20,0)" style="font-family: 'Open Sans', verdana, arial, sans-serif; font-size: 16px; fill: rgb(68, 68, 68); fill-opacity: 1; white-space: pre; opacity: 0;">01.01</text></g><g class="xtick"><text text-anchor="middle" x="0" y="255.2" style="font-family: 'Open Sans', verdana, arial, sans-serif; font-size: 16px; fill: rgb(68, 68, 68); fill-opacity: 1; white-space: pre; opacity: 1;" transform="translate(126.7,0)">01.03</text></g><g class="xtick"><text text-anchor="middle" x="0" y="255.2" style="font-family: 'Open Sans', verdana, arial, sans-serif; font-size: 16px; fill: rgb(68, 68, 68); fill-opacity: 1; white-space: pre; opacity: 1;" transform="translate(237.01,0)">01.05</text></g><g class="xtick"><text text-anchor="middle" x="0" y="255.2" style="font-family: 'Open Sans', verdana, arial, sans-serif; font-size: 16px; fill: rgb(68, 68, 68); fill-opacity: 1; white-space: pre; opacity: 1;" transform="translate(347.33,0)">01.07</text></g><g class="xtick"><text text-anchor="middle" x="0" y="255.2" style="font-family: 'Open Sans', verdana, arial, sans-serif; font-size: 16px; fill: rgb(68, 68, 68); fill-opacity: 1; white-space: pre; opacity: 1;" transform="translate(459.45,0)">01.09</text></g><g class="xtick"><text text-anchor="middle" x="0" y="255.2" style="font-family: 'Open Sans', verdana, arial, sans-serif; font-size: 16px; fill: rgb(68, 68, 68); fill-opacity: 1; white-space: pre; opacity: 1;" transform="translate(569.76,0)">01.11</text></g></g><g class="yaxislayer-above"><path class="ytick ticks crisp" d="M19,0h-5" transform="translate(0,230)" style="stroke: rgb(68, 68, 68); stroke-opacity: 1; stroke-width: 1px;"/><path class="ytick ticks crisp" d="M19,0h-5" transform="translate(0,188)" style="stroke: rgb(68, 68, 68); stroke-opacity: 1; stroke-width: 1px;"/><path class="ytick ticks crisp" d="M19,0h-5" transform="translate(0,146)" style="stroke: rgb(68, 68, 68); stroke-opacity: 1; stroke-width: 1px;"/><path class="ytick ticks crisp" d="M19,0h-5" transform="translate(0,104)" style="stroke: rgb(68, 68, 68); stroke-opacity: 1; stroke-width: 1px;"/><path class="ytick ticks crisp" d="M19,0h-5" transform="translate(0,62)" style="stroke: rgb(68, 68, 68); stroke-opacity: 1; stroke-width: 1px;"/><path class="ytick ticks crisp" d="M19,0h-5" transform="translate(0,20)" style="stroke: rgb(68, 68, 68); stroke-opacity: 1; stroke-width: 1px;"/><g class="ytick"><text text-anchor="end" x="10.8" y="5.6" transform="translate(0,230)" style="font-family: 'Open Sans', verdana, arial, sans-serif; font-size: 16px; fill: rgb(68, 68, 68); fill-opacity: 1; white-space: pre; opacity: 1;">0</text></g><g class="ytick"><text text-anchor="end" x="10.8" y="5.6" style="font-family: 'Open Sans', verdana, arial, sans-serif; font-size: 16px; fill: rgb(68, 68, 68); fill-opacity: 1; white-space: pre; opacity: 1;" transform="translate(0,188)">10</text></g><g class="ytick"><text text-anchor="end" x="10.8" y="5.6" style="font-family: 'Open Sans', verdana, arial, sans-serif; font-size: 16px; fill: rgb(68, 68, 68); fill-opacity: 1; white-space: pre; opacity: 1;" transform="translate(0,146)">20</text></g><g class="ytick"><text text-anchor="end" x="10.8" y="5.6" style="font-family: 'Open Sans', verdana, arial, sans-serif; font-size: 16px; fill: rgb(68, 68, 68); fill-opacity: 1; white-space: pre; opacity: 1;" transform="translate(0,104)">30</text></g><g class="ytick"><text text-anchor="end" x="10.8" y="5.6" style="font-family: 'Open Sans', verdana, arial, sans-serif; font-size: 16px; fill: rgb(68, 68, 68); fill-opacity: 1; white-space: pre; opacity: 1;" transform="translate(0,62)">40</text></g><g class="ytick"><text text-anchor="end" x="10.8" y="5.6" style="font-family: 'Open Sans', verdana, arial, sans-serif; font-size: 16px; fill: rgb(68, 68, 68); fill-opacity: 1; white-space: pre; opacity: 1;" transform="translate(0,20)">50</text></g></g><g class="overaxes-above"/></g></g><g class="polarlayer"/><g class="smithlayer"/><g class="ternarylayer"/><g class="geolayer"/><g class="funnelarealayer"/><g class="pielayer"/><g class="iciclelayer"/><g class="treemaplayer"/><g class="sunburstlayer"/><g class="glimages"/><defs id="topdefs-afa979"><g class="clips"/><clipPath id="legendafa979"><rect width="210" height="55" x="0" y="0"/></clipPath></defs><g class="layer-above"><g class="imagelayer"/><g class="shapelayer"/></g><g class="infolayer"><g class="legend" pointer-events="all" transform="translate(26.6,24.200000000000003)"><rect class="bg" shape-rendering="crispEdges" width="210" height="55" x="0" y="0" style="stroke: rgb(68, 68, 68); stroke-opacity: 1; fill: rgb(0, 0, 0); fill-opacity: 0; stroke-width: 0px;"/><g class="scrollbox" transform="" clip-path="url(#legendafa979)"><g class="groups"><g class="traces" transform="translate(0,27.3)" style="opacity: 1;"><text class="legendtext" text-anchor="start" x="40" y="-4.16" style="font-family: 'Open Sans', verdana, arial, sans-serif; font-size: 16px; fill: rgb(68, 68, 68); fill-opacity: 1; white-space: pre;"><tspan class="line" dy="0em" x="40" y="-4.16">Strm:</tspan><tspan class="line" dy="1.3em" x="40" y="-4.16">49 395 kr/r | 64 kr</tspan></text><g class="layers"><g class="legendfill"><path class="js-fill" d="M5,-2h30v6h-30z" style="stroke-width: 0; fill: rgb(54, 112, 97); fill-opacity: 0.5;"/></g><g class="legendlines"><path class="js-line" d="M5,-2h30" style="fill: none; stroke: rgb(54, 112, 97); stroke-opacity: 1; stroke-width: 0px;"/></g><g class="legendsymbols"><g class="legendpoints"/></g></g><rect class="legendtoggle" x="0" y="-22.3" width="206.5625" height="44.6" style="fill: rgb(0, 0, 0); fill-opacity: 0;"/></g></g></g><rect class="scrollbar" rx="20" ry="3" width="0" height="0" x="0" y="0" style="fill: rgb(128, 139, 164); fill-opacity: 1;"/></g><g class="g-gtitle"/><g class="g-xtitle"/><g class="g-ytitle" transform="translate(32,0)"><text class="ytitle" transform="rotate(-90,-18,125)" x="-18" y="125" text-anchor="middle" style="font-family: 'Open Sans', verdana, arial, sans-serif; font-size: 14px; fill: rgb(68, 68, 68); opacity: 1; font-weight: normal; white-space: pre;">Kostnad (kr)</text></g></g></svg>