<svg class="main-svg" xmlns="http://www.w3.org/2000/svg" xmlns:xlink="http://www.w3.org/1999/xlink" width="700" height="250" style="" viewBox="0 0 700 250"><rect x="0" y="0" width="700" height="250" style="fill: rgb(255, 255, 255); fill-opacity: 1;"/><defs id="defs-dc4a95"><g class="clips"><clipPath id="clipdc4a95xyplot" class="plotclip"><rect width="660" height="210"/></clipPath><clipPath class="axesclip" id="clipdc4a95x"><rect x="20" y="0" width="660" height="250"/></clipPath><clipPath class="axesclip" id="clipdc4a95y"><rect x="0" y="20" width="700" height="210"/></clipPath><clipPath class="axesclip" id="clipdc4a95xy"><rect x="20" y="20" width="660" height="210"/></clipPath></g><g class="gradients"/><g class="patterns"/></defs><g class="bglayer"/><g class="layer-below"><g class="imagelayer"/><g class="shapelayer"/></g><g class="cartesianlayer"><g class="subplot xy"><g class="layer-subplot"><g class="shapelayer"/><g class="imagelayer"/></g><g class="minor-gridlayer"><g class="x"/><g class="y"/></g><g class="gridlayer"><g class="x"><path class="xgrid crisp" transform="translate(126.7,0)" d="M0,20v210" style="stroke: rgb(238, 238, 238); stroke-opacity: 1; stroke-width: 0.1px;"/><path class="xgrid crisp" transform="translate(237.01,0)" d="M0,20v210" style="stroke: rgb(238, 238, 238); stroke-opacity: 1; stroke-width: 0.1px;"/><path class="xgrid crisp" transform="translate(347.33,0)" d="M0,20v210" style="stroke: rgb(238, 238, 238); stroke-opacity: 1; stroke-width: 0.1px;"/><path class="xgrid crisp" transform="translate(459.45,0)" d="M0,20v210" style="stroke: rgb(238, 238, 238); stroke-opacity: 1; stroke-width: 0.1px;"/><path class="xgrid crisp" transform="translate(569.76,0)" d="M0,20v210" style="stroke: rgb(238, 238, 238); stroke-opacity: 1; stroke-width: 0.1px;"/></g><g class="y"><path class="ygrid crisp" transform="translate(0,188)" d="M20,0h660" style="stroke: rgb(238, 238, 238); stroke-opacity: 1; stroke-width: 0.1px;"/><path class="ygrid crisp" transform="translate(0,146)" d="M20,0h660" style="stroke: rgb(238, 238, 238); stroke-opacity: 1; stroke-width: 0.1px;"/><path class="ygrid crisp" transform="translate(0,104)" d="M20,0h660" style="stroke: rgb(238, 238, 238); stroke-opacity: 1; stroke-width: 0.1px;"/><path class="ygrid crisp" transform="translate(0,62)" d="M20,0h660" style="stroke: rgb(238, 238, 238); stroke-opacity: 1; stroke-width: 0.1px;"/></g></g><g class="zerolinelayer"><path class="yzl zl crisp" transform="translate(0,230)" d="M20,0h660" style="stroke: rgb(68, 68, 68); stroke-opacity: 1; stroke-width: 1px;"/></g><g class="layer-between"><g class="shapelayer"/><g class="imagelayer"/></g><path class="xlines-below"/><path class="ylines-below"/><g class="overlines-below"/><g class="xaxislayer-below"/><g class="yaxislayer-below"/><g class="overaxes-below"/><g class="plot" transform="translate(20,20)" clip-path="url(#clipdc4a95xyplot)"><g class="scatterlayer mlayer"><g class="trace scatter trace5e08a0" style="stroke-miterlimit: 2;"><g class="fills"><g><path class="js-fill" d="M660,210L0,210L0,190.65L0.38,199.6L0.68,191.81L0.75,187.01L1.28,183.75L1.51,185.58L1.58,186.65L1.96,195.9L2.19,191.99L2.26,183.03L3.09,171.17L3.16,173.22L3.92,186.73L3.99,182.69L4.07,174.16L4.6,176.48L4.9,164.11L4.97,163.83L5.05,164.15L5.12,167.75L5.73,183.39L5.8,180.57L5.88,168.95L6.4,170.51L6.78,146.69L6.86,153.75L7.38,183.01L7.61,178.3L7.69,161.04L8.51,16.86L8.59,77.89L8.67,136.07L9.19,181.18L9.57,174.2L9.64,170.33L10.32,156.25L10.4,160.31L10.47,163.54L11.15,184.89L11.38,179.1L11.45,175.43L11.6,166.97L11.91,175.8L12.28,169.37L12.36,171.8L12.96,189.25L13.11,175.06L13.19,166.97L13.64,183.32L13.94,169.56L14.02,170.14L14.69,191.18L14.84,187.75L14.92,177.78L15.37,180.09L15.75,163.92L15.82,165.85L16.35,189.53L16.65,186.05L16.73,176.87L17.26,177.19L17.56,158.52L17.63,159.58L18.31,189.15L18.46,185.83L18.54,174.44L18.61,162.51L19.06,180.52L19.29,170.02L19.37,162.93L20.12,190.33L20.34,178.5L20.42,165.13L20.87,179.54L21.17,166.79L21.25,167.2L22,191.8L22.23,186.41L22.3,183.55L22.45,177.38L22.76,184.2L23.06,178.99L23.13,180.78L23.21,180.99L23.28,183.95L23.58,192.25L24.04,185.82L24.11,181.43L24.87,172.28L24.94,176.49L25.02,178.35L25.62,191.03L25.69,187.62L25.77,178.09L26.3,181.19L26.6,169.34L26.67,167.39L27.2,186.69L27.5,182.55L27.58,159.9L27.8,115.57L28.11,161.79L28.33,149.31L28.41,144.4L29.24,189.35L29.31,187.19L29.39,177.95L30.22,159.25L30.29,164.22L30.97,189.27L31.2,173.59L31.27,161.25L31.8,178.38L32.17,171.79L32.25,174.09L32.78,190.26L33,176.43L33.08,166.23L33.53,180.11L33.76,170.25L33.83,163.85L34.74,189.08L34.89,182.04L34.96,176.56L35.42,177.02L35.72,162.1L35.79,165.55L35.87,169.74L36.47,187.73L36.7,184.93L36.77,179.47L37.52,172.09L37.6,172.57L37.68,174.6L38.28,194.35L38.43,176.68L38.5,164.76L39.11,178.27L39.33,173.58L39.41,175.03L39.48,174.18L39.63,179.67L39.71,181.68L40.01,200.53L40.31,170.03L40.39,176.65L40.46,175.84L41.07,175L41.9,199.74L41.97,198.28L42.05,191.41L42.12,179.79L42.8,186.35L42.87,183.64L43.1,185.27L43.18,187.15L43.55,195.07L43.78,192.42L43.85,183.5L44.38,185.04L44.68,169.42L44.76,169.79L44.83,175.84L44.98,180.43L45.06,184.47L45.51,193.98L45.59,192.67L45.66,183.98L45.74,178.12L46.19,190.53L46.27,189.56L46.34,189.41L46.49,183.11L47.02,189L47.09,190.79L47.32,190.99L47.4,190.73L47.47,187.35L47.77,177.74L48.45,178.48L48.53,178.78L49.05,189.07L49.35,185.04L49.43,182.34L49.51,179.98L49.73,186.81L50.18,181.01L50.26,182.22L50.41,184.52L50.49,186.43L50.86,192.47L51.01,189.23L51.09,183.16L51.54,187.4L51.92,168.46L51.99,171.19L52.07,173.81L52.67,194.2L52.9,182.96L52.97,176.89L53.5,190.1L53.88,185.02L53.95,186.52L54.48,194.48L54.63,191.42L54.7,184.94L54.78,179.27L55.23,187.42L55.38,186.54L55.46,185.52L55.53,183.63L55.99,190.21L56.06,190.33L56.14,192.35L56.44,188.61L56.51,181.21L56.59,176.61L57.04,185.05L57.19,183.98L57.27,182.67L57.49,179.16L57.87,185.42L57.94,187.52L58.02,187.77L58.1,187.12L58.17,187.48L58.25,185.24L58.4,169.87L59,182.76L59.08,180.7L59.3,176.75L59.6,188.18L59.68,187.28L59.75,189.39L59.98,198.93L60.13,194.19L60.21,188.09L61.03,177.27L61.11,178.68L61.34,185.87L61.41,188.33L61.79,201.29L62.01,199.42L62.09,194.68L62.84,180.01L62.99,181.13L63.07,183.08L63.52,200.67L63.67,196.7L63.75,183.35L63.82,177.76L64.2,186.68L64.5,182.89L64.58,178.4L64.65,177.19L64.95,184.18L65.03,186.27L65.18,189.72L65.48,185.84L65.56,176.87L65.63,168.29L66.23,180.99L66.31,178.56L66.38,176.73L66.76,183.65L66.84,184.52L66.99,188.82L67.29,185.05L67.36,172.98L67.82,178.13L68.19,161.44L68.27,156.54L68.87,186.96L69.1,182.56L69.17,171.85L69.25,155.47L69.85,175.99L69.93,174.89L70,168.33L70.53,187.55L70.6,190.05L70.83,191.63L70.91,188.88L71.06,175.24L71.66,185.75L71.73,183.21L71.88,179.44L72.26,187.39L72.34,188.95L72.41,190.81L72.86,185.11L72.94,181.39L73.62,171.26L73.77,176.66L73.84,178.98L74.45,193.94L74.75,186.03L74.82,182.65L75.2,185.37L75.5,176.69L75.65,180.2L75.73,183.1L76.1,191.47L76.33,187.53L76.41,180.13L76.48,168.92L77.01,186.4L77.08,186.12L77.16,180.99L77.31,173.6L77.76,189.37L77.84,191.69L77.99,192.48L78.06,191.52L78.14,189.09L78.29,174.19L78.82,190.73L78.89,189.7L79.12,174.07L79.5,187.58L79.57,190.16L79.8,191.98L79.95,188.38L80.02,181.33L80.1,171.58L80.4,183.01L80.78,177.1L80.85,173.21L80.93,171.86L81.15,179.6L81.23,183.7L81.61,189.61L81.76,186.99L81.83,178.99L81.91,168.48L82.36,182.66L82.58,176.94L82.66,174L82.74,172.68L82.89,178.62L82.96,182.42L83.41,192.27L83.64,182.08L83.72,177.58L84.17,188.42L84.47,182.21L84.54,181.29L84.77,184.31L84.85,187.88L85.22,192.99L85.45,189.41L85.52,188.08L86.35,171.05L86.43,175.4L86.5,179.19L87.18,194.35L87.41,189.54L87.48,187.65L87.56,187.17L87.86,189.69L88.01,187.93L88.09,182.75L88.16,181.14L88.46,188.37L88.54,190.05L88.69,193.28L88.99,189.35L89.06,182.59L89.14,170.09L89.59,186.74L89.74,185.11L89.82,182.19L89.97,170.42L90.42,188.89L90.5,190.94L90.72,191.21L90.8,190.08L90.95,167.57L91.4,190.99L91.48,190.91L91.55,190.28L91.78,181.3L92.08,189.61L92.15,190.59L92.53,195.96L92.68,187.68L92.76,181.72L93.21,189.39L93.51,183.01L93.59,182.26L93.96,191.54L94.04,193.99L94.11,195.83L94.41,191.05L94.49,183.42L94.64,177.45L95.17,186.46L95.24,183.63L95.32,182.72L95.62,185.99L95.7,189.56L96.07,193.68L96.22,191.85L96.3,184.02L96.37,179.11L96.75,190.01L96.98,188.86L97.05,185.58L97.2,182.27L97.65,188.65L97.73,190.62L97.88,191.57L98.11,187.36L98.18,186.2L98.71,186.53L99.01,175.43L99.09,180.86L99.16,181.75L99.69,190.68L99.99,187.32L100.07,184.05L100.52,187.52L100.82,172.76L100.9,178.12L100.97,181.02L101.57,191.91L101.72,183.61L101.8,176.31L102.33,188.4L102.55,178.86L102.63,175.23L103.23,191.12L103.46,188.22L103.53,179.42L103.61,164.79L104.14,189.91L104.21,189.7L104.29,187.11L104.51,181.98L104.89,190.7L104.96,191.79L105.04,192.46L105.27,189.64L105.34,183.16L105.42,176.24L105.94,190.95L106.02,190.74L106.25,182.62L106.7,190.62L106.77,193.53L107.07,190.58L107.15,183.95L107.22,178L107.6,190.01L107.83,189.26L107.9,187.31L108.13,181.88L108.51,189.57L108.58,191.99L108.66,192.12L108.73,191.27L108.81,191.38L108.88,189.32L109.03,176.05L109.56,187.51L109.64,188.13L109.86,179.14L110.24,187.25L110.31,189.29L110.39,190.43L110.77,188.03L110.84,185.8L111.07,179.41L111.37,189.06L111.59,181.71L111.67,183.79L111.75,183.28L111.9,184.94L111.97,187.42L112.42,191.22L112.57,188.81L112.65,178.77L112.73,174.32L113.18,186.1L113.25,185.03L113.33,183.88L113.48,178.24L114.01,188.79L114.08,187.83L114.31,184.67L114.38,179.46L114.46,172.74L114.91,186.32L114.99,186.19L115.06,186.04L115.29,169.62L115.59,182.35L115.66,182.7L115.89,187.4L116.12,182.57L116.19,169.9L116.27,154.3L116.87,180.78L116.94,176.27L117.17,156.39L117.62,183.36L117.7,183.61L117.92,179.93L118,168.2L118.08,149.72L118.68,180.3L118.75,176.53L118.9,159.39L119.43,182.62L119.51,182.63L119.58,182.87L119.66,181.75L119.73,178.33L119.88,149.09L120.34,182.57L120.41,182.82L120.49,183.58L120.56,179.91L120.64,176.1L120.79,168.74L121.24,186.43L121.32,186.69L121.47,186.85L121.54,185.33L121.69,171.77L122.29,184.31L122.37,181.24L122.6,174.04L122.97,183.48L123.05,186.62L123.27,190.74L123.5,183.73L123.58,183.74L123.65,181.45L124.1,181.8L124.33,174.87L124.48,175.46L124.56,178.88L124.86,185.64L125.23,181.62L125.31,178.19L125.53,173.19L125.91,180.99L126.14,173.4L126.21,173.33L126.74,184.07L126.97,179.15L127.04,172.41L127.12,156.78L127.72,181.42L127.8,179.2L128.02,167.11L128.4,185.24L128.47,187.6L128.62,187.89L128.7,187.81L128.77,186.35L128.93,170.67L129.53,184.39L129.6,181.66L129.68,178.29L130.13,185.81L130.21,187.8L130.43,189.22L130.58,186.76L130.66,179.78L130.73,174.23L131.19,187.01L131.26,186.59L131.34,187.03L131.56,179.31L132.02,187.79L132.09,189.89L132.39,186.47L132.47,178.92L132.54,173L132.99,188.71L133.07,188.27L133.15,187.72L133.52,180.03L133.82,188.06L133.9,189.6L133.97,191.3L134.28,181.32L134.35,174.77L134.73,188.83L135.1,182.77L135.18,181.16L135.33,181.09L135.41,182.1L135.78,190.16L136.16,185.97L136.23,184.77L136.99,170.55L137.06,173.71L137.14,180.96L137.67,192.08L137.97,186.21L138.04,177.67L138.12,177.34L138.19,178.73L138.27,181.86L139.17,189.91L139.25,190.9L139.47,193.48L139.7,185.04L139.78,171.67L140.23,189.02L140.68,184.01L140.76,185.46L141.28,192.36L141.43,190.25L141.51,182.32L141.58,162.36L142.04,188.28L142.19,186.97L142.26,184.58L142.41,154.19L142.94,191.07L143.02,191.13L143.24,187.54L143.32,179.25L143.39,165.07L143.85,184.49L144,183.84L144.07,182.84L144.22,162.47L144.67,189.2L144.75,191.87L144.98,193.02L145.05,190.6L145.13,183.82L145.2,178.63L145.8,189.31L145.88,187.18L146.11,182.4L146.48,191.21L146.56,193.48L146.71,193.7L146.78,193.62L146.86,191.85L147.01,183.83L147.39,198.32L147.54,195.73L147.61,194.53L147.91,183.63L148.29,194.86L148.37,196.79L148.52,196.85L148.67,196.32L148.74,195.18L149.72,179.8L149.8,181.92L149.87,184.71L150.17,191.72L150.55,184.33L150.63,177.33L150.7,176.08L151,182.56L151.08,183.31L151.15,183.97L151.3,178.83L151.38,170.18L151.46,152.88L151.98,187.85L152.06,187.93L152.21,188.33L152.28,185.46L152.44,168.26L152.89,187.99L152.96,187.56L153.04,186.04L153.34,178.66L153.72,184.78L153.79,186.94L154.09,184.39L154.17,176.83L154.24,171.84L154.7,182.86L154.77,181.27L154.85,183.28L155.15,176.68L155.52,183.89L155.6,186.16L155.98,176.46L156.05,172.77L156.65,188.02L156.81,181.3L156.88,179.42L157.11,182.59L157.18,187.89L157.63,197.93L157.79,189.72L157.86,181.02L158.24,194.99L158.54,183.69L158.61,180.04L158.84,178.12L159.07,184.23L159.14,186.37L159.22,187.49L159.52,185.53L159.59,178.48L159.67,174.16L160.05,190.99L160.12,191.59L160.57,178.47L160.95,186.28L161.03,188.31L161.25,188.32L161.33,189.27L162.23,181.64L162.31,180.27L162.83,189.81L162.91,191.24L162.98,191.79L163.14,190.29L163.21,187.39L163.36,183.94L163.44,182.04L163.51,181.61L163.59,182.95L163.66,186.17L163.81,189.16L164.11,184.22L164.19,183.85L164.27,183.43L164.34,186.11L164.42,188.16L164.87,199.7L165.02,183.7L165.09,180.11L165.55,191.8L165.85,186.16L165.92,182.24L166.07,181.62L166.15,183.66L166.22,184.8L166.68,189.87L166.75,188.62L166.83,181.52L166.9,162.07L167.51,187L167.58,184.27L167.88,178.94L168.11,185.45L168.18,188.78L168.33,191.71L168.64,181.4L168.71,175.98L169.24,190.69L169.46,182.76L169.54,178.17L169.62,174.09L169.99,190.24L170.07,192.55L170.22,192.91L170.29,192.03L170.37,190.65L170.52,181.59L171.05,194.26L171.12,195.4L171.5,185.67L171.8,193.49L171.88,194.62L172.1,194.19L172.18,192.16L172.33,180.06L172.93,188.43L173.01,187.35L173.16,182.07L173.53,193.24L173.61,198.09L173.99,201.53L174.29,197.38L174.36,196.98L174.66,201.46L174.89,196.92L174.97,186.69L175.04,184.63L175.42,191.53L175.49,193.66L176.17,185.29L176.32,190.45L176.4,190.45L176.92,185.83L177.3,195.65L177.38,195.7L177.53,195.79L177.6,193.79L177.75,177.61L178.13,196.8L178.21,198.04L178.28,198.56L178.43,194.73L178.51,190.26L178.66,189.2L178.88,192.74L178.96,194.27L179.18,202.61L179.56,185.91L179.64,190.28L179.71,191.29L180.09,199.33L180.16,195.76L180.24,192.07L180.54,166.03L180.62,179.69L180.69,191.88L180.92,197.1L180.99,199.64L181.07,201.48L181.29,189.76L181.37,185.2L181.82,193L182.12,188.74L182.2,187.28L182.35,184.52L182.42,185.37L182.5,189.02L182.95,198.92L183.1,195.29L183.18,193.31L183.33,188.35L183.71,202.48L183.78,202.54L184.16,191.14L184.53,201.45L184.61,202.23L184.76,202.46L184.84,201.76L184.91,199.08L185.14,196.34L185.21,200.87L185.29,201.52L185.59,206.37L185.74,199.51L185.82,197.69L185.97,195.09L186.34,203.66L186.42,203.65L186.64,202.91L186.72,199.97L187.47,192.91L187.55,187.92L187.77,186.27L188,191.3L188.08,193.32L188.38,197.1L188.68,190.99L188.75,187.06L189.13,197.36L189.28,194.71L189.36,191.38L189.58,191.21L189.96,201.24L190.04,202.38L190.11,203L190.26,198.61L190.34,194.87L190.56,190.51L191.01,195.9L191.17,191.82L191.24,191.28L191.32,190.36L191.62,194.31L191.77,193.63L191.84,193.7L191.99,193.7L192.07,192.1L192.22,183.63L192.45,201.36L192.67,201.35L192.75,202.53L193.2,186.87L193.58,195.94L193.65,195.91L193.95,187.06L194.03,165.82L194.63,202.42L194.78,191.29L194.86,188.58L194.93,186.56L195.31,194.96L195.39,197.64L195.61,197.96L195.69,196.71L195.76,190.14L195.84,186.79L196.21,201.9L196.29,202.15L196.36,203.31L196.59,202.68L196.67,189.76L197.27,198.69L197.5,197.19L197.57,190.54L198.17,204.36L198.4,202.71L198.47,192.07L198.55,190.45L198.93,195.87L199,197.04L199.08,195.94L199.3,199.34L199.45,196.68L199.53,201.38L199.98,203.6L200.21,202.56L200.28,190.67L200.43,189.8L200.51,192.15L200.58,193.15L201.87,202.42L201.94,202.34L202.02,191.32L202.17,191.56L202.24,190.21L202.32,192.8L202.69,198.82L202.92,196.45L203,190.32L203.07,162.26L203.75,185.8L203.82,183.97L204.05,183.84L204.13,185.21L204.58,191.4L204.73,187.68L204.8,179.92L204.88,166.43L205.48,183.17L205.56,181.61L205.86,177.06L206.16,185.7L206.24,187.28L206.46,187.78L206.54,185.53L206.69,168.6L207.29,181.95L207.37,180.27L207.52,171.67L207.97,183.52L208.04,187.26L208.27,186.77L208.35,183.75L208.5,162.06L209.02,185.06L209.1,184.31L209.33,173.18L209.4,161.9L209.48,159.68L209.55,169.18L209.63,179.93L209.93,187.94L210.15,186.41L210.23,179.44L210.3,177.03L210.61,189.89L210.68,191.95L210.83,192.98L210.91,192.58L210.98,188.96L211.28,178.02L211.59,189.28L211.66,193.37L212.11,201.28L212.19,195.53L212.26,190.92L212.34,189.74L212.64,195.74L212.72,198.2L213.09,184.7L213.47,192.68L213.54,192.97L213.7,193.69L213.85,191.49L213.92,186.83L214,180.72L214.45,193.02L214.6,189.88L214.68,187.05L214.9,183.71L215.2,191.27L215.28,193.36L215.5,193.38L215.58,192.26L215.73,183L216.18,198.3L216.26,199.94L216.63,187.68L217.01,194.98L217.09,197.81L217.24,198.43L217.46,194.73L217.76,198.18L217.84,198L218.14,201.12L218.37,194.59L218.44,190.33L218.52,188.44L218.82,198.21L218.89,200.04L219.05,200.19L219.12,199.35L219.2,195.58L219.35,183.32L219.57,204.13L219.87,201.86L219.95,200.49L220.25,189.34L220.7,198.72L220.78,198.62L221.16,189.37L221.38,193.84L221.46,195.31L221.68,196.55L221.91,192.18L221.98,190.82L222.13,189.84L222.21,191.38L222.29,194.2L222.59,200.82L222.81,198.47L222.89,193.44L222.96,188.5L223.42,198.36L223.57,194.59L223.64,193.74L223.94,190.37L224.17,195.99L224.24,197.11L224.62,198.11L224.7,196.06L224.77,195.38L224.92,192.16L225.15,200.62L225.22,200.4L225.3,201.34L225.75,189.33L226.05,195.83L226.13,197.39L226.43,198.75L226.58,193.86L226.66,188.03L226.73,185.23L227.11,194.84L227.26,193.9L227.33,191.69L227.56,184.12L228.01,195.29L228.09,195.37L228.16,195.85L228.24,194.49L228.31,180.77L228.39,171.55L228.84,202.37L228.92,203.95L229.37,178.95L229.75,195.22L229.82,196.41L230.05,195.09L230.12,183.23L230.2,173.64L230.65,201.3L230.72,202.44L230.8,202.57L230.88,192.92L231.1,182.38L231.48,197.28L231.55,199.38L231.78,199.41L231.86,198.43L232.01,191.88L232.46,205.61L232.53,206.04L232.68,203.83L232.76,194.76L232.99,192.55L233.29,197.78L233.36,199.78L233.59,199.78L233.66,203.48L233.81,201.03L234.27,205.57L234.34,205.32L234.42,203.77L234.72,201.98L234.79,193.66L236.15,206.08L236.23,203.43L236.6,192.99L236.98,200.4L237.05,200.43L237.36,204.34L237.43,205.28L237.96,206.29L238.18,205.89L238.26,203.48L238.34,202.72L238.86,204.85L238.94,204.9L239.31,202.72L239.47,204.06L239.54,205.47L239.77,206.33L239.99,204.31L240.07,203.27L240.14,199.15L240.6,205.15L240.75,205.15L240.82,205.15L240.9,204.97L240.97,202.53L241.58,206.59L241.8,206.1L241.88,204.62L242.03,199.28L242.48,204.58L242.56,204.58L242.71,204.74L242.78,202.29L242.93,202.89L243.01,202.16L243.08,204.28L243.38,206.05L243.69,204.31L243.76,203.14L243.91,198.93L244.36,205.2L244.44,205.19L244.66,195.32L245.12,205.61L245.19,206.05L245.42,205.01L245.49,198.64L245.57,197.32L245.95,202.14L246.02,204.04L246.62,206L246.7,200.21L246.77,200.33L246.85,206.39L247,207.02L247.15,206.23L247.23,200.18L247.45,196.75L247.83,201.11L247.91,201.28L248.06,201.35L248.13,200.75L248.21,196.74L248.28,195.91L248.36,203.95L248.81,206.17L249.26,195.74L249.34,197.08L249.41,199.42L250.24,204.35L250.32,205.43L250.62,206.76L250.77,205.93L250.84,199.03L250.99,196.73L251.37,200.98L251.45,202.44L251.75,202.47L251.82,201.67L251.9,200.9L252.12,204.12L252.2,205.52L252.43,206.35L252.65,204.57L252.73,203.7L252.88,198.87L253.48,203.15L253.56,204.59L253.71,201.48L254.31,204.5L254.39,204.54L254.61,203.56L254.84,203.81L254.91,202.41L255.14,204.77L255.52,202.14L255.59,202.89L255.67,202.4L256.04,205.15L256.42,203.32L256.5,203.35L257.17,204.43L257.25,202.47L257.78,201.69L257.85,204.14L257.93,200L258.38,197.34L258.53,199.71L258.6,202.18L258.91,205.98L259.51,205.69L259.58,205.72L259.66,206.56L259.96,204.96L260.11,205.8L260.19,200.89L260.26,200.66L260.41,202.36L260.49,203.86L260.79,204.69L261.09,202.66L261.17,203.41L261.24,204.39L261.47,206.04L261.62,205.16L261.69,198.1L261.92,196.65L262.15,199.64L262.22,201.64L263.28,206.28L263.35,206.06L263.43,204.89L263.5,204.52L263.58,198.71L263.73,197.77L264.03,201.36L264.11,202.19L264.41,202.96L264.48,202L265.16,204.52L265.24,199.23L265.39,196.97L265.84,201.08L265.91,202.59L266.14,202.64L266.22,204.69L267.19,197.67L267.27,197.96L267.35,197.98L267.65,200.79L267.72,201.72L267.95,201.82L268.02,201.07L268.1,196.26L268.17,188.5L268.7,204.1L268.78,203.97L268.85,203.55L269,201.89L269.08,189.69L269.76,204.42L269.83,204.36L269.91,202.3L270.13,199.94L270.59,203.98L270.66,203.93L270.96,194.44L271.19,197.82L271.26,201.96L271.64,204.36L271.79,199.31L271.87,200.26L271.94,198.95L272.54,203.99L272.77,203.14L272.85,199.67L273.3,205.92L273.75,203.12L273.83,203.83L274.13,206.58L274.43,204.77L274.5,197.95L274.58,196.98L274.88,200.61L274.96,202.39L275.94,206.98L276.01,206.95L276.09,206.75L276.16,206.46L276.24,198.83L276.39,196.79L276.76,203.61L276.84,203.62L277.74,207.13L277.82,206.36L278.05,205.17L278.12,199.83L278.2,198.17L278.5,202.43L278.57,207.32L279.1,204.19L279.4,205.98L279.48,206.33L279.55,207.34L279.93,205.44L280.08,206.33L280.16,202L280.61,205.76L280.91,202.97L280.98,202.49L281.36,205.25L281.74,203.23L281.81,203.34L281.89,197.04L282.42,205.11L282.49,205.1L282.57,202.72L282.64,202.11L283.02,204.54L283.09,204.89L283.17,205.28L283.47,204.07L283.55,203.1L284.22,204.94L284.3,204.82L284.37,202.65L284.6,201.35L284.83,203.91L284.9,204.46L284.98,205.69L285.35,203.11L285.58,203.8L285.66,203.83L286.26,202.96L286.56,206.43L286.64,206.65L286.79,207.46L287.09,205.16L287.16,203.89L287.62,205.43L287.69,206.05L287.99,205.98L288.59,208.5L288.67,208.1L288.75,206.98L289.2,202.99L289.57,205L289.65,205.09L289.95,203.76L290.4,204.76L290.48,204.74L290.63,204.52L290.7,203.08L290.93,203.75L291.01,201.49L291.08,203.53L291.16,204.08L291.31,205.7L291.61,201.9L291.68,198.28L292.21,205.58L292.51,204.43L292.59,202.9L292.74,202.9L292.81,200.05L293.12,205.51L293.34,204.68L293.42,202.15L293.49,196.68L294.02,204.47L294.1,204.31L294.17,204.13L294.32,204.03L294.4,203.01L294.77,203.73L294.85,204.68L295.15,204.64L295.23,202.26L295.38,199.06L295.83,204.28L295.9,204.16L295.98,204.22L296.21,203.05L296.51,203.83L296.58,204.09L296.96,204.95L297.11,202.38L297.18,203.25L297.26,202.37L297.64,204.61L298.09,203.61L298.16,203.69L299.45,206.79L299.52,206.75L299.6,206.68L299.9,203.76L300.2,205.55L300.27,206.45L300.5,206.93L300.65,206.1L300.95,206.34L301.03,206.34L301.4,206.35L301.48,205.2L301.63,203.65L302.23,205L302.31,205.04L302.61,199.12L302.76,202.44L302.84,203.37L303.06,204.69L303.29,202.36L303.36,199.31L303.44,197.18L303.89,204.99L303.97,204.99L304.19,204.78L304.27,202.8L304.49,200.1L304.64,203.65L304.72,203.68L305.02,204.84L305.32,203.92L305.4,204.05L306,204.99L306.08,202.86L306.15,196.97L306.75,205.64L306.83,205.05L307.13,203.29L307.58,204.94L307.66,204.95L307.81,204.96L307.88,202.92L308.11,201L308.41,203.12L308.49,204.31L308.79,204.31L308.86,203.39L309.24,203.96L309.32,204.81L309.62,204.85L309.69,202.73L309.92,202.58L310.6,204.56L310.67,203.69L311.05,204.06L311.12,204.87L311.43,204.91L311.5,202.88L312.1,206.73L312.33,204.63L312.41,204.54L312.56,203.68L312.93,204.78L313.08,204.79L313.16,204.8L313.31,203.63L313.69,206.2L313.76,206.23L313.91,206.74L314.06,205.93L314.14,204.69L314.29,203.58L314.82,204.85L314.89,204.85L315.04,204.88L315.12,204.09L315.42,204.01L315.65,204.6L315.72,205.14L316.4,204.13L316.47,204.42L316.55,205.19L316.85,205.25L316.93,203.51L317.15,203.32L317.23,204.29L317.3,204.7L317.53,205.73L317.83,205L317.91,204.22L318.66,205.31L318.74,203.33L318.96,203.01L319.19,204.02L319.26,204.03L319.34,204.85L319.87,203.96L320.09,204.45L320.17,205.16L320.47,205.19L320.54,203.13L320.77,202.91L321.15,205.17L321.45,204.74L321.52,203.93L321.9,204.39L321.98,205.22L322.28,205.47L322.35,203.43L322.43,203.17L322.65,204.76L322.73,206L323.03,206.79L323.18,205.26L323.26,204.93L323.33,204.02L323.93,205.74L324.01,205.78L324.39,203.51L324.61,206.31L324.69,206.31L324.76,205.87L325.14,204.32L325.52,205.44L325.59,205.44L325.89,205.51L325.97,204.42L326.57,206.69L326.72,205.13L326.8,204.99L326.95,204.01L327.17,205.02L327.55,204.98L327.63,204.98L328.3,204.1L328.38,204.99L328.46,205.11L329.13,204.14L329.21,204.96L329.51,204.97L329.59,203.35L329.81,203.16L330.26,205.11L330.49,204.97L330.57,204.13L330.72,200.01L331.09,204.98L331.24,204.96L331.32,204.95L331.62,202.59L332.07,204.51L332.15,204.49L332.3,204.53L332.37,203.67L332.75,204L332.83,205.16L333.13,206.43L333.2,203.66L333.28,203.37L333.81,207.63L334.11,206.02L334.18,204.1L334.33,203.62L334.56,204.51L334.63,205.88L334.78,206.86L335.09,203.39L335.16,204.07L335.24,203.83L335.61,206.71L335.92,204.75L335.99,203.7L336.37,203.99L336.44,204.85L336.67,205.01L336.74,205.85L336.82,205.34L337.12,206.28L337.35,206.28L337.42,206.81L337.87,205.8L337.95,202.82L338.33,207.06L338.78,206.31L338.85,206.64L339.23,207.64L339.31,206.65L339.38,205.66L339.61,203.72L340.13,204.96L340.21,204.97L340.36,204.97L340.44,204.1L340.96,204.57L341.04,205.25L341.79,204.08L341.87,204.93L341.94,204.96L342.17,204.94L342.24,203.31L342.47,203.1L342.62,204.21L342.7,204.58L342.85,205.45L343.22,203.94L343.3,203.94L343.6,204.17L343.68,205.08L343.83,205.33L343.98,205.09L344.05,202.83L344.28,202.7L344.73,204.56L344.96,204.46L345.03,203.59L345.41,204.07L345.48,204.88L345.79,204.93L345.86,202.83L346.09,202.74L346.77,204.52L346.84,203.65L347.22,204.12L347.29,204.92L347.59,204.92L347.67,202.88L347.9,202.82L348.57,204.58L348.65,203.73L349.03,204.29L349.1,205.07L349.4,205.22L349.48,203.36L350.08,206.75L350.31,205.59L350.38,205.07L350.53,203.9L351.06,205.09L351.14,205.05L351.29,204.27L351.59,206.45L351.66,206.47L351.96,206.94L352.04,206.25L352.12,205.24L352.27,203.85L352.87,205.07L352.94,205.09L353.32,204.19L353.55,205.5L353.62,205.92L354.38,204.28L354.45,204.53L354.53,205.26L354.83,205.29L354.9,203.83L355.13,203.54L355.2,204.52L355.28,205.11L355.51,206.17L355.88,204.34L355.96,204.35L356.26,204.47L356.34,205.27L356.64,205.37L356.71,203.47L356.94,203.28L357.31,205.97L357.62,205.02L357.69,204.25L358.07,204.65L358.14,205.46L358.45,205.5L358.52,203.68L358.67,204.27L358.75,203.42L359.05,204.05L359.12,204.78L359.5,204.35L360.25,205.55L360.33,203.82L360.55,203.72L361.23,205.19L361.31,204.45L361.46,200.53L361.99,205.73L362.06,205.75L362.36,203.69L362.74,206.68L362.82,206.07L363.12,200L363.42,202.27L363.49,203.58L364.55,206.59L364.62,205.75L365,200.19L365.15,202.25L365.23,204.94L365.53,205.8L365.9,204.82L365.98,204.84L366.13,198.89L366.43,205.78L366.81,200.06L366.88,201.42L367.11,202.63L367.19,204.14L367.41,204.26L367.49,205.63L367.79,204.21L368.24,205.6L368.32,205.62L368.62,204.91L368.69,201.64L369.3,205.76L369.37,203.95L369.45,203.87L369.97,206.36L370.05,202.66L370.12,205.52L370.2,200.02L370.35,199.85L370.43,204.44L371.1,205.73L371.18,203.93L371.33,204.46L371.41,203.68L371.63,204.53L371.71,204.96L371.78,205.66L372.16,204.46L372.46,205.05L372.54,205.12L372.84,205.86L373.06,204.11L373.14,204.73L373.21,204.04L373.74,205.52L373.89,205.43L373.97,200.56L374.72,205.81L374.8,204.09L374.87,204.05L375.02,203.92L375.4,205.62L375.7,205.38L375.78,204.62L375.93,201.17L376.45,205.8L376.53,205.8L376.76,204.65L377.13,208.02L377.21,209.09L377.58,204.67L378.11,205.74L378.19,205.74L378.64,204.63L378.79,205.11L378.87,206.34L379.02,207.02L379.32,204.73L379.39,204.76L380.15,205.65L380.22,204.33L380.45,204.27L380.82,206.96L381.13,205.59L381.2,204.95L381.95,205.67L382.03,203.92L382.26,203.78L382.63,205.49L382.93,205.33L383.01,204.64L383.39,204.98L383.46,205.65L383.76,205.66L383.84,203.85L384.06,203.72L384.74,205.28L384.82,204.56L385.19,204.97L385.27,205.66L385.57,205.69L385.65,203.84L385.87,203.76L386.55,205.33L386.63,204.61L387,205.06L387.08,205.73L387.38,205.82L387.46,204.13L387.68,203.97L388.06,206.5L388.36,205.33L388.43,204.62L388.74,205L388.81,205.83L389.19,205.85L389.26,204.86L389.41,204.66L389.57,204.96L389.64,205.94L389.87,206.63L390.09,205.39L390.17,204.39L390.92,205.71L391,205.6L391.07,204.83L391.6,204.68L391.67,205.42L391.83,205.45L391.9,201.27L392.13,201.3L392.2,202.75L392.81,205.75L393.03,204.73L393.11,203.92L393.48,205.79L393.94,204.79L394.01,204.85L394.39,205.7L394.46,205.75L394.61,205.71L394.69,203.88L394.91,203.81L395.59,205.33L395.67,204.63L396.05,205.09L396.12,205.79L396.42,205.85L396.5,204.02L396.72,203.87L397.4,205.36L397.48,204.65L397.85,205.23L397.93,205.85L398.23,206.8L398.31,204.8L398.53,204.17L398.68,206.03L398.76,206.31L399.06,206.75L399.13,206.59L399.21,201.26L399.36,200.14L399.44,200.83L399.51,205.27L399.59,202.26L400.04,207L400.19,205.62L400.26,205.6L400.72,208.69L400.79,208.18L400.87,206.84L401.17,205.27L401.4,205.96L401.47,206.99L401.85,207.05L401.92,206.31L402.15,205.59L402.22,206.36L402.3,207.18L402.45,209.79L402.83,205.4L402.9,202.4L403.5,206.99L403.73,206.19L403.81,205.7L403.88,205.32L404.33,206.24L404.48,205.97L404.56,205.84L404.71,205.02L405.16,206.1L405.24,206.09L405.31,206.05L405.46,205.91L405.54,204.56L405.77,204.12L406.07,205.38L406.14,205.93L406.52,205.09L406.9,205.43L406.97,206.05L407.27,206.07L407.35,204.49L407.57,204.11L408.1,205.72L408.25,205.48L408.33,204.87L409.08,206.1L409.16,204.35L409.38,204.19L409.76,206.14L410.06,205.62L410.14,204.99L410.51,205.66L410.59,206.35L410.89,206.56L410.96,204.81L411.42,203.28L411.57,205.24L411.64,205.87L412.32,205.82L412.4,206.47L412.7,206.57L412.77,205.16L412.92,205.45L413,204.82L413.3,205.62L413.38,206.17L413.9,205.28L414.05,205.81L414.13,206.51L414.51,206.44L414.58,205.59L415.11,205.58L415.18,206.17L415.56,205.54L415.64,206.2L415.71,206.3L415.86,206.16L416.24,206.67L416.39,206.2L416.47,205.93L417.22,206.33L417.29,205.71L418.12,206.8L418.2,205.87L418.42,205.55L418.73,206.26L418.8,206.73L419.55,206.59L419.63,206.99L419.93,206.99L420.01,205.69L420.23,205.18L420.53,206.31L420.61,206.75L421.14,205.93L421.29,206.31L421.36,206.45L421.59,206.92L421.82,205.46L421.89,204.95L422.04,204.71L422.42,206.75L423.1,206.49L423.17,206.47L423.55,207.01L423.7,205.51L423.77,205.9L423.85,205.53L424.23,206.83L424.6,205.95L424.68,205.95L425.36,206.99L425.43,205.78L425.66,205.62L426.03,206.99L426.34,206.56L426.41,206.1L426.71,206.54L426.79,207.03L427.17,207.07L427.24,206.31L427.69,207.2L427.77,207.46L427.84,207.7L428.14,206.24L428.22,206.24L428.97,207.03L429.05,206.61L430.03,206.51L430.1,206.93L430.78,207.05L430.86,206.14L431.08,205.75L431.38,206.59L431.46,206.92L432.21,206.68L432.29,207.06L432.59,207.05L432.67,205.74L432.82,205.99L432.89,205.49L433.19,206.02L433.27,206.51L433.49,206.29L433.57,202.53L433.8,203.47L433.87,206.41L434.32,206.95L434.4,206.88L434.47,205.4L434.7,204.92L435.38,206.45L435.45,203.1L436.21,207.06L436.28,205.82L436.43,206.06L436.51,205.55L436.81,206.1L436.89,206.59L437.11,206.5L437.19,202.99L437.26,202.34L437.64,205.55L437.71,206.82L438.02,206.85L438.09,205.56L438.69,206.73L439,206.43L439.07,202.9L439.22,202.72L439.3,206.3L439.82,206.53L439.9,205.66L440.13,205.02L440.35,206.29L440.43,206.29L440.5,206.65L440.88,202.41L441.18,203.21L441.26,206.25L441.63,206.41L441.71,205.73L441.78,202.68L441.86,200.2L442.46,203.81L442.54,203.78L442.61,202.69L442.91,206.22L443.14,205.93L443.21,205.95L443.44,205.96L443.52,204.65L443.74,201.73L444.12,205.47L444.19,205.35L444.27,205.24L444.42,203.78L444.95,206.11L445.02,206.14L445.25,206.14L445.32,203.89L445.55,201.86L445.93,204.94L446,204.94L446.08,204.84L446.15,203.69L446.68,205.44L446.76,206.13L447.06,206.13L447.13,204.11L447.21,202.24L447.74,206.56L447.81,206.51L448.11,204.14L448.49,205.64L448.56,206.23L448.87,206.27L448.94,204.66L449.17,204.28L449.77,205.82L449.85,202.09L449.92,201.49L450.15,205.61L450.22,205.66L450.67,206.74L450.83,205.4L450.9,205.69L450.98,204.98L451.35,206.56L451.81,205.73L451.88,205.76L452.48,206.82L452.63,205.97L452.71,205.94L453.09,206.31L453.16,206.67L453.46,205.88L453.69,206.55L453.76,206.96L453.91,207.03L454.67,206.24L454.74,206.31L456.02,207.06L456.1,207.06L456.4,206.12L456.85,207.06L456.93,207.04L457.46,206.53L457.68,207.05L457.76,207.05L457.91,206.92L457.98,205.59L458.21,202.77L458.51,204.83L458.59,205.71L458.81,205.59L459.42,207.05L459.49,207.05L459.72,206.92L459.79,205.57L460.02,205.3L460.24,205.95L460.32,205.91L460.4,206.4L460.62,206.19L460.7,201.45L460.77,201.18L460.92,203.05L461,204.44L461.22,206.83L461.6,205.37L461.68,201.6L461.75,199.72L462.2,206.18L462.28,206.18L462.5,199.83L463.03,205.45L463.11,205.49L463.26,205.51L463.33,204.62L463.48,199.96L464.01,206.7L464.09,203.26L464.16,202.23L464.31,200.3L464.77,204.06L464.84,206.58L465.14,206.6L465.22,205.74L465.44,205.56L465.74,206.17L465.82,206.56L465.9,206.42L465.97,202.06L466.12,200.91L466.42,204.09L466.5,206.13L466.65,206.64L467.03,205.67L467.1,202.98L467.93,194.99L468.01,195.07L468.61,204.04L468.76,202.16L468.83,198.89L468.91,191.19L469.44,205.95L469.51,205.95L469.74,192.65L470.19,205.86L470.27,206.45L470.42,206.63L470.49,205.25L470.72,191.37L470.94,196.57L471.02,200.8L471.25,202.45L471.4,200.86L471.47,195.71L472.3,206.28L472.38,206.24L473.36,200.23L473.43,200.16L473.96,205.36L474.18,203.29L474.26,199.29L474.33,197.5L474.79,202L474.94,201.09L475.01,200.55L475.84,206.79L475.92,206.79L476.29,204.7L476.67,206.14L476.75,206.14L477.05,205.08L477.5,206.12L477.58,206.12L477.8,206.12L477.88,205.2L478.1,200.01L478.48,206.1L478.78,200.48L478.86,200.36L479.53,206.12L479.61,204.41L479.68,203.71L479.76,203.39L479.84,198.43L480.36,206.02L480.59,200.28L480.66,200.51L481.04,202.69L481.12,203.88L481.27,203.91L481.34,203.35L481.42,202.14L481.49,199.69L482.02,205.31L482.1,205.9L482.4,199.39L482.85,205.4L482.92,206.03L483.23,206.08L483.3,204.35L483.45,204.85L483.53,204.17L483.75,204.95L483.83,204.96L483.98,205.63L484.28,204.91L484.58,205.43L484.66,204.16L484.81,205.97L485.11,200.08L485.41,204.71L485.49,204.72L485.71,205.56L485.79,205.5L485.86,201.23L486.09,199.88L486.17,204.75L486.24,204.75L486.84,207.06L486.92,205.48L486.99,204.08L487.52,205.85L487.67,205.48L487.75,200.53L487.9,199.84L488.05,201.35L488.12,205.2L488.27,204.99L488.35,206.16L488.43,206.85L488.65,206.8L488.73,204.83L488.8,203.94L489.33,206.4L489.41,205.54L489.48,205.35L489.78,204.22L490.16,205.38L490.23,205.38L490.46,205.38L490.54,204.24L490.76,204.05L490.99,204.8L491.06,204.75L491.14,205.25L491.29,204.75L491.36,198.84L491.59,198.39L491.67,200.19L491.74,200.86L492.12,205.84L492.34,201.66L492.42,198.4L492.95,206.15L493.1,200.55L493.17,198.19L493.32,197.53L493.47,200.04L493.55,201.46L493.78,205.89L494.08,200.74L494.15,196.46L494.23,193.89L494.6,204.04L494.83,198.65L494.91,197.19L495.13,192.3L495.51,200.33L495.58,204.64L495.89,204.47L495.96,193.29L496.04,184.89L496.56,203.68L496.64,203.7L496.86,190.89L497.39,201.02L497.47,201.07L497.69,198.32L497.77,191.53L497.84,183.2L498.22,203.04L498.45,195.76L498.52,193.52L498.82,186.96L499.13,197L499.2,199.15L499.43,199.33L499.5,197.06L499.65,174.55L499.95,202.69L500.03,202.89L500.18,204.04L500.26,196.65L500.48,185.16L500.56,174.45L501.24,201.29L501.39,194.23L501.46,192.38L501.84,203.21L502.14,194.95L502.21,193.1L502.29,191.54L502.67,196.19L502.74,197.96L503.04,200.66L503.35,195.57L503.42,192.87L503.5,192.17L503.65,196.68L503.72,204.39L503.8,204.99L503.87,197.98L504.17,191.93L504.55,198.34L504.63,200.12L504.78,200.81L504.93,198.78L505,197.36L505.91,189.81L505.98,189.92L506.06,189.98L506.66,196.05L506.74,194.23L506.81,189.62L507.04,183.09L507.26,195.58L507.41,194.88L507.49,193.99L507.79,188.47L508.17,193.47L508.24,196.08L508.32,196.21L508.47,195.32L508.54,193.52L508.7,185.61L509.3,192.17L509.37,189.39L509.6,186.38L509.9,191.67L509.98,193.45L510.2,196.71L510.43,187.13L510.5,183.88L510.96,197.39L511.33,191.54L511.41,192.64L511.56,193.99L511.63,204.25L511.78,204.13L511.86,204.92L512.01,204.85L512.09,204.85L512.24,193.93L512.91,196.94L512.99,194.92L513.14,193.46L513.52,195.64L513.59,198.09L514.12,191.52L514.35,203.6L514.42,197.02L514.57,200.38L514.8,193.79L514.87,192.49L514.95,191.31L515.25,196.17L515.33,197.86L515.7,204.08L516,197.71L516.08,197.74L516.46,199.82L516.61,195.56L516.68,193.5L516.83,191.46L517.06,195.54L517.13,196.66L517.51,198.86L517.66,196.21L517.74,194.28L517.89,188.79L518.26,194.37L518.57,189.07L518.64,190.59L519.24,199.07L519.39,197.18L519.47,191.62L519.55,168.27L520.07,196.01L520.15,195.1L520.22,193.19L520.45,185.44L520.83,196.22L520.9,200.88L521.05,202.6L521.2,198.89L521.28,189.23L521.35,183.71L521.81,200.87L521.88,200.63L521.96,196.96L522.18,189.43L522.64,199.49L522.71,201.53L522.86,203.11L523.01,198.02L523.09,191.43L523.16,188.05L523.54,196.19L523.69,195.86L523.77,195.11L524.07,191.08L524.37,195.23L524.44,196.93L524.67,197.83L524.82,195.13L524.9,189.89L524.97,186.76L525.5,193.79L525.57,193.04L525.65,190.9L525.88,186.93L526.25,194.43L526.33,196.17L526.7,188.08L526.78,183.44L527.38,189.4L527.53,184.94L527.61,184.77L527.76,184.91L527.83,186.27L528.44,195.05L528.59,190.67L528.66,188.8L528.74,187.09L528.96,197.99L529.04,198.65L529.12,199.31L529.19,198.86L529.27,191.43L529.42,186.38L529.79,200.53L529.87,201.42L530.02,202.17L530.25,201.42L530.32,195.77L531.15,187.66L531.3,188.65L531.38,189.39L531.98,196.19L532.05,194.59L532.13,189.58L532.2,186.58L532.73,194.16L532.81,193.94L533.18,190.38L533.41,193.58L533.49,196.34L533.71,198.94L533.94,190.22L534.01,188.25L534.62,194.28L534.77,191.69L534.84,190.8L534.99,190.84L535.07,192.48L535.6,200.38L535.75,195.35L535.82,190.4L536.27,194.59L536.57,190.53L536.65,189.92L537.03,198.72L537.1,201.34L537.33,202.68L537.48,201.05L537.55,192.73L537.63,186.08L538.23,193.92L538.31,192.41L538.46,189.66L538.84,195.78L538.91,198.8L539.21,201.35L539.36,193.7L539.44,190.11L539.89,192.56L540.19,190.27L540.27,190.09L541.1,202.31L541.25,199.48L541.32,197.81L542.15,194.65L542.23,194.88L542.75,199.93L542.98,197.25L543.06,195.23L543.88,188.94L543.96,191.35L544.03,192.45L544.41,198.9L544.71,195.83L544.79,189.86L544.86,141.67L545.47,193.74L545.54,192.57L545.62,191.76L545.99,194.56L546.07,195.24L546.37,201.54L546.75,192.81L546.82,195.36L546.9,196.06L546.97,196.62L547.12,194.88L547.27,195.98L547.35,189.78L547.58,186.31L547.73,191.3L547.8,196.41L548.03,200.98L548.33,199.43L548.41,189.48L548.48,185.93L548.93,196.13L549.01,195.58L549.08,196.19L549.23,194.02L549.61,199.02L549.69,199.3L549.99,200.95L550.14,199.77L550.21,195.87L550.29,193.15L550.74,197.25L550.97,195.42L551.04,193.49L551.12,192.51L551.34,196.31L551.42,198.74L551.87,200.23L551.95,199.39L552.02,195.06L552.85,183.44L552.93,185.93L553,188.34L553.68,200.74L553.91,197.59L553.98,195.9L554.43,196.97L554.73,192.9L554.81,193.33L554.89,195.66L555.34,200.48L555.56,197.43L555.64,195.3L555.86,175.65L556.47,179.18L556.54,182.63L556.62,174.23L557.07,196.58L557.15,196.52L557.22,196.62L557.52,185.98L557.75,190.79L557.82,192.4L558.13,192.81L558.2,191.81L558.28,189.97L559.03,197.43L559.18,195.9L559.26,190.45L559.33,185.25L559.86,193.19L559.93,193.08L560.01,191.02L560.24,190.15L560.39,191.17L560.46,193.96L560.76,197.44L560.99,195.74L561.06,189.39L561.14,185.08L561.67,192.46L561.74,192.28L561.82,190.56L562.04,187.48L562.35,193.69L562.42,195.27L562.57,196.79L562.87,189.85L562.95,182.48L563.55,192.09L563.78,189.22L563.85,189.03L563.93,188.39L564.08,192.56L564.15,193.47L564.53,198.94L564.61,194.63L564.68,188.06L564.76,184.96L565.13,191.45L565.28,191.42L565.36,191.24L565.66,179.27L565.81,180.92L565.89,191.15L566.41,199.06L566.56,195.14L566.64,190.24L566.87,186.44L567.02,190.64L567.39,187.37L567.47,187.56L568.07,197.66L568.3,192.94L568.37,184.69L568.45,179.17L568.9,189.36L569.05,189.02L569.13,186.82L569.2,185.74L569.5,190.89L569.58,192.18L569.8,194.36L570.03,192.55L570.11,186.6L570.26,151.56L570.86,178.93L570.94,179.94L571.01,178.9L571.16,184.73L571.24,187.29L571.54,193.1L571.84,190.59L571.91,181.64L571.99,176.4L572.52,186.36L572.59,186.43L572.82,176.31L572.97,182.67L573.04,184.06L573.5,193.34L573.72,183.06L573.8,178.41L574.4,186.93L574.55,181.73L574.63,180.71L574.7,179.22L574.93,187.16L575,188.9L575.31,193.36L575.46,189.63L575.53,181.53L575.61,174.74L576.21,183.78L576.28,182.79L576.44,180.3L576.74,187.79L576.81,188.51L577.11,191.65L577.26,190.01L577.34,183.65L577.42,178.32L578.02,185.26L578.09,183.22L578.17,181.12L578.24,180.39L578.47,183.8L578.55,186.31L578.85,192.6L579.22,187.88L579.3,183.46L579.6,184.26L579.98,179.09L580.13,179.33L580.2,180.64L580.66,187.56L580.96,182.11L581.03,176.21L581.86,134.66L581.94,137.99L582.61,174.35L582.77,156.82L582.84,131.23L583.44,158.22L583.67,147.98L583.74,151.25L584.42,186.28L584.5,182.83L584.57,164.13L584.65,144.96L585.1,174.43L585.25,169.34L585.33,164.59L585.48,155.09L585.85,179.21L585.93,184.49L586.16,187.69L586.31,183.16L586.38,163.9L586.83,166.58L587.21,143.38L587.29,148.53L588.04,185.55L588.12,183.38L588.19,161.59L588.27,149.64L588.79,179.2L588.87,183.02L589.09,164.91L589.4,182.86L589.47,185.87L589.77,192.63L590,183.08L590.07,177.34L590.38,185.08L590.83,178.16L590.9,179.56L591.36,193.86L591.43,198.14L591.58,199.83L591.81,198L591.88,196.76L592.71,184.92L592.86,186.6L592.94,189.53L593.31,200.09L593.62,193.94L593.69,189.38L594.52,181.5L594.6,182.46L594.67,183.66L595.12,191.75L595.35,190.01L595.42,183.29L595.5,179.14L595.88,186.29L596.1,184.62L596.18,183.52L596.4,179.77L596.78,186.99L596.86,188.89L597.01,188.85L597.08,189.51L597.16,187.46L598.14,154.71L598.21,158.66L598.81,189.04L599.04,169.93L599.12,152.79L599.57,170.59L599.79,155.15L599.87,147.18L599.95,142.82L600.25,166.94L600.32,178.4L600.7,186.78L600.85,174.29L600.92,163.92L601.53,183.49L601.83,180.51L601.9,181.78L602.51,191.47L602.58,189.98L602.66,184.08L602.73,179.61L603.34,186.01L603.41,183.91L603.49,182.05L603.64,181.27L603.79,183.39L603.86,186.05L604.01,188.5L604.09,190.5L605.3,176.67L605.45,176.95L605.52,177.91L605.97,188.75L606.27,182.87L606.35,181.6L607.18,174.06L607.25,175.24L607.33,176.39L607.78,186.56L608.01,180.52L608.08,172.91L608.61,173.19L608.91,129.32L608.99,132.29L609.06,134.03L609.51,177.79L609.82,171.44L609.89,141.59L610.04,89.59L610.57,150.75L610.65,146.1L611.55,178.89L611.62,176.52L611.7,159.73L611.78,136.41L612.38,172.38L612.45,169.66L612.53,166.59L612.98,177.05L613.06,181.75L613.28,192.16L613.51,172.35L613.58,160.62L613.66,155.41L614.04,164.21L614.11,162.56L614.19,169.88L614.41,148.87L614.86,181.53L614.94,184.24L615.09,185.17L615.24,184.48L615.32,176.97L615.39,171.36L615.99,179.45L616.07,176.84L616.15,174.12L616.45,177.82L616.52,181.44L617.05,188.36L617.2,183.26L617.28,179.78L617.43,171.57L618.03,174.64L618.1,177.24L618.71,192.29L618.93,188.07L619.01,184.29L619.76,166.03L619.91,167.78L619.99,171.21L620.44,188.84L620.67,184.17L620.74,170.18L621.5,142.43L621.57,145.28L621.65,152.63L622.32,189.85L622.55,173.01L622.63,130.14L623.38,83.27L623.45,122.04L624.13,183.36L624.36,158.2L624.43,37.61L624.81,127.7L625.11,37.65L625.19,17.21L625.94,189.14L626.09,185.79L626.17,175.58L626.32,137.6L626.92,166.38L627,160.93L627.07,160.66L627.15,176.1L627.22,175.62L627.3,177.64L627.37,182.72L627.67,189.62L627.9,189.07L627.98,182.37L628.05,175.88L628.65,184.51L628.73,182.29L628.8,180.31L629.26,187.84L629.33,189.51L629.56,191.27L629.78,187.06L629.86,185.25L630.09,177.06L630.61,183.41L630.69,184.29L631.29,199.91L631.59,195.13L631.67,190.99L631.89,185.23L632.42,188.77L632.5,189.66L633.1,197.83L633.33,195.12L633.4,189.56L633.93,189.84L634.23,173.06L634.31,180.41L634.38,180.82L634.46,177.97L634.53,183.47L634.98,196.48L635.28,183.66L635.36,187.27L635.66,189.48L635.74,190.56L636.04,187.52L636.34,190.9L636.42,193.88L636.79,201.26L636.94,197.52L637.02,191.31L637.09,185.28L637.77,188.28L637.85,187.46L638,186.56L638.15,189L638.22,192.44L638.3,192.63L638.37,195.3L638.52,197.8L638.75,194.84L638.83,188.49L639.28,189.58L639.66,184.34L639.73,183.93L639.96,187.01L640.03,189.82L640.48,194.06L640.56,192.16L640.63,186.71L640.71,182.36L641.31,189.04L641.39,186.92L641.46,185.28L641.77,191.56L641.84,195.16L642.37,199.42L642.59,195.2L642.67,187.72L642.97,188L643.2,183.04L643.27,179.22L643.35,178.59L643.42,182.46L643.5,184.23L644.03,197.47L644.25,191.1L644.33,186.2L645.16,162.43L645.23,164.15L645.31,167.95L645.76,188.52L646.06,181.24L646.14,176.31L646.74,186.24L646.96,185.77L647.04,186.09L647.11,184.6L647.42,192.55L647.49,196.21L648.09,185.66L648.77,185.88L648.85,187.16L648.92,185.34L649.22,192.75L649.3,196.48L650.05,182.68L650.28,183.19L650.36,183.38L650.43,181.89L650.81,184.18L650.88,188.55L651.03,188.29L651.33,191.75L651.41,187.02L651.56,174.22L652.24,178.66L652.31,178.62L652.39,178.47L652.54,179.6L652.62,182.81L653.07,192.35L653.29,184.67L653.37,180.08L653.82,185.48L654.12,182L654.2,182.94L655.03,195.59L655.18,191.05L655.25,186.61L655.4,182.63L655.7,187.2L656.01,184.05L656.08,185.11L656.23,187.74L656.31,191.06L656.46,190.68L656.61,193.47L656.91,190.75L656.99,188.95L657.21,181.79L657.81,186.08L657.89,187.1L658.42,194.26L658.64,192.14L658.72,188.32L658.79,183.77L659.32,188.63L659.47,186.71L659.55,185.16L659.85,189.55L659.92,191.97L660,191.61" style="fill: rgb(54, 112, 97); fill-opacity: 0.5; stroke-width: 0;"/></g></g><g class="errorbars"/><g class="lines"><path class="js-line" d="M0,190.65L0.38,199.6L0.68,191.81L0.75,187.01L1.28,183.75L1.51,185.58L1.58,186.65L1.96,195.9L2.19,191.99L2.26,183.03L3.09,171.17L3.16,173.22L3.92,186.73L3.99,182.69L4.07,174.16L4.6,176.48L4.9,164.11L4.97,163.83L5.05,164.15L5.12,167.75L5.73,183.39L5.8,180.57L5.88,168.95L6.4,170.51L6.78,146.69L6.86,153.75L7.38,183.01L7.61,178.3L7.69,161.04L8.51,16.86L8.59,77.89L8.67,136.07L9.19,181.18L9.57,174.2L9.64,170.33L10.32,156.25L10.4,160.31L10.47,163.54L11.15,184.89L11.38,179.1L11.45,175.43L11.6,166.97L11.91,175.8L12.28,169.37L12.36,171.8L12.96,189.25L13.11,175.06L13.19,166.97L13.64,183.32L13.94,169.56L14.02,170.14L14.69,191.18L14.84,187.75L14.92,177.78L15.37,180.09L15.75,163.92L15.82,165.85L16.35,189.53L16.65,186.05L16.73,176.87L17.26,177.19L17.56,158.52L17.63,159.58L18.31,189.15L18.46,185.83L18.54,174.44L18.61,162.51L19.06,180.52L19.29,170.02L19.37,162.93L20.12,190.33L20.34,178.5L20.42,165.13L20.87,179.54L21.17,166.79L21.25,167.2L22,191.8L22.23,186.41L22.3,183.55L22.45,177.38L22.76,184.2L23.06,178.99L23.13,180.78L23.21,180.99L23.28,183.95L23.58,192.25L24.04,185.82L24.11,181.43L24.87,172.28L24.94,176.49L25.02,178.35L25.62,191.03L25.69,187.62L25.77,178.09L26.3,181.19L26.6,169.34L26.67,167.39L27.2,186.69L27.5,182.55L27.58,159.9L27.8,115.57L28.11,161.79L28.33,149.31L28.41,144.4L29.24,189.35L29.31,187.19L29.39,177.95L30.22,159.25L30.29,164.22L30.97,189.27L31.2,173.59L31.27,161.25L31.8,178.38L32.17,171.79L32.25,174.09L32.78,190.26L33,176.43L33.08,166.23L33.53,180.11L33.76,170.25L33.83,163.85L34.74,189.08L34.89,182.04L34.96,176.56L35.42,177.02L35.72,162.1L35.79,165.55L35.87,169.74L36.47,187.73L36.7,184.93L36.77,179.47L37.52,172.09L37.6,172.57L37.68,174.6L38.28,194.35L38.43,176.68L38.5,164.76L39.11,178.27L39.33,173.58L39.41,175.03L39.48,174.18L39.63,179.67L39.71,181.68L40.01,200.53L40.31,170.03L40.39,176.65L40.46,175.84L41.07,175L41.9,199.74L41.97,198.28L42.05,191.41L42.12,179.79L42.8,186.35L42.87,183.64L43.1,185.27L43.18,187.15L43.55,195.07L43.78,192.42L43.85,183.5L44.38,185.04L44.68,169.42L44.76,169.79L44.83,175.84L44.98,180.43L45.06,184.47L45.51,193.98L45.59,192.67L45.66,183.98L45.74,178.12L46.19,190.53L46.27,189.56L46.34,189.41L46.49,183.11L47.02,189L47.09,190.79L47.32,190.99L47.4,190.73L47.47,187.35L47.77,177.74L48.45,178.48L48.53,178.78L49.05,189.07L49.35,185.04L49.43,182.34L49.51,179.98L49.73,186.81L50.18,181.01L50.26,182.22L50.41,184.52L50.49,186.43L50.86,192.47L51.01,189.23L51.09,183.16L51.54,187.4L51.92,168.46L51.99,171.19L52.07,173.81L52.67,194.2L52.9,182.96L52.97,176.89L53.5,190.1L53.88,185.02L53.95,186.52L54.48,194.48L54.63,191.42L54.7,184.94L54.78,179.27L55.23,187.42L55.38,186.54L55.46,185.52L55.53,183.63L55.99,190.21L56.06,190.33L56.14,192.35L56.44,188.61L56.51,181.21L56.59,176.61L57.04,185.05L57.19,183.98L57.27,182.67L57.49,179.16L57.87,185.42L57.94,187.52L58.02,187.77L58.1,187.12L58.17,187.48L58.25,185.24L58.4,169.87L59,182.76L59.08,180.7L59.3,176.75L59.6,188.18L59.68,187.28L59.75,189.39L59.98,198.93L60.13,194.19L60.21,188.09L61.03,177.27L61.11,178.68L61.34,185.87L61.41,188.33L61.79,201.29L62.01,199.42L62.09,194.68L62.84,180.01L62.99,181.13L63.07,183.08L63.52,200.67L63.67,196.7L63.75,183.35L63.82,177.76L64.2,186.68L64.5,182.89L64.58,178.4L64.65,177.19L64.95,184.18L65.03,186.27L65.18,189.72L65.48,185.84L65.56,176.87L65.63,168.29L66.23,180.99L66.31,178.56L66.38,176.73L66.76,183.65L66.84,184.52L66.99,188.82L67.29,185.05L67.36,172.98L67.82,178.13L68.19,161.44L68.27,156.54L68.87,186.96L69.1,182.56L69.17,171.85L69.25,155.47L69.85,175.99L69.93,174.89L70,168.33L70.53,187.55L70.6,190.05L70.83,191.63L70.91,188.88L71.06,175.24L71.66,185.75L71.73,183.21L71.88,179.44L72.26,187.39L72.34,188.95L72.41,190.81L72.86,185.11L72.94,181.39L73.62,171.26L73.77,176.66L73.84,178.98L74.45,193.94L74.75,186.03L74.82,182.65L75.2,185.37L75.5,176.69L75.65,180.2L75.73,183.1L76.1,191.47L76.33,187.53L76.41,180.13L76.48,168.92L77.01,186.4L77.08,186.12L77.16,180.99L77.31,173.6L77.76,189.37L77.84,191.69L77.99,192.48L78.06,191.52L78.14,189.09L78.29,174.19L78.82,190.73L78.89,189.7L79.12,174.07L79.5,187.58L79.57,190.16L79.8,191.98L79.95,188.38L80.02,181.33L80.1,171.58L80.4,183.01L80.78,177.1L80.85,173.21L80.93,171.86L81.15,179.6L81.23,183.7L81.61,189.61L81.76,186.99L81.83,178.99L81.91,168.48L82.36,182.66L82.58,176.94L82.66,174L82.74,172.68L82.89,178.62L82.96,182.42L83.41,192.27L83.64,182.08L83.72,177.58L84.17,188.42L84.47,182.21L84.54,181.29L84.77,184.31L84.85,187.88L85.22,192.99L85.45,189.41L85.52,188.08L86.35,171.05L86.43,175.4L86.5,179.19L87.18,194.35L87.41,189.54L87.48,187.65L87.56,187.17L87.86,189.69L88.01,187.93L88.09,182.75L88.16,181.14L88.46,188.37L88.54,190.05L88.69,193.28L88.99,189.35L89.06,182.59L89.14,170.09L89.59,186.74L89.74,185.11L89.82,182.19L89.97,170.42L90.42,188.89L90.5,190.94L90.72,191.21L90.8,190.08L90.95,167.57L91.4,190.99L91.48,190.91L91.55,190.28L91.78,181.3L92.08,189.61L92.15,190.59L92.53,195.96L92.68,187.68L92.76,181.72L93.21,189.39L93.51,183.01L93.59,182.26L93.96,191.54L94.04,193.99L94.11,195.83L94.41,191.05L94.49,183.42L94.64,177.45L95.17,186.46L95.24,183.63L95.32,182.72L95.62,185.99L95.7,189.56L96.07,193.68L96.22,191.85L96.3,184.02L96.37,179.11L96.75,190.01L96.98,188.86L97.05,185.58L97.2,182.27L97.65,188.65L97.73,190.62L97.88,191.57L98.11,187.36L98.18,186.2L98.71,186.53L99.01,175.43L99.09,180.86L99.16,181.75L99.69,190.68L99.99,187.32L100.07,184.05L100.52,187.52L100.82,172.76L100.9,178.12L100.97,181.02L101.57,191.91L101.72,183.61L101.8,176.31L102.33,188.4L102.55,178.86L102.63,175.23L103.23,191.12L103.46,188.22L103.53,179.42L103.61,164.79L104.14,189.91L104.21,189.7L104.29,187.11L104.51,181.98L104.89,190.7L104.96,191.79L105.04,192.46L105.27,189.64L105.34,183.16L105.42,176.24L105.94,190.95L106.02,190.74L106.25,182.62L106.7,190.62L106.77,193.53L107.07,190.58L107.15,183.95L107.22,178L107.6,190.01L107.83,189.26L107.9,187.31L108.13,181.88L108.51,189.57L108.58,191.99L108.66,192.12L108.73,191.27L108.81,191.38L108.88,189.32L109.03,176.05L109.56,187.51L109.64,188.13L109.86,179.14L110.24,187.25L110.31,189.29L110.39,190.43L110.77,188.03L110.84,185.8L111.07,179.41L111.37,189.06L111.59,181.71L111.67,183.79L111.75,183.28L111.9,184.94L111.97,187.42L112.42,191.22L112.57,188.81L112.65,178.77L112.73,174.32L113.18,186.1L113.25,185.03L113.33,183.88L113.48,178.24L114.01,188.79L114.08,187.83L114.31,184.67L114.38,179.46L114.46,172.74L114.91,186.32L114.99,186.19L115.06,186.04L115.29,169.62L115.59,182.35L115.66,182.7L115.89,187.4L116.12,182.57L116.19,169.9L116.27,154.3L116.87,180.78L116.94,176.27L117.17,156.39L117.62,183.36L117.7,183.61L117.92,179.93L118,168.2L118.08,149.72L118.68,180.3L118.75,176.53L118.9,159.39L119.43,182.62L119.51,182.63L119.58,182.87L119.66,181.75L119.73,178.33L119.88,149.09L120.34,182.57L120.41,182.82L120.49,183.58L120.56,179.91L120.64,176.1L120.79,168.74L121.24,186.43L121.32,186.69L121.47,186.85L121.54,185.33L121.69,171.77L122.29,184.31L122.37,181.24L122.6,174.04L122.97,183.48L123.05,186.62L123.27,190.74L123.5,183.73L123.58,183.74L123.65,181.45L124.1,181.8L124.33,174.87L124.48,175.46L124.56,178.88L124.86,185.64L125.23,181.62L125.31,178.19L125.53,173.19L125.91,180.99L126.14,173.4L126.21,173.33L126.74,184.07L126.97,179.15L127.04,172.41L127.12,156.78L127.72,181.42L127.8,179.2L128.02,167.11L128.4,185.24L128.47,187.6L128.62,187.89L128.7,187.81L128.77,186.35L128.93,170.67L129.53,184.39L129.6,181.66L129.68,178.29L130.13,185.81L130.21,187.8L130.43,189.22L130.58,186.76L130.66,179.78L130.73,174.23L131.19,187.01L131.26,186.59L131.34,187.03L131.56,179.31L132.02,187.79L132.09,189.89L132.39,186.47L132.47,178.92L132.54,173L132.99,188.71L133.07,188.27L133.15,187.72L133.52,180.03L133.82,188.06L133.9,189.6L133.97,191.3L134.28,181.32L134.35,174.77L134.73,188.83L135.1,182.77L135.18,181.16L135.33,181.09L135.41,182.1L135.78,190.16L136.16,185.97L136.23,184.77L136.99,170.55L137.06,173.71L137.14,180.96L137.67,192.08L137.97,186.21L138.04,177.67L138.12,177.34L138.19,178.73L138.27,181.86L139.17,189.91L139.25,190.9L139.47,193.48L139.7,185.04L139.78,171.67L140.23,189.02L140.68,184.01L140.76,185.46L141.28,192.36L141.43,190.25L141.51,182.32L141.58,162.36L142.04,188.28L142.19,186.97L142.26,184.58L142.41,154.19L142.94,191.07L143.02,191.13L143.24,187.54L143.32,179.25L143.39,165.07L143.85,184.49L144,183.84L144.07,182.84L144.22,162.47L144.67,189.2L144.75,191.87L144.98,193.02L145.05,190.6L145.13,183.82L145.2,178.63L145.8,189.31L145.88,187.18L146.11,182.4L146.48,191.21L146.56,193.48L146.71,193.7L146.78,193.62L146.86,191.85L147.01,183.83L147.39,198.32L147.54,195.73L147.61,194.53L147.91,183.63L148.29,194.86L148.37,196.79L148.52,196.85L148.67,196.32L148.74,195.18L149.72,179.8L149.8,181.92L149.87,184.71L150.17,191.72L150.55,184.33L150.63,177.33L150.7,176.08L151,182.56L151.08,183.31L151.15,183.97L151.3,178.83L151.38,170.18L151.46,152.88L151.98,187.85L152.06,187.93L152.21,188.33L152.28,185.46L152.44,168.26L152.89,187.99L152.96,187.56L153.04,186.04L153.34,178.66L153.72,184.78L153.79,186.94L154.09,184.39L154.17,176.83L154.24,171.84L154.7,182.86L154.77,181.27L154.85,183.28L155.15,176.68L155.52,183.89L155.6,186.16L155.98,176.46L156.05,172.77L156.65,188.02L156.81,181.3L156.88,179.42L157.11,182.59L157.18,187.89L157.63,197.93L157.79,189.72L157.86,181.02L158.24,194.99L158.54,183.69L158.61,180.04L158.84,178.12L159.07,184.23L159.14,186.37L159.22,187.49L159.52,185.53L159.59,178.48L159.67,174.16L160.05,190.99L160.12,191.59L160.57,178.47L160.95,186.28L161.03,188.31L161.25,188.32L161.33,189.27L162.23,181.64L162.31,180.27L162.83,189.81L162.91,191.24L162.98,191.79L163.14,190.29L163.21,187.39L163.36,183.94L163.44,182.04L163.51,181.61L163.59,182.95L163.66,186.17L163.81,189.16L164.11,184.22L164.19,183.85L164.27,183.43L164.34,186.11L164.42,188.16L164.87,199.7L165.02,183.7L165.09,180.11L165.55,191.8L165.85,186.16L165.92,182.24L166.07,181.62L166.15,183.66L166.22,184.8L166.68,189.87L166.75,188.62L166.83,181.52L166.9,162.07L167.51,187L167.58,184.27L167.88,178.94L168.11,185.45L168.18,188.78L168.33,191.71L168.64,181.4L168.71,175.98L169.24,190.69L169.46,182.76L169.54,178.17L169.62,174.09L169.99,190.24L170.07,192.55L170.22,192.91L170.29,192.03L170.37,190.65L170.52,181.59L171.05,194.26L171.12,195.4L171.5,185.67L171.8,193.49L171.88,194.62L172.1,194.19L172.18,192.16L172.33,180.06L172.93,188.43L173.01,187.35L173.16,182.07L173.53,193.24L173.61,198.09L173.99,201.53L174.29,197.38L174.36,196.98L174.66,201.46L174.89,196.92L174.97,186.69L175.04,184.63L175.42,191.53L175.49,193.66L176.17,185.29L176.32,190.45L176.4,190.45L176.92,185.83L177.3,195.65L177.38,195.7L177.53,195.79L177.6,193.79L177.75,177.61L178.13,196.8L178.21,198.04L178.28,198.56L178.43,194.73L178.51,190.26L178.66,189.2L178.88,192.74L178.96,194.27L179.18,202.61L179.56,185.91L179.64,190.28L179.71,191.29L180.09,199.33L180.16,195.76L180.24,192.07L180.54,166.03L180.62,179.69L180.69,191.88L180.92,197.1L180.99,199.64L181.07,201.48L181.29,189.76L181.37,185.2L181.82,193L182.12,188.74L182.2,187.28L182.35,184.52L182.42,185.37L182.5,189.02L182.95,198.92L183.1,195.29L183.18,193.31L183.33,188.35L183.71,202.48L183.78,202.54L184.16,191.14L184.53,201.45L184.61,202.23L184.76,202.46L184.84,201.76L184.91,199.08L185.14,196.34L185.21,200.87L185.29,201.52L185.59,206.37L185.74,199.51L185.82,197.69L185.97,195.09L186.34,203.66L186.42,203.65L186.64,202.91L186.72,199.97L187.47,192.91L187.55,187.92L187.77,186.27L188,191.3L188.08,193.32L188.38,197.1L188.68,190.99L188.75,187.06L189.13,197.36L189.28,194.71L189.36,191.38L189.58,191.21L189.96,201.24L190.04,202.38L190.11,203L190.26,198.61L190.34,194.87L190.56,190.51L191.01,195.9L191.17,191.82L191.24,191.28L191.32,190.36L191.62,194.31L191.77,193.63L191.84,193.7L191.99,193.7L192.07,192.1L192.22,183.63L192.45,201.36L192.67,201.35L192.75,202.53L193.2,186.87L193.58,195.94L193.65,195.91L193.95,187.06L194.03,165.82L194.63,202.42L194.78,191.29L194.86,188.58L194.93,186.56L195.31,194.96L195.39,197.64L195.61,197.96L195.69,196.71L195.76,190.14L195.84,186.79L196.21,201.9L196.29,202.15L196.36,203.31L196.59,202.68L196.67,189.76L197.27,198.69L197.5,197.19L197.57,190.54L198.17,204.36L198.4,202.71L198.47,192.07L198.55,190.45L198.93,195.87L199,197.04L199.08,195.94L199.3,199.34L199.45,196.68L199.53,201.38L199.98,203.6L200.21,202.56L200.28,190.67L200.43,189.8L200.51,192.15L200.58,193.15L201.87,202.42L201.94,202.34L202.02,191.32L202.17,191.56L202.24,190.21L202.32,192.8L202.69,198.82L202.92,196.45L203,190.32L203.07,162.26L203.75,185.8L203.82,183.97L204.05,183.84L204.13,185.21L204.58,191.4L204.73,187.68L204.8,179.92L204.88,166.43L205.48,183.17L205.56,181.61L205.86,177.06L206.16,185.7L206.24,187.28L206.46,187.78L206.54,185.53L206.69,168.6L207.29,181.95L207.37,180.27L207.52,171.67L207.97,183.52L208.04,187.26L208.27,186.77L208.35,183.75L208.5,162.06L209.02,185.06L209.1,184.31L209.33,173.18L209.4,161.9L209.48,159.68L209.55,169.18L209.63,179.93L209.93,187.94L210.15,186.41L210.23,179.44L210.3,177.03L210.61,189.89L210.68,191.95L210.83,192.98L210.91,192.58L210.98,188.96L211.28,178.02L211.59,189.28L211.66,193.37L212.11,201.28L212.19,195.53L212.26,190.92L212.34,189.74L212.64,195.74L212.72,198.2L213.09,184.7L213.47,192.68L213.54,192.97L213.7,193.69L213.85,191.49L213.92,186.83L214,180.72L214.45,193.02L214.6,189.88L214.68,187.05L214.9,183.71L215.2,191.27L215.28,193.36L215.5,193.38L215.58,192.26L215.73,183L216.18,198.3L216.26,199.94L216.63,187.68L217.01,194.98L217.09,197.81L217.24,198.43L217.46,194.73L217.76,198.18L217.84,198L218.14,201.12L218.37,194.59L218.44,190.33L218.52,188.44L218.82,198.21L218.89,200.04L219.05,200.19L219.12,199.35L219.2,195.58L219.35,183.32L219.57,204.13L219.87,201.86L219.95,200.49L220.25,189.34L220.7,198.72L220.78,198.62L221.16,189.37L221.38,193.84L221.46,195.31L221.68,196.55L221.91,192.18L221.98,190.82L222.13,189.84L222.21,191.38L222.29,194.2L222.59,200.82L222.81,198.47L222.89,193.44L222.96,188.5L223.42,198.36L223.57,194.59L223.64,193.74L223.94,190.37L224.17,195.99L224.24,197.11L224.62,198.11L224.7,196.06L224.77,195.38L224.92,192.16L225.15,200.62L225.22,200.4L225.3,201.34L225.75,189.33L226.05,195.83L226.13,197.39L226.43,198.75L226.58,193.86L226.66,188.03L226.73,185.23L227.11,194.84L227.26,193.9L227.33,191.69L227.56,184.12L228.01,195.29L228.09,195.37L228.16,195.85L228.24,194.49L228.31,180.77L228.39,171.55L228.84,202.37L228.92,203.95L229.37,178.95L229.75,195.22L229.82,196.41L230.05,195.09L230.12,183.23L230.2,173.64L230.65,201.3L230.72,202.44L230.8,202.57L230.88,192.92L231.1,182.38L231.48,197.28L231.55,199.38L231.78,199.41L231.86,198.43L232.01,191.88L232.46,205.61L232.53,206.04L232.68,203.83L232.76,194.76L232.99,192.55L233.29,197.78L233.36,199.78L233.59,199.78L233.66,203.48L233.81,201.03L234.27,205.57L234.34,205.32L234.42,203.77L234.72,201.98L234.79,193.66L236.15,206.08L236.23,203.43L236.6,192.99L236.98,200.4L237.05,200.43L237.36,204.34L237.43,205.28L237.96,206.29L238.18,205.89L238.26,203.48L238.34,202.72L238.86,204.85L238.94,204.9L239.31,202.72L239.47,204.06L239.54,205.47L239.77,206.33L239.99,204.31L240.07,203.27L240.14,199.15L240.6,205.15L240.75,205.15L240.82,205.15L240.9,204.97L240.97,202.53L241.58,206.59L241.8,206.1L241.88,204.62L242.03,199.28L242.48,204.58L242.56,204.58L242.71,204.74L242.78,202.29L242.93,202.89L243.01,202.16L243.08,204.28L243.38,206.05L243.69,204.31L243.76,203.14L243.91,198.93L244.36,205.2L244.44,205.19L244.66,195.32L245.12,205.61L245.19,206.05L245.42,205.01L245.49,198.64L245.57,197.32L245.95,202.14L246.02,204.04L246.62,206L246.7,200.21L246.77,200.33L246.85,206.39L247,207.02L247.15,206.23L247.23,200.18L247.45,196.75L247.83,201.11L247.91,201.28L248.06,201.35L248.13,200.75L248.21,196.74L248.28,195.91L248.36,203.95L248.81,206.17L249.26,195.74L249.34,197.08L249.41,199.42L250.24,204.35L250.32,205.43L250.62,206.76L250.77,205.93L250.84,199.03L250.99,196.73L251.37,200.98L251.45,202.44L251.75,202.47L251.82,201.67L251.9,200.9L252.12,204.12L252.2,205.52L252.43,206.35L252.65,204.57L252.73,203.7L252.88,198.87L253.48,203.15L253.56,204.59L253.71,201.48L254.31,204.5L254.39,204.54L254.61,203.56L254.84,203.81L254.91,202.41L255.14,204.77L255.52,202.14L255.59,202.89L255.67,202.4L256.04,205.15L256.42,203.32L256.5,203.35L257.17,204.43L257.25,202.47L257.78,201.69L257.85,204.14L257.93,200L258.38,197.34L258.53,199.71L258.6,202.18L258.91,205.98L259.51,205.69L259.58,205.72L259.66,206.56L259.96,204.96L260.11,205.8L260.19,200.89L260.26,200.66L260.41,202.36L260.49,203.86L260.79,204.69L261.09,202.66L261.17,203.41L261.24,204.39L261.47,206.04L261.62,205.16L261.69,198.1L261.92,196.65L262.15,199.64L262.22,201.64L263.28,206.28L263.35,206.06L263.43,204.89L263.5,204.52L263.58,198.71L263.73,197.77L264.03,201.36L264.11,202.19L264.41,202.96L264.48,202L265.16,204.52L265.24,199.23L265.39,196.97L265.84,201.08L265.91,202.59L266.14,202.64L266.22,204.69L267.19,197.67L267.27,197.96L267.35,197.98L267.65,200.79L267.72,201.72L267.95,201.82L268.02,201.07L268.1,196.26L268.17,188.5L268.7,204.1L268.78,203.97L268.85,203.55L269,201.89L269.08,189.69L269.76,204.42L269.83,204.36L269.91,202.3L270.13,199.94L270.59,203.98L270.66,203.93L270.96,194.44L271.19,197.82L271.26,201.96L271.64,204.36L271.79,199.31L271.87,200.26L271.94,198.95L272.54,203.99L272.77,203.14L272.85,199.67L273.3,205.92L273.75,203.12L273.83,203.83L274.13,206.58L274.43,204.77L274.5,197.95L274.58,196.98L274.88,200.61L274.96,202.39L275.94,206.98L276.01,206.95L276.09,206.75L276.16,206.46L276.24,198.83L276.39,196.79L276.76,203.61L276.84,203.62L277.74,207.13L277.82,206.36L278.05,205.17L278.12,199.83L278.2,198.17L278.5,202.43L278.57,207.32L279.1,204.19L279.4,205.98L279.48,206.33L279.55,207.34L279.93,205.44L280.08,206.33L280.16,202L280.61,205.76L280.91,202.97L280.98,202.49L281.36,205.25L281.74,203.23L281.81,203.34L281.89,197.04L282.42,205.11L282.49,205.1L282.57,202.72L282.64,202.11L283.02,204.54L283.09,204.89L283.17,205.28L283.47,204.07L283.55,203.1L284.22,204.94L284.3,204.82L284.37,202.65L284.6,201.35L284.83,203.91L284.9,204.46L284.98,205.69L285.35,203.11L285.58,203.8L285.66,203.83L286.26,202.96L286.56,206.43L286.64,206.65L286.79,207.46L287.09,205.16L287.16,203.89L287.62,205.43L287.69,206.05L287.99,205.98L288.59,208.5L288.67,208.1L288.75,206.98L289.2,202.99L289.57,205L289.65,205.09L289.95,203.76L290.4,204.76L290.48,204.74L290.63,204.52L290.7,203.08L290.93,203.75L291.01,201.49L291.08,203.53L291.16,204.08L291.31,205.7L291.61,201.9L291.68,198.28L292.21,205.58L292.51,204.43L292.59,202.9L292.74,202.9L292.81,200.05L293.12,205.51L293.34,204.68L293.42,202.15L293.49,196.68L294.02,204.47L294.1,204.31L294.17,204.13L294.32,204.03L294.4,203.01L294.77,203.73L294.85,204.68L295.15,204.64L295.23,202.26L295.38,199.06L295.83,204.28L295.9,204.16L295.98,204.22L296.21,203.05L296.51,203.83L296.58,204.09L296.96,204.95L297.11,202.38L297.18,203.25L297.26,202.37L297.64,204.61L298.09,203.61L298.16,203.69L299.45,206.79L299.52,206.75L299.6,206.68L299.9,203.76L300.2,205.55L300.27,206.45L300.5,206.93L300.65,206.1L300.95,206.34L301.03,206.34L301.4,206.35L301.48,205.2L301.63,203.65L302.23,205L302.31,205.04L302.61,199.12L302.76,202.44L302.84,203.37L303.06,204.69L303.29,202.36L303.36,199.31L303.44,197.18L303.89,204.99L303.97,204.99L304.19,204.78L304.27,202.8L304.49,200.1L304.64,203.65L304.72,203.68L305.02,204.84L305.32,203.92L305.4,204.05L306,204.99L306.08,202.86L306.15,196.97L306.75,205.64L306.83,205.05L307.13,203.29L307.58,204.94L307.66,204.95L307.81,204.96L307.88,202.92L308.11,201L308.41,203.12L308.49,204.31L308.79,204.31L308.86,203.39L309.24,203.96L309.32,204.81L309.62,204.85L309.69,202.73L309.92,202.58L310.6,204.56L310.67,203.69L311.05,204.06L311.12,204.87L311.43,204.91L311.5,202.88L312.1,206.73L312.33,204.63L312.41,204.54L312.56,203.68L312.93,204.78L313.08,204.79L313.16,204.8L313.31,203.63L313.69,206.2L313.76,206.23L313.91,206.74L314.06,205.93L314.14,204.69L314.29,203.58L314.82,204.85L314.89,204.85L315.04,204.88L315.12,204.09L315.42,204.01L315.65,204.6L315.72,205.14L316.4,204.13L316.47,204.42L316.55,205.19L316.85,205.25L316.93,203.51L317.15,203.32L317.23,204.29L317.3,204.7L317.53,205.73L317.83,205L317.91,204.22L318.66,205.31L318.74,203.33L318.96,203.01L319.19,204.02L319.26,204.03L319.34,204.85L319.87,203.96L320.09,204.45L320.17,205.16L320.47,205.19L320.54,203.13L320.77,202.91L321.15,205.17L321.45,204.74L321.52,203.93L321.9,204.39L321.98,205.22L322.28,205.47L322.35,203.43L322.43,203.17L322.65,204.76L322.73,206L323.03,206.79L323.18,205.26L323.26,204.93L323.33,204.02L323.93,205.74L324.01,205.78L324.39,203.51L324.61,206.31L324.69,206.31L324.76,205.87L325.14,204.32L325.52,205.44L325.59,205.44L325.89,205.51L325.97,204.42L326.57,206.69L326.72,205.13L326.8,204.99L326.95,204.01L327.17,205.02L327.55,204.98L327.63,204.98L328.3,204.1L328.38,204.99L328.46,205.11L329.13,204.14L329.21,204.96L329.51,204.97L329.59,203.35L329.81,203.16L330.26,205.11L330.49,204.97L330.57,204.13L330.72,200.01L331.09,204.98L331.24,204.96L331.32,204.95L331.62,202.59L332.07,204.51L332.15,204.49L332.3,204.53L332.37,203.67L332.75,204L332.83,205.16L333.13,206.43L333.2,203.66L333.28,203.37L333.81,207.63L334.11,206.02L334.18,204.1L334.33,203.62L334.56,204.51L334.63,205.88L334.78,206.86L335.09,203.39L335.16,204.07L335.24,203.83L335.61,206.71L335.92,204.75L335.99,203.7L336.37,203.99L336.44,204.85L336.67,205.01L336.74,205.85L336.82,205.34L337.12,206.28L337.35,206.28L337.42,206.81L337.87,205.8L337.95,202.82L338.33,207.06L338.78,206.31L338.85,206.64L339.23,207.64L339.31,206.65L339.38,205.66L339.61,203.72L340.13,204.96L340.21,204.97L340.36,204.97L340.44,204.1L340.96,204.57L341.04,205.25L341.79,204.08L341.87,204.93L341.94,204.96L342.17,204.94L342.24,203.31L342.47,203.1L342.62,204.21L342.7,204.58L342.85,205.45L343.22,203.94L343.3,203.94L343.6,204.17L343.68,205.08L343.83,205.33L343.98,205.09L344.05,202.83L344.28,202.7L344.73,204.56L344.96,204.46L345.03,203.59L345.41,204.07L345.48,204.88L345.79,204.93L345.86,202.83L346.09,202.74L346.77,204.52L346.84,203.65L347.22,204.12L347.29,204.92L347.59,204.92L347.67,202.88L347.9,202.82L348.57,204.58L348.65,203.73L349.03,204.29L349.1,205.07L349.4,205.22L349.48,203.36L350.08,206.75L350.31,205.59L350.38,205.07L350.53,203.9L351.06,205.09L351.14,205.05L351.29,204.27L351.59,206.45L351.66,206.47L351.96,206.94L352.04,206.25L352.12,205.24L352.27,203.85L352.87,205.07L352.94,205.09L353.32,204.19L353.55,205.5L353.62,205.92L354.38,204.28L354.45,204.53L354.53,205.26L354.83,205.29L354.9,203.83L355.13,203.54L355.2,204.52L355.28,205.11L355.51,206.17L355.88,204.34L355.96,204.35L356.26,204.47L356.34,205.27L356.64,205.37L356.71,203.47L356.94,203.28L357.31,205.97L357.62,205.02L357.69,204.25L358.07,204.65L358.14,205.46L358.45,205.5L358.52,203.68L358.67,204.27L358.75,203.42L359.05,204.05L359.12,204.78L359.5,204.35L360.25,205.55L360.33,203.82L360.55,203.72L361.23,205.19L361.31,204.45L361.46,200.53L361.99,205.73L362.06,205.75L362.36,203.69L362.74,206.68L362.82,206.07L363.12,200L363.42,202.27L363.49,203.58L364.55,206.59L364.62,205.75L365,200.19L365.15,202.25L365.23,204.94L365.53,205.8L365.9,204.82L365.98,204.84L366.13,198.89L366.43,205.78L366.81,200.06L366.88,201.42L367.11,202.63L367.19,204.14L367.41,204.26L367.49,205.63L367.79,204.21L368.24,205.6L368.32,205.62L368.62,204.91L368.69,201.64L369.3,205.76L369.37,203.95L369.45,203.87L369.97,206.36L370.05,202.66L370.12,205.52L370.2,200.02L370.35,199.85L370.43,204.44L371.1,205.73L371.18,203.93L371.33,204.46L371.41,203.68L371.63,204.53L371.71,204.96L371.78,205.66L372.16,204.46L372.46,205.05L372.54,205.12L372.84,205.86L373.06,204.11L373.14,204.73L373.21,204.04L373.74,205.52L373.89,205.43L373.97,200.56L374.72,205.81L374.8,204.09L374.87,204.05L375.02,203.92L375.4,205.62L375.7,205.38L375.78,204.62L375.93,201.17L376.45,205.8L376.53,205.8L376.76,204.65L377.13,208.02L377.21,209.09L377.58,204.67L378.11,205.74L378.19,205.74L378.64,204.63L378.79,205.11L378.87,206.34L379.02,207.02L379.32,204.73L379.39,204.76L380.15,205.65L380.22,204.33L380.45,204.27L380.82,206.96L381.13,205.59L381.2,204.95L381.95,205.67L382.03,203.92L382.26,203.78L382.63,205.49L382.93,205.33L383.01,204.64L383.39,204.98L383.46,205.65L383.76,205.66L383.84,203.85L384.06,203.72L384.74,205.28L384.82,204.56L385.19,204.97L385.27,205.66L385.57,205.69L385.65,203.84L385.87,203.76L386.55,205.33L386.63,204.61L387,205.06L387.08,205.73L387.38,205.82L387.46,204.13L387.68,203.97L388.06,206.5L388.36,205.33L388.43,204.62L388.74,205L388.81,205.83L389.19,205.85L389.26,204.86L389.41,204.66L389.57,204.96L389.64,205.94L389.87,206.63L390.09,205.39L390.17,204.39L390.92,205.71L391,205.6L391.07,204.83L391.6,204.68L391.67,205.42L391.83,205.45L391.9,201.27L392.13,201.3L392.2,202.75L392.81,205.75L393.03,204.73L393.11,203.92L393.48,205.79L393.94,204.79L394.01,204.85L394.39,205.7L394.46,205.75L394.61,205.71L394.69,203.88L394.91,203.81L395.59,205.33L395.67,204.63L396.05,205.09L396.12,205.79L396.42,205.85L396.5,204.02L396.72,203.87L397.4,205.36L397.48,204.65L397.85,205.23L397.93,205.85L398.23,206.8L398.31,204.8L398.53,204.17L398.68,206.03L398.76,206.31L399.06,206.75L399.13,206.59L399.21,201.26L399.36,200.14L399.44,200.83L399.51,205.27L399.59,202.26L400.04,207L400.19,205.62L400.26,205.6L400.72,208.69L400.79,208.18L400.87,206.84L401.17,205.27L401.4,205.96L401.47,206.99L401.85,207.05L401.92,206.31L402.15,205.59L402.22,206.36L402.3,207.18L402.45,209.79L402.83,205.4L402.9,202.4L403.5,206.99L403.73,206.19L403.81,205.7L403.88,205.32L404.33,206.24L404.48,205.97L404.56,205.84L404.71,205.02L405.16,206.1L405.24,206.09L405.31,206.05L405.46,205.91L405.54,204.56L405.77,204.12L406.07,205.38L406.14,205.93L406.52,205.09L406.9,205.43L406.97,206.05L407.27,206.07L407.35,204.49L407.57,204.11L408.1,205.72L408.25,205.48L408.33,204.87L409.08,206.1L409.16,204.35L409.38,204.19L409.76,206.14L410.06,205.62L410.14,204.99L410.51,205.66L410.59,206.35L410.89,206.56L410.96,204.81L411.42,203.28L411.57,205.24L411.64,205.87L412.32,205.82L412.4,206.47L412.7,206.57L412.77,205.16L412.92,205.45L413,204.82L413.3,205.62L413.38,206.17L413.9,205.28L414.05,205.81L414.13,206.51L414.51,206.44L414.58,205.59L415.11,205.58L415.18,206.17L415.56,205.54L415.64,206.2L415.71,206.3L415.86,206.16L416.24,206.67L416.39,206.2L416.47,205.93L417.22,206.33L417.29,205.71L418.12,206.8L418.2,205.87L418.42,205.55L418.73,206.26L418.8,206.73L419.55,206.59L419.63,206.99L419.93,206.99L420.01,205.69L420.23,205.18L420.53,206.31L420.61,206.75L421.14,205.93L421.29,206.31L421.36,206.45L421.59,206.92L421.82,205.46L421.89,204.95L422.04,204.71L422.42,206.75L423.1,206.49L423.17,206.47L423.55,207.01L423.7,205.51L423.77,205.9L423.85,205.53L424.23,206.83L424.6,205.95L424.68,205.95L425.36,206.99L425.43,205.78L425.66,205.62L426.03,206.99L426.34,206.56L426.41,206.1L426.71,206.54L426.79,207.03L427.17,207.07L427.24,206.31L427.69,207.2L427.77,207.46L427.84,207.7L428.14,206.24L428.22,206.24L428.97,207.03L429.05,206.61L430.03,206.51L430.1,206.93L430.78,207.05L430.86,206.14L431.08,205.75L431.38,206.59L431.46,206.92L432.21,206.68L432.29,207.06L432.59,207.05L432.67,205.74L432.82,205.99L432.89,205.49L433.19,206.02L433.27,206.51L433.49,206.29L433.57,202.53L433.8,203.47L433.87,206.41L434.32,206.95L434.4,206.88L434.47,205.4L434.7,204.92L435.38,206.45L435.45,203.1L436.21,207.06L436.28,205.82L436.43,206.06L436.51,205.55L436.81,206.1L436.89,206.59L437.11,206.5L437.19,202.99L437.26,202.34L437.64,205.55L437.71,206.82L438.02,206.85L438.09,205.56L438.69,206.73L439,206.43L439.07,202.9L439.22,202.72L439.3,206.3L439.82,206.53L439.9,205.66L440.13,205.02L440.35,206.29L440.43,206.29L440.5,206.65L440.88,202.41L441.18,203.21L441.26,206.25L441.63,206.41L441.71,205.73L441.78,202.68L441.86,200.2L442.46,203.81L442.54,203.78L442.61,202.69L442.91,206.22L443.14,205.93L443.21,205.95L443.44,205.96L443.52,204.65L443.74,201.73L444.12,205.47L444.19,205.35L444.27,205.24L444.42,203.78L444.95,206.11L445.02,206.14L445.25,206.14L445.32,203.89L445.55,201.86L445.93,204.94L446,204.94L446.08,204.84L446.15,203.69L446.68,205.44L446.76,206.13L447.06,206.13L447.13,204.11L447.21,202.24L447.74,206.56L447.81,206.51L448.11,204.14L448.49,205.64L448.56,206.23L448.87,206.27L448.94,204.66L449.17,204.28L449.77,205.82L449.85,202.09L449.92,201.49L450.15,205.61L450.22,205.66L450.67,206.74L450.83,205.4L450.9,205.69L450.98,204.98L451.35,206.56L451.81,205.73L451.88,205.76L452.48,206.82L452.63,205.97L452.71,205.94L453.09,206.31L453.16,206.67L453.46,205.88L453.69,206.55L453.76,206.96L453.91,207.03L454.67,206.24L454.74,206.31L456.02,207.06L456.1,207.06L456.4,206.12L456.85,207.06L456.93,207.04L457.46,206.53L457.68,207.05L457.76,207.05L457.91,206.92L457.98,205.59L458.21,202.77L458.51,204.83L458.59,205.71L458.81,205.59L459.42,207.05L459.49,207.05L459.72,206.92L459.79,205.57L460.02,205.3L460.24,205.95L460.32,205.91L460.4,206.4L460.62,206.19L460.7,201.45L460.77,201.18L460.92,203.05L461,204.44L461.22,206.83L461.6,205.37L461.68,201.6L461.75,199.72L462.2,206.18L462.28,206.18L462.5,199.83L463.03,205.45L463.11,205.49L463.26,205.51L463.33,204.62L463.48,199.96L464.01,206.7L464.09,203.26L464.16,202.23L464.31,200.3L464.77,204.06L464.84,206.58L465.14,206.6L465.22,205.74L465.44,205.56L465.74,206.17L465.82,206.56L465.9,206.42L465.97,202.06L466.12,200.91L466.42,204.09L466.5,206.13L466.65,206.64L467.03,205.67L467.1,202.98L467.93,194.99L468.01,195.07L468.61,204.04L468.76,202.16L468.83,198.89L468.91,191.19L469.44,205.95L469.51,205.95L469.74,192.65L470.19,205.86L470.27,206.45L470.42,206.63L470.49,205.25L470.72,191.37L470.94,196.57L471.02,200.8L471.25,202.45L471.4,200.86L471.47,195.71L472.3,206.28L472.38,206.24L473.36,200.23L473.43,200.16L473.96,205.36L474.18,203.29L474.26,199.29L474.33,197.5L474.79,202L474.94,201.09L475.01,200.55L475.84,206.79L475.92,206.79L476.29,204.7L476.67,206.14L476.75,206.14L477.05,205.08L477.5,206.12L477.58,206.12L477.8,206.12L477.88,205.2L478.1,200.01L478.48,206.1L478.78,200.48L478.86,200.36L479.53,206.12L479.61,204.41L479.68,203.71L479.76,203.39L479.84,198.43L480.36,206.02L480.59,200.28L480.66,200.51L481.04,202.69L481.12,203.88L481.27,203.91L481.34,203.35L481.42,202.14L481.49,199.69L482.02,205.31L482.1,205.9L482.4,199.39L482.85,205.4L482.92,206.03L483.23,206.08L483.3,204.35L483.45,204.85L483.53,204.17L483.75,204.95L483.83,204.96L483.98,205.63L484.28,204.91L484.58,205.43L484.66,204.16L484.81,205.97L485.11,200.08L485.41,204.71L485.49,204.72L485.71,205.56L485.79,205.5L485.86,201.23L486.09,199.88L486.17,204.75L486.24,204.75L486.84,207.06L486.92,205.48L486.99,204.08L487.52,205.85L487.67,205.48L487.75,200.53L487.9,199.84L488.05,201.35L488.12,205.2L488.27,204.99L488.35,206.16L488.43,206.85L488.65,206.8L488.73,204.83L488.8,203.94L489.33,206.4L489.41,205.54L489.48,205.35L489.78,204.22L490.16,205.38L490.23,205.38L490.46,205.38L490.54,204.24L490.76,204.05L490.99,204.8L491.06,204.75L491.14,205.25L491.29,204.75L491.36,198.84L491.59,198.39L491.67,200.19L491.74,200.86L492.12,205.84L492.34,201.66L492.42,198.4L492.95,206.15L493.1,200.55L493.17,198.19L493.32,197.53L493.47,200.04L493.55,201.46L493.78,205.89L494.08,200.74L494.15,196.46L494.23,193.89L494.6,204.04L494.83,198.65L494.91,197.19L495.13,192.3L495.51,200.33L495.58,204.64L495.89,204.47L495.96,193.29L496.04,184.89L496.56,203.68L496.64,203.7L496.86,190.89L497.39,201.02L497.47,201.07L497.69,198.32L497.77,191.53L497.84,183.2L498.22,203.04L498.45,195.76L498.52,193.52L498.82,186.96L499.13,197L499.2,199.15L499.43,199.33L499.5,197.06L499.65,174.55L499.95,202.69L500.03,202.89L500.18,204.04L500.26,196.65L500.48,185.16L500.56,174.45L501.24,201.29L501.39,194.23L501.46,192.38L501.84,203.21L502.14,194.95L502.21,193.1L502.29,191.54L502.67,196.19L502.74,197.96L503.04,200.66L503.35,195.57L503.42,192.87L503.5,192.17L503.65,196.68L503.72,204.39L503.8,204.99L503.87,197.98L504.17,191.93L504.55,198.34L504.63,200.12L504.78,200.81L504.93,198.78L505,197.36L505.91,189.81L505.98,189.92L506.06,189.98L506.66,196.05L506.74,194.23L506.81,189.62L507.04,183.09L507.26,195.58L507.41,194.88L507.49,193.99L507.79,188.47L508.17,193.47L508.24,196.08L508.32,196.21L508.47,195.32L508.54,193.52L508.7,185.61L509.3,192.17L509.37,189.39L509.6,186.38L509.9,191.67L509.98,193.45L510.2,196.71L510.43,187.13L510.5,183.88L510.96,197.39L511.33,191.54L511.41,192.64L511.56,193.99L511.63,204.25L511.78,204.13L511.86,204.92L512.01,204.85L512.09,204.85L512.24,193.93L512.91,196.94L512.99,194.92L513.14,193.46L513.52,195.64L513.59,198.09L514.12,191.52L514.35,203.6L514.42,197.02L514.57,200.38L514.8,193.79L514.87,192.49L514.95,191.31L515.25,196.17L515.33,197.86L515.7,204.08L516,197.71L516.08,197.74L516.46,199.82L516.61,195.56L516.68,193.5L516.83,191.46L517.06,195.54L517.13,196.66L517.51,198.86L517.66,196.21L517.74,194.28L517.89,188.79L518.26,194.37L518.57,189.07L518.64,190.59L519.24,199.07L519.39,197.18L519.47,191.62L519.55,168.27L520.07,196.01L520.15,195.1L520.22,193.19L520.45,185.44L520.83,196.22L520.9,200.88L521.05,202.6L521.2,198.89L521.28,189.23L521.35,183.71L521.81,200.87L521.88,200.63L521.96,196.96L522.18,189.43L522.64,199.49L522.71,201.53L522.86,203.11L523.01,198.02L523.09,191.43L523.16,188.05L523.54,196.19L523.69,195.86L523.77,195.11L524.07,191.08L524.37,195.23L524.44,196.93L524.67,197.83L524.82,195.13L524.9,189.89L524.97,186.76L525.5,193.79L525.57,193.04L525.65,190.9L525.88,186.93L526.25,194.43L526.33,196.17L526.7,188.08L526.78,183.44L527.38,189.4L527.53,184.94L527.61,184.77L527.76,184.91L527.83,186.27L528.44,195.05L528.59,190.67L528.66,188.8L528.74,187.09L528.96,197.99L529.04,198.65L529.12,199.31L529.19,198.86L529.27,191.43L529.42,186.38L529.79,200.53L529.87,201.42L530.02,202.17L530.25,201.42L530.32,195.77L531.15,187.66L531.3,188.65L531.38,189.39L531.98,196.19L532.05,194.59L532.13,189.58L532.2,186.58L532.73,194.16L532.81,193.94L533.18,190.38L533.41,193.58L533.49,196.34L533.71,198.94L533.94,190.22L534.01,188.25L534.62,194.28L534.77,191.69L534.84,190.8L534.99,190.84L535.07,192.48L535.6,200.38L535.75,195.35L535.82,190.4L536.27,194.59L536.57,190.53L536.65,189.92L537.03,198.72L537.1,201.34L537.33,202.68L537.48,201.05L537.55,192.73L537.63,186.08L538.23,193.92L538.31,192.41L538.46,189.66L538.84,195.78L538.91,198.8L539.21,201.35L539.36,193.7L539.44,190.11L539.89,192.56L540.19,190.27L540.27,190.09L541.1,202.31L541.25,199.48L541.32,197.81L542.15,194.65L542.23,194.88L542.75,199.93L542.98,197.25L543.06,195.23L543.88,188.94L543.96,191.35L544.03,192.45L544.41,198.9L544.71,195.83L544.79,189.86L544.86,141.67L545.47,193.74L545.54,192.57L545.62,191.76L545.99,194.56L546.07,195.24L546.37,201.54L546.75,192.81L546.82,195.36L546.9,196.06L546.97,196.62L547.12,194.88L547.27,195.98L547.35,189.78L547.58,186.31L547.73,191.3L547.8,196.41L548.03,200.98L548.33,199.43L548.41,189.48L548.48,185.93L548.93,196.13L549.01,195.58L549.08,196.19L549.23,194.02L549.61,199.02L549.69,199.3L549.99,200.95L550.14,199.77L550.21,195.87L550.29,193.15L550.74,197.25L550.97,195.42L551.04,193.49L551.12,192.51L551.34,196.31L551.42,198.74L551.87,200.23L551.95,199.39L552.02,195.06L552.85,183.44L552.93,185.93L553,188.34L553.68,200.74L553.91,197.59L553.98,195.9L554.43,196.97L554.73,192.9L554.81,193.33L554.89,195.66L555.34,200.48L555.56,197.43L555.64,195.3L555.86,175.65L556.47,179.18L556.54,182.63L556.62,174.23L557.07,196.58L557.15,196.52L557.22,196.62L557.52,185.98L557.75,190.79L557.82,192.4L558.13,192.81L558.2,191.81L558.28,189.97L559.03,197.43L559.18,195.9L559.26,190.45L559.33,185.25L559.86,193.19L559.93,193.08L560.01,191.02L560.24,190.15L560.39,191.17L560.46,193.96L560.76,197.44L560.99,195.74L561.06,189.39L561.14,185.08L561.67,192.46L561.74,192.28L561.82,190.56L562.04,187.48L562.35,193.69L562.42,195.27L562.57,196.79L562.87,189.85L562.95,182.48L563.55,192.09L563.78,189.22L563.85,189.03L563.93,188.39L564.08,192.56L564.15,193.47L564.53,198.94L564.61,194.63L564.68,188.06L564.76,184.96L565.13,191.45L565.28,191.42L565.36,191.24L565.66,179.27L565.81,180.92L565.89,191.15L566.41,199.06L566.56,195.14L566.64,190.24L566.87,186.44L567.02,190.64L567.39,187.37L567.47,187.56L568.07,197.66L568.3,192.94L568.37,184.69L568.45,179.17L568.9,189.36L569.05,189.02L569.13,186.82L569.2,185.74L569.5,190.89L569.58,192.18L569.8,194.36L570.03,192.55L570.11,186.6L570.26,151.56L570.86,178.93L570.94,179.94L571.01,178.9L571.16,184.73L571.24,187.29L571.54,193.1L571.84,190.59L571.91,181.64L571.99,176.4L572.52,186.36L572.59,186.43L572.82,176.31L572.97,182.67L573.04,184.06L573.5,193.34L573.72,183.06L573.8,178.41L574.4,186.93L574.55,181.73L574.63,180.71L574.7,179.22L574.93,187.16L575,188.9L575.31,193.36L575.46,189.63L575.53,181.53L575.61,174.74L576.21,183.78L576.28,182.79L576.44,180.3L576.74,187.79L576.81,188.51L577.11,191.65L577.26,190.01L577.34,183.65L577.42,178.32L578.02,185.26L578.09,183.22L578.17,181.12L578.24,180.39L578.47,183.8L578.55,186.31L578.85,192.6L579.22,187.88L579.3,183.46L579.6,184.26L579.98,179.09L580.13,179.33L580.2,180.64L580.66,187.56L580.96,182.11L581.03,176.21L581.86,134.66L581.94,137.99L582.61,174.35L582.77,156.82L582.84,131.23L583.44,158.22L583.67,147.98L583.74,151.25L584.42,186.28L584.5,182.83L584.57,164.13L584.65,144.96L585.1,174.43L585.25,169.34L585.33,164.59L585.48,155.09L585.85,179.21L585.93,184.49L586.16,187.69L586.31,183.16L586.38,163.9L586.83,166.58L587.21,143.38L587.29,148.53L588.04,185.55L588.12,183.38L588.19,161.59L588.27,149.64L588.79,179.2L588.87,183.02L589.09,164.91L589.4,182.86L589.47,185.87L589.77,192.63L590,183.08L590.07,177.34L590.38,185.08L590.83,178.16L590.9,179.56L591.36,193.86L591.43,198.14L591.58,199.83L591.81,198L591.88,196.76L592.71,184.92L592.86,186.6L592.94,189.53L593.31,200.09L593.62,193.94L593.69,189.38L594.52,181.5L594.6,182.46L594.67,183.66L595.12,191.75L595.35,190.01L595.42,183.29L595.5,179.14L595.88,186.29L596.1,184.62L596.18,183.52L596.4,179.77L596.78,186.99L596.86,188.89L597.01,188.85L597.08,189.51L597.16,187.46L598.14,154.71L598.21,158.66L598.81,189.04L599.04,169.93L599.12,152.79L599.57,170.59L599.79,155.15L599.87,147.18L599.95,142.82L600.25,166.94L600.32,178.4L600.7,186.78L600.85,174.29L600.92,163.92L601.53,183.49L601.83,180.51L601.9,181.78L602.51,191.47L602.58,189.98L602.66,184.08L602.73,179.61L603.34,186.01L603.41,183.91L603.49,182.05L603.64,181.27L603.79,183.39L603.86,186.05L604.01,188.5L604.09,190.5L605.3,176.67L605.45,176.95L605.52,177.91L605.97,188.75L606.27,182.87L606.35,181.6L607.18,174.06L607.25,175.24L607.33,176.39L607.78,186.56L608.01,180.52L608.08,172.91L608.61,173.19L608.91,129.32L608.99,132.29L609.06,134.03L609.51,177.79L609.82,171.44L609.89,141.59L610.04,89.59L610.57,150.75L610.65,146.1L611.55,178.89L611.62,176.52L611.7,159.73L611.78,136.41L612.38,172.38L612.45,169.66L612.53,166.59L612.98,177.05L613.06,181.75L613.28,192.16L613.51,172.35L613.58,160.62L613.66,155.41L614.04,164.21L614.11,162.56L614.19,169.88L614.41,148.87L614.86,181.53L614.94,184.24L615.09,185.17L615.24,184.48L615.32,176.97L615.39,171.36L615.99,179.45L616.07,176.84L616.15,174.12L616.45,177.82L616.52,181.44L617.05,188.36L617.2,183.26L617.28,179.78L617.43,171.57L618.03,174.64L618.1,177.24L618.71,192.29L618.93,188.07L619.01,184.29L619.76,166.03L619.91,167.78L619.99,171.21L620.44,188.84L620.67,184.17L620.74,170.18L621.5,142.43L621.57,145.28L621.65,152.63L622.32,189.85L622.55,173.01L622.63,130.14L623.38,83.27L623.45,122.04L624.13,183.36L624.36,158.2L624.43,37.61L624.81,127.7L625.11,37.65L625.19,17.21L625.94,189.14L626.09,185.79L626.17,175.58L626.32,137.6L626.92,166.38L627,160.93L627.07,160.66L627.15,176.1L627.22,175.62L627.3,177.64L627.37,182.72L627.67,189.62L627.9,189.07L627.98,182.37L628.05,175.88L628.65,184.51L628.73,182.29L628.8,180.31L629.26,187.84L629.33,189.51L629.56,191.27L629.78,187.06L629.86,185.25L630.09,177.06L630.61,183.41L630.69,184.29L631.29,199.91L631.59,195.13L631.67,190.99L631.89,185.23L632.42,188.77L632.5,189.66L633.1,197.83L633.33,195.12L633.4,189.56L633.93,189.84L634.23,173.06L634.31,180.41L634.38,180.82L634.46,177.97L634.53,183.47L634.98,196.48L635.28,183.66L635.36,187.27L635.66,189.48L635.74,190.56L636.04,187.52L636.34,190.9L636.42,193.88L636.79,201.26L636.94,197.52L637.02,191.31L637.09,185.28L637.77,188.28L637.85,187.46L638,186.56L638.15,189L638.22,192.44L638.3,192.63L638.37,195.3L638.52,197.8L638.75,194.84L638.83,188.49L639.28,189.58L639.66,184.34L639.73,183.93L639.96,187.01L640.03,189.82L640.48,194.06L640.56,192.16L640.63,186.71L640.71,182.36L641.31,189.04L641.39,186.92L641.46,185.28L641.77,191.56L641.84,195.16L642.37,199.42L642.59,195.2L642.67,187.72L642.97,188L643.2,183.04L643.27,179.22L643.35,178.59L643.42,182.46L643.5,184.23L644.03,197.47L644.25,191.1L644.33,186.2L645.16,162.43L645.23,164.15L645.31,167.95L645.76,188.52L646.06,181.24L646.14,176.31L646.74,186.24L646.96,185.77L647.04,186.09L647.11,184.6L647.42,192.55L647.49,196.21L648.09,185.66L648.77,185.88L648.85,187.16L648.92,185.34L649.22,192.75L649.3,196.48L650.05,182.68L650.28,183.19L650.36,183.38L650.43,181.89L650.81,184.18L650.88,188.55L651.03,188.29L651.33,191.75L651.41,187.02L651.56,174.22L652.24,178.66L652.31,178.62L652.39,178.47L652.54,179.6L652.62,182.81L653.07,192.35L653.29,184.67L653.37,180.08L653.82,185.48L654.12,182L654.2,182.94L655.03,195.59L655.18,191.05L655.25,186.61L655.4,182.63L655.7,187.2L656.01,184.05L656.08,185.11L656.23,187.74L656.31,191.06L656.46,190.68L656.61,193.47L656.91,190.75L656.99,188.95L657.21,181.79L657.81,186.08L657.89,187.1L658.42,194.26L658.64,192.14L658.72,188.32L658.79,183.77L659.32,188.63L659.47,186.71L659.55,185.16L659.85,189.55L659.92,191.97L660,191.61" style="vector-effect: none; fill: none; stroke: rgb(54, 112, 97); stroke-opacity: 1; stroke-width: 0px; opacity: 1;"/></g><g class="points"/><g class="text"/></g></g></g><g class="overplot"/><path class="xlines-above crisp" d="M19,230.5H681M19,19.5H681" style="fill: none; stroke-width: 1px; stroke: rgb(68, 68, 68); stroke-opacity: 1;"/><path class="ylines-above crisp" d="M19.5,20V230M680.5,20V230" style="fill: none; stroke-width: 1px; stroke: rgb(68, 68, 68); stroke-opacity: 1;"/><g class="overlines-above"/><g class="xaxislayer-above"><path class="xtick ticks crisp" d="M0,231v5" transform="translate(20,0)" style="stroke: rgb(68, 68, 68); stroke-opacity: 1; stroke-width: 1px;"/><path class="xtick ticks crisp" d="M0,231v5" transform="translate(126.7,0)" style="stroke: rgb(68, 68, 68); stroke-opacity: 1; stroke-width: 1px;"/><path class="xtick ticks crisp" d="M0,231v5" transform="translate(237.01,0)" style="stroke: rgb(68, 68, 68); stroke-opacity: 1; stroke-width: 1px;"/><path class="xtick ticks crisp" d="M0,231v5" transform="translate(347.33,0)" style="stroke: rgb(68, 68, 68); stroke-opacity: 1; stroke-width: 1px;"/><path class="xtick ticks crisp" d="M0,231v5" transform="translate(459.45,0)" style="stroke: rgb(68, 68, 68); stroke-opacity: 1; stroke-width: 1px;"/><path class="xtick ticks crisp" d="M0,231v5" transform="translate(569.76,0)" style="stroke: rgb(68, 68, 68); stroke-opacity: 1; stroke-width: 1px;"/><g class="xtick"><text text-anchor="middle" x="0" y="255.2" transform="translate(20,0)" style="font-family: 'Open Sans', verdana, arial, sans-serif; font-size: 16px; fill: rgb(68, 68, 68); fill-opacity: 1; white-space: pre; opacity: 0;">01.01</text></g><g class="xtick"><text text-anchor="middle" x="0" y="255.2" style="font-family: 'Open Sans', verdana, arial, sans-serif; font-size: 16px; fill: rgb(68, 68, 68); fill-opacity: 1; white-space: pre; opacity: 1;" transform="translate(126.7,0)">01.03</text></g><g class="xtick"><text text-anchor="middle" x="0" y="255.2" style="font-family: 'Open Sans', verdana, arial, sans-serif; font-size: 16px; fill: rgb(68, 68, 68); fill-opacity: 1; white-space: pre; opacity: 1;" transform="translate(237.01,0)">01.05</text></g><g class="xtick"><text text-anchor="middle" x="0" y="255.2" style="font-family: 'Open Sans', verdana, arial, sans-serif; font-size: 16px; fill: rgb(68, 68, 68); fill-opacity: 1; white-space: pre; opacity: 1;" transform="translate(347.33,0)">01.07</text></g><g class="xtick"><text text-anchor="middle" x="0" y="255.2" style="font-family: 'Open Sans', verdana, arial, sans-serif; font-size: 16px; fill: rgb(68, 68, 68); fill-opacity: 1; white-space: pre; opacity: 1;" transform="translate(459.45,0)">01.09</text></g><g class="xtick"><text text-anchor="middle" x="0" y="255.2" style="font-family: 'Open Sans', verdana, arial, sans-serif; font-size: 16px; fill: rgb(68, 68, 68); fill-opacity: 1; white-space: pre; opacity: 1;" transform="translate(569.76,0)">01.11</text></g></g><g class="yaxislayer-above"><path class="ytick ticks crisp" d="M19,0h-5" transform="translate(0,230)" style="stroke: rgb(68, 68, 68); stroke-opacity: 1; stroke-width: 1px;"/><path class="ytick ticks crisp" d="M19,0h-5" transform="translate(0,188)" style="stroke: rgb(68, 68, 68); stroke-opacity: 1; stroke-width: 1px;"/><path class="ytick ticks crisp" d="M19,0h-5" transform="translate(0,146)" style="stroke: rgb(68, 68, 68); stroke-opacity: 1; stroke-width: 1px;"/><path class="ytick ticks crisp" d="M19,0h-5" transform="translate(0,104)" style="stroke: rgb(68, 68, 68); stroke-opacity: 1; stroke-width: 1px;"/><path class="ytick ticks crisp" d="M19,0h-5" transform="translate(0,62)" style="stroke: rgb(68, 68, 68); stroke-opacity: 1; stroke-width: 1px;"/><path class="ytick ticks crisp" d="M19,0h-5" transform="translate(0,20)" style="stroke: rgb(68, 68, 68); stroke-opacity: 1; stroke-width: 1px;"/><g class="ytick"><text text-anchor="end" x="10.8" y="5.6" transform="translate(0,230)" style="font-family: 'Open Sans', verdana, arial, sans-serif; font-size: 16px; fill: rgb(68, 68, 68); fill-opacity: 1; white-space: pre; opacity: 1;">0</text></g><g class="ytick"><text text-anchor="end" x="10.8" y="5.6" style="font-family: 'Open Sans', verdana, arial, sans-serif; font-size: 16px; fill: rgb(68, 68, 68); fill-opacity: 1; white-space: pre; opacity: 1;" transform="translate(0,188)">10</text></g><g class="ytick"><text text-anchor="end" x="10.8" y="5.6" style="font-family: 'Open Sans', verdana, arial, sans-serif; font-size: 16px; fill: rgb(68, 68, 68); fill-opacity: 1; white-space: pre; opacity: 1;" transform="translate(0,146)">20</text></g><g class="ytick"><text text-anchor="end" x="10.8" y="5.6" style="font-family: 'Open Sans', verdana, arial, sans-serif; font-size: 16px; fill: rgb(68, 68, 68); fill-opacity: 1; white-space: pre; opacity: 1;" transform="translate(0,104)">30</text></g><g class="ytick"><text text-anchor="end" x="10.8" y="5.6" style="font-family: 'Open Sans', verdana, arial, sans-serif; font-size: 16px; fill: rgb(68, 68, 68); fill-opacity: 1; white-space: pre; opacity: 1;" transform="translate(0,62)">40</text></g><g class="ytick"><text text-anchor="end" x="10.8" y="5.6" style="font-family: 'Open Sans', verdana, arial, sans-serif; font-size: 16px; fill: rgb(68, 68, 68); fill-opacity: 1; white-space: pre; opacity: 1;" transform="translate(0,20)">50</text></g></g><g class="overaxes-above"/></g></g><g class="polarlayer"/><g class="smithlayer"/><g class="ternarylayer"/><g class="geolayer"/><g class="funnelarealayer"/><g class="pielayer"/><g class="iciclelayer"/><g class="treemaplayer"/><g class="sunburstlayer"/><g class="glimages"/><defs id="topdefs-dc4a95"><g class="clips"/><clipPath id="legenddc4a95"><rect width="210" height="55" x="0" y="0"/></clipPath></defs><g class="layer-above"><g class="imagelayer"/><g class="shapelayer"/></g><g class="infolayer"><g class="legend" pointer-events="all" transform="translate(26.6,24.200000000000003)"><rect class="bg" shape-rendering="crispEdges" style="stroke: rgb(68, 68, 68); stroke-opacity: 1; fill: rgb(0, 0, 0); fill-opacity: 0; stroke-width: 0px;" width="210" height="55" x="0" y="0"/><g class="scrollbox" transform="" clip-path="url(#legenddc4a95)"><g class="groups"><g class="traces" transform="translate(0,27.3)" style="opacity: 1;"><text class="legendtext" text-anchor="start" x="40" y="-4.16" style="font-family: 'Open Sans', verdana, arial, sans-serif; font-size: 16px; fill: rgb(68, 68, 68); fill-opacity: 1; white-space: pre;"><tspan class="line" dy="0em" x="40" y="-4.16">Strm:</tspan><tspan class="line" dy="1.3em" x="40" y="-4.16">35 881 kr/r | 46 kr</tspan></text><g class="layers"><g class="legendfill"><path class="js-fill" d="M5,-2h30v6h-30z" style="stroke-width: 0; fill: rgb(54, 112, 97); fill-opacity: 0.5;"/></g><g class="legendlines"><path class="js-line" d="M5,-2h30" style="fill: none; stroke: rgb(54, 112, 97); stroke-opacity: 1; stroke-width: 0px;"/></g><g class="legendsymbols"><g class="legendpoints"/></g></g><rect class="legendtoggle" x="0" y="-22.3" width="206.5625" height="44.6" style="fill: rgb(0, 0, 0); fill-opacity: 0;"/></g></g></g><rect class="scrollbar" rx="20" ry="3" width="0" height="0" style="fill: rgb(128, 139, 164); fill-opacity: 1;" x="0" y="0"/></g><g class="g-gtitle"/><g class="g-xtitle"/><g class="g-ytitle" transform="translate(32,0)"><text class="ytitle" transform="rotate(-90,-18,125)" x="-18" y="125" text-anchor="middle" style="font-family: 'Open Sans', verdana, arial, sans-serif; font-size: 14px; fill: rgb(68, 68, 68); opacity: 1; font-weight: normal; white-space: pre;">Kostnad (kr)</text></g></g></svg>